<svg version="1.1" xmlns="http://www.w3.org/2000/svg" xmlns:xlink="http://www.w3.org/1999/xlink" width="173.96679" height="90.01511" viewBox="0,0,173.96679,90.01511"><g transform="translate(-234.25383,-137.01388)"><g data-paper-data="{&quot;isPaintingLayer&quot;:true}" fill-rule="nonzero" stroke="#000000" stroke-linejoin="miter" stroke-miterlimit="10" stroke-dasharray="" stroke-dashoffset="0" style="mix-blend-mode: normal"><path d="M405.07272,154.77442c0,12.99455 -20.30402,23.52872 -45.3503,23.52872c-25.04628,0 -45.35031,-10.53417 -45.35031,-23.52872c0,-12.99455 20.60092,-14.02816 45.6472,-14.02816c25.04628,0 45.05341,1.03361 45.05341,14.02816z" fill="#fff7ad" stroke-width="5" stroke-linecap="butt"/><path d="M405.32244,174.1737c0,12.99455 -20.30403,23.52872 -45.35031,23.52872c-25.04628,0 -45.3503,-10.53417 -45.3503,-23.52872c0,-12.99455 20.60092,-14.02817 45.6472,-14.02817c25.04628,0 45.05341,1.03361 45.05341,14.02817z" fill="#fff7ad" stroke-width="5" stroke-linecap="butt"/><path d="M405.72061,194.01832c0,12.99455 -20.30402,23.52871 -45.3503,23.52871c-25.04628,0 -45.3503,-10.53416 -45.3503,-23.52871c0,-12.99455 20.60092,-14.02817 45.6472,-14.02817c25.04628,0 45.05341,1.03361 45.05341,14.02817z" fill="#fff7ad" stroke-width="5" stroke-linecap="butt"/><path d="M327.45445,156.19909c0,12.99455 -20.30402,23.52872 -45.35031,23.52872c-25.04628,0 -45.35031,-10.53417 -45.35031,-23.52872c0,-12.99455 20.60092,-14.02816 45.6472,-14.02816c25.04628,0 45.05341,1.03361 45.05341,14.02816z" fill="#fff7ad" stroke-width="5" stroke-linecap="butt"/><path d="M327.70417,175.59837c0,12.99455 -20.30402,23.52872 -45.3503,23.52872c-25.04628,0 -45.35031,-10.53417 -45.35031,-23.52872c0,-12.99455 20.60092,-14.02817 45.6472,-14.02817c25.04628,0 45.05341,1.03361 45.05341,14.02817z" fill="#fff7ad" stroke-width="5" stroke-linecap="butt"/><path d="M328.10235,195.44299c0,12.99455 -20.30402,23.52872 -45.3503,23.52872c-25.04628,0 -45.35031,-10.53417 -45.35031,-23.52872c0,-12.99455 20.60092,-14.02817 45.6472,-14.02817c25.04628,0 45.05341,1.03361 45.05341,14.02817z" fill="#fff7ad" stroke-width="5" stroke-linecap="butt"/><path d="M279.10914,173.76734c0,-28.03489 20.87381,-34.25346 48.90869,-34.25346c28.03488,0 52.61461,6.21858 52.61461,34.25346c0,28.03489 -22.72676,50.76165 -50.76165,50.76165c-28.03488,0 -50.76165,-22.72676 -50.76165,-50.76165z" fill="#fff7ad" stroke-width="5" stroke-linecap="butt"/><path d="M324.67223,180.46694c0,-7.69459 6.2377,-13.93229 13.93229,-13.93229c7.69459,0 13.93229,6.2377 13.93229,13.93229c0,7.69459 -6.2377,13.93229 -13.93229,13.93229c-7.69459,0 -13.93229,-6.2377 -13.93229,-13.93229z" fill="#000000" stroke-width="2.5" stroke-linecap="butt"/><path d="M344.17485,180.41132c0,-2.42258 1.96389,-4.38647 4.38647,-4.38647c2.42259,0 4.38647,1.96389 4.38647,4.38647c0,2.42258 -1.96389,4.38647 -4.38647,4.38647c-2.42259,0 -4.38647,-1.96389 -4.38647,-4.38647z" fill="#fff7ad" stroke-width="0.5" stroke-linecap="butt"/><path d="M370.4076,193.70106c-7.69459,0 -13.93229,-6.2377 -13.93229,-13.93229c0,-7.69459 6.2377,-13.93229 13.93229,-13.93229c7.69459,0 13.93229,6.2377 13.93229,13.93229c0,7.69459 -6.2377,13.93229 -13.93229,13.93229z" data-paper-data="{&quot;index&quot;:null}" fill="#000000" stroke-width="2.5" stroke-linecap="butt"/><path d="M380.70989,183.9595c-2.35299,0 -4.26047,-1.90748 -4.26047,-4.26047c0,-2.35299 1.90747,-4.26047 4.26047,-4.26047c2.35299,0 4.26047,1.90748 4.26047,4.26047c0,2.35299 -1.90747,4.26047 -4.26047,4.26047z" data-paper-data="{&quot;index&quot;:null}" fill="#fff7ad" stroke-width="0.5" stroke-linecap="butt"/><path d="M311.54239,198.63794c0,0 4.20654,5.81836 8.59407,7.22707c6.94994,2.23142 29.08021,4.86903 29.08021,4.86903" fill="none" stroke-width="2.5" stroke-linecap="round"/></g></g></svg>