<svg version="1.1" xmlns="http://www.w3.org/2000/svg" xmlns:xlink="http://www.w3.org/1999/xlink" width="110.55202" height="110.55202" viewBox="0,0,110.55202,110.55202"><g transform="translate(-264.72399,-124.72399)"><g data-paper-data="{&quot;isPaintingLayer&quot;:true}" fill-rule="nonzero" stroke-linejoin="miter" stroke-miterlimit="10" stroke-dasharray="" stroke-dashoffset="0" style="mix-blend-mode: normal"><path d="M269.80793,163.73468c8.98309,-27.72031 38.73707,-42.90984 66.45739,-33.92675c27.72032,8.98309 42.90984,38.73708 33.92675,66.45739c-8.98309,27.72032 -38.73707,42.90984 -66.45739,33.92675c-27.72032,-8.98309 -42.90984,-38.73708 -33.92675,-66.45739z" fill="#001aff" stroke="#000000" stroke-width="5" stroke-linecap="butt"/><path d="M372.13259,183.38859l-18.53939,8.9509l-6.22942,-19.24401l-25.38587,5.59898l-10.24232,-18.05131l-22.24847,5.70909l-8.01464,-20.72912" fill="none" stroke="#000000" stroke-width="5" stroke-linecap="round"/><path d="M312.23729,227.93791l11.87903,-25.91954" fill="none" stroke="#000000" stroke-width="7.5" stroke-linecap="round"/><path d="M325.26923,229.47716l11.88388,-25.33804" fill="none" stroke="#000000" stroke-width="7.5" stroke-linecap="round"/><path d="M305.68111,190.43945l24.053,11.83748" fill="none" stroke="#000000" stroke-width="5" stroke-linecap="round"/><path d="M336.02918,200.725l19.65063,-0.19849" fill="none" stroke="#000000" stroke-width="5" stroke-linecap="round"/><path d="M289.92288,206.99646c2.7837,-2.1684 10.70299,-1.09571 11.92142,-1.05834c2.77331,0.08506 2.92765,3.00985 1.25,4.6875c-2.15589,2.15589 -7.77194,-0.40713 -9.94936,0.83711c-0.43488,0.73685 -1.23698,1.23117 -2.15454,1.23117c-1.38071,0 -2.5,-1.11929 -2.5,-2.5c0,-0.12194 0.00873,-0.24184 0.0256,-0.35911c-0.16686,-0.93152 0.22279,-1.91596 1.40688,-2.83833z" fill="#000000" stroke="none" stroke-width="0.5" stroke-linecap="butt"/></g></g></svg>