<svg version="1.1" xmlns="http://www.w3.org/2000/svg" xmlns:xlink="http://www.w3.org/1999/xlink" width="193.9695" height="329.53376" viewBox="0,0,193.9695,329.53376"><g transform="translate(-217.79561,-31.45366)"><g data-paper-data="{&quot;isPaintingLayer&quot;:true}" fill-rule="nonzero" stroke-linejoin="miter" stroke-miterlimit="10" stroke-dasharray="" stroke-dashoffset="0" style="mix-blend-mode: normal"><g data-paper-data="{&quot;index&quot;:null}" stroke="#000000" stroke-linecap="butt"><path d="M356.37952,229.53059c31.51703,-10.86257 39.4597,-5.38817 42.09625,2.2616c2.63655,7.64978 -20.77572,22.657 -52.29275,33.51957c-31.51704,10.86256 -4.03337,-55.92169 -6.66991,-63.57146c1.73974,-6.87762 7.163,-3.24636 10.04664,4.06395c3.55622,9.01532 4.12582,24.65485 6.81978,23.72636z" fill="#216aff" stroke-width="2"/><path d="M376.11852,209.94175c13.5279,-4.6625 28.37141,2.80657 33.15389,16.68262c4.78248,13.87605 -2.30709,28.90453 -15.835,33.56701c-13.5279,4.6625 -28.37141,-2.80658 -33.15389,-16.68263c-4.78248,-13.87605 2.30709,-28.90451 15.835,-33.567z" fill="#faddbf" stroke-width="2"/><path d="M378.03387,251.31297c13.5279,-4.6625 25.51665,-38.65876 30.29913,-24.7827c4.78248,13.87605 -2.30709,28.90453 -15.835,33.567c-13.5279,4.6625 -27.99206,-4.12182 -14.46414,-8.7843z" fill="#ef8b89" stroke-width="0"/></g><g stroke="#000000" stroke-linecap="butt"><path d="M327.76518,340.83535v-95.29492h29.49199v95.29492z" fill="#73fffc" stroke-width="2"/><path d="M327.43943,340.21742l1.32626,-93.78573c0,0 5.20288,68.11227 6.3799,77.52842c0.2602,2.08162 2.52228,2.78987 2.52228,2.78987l18.60659,13.13896z" fill="#59a9e6" stroke-width="0"/></g><g stroke="#000000" stroke-linecap="butt"><path d="M288.4238,338.4128v-95.29492h29.49199v95.29492z" fill="#73fffc" stroke-width="2"/><path d="M288.09805,337.7949l1.32626,-93.78573c0,0 5.20288,68.11227 6.3799,77.52842c0.2602,2.08162 2.52228,2.78987 2.52228,2.78987l18.60659,13.13896z" fill="#59a9e6" stroke-width="0"/></g><g stroke="#000000" stroke-linecap="butt"><path d="M355.22917,235.69588c0,13.80271 10.04743,36.74388 4.95001,46.45977c-6.2338,11.88187 -28.61241,9.09579 -38.9397,9.09579c-13.66287,0 -32.94407,4.17018 -38.34426,-14.83216c-2.01935,-7.10576 4.35457,-32.37264 4.35457,-40.7234c0,-30.68249 15.2177,-55.55556 33.98969,-55.55556c18.77199,0 33.98969,24.87307 33.98969,55.55556z" fill="#216aff" stroke-width="2"/><path d="M303.96554,251.27246c0,13.80271 62.04198,20.54886 56.94455,30.26474c-6.2338,11.88186 -28.61241,9.09579 -38.9397,9.09579c-13.66287,0 -32.94406,4.17018 -38.34425,-14.83215c-2.01936,-7.10576 4.35457,-32.37265 4.35457,-40.7234c0,-9.45244 3.34855,-28.59801 5.51953,-29.96813c5.94391,-16.76415 10.4653,25.13995 10.4653,46.16315z" fill="#3236f4" stroke-width="0"/></g><g stroke="#000000" stroke-linecap="butt"><g><path d="M221.79945,123.97153c-2.29523,-46.73446 33.72989,-86.48087 80.46435,-88.7761c46.73446,-2.29523 86.48088,33.72989 88.77611,80.46435c2.29523,46.73446 -33.72989,86.48088 -80.46435,88.77611c-46.73446,2.29523 -86.48088,-33.72989 -88.77611,-80.46435z" fill="#faddbf" stroke-width="2"/><path d="M221.98729,123.09175c-0.73846,-15.03616 6.63514,-41.38646 10.98109,-44.81795c0.49632,-0.39189 5.34238,-9.1834 12.52437,-16.26075c8.92672,-8.79666 20.5456,-16.18372 21.1653,-16.01685c8.08524,2.17703 -14.32411,65.63658 -11.84615,90.83529c0.0059,0.06009 5.36857,19.46166 7.00663,19.82065c3.11466,4.59522 10.03949,18.68339 21.25794,25.28118c20.90691,12.29574 49.84831,17.2557 48.39162,17.83357c-2.33019,0.9244 -14.64907,3.49182 -20.70468,3.78922c-46.73446,2.29523 -86.48088,-33.72989 -88.77611,-80.46435z" fill="#ef8b89" stroke-width="0"/><path d="M390.49462,115.2278c0.57021,11.61034 -0.80874,15.69928 -1.45096,13.87687c-0.65519,-1.8592 -0.66784,-9.79265 -9.75029,-14.18805c-2.20085,-1.06509 -9.8861,6.76915 -12.67066,5.67628c-1.74903,-0.68645 -9.14087,-9.73887 -11.08541,-10.32022c-1.35958,-0.40647 -12.02418,8.9782 -13.44414,8.59674c-3.54145,-0.95136 -12.53198,-10.77179 -16.31095,-11.245c-2.08097,-0.26059 -8.69036,12.29086 -10.8093,12.14077c-2.73264,-0.19356 -10.64849,-11.56001 -13.38259,-11.42573c-7.27109,0.3571 -7.12687,7.36926 -12.06376,13.62518c-3.20811,4.06525 -14.61181,-12.35 -17.5143,-7.7669c-3.60456,5.69165 -7.17999,11.18337 -11.23934,14.9867c-3.18471,2.98386 -13.84335,-9.42916 -16.58747,-6.67346c-13.24936,13.30529 -21.18413,21.709 -22.07552,3.55904c-1.79241,-36.49616 42.83263,-10.32699 83.50939,-33.87239c38.93538,-22.53742 83.08292,-13.46599 84.87532,23.03018z" fill="#ef8b89" stroke-width="0"/></g><path d="M391.61897,106.85167c1.15193,23.45507 6.95135,8.38442 -11.49518,-0.29675c-2.25732,-1.06232 -10.15461,6.78233 -13.01094,5.69299c-1.79411,-0.68424 -9.36851,-9.7277 -11.36339,-10.30657c-1.39479,-0.40474 -12.35173,8.99429 -13.8085,8.61464c-3.63328,-0.94685 -12.84739,-10.75629 -16.72505,-11.22466c-2.13531,-0.25791 -8.93457,12.30285 -11.109,12.15548c-2.80419,-0.19004 -10.91339,-11.547 -13.7195,-11.40918c-7.46262,0.36651 -7.32366,7.37891 -12.39835,13.6416c-3.29766,4.06965 -14.97983,-12.33192 -17.96451,-7.74479c-3.70661,5.69667 -7.3831,11.19335 -11.55401,15.00216c-3.27224,2.98816 -14.19495,-9.4119 -17.01472,-6.65248c-13.61469,13.32323 -21.76882,21.73772 -22.66021,3.58776c-1.79241,-36.49616 35.82876,-83.11453 81.70031,-85.36738c45.87154,-2.25285 89.3307,37.81101 91.12311,74.30717z" fill="#724e36" stroke-width="2"/><path d="M391.3145,105.70244c1.15193,23.45507 6.95135,8.38442 -11.49519,-0.29674c-2.25732,-1.06232 -10.15461,6.78233 -13.01094,5.69299c-1.79411,-0.68424 -9.36851,-9.7277 -11.3634,-10.30657c-1.39479,-0.40474 -12.35173,8.99429 -13.8085,8.61464c-3.63328,-0.94685 -12.84739,-10.75629 -16.72505,-11.22466c-2.13531,-0.25791 -8.93457,12.30285 -11.109,12.15548c-2.80419,-0.19004 -10.91339,-11.547 -13.7195,-11.40919c-7.46262,0.36651 -7.32366,7.37892 -12.39835,13.64161c-3.29766,4.06965 -14.97983,-12.33192 -17.96451,-7.74479c-3.70661,5.69667 -7.38309,11.19335 -11.55402,15.00216c-3.27224,2.98816 -14.19495,-9.4119 -17.01472,-6.65247c-13.61469,13.32323 -21.76882,21.73771 -22.66021,3.58776c-1.79241,-36.49616 43.97148,-10.38292 85.7475,-33.98231c39.98759,-22.58909 85.2835,-13.57406 87.07591,22.9221z" fill="#623728" stroke-width="0"/></g><g stroke="#000000" stroke-linecap="butt"><path d="M313.55767,147.94481c1.4009,28.52456 -11.02897,43.88331 -27.57756,44.69604c-16.54859,0.81274 -30.94931,-13.22831 -32.35021,-41.75286c-1.4009,-28.52456 10.87874,-52.30713 27.42733,-53.11987c16.54859,-0.81274 31.09954,21.65213 32.50044,50.17669z" fill="#f0f0f0" stroke-width="2"/><path d="M265.89765,130.67949c-2.9125,28.41003 37.22558,60.28815 20.67699,61.10089c-16.54859,0.81274 -30.94931,-13.22831 -32.35021,-41.75286c-1.4009,-28.52456 15.88383,-60.42054 11.67323,-19.34803z" fill="#9a99ff" stroke-width="0"/></g><path d="M314.04355,155.91787c0.77612,15.80317 -3.27797,28.84417 -9.05506,29.12789c-5.77709,0.28373 -11.08954,-12.29726 -11.86566,-28.10043c-0.77612,-15.80317 3.27797,-28.84417 9.05506,-29.12789c5.77709,-0.28373 11.08954,12.29726 11.86566,28.10043z" fill="#000000" stroke="none" stroke-width="0" stroke-linecap="butt"/><g stroke="#000000" stroke-linecap="butt"><path d="M307.08111,118.19201c4.95589,9.99874 -9.19322,14.59014 -24.88457,15.36078c-15.69135,0.77063 -27.37491,-3.30269 -23.30723,-13.12928c3.87034,-9.34983 5.73091,-21.7262 21.42226,-22.49683c15.69135,-0.77063 22.04651,10.73639 26.76954,20.26532z" fill="#a100fe" stroke-width="2"/><path d="M306.14058,117.88352c4.80402,10.0062 -8.85614,14.57358 -24.01245,15.31794c-15.15631,0.74436 -26.44926,-3.34815 -22.53636,-13.16714c3.72307,-9.34261 6.59753,0.63918 21.75384,-0.10518c15.15631,-0.74436 20.21667,-11.58167 24.79496,-2.04563z" fill="#99008e" stroke-width="0"/></g><g data-paper-data="{&quot;index&quot;:null}" stroke="#000000" stroke-linecap="butt"><path d="M344.63466,93.16528c16.54859,-0.81274 31.09955,21.65213 32.50045,50.17669c1.4009,28.52455 -11.55466,43.90912 -28.10325,44.72186c-16.54859,0.81274 -30.42363,-13.25412 -31.82453,-41.77868c-1.4009,-28.52456 10.87874,-52.30713 27.42733,-53.11987z" fill="#f0f0f0" stroke-width="2"/><path d="M376.45912,142.5439c1.4009,28.52455 -11.55466,43.90912 -28.10325,44.72186c-16.54859,0.81274 20.27265,-34.84501 14.59033,-62.83294c-8.21495,-40.46227 12.11202,-10.41348 13.51292,18.11109z" fill="#9a99ff" stroke-width="0"/></g><path d="M365.91435,124.07426c5.77709,-0.28373 11.08954,12.29727 11.86567,28.10043c0.77612,15.80317 -3.27797,28.84417 -9.05506,29.12789c-5.77709,0.28373 -11.08954,-12.29727 -11.86566,-28.10043c-0.77612,-15.80317 3.27796,-28.84417 9.05506,-29.12789z" data-paper-data="{&quot;index&quot;:null}" fill="#000000" stroke="none" stroke-width="0" stroke-linecap="butt"/><g data-paper-data="{&quot;index&quot;:null}" stroke="#000000" stroke-linecap="butt"><path d="M320.73732,116.04088c3.76658,-9.94588 8.96361,-22.02025 24.65496,-22.79089c15.69135,-0.77063 18.75569,11.36385 23.52357,20.28945c5.01099,9.38071 -6.2172,14.57928 -21.90855,15.34992c-15.69135,0.77063 -30.22228,-2.41222 -26.26999,-12.84847z" fill="#a100fe" stroke-width="2"/><path d="M321.6431,115.64173c3.62185,-9.93877 9.71978,0.35054 24.87609,-0.39382c15.15631,-0.74436 17.03884,-10.95977 21.65945,-2.02694c4.85621,9.38831 -5.98137,14.5677 -21.13768,15.31206c-15.15631,0.74436 -29.19828,-2.46251 -25.39787,-12.89129z" fill="#99008e" stroke-width="0"/></g><path d="M391.63632,338.87004c0,11.6628 -14.51982,21.11737 -32.43092,21.11737c-17.9111,0 -32.43092,-9.45457 -32.43092,-21.11737c0,-2.33142 -0.03339,-13.76009 1.08979,-15.13837c4.49546,-5.51647 17.81784,5.26144 32.14847,5.26144c17.9111,0 31.62358,-1.78588 31.62358,9.87692z" fill="#000082" stroke="#000000" stroke-width="2" stroke-linecap="butt"/><path d="M389.75004,336.13774c0,6.30841 -13.89058,10.1901 -31.80169,10.1901c-17.9111,0 -30.16566,-2.95748 -30.16566,-9.26589c0,-1.26107 -0.03338,-12.52602 1.0898,-13.27153c4.49546,-2.98386 15.55258,5.7726 29.88321,5.7726c17.9111,0 30.99434,0.26631 30.99434,6.57472z" fill="#2e0048" stroke="#000000" stroke-width="0" stroke-linecap="butt"/><path d="M348.64938,338.22521c0,11.6628 -14.51982,21.11737 -32.43092,21.11737c-17.9111,0 -32.43092,-9.45457 -32.43092,-21.11737c0,-2.33142 -0.03339,-13.76009 1.08979,-15.13837c4.49546,-5.51647 17.81784,5.26144 32.14847,5.26144c17.9111,0 31.62358,-1.78588 31.62358,9.87692z" fill="#000082" stroke="#000000" stroke-width="2" stroke-linecap="butt"/><path d="M346.7631,335.49289c0,6.30841 -13.89058,10.1901 -31.80169,10.1901c-17.9111,0 -30.16566,-2.95748 -30.16566,-9.26589c0,-1.26107 -0.03338,-12.52602 1.0898,-13.27153c4.49546,-2.98386 15.55258,5.7726 29.88321,5.7726c17.9111,0 30.99434,0.26631 30.99434,6.57472z" fill="#2e0048" stroke="#000000" stroke-width="0" stroke-linecap="butt"/><g><path d="M324.46947,249.64299c-14.3008,4.8073 -25.07073,0.42338 -30.48493,-13.49768c-4.23453,-10.88779 3.5553,-27.2384 17.85612,-32.04571c14.30086,-4.80735 27.79593,0.94127 32.55537,15.09955c0.74429,2.21408 0.77406,4.47834 0.8206,6.54611c0.25087,11.15472 -8.68271,19.84219 -20.74714,23.89772z" fill="#485e84" stroke="#000000" stroke-width="2" stroke-linecap="butt"/><path d="M301.33038,212.99449c0,0 1.41041,5.58048 3.3133,6.20689c18.25293,6.00868 31.85912,2.53162 36.27153,1.03816c1.00249,-0.3393 1.24127,-1.4365 1.24127,-1.4365c0,0 0.88022,1.92179 1.17052,4.64756c0.30891,2.90044 -0.00466,6.6959 -1.19453,9.52951c-1.3592,3.23676 -6.4586,9.83257 -6.4586,9.83257l-18.57298,9.69035c0,0 -12.51848,-4.92369 -14.13821,-6.36362c-1.58682,-1.41064 -3.05989,-3.53496 -4.71704,-5.7306c-2.57294,-3.40904 -3.8789,-7.7566 -3.89824,-10.6366c-0.02464,-3.67554 1.44765,-8.10096 3.26031,-11.45903c1.68703,-3.12531 3.72271,-5.31855 3.72271,-5.31855z" fill="#343545" stroke="none" stroke-width="0" stroke-linecap="butt"/><path d="M311.3172,235.29769c0,0 -4.58405,-7.77076 -3.95925,-12.88835c0.7909,-6.47834 5.8888,-18.39949 5.8888,-18.39949" fill="none" stroke="#000000" stroke-width="1" stroke-linecap="round"/><path d="M340.64975,213.1817c0,0 0.79831,7.10581 0.24491,11.36791c-0.55863,4.3028 -5.11978,12.86718 -5.11978,12.86718" fill="none" stroke="#000000" stroke-width="1" stroke-linecap="round"/><path d="M302.32137,241.57713c0,0 -4.82462,-7.90628 -3.89547,-13.41859c1.42577,-8.45845 5.53441,-19.30349 5.53441,-19.30349" fill="none" stroke="#000000" stroke-width="1" stroke-linecap="round"/><path d="M293.67934,228.97107c0,0 9.63887,-14.37245 27.05554,-14.82348c19.07775,-0.49406 24.26286,15.95603 24.26286,15.95603" fill="none" stroke="#000000" stroke-width="1" stroke-linecap="round"/><path d="M295.48251,238.32273c0,0 12.21162,-12.9514 27.57957,-13.38245c12.61849,-0.35392 18.28219,13.09382 18.28219,13.09382" fill="none" stroke="#000000" stroke-width="1" stroke-linecap="round"/><path d="M326.78503,207.80753c-1.17238,-0.26968 -1.94965,-1.24069 -1.73616,-2.16876c0.21344,-0.92813 0.99427,-0.77223 2.16663,-0.50254c1.17238,0.26968 2.2923,0.55102 2.07883,1.47912c-0.21344,0.92813 -1.33695,1.4619 -2.50928,1.19218z" fill="#8fbbbe" stroke="none" stroke-width="0" stroke-linecap="butt"/><path d="M333.58248,210.38699c-0.57015,0.19164 -1.26536,-0.34624 -1.55284,-1.20144c-0.28749,-0.8552 -0.28679,-1.24406 0.28333,-1.43573c0.57015,-0.19164 1.43743,0.2884 1.72488,1.1436c0.28749,0.8552 0.11472,1.30191 -0.4554,1.49355z" fill="#8fbbbe" stroke="none" stroke-width="0" stroke-linecap="butt"/><path d="M320.02859,206.31949c-0.881,0.19471 -1.70033,-0.12351 -1.83017,-0.7108c-0.12985,-0.58725 0.6526,-0.70511 1.53355,-0.89985c0.881,-0.19471 1.52682,-0.39267 1.65666,0.19463c0.12985,0.58725 -0.47911,1.22128 -1.36007,1.41601z" fill="#8fbbbe" stroke="none" stroke-width="0" stroke-linecap="butt"/><path d="M298.46918,216.44579c0,0 8.11499,-6.2311 15.40548,-8.29714c4.13335,-1.17133 8.18065,-0.77682 11.24577,-0.44332c2.71063,0.29489 8.44553,3.50995 12.57902,6.42759c3.04326,2.14808 5.08737,4.26672 5.08737,4.26672" fill="none" stroke="#000000" stroke-width="0.5" stroke-linecap="round"/><path d="M330.06322,203.33579c0,0 2.98099,10.14355 2.50344,15.52771c-0.40233,4.53627 -4.83788,14.55575 -4.83788,14.55575" fill="none" stroke="#000000" stroke-width="1" stroke-linecap="round"/><path d="M321.87462,233.66369c0,0 -2.62167,-9.30349 -2.71192,-13.82485c-0.15848,-7.93863 4.29737,-17.34725 4.29737,-17.34725" fill="none" stroke="#000000" stroke-width="1" stroke-linecap="round"/></g><g stroke="#000000" stroke-linecap="butt"><path d="M299.25743,240.87262c33.33201,-0.54394 39.18328,7.12534 39.31531,15.21563c0.13202,8.09031 -26.78189,15.08973 -60.11391,15.63366c-33.332,0.54393 13.52266,-54.41177 13.39064,-62.50208c3.78848,-5.99797 7.81683,-0.86281 8.28911,6.98149c0.58245,9.67385 -3.73024,24.71778 -0.88115,24.6713z" fill="#216aff" stroke-width="2"/><path d="M324.1015,228.37774c14.30695,-0.23347 26.09916,11.47381 26.33862,26.14894c0.23948,14.67513 -11.16446,26.76095 -25.4714,26.99443c-14.30695,0.23347 -26.09916,-11.47382 -26.33863,-26.14896c-0.23948,-14.67513 11.16447,-26.76095 25.47141,-26.99442z" fill="#faddbf" stroke-width="2"/><path d="M313.08159,268.30027c14.30695,-0.23347 36.25527,-28.82973 36.49475,-14.1546c0.23948,14.67513 -11.16446,26.76095 -25.47141,26.99442c-14.30695,0.23347 -25.3303,-12.60635 -11.02335,-12.83982z" fill="#ef8b89" stroke-width="0"/></g><path d="M246.304,146.80614c0.06514,0.60861 -0.18443,1.13333 -0.18443,1.13333c-0.29444,0.6096 -1.31742,2.37856 -1.29843,3.31908c0.03506,1.73631 2.42481,3.00076 3.27537,4.22725c1.25574,1.81075 2.38215,5.6986 1.36896,7.82458c-1.87757,3.93972 -7.56847,4.14917 -10.41521,1.5475c-4.17552,-3.81604 -4.47816,-10.70368 -5.41442,-15.81305c-0.1087,-0.92217 -0.62438,-4.41124 -0.25632,-5.23443c1.35181,-3.02338 7.5163,-5.5009 10.53104,-3.50845c1.71582,1.13399 1.86346,3.31606 2.19899,5.04566l0.14314,0.39049c0,0 0.16274,0.50451 0.0513,1.06804z" fill="#000000" stroke="none" stroke-width="0.5" stroke-linecap="butt"/></g></g></svg>