<svg version="1.1" xmlns="http://www.w3.org/2000/svg" xmlns:xlink="http://www.w3.org/1999/xlink" width="211.19561" height="304.01709" viewBox="0,0,211.19561,304.01709"><g transform="translate(-227.39931,-56.97032)"><g data-paper-data="{&quot;isPaintingLayer&quot;:true}" fill-rule="nonzero" stroke-linejoin="miter" stroke-miterlimit="10" stroke-dasharray="" stroke-dashoffset="0" style="mix-blend-mode: normal"><g data-paper-data="{&quot;index&quot;:null}" stroke="#000000" stroke-linecap="butt"><path d="M331.82642,231.04022c26.79864,19.82805 26.78343,29.47455 21.97079,35.97907c-4.81264,6.50453 -30.43866,-4.29631 -57.23729,-24.12438c-26.79865,-19.82806 43.81072,-34.9875 48.62335,-41.49203c6.65404,-2.4601 6.73156,4.06613 2.33864,10.58213c-5.4175,8.03577 -17.98613,17.36039 -15.69549,19.05523z" fill="#216aff" stroke-width="2"/><path d="M359.14911,236.21921c11.50266,8.51069 13.75055,24.9747 5.02083,36.77339c-8.72973,11.79868 -25.13132,14.46413 -36.63399,5.95343c-11.50266,-8.5107 -13.75055,-24.97471 -5.02083,-36.7734c8.72973,-11.79868 25.13131,-14.46412 36.63398,-5.95341z" fill="#faddbf" stroke-width="2"/><path d="M326.13264,261.22239c11.50266,8.5107 46.3127,-0.85609 37.58298,10.94258c-8.72973,11.79868 -25.13133,14.4641 -36.63398,5.95341c-11.50266,-8.5107 -12.45167,-25.40671 -0.94901,-16.89599z" fill="#ef8b89" stroke-width="0"/></g><g stroke="#000000" stroke-linecap="butt"><path d="M327.76518,340.83535v-95.29492h29.49199v95.29492z" fill="#73fffc" stroke-width="2"/><path d="M327.43943,340.21742l1.32626,-93.78573c0,0 5.20288,68.11227 6.3799,77.52842c0.2602,2.08162 2.52228,2.78987 2.52228,2.78987l18.60659,13.13896z" fill="#59a9e6" stroke-width="0"/></g><g stroke="#000000" stroke-linecap="butt"><path d="M288.4238,338.4128v-95.29492h29.49199v95.29492z" fill="#73fffc" stroke-width="2"/><path d="M288.09805,337.7949l1.32626,-93.78573c0,0 5.20288,68.11227 6.3799,77.52842c0.2602,2.08162 2.52228,2.78987 2.52228,2.78987l18.60659,13.13896z" fill="#59a9e6" stroke-width="0"/></g><g stroke="#000000" stroke-linecap="butt"><path d="M355.22917,235.69587c0,13.80271 10.04743,36.74388 4.95001,46.45977c-6.2338,11.88187 -28.61241,9.09579 -38.9397,9.09579c-13.66287,0 -32.94407,4.17018 -38.34426,-14.83216c-2.01935,-7.10576 4.35457,-32.37264 4.35457,-40.7234c0,-30.68249 15.2177,-55.55556 33.98969,-55.55556c18.77199,0 33.98969,24.87307 33.98969,55.55556z" fill="#216aff" stroke-width="2"/><path d="M303.96554,251.27245c0,13.80271 62.04198,20.54886 56.94455,30.26474c-6.2338,11.88186 -28.61241,9.09579 -38.9397,9.09579c-13.66287,0 -32.94406,4.17018 -38.34425,-14.83215c-2.01936,-7.10576 4.35457,-32.37265 4.35457,-40.7234c0,-9.45244 3.34855,-28.59801 5.51953,-29.96813c5.94391,-16.76415 10.4653,25.13995 10.4653,46.16315z" fill="#3236f4" stroke-width="0"/></g><g stroke="#000000" stroke-linecap="butt"><g><path d="M267.99876,127.39255c9.95992,-45.71847 55.09617,-74.7065 100.81462,-64.74659c45.71847,9.95992 74.7065,55.09617 64.74659,100.81462c-9.95992,45.71847 -55.09617,74.7065 -100.81462,64.74659c-45.71847,-9.95992 -74.7065,-55.09617 -64.74659,-100.81462z" fill="#faddbf" stroke-width="2"/><path d="M268.40933,126.59208c3.20446,-14.70928 17.18854,-38.22851 22.27842,-40.40922c0.58127,-0.24906 7.55046,-7.47439 16.3283,-12.43617c10.91027,-6.16716 24.05246,-10.272 24.60728,-9.94944c7.23884,4.20831 -30.92993,59.6379 -35.10264,84.61198c-0.00995,0.05956 0.11275,20.18824 1.60071,20.96161c1.80988,5.24799 4.82511,20.65378 13.93721,29.94648c16.98144,17.31804 43.63111,29.6469 42.07416,29.82531c-2.49056,0.28538 -15.05289,-0.44534 -20.97685,-1.73589c-45.71847,-9.95992 -74.7065,-55.09617 -64.74659,-100.81462z" fill="#ef8b89" stroke-width="0"/><path d="M433.14606,162.90147c-2.47436,11.35794 -4.871,14.9464 -5.01624,13.0196c-0.14819,-1.96569 1.90654,-9.62845 -5.7171,-16.23834c-1.84735,-1.6017 -11.30827,3.95971 -13.71193,2.17911c-1.50978,-1.11842 -6.2879,-11.78403 -8.01381,-12.85193c-1.20673,-0.74666 -13.94803,5.53544 -15.21959,4.79721c-3.17128,-1.84116 -9.29279,-13.66478 -12.81796,-15.1062c-1.94121,-0.79375 -11.59241,9.60226 -13.59906,8.90531c-2.58784,-0.89882 -7.26898,-13.93506 -9.94364,-14.51774c-7.11302,-1.54959 -8.80069,5.25797 -15.19695,10.01162c-4.15645,3.08904 -10.88961,-15.73036 -14.88591,-12.06172c-4.96294,4.55598 -9.84566,8.92653 -14.75571,11.54092c-3.85212,2.05109 -10.90866,-12.71019 -14.27596,-10.76457c-16.25826,9.39389 -26.10846,15.44011 -22.2404,-2.31527c7.77796,-35.70274 44.04393,1.18898 89.45026,-10.94565c43.46249,-11.61512 83.72198,8.64492 75.94402,44.34766z" fill="#ef8b89" stroke-width="0"/></g><path d="M436.41383,155.10753c-4.99867,22.94517 4.52686,9.90592 -11.02088,-3.28137c-1.9026,-1.61374 -11.57094,3.90249 -14.04481,2.10659c-1.55387,-1.12803 -6.51057,-11.83255 -8.28576,-12.91117c-1.24118,-0.75415 -14.26848,5.46564 -15.57603,4.71957c-3.26112,-1.86075 -9.60133,-13.73199 -13.22304,-15.19443c-1.99437,-0.80532 -11.83131,9.55022 -13.89225,8.84142c-2.65783,-0.91406 -7.52813,-13.99152 -10.27322,-14.58955c-7.30038,-1.5904 -8.99319,5.21602 -15.52426,9.94032c-4.24405,3.06995 -11.24963,-15.80878 -15.32633,-12.15767c-5.06278,4.53423 -10.04436,8.88324 -15.06354,11.47385c-3.93775,2.03244 -11.25262,-12.78511 -14.69393,-10.85563c-16.61564,9.31603 -26.68043,15.31549 -22.81237,-2.43988c7.77796,-35.70274 56.24551,-70.90958 101.11981,-61.13358c44.87431,9.77602 76.39465,59.7788 68.61668,95.48155z" fill="#724e36" stroke-width="2"/><path d="M436.4193,153.91866c-4.99867,22.94517 4.52686,9.90592 -11.02088,-3.28137c-1.9026,-1.61374 -11.57094,3.90249 -14.04481,2.10659c-1.55387,-1.12803 -6.51057,-11.83255 -8.28577,-12.91117c-1.24118,-0.75415 -14.26848,5.46564 -15.57603,4.71957c-3.26112,-1.86075 -9.60133,-13.73199 -13.22304,-15.19443c-1.99437,-0.80532 -11.83131,9.55022 -13.89225,8.84142c-2.65783,-0.91406 -7.52813,-13.99152 -10.27322,-14.58955c-7.30038,-1.5904 -8.99319,5.21602 -15.52426,9.94032c-4.24405,3.06995 -11.24963,-15.80878 -15.32633,-12.15767c-5.06278,4.53423 -10.04436,8.88324 -15.06355,11.47385c-3.93775,2.03244 -11.25262,-12.78511 -14.69393,-10.85563c-16.61564,9.31603 -26.68043,15.31549 -22.81237,-2.43988c7.77796,-35.70274 45.15802,1.43168 91.63972,-10.46866c44.49182,-11.39088 85.87472,9.11391 78.09677,44.81664z" fill="#623728" stroke-width="0"/></g><g stroke="#000000" stroke-linecap="butt"><path d="M364.30782,171.81332c-6.07907,27.90444 -22.08113,39.49438 -38.26997,35.96759c-16.18884,-3.5268 -26.43405,-20.83478 -20.35499,-48.73923c6.07907,-27.90444 24.13078,-47.66642 40.31961,-44.13964c16.18884,3.5268 24.38443,29.00684 18.30535,56.91128z" fill="#f0f0f0" stroke-width="2"/><path d="M322.79193,142.72724c-10.21367,26.67009 20.23292,67.90459 4.04411,64.37779c-16.18884,-3.5268 -26.43405,-20.83478 -20.35499,-48.73923c6.07907,-27.90444 31.07683,-54.19565 16.31088,-15.63858z" fill="#9a99ff" stroke-width="0"/></g><path d="M358.75011,179.0289c-3.36792,15.4596 -10.67962,26.99401 -16.33112,25.76282c-5.65151,-1.2312 -7.50272,-14.76178 -4.13479,-30.22138c3.36792,-15.4596 10.67962,-26.99401 16.33112,-25.76282c5.65151,1.2312 7.50272,14.76178 4.13479,30.22138z" fill="#000000" stroke="none" stroke-width="0" stroke-linecap="butt"/><g stroke="#000000" stroke-linecap="butt"><path d="M365.80652,141.40067c2.17974,10.94461 4.69252,40.69958 -10.65771,37.35549c-15.35022,-3.34408 -42.93852,-39.32916 -36.45116,-47.75662c6.17262,-8.01858 11.19338,-19.48279 26.54359,-16.13869c15.35022,3.34408 18.48796,16.10945 20.56527,26.5398z" fill="#a100fe" stroke-width="2"/><path d="M364.97883,140.8578c2.03117,10.91224 5.0679,40.562 -9.75893,37.33194c-14.82681,-3.23006 -42.07861,-38.92249 -35.74268,-47.38293c6.02855,-8.04998 6.20316,2.33597 21.02996,5.56604c14.82681,3.23006 22.53589,-5.91459 24.47162,4.48492z" fill="#99008e" stroke-width="0"/></g><g data-paper-data="{&quot;index&quot;:null}" stroke="#000000" stroke-linecap="butt"><path d="M408.58344,127.02219c16.18884,3.5268 24.38443,29.00684 18.30535,56.91128c-6.07907,27.90443 -22.59539,39.38235 -38.78423,35.85555c-16.18884,-3.5268 -25.9198,-20.72275 -19.84073,-48.62719c6.07907,-27.90444 24.13078,-47.66642 40.31961,-44.13964z" fill="#f0f0f0" stroke-width="2"/><path d="M426.44408,182.98684c-6.07907,27.90443 -22.59539,39.38235 -38.78423,35.85555c-16.18884,-3.5268 28.65082,-28.35995 30.45651,-56.86173c2.61052,-41.20517 14.40678,-6.89826 8.32771,21.00618z" fill="#9a99ff" stroke-width="0"/></g><path d="M417.01089,162.22514c5.65151,1.2312 7.50272,14.76178 4.13479,30.22138c-3.36792,15.4596 -10.67962,26.99401 -16.33112,25.76282c-5.65151,-1.2312 -7.50272,-14.76178 -4.13479,-30.22138c3.36792,-15.4596 10.67962,-26.99401 16.33112,-25.76282z" data-paper-data="{&quot;index&quot;:null}" fill="#000000" stroke="none" stroke-width="0" stroke-linecap="butt"/><g data-paper-data="{&quot;index&quot;:null}" stroke="#000000" stroke-linecap="butt"><path d="M379.55155,142.88173c6.22773,-8.62107 14.39105,-18.92447 29.74126,-15.58036c15.35022,3.34408 15.1473,15.85788 17.42512,25.71741c2.39396,10.36228 -36.70705,32.25755 -52.05727,28.91345c-15.35022,-3.34408 -1.64392,-30.00436 4.89086,-39.05049z" fill="#a100fe" stroke-width="2"/><path d="M380.53004,142.73235c6.08614,-8.65193 9.29278,2.87075 24.11959,6.10082c14.82681,3.23006 19.30578,-6.14209 21.43953,3.68607c2.24253,10.32928 -36.73137,32.47159 -51.55818,29.24153c-14.82681,-3.23006 -0.38716,-29.94992 5.99906,-39.02842z" fill="#99008e" stroke-width="0"/></g><path d="M391.63632,338.87004c0,11.6628 -14.51982,21.11737 -32.43092,21.11737c-17.9111,0 -32.43092,-9.45457 -32.43092,-21.11737c0,-2.33142 -0.03339,-13.76009 1.08979,-15.13837c4.49546,-5.51647 17.81784,5.26144 32.14847,5.26144c17.9111,0 31.62358,-1.78588 31.62358,9.87692z" fill="#000082" stroke="#000000" stroke-width="2" stroke-linecap="butt"/><path d="M389.75004,336.13774c0,6.30841 -13.89058,10.1901 -31.80169,10.1901c-17.9111,0 -30.16566,-2.95748 -30.16566,-9.26589c0,-1.26107 -0.03338,-12.52602 1.0898,-13.27153c4.49546,-2.98386 15.55258,5.7726 29.88321,5.7726c17.9111,0 30.99434,0.26631 30.99434,6.57472z" fill="#2e0048" stroke="#000000" stroke-width="0" stroke-linecap="butt"/><path d="M348.64938,338.22521c0,11.6628 -14.51982,21.11737 -32.43092,21.11737c-17.9111,0 -32.43092,-9.45457 -32.43092,-21.11737c0,-2.33142 -0.03339,-13.76009 1.08979,-15.13837c4.49546,-5.51647 17.81784,5.26144 32.14847,5.26144c17.9111,0 31.62358,-1.78588 31.62358,9.87692z" fill="#000082" stroke="#000000" stroke-width="2" stroke-linecap="butt"/><path d="M346.7631,335.49289c0,6.30841 -13.89058,10.1901 -31.80169,10.1901c-17.9111,0 -30.16566,-2.95748 -30.16566,-9.26589c0,-1.26107 -0.03338,-12.52602 1.0898,-13.27153c4.49546,-2.98386 15.55258,5.7726 29.88321,5.7726c17.9111,0 30.99434,0.26631 30.99434,6.57472z" fill="#2e0048" stroke="#000000" stroke-width="0" stroke-linecap="butt"/><g><path d="M267.20919,253.80037c-9.66647,-11.58371 -9.48694,-23.2103 1.5228,-33.30464c8.6108,-7.8949 26.67335,-6.56528 36.33984,5.01845c9.66653,11.58374 9.20354,26.2449 -2.26471,35.81507c-1.79342,1.49659 -3.89271,2.34552 -5.80284,3.13881c-10.3043,4.27925 -21.64023,-0.89543 -29.79507,-10.66766z" fill="#216aff" stroke="#000000" stroke-width="2" stroke-linecap="butt"/><path d="M292.97075,218.94535c0,0 -4.68906,3.33825 -4.58267,5.33877c1.02018,19.18939 9.19506,30.60822 12.18708,34.1786c0.67977,0.81119 1.78886,0.6358 1.78886,0.6358c0,0 -1.47174,1.51727 -3.90663,2.77636c-2.59094,1.33978 -6.24172,2.42404 -9.31394,2.34285c-3.50934,-0.0928 -11.50548,-2.4529 -11.50548,-2.4529l-15.76647,-13.79411c0,0 0.04842,-13.45185 0.80287,-15.48354c0.73911,-1.99037 2.18457,-4.13359 3.62973,-6.4742c2.24382,-3.63411 5.82177,-6.4279 8.49868,-7.49041c3.41636,-1.35596 8.07444,-1.58887 11.86129,-1.11749c3.52437,0.43871 6.30657,1.5404 6.30657,1.5404z" fill="#3236f4" stroke="none" stroke-width="0" stroke-linecap="butt"/><path d="M275.80791,236.34094c0,0 5.57921,-7.09019 10.57497,-8.36391c6.32411,-1.61243 19.2825,-1.18504 19.2825,-1.18504" fill="none" stroke="#000000" stroke-width="1" stroke-linecap="round"/><path d="M307.05621,255.65567c0,0 -6.33251,3.32103 -10.50515,4.35103c-4.21247,1.03989 -13.84794,-0.1047 -13.84794,-0.1047" fill="none" stroke="#000000" stroke-width="1" stroke-linecap="round"/><path d="M266.69348,230.23491c0,0 5.61824,-7.36352 11.09226,-8.49678c8.39966,-1.73892 19.99643,-1.84317 19.99643,-1.84317" fill="none" stroke="#000000" stroke-width="1" stroke-linecap="round"/><path d="M275.3071,217.60944c0,0 16.88967,3.77018 23.62647,19.83752c7.37934,17.59973 -6.07032,28.39776 -6.07032,28.39776" fill="none" stroke="#000000" stroke-width="1" stroke-linecap="round"/><path d="M267.24606,222.68139c0,0 16.49842,6.68316 22.4736,20.84849c4.90616,11.63104 -5.57198,21.78623 -5.57198,21.78623" fill="none" stroke="#000000" stroke-width="1" stroke-linecap="round"/><path d="M307.0362,240.78585c-0.17388,-1.19036 0.44914,-2.26687 1.39145,-2.4045c0.94234,-0.13769 1.08024,0.6465 1.25409,1.83686c0.17388,1.19036 0.31784,2.33607 -0.6245,2.47372c-0.94234,0.13769 -1.84724,-0.71574 -2.02105,-1.90607z" fill="#8fbbbe" stroke="none" stroke-width="0" stroke-linecap="butt"/><path d="M307.09757,248.05599c-0.38536,-0.46183 -0.13625,-1.30479 0.55647,-1.88285c0.69271,-0.57808 1.05536,-0.71845 1.44074,-0.25666c0.38536,0.46183 0.25253,1.44415 -0.44019,2.02219c-0.69271,0.57808 -1.17167,0.57908 -1.55701,0.11729z" fill="#8fbbbe" stroke="none" stroke-width="0" stroke-linecap="butt"/><path d="M305.97258,233.94973c-0.50096,-0.7504 -0.50156,-1.62938 -0.00133,-1.96336c0.50017,-0.33399 0.89378,0.35245 1.39475,1.1028c0.50096,0.7504 0.91966,1.28046 0.41943,1.61447c-0.50017,0.33399 -1.31188,-0.00357 -1.81285,-0.75395z" fill="#8fbbbe" stroke="none" stroke-width="0" stroke-linecap="butt"/><path d="M288.71677,217.53063c0,0 8.74991,5.30268 13.31934,11.34753c2.59062,3.42714 3.69079,7.34197 4.49163,10.31936c0.70826,2.63304 -0.20805,9.14349 -1.42796,14.05369c-0.89815,3.61511 -2.13119,6.28842 -2.13119,6.28842" fill="none" stroke="#000000" stroke-width="0.5" stroke-linecap="round"/><path d="M312.39239,242.21909c0,0 -8.37185,6.45679 -13.56262,7.96442c-4.37335,1.27023 -15.31932,0.77042 -15.31932,0.77042" fill="none" stroke="#000000" stroke-width="1" stroke-linecap="round"/><path d="M281.15953,245.58698c0,0 7.71929,-5.81727 11.90009,-7.54115c7.34067,-3.02679 17.72474,-2.28651 17.72474,-2.28651" fill="none" stroke="#000000" stroke-width="1" stroke-linecap="round"/></g><g stroke="#000000" stroke-linecap="butt"><path d="M266.23882,227.12407c12.59541,30.86543 7.57033,39.09975 0.07873,42.15688c-7.49161,3.05714 -23.77536,-19.48595 -36.37075,-50.35139c-12.59539,-30.86543 55.61156,-7.13147 63.10318,-10.1886c6.96357,1.35527 3.63898,6.97173 -3.49997,10.25674c-8.80399,4.0512 -24.38779,5.4881 -23.31119,8.12637z" fill="#216aff" stroke-width="2"/><path d="M286.89322,245.7452c5.40627,13.24823 -1.22729,28.48347 -14.81646,34.02885c-13.58916,5.5454 -28.98801,-0.69899 -34.39429,-13.94721c-5.40627,-13.24823 1.22731,-28.48345 14.81647,-34.02886c13.58917,-5.54541 28.98801,0.69899 34.39429,13.94722z" fill="#faddbf" stroke-width="2"/><path d="M245.6921,249.95423c5.40627,13.24823 40.01561,23.33128 26.42645,28.87668c-13.58916,5.5454 -28.98801,-0.69899 -34.39429,-13.94722c-5.40627,-13.24823 2.56157,-28.17769 7.96783,-14.92947z" fill="#ef8b89" stroke-width="0"/></g><path d="M301.98982,188.96809c0.67549,1.05177 -0.37629,1.72726 -0.37629,1.72726l-0.10777,-0.00702c-1.79341,2.22452 -3.50837,4.71802 -6.49242,5.44963c-3.09368,0.75848 -6.6378,-1.04474 -6.59514,-4.45731c0.05721,-4.57594 5.20979,-8.00372 7.95943,-11.00301c0,0 0.84522,-0.9209 1.76614,-0.07568c0.9209,0.84523 0.07569,1.76615 0.07569,1.76615c-2.3228,2.52799 -7.0684,5.59003 -7.3028,9.4003c-0.10475,1.70285 2.13835,2.30972 3.52738,1.93524c2.36395,-0.63731 3.6905,-2.81438 5.11487,-4.5837l0.70365,-0.52814c0,0 1.05177,-0.67548 1.72725,0.37629z" fill="#000000" stroke="none" stroke-width="0.5" stroke-linecap="butt"/></g></g></svg>