<svg version="1.1" xmlns="http://www.w3.org/2000/svg" xmlns:xlink="http://www.w3.org/1999/xlink" width="178.58018" height="326.59075" viewBox="0,0,178.58018,326.59075"><g transform="translate(-233.56176,-34.39666)"><g data-paper-data="{&quot;isPaintingLayer&quot;:true}" fill-rule="nonzero" stroke-linejoin="miter" stroke-miterlimit="10" stroke-dasharray="" stroke-dashoffset="0" style="mix-blend-mode: normal"><g data-paper-data="{&quot;index&quot;:null}" stroke="#000000" stroke-linecap="butt"><path d="M350.23846,232.21457c1.7149,-2.27565 -12.98461,-7.64627 -20.46143,-13.8123c-6.06277,-4.99988 -7.84213,-11.27934 -0.76339,-10.81055c6.46195,4.86966 78.46897,-0.65092 58.40598,25.97229c-20.063,26.62321 -41.56572,44.25795 -48.02767,39.38828c-6.46195,-4.86966 -9.2165,-14.11453 10.8465,-40.73773z" fill="#216aff" stroke-width="2"/><path d="M362.32825,240.24369c11.72144,8.83317 14.24251,25.25757 5.63096,36.68492c-8.61155,11.42735 -25.0947,13.53035 -36.81614,4.69718c-11.72144,-8.83317 -14.2425,-25.25756 -5.63095,-36.68491c8.61155,-11.42735 25.09469,-13.53036 36.81613,-4.69719z" fill="#faddbf" stroke-width="2"/><path d="M368.15975,276.00603c-8.61154,11.42736 -25.09469,13.53036 -36.81613,4.69719c-11.72144,-8.83317 24.31541,-9.73949 32.92696,-21.16684c8.61155,-11.42737 12.50072,5.0423 3.88917,16.46965z" fill="#ef8b89" stroke-width="0"/></g><g stroke="#000000" stroke-linecap="butt"><path d="M327.76518,340.83534v-95.29492h29.49199v95.29492z" fill="#73fffc" stroke-width="2"/><path d="M327.43943,340.21741l1.32626,-93.78573c0,0 5.20288,68.11227 6.3799,77.52842c0.2602,2.08162 2.52228,2.78987 2.52228,2.78987l18.60659,13.13896z" fill="#59a9e6" stroke-width="0"/></g><g stroke="#000000" stroke-linecap="butt"><path d="M288.4238,338.41279v-95.29492h29.49199v95.29492z" fill="#73fffc" stroke-width="2"/><path d="M288.09805,337.7949l1.32626,-93.78573c0,0 5.20288,68.11227 6.3799,77.52842c0.2602,2.08162 2.52228,2.78987 2.52228,2.78987l18.60659,13.13896z" fill="#59a9e6" stroke-width="0"/></g><g stroke="#000000" stroke-linecap="butt"><path d="M355.22917,235.69588c0,13.80271 10.04743,36.74388 4.95001,46.45977c-6.2338,11.88187 -28.61241,9.09579 -38.9397,9.09579c-13.66287,0 -32.94407,4.17018 -38.34426,-14.83216c-2.01935,-7.10576 4.35457,-32.37264 4.35457,-40.7234c0,-30.68249 15.2177,-55.55556 33.98969,-55.55556c18.77199,0 33.98969,24.87307 33.98969,55.55556z" fill="#216aff" stroke-width="2"/><path d="M303.96554,251.27245c0,13.80271 62.04198,20.54886 56.94455,30.26474c-6.2338,11.88186 -28.61241,9.09579 -38.9397,9.09579c-13.66287,0 -32.94406,4.17018 -38.34425,-14.83215c-2.01936,-7.10576 4.35457,-32.37265 4.35457,-40.7234c0,-9.45244 3.34855,-28.59801 5.51953,-29.96813c5.94391,-16.76415 10.4653,25.13995 10.4653,46.16315z" fill="#3236f4" stroke-width="0"/></g><g stroke="#000000" stroke-linecap="butt"><g><path d="M240.2074,117.05197c3.24493,-46.67814 43.71558,-81.88771 90.39371,-78.64277c46.67814,3.24493 81.88771,43.71558 78.64277,90.39371c-3.24493,46.67814 -43.71558,81.88771 -90.39371,78.64277c-46.67814,-3.24493 -81.88771,-43.71558 -78.64277,-90.39371z" fill="#faddbf" stroke-width="2"/><path d="M240.49792,116.20056c1.04401,-15.01804 11.48055,-40.31205 16.20164,-43.20578c0.53916,-0.33048 6.39042,-8.48755 14.35861,-14.66636c9.90392,-7.67984 22.31451,-13.64175 22.91014,-13.4028c7.77124,3.11745 -21.98202,63.48331 -22.49994,88.79827c-0.00124,0.06037 3.03054,19.9598 4.61468,20.5099c2.54966,4.93116 7.7607,19.7391 18.12065,27.61666c19.30698,14.68076 47.45921,23.02686 45.94442,23.4285c-2.42312,0.64248 -14.9591,1.7358 -21.00742,1.31534c-46.67814,-3.24493 -81.88771,-43.71558 -78.64277,-90.39371z" fill="#ef8b89" stroke-width="0"/><path d="M408.75349,128.30951c-0.80615,11.59635 -2.65875,15.49363 -3.08106,13.60808c-0.43084,-1.92361 0.49434,-9.80294 -8.00489,-15.24108c-2.05953,-1.31777 -10.61691,5.55314 -13.25278,4.1388c-1.65563,-0.88838 -7.92565,-10.75107 -9.78784,-11.55818c-1.30201,-0.56432 -13.00112,7.49399 -14.36604,6.94736c-3.40417,-1.3633 -11.17089,-12.17757 -14.86744,-13.09414c-2.03558,-0.50473 -10.08223,11.17748 -12.16857,10.77798c-2.6906,-0.5152 -9.20744,-12.73763 -11.93823,-12.92747c-7.26232,-0.50486 -7.94797,6.47519 -13.58971,12.10371c-3.66614,3.65755 -13.0496,-13.99055 -16.47347,-9.78266c-4.25205,5.22569 -8.45154,10.25629 -12.93199,13.55314c-3.51508,2.58651 -12.63177,-10.99936 -15.68238,-8.58733c-14.72917,11.64592 -23.60166,19.05282 -22.34145,0.92474c2.53405,-36.45218 43.75302,-5.19173 86.92772,-23.76402c41.32638,-17.77721 84.09218,-3.55108 81.55812,32.90109z" fill="#ef8b89" stroke-width="0"/></g><path d="M410.86002,120.12501c-1.62857,23.4268 5.91157,9.1473 -11.37952,-1.65341c-2.11593,-1.32169 -10.8851,5.53449 -13.59265,4.11517c-1.70065,-0.89151 -8.153,-10.76687 -10.06548,-11.57748c-1.33717,-0.56677 -13.32828,7.47124 -14.72997,6.92207c-3.49589,-1.36968 -11.48591,-12.19947 -15.28103,-13.12289c-2.08986,-0.50851 -10.32615,11.16052 -12.46792,10.75717c-2.76207,-0.52017 -9.47202,-12.75602 -12.27474,-12.95086c-7.45362,-0.51815 -8.14451,6.46153 -13.92389,12.08048c-3.75558,3.65133 -13.41717,-14.0161 -16.92313,-9.81392c-4.35398,5.21861 -8.6544,10.24219 -13.24628,13.53129c-3.60251,2.58043 -12.98294,-11.02378 -16.10912,-8.617c-15.09406,11.62056 -24.18564,19.01222 -22.92543,0.88414c2.53405,-36.45218 45.40182,-78.29687 91.21809,-75.11185c45.81626,3.18502 84.23516,48.10494 81.7011,84.55712z" fill="#724e36" stroke-width="2"/><path d="M410.69353,118.94784c-1.62857,23.4268 5.91157,9.1473 -11.37952,-1.65341c-2.11593,-1.32169 -10.8851,5.53449 -13.59265,4.11517c-1.70065,-0.89151 -8.153,-10.76687 -10.06549,-11.57748c-1.33717,-0.56677 -13.32828,7.47124 -14.72997,6.92207c-3.49589,-1.36968 -11.48591,-12.19947 -15.28103,-13.12289c-2.08986,-0.50851 -10.32615,11.16052 -12.46792,10.75717c-2.76207,-0.52017 -9.47202,-12.75602 -12.27474,-12.95086c-7.45362,-0.51815 -8.14451,6.46153 -13.92389,12.08048c-3.75558,3.65133 -13.41717,-14.0161 -16.92313,-9.81392c-4.35398,5.21861 -8.6544,10.24219 -13.24629,13.53129c-3.60251,2.58043 -12.98294,-11.02378 -16.10912,-8.617c-15.09406,11.62056 -24.18564,19.01222 -22.92543,0.88414c2.53405,-36.45218 44.8905,-5.11265 89.16313,-23.60862c42.37732,-17.70416 86.2901,-3.39829 83.75605,33.05389z" fill="#623728" stroke-width="0"/></g><g stroke="#000000" stroke-linecap="butt"><path d="M341.92715,147.08087c-1.98056,28.49018 -16.13871,42.27203 -32.66736,41.123c-16.52865,-1.14903 -29.16874,-16.79382 -27.18818,-45.28399c1.98056,-28.49018 16.98524,-50.65456 33.51389,-49.50554c16.52865,1.14903 28.32221,25.17634 26.34166,53.66653z" fill="#f0f0f0" stroke-width="2"/><path d="M296.64202,124.30312c-6.25018,27.86661 29.83848,64.26562 13.30983,63.11659c-16.52865,-1.14903 -29.16874,-16.79382 -27.18818,-45.28399c1.98056,-28.49018 22.91426,-58.11949 13.87835,-17.8326z" fill="#9a99ff" stroke-width="0"/></g><path d="M337.47112,155.02422c-1.09727,15.78412 -6.6644,28.2545 -12.43453,27.85338c-5.77013,-0.40112 -9.55824,-13.52186 -8.46098,-29.30597c1.09727,-15.78412 6.6644,-28.2545 12.43453,-27.85338c5.77013,0.40112 9.55824,13.52186 8.46098,29.30597z" fill="#000000" stroke="none" stroke-width="0" stroke-linecap="butt"/><g stroke="#000000" stroke-linecap="butt"><path d="M339.01281,116.77111c3.73929,10.51444 -10.85335,13.40121 -26.52579,12.3117c-15.67244,-1.0895 -26.79262,-6.51529 -21.59194,-15.79218c4.94837,-8.82681 8.25879,-20.89648 23.93123,-19.80698c15.67244,1.0895 20.6229,13.26705 24.18649,23.28745z" fill="#a100fe" stroke-width="2"/><path d="M338.11533,116.35362c3.58759,10.5039 -10.51667,13.42461 -25.65472,12.37226c-15.13805,-1.05235 -25.86808,-6.45102 -20.822,-15.73865c4.80128,-8.83704 6.47572,1.41453 21.61377,2.46688c15.13805,1.05235 21.44391,-9.11084 24.86294,0.89951z" fill="#99008e" stroke-width="0"/></g><g data-paper-data="{&quot;index&quot;:null}" stroke="#000000" stroke-linecap="butt"><path d="M379.26128,96.35871c16.52865,1.14903 28.32221,25.17634 26.34166,53.66653c-1.98056,28.49017 -16.66377,42.23553 -33.19242,41.0865c-16.52865,-1.14903 -28.64369,-16.75731 -26.66313,-45.24749c1.98056,-28.49018 16.98524,-50.65456 33.51389,-49.50554z" fill="#f0f0f0" stroke-width="2"/><path d="M405.02603,149.15286c-1.98056,28.49017 -16.66377,42.23553 -33.19242,41.0865c-16.52865,-1.14903 24.24926,-32.20448 21.91498,-60.66786c-3.37468,-41.14963 13.25799,-8.90882 11.27744,19.58136z" fill="#9a99ff" stroke-width="0"/></g><path d="M392.69007,129.97325c5.77013,0.40112 9.55824,13.52186 8.46098,29.30597c-1.09727,15.78412 -6.6644,28.2545 -12.43453,27.85338c-5.77013,-0.40112 -9.55824,-13.52186 -8.46098,-29.30597c1.09727,-15.78412 6.6644,-28.2545 12.43453,-27.85338z" data-paper-data="{&quot;index&quot;:null}" fill="#000000" stroke="none" stroke-width="0" stroke-linecap="butt"/><g data-paper-data="{&quot;index&quot;:null}" stroke="#000000" stroke-linecap="butt"><path d="M352.82755,116.24924c4.91579,-9.43094 11.50359,-20.80637 27.17603,-19.71687c15.67244,1.0895 17.28098,13.50113 20.96043,22.92772c3.86705,9.90725 -7.89691,13.7422 -23.56935,12.65269c-15.67244,-1.0895 -29.72528,-5.96762 -24.56712,-15.86354z" fill="#a100fe" stroke-width="2"/><path d="M353.77416,115.95996c4.77123,-9.44099 9.6102,1.49697 24.74825,2.54932c15.13805,1.05235 18.21485,-8.86892 21.7472,0.54745c3.71246,9.89651 -7.66136,13.75857 -22.79941,12.70622c-15.13805,-1.05235 -28.70252,-5.89652 -23.69606,-15.80298z" fill="#99008e" stroke-width="0"/></g><path d="M391.63632,338.87004c0,11.6628 -14.51982,21.11737 -32.43092,21.11737c-17.9111,0 -32.43092,-9.45457 -32.43092,-21.11737c0,-2.33142 -0.03339,-13.76009 1.08979,-15.13837c4.49546,-5.51647 17.81784,5.26144 32.14847,5.26144c17.9111,0 31.62358,-1.78588 31.62358,9.87692z" fill="#000082" stroke="#000000" stroke-width="2" stroke-linecap="butt"/><path d="M389.75004,336.13774c0,6.30841 -13.89058,10.1901 -31.80169,10.1901c-17.9111,0 -30.16566,-2.95748 -30.16566,-9.26589c0,-1.26107 -0.03338,-12.52602 1.0898,-13.27153c4.49546,-2.98386 15.55258,5.7726 29.88321,5.7726c17.9111,0 30.99434,0.26631 30.99434,6.57472z" fill="#2e0048" stroke="#000000" stroke-width="0" stroke-linecap="butt"/><path d="M348.64938,338.2252c0,11.6628 -14.51982,21.11737 -32.43092,21.11737c-17.9111,0 -32.43092,-9.45457 -32.43092,-21.11737c0,-2.33142 -0.03339,-13.76009 1.08979,-15.13837c4.49546,-5.51647 17.81784,5.26144 32.14847,5.26144c17.9111,0 31.62358,-1.78588 31.62358,9.87692z" fill="#000082" stroke="#000000" stroke-width="2" stroke-linecap="butt"/><path d="M346.7631,335.49289c0,6.30841 -13.89058,10.1901 -31.80169,10.1901c-17.9111,0 -30.16566,-2.95748 -30.16566,-9.26589c0,-1.26107 -0.03338,-12.52602 1.0898,-13.27153c4.49546,-2.98386 15.55258,5.7726 29.88321,5.7726c17.9111,0 30.99434,0.26631 30.99434,6.57472z" fill="#2e0048" stroke="#000000" stroke-width="0" stroke-linecap="butt"/><g><path d="M285.13975,258.54183c-12.87177,-7.87024 -16.43174,-18.93986 -9.24241,-32.03273c5.62282,-10.24008 23.15717,-14.77552 36.02896,-6.90527c12.87185,7.87024 17.13687,21.90496 9.3451,34.64849c-1.21848,1.99284 -2.93447,3.47039 -4.48912,4.83454c-8.38677,7.35886 -20.78362,6.09447 -31.64251,-0.54501z" fill="#485e84" stroke="#000000" stroke-width="2" stroke-linecap="butt"/><path d="M298.35749,217.26446c0,0 -3.37021,4.66612 -2.62767,6.52677c7.12255,17.84777 18.52867,26.04037 22.50797,28.46213c0.90409,0.55022 1.89829,0.02828 1.89829,0.02828c0,0 -0.90717,1.90922 -2.80943,3.88291c-2.02416,2.10018 -5.13411,4.29837 -8.06999,5.20708c-3.35361,1.03797 -11.68425,1.36791 -11.68425,1.36791l-19.35845,-8.0068c0,0 -4.26974,-12.75635 -4.20695,-14.92267c0.06149,-2.12229 0.74296,-4.61594 1.36082,-7.29646c0.95933,-4.16188 3.45185,-7.95585 5.64639,-9.821c2.80076,-2.38032 7.1379,-4.09531 10.87581,-4.86374c3.47882,-0.71516 6.4674,-0.56429 6.4674,-0.56429z" fill="#343545" stroke="none" stroke-width="0" stroke-linecap="butt"/><path d="M287.68266,239.24667c0,0 3.00965,-8.5053 7.33271,-11.31444c5.47254,-3.55609 17.88306,-7.30857 17.88306,-7.30857" fill="none" stroke="#000000" stroke-width="1" stroke-linecap="round"/><path d="M323.47573,247.51546c0,0 -4.93234,5.17705 -8.55397,7.49127c-3.65618,2.33636 -13.14954,4.34351 -13.14954,4.34351" fill="none" stroke="#000000" stroke-width="1" stroke-linecap="round"/><path d="M277.09109,236.38747c0,0 2.95894,-8.77672 7.78002,-11.60623c7.39779,-4.34176 18.34812,-8.16095 18.34812,-8.16095" fill="none" stroke="#000000" stroke-width="1" stroke-linecap="round"/><path d="M281.19893,221.66596c0,0 17.20644,-1.8476 28.74183,11.20914c12.63556,14.302 3.36104,28.84414 3.36104,28.84414" fill="none" stroke="#000000" stroke-width="1" stroke-linecap="round"/><path d="M275.19117,229.05595c0,0 17.77041,1.03691 27.97423,12.53653c8.37826,9.44226 1.71195,22.42221 1.71195,22.42221" fill="none" stroke="#000000" stroke-width="1" stroke-linecap="round"/><path d="M318.68626,233.43805c-0.54657,-1.07166 -0.30185,-2.29114 0.5465,-2.72381c0.84836,-0.43274 1.23055,0.26578 1.77711,1.33744c0.54657,1.07166 1.05049,2.11063 0.20213,2.54331c-0.84836,0.43274 -1.97922,-0.08528 -2.52573,-1.15693z" fill="#8fbbbe" stroke="none" stroke-width="0" stroke-linecap="butt"/><path d="M321.07678,240.30421c-0.51316,-0.31379 -0.54763,-1.19211 -0.07699,-1.96185c0.47064,-0.76975 0.76908,-1.01904 1.28224,-0.7053c0.51316,0.31379 0.70251,1.2868 0.23184,2.05653c-0.47064,0.76975 -0.92396,0.92435 -1.4371,0.6106z" fill="#8fbbbe" stroke="none" stroke-width="0" stroke-linecap="butt"/><path d="M315.48571,227.30452c-0.71523,-0.55002 -0.99778,-1.38233 -0.63114,-1.85914c0.36659,-0.47679 0.95961,0.04708 1.67483,0.59704c0.71523,0.55002 1.28185,0.91773 0.91522,1.39456c-0.36659,0.47679 -1.2437,0.4175 -1.95891,-0.13248z" fill="#8fbbbe" stroke="none" stroke-width="0" stroke-linecap="butt"/><path d="M293.87449,217.28928c0,0 9.98861,2.21525 16.25578,6.47462c3.55316,2.41486 5.85114,5.76981 7.56484,8.33289c1.51554,2.26663 2.73634,8.72693 3.15619,13.76895c0.30912,3.71216 -0.00111,6.63974 -0.00111,6.63974" fill="none" stroke="#000000" stroke-width="0.5" stroke-linecap="round"/><path d="M324.21913,233.07717c0,0 -5.85787,8.80133 -10.2906,11.89455c-3.73466,2.60613 -14.26239,5.6444 -14.26239,5.6444" fill="none" stroke="#000000" stroke-width="1" stroke-linecap="round"/><path d="M295.71768,246.28709c0,0 5.44498,-7.98626 8.85174,-10.96028c5.9816,-5.22182 16.05428,-7.85205 16.05428,-7.85205" fill="none" stroke="#000000" stroke-width="1" stroke-linecap="round"/></g><g stroke="#000000" stroke-linecap="butt"><path d="M275.66246,233.58693c21.83179,25.19309 19.71406,34.60427 13.59923,39.90325c-6.11484,5.29899 -28.77004,-10.82839 -50.60183,-36.02149c-21.83178,-25.1931 50.38409,-24.59566 56.49893,-29.89464c7.03029,-0.95041 5.68328,5.43576 -0.02442,10.83744c-7.03894,6.66153 -21.338,13.02204 -19.47191,15.17545z" fill="#216aff" stroke-width="2"/><path d="M301.19906,244.59748c9.37076,10.81351 7.97558,27.3716 -3.11623,36.9835c-11.0918,9.61191 -27.67999,8.63783 -37.05075,-2.17569c-9.37076,-10.81351 -7.97557,-27.3716 3.11624,-36.98351c11.0918,-9.61191 27.67999,-8.63782 37.05075,2.1757z" fill="#faddbf" stroke-width="2"/><path d="M263.52612,261.80205c9.37076,10.81351 45.38552,9.26031 34.29371,18.87222c-11.0918,9.61191 -27.67999,8.63783 -37.05075,-2.1757c-9.37076,-10.81351 -6.61373,-27.51005 2.75702,-16.69652z" fill="#ef8b89" stroke-width="0"/></g><path d="M282.74434,173.0658c0.82047,0.94305 -0.12259,1.76351 -0.12259,1.76351l-0.10765,0.00864c-1.45293,2.46044 -2.78934,5.17571 -5.63625,6.33108c-2.9515,1.19782 -6.71911,-0.07402 -7.17032,-3.4569c-0.60503,-4.53613 3.99781,-8.6729 6.28489,-12.03823c0,0 0.70319,-1.03344 1.73664,-0.33024c1.03344,0.7032 0.33025,1.73664 0.33025,1.73664c-1.93288,2.83728 -6.18588,6.55329 -5.86689,10.35742c0.14256,1.7001 2.44983,1.97626 3.77013,1.40489c2.24695,-0.97241 3.2448,-3.31839 4.39839,-5.27508l0.61989,-0.62432c0,0 0.94305,-0.82046 1.7635,0.12259z" fill="#000000" stroke="none" stroke-width="0.5" stroke-linecap="butt"/></g></g></svg>