<svg version="1.1" xmlns="http://www.w3.org/2000/svg" xmlns:xlink="http://www.w3.org/1999/xlink" width="223.08389" height="334.62076" viewBox="0,0,223.08389,334.62076"><g transform="translate(-218.06729,-26.36665)"><g data-paper-data="{&quot;isPaintingLayer&quot;:true}" fill-rule="nonzero" stroke-linecap="butt" stroke-linejoin="miter" stroke-miterlimit="10" stroke-dasharray="" stroke-dashoffset="0" style="mix-blend-mode: normal"><g stroke="#000000"><path d="M327.76518,340.83535v-95.29492h29.49199v95.29492z" fill="#73fffc" stroke-width="2"/><path d="M327.43943,340.21742l1.32626,-93.78573c0,0 5.20288,68.11227 6.3799,77.52842c0.2602,2.08162 2.52228,2.78987 2.52228,2.78987l18.60659,13.13896z" fill="#59a9e6" stroke-width="0"/></g><g stroke="#000000"><path d="M288.4238,338.4128v-95.29492h29.49199v95.29492z" fill="#73fffc" stroke-width="2"/><path d="M288.09805,337.7949l1.32626,-93.78573c0,0 5.20288,68.11227 6.3799,77.52842c0.2602,2.08162 2.52228,2.78987 2.52228,2.78987l18.60659,13.13896z" fill="#59a9e6" stroke-width="0"/></g><g stroke="#000000"><path d="M355.22917,235.69587c0,13.80271 10.04743,36.74388 4.95001,46.45977c-6.2338,11.88187 -28.61241,9.09579 -38.9397,9.09579c-13.66287,0 -32.94407,4.17018 -38.34426,-14.83216c-2.01935,-7.10576 4.35457,-32.37264 4.35457,-40.7234c0,-30.68249 15.2177,-55.55556 33.98969,-55.55556c18.77199,0 33.98969,24.87307 33.98969,55.55556z" fill="#216aff" stroke-width="2"/><path d="M303.96554,251.27245c0,13.80271 62.04198,20.54886 56.94455,30.26474c-6.2338,11.88186 -28.61241,9.09579 -38.9397,9.09579c-13.66287,0 -32.94406,4.17018 -38.34425,-14.83215c-2.01936,-7.10576 4.35457,-32.37265 4.35457,-40.7234c0,-9.45244 3.34855,-28.59801 5.51953,-29.96813c5.94391,-16.76415 10.4653,25.13995 10.4653,46.16315z" fill="#3236f4" stroke-width="0"/></g><g stroke="#000000"><g><path d="M231.76768,114.82331c0,-46.79079 37.93143,-84.72222 84.72222,-84.72222c46.79079,0 84.72222,37.93143 84.72222,84.72222c0,46.79079 -37.93143,84.72222 -84.72222,84.72222c-46.79079,0 -84.72222,-37.93143 -84.72222,-84.72222z" fill="#faddbf" stroke-width="2"/><path d="M231.99845,113.9538c0,-15.05428 8.65728,-41.01117 13.16632,-44.22534c0.51494,-0.36707 5.78642,-8.91029 13.30693,-15.62682c9.34748,-8.34819 21.31473,-15.15641 21.9255,-14.95935c7.96872,2.57101 -17.52654,64.85492 -16.28763,90.14485c0.00295,0.06031 4.40745,19.70158 6.02593,20.14049c2.8855,4.74247 9.11092,19.15337 19.99223,26.29351c20.2786,13.30648 48.94186,19.68013 47.45857,20.18586c-2.37273,0.80898 -14.80271,2.76903 -20.86562,2.76903c-46.79079,0 -84.72222,-37.93143 -84.72222,-84.72222z" fill="#ef8b89" stroke-width="0"/><path d="M400.68868,114.36511c0,11.62434 -1.57787,15.64071 -2.12992,13.78899c-0.5632,-1.8891 -0.18668,-9.81362 -9.04258,-14.64925c-2.14596,-1.17177 -10.20624,6.27605 -12.93385,5.04791c-1.71325,-0.77142 -8.65215,-10.17554 -10.56583,-10.85157c-1.33801,-0.47267 -12.45011,8.37757 -13.84965,7.92692c-3.49052,-1.12394 -11.98851,-11.37355 -15.73972,-12.03156c-2.06568,-0.36235 -9.2828,11.84977 -11.39182,11.59592c-2.71985,-0.32737 -10.06862,-12.06843 -12.80601,-12.06843c-7.27985,0 -7.47978,7.01079 -12.7176,13.01701c-3.40366,3.90299 -13.98842,-13.05188 -17.11223,-8.61668c-3.87941,5.50799 -7.71992,10.81771 -11.96095,14.41734c-3.32724,2.82405 -13.36416,-10.09687 -16.24015,-7.47909c-13.88607,12.63935 -22.22353,20.64372 -22.22353,2.47189c0,-36.54015 43.28764,-8.21349 85.0704,-29.73523c39.99404,-20.60039 83.64345,-9.37431 83.64345,27.16584z" fill="#ef8b89" stroke-width="0"/></g><path d="M402.22255,106.05422c0,23.48334 6.5317,8.71531 -11.46679,-0.86026c-2.20249,-1.17177 -10.47508,6.27605 -13.27454,5.04791c-1.75838,-0.77142 -8.88005,-10.17554 -10.84414,-10.85157c-1.37326,-0.47267 -12.77806,8.37757 -14.21446,7.92692c-3.58246,-1.12394 -12.30429,-11.37355 -16.15431,-12.03156c-2.12009,-0.36235 -9.52731,11.84977 -11.69189,11.59592c-2.79149,-0.32737 -10.33384,-12.06843 -13.14333,-12.06843c-7.47161,0 -7.6768,7.01079 -13.05259,13.01701c-3.49332,3.90299 -14.35688,-13.05188 -17.56298,-8.61668c-3.98159,5.50799 -7.92327,10.81771 -12.276,14.41734c-3.41488,2.82405 -13.71618,-10.09687 -16.66792,-7.47909c-14.25184,12.63935 -22.80892,20.64372 -22.80892,2.47189c0,-36.54015 39.86264,-81.25697 85.78948,-81.25697c45.92683,0 87.36842,42.14743 87.36842,78.68758z" fill="#724e36" stroke-width="2"/><path d="M401.97482,104.89143c0,23.48334 6.5317,8.71531 -11.46679,-0.86026c-2.20249,-1.17177 -10.47508,6.27605 -13.27454,5.04791c-1.75838,-0.77142 -8.88005,-10.17554 -10.84415,-10.85157c-1.37326,-0.47267 -12.77806,8.37757 -14.21446,7.92692c-3.58246,-1.12394 -12.30429,-11.37355 -16.15431,-12.03156c-2.12009,-0.36235 -9.52731,11.84977 -11.69189,11.59592c-2.79149,-0.32737 -10.33384,-12.06843 -13.14333,-12.06843c-7.47161,0 -7.6768,7.01079 -13.05259,13.01701c-3.49332,3.90299 -14.35688,-13.05188 -17.56298,-8.61668c-3.98159,5.50799 -7.92327,10.81771 -12.27601,14.41734c-3.41488,2.82405 -13.71618,-10.09687 -16.66792,-7.47909c-14.25184,12.63935 -22.80892,20.64372 -22.80892,2.47189c0,-36.54015 44.42786,-8.21349 87.31121,-29.73523c41.04751,-20.60039 85.84668,-9.37431 85.84668,27.16584z" fill="#623728" stroke-width="0"/></g><g data-paper-data="{&quot;index&quot;:null}" stroke="#000000"><path d="M372.51118,217.38872c1.7149,-2.27565 -12.98461,-7.64627 -20.46143,-13.8123c-6.06277,-4.99988 -7.84213,-11.27934 -0.76339,-10.81055c6.46195,4.86966 78.46897,-0.65092 58.40598,25.97229c-20.063,26.62321 -41.56572,44.25795 -48.02767,39.38828c-6.46195,-4.86966 -9.2165,-14.11453 10.8465,-40.73773z" fill="#216aff" stroke-width="2"/><path d="M384.60097,225.41784c11.72144,8.83317 14.24251,25.25757 5.63096,36.68492c-8.61155,11.42735 -25.0947,13.53035 -36.81614,4.69718c-11.72144,-8.83317 -14.2425,-25.25756 -5.63095,-36.68491c8.61155,-11.42735 25.09469,-13.53036 36.81613,-4.69719z" fill="#faddbf" stroke-width="2"/><path d="M390.43247,261.18018c-8.61154,11.42736 -25.09469,13.53036 -36.81613,4.69719c-11.72144,-8.83317 24.31541,-9.73949 32.92696,-21.16684c8.61155,-11.42737 12.50072,5.0423 3.88917,16.46965z" fill="#ef8b89" stroke-width="0"/></g><g stroke="#000000"><path d="M335.32502,137.72567c0,28.55894 -13.1683,43.28947 -29.73684,43.28947c-16.56854,0 -30.26316,-14.73054 -30.26316,-43.28947c0,-28.55894 13.43146,-51.71053 30,-51.71053c16.56854,0 30,23.15159 30,51.71053z" fill="#f0f0f0" stroke-width="2"/><path d="M288.56929,118.14327c-4.30259,28.23297 34.22345,62.0416 17.65491,62.0416c-16.56854,0 -30.26316,-14.73054 -30.26316,-43.28947c0,-28.55894 18.82852,-59.56866 12.60825,-18.75213z" fill="#9a99ff" stroke-width="0"/></g><path d="M320.97604,147.7771c0,15.82221 -4.68891,28.64865 -10.47297,28.64865c-5.78406,0 -10.47297,-12.82644 -10.47297,-28.64865c0,-15.82221 4.68891,-28.64865 10.47297,-28.64865c5.78406,0 10.47297,12.82644 10.47297,28.64865z" fill="#000000" stroke="none" stroke-width="0"/><g stroke="#000000"><path d="M330.31572,107.69099c4.45946,10.22981 -9.89785,14.12162 -25.60811,14.12162c-15.71026,0 -27.17995,-4.64154 -22.63514,-14.25676c4.32432,-9.14873 6.78974,-21.41892 22.5,-21.41892c15.71026,0 21.49332,11.80491 25.74324,21.55405z" fill="#a100fe" stroke-width="2"/><path d="M329.39145,107.33674c4.3074,10.22981 -9.56036,14.12162 -24.73494,14.12162c-15.17458,0 -26.25318,-4.64154 -21.86334,-14.25676c4.17687,-9.14873 6.55823,0.96203 21.73281,0.96203c15.17458,0 20.76045,-10.57604 24.86546,-0.8269z" fill="#99008e" stroke-width="0"/></g><g data-paper-data="{&quot;index&quot;:null}" stroke="#000000"><path d="M369.0517,84.53651c16.56854,0 30,23.15159 30,51.71053c0,28.55893 -13.69462,43.28947 -30.26316,43.28947c-16.56854,0 -29.73684,-14.73053 -29.73684,-43.28947c0,-28.55894 13.43146,-51.71053 30,-51.71053z" fill="#f0f0f0" stroke-width="2"/><path d="M398.41568,135.41677c0,28.55893 -13.69462,43.28947 -30.26316,43.28947c-16.56854,0 21.9575,-33.80863 17.65491,-62.0416c-6.22027,-40.81653 12.60825,-9.80681 12.60825,18.75213z" fill="#9a99ff" stroke-width="0"/></g><path d="M362.96113,117.13883c5.78406,0 10.47297,12.82644 10.47297,28.64865c0,15.82221 -4.68891,28.64865 -10.47297,28.64865c-5.78406,0 -10.47297,-12.82644 -10.47297,-28.64865c0,-15.82221 4.68891,-28.64865 10.47297,-28.64865z" data-paper-data="{&quot;index&quot;:null}" fill="#000000" stroke="none" stroke-width="0"/><g data-paper-data="{&quot;index&quot;:null}" stroke="#000000"><path d="M344.06101,106.21233c4.24992,-9.74914 10.03298,-21.55405 25.74324,-21.55405c15.71026,0 18.17568,12.27019 22.5,21.41892c4.54481,9.61522 -6.92488,14.25676 -22.63514,14.25676c-15.71026,0 -30.06757,-3.89181 -25.60811,-14.12162z" fill="#a100fe" stroke-width="2"/><path d="M344.98528,105.85809c4.10501,-9.74914 9.69088,0.8269 24.86546,0.8269c15.17458,0 17.55594,-10.11076 21.73281,-0.96203c4.38984,9.61522 -6.68876,14.25676 -21.86334,14.25676c-15.17458,0 -29.04234,-3.89181 -24.73494,-14.12162z" fill="#99008e" stroke-width="0"/></g><path d="M391.63632,338.87004c0,11.6628 -14.51982,21.11737 -32.43092,21.11737c-17.9111,0 -32.43092,-9.45457 -32.43092,-21.11737c0,-2.33142 -0.03339,-13.76009 1.08979,-15.13837c4.49546,-5.51647 17.81784,5.26144 32.14847,5.26144c17.9111,0 31.62358,-1.78588 31.62358,9.87692z" fill="#000082" stroke="#000000" stroke-width="2"/><path d="M389.75004,336.13774c0,6.30841 -13.89058,10.1901 -31.80169,10.1901c-17.9111,0 -30.16566,-2.95748 -30.16566,-9.26589c0,-1.26107 -0.03338,-12.52602 1.0898,-13.27153c4.49546,-2.98386 15.55258,5.7726 29.88321,5.7726c17.9111,0 30.99434,0.26631 30.99434,6.57472z" fill="#2e0048" stroke="#000000" stroke-width="0"/><path d="M348.64938,338.22521c0,11.6628 -14.51982,21.11737 -32.43092,21.11737c-17.9111,0 -32.43092,-9.45457 -32.43092,-21.11737c0,-2.33142 -0.03339,-13.76009 1.08979,-15.13837c4.49546,-5.51647 17.81784,5.26144 32.14847,5.26144c17.9111,0 31.62358,-1.78588 31.62358,9.87692z" fill="#000082" stroke="#000000" stroke-width="2"/><path d="M346.7631,335.49289c0,6.30841 -13.89058,10.1901 -31.80169,10.1901c-17.9111,0 -30.16566,-2.95748 -30.16566,-9.26589c0,-1.26107 -0.03338,-12.52602 1.0898,-13.27153c4.49546,-2.98386 15.55258,5.7726 29.88321,5.7726c17.9111,0 30.99434,0.26631 30.99434,6.57472z" fill="#2e0048" stroke="#000000" stroke-width="0"/><path d="M277.6322,169.11598c0.88389,0.88388 0,1.76777 0,1.76777l-0.10679,0.01608c-1.2788,2.55528 -2.42369,5.35669 -5.18362,6.70671c-2.86133,1.39962 -6.70807,0.39213 -7.39279,-2.95132c-0.91815,-4.48325 3.38672,-8.92927 5.43491,-12.4451c0,0 0.62983,-1.07972 1.70956,-0.44988c1.07972,0.62984 0.44989,1.70956 0.44989,1.70956c-1.73146,2.96449 -5.71652,6.9665 -5.13448,10.73935c0.26012,1.68612 2.58099,1.80161 3.85848,1.14005c2.1741,-1.12589 3.00686,-3.53543 4.02197,-5.56741l0.5751,-0.66581c0,0 0.88388,-0.88388 1.76776,0z" fill="#000000" stroke="none" stroke-width="0.5"/><g stroke="none" stroke-width="1"><path d="M437.59979,200.7364c-2.43101,1.56521 -4.99468,3.09612 -7.37581,4.74486c-5.83725,3.93964 -11.75729,7.92849 -17.59464,11.86796c-4.64674,3.11519 -9.37615,6.27976 -14.02289,9.39494c-7.85485,5.25776 -15.70971,10.51552 -23.51458,15.85698c-6.16814,4.137 -12.20361,8.30833 -18.32167,12.52919c-5.17574,3.5444 -10.48407,7.05466 -15.65982,10.59906c-8.26835,5.50468 -16.48672,11.09306 -24.75507,16.59774c-6.82964,4.53225 -13.79195,9.03018 -20.67166,13.47857c-2.26561,1.46645 -4.66388,2.89859 -7.01219,4.41441c-0.82699,0.49383 -1.63842,0.63801 -2.61683,0.31465c-0.39793,-0.10276 -0.71315,-0.2549 -1.11109,-0.35766c-3.28319,-0.98912 -6.36816,-2.20991 -9.48605,-3.29796c-8.29226,-2.98969 -16.61724,-5.84629 -24.90961,-8.83614c-3.35032,-1.28941 -6.73336,-2.44574 -10.00098,-3.78453c-4.61114,-1.89781 -9.1724,-3.71209 -13.81637,-5.47699c-1.29354,-0.47532 -2.28921,-1.01544 -2.40939,-2.53182c-0.03441,-0.43337 -0.3668,-0.80212 -0.53378,-1.26963c-1.88364,-4.09376 -3.5193,-8.33584 -5.02227,-12.54362c-1.16891,-3.27258 -1.03632,-3.23845 1.69116,-5.43439c3.78543,-3.05455 7.72068,-5.85819 11.65584,-8.66199c6.15089,-4.35377 12.21917,-8.65799 18.28736,-12.96238c6.06818,-4.30439 12.21917,-8.658 18.28736,-12.9624c3.85246,-2.75442 7.8377,-5.47436 11.69016,-8.22878c1.71953,-1.25367 3.35636,-2.45796 5.12577,-3.62809c2.87731,-1.94504 5.80452,-3.80656 8.58199,-5.91882c3.71988,-2.78856 7.45693,-5.36052 11.22668,-8.06556c4.96037,-3.52932 10.00344,-7.10803 15.0965,-10.60303c5.86997,-4.07271 11.74003,-8.14526 17.6101,-12.2178c3.65434,-2.52257 7.44135,-5.01084 11.0957,-7.53341c3.73714,-2.5718 7.37422,-5.31113 11.11136,-7.88293c4.23324,-2.86826 8.54917,-5.78592 12.7824,-8.65418c0.9097,-0.54322 1.81938,-1.08645 2.72908,-1.62967c1.53857,-0.80522 2.91322,-0.94555 4.55641,0.11528c3.20377,2.17123 6.65552,4.19413 10.02459,6.26642c2.92125,1.88601 6.04063,3.54016 8.9619,5.42617c4.74699,3.06468 9.3614,6.09521 14.14112,9.02681c6.60555,4.11044 13.09558,8.40317 19.61843,12.56299c0.91287,0.58934 1.61046,1.19391 2.07711,2.16324c1.28283,2.52401 2.5157,4.96433 3.79853,7.48834c0.39952,0.66903 0.71634,1.38746 0.95045,2.15526c0.51811,1.61914 1.54968,3.15874 1.22364,5.05512c-1.22324,0.95753 -2.41385,1.78181 -3.48894,2.4238zM435.10125,195.98867c-5.24319,-2.76837 -10.28826,-5.76859 -15.33323,-8.76864c-3.89967,-2.20936 -7.68381,-4.60101 -11.55076,-6.94344c-4.96237,-3.0496 -9.79207,-6.06489 -14.70446,-9.03081c-2.72145,-1.55141 -5.5256,-3.05343 -8.24714,-4.605c-1.55572,0.58862 -7.11215,4.24703 -9.26073,6.09729c-0.01556,0.34967 0.21697,0.5512 0.53219,0.70335c3.98236,2.15998 7.65109,4.73409 11.51794,7.07635c1.77585,1.09514 3.78256,1.82537 5.443,3.10298c0.46496,0.40288 1.01271,0.75655 1.47777,1.15961c0.64762,0.52088 0.69908,1.17068 0.31999,1.85098c-0.26367,0.49783 -0.66001,0.96135 -1.2389,1.30704c-4.21608,3.08487 -8.43215,6.16972 -12.74809,9.08738c-5.34115,3.64316 -10.54962,7.32063 -15.90782,10.74737c-3.67159,2.3058 -7.11055,4.8133 -10.6822,7.2865c-4.06793,2.76933 -8.13578,5.53882 -12.25349,8.22479c-4.61401,2.98211 -9.14532,5.91483 -13.70935,8.98064c-2.76181,1.76275 -5.50655,3.74193 -8.21837,5.58838c-3.62161,2.3895 -7.11055,4.8133 -10.73217,7.2028c-5.39103,3.55964 -10.78205,7.11928 -16.17318,10.67875c-4.97753,3.31272 -10.1376,6.5076 -15.11514,9.82032c-3.57164,2.47319 -7.22598,4.99576 -10.79772,7.46879c-0.28082,0.28122 -0.61161,0.47877 -0.94241,0.67631c-1.30604,1.00675 -2.56526,0.96462 -4.12416,0.42068c-5.82049,-1.85641 -11.51,-4.24494 -17.21498,-6.28365c-3.69837,-1.30864 -3.69837,-1.30864 -6.72385,0.95194c-3.27367,2.40856 -6.54722,4.8173 -9.77091,7.30955c-0.3308,0.19753 -0.61162,0.47877 -0.61003,1.04505c1.79143,0.74547 3.63273,1.57446 5.50686,2.27054c9.83559,3.8833 19.73672,7.50062 29.70339,10.85195c6.94874,2.43067 13.93019,4.72826 20.8134,7.42491c1.02829,0.40688 2.08941,0.68084 3.06782,1.0042c1.96921,-0.83554 3.4235,-2.15766 5.1102,-3.27841c4.86211,-3.13027 9.67422,-6.34421 14.48637,-9.55816c4.56403,-3.0658 9.09534,-5.99852 13.65938,-9.06433c3.95241,-2.58704 7.87201,-5.04116 11.77445,-7.71189c7.14338,-4.94622 14.28666,-9.8926 21.47991,-14.75529c3.53892,-2.34012 7.07783,-4.68024 10.56677,-7.10403c5.67184,-3.84087 11.37651,-7.81464 17.13116,-11.70473c3.29072,-2.19214 6.54882,-4.25101 9.78965,-6.52667c7.72217,-5.29207 15.36166,-10.53476 23.23376,-15.57575c5.6063,-3.57488 11.08012,-7.18374 16.63655,-10.84214c2.26561,-1.46645 4.48134,-3.01642 6.86246,-4.66515c-0.89731,-0.93901 -1.95842,-1.21298 -3.05394,-1.92031zM284.87378,257.7886c-3.00227,-1.27017 -5.87206,-2.50637 -8.82445,-3.69303c-0.79576,-0.20535 -1.6416,-0.49455 -1.86004,-1.61188c0.82531,-1.06029 2.03308,-1.66797 3.10817,-2.30997c0.4962,-0.2963 1.0268,-0.15924 1.55731,-0.02234c1.47619,0.59333 3.03509,1.13727 4.51129,1.7306c1.65875,0.71116 3.41745,1.5897 5.0762,2.30086c0.84574,0.28904 1.69157,0.57825 2.53731,0.86729c0.81142,-0.14416 1.39032,-0.48985 1.81938,-1.08645c-0.29966,-0.50182 -0.88014,-0.72241 -1.32795,-0.9087c-2.95239,-1.18665 -5.77221,-2.33916 -8.6419,-3.57519c-0.76304,-0.33842 -1.5589,-0.54393 -1.86014,-1.61203c0.77553,-1.14364 2.11587,-1.71719 3.27366,-2.40857c0.57889,-0.34569 1.07668,-0.07572 1.60729,0.06135c1.5589,0.54394 3.11779,1.08788 4.69384,1.84843c2.15653,0.98113 4.36304,2.04597 6.6351,2.84481c0.92844,0.23966 1.60728,0.06135 2.15177,-0.71771c-0.00158,-0.56629 -0.48222,-0.61966 -0.79744,-0.7718c-2.91957,-1.31956 -5.97191,-2.67359 -8.89148,-3.99315c-0.76314,-0.33859 -1.60887,-0.62763 -2.07553,-1.59697c0.70839,-1.44393 2.04874,-2.01749 3.47178,-2.64042c0.54617,-0.21261 1.09383,0.14089 1.62444,0.27795c2.35476,0.74945 4.42859,1.77997 6.6351,2.84481c1.75861,0.87838 3.6,1.70754 5.49129,2.62023c1.85211,-1.21952 3.57165,-2.47319 5.34115,-3.64317c0.08102,-0.61583 -0.49947,-0.83642 -0.8146,-0.9884c-1.84141,-0.82917 -3.71553,-1.52524 -5.55683,-2.35423c-1.34362,-0.55919 -2.68714,-1.1182 -4.03076,-1.67738c-0.58049,-0.2206 -1.12814,-0.57409 -1.36226,-1.34191c0.67557,-1.31103 2.01591,-1.88457 3.30639,-2.54165c0.4135,-0.24692 0.91128,0.02306 1.3092,0.12582c1.6416,0.49455 3.25037,1.12203 4.77654,1.79904c2.52174,1.21697 4.96077,2.48332 7.74608,3.20229c0.62887,-0.262 1.17504,-0.47461 1.55413,-1.1549c-0.29956,-0.50165 -0.74747,-0.68811 -1.24525,-0.95808c-1.97398,-0.8633 -3.89807,-1.64307 -5.82208,-2.42268c-1.16096,-0.44118 -2.37192,-0.96606 -3.45018,-1.45663c-0.44791,-0.18645 -0.76313,-0.33859 -1.04554,-0.62364c-0.18255,-0.11784 -0.33238,-0.36874 -0.48221,-0.61965c0.70829,-1.44411 2.18132,-1.98334 3.5045,-2.77348c2.10507,0.33132 4.02908,1.11094 5.92045,2.02379c2.52164,1.2168 5.04338,2.43377 7.74609,3.20229c1.75384,-0.82046 5.16018,-3.19471 6.36626,-4.36884c-0.03431,-0.4332 -0.43225,-0.53597 -0.74748,-0.68811c-2.23924,-0.93175 -4.61113,-1.89781 -6.85047,-2.82973c-0.89571,-0.37273 -1.79143,-0.74548 -2.73702,-1.20173c-0.58049,-0.2206 -0.99557,-0.53995 -1.17981,-1.22423c0.67557,-1.31103 2.01601,-1.88441 3.30639,-2.54164c0.4135,-0.24692 0.91128,0.02305 1.30921,0.12581c1.50902,0.46041 2.98522,1.05374 4.51129,1.7306c1.84141,0.82917 3.55013,1.62401 5.34145,2.36931c0.49789,0.27014 1.16106,0.44135 1.74155,0.66194c1.02829,0.40688 1.7227,-0.12111 2.25003,-1.11677c-1.82573,-1.17868 -3.91524,-1.85968 -5.88922,-2.72297c-1.97398,-0.8633 -4.09621,-1.41123 -5.85649,-2.85606c0.82382,-1.62641 2.16416,-2.19994 3.58731,-2.8227c0.38068,-0.11401 0.96116,0.10659 1.35908,0.20934c1.50902,0.46041 2.98521,1.05374 4.51129,1.73059c1.70873,0.79485 3.36747,1.50602 5.0762,2.30086c0.58049,0.2206 1.16107,0.44136 1.74155,0.66194c0.94559,0.45625 1.65717,0.14488 2.20165,-0.63419c-0.00158,-0.56629 -0.3667,-0.80195 -0.8146,-0.9884c-1.97398,-0.8633 -3.89798,-1.6429 -5.82208,-2.42268c-1.34353,-0.55902 -2.63717,-1.03452 -3.89798,-1.64291c-0.71316,-0.2549 -0.71316,-0.2549 -1.32963,-1.47514c0.79268,-0.92705 1.96762,-1.40182 2.99274,-2.1275c0.57889,-0.34569 1.1922,-0.258 1.77269,-0.03741c1.6416,0.49455 3.25047,1.12218 4.77654,1.79904c2.52174,1.21697 5.04348,2.43393 7.87886,3.23677c2.25004,-1.11676 4.28312,-2.78473 6.33344,-4.23594c-0.31681,-0.71842 -0.84732,-0.85532 -1.3451,-1.1253c-1.97408,-0.86347 -3.89808,-1.64307 -5.82219,-2.42285c-1.16096,-0.44118 -2.37191,-0.96606 -3.45017,-1.45663c-0.49779,-0.26997 -1.12825,-0.57426 -1.36236,-1.34206c0.67567,-1.31087 2.01601,-1.88441 3.30639,-2.54164c0.4135,-0.24692 0.91128,0.02305 1.30921,0.12581c1.6416,0.49455 3.20049,1.0385 4.77663,1.79921c2.47176,1.13328 4.96068,2.48315 7.74609,3.2023c0.54617,-0.21261 1.22492,-0.39109 1.60411,-1.07122c-0.29966,-0.50182 -0.74746,-0.6881 -1.24535,-0.95825c-1.97398,-0.8633 -3.89798,-1.64291 -5.82209,-2.42269c-1.16096,-0.44118 -2.3719,-0.96605 -3.45017,-1.45662c-0.58049,-0.2206 -1.12825,-0.57426 -1.44506,-1.29268c0.70839,-1.44393 2.04874,-2.01748 3.47179,-2.64041c0.38078,-0.11385 0.96125,0.10674 1.35919,0.2095c1.67432,0.36148 3.2005,1.0385 4.77654,1.79904c2.52174,1.21697 5.04348,2.43393 7.87876,3.2366c1.48859,-0.88891 3.00999,-1.91074 4.53131,-2.93272c-0.15141,-0.81719 -0.7319,-1.03777 -1.31238,-1.25837c-1.924,-0.77961 -3.79813,-1.47569 -5.63953,-2.30485c-1.34353,-0.55902 -2.63716,-1.03451 -3.89798,-1.64291c-0.49789,-0.27014 -1.12824,-0.57426 -1.19696,-1.44083c0.8254,-1.06012 2.16575,-1.63366 3.32354,-2.32504c0.4962,-0.2963 1.07667,-0.07572 1.52458,0.11073c1.5589,0.54394 3.03509,1.13726 4.56117,1.81412c2.68714,1.1182 5.17616,2.46825 8.01144,3.27092c0.59605,-0.12909 1.04237,-0.50892 1.48859,-0.88891c-0.01716,-0.2166 -0.03431,-0.43321 -0.08429,-0.5169c-0.38236,-0.45243 -0.91287,-0.58934 -1.41065,-0.85931c-2.95239,-1.18665 -5.7722,-2.33916 -8.6419,-3.57519c-0.76304,-0.33842 -1.5589,-0.54394 -1.86014,-1.61204c0.77553,-1.14364 2.11588,-1.71718 3.27367,-2.40856c0.4962,-0.2963 1.07667,-0.07571 1.52449,0.11057c1.5589,0.54394 3.03519,1.13743 4.56126,1.81429c2.63716,1.03451 5.17606,2.46807 7.96146,3.18722c0.51345,-0.07954 1.00964,-0.37584 1.27332,-0.87367c-0.05156,-0.64998 -0.59933,-1.00364 -1.17981,-1.22423c-1.79143,-0.74547 -3.58276,-1.49077 -5.37417,-2.23624c-1.29364,-0.4755 -2.55457,-1.08406 -3.84811,-1.55939c-0.71316,-0.2549 -1.26092,-0.60857 -1.54492,-1.4599c0.64275,-1.17811 1.98319,-1.7515 3.14099,-2.44288c0.57889,-0.34569 1.07667,-0.07571 1.60718,0.06119c1.6416,0.49455 3.2005,1.0385 4.77654,1.79904c2.47186,1.13344 5.04348,2.43393 7.82889,3.15308c1.10781,-0.77507 2.34831,-1.51583 3.52176,-2.55672c-0.4495,-0.75273 -1.2625,-1.17485 -1.94284,-1.56266c-5.31033,-3.06867 -10.65346,-6.00442 -16.04648,-9.0237c-2.66353,1.36369 -4.89483,3.26333 -7.27586,4.91224c-2.62922,1.7969 -5.29117,3.72685 -7.87052,5.60727c-4.59676,3.19888 -9.14363,6.48129 -13.74038,9.68016c-2.96002,1.99443 -6.00274,4.03823 -8.91279,6.11635c-4.84495,3.34686 -9.55723,6.72803 -14.40208,10.07506c-2.91004,2.07812 -5.78737,4.02316 -8.74739,6.01759c-2.46383,1.69813 -4.87767,3.47993 -7.3414,5.17822c-2.66204,1.92981 -5.45658,3.82563 -8.1685,5.6719c-3.29082,2.19196 -6.44896,4.41824 -9.68981,6.69389c-5.20847,3.67747 -10.41694,7.35495 -15.62541,11.03242c-4.46418,3.23301 -8.89553,6.33313 -13.40968,9.48245c-3.15814,2.22627 -6.36626,4.36885 -9.52441,6.59512c-1.02511,0.72568 -2.1002,1.36767 -2.97559,2.3441c0.34954,0.58535 0.84743,0.85549 1.37793,0.99239c3.84652,0.9931 7.41381,2.83372 11.11207,4.1422c1.37634,0.42611 2.80256,0.93574 4.14608,1.49476c0.84584,0.2892 1.54174,0.32734 2.1362,-0.36802c0.56174,-0.56229 1.22333,-0.95736 1.75226,-1.38674c-0.16699,-0.46751 -0.53209,-0.70318 -0.84732,-0.85532c-1.924,-0.77961 -3.79813,-1.47569 -5.63953,-2.30484c-1.34353,-0.55902 -2.63716,-1.03451 -3.89798,-1.64291c-0.49789,-0.27014 -1.07837,-0.49073 -1.27967,-1.39144c0.8254,-1.06012 2.11578,-1.71735 3.40624,-2.37442c0.4135,-0.24692 0.8613,-0.06064 1.30921,0.12581c1.42621,0.50964 2.93524,0.97005 4.32873,1.61276c2.65432,1.25111 5.30873,2.50239 8.32656,3.42289c0.67885,-0.1783 1.37316,-0.70646 2.01761,-1.31813c-0.21697,-0.5512 -0.61489,-0.65396 -0.93013,-0.8061c-2.18926,-0.84806 -4.42858,-1.77997 -6.66782,-2.71173c-1.16096,-0.44118 -2.37191,-0.96605 -3.45018,-1.45662c-0.58049,-0.2206 -0.63045,-0.30429 -1.27966,-1.39146c0.8254,-1.06012 2.16576,-1.63366 3.32354,-2.32504c0.4962,-0.2963 1.07667,-0.07571 1.52459,0.11074c1.5589,0.54394 3.11779,1.08788 4.56116,1.81411c2.25649,1.14851 4.66112,1.9815 7.03303,2.94757c0.89571,0.37273 1.62444,0.27795 2.40156,-0.29941c0.85972,-0.62691 1.8521,-1.21953 2.71183,-1.84645c-0.26684,-0.63473 -0.58207,-0.78687 -0.25127,-0.9844zM373.68142,171.28943c1.20936,-0.0414 2.1018,-0.80139 2.82893,-1.46245c1.86777,-1.56904 3.95241,-2.58704 5.92004,-3.98885c0.2481,-0.14816 0.49619,-0.2963 0.90969,-0.54322c-0.85219,-2.55432 -2.08504,-4.99465 -3.10263,-7.45021c-1.06746,-2.53909 -1.91966,-5.09341 -2.95439,-7.76557c-1.12507,0.5583 -2.00194,0.96861 -2.82893,1.46246c-3.47337,2.07413 -6.74704,4.4827 -10.0206,6.89142c-0.61171,0.4786 -1.35601,0.92305 -2.1003,1.36751c-2.5137,1.61459 -4.96038,3.52932 -7.5068,5.277c-1.88493,1.35244 -3.81973,2.62134 -5.70466,3.97378c-3.43906,2.50733 -6.928,4.93114 -10.49965,7.40433c-3.29082,2.19196 -6.61436,4.51701 -9.80522,6.87635c-2.46383,1.69813 -5.12736,3.0618 -7.3415,5.17806c-0.16539,0.09877 -0.24809,0.14815 -0.4135,0.24692c-3.12542,2.0932 -6.16815,4.13701 -9.21077,6.18098c-2.46383,1.69813 -4.96037,3.52932 -7.45692,5.36052c-0.16539,0.09877 -0.24809,0.14815 -0.4135,0.24692c-3.04272,2.04381 -6.21812,4.05333 -9.21087,6.18082c-2.29843,1.59936 -4.46418,3.23301 -6.76251,4.83253c-0.28092,0.28107 -0.52902,0.42921 -0.77712,0.57737c-3.29082,2.19196 -6.63152,4.3004 -9.73968,6.61036c-1.66965,1.33719 -3.58889,2.25642 -5.10861,3.84469c-0.11552,0.1823 -0.36362,0.33044 -0.52902,0.42921c-2.54642,1.74768 -5.14292,3.41149 -7.63947,5.24269c-2.24845,1.68305 -4.62958,3.33179 -6.92801,4.93114c-3.37342,2.24151 -6.64709,4.65008 -9.97062,6.97512c-3.57164,2.47319 -7.12612,5.16299 -10.79762,7.46896c-2.7619,1.76258 -5.32399,3.85977 -7.98593,5.78974c-2.49655,1.8312 -5.0758,3.71178 -7.52247,5.6265c-0.28082,0.28122 -0.56164,0.56245 -0.87528,0.9766c0.56809,1.70283 0.97078,3.50442 1.75425,5.19218c0.73348,1.60406 1.21888,3.35627 1.95238,4.96033c0.78346,1.68775 1.18615,3.48935 2.1849,5.16186c1.05953,-0.29232 1.78666,-0.95338 2.56368,-1.5309c1.83504,-1.43596 3.80259,-2.83795 5.58766,-4.3576c1.66955,-1.33735 3.52166,-2.55688 5.29116,-3.72686c0.57889,-0.34569 1.05794,-0.85858 1.61958,-1.42105c-0.06872,-0.86657 -0.48539,-1.75222 -0.76938,-2.60355c-0.55093,-1.48623 -1.10187,-2.97245 -1.52013,-4.42438c-0.25137,-0.98458 -0.10471,-1.86622 0.755,-2.49315c0.36362,-0.33045 0.59456,-0.6952 1.00806,-0.94212c1.65398,-0.98768 3.20802,-2.14274 4.76215,-3.29765c3.07544,-2.17688 6.21801,-4.05348 9.16088,-6.26451c2.36387,-1.86551 4.97753,-3.31272 7.3414,-5.17822c1.75236,-1.38658 3.65444,-2.5224 5.45657,-3.82562c2.62922,-1.7969 5.20847,-3.67747 7.65514,-5.5922c0.16539,-0.09877 0.24809,-0.14815 0.4135,-0.24692c3.12542,-2.0932 6.21802,-4.05348 9.16079,-6.26468c2.08315,-1.58412 4.41588,-2.75026 6.34911,-4.58545c0.3308,-0.19753 0.57889,-0.34569 0.827,-0.49385c3.10985,-1.74352 5.92004,-3.98885 8.74739,-6.01758c2.41385,-1.78182 5.29276,-3.16057 7.50679,-5.27699c0.28092,-0.28107 0.52902,-0.42922 0.77712,-0.57737c2.96002,-1.99443 5.96992,-3.90532 8.74739,-6.01758c2.08306,-1.58427 4.46577,-2.66674 6.34901,-4.58562c0.16539,-0.09877 0.41349,-0.24692 0.57889,-0.34569c2.96002,-1.99443 6.05262,-3.95472 8.96276,-6.03267c4.43135,-3.1001 8.73013,-6.23436 13.16149,-9.33446c2.46383,-1.69813 4.89493,-3.26318 7.22608,-4.9956c2.28117,-1.81612 4.86211,-3.13026 7.04342,-5.1136c0.16539,-0.09877 0.24809,-0.14815 0.4135,-0.24692c2.62922,-1.7969 5.17564,-3.54456 7.80488,-5.34145c0.3308,-0.19753 0.66159,-0.39507 1.07509,-0.64199c1.71349,2.49369 2.11946,5.42801 3.60042,7.72018zM369.84412,167.68152c-1.60411,1.07121 -3.29082,2.19196 -4.89484,3.26333c-2.49665,1.83104 -4.99319,3.66223 -7.53962,5.4099c-4.34876,3.05055 -8.74739,6.01758 -13.09615,9.06814c-4.18326,2.95196 -8.28391,5.85436 -12.46717,8.80632c-2.29843,1.59936 -4.67955,3.24808 -6.97798,4.84745c-4.87758,3.4801 -9.75525,6.96004 -14.6829,10.35629c-2.46383,1.69813 -4.92755,3.39641 -7.39138,5.09453c-4.26606,3.00117 -8.53202,6.00251 -12.79808,9.00369c-2.21572,1.54997 -4.43136,3.10011 -6.64709,4.65007c-4.79498,3.43056 -9.50725,6.81173 -14.35211,10.15875c-4.18335,2.95178 -8.49929,5.86945 -12.68264,8.82123c-4.18326,2.95196 -8.44932,5.95313 -12.63257,8.90508c-0.16539,0.09877 -0.28091,0.28107 -0.56174,0.56229c0.7679,2.03743 1.3703,4.17346 2.40345,6.27934c1.37316,-0.70646 2.48098,-1.48152 3.58879,-2.25658c3.24094,-2.27549 6.56449,-4.60053 9.80532,-6.87618c5.70467,-3.97378 11.44205,-8.08063 17.09675,-12.1381c4.96037,-3.52932 9.97073,-6.97496 14.9311,-10.50427c5.70467,-3.97378 11.32663,-7.89817 17.0312,-11.87211c2.66204,-1.92981 5.45658,-3.82563 8.1685,-5.6719c4.43146,-3.09994 8.78011,-6.15066 13.21157,-9.25061c2.62913,-1.79706 5.17564,-3.54456 7.80488,-5.34145c3.40624,-2.37442 6.89518,-4.79823 10.38412,-7.22203c5.70467,-3.97378 11.32664,-7.89817 17.03131,-11.87195c2.29843,-1.59936 4.51415,-3.14932 6.81248,-4.74885c0.52902,-0.42921 1.00806,-0.94213 1.61968,-1.42089c-1.57923,-1.8931 -1.83376,-4.01024 -3.1649,-6.05149zM437.2327,193.9218c-1.16741,-2.70647 -2.33474,-5.41278 -3.50214,-8.11924c-0.65079,-1.65345 -1.94603,-2.69521 -3.37383,-3.77113c-4.41619,-3.26222 -9.26156,-5.92799 -13.79317,-9.00775c-2.42347,-1.61603 -4.96237,-3.0496 -7.55124,-4.56686c-6.58829,-3.89367 -13.06127,-7.96997 -19.50132,-12.17901c-2.7387,-1.76817 -5.51013,-3.40327 -8.24873,-5.17127c-0.26535,-0.06862 -0.58048,-0.2206 -1.02839,-0.40704c0.01874,0.78289 0.10303,1.29977 0.31998,1.85098c1.28443,3.09029 2.78422,6.16551 3.77058,9.32025c0.6852,2.08682 2.03031,3.2121 3.78901,4.09066c8.44527,4.37315 16.26335,9.57475 24.36225,14.49512c7.78367,4.76823 15.51747,9.45292 23.61478,13.80701c0.31523,0.15214 0.71316,0.2549 1.21094,0.52487c0.09827,-0.39906 0.13099,-0.53214 -0.06872,-0.86657z" data-paper-data="{&quot;index&quot;:null}" fill="#000000"/><path d="M431.39259,202.74136c-5.55642,3.65841 -11.03015,7.26744 -16.63655,10.84215c-7.872,5.04116 -15.51159,10.28368 -23.23376,15.57575c-3.29082,2.19196 -6.49884,4.3347 -9.78966,6.52667c-5.67194,3.8407 -11.37661,7.81448 -17.13116,11.70473c-3.53892,2.34012 -7.07783,4.68024 -10.56677,7.10403c-7.14328,4.94639 -14.28656,9.89276 -21.47982,14.75545c-3.95241,2.58704 -7.82213,5.12469 -11.77454,7.71172c-4.56403,3.0658 -9.09525,5.99869 -13.65938,9.06433c-4.81213,3.21395 -9.62426,6.42789 -14.48637,9.55816c-1.68671,1.12076 -3.22369,2.49226 -5.11011,3.27858c-0.97841,-0.32335 -2.03952,-0.59731 -3.06791,-1.00435c-6.88319,-2.69665 -13.78195,-5.04363 -20.8134,-7.42491c-9.96668,-3.35133 -19.91769,-7.05217 -29.7034,-10.85195c-1.87413,-0.69608 -3.71543,-1.52507 -5.50686,-2.27054c-0.00158,-0.56629 0.27924,-0.84751 0.61003,-1.04505c3.27367,-2.40856 6.49735,-4.90082 9.77091,-7.30955c3.02556,-2.26041 3.02557,-2.26042 6.72384,-0.95194c5.78777,1.98948 11.39448,4.42724 17.21498,6.28365c1.6416,0.49455 2.81813,0.58607 4.12416,-0.42068c0.28092,-0.28107 0.61171,-0.4786 0.94252,-0.67613c3.57164,-2.47319 7.176,-5.07945 10.79762,-7.46896c4.97753,-3.31272 10.1377,-6.50743 15.11524,-9.82015c5.39103,-3.55964 10.78205,-7.11929 16.17308,-10.67893c3.62161,-2.3895 7.16053,-4.72961 10.73217,-7.2028c2.71192,-1.84627 5.50645,-3.7421 8.21837,-5.58837c4.61401,-2.98211 9.14532,-5.91483 13.70935,-8.98064c4.11781,-2.68581 8.18565,-5.4553 12.25349,-8.22479c3.62161,-2.3895 7.0107,-4.98053 10.6822,-7.2865c5.441,-3.47595 10.64947,-7.15342 15.90782,-10.74737c4.26606,-3.00117 8.48213,-6.08603 12.74809,-9.08738c0.44622,-0.37999 0.89254,-0.75983 1.2389,-1.30704c0.37919,-0.68013 0.32761,-1.3301 -0.32,-1.85099c-0.46506,-0.40306 -1.01281,-0.75672 -1.47777,-1.15961c-1.66044,-1.2776 -3.66714,-2.00782 -5.443,-3.10298c-3.86685,-2.34227 -7.53557,-4.91637 -11.51794,-7.07635c-0.31523,-0.15214 -0.54776,-0.35366 -0.53209,-0.70318c2.1485,-1.85042 7.70501,-5.50867 9.26063,-6.09746c2.67157,1.46788 5.47572,2.9699 8.24714,4.605c4.91249,2.96608 9.79207,6.06489 14.70446,9.03081c3.86694,2.34243 7.68381,4.60101 11.55076,6.94344c5.04507,3.00022 10.09004,6.00027 15.33323,8.76864c0.94569,0.45643 2.05678,0.81409 2.95408,1.7531c-2.38113,1.64874 -4.59686,3.1987 -6.76261,4.83237zM368.52311,228.03133c-3.61716,-1.92414 -7.26715,-3.71537 -10.73607,-5.95487c-0.54777,-0.35367 -1.17821,-0.65796 -1.69316,-1.14453c-0.6975,-0.60441 -1.34352,-0.55901 -2.08782,-0.11456c-0.99239,0.59261 -2.06748,1.2346 -3.0927,1.96012c-0.4962,0.2963 -1.02511,0.72568 -1.52132,1.02199c-5.88722,3.85594 -11.95709,7.59389 -17.79434,11.53352c-4.53131,2.93272 -8.97991,5.81606 -13.26144,9.16708c-2.94287,2.21103 -5.93562,4.33854 -8.92836,6.46603c-0.61171,0.4786 -1.356,0.92306 -1.60242,1.63766c-0.11393,0.74858 0.38385,1.01855 0.74906,1.25438c1.62761,1.41051 3.68429,2.22442 5.54285,3.27019c2.90401,1.66923 5.8908,3.28926 8.9602,4.85973c2.67157,1.46788 5.50854,2.83699 8.32826,3.98934c0.64603,-0.0454 1.17494,-0.47478 1.67114,-0.77108c4.11781,-2.68581 8.28551,-5.28808 12.40332,-7.97389c4.44861,-2.88334 8.97992,-5.81606 13.51123,-8.74879c3.45612,-2.2909 6.91234,-4.58162 10.36856,-6.87235c2.29843,-1.59936 4.614,-2.98211 6.9623,-4.49794c0.69432,-0.52815 1.30604,-1.00675 2.00036,-1.5349c0.4135,-0.24692 0.46188,-0.72951 0.41032,-1.37949c-3.36907,-2.07229 -6.75538,-4.36135 -10.18998,-6.16765zM256.97614,276.26294c-4.27876,-1.52907 -8.34382,-3.63965 -12.55703,-5.43471c-1.26092,-0.60857 -2.15505,-0.41502 -3.13019,0.39436c-0.80984,0.71045 -1.71954,1.25367 -2.57934,1.88042c-0.77702,0.57753 -1.47133,1.10567 -1.75066,1.95302c0.18423,0.68428 0.76472,0.90487 1.21253,1.09115c4.24603,1.66215 8.49206,3.32429 12.7381,4.98643c1.47619,0.59333 2.81812,0.58606 4.07419,-0.50438c1.00806,-0.94213 2.24854,-1.68288 3.35636,-2.45795c0.2481,-0.14816 0.44622,-0.37999 0.44464,-0.94628c-0.43224,-0.53597 -1.14539,-0.79087 -1.80858,-0.96208zM293.12092,262.3936c-1.18893,1.39074 -0.96878,3.0745 0.4263,4.28348c2.40781,1.96555 7.25751,0.31752 7.9783,-2.60866c0.55688,-2.2613 -1.25488,-4.35592 -3.62361,-4.18943c-0.9441,0.10986 -1.9708,0.26926 -2.83052,0.89617c-0.71157,0.31138 -1.35601,0.92305 -1.95047,1.61842zM301.76758,267.66764c-0.74271,1.01073 -0.73953,2.14329 -0.09033,3.23046c0.6492,1.08716 2.22535,1.84787 3.41745,1.58971c1.65558,-0.42141 3.2113,-1.01002 4.26765,-2.43489c0.11543,-0.18246 0.31354,-0.4143 0.46178,-0.72968c0.83939,-1.97608 -0.12663,-3.78167 -2.28158,-4.19652c-1.14381,-0.22458 -2.76666,0.06374 -4.00715,0.8045c-0.79418,0.36093 -1.25606,1.09044 -1.76782,1.73643zM272.98662,284.287c1.27322,-0.87383 1.98161,-2.31777 1.63039,-3.46957c-0.51811,-1.61914 -2.21128,-2.76367 -3.96671,-2.50949c-1.80541,0.17049 -3.11144,1.17723 -4.00239,2.50335c-1.35274,2.05578 -0.21974,4.32889 2.1506,4.72866c1.09384,0.14089 2.36873,-0.16651 3.69192,-0.95664c0.16539,-0.09877 0.33079,-0.19753 0.4962,-0.2963zM280.11234,273.11137c-0.29481,1.19718 0.02202,1.91561 1.06746,2.53909c2.45629,1.48312 6.37905,0.16155 7.38225,-2.47957c0.69115,-1.66071 -0.02519,-3.04817 -1.71666,-3.62626c-1.5589,-0.54394 -3.01635,-0.35438 -4.32239,0.65237c-1.34035,0.57354 -2.03307,1.66797 -2.41067,2.91438zM291.33579,287.39738c-1.98955,-0.51362 -4.45496,0.61822 -5.52679,2.39294c-0.98922,1.72517 -0.10589,3.58014 1.80095,4.14315c1.82415,0.61239 5.33193,-1.02837 6.04023,-2.47248c0.49461,-0.86259 0.42589,-1.72915 -0.22331,-2.81632c-0.39952,-0.66903 -1.24525,-0.95808 -2.09109,-1.24728zM275.22903,286.35131c-0.56005,1.12874 -0.24165,2.41343 0.80389,3.03708c3.18651,1.95445 7.22311,-0.11585 7.72853,-3.02695c0.27764,-1.41379 -0.78664,-2.82032 -2.14573,-3.02965c-1.2265,-0.1752 -3.23014,0.22697 -4.63603,1.0665c-0.57889,0.34569 -1.35591,0.92322 -1.75066,1.95303zM310.63121,273.49288c-0.49302,1.42886 0.17334,2.73263 1.51686,3.29165c0.58049,0.2206 1.24376,0.39196 1.83981,0.26287c1.32478,-0.22386 2.58242,-0.74802 3.72306,-1.65601c0.44622,-0.37999 0.79258,-0.92721 1.00637,-1.50857c0.77226,-2.27637 -0.95681,-4.42038 -3.3411,-3.9042c-1.0268,0.15924 -1.85379,0.65308 -2.86334,1.02908c-0.72713,0.66106 -1.48701,1.4552 -1.88166,2.48516zM297.41806,282.1772c-0.41032,1.37948 -0.02637,2.39819 1.28443,3.09029c0.31523,0.15214 0.76304,0.33842 1.111,0.35749c1.73996,0.09566 3.39554,-0.32574 4.68431,-1.54926c0.47904,-0.5129 0.7427,-1.01073 0.95649,-1.59209c0.47576,-1.64563 0.04194,-2.74787 -1.56693,-3.37551c-1.47619,-0.59333 -2.85094,-0.45315 -4.04146,0.37129c-1.20777,0.60769 -2.01751,1.31829 -2.42782,2.69777zM296.99335,278.46c0.92368,-1.45918 0.27288,-3.11263 -1.336,-3.74026c-2.18926,-0.84806 -5.01988,0.04795 -6.33979,1.97082c-1.28729,1.78962 -0.51939,3.82706 1.60283,4.37499c1.59162,0.41086 2.9164,0.187 4.18971,-0.68666c0.82699,-0.49383 1.47134,-1.10569 1.88325,-1.91888zM368.44763,218.887c2.06748,-1.2346 4.05227,-2.41982 6.0199,-3.82163c0.69432,-0.52815 1.45586,-0.75583 2.05033,-1.45121c0.47894,-0.51308 0.66,-0.96136 0.39307,-1.59625c-0.76304,-0.33842 -1.42463,0.05665 -2.00352,0.40234c-2.56368,1.5309 -4.99468,3.09612 -7.32594,4.82838c-0.61161,0.47876 -1.22324,0.95753 -1.10465,1.90763c0.73032,0.4715 1.35919,0.2095 1.97081,-0.26925zM394.50428,205.59614c-2.56368,1.5309 -4.99468,3.09612 -7.32584,4.82855c-0.61161,0.47876 -1.22333,0.95736 -1.10464,1.90763c0.73032,0.4715 1.35909,0.20934 1.93798,-0.13635c2.06748,-1.2346 4.05227,-2.41981 6.0199,-3.82163c0.69432,-0.52815 1.45586,-0.75583 2.05033,-1.45121c0.47904,-0.5129 0.66,-0.96135 0.39307,-1.59624c-0.76304,-0.33842 -1.39191,-0.07644 -1.97081,0.26925zM415.52588,198.71557c-2.44657,1.91489 -5.1928,3.32796 -7.45692,5.36052c-0.44622,0.37999 -0.80974,0.71061 -0.67557,1.31103c0.24969,0.41813 0.63046,0.30427 1.06111,0.27397c0.64603,-0.0454 1.17494,-0.47478 1.67114,-0.77108c2.13303,-1.50058 4.34876,-3.05055 6.61436,-4.517c0.4962,-0.2963 0.89254,-0.75983 1.2389,-1.30704c0.23095,-0.36476 0.11393,-0.74858 -0.21855,-1.11749c-0.8613,0.06064 -1.67273,0.2048 -2.23447,0.76709zM389.55917,202.76331c-2.36397,1.86534 -5.02751,3.22903 -7.29152,5.26176c-0.44622,0.37999 -0.94241,0.67631 -0.7084,1.44395c0.38236,0.45243 0.92853,0.23982 1.30921,0.12581c0.71157,-0.31138 1.42315,-0.62277 2.03476,-1.10153c1.66955,-1.33735 3.57164,-2.47319 5.34115,-3.64316c0.69432,-0.52815 1.43862,-0.9726 1.9004,-1.70228c0.23095,-0.36476 0.32922,-0.76382 -0.10303,-1.29978c-0.8613,0.06064 -1.67273,0.2048 -2.48258,0.91523zM372.82635,220.58344c-0.28092,0.28107 -0.64444,0.61167 -0.8254,1.06012c-0.14825,0.31537 -0.08111,0.61567 0.15141,0.81719c0.18255,0.11784 0.49779,0.26998 0.66318,0.17121c0.38068,-0.11401 0.84414,-0.27723 1.20766,-0.60785c1.91775,-1.48535 3.85256,-2.75426 5.87007,-4.07255c0.85982,-0.62676 1.66955,-1.33735 2.24686,-2.24933c0.19823,-0.23168 0.21379,-0.58136 0.06396,-0.83226c-0.14983,-0.2509 -0.54776,-0.35367 -0.79586,-0.20551c-0.4962,0.2963 -0.95957,0.4597 -1.53847,0.80539c-2.29843,1.59936 -4.62957,3.33178 -7.04342,5.1136zM420.29013,201.99701c-1.07509,0.64199 -2.06749,1.2346 -3.09271,1.96013c-1.35592,0.92321 -2.79452,1.89582 -4.10055,2.90257c-0.52902,0.42921 -0.97524,0.80921 -1.37158,1.27273c-0.19813,0.23185 -0.34636,0.54722 -0.14656,0.88182c0.19971,0.33444 0.54766,0.35351 0.84574,0.28905c0.38078,-0.11385 0.76146,-0.22785 1.09225,-0.42539c2.6792,-1.7132 5.39102,-3.55963 8.02025,-5.35653c0.4962,-0.2963 0.89254,-0.75982 0.82382,-1.6264c-0.73032,-0.4715 -1.44188,-0.16013 -2.07066,0.10203zM400.99123,208.75648c-1.07509,0.64199 -2.06749,1.2346 -3.09271,1.96013c-1.43861,0.9726 -2.82735,2.02872 -4.21598,3.08502c-0.44632,0.37983 -0.84266,0.84336 -1.2389,1.30705c-0.03282,0.13291 -0.04839,0.48258 0.05147,0.64981c0.04998,0.08369 0.3652,0.23583 0.58048,0.2206c0.56333,0.00399 0.97682,-0.24293 1.47302,-0.53923c1.07509,-0.64199 2.23288,-1.33337 3.2581,-2.05889c1.40589,-0.83953 2.62912,-1.79706 3.98514,-2.72011c0.69432,-0.52815 1.38874,-1.05612 1.43544,-2.10516c-0.91287,-0.58934 -1.49176,-0.24365 -2.23605,0.20081zM404.86935,191.57875c-1.07509,0.64199 -2.06748,1.2346 -3.0927,1.96012c-1.38863,1.0563 -2.82735,2.02873 -4.21598,3.08503c-0.36362,0.33045 -0.75995,0.79397 -1.12349,1.12458c-0.19813,0.23185 -0.34636,0.54722 -0.14666,0.88165c0.19981,0.3346 0.54776,0.35367 0.84583,0.28921c0.46338,-0.16339 1.00954,-0.37601 1.42305,-0.62293c1.40589,-0.83953 2.8445,-1.81213 4.15054,-2.81888c0.97524,-0.80922 2.01751,-1.3183 3.04272,-2.04381c0.82699,-0.49383 0.77702,-0.57753 1.32001,-1.9227c-0.86299,-0.5058 -1.44189,-0.16012 -2.20333,0.06773zM403.09273,201.94261c1.32319,-0.79015 2.64637,-1.5803 3.91958,-2.45412c1.2405,-0.74076 2.46383,-1.69813 3.73704,-2.57196c0.85972,-0.62691 0.85972,-0.62692 1.45259,-1.88856c-0.21687,-0.55104 -0.64751,-0.52072 -1.11099,-0.35749c-0.54617,0.21261 -1.04237,0.50892 -1.45587,0.75584c-2.21562,1.55013 -4.51405,3.14949 -6.72978,4.69946c-0.66159,0.39507 -1.27322,0.87383 -1.50257,1.80487c0.66477,0.73749 1.29365,0.47549 1.68999,0.01197zM384.49571,228.47698c2.29833,-1.59952 4.67945,-3.24826 6.97788,-4.84762c0.61161,-0.47876 1.17336,-1.04105 1.55255,-1.72118c0.23085,-0.36492 0.11383,-0.74875 -0.16868,-1.03395c-0.61321,-0.08751 -1.10939,0.20878 -1.52289,0.45571c-2.46383,1.69813 -4.92765,3.39625 -7.34151,5.17807c-0.44622,0.37999 -0.75987,0.79413 -1.07351,1.20827c-0.39624,0.46369 -0.14656,0.88181 0.26853,1.20118c0.53051,0.1369 0.99398,-0.02632 1.30762,-0.44046zM399.24574,218.42099c2.18291,-1.41706 4.36591,-2.83395 6.54882,-4.25101c0.74429,-0.44446 1.27321,-0.87383 1.60242,-1.63764c0.14825,-0.31537 0.16381,-0.66506 -0.15142,-0.8172c-0.18255,-0.11784 -0.49779,-0.26997 -0.66318,-0.17121c-0.38068,0.11401 -0.84414,0.27723 -1.25764,0.52416c-2.18291,1.41706 -4.41579,2.75043 -6.59879,4.16732c-0.66159,0.39507 -1.22334,0.95736 -1.6524,1.55397c-0.19813,0.23185 -0.21368,0.58152 -0.0467,1.04903c0.87856,0.15613 1.50734,-0.10604 2.21891,-0.41741zM379.46621,225.12709c2.03308,-1.66797 4.44861,-2.88335 6.71422,-4.34979c0.61161,-0.47876 1.27321,-0.87384 1.46984,-1.67179c0.03273,-0.13308 -0.0344,-0.43337 -0.13426,-0.60059c-0.09986,-0.16722 -0.36511,-0.23567 -0.58049,-0.2206c-0.46348,0.16323 -0.84414,0.27723 -1.25764,0.52416c-2.2657,1.46628 -4.49859,2.79965 -6.7642,4.2661c-0.77702,0.57753 -1.63683,1.20428 -1.74907,2.5193c1.06111,0.27397 1.73987,0.09549 2.30161,-0.4668z" data-paper-data="{&quot;index&quot;:null}" fill="#216aff"/><path d="M281.63451,260.63054c-0.77702,0.57753 -1.50575,0.67231 -2.40146,0.29958c-2.32193,-0.88236 -4.69383,-1.84843 -7.03303,-2.94757c-1.52617,-0.67702 -3.00237,-1.27035 -4.56127,-1.81429c-0.44781,-0.18628 -1.02829,-0.40688 -1.52449,-0.11057c-1.20777,0.60769 -2.41543,1.21554 -3.32354,2.32504c0.78179,1.12131 0.69908,1.17069 1.27957,1.39128c1.21094,0.52488 2.28921,1.01544 3.45017,1.45662c2.18935,0.84823 4.42868,1.78015 6.66792,2.7119c0.39793,0.10276 0.79586,0.20551 0.93003,0.80594c-0.64434,0.61184 -1.33876,1.13983 -2.01751,1.3183c-2.96796,-0.83697 -5.58956,-2.22116 -8.32667,-3.42305c-1.39349,-0.64271 -2.90241,-1.10296 -4.32873,-1.61276c-0.44781,-0.18628 -0.89571,-0.37273 -1.30921,-0.12581c-1.29037,0.65724 -2.58084,1.31429 -3.40624,2.37441c0.15141,0.81719 0.69918,1.17086 1.27967,1.39145c1.34353,0.55902 2.60443,1.16758 3.89808,1.64308c1.924,0.77961 3.71543,1.52507 5.63953,2.30484c0.39783,0.10259 0.68034,0.38782 0.84733,0.85532c-0.61161,0.47876 -1.27322,0.87383 -1.75226,1.38673c-0.67717,0.74475 -1.37316,0.70645 -2.1362,0.36802c-1.42631,-0.5098 -2.71986,-0.98512 -4.14618,-1.49492c-3.66555,-1.44155 -7.26556,-3.14908 -11.11198,-4.14203c-0.53061,-0.13706 -1.02838,-0.40704 -1.37792,-0.99239c0.79258,-0.92721 1.95037,-1.61859 2.97559,-2.3441c3.15814,-2.22627 6.36617,-4.36902 9.52441,-6.59512c4.51405,-3.14949 8.89553,-6.33313 13.40968,-9.48245c5.20847,-3.67747 10.41685,-7.35511 15.62531,-11.03259c3.24085,-2.27565 6.44896,-4.41824 9.68981,-6.69389c2.66204,-1.92981 5.45657,-3.82562 8.1685,-5.67189c2.46383,-1.69813 4.87766,-3.47993 7.3415,-5.17806c2.91004,-2.07812 5.78737,-4.02316 8.74729,-6.01776c4.84495,-3.34686 9.55722,-6.72803 14.40208,-10.07505c2.96002,-1.99443 6.00274,-4.03824 8.91279,-6.11635c4.59686,-3.19871 9.14362,-6.48127 13.74048,-9.67999c2.57925,-1.88059 5.2412,-3.81055 7.87042,-5.60744c2.43101,-1.56521 4.61242,-3.5484 7.27596,-4.91207c5.39302,3.01929 10.73606,5.95487 16.04638,9.02355c0.68044,0.38797 1.44347,0.7264 1.94284,1.56266c-1.12339,1.12474 -2.41385,1.78182 -3.52166,2.55688c-2.7854,-0.71915 -5.30715,-1.93611 -7.82889,-3.15308c-1.52617,-0.67702 -3.13494,-1.30449 -4.77654,-1.79904c-0.53061,-0.13706 -1.11109,-0.35766 -1.60728,-0.06135c-1.15779,0.69138 -2.41543,1.21553 -3.14099,2.44288c0.28409,0.8515 0.91445,1.15561 1.54491,1.4599c1.29364,0.4755 2.55447,1.0839 3.84811,1.55939c1.79143,0.74547 3.58286,1.49093 5.37428,2.2364c0.49779,0.26997 1.07826,0.49056 1.17971,1.22407c-0.26367,0.49783 -0.75986,0.79414 -1.27322,0.87384c-2.7854,-0.71915 -5.35702,-2.01964 -7.96146,-3.18722c-1.52617,-0.67702 -3.00237,-1.27034 -4.56126,-1.81428c-0.44781,-0.18628 -1.02839,-0.40704 -1.52459,-0.11074c-1.15779,0.69138 -2.36545,1.29923 -3.27356,2.40874c0.25127,0.98441 1.09701,1.27345 1.86014,1.61204c2.95239,1.18665 5.82209,2.42269 8.6418,3.57503c0.58049,0.2206 1.02838,0.40704 1.41075,0.85948c0.04988,0.08352 0.06703,0.30012 0.08429,0.5169c-0.44632,0.37983 -0.89254,0.75983 -1.48859,0.88891c-2.83538,-0.80283 -5.40699,-2.10333 -8.01144,-3.27091c-1.52617,-0.67702 -3.00237,-1.27035 -4.56127,-1.81429c-0.44781,-0.18628 -1.02829,-0.40688 -1.52449,-0.11057c-1.29046,0.65707 -2.49823,1.26475 -3.32363,2.32487c0.06872,0.86657 0.61648,1.22024 1.19697,1.44083c1.34362,0.55919 2.60443,1.16758 3.89808,1.64308c1.924,0.77961 3.79813,1.47569 5.63952,2.30486c0.49779,0.26997 1.16097,0.44118 1.31239,1.25837c-1.57129,0.9383 -3.0927,1.96013 -4.53131,2.93272c-2.83538,-0.80283 -5.35703,-2.01964 -7.87876,-3.2366c-1.52617,-0.67702 -3.13504,-1.30465 -4.77664,-1.79921c-0.44781,-0.18628 -1.02829,-0.40688 -1.35908,-0.20934c-1.34035,0.57354 -2.76349,1.19631 -3.47178,2.64041c0.31681,0.71842 0.86458,1.07209 1.44505,1.29269c1.21084,0.52471 2.28922,1.01544 3.45018,1.45662c1.97398,0.8633 3.89797,1.64291 5.82208,2.42269c0.44781,0.18628 0.94569,0.45643 1.24525,0.95808c-0.37908,0.68029 -1.05793,0.85859 -1.60401,1.07137c-2.70271,-0.76852 -5.22444,-1.98549 -7.74618,-3.20246c-1.52608,-0.67686 -3.13495,-1.30449 -4.77654,-1.79904c-0.39793,-0.10276 -0.89571,-0.37273 -1.30921,-0.12581c-1.20777,0.60769 -2.63082,1.2306 -3.30639,2.54164c0.23411,0.7678 0.78188,1.12147 1.36236,1.34206c1.21094,0.52488 2.28922,1.01545 3.45018,1.45663c1.97398,0.8633 3.89808,1.64308 5.82208,2.42268c0.44791,0.18645 0.94569,0.45642 1.34521,1.12546c-2.13303,1.50058 -4.08351,3.11902 -6.33354,4.23578c-2.83538,-0.80283 -5.35702,-2.01963 -7.87876,-3.2366c-1.52617,-0.67702 -3.13504,-1.30465 -4.77663,-1.79922c-0.58049,-0.2206 -1.19369,-0.30811 -1.77259,0.03758c-1.07509,0.64199 -2.20016,1.20029 -2.99274,2.1275c0.6492,1.08716 0.5665,1.13655 1.32954,1.47497c1.34362,0.55919 2.55447,1.0839 3.89808,1.64308c1.924,0.77961 3.89798,1.6429 5.82208,2.42268c0.44781,0.18628 0.89571,0.37273 0.8146,0.9884c-0.59447,0.69536 -1.30603,1.00675 -2.20174,0.63401c-0.58049,-0.2206 -1.16096,-0.44118 -1.74145,-0.66178c-1.70873,-0.79485 -3.36747,-1.50602 -5.0762,-2.30086c-1.39349,-0.64271 -2.91967,-1.31972 -4.51129,-1.7306c-0.44791,-0.18645 -1.02839,-0.40703 -1.35919,-0.2095c-1.34035,0.57354 -2.76339,1.19647 -3.5872,2.82287c1.76029,1.44483 3.88241,1.99259 5.85649,2.85606c1.924,0.77961 3.9308,1.51 5.88921,2.72297c-0.52742,0.9955 -1.13905,1.47426 -2.25014,1.1166c-0.58049,-0.2206 -1.16096,-0.44118 -1.74145,-0.66178c-1.79143,-0.74547 -3.63273,-1.57446 -5.34146,-2.36931c-1.44347,-0.7264 -2.91967,-1.31972 -4.51128,-1.7306c-0.39793,-0.10276 -0.89571,-0.37273 -1.30921,-0.12581c-1.20777,0.60769 -2.58093,1.31413 -3.30639,2.54164c0.18414,0.68411 0.68192,0.95409 1.1797,1.22407c0.89571,0.37273 1.84141,0.82917 2.73712,1.2019c2.23924,0.93175 4.61114,1.89781 6.85037,2.82956c0.39793,0.10276 0.71316,0.2549 0.74756,0.68827c-1.15621,1.25765 -4.61241,3.54838 -6.36626,4.36885c-2.70271,-0.76852 -5.22444,-1.98549 -7.74618,-3.20246c-1.924,-0.77961 -3.81539,-1.69246 -5.92036,-2.02362c-1.2405,0.74076 -2.7135,1.28 -3.5046,2.77333c0.23253,0.20153 0.29965,0.50182 0.48222,0.61966c0.3652,0.23583 0.73032,0.4715 1.04555,0.62364c1.21094,0.52488 2.28921,1.01544 3.45017,1.45662c1.97398,0.8633 3.89808,1.64308 5.82219,2.42285c0.44781,0.18628 0.94559,0.45625 1.24525,0.95808c-0.37919,0.68013 -0.87538,0.97643 -1.55413,1.1549c-2.70271,-0.76852 -5.22445,-1.9855 -7.74619,-3.20247c-1.52608,-0.67686 -3.13494,-1.30449 -4.77654,-1.79904c-0.39793,-0.10276 -0.89571,-0.37273 -1.30921,-0.12581c-1.20777,0.60769 -2.6308,1.23061 -3.30639,2.54165c0.23411,0.7678 0.78188,1.12147 1.36236,1.34206c1.34353,0.55902 2.68713,1.1182 4.03066,1.67722c1.84141,0.82917 3.71553,1.52524 5.55684,2.35424c0.31523,0.15214 0.84573,0.28903 0.8146,0.98839c-1.7694,1.17013 -3.48894,2.42381 -5.34105,3.64334c-1.89138,-0.91285 -3.73268,-1.74184 -5.49138,-2.62038c-2.12381,-1.11421 -4.33032,-2.17904 -6.6351,-2.84481c-0.53051,-0.1369 -1.07827,-0.49057 -1.62434,-0.27779c-1.34045,0.57338 -2.76349,1.19631 -3.47178,2.64042c0.46655,0.96917 1.31238,1.25837 2.07542,1.5968c2.91967,1.31972 5.97192,2.6736 8.89159,3.99332c0.31523,0.15214 0.71306,0.25473 0.79744,0.77179c-0.54459,0.77889 -1.17345,1.04089 -2.15186,0.71754c-2.27195,-0.79867 -4.47847,-1.8635 -6.63509,-2.8448c-1.44338,-0.72623 -3.05225,-1.35387 -4.69384,-1.84843c-0.53051,-0.1369 -1.11099,-0.35749 -1.60718,-0.06119c-1.15779,0.69138 -2.36556,1.29906 -3.27367,2.40856c0.25127,0.98441 1.09701,1.27345 1.86014,1.61204c2.95239,1.18665 5.82208,2.42269 8.6418,3.57503c0.58049,0.2206 1.02839,0.40704 1.32805,0.90886c-0.42906,0.59659 -1.05794,0.8586 -1.81939,1.08645c-0.79586,-0.20551 -1.64159,-0.49456 -2.5373,-0.86729c-1.70873,-0.79485 -3.41745,-1.5897 -5.0762,-2.30086c-1.47619,-0.59333 -2.95239,-1.18665 -4.51128,-1.7306c-0.49789,-0.27014 -1.06111,-0.27397 -1.55731,0.02235c-1.10791,0.7749 -2.28286,1.24967 -3.10826,2.30979c0.16857,1.03379 1.09711,1.27362 1.86014,1.61204c3.00237,1.27034 5.87206,2.50637 8.82445,3.69303c0.44781,0.18628 0.76304,0.33841 1.02988,0.97315c-0.85972,0.62691 -1.71943,1.25383 -3.49053,1.85753z" data-paper-data="{&quot;index&quot;:null}" fill="#ffffff"/><path d="M369.38668,164.0974c-2.62922,1.7969 -5.17574,3.5444 -7.80498,5.34129c-0.16539,0.09877 -0.24809,0.14815 -0.4135,0.24692c-2.09862,1.93396 -4.71218,3.38134 -7.04342,5.1136c-2.33115,1.73243 -4.84486,3.34703 -7.22598,4.99577c-4.43135,3.1001 -8.73013,6.23436 -13.16159,9.3343c-2.96002,1.99443 -6.00264,4.0384 -8.96266,6.03283c-0.16539,0.09877 -0.46347,0.16323 -0.57889,0.34569c-1.93322,1.83519 -4.26606,3.00118 -6.34912,4.58545c-2.72748,2.19595 -5.78737,4.02316 -8.74739,6.01759c-0.28082,0.28122 -0.57889,0.34569 -0.77702,0.57753c-2.26402,2.03273 -5.01025,3.44579 -7.50689,5.27683c-2.86007,2.16181 -5.63754,4.27407 -8.74729,6.01775c-0.38078,0.11385 -0.62887,0.262 -0.827,0.49385c-1.93332,1.83502 -4.26606,3.00118 -6.34911,4.58545c-2.94277,2.21119 -6.11817,4.2207 -9.16088,6.2645c-0.16539,0.09877 -0.24809,0.14815 -0.4135,0.24692c-2.52928,1.96428 -5.02581,3.79547 -7.65504,5.59237c-1.85211,1.21952 -3.70431,2.43889 -5.45657,3.82562c-2.36387,1.86551 -4.97753,3.31272 -7.3415,5.17806c-2.94277,2.21119 -6.16805,4.13717 -9.16079,6.26468c-1.60411,1.07121 -3.15815,2.22628 -4.76226,3.29748c-0.36352,0.33061 -0.59446,0.69536 -1.00796,0.94228c-0.94242,0.6763 -1.08907,1.55795 -0.7551,2.49297c0.46823,1.53561 0.9692,2.93815 1.52013,4.42438c0.36679,0.80212 0.6508,1.65344 0.76949,2.60372c-0.61161,0.47876 -1.04078,1.07519 -1.61967,1.42088c-1.85211,1.21952 -3.62152,2.38967 -5.29117,3.72686c-1.83495,1.43613 -3.66991,2.87225 -5.58756,4.35776c-0.77702,0.57753 -1.50415,1.23858 -2.56368,1.5309c-1.08144,-1.62313 -1.40144,-3.4741 -2.1849,-5.16185c-0.73348,-1.60406 -1.21888,-3.35627 -1.95247,-4.96051c-0.70066,-1.73697 -1.18606,-3.48918 -1.75425,-5.19218c0.31364,-0.41414 0.54459,-0.77889 0.87538,-0.97643c2.49655,-1.8312 4.94321,-3.74593 7.52247,-5.62651c2.61197,-2.01366 5.22404,-4.02715 7.98584,-5.7899c3.70431,-2.43889 7.22608,-4.99561 10.79772,-7.46879c3.37342,-2.24151 6.64709,-4.65008 9.97062,-6.97512c2.29843,-1.59936 4.67955,-3.24809 6.928,-4.93114c2.49655,-1.8312 5.09295,-3.49518 7.63947,-5.24269c0.11543,-0.18246 0.4135,-0.24692 0.52893,-0.42938c1.43712,-1.53872 3.38909,-2.59102 5.10861,-3.84469c3.19097,-2.35918 6.44896,-4.41824 9.73978,-6.6102c0.28082,-0.28122 0.52892,-0.42938 0.77702,-0.57754c2.29843,-1.59936 4.46418,-3.23301 6.7626,-4.83237c3.04272,-2.04381 6.16805,-4.13717 9.21077,-6.18098c0.16539,-0.09877 0.2481,-0.14816 0.4135,-0.24692c2.41385,-1.78182 4.91039,-3.61302 7.45692,-5.36052c3.04272,-2.04381 6.16815,-4.13701 9.21077,-6.18098c0.16539,-0.09877 0.24809,-0.14815 0.41349,-0.24692c2.26412,-2.03255 4.92765,-3.39625 7.34151,-5.17807c3.24085,-2.27565 6.56438,-4.60069 9.80532,-6.87618c3.48894,-2.42381 7.06059,-4.89699 10.49955,-7.40449c1.83504,-1.43596 3.76985,-2.70487 5.70466,-3.97378c2.46383,-1.69813 4.91049,-3.61285 7.5069,-5.27683c0.66159,-0.39507 1.40588,-0.83953 2.1002,-1.36767c3.27367,-2.40856 6.54723,-4.8173 10.0206,-6.89142c0.95967,-0.45953 1.78667,-0.95338 2.82903,-1.46229c1.00192,2.80507 1.9368,5.31001 2.95439,7.76557c1.10018,2.40601 2.20047,4.81219 3.10253,7.45004c-0.4135,0.24692 -0.66159,0.39507 -0.90969,0.54322c-1.96753,1.40199 -4.05227,2.41982 -5.91994,3.98902c-0.85982,0.62676 -1.61968,1.42089 -2.82893,1.46246c-1.77904,-2.2277 -2.2677,-5.11265 -3.98118,-7.60634c-0.4962,0.2963 -0.827,0.49385 -0.69431,0.52815z" data-paper-data="{&quot;index&quot;:null}" fill="#216aff"/><path d="M371.43932,175.2376c-2.29843,1.59936 -4.51405,3.14949 -6.81248,4.74885c-5.70467,3.97378 -11.32664,7.89817 -17.03131,11.87195c-3.40624,2.37442 -6.89518,4.79823 -10.38412,7.22204c-2.62922,1.7969 -5.17574,3.5444 -7.80498,5.34129c-4.43135,3.1001 -8.78011,6.15067 -13.21147,9.25077c-2.66195,1.92996 -5.45658,3.82562 -8.1685,5.6719c-5.70467,3.97378 -11.32663,7.89817 -17.0313,11.87195c-5.01025,3.44579 -9.97063,6.97512 -14.931,10.50444c-5.70467,3.97378 -11.44205,8.08063 -17.09675,12.1381c-3.24094,2.27549 -6.56449,4.60053 -9.80532,6.87618c-1.10781,0.77507 -2.21572,1.54997 -3.58879,2.25659c-1.03315,-2.10588 -1.63565,-4.24208 -2.40346,-6.27935c0.19813,-0.23185 0.39624,-0.46368 0.56164,-0.56245c4.18335,-2.95178 8.44932,-5.95314 12.63267,-8.90492c4.18335,-2.95178 8.49929,-5.86944 12.68254,-8.82139c4.79498,-3.43056 9.50726,-6.81172 14.35221,-10.15858c2.21562,-1.55013 4.43135,-3.1001 6.64709,-4.65008c4.26596,-3.00134 8.53202,-6.00251 12.79798,-9.00386c2.46383,-1.69813 4.92764,-3.39624 7.39147,-5.09437c4.87767,-3.47994 9.80523,-6.87634 14.68291,-10.35628c2.29843,-1.59936 4.67955,-3.24808 6.97788,-4.84762c4.18335,-2.95178 8.28392,-5.85435 12.46728,-8.80615c4.34866,-3.05072 8.74739,-6.01759 13.09605,-9.06831c2.49655,-1.8312 4.99309,-3.66239 7.53963,-5.40991c1.55413,-1.1549 3.29082,-2.19197 4.89483,-3.26334c1.28125,1.95773 1.4531,4.12424 3.11502,5.96797c-0.61161,0.47876 -1.09066,0.99168 -1.5697,1.50458z" data-paper-data="{&quot;index&quot;:null}" fill="#d0e9ea"/><path d="M436.19032,194.43072c-7.96464,-4.31978 -15.83101,-9.03862 -23.61478,-13.80701c-8.0989,-4.92037 -15.99968,-10.07257 -24.36225,-14.49511c-1.80858,-0.96207 -3.10382,-2.00384 -3.78901,-4.09066c-1.11903,-3.18906 -2.48615,-6.22996 -3.77058,-9.32025c-0.21687,-0.55104 -0.35112,-1.15163 -0.31998,-1.85098c0.44791,0.18645 0.79585,0.20553 1.02839,0.40704c2.68872,1.68448 5.51003,3.4031 8.24873,5.17127c6.44015,4.2092 12.91302,8.28533 19.50142,12.17918c2.53889,1.43358 5.12767,2.95067 7.55115,4.5667c4.53171,3.07992 9.4097,5.61245 13.79317,9.00775c1.42781,1.07592 2.64034,2.16707 3.37392,3.77129c1.16731,2.7063 2.33473,5.41277 3.50204,8.11908c0.04998,0.08369 0.01716,0.2166 -0.03114,0.69936c-0.44791,-0.18645 -0.84574,-0.28904 -1.11109,-0.35766z" data-paper-data="{&quot;index&quot;:null}" fill="#216aff"/><path d="M378.30277,235.57846c-0.69432,0.52815 -1.25606,1.09044 -2.00036,1.5349c-2.34831,1.51583 -4.614,2.98211 -6.9623,4.49794c-3.45622,2.29073 -6.91244,4.58146 -10.36856,6.87235c-4.44861,2.88334 -8.97992,5.81606 -13.51123,8.74879c-4.11781,2.68581 -8.28551,5.28808 -12.40332,7.97389c-0.44622,0.37999 -0.97514,0.80938 -1.67114,0.77108c-2.81972,-1.15234 -5.57398,-2.57084 -8.32826,-3.98934c-2.98671,-1.61986 -6.00623,-3.10681 -8.9602,-4.85973c-1.85856,-1.04576 -3.83254,-1.90905 -5.54285,-3.27019c-0.28251,-0.28522 -0.73032,-0.4715 -0.74906,-1.25438c0.16371,-0.66521 0.908,-1.10967 1.60242,-1.63766c2.99274,-2.1275 5.9855,-4.255 8.92836,-6.46603c4.2488,-3.21794 8.78011,-6.15067 13.26144,-9.16708c5.83725,-3.93964 11.85714,-7.76127 17.79434,-11.53352c0.4962,-0.2963 1.02511,-0.72568 1.52132,-1.02199c0.99239,-0.59261 2.01761,-1.31812 3.0927,-1.96012c0.69432,-0.52815 1.39033,-0.48985 2.08782,0.11456c0.46506,0.40306 1.14539,0.79087 1.69316,1.14453c3.41904,2.15598 7.11891,4.03073 10.73607,5.95487c3.48458,1.89 6.82092,4.09536 10.18998,6.16765c0.05156,0.64998 -0.04679,1.04887 -0.41032,1.37949zM323.2203,243.28526c-2.05033,1.45121 -4.06784,2.7695 -6.11817,4.2207c-0.16539,0.09877 -0.23094,0.36476 -0.34636,0.54722c-2.183,1.41689 -4.51575,2.58304 -6.39898,4.50193c2.39065,1.74894 15.73116,8.8714 21.07261,11.24072c1.29046,-0.65707 2.56368,-1.5309 3.78702,-2.48827c0.44622,-0.37999 0.97524,-0.80921 1.47143,-1.10551c4.44861,-2.88334 8.81442,-5.71746 13.18034,-8.55142c0.16539,-0.09877 0.36361,-0.33044 0.52902,-0.42921c2.34831,-1.51583 4.72943,-3.16457 7.07773,-4.6804c1.62126,-0.85461 3.15973,-1.65999 4.58119,-2.8492c1.96763,-1.40182 4.10225,-2.33612 5.88732,-3.85577c2.71341,-1.28016 4.71227,-3.38117 7.40853,-4.87793c-0.96443,-1.2393 -2.25808,-1.7148 -3.30352,-2.33828c-4.71268,-2.63148 -9.29269,-5.22864 -14.00537,-7.86012c-0.81302,-0.42211 -1.65875,-0.71116 -2.43904,-1.26635c-0.88005,-0.72225 -1.85687,-0.47932 -2.55128,0.04867c-3.02546,2.26058 -6.48328,3.98503 -9.59144,6.29499c-2.61208,2.01349 -5.50654,3.74194 -8.21846,5.58821c-0.4962,0.2963 -1.02511,0.72568 -1.52131,1.02198c-1.70396,0.90399 -3.27525,1.84229 -4.77941,3.08088c-1.80223,1.30305 -3.65434,2.52257 -5.72182,3.75718z" data-paper-data="{&quot;index&quot;:null}" fill="#010201"/><path d="M258.37281,278.03821c-1.10781,0.77507 -2.29833,1.59951 -3.35626,2.45811c-1.25606,1.09044 -2.59809,1.09754 -4.07428,0.50421c-4.24603,-1.66215 -8.49197,-3.32412 -12.738,-4.98627c-0.44791,-0.18645 -0.97841,-0.32335 -1.21252,-1.09116c0.27923,-0.84751 0.97355,-1.37566 1.75066,-1.95303c0.85972,-0.62691 1.76941,-1.17014 2.57925,-1.88059c0.97524,-0.80922 1.83654,-0.86985 3.13019,-0.39436c4.21321,1.79506 8.27828,3.90565 12.55703,5.43471c0.63046,0.30428 1.26092,0.60857 1.77585,1.09514c0.00158,0.56629 -0.19653,0.79812 -0.41192,0.8132zM249.9215,277.41241c0.23253,0.20153 0.33237,0.36874 0.51504,0.48675c1.11099,0.35749 2.22208,0.71515 3.38305,1.15633c0.67875,-0.17846 1.30762,-0.44046 1.71953,-1.25367c-1.29523,-1.04177 -2.81982,-1.1525 -4.18049,-1.92813c-0.51176,0.64598 -0.95808,1.02581 -1.43712,1.53872zM247.36068,274.0634c-1.02521,0.72552 -1.91765,1.4855 -2.94287,2.21103c0.78029,0.55519 1.49345,0.8101 2.37191,0.96606c0.85982,-0.62676 1.58685,-1.28797 2.44667,-1.91473c-0.4495,-0.75273 -1.19538,-0.87456 -1.87571,-1.26237zM241.39513,273.65492c1.16256,1.00747 1.16255,1.00746 3.0803,-0.47788c-1.34521,-1.12547 -2.13778,-0.19825 -3.0803,0.47788z" data-paper-data="{&quot;index&quot;:null}" fill="#020202"/><path d="M297.98461,259.82961c2.36873,-0.1665 4.18049,1.92812 3.62361,4.18943c-0.72078,2.92618 -5.5705,4.5742 -7.9783,2.60866c-1.39508,-1.20898 -1.61523,-2.89275 -0.4263,-4.28348c0.51176,-0.64598 1.15621,-1.25765 1.86777,-1.56904c0.85972,-0.62691 1.83655,-0.86985 2.91322,-0.94556zM295.01378,263.87256c-0.34636,0.54722 -0.02956,1.26564 0.63364,1.43684c0.84584,0.2892 3.3284,-0.62604 3.62321,-1.82322c0.21379,-0.58136 -0.05315,-1.21625 -0.71634,-1.38746c-0.71316,-0.2549 -1.30921,-0.12582 -2.1362,0.36802c-0.57889,0.34569 -1.05793,0.85859 -1.4043,1.40581z" data-paper-data="{&quot;index&quot;:null}" fill="#030606"/><path d="M307.62525,265.07733c2.07224,0.46424 3.12096,2.22045 2.28158,4.19652c-0.06554,0.26598 -0.26366,0.49783 -0.46178,0.72968c-1.00637,1.50857 -2.61208,2.01349 -4.26765,2.43489c-1.1921,0.25818 -2.76825,-0.50254 -3.41745,-1.58971c-0.6492,-1.08716 -0.65238,-2.21973 0.09033,-3.23046c0.51176,-0.64598 0.97365,-1.37549 1.68512,-1.68704c1.15779,-0.69138 2.86334,-1.02908 4.08985,-0.85389zM304.97283,270.40497c1.24208,-0.17448 2.20174,-0.63401 2.7619,-1.76258c0.29639,-0.63091 0.01239,-1.48224 -0.7335,-1.60407c-0.92853,-0.23982 -1.82266,-0.04628 -2.5497,0.61495c-0.44632,0.37983 -0.84266,0.84335 -1.15621,1.25765c0.55093,1.48623 0.73349,1.60406 1.6775,1.49404z" data-paper-data="{&quot;index&quot;:null}" fill="#040605"/><path d="M268.71581,285.58933c-2.37032,-0.39978 -3.42063,-2.72227 -2.1506,-4.72866c0.97365,-1.37549 2.32957,-2.29872 4.00239,-2.50335c1.75543,-0.25418 3.39861,0.80666 3.9667,2.50949c0.43392,1.10241 -0.27446,2.54635 -1.63038,3.46956c-0.16539,0.09877 -0.24809,0.14815 -0.4135,0.24692c-1.32319,0.79015 -2.59809,1.09754 -3.77462,1.00603zM268.37706,282.95546c0.39952,0.66903 1.54333,0.89362 2.5029,0.43393c0.4135,-0.24692 0.85981,-0.62674 1.17336,-1.04105c0.59447,-0.69536 0.17779,-1.58101 -0.70067,-1.73697c-0.61331,-0.08768 -1.25933,-0.0423 -1.67283,0.20463c-0.95957,0.4597 -1.5697,1.50457 -1.30275,2.13947z" data-paper-data="{&quot;index&quot;:null}" fill="#040505"/><path d="M286.89528,269.62816c1.69157,0.57825 2.3252,2.01509 1.71676,3.62641c-1.0032,2.64113 -4.92606,3.96253 -7.38225,2.47957c-1.04555,-0.62364 -1.41224,-1.42559 -1.06746,-2.53909c0.32762,-1.33009 1.02035,-2.42451 2.3607,-2.99806c1.22333,-0.95736 2.68079,-1.14692 4.37226,-0.56884zM282.38121,272.77765c-0.44632,0.37983 -0.24493,1.28072 0.33556,1.5013c0.89571,0.37273 1.78984,0.17918 2.61683,-0.31465c0.74429,-0.44446 1.12338,-1.12474 1.0375,-2.20793c-1.70873,-0.79485 -2.94922,-0.05409 -3.9899,1.02127z" data-paper-data="{&quot;index&quot;:null}" fill="#030604"/><path d="M293.65019,291.46099c-0.75827,1.36041 -4.26595,3.00133 -6.04023,2.47248c-1.90685,-0.56301 -2.79017,-2.41797 -1.80095,-4.14315c0.98912,-1.72533 3.45454,-2.85717 5.52679,-2.39294c0.92853,0.23982 1.77427,0.52887 2.09109,1.24728c0.5665,1.13655 0.63522,2.00312 0.22331,2.81632zM289.43697,289.66594c-0.71157,0.31138 -1.55572,0.58862 -1.96763,1.40181c-0.19813,0.23185 -0.08111,0.61567 0.15142,0.81719c0.18255,0.11784 0.3651,0.23567 0.63046,0.30428c0.74588,0.12182 1.34193,-0.00726 2.00352,-0.40234c0.66159,-0.39507 1.37317,-0.70645 1.33718,-1.7061c-0.61489,-0.65396 -1.36077,-0.77579 -2.15495,-0.41485z" data-paper-data="{&quot;index&quot;:null}" fill="#030506"/><path d="M281.61572,283.33178c1.35909,0.20934 2.42337,1.61587 2.14573,3.02965c-0.50542,2.9111 -4.54202,4.9814 -7.72853,3.02695c-1.04555,-0.62364 -1.31407,-1.82482 -0.80389,-3.03708c0.44473,-0.94611 1.17177,-1.60734 1.75066,-1.95303c1.40589,-0.83953 3.40952,-1.2417 4.63603,-1.0665zM280.46905,287.98712c0.99239,-0.59261 1.10791,-0.7749 1.17018,-2.17361c-2.48733,-0.7836 -3.57957,-0.35821 -4.53448,1.80017c1.11268,0.92393 2.15663,0.9813 3.3643,0.37346z" data-paper-data="{&quot;index&quot;:null}" fill="#050504"/><path d="M315.42608,270.06216c2.30161,-0.4668 4.11347,1.628 3.3412,3.90438c-0.21379,0.58136 -0.56015,1.12857 -1.00637,1.50857c-1.05793,0.85859 -2.31558,1.38275 -3.72315,1.65584c-0.64593,0.04555 -1.25924,-0.04213 -1.83972,-0.26272c-1.34353,-0.55902 -1.97715,-1.99586 -1.51696,-3.29182c0.26208,-1.06411 1.02195,-1.85824 1.83178,-2.56869c1.00955,-0.37601 1.83654,-0.86984 2.91322,-0.94556zM314.47931,275.05225c0.67875,-0.17846 1.39023,-0.49002 1.90209,-1.13583c0.36352,-0.33061 0.49451,-0.86274 0.24483,-1.28087c-0.21687,-0.55104 -0.73031,-0.4715 -1.16096,-0.44118c-1.54016,0.23894 -2.39988,0.86586 -3.00831,2.47719c0.61479,0.6538 1.34352,0.55901 2.02237,0.38071z" data-paper-data="{&quot;index&quot;:null}" fill="#050304"/><path d="M303.92017,278.97522c1.60878,0.62747 2.09257,1.8134 1.56683,3.37534c-0.21369,0.58152 -0.56016,1.12856 -0.9564,1.59226c-1.37158,1.27273 -2.94445,1.64475 -4.68431,1.54925c-0.34796,-0.01907 -0.79586,-0.20551 -1.11109,-0.35766c-1.3108,-0.6921 -1.69475,-1.7108 -1.28442,-3.09028c0.42748,-1.16288 1.23731,-1.87332 2.3951,-2.5647c1.19052,-0.82445 2.5154,-1.04815 4.07429,-0.50421zM301.23175,283.30321c0.67885,-0.1783 1.4403,-0.40616 1.90209,-1.13583c0.34646,-0.54705 0.11235,-1.31486 -0.58366,-1.35315c-0.6959,-0.03813 -1.45746,0.18956 -2.11905,0.58463c-0.61161,0.47876 -0.77702,0.57754 -1.10465,1.90763c0.56491,0.57027 1.27649,0.2589 1.90526,-0.00327z" data-paper-data="{&quot;index&quot;:null}" fill="#040405"/><path d="M291.0031,281.01615c-2.12222,-0.54793 -2.89013,-2.58536 -1.60284,-4.37499c1.31991,-1.92287 4.15053,-2.81887 6.33979,-1.97082c1.60887,0.62763 2.25966,2.28108 1.336,3.74026c-0.49461,0.86259 -1.08907,1.55795 -1.96595,1.96826c-1.32319,0.79015 -2.73077,1.06322 -4.10701,0.63728zM292.66302,276.28095c-0.76145,0.22785 -1.50575,0.67231 -1.91765,1.48551c-0.29639,0.63091 -0.02956,1.26564 0.63364,1.43684c0.79586,0.20551 1.65716,0.14488 2.40146,-0.29958c0.82699,-0.49383 0.99239,-0.59261 1.53539,-1.93778c-0.84743,-0.85549 -1.70872,-0.79485 -2.65283,-0.685z" data-paper-data="{&quot;index&quot;:null}" fill="#040506"/><path d="M367.54874,217.3817c2.33115,-1.73243 4.84495,-3.34687 7.32594,-4.82838c0.57889,-0.34569 1.24049,-0.74075 2.00353,-0.40233c0.26684,0.63473 0.08587,1.08317 -0.39317,1.59608c-0.59447,0.69536 -1.35591,0.92322 -2.05024,1.45136c-2.01761,1.31812 -4.00238,2.50334 -6.0199,3.82163c-0.57889,0.34569 -1.20777,0.60768 -1.93808,0.13618c-0.11859,-0.9501 0.49302,-1.42886 1.07192,-1.77455z" data-paper-data="{&quot;index&quot;:null}" fill="#0c1212"/><path d="M396.0492,207.05605c-0.59447,0.69536 -1.35591,0.92322 -2.05023,1.45136c-2.01761,1.31812 -4.00239,2.50335 -6.0199,3.82163c-0.57889,0.34569 -1.20777,0.60768 -1.93808,0.13618c-0.11859,-0.9501 0.49302,-1.42886 1.10474,-1.90746c2.28117,-1.81612 4.84485,-3.34703 7.32584,-4.82855c0.57889,-0.34569 1.24049,-0.74075 2.00353,-0.40233c0.34964,0.58551 0.08597,1.08334 -0.42589,1.72915z" data-paper-data="{&quot;index&quot;:null}" fill="#0d1313"/><path d="M417.92904,198.98244c-0.34636,0.54722 -0.66001,0.96135 -1.2389,1.30704c-2.13303,1.50058 -4.34876,3.05055 -6.61436,4.517c-0.4962,0.2963 -1.02521,0.72553 -1.67114,0.77108c-0.43076,0.03015 -0.81142,0.14416 -1.06111,-0.27397c-0.13427,-0.60059 0.22925,-0.93121 0.67557,-1.31103c2.26402,-2.03273 5.01025,-3.44579 7.45692,-5.36052c0.61161,-0.47876 1.50575,-0.67231 2.28435,-0.68356c0.38236,0.45243 0.3668,0.80212 0.16867,1.03396z" data-paper-data="{&quot;index&quot;:null}" fill="#090c0d"/><path d="M392.17759,203.01494c-0.54459,0.77889 -1.15621,1.25765 -1.9005,1.7021c-1.85211,1.21952 -3.67149,2.30598 -5.34114,3.64317c-0.61161,0.47876 -1.32319,0.79015 -2.03466,1.10169c-0.38078,0.11385 -0.92684,0.32662 -1.30921,-0.12581c-0.31681,-0.71842 0.26207,-1.06412 0.70829,-1.44411c2.26412,-2.03255 4.92764,-3.39624 7.29152,-5.26175c0.69441,-0.52798 1.58855,-0.72153 2.44985,-0.78217c0.43224,0.53597 0.33398,0.93503 0.13585,1.16687z" data-paper-data="{&quot;index&quot;:null}" fill="#090d0e"/><path d="M381.54091,214.69876c0.2481,-0.14816 0.64603,-0.04539 0.79586,0.20551c0.14973,0.25075 0.08429,0.5169 -0.06396,0.83227c-0.5773,0.91196 -1.38715,1.62241 -2.24687,2.24933c-2.01751,1.31829 -4.00228,2.50351 -5.87006,4.07254c-0.28082,0.28122 -0.74429,0.44446 -1.20777,0.60769c-0.16539,0.09877 -0.48052,-0.05321 -0.66318,-0.17121c-0.23253,-0.20153 -0.29957,-0.50165 -0.15142,-0.81719c0.0484,-0.48259 0.41191,-0.8132 0.8254,-1.06012c2.33115,-1.73243 4.66239,-3.46469 6.91084,-5.14774c0.57889,-0.34569 0.99239,-0.59262 1.67114,-0.77108z" data-paper-data="{&quot;index&quot;:null}" fill="#080b0b"/><path d="M421.58695,203.60507c-2.62922,1.7969 -5.39102,3.55963 -8.02025,5.35653c-0.3308,0.19753 -0.71158,0.31138 -1.09225,0.42539c-0.29808,0.06447 -0.69601,-0.0383 -0.84583,-0.28921c-0.19971,-0.33444 -0.05147,-0.6498 0.14666,-0.88165c0.47904,-0.5129 0.92526,-0.89291 1.37148,-1.2729c1.35601,-0.92306 2.74474,-1.97919 4.10065,-2.90241c1.02511,-0.72568 2.01751,-1.3183 3.09261,-1.96029c0.57889,-0.34569 1.24049,-0.74075 2.02077,-0.18556c0.06872,0.86657 -0.27765,1.41378 -0.77385,1.71009z" data-paper-data="{&quot;index&quot;:null}" fill="#07090a"/><path d="M402.00713,210.64559c-1.40589,0.83953 -2.62912,1.79705 -3.98514,2.72011c-1.07509,0.64199 -2.1829,1.41706 -3.258,2.05905c-0.4962,0.2963 -0.90969,0.54322 -1.47302,0.53923c-0.21537,0.01508 -0.48063,-0.05337 -0.58049,-0.2206c-0.09986,-0.16722 -0.16699,-0.46751 -0.05156,-0.64998c0.39634,-0.46353 0.79268,-0.92705 1.2389,-1.30704c1.38873,-1.05613 2.77746,-2.11226 4.21607,-3.08487c1.02511,-0.72568 2.01751,-1.3183 3.0926,-1.96029c0.57889,-0.34569 1.15779,-0.69138 2.02078,-0.18556c-0.0467,1.04903 -0.74111,1.57702 -1.22015,2.08992z" data-paper-data="{&quot;index&quot;:null}" fill="#07090a"/><path d="M405.88525,193.46786c-1.02511,0.72568 -2.06748,1.2346 -3.04262,2.04398c-1.30604,1.00675 -2.74464,1.97936 -4.15053,2.81888c-0.4135,0.24692 -0.95967,0.45952 -1.42315,0.62276c-0.29798,0.06463 -0.64603,0.04539 -0.84574,-0.28905c-0.19971,-0.33444 -0.05157,-0.64996 0.14666,-0.88165c0.31354,-0.41431 0.75985,-0.79414 1.12337,-1.12475c1.38873,-1.05613 2.77747,-2.11227 4.21608,-3.08487c1.02511,-0.72568 2.01751,-1.31829 3.0926,-1.96028c0.57889,-0.34569 1.20777,-0.60768 2.07076,-0.10187c-0.57572,1.47825 -0.57572,1.47825 -1.18744,1.95684z" data-paper-data="{&quot;index&quot;:null}" fill="#060909"/><path d="M403.00516,200.29299c2.16575,-1.63366 4.51415,-3.14932 6.72989,-4.69929c0.44622,-0.37999 0.99239,-0.59261 1.45577,-0.756c0.38078,-0.11385 0.89412,-0.19355 1.11109,0.35766c-0.59287,1.26165 -0.59287,1.26165 -1.45269,1.88839c-1.19052,0.82445 -2.46372,1.69829 -3.73704,2.57197c-1.27322,0.87383 -2.5964,1.66398 -3.91959,2.45411c-0.4962,0.2963 -1.12507,0.5583 -1.78985,-0.17919c0.27923,-0.84751 0.89096,-1.32611 1.60243,-1.63765z" data-paper-data="{&quot;index&quot;:null}" fill="#060909"/><path d="M382.96953,227.79996c0.26367,-0.49783 0.66,-0.96135 1.07351,-1.20828c2.41385,-1.78182 4.87767,-3.47994 7.34151,-5.17807c0.4962,-0.2963 0.99239,-0.5926 1.52289,-0.4557c0.28241,0.28505 0.39952,0.66903 0.16858,1.03379c-0.32921,0.76382 -0.94083,1.24258 -1.55255,1.72118c-2.29833,1.59952 -4.67945,3.24825 -6.97788,4.84761c-0.4135,0.24692 -0.827,0.49384 -1.3575,0.35694c-0.3652,-0.23583 -0.6149,-0.65395 -0.21855,-1.11748z" data-paper-data="{&quot;index&quot;:null}" fill="#070909"/><path d="M397.10636,217.65646c0.42906,-0.59659 0.99081,-1.15889 1.6524,-1.55397c2.18291,-1.41706 4.3658,-2.83412 6.59869,-4.16749c0.4135,-0.24692 0.79427,-0.36076 1.25774,-0.52399c0.21527,-0.01525 0.48052,0.05321 0.66318,0.17121c0.23253,0.20153 0.21686,0.55103 0.15142,0.81719c-0.32921,0.76382 -0.94093,1.24242 -1.60252,1.63749c-2.18291,1.41706 -4.3658,2.83412 -6.54882,4.25101c-0.74429,0.44446 -1.37307,0.70661 -2.25163,0.55049c-0.16699,-0.46751 -0.15142,-0.81719 0.07952,-1.18194z" data-paper-data="{&quot;index&quot;:null}" fill="#050606"/><path d="M378.91368,223.07457c2.26561,-1.46645 4.44861,-2.88334 6.7642,-4.2661c0.4135,-0.24692 0.79417,-0.36092 1.25764,-0.52416c0.21537,-0.01508 0.48063,0.05337 0.58049,0.2206c0.18255,0.11784 0.16699,0.46751 0.13426,0.60059c-0.19663,0.79796 -0.80825,1.27672 -1.46984,1.67179c-2.21572,1.54997 -4.54846,2.71613 -6.71422,4.34979c-0.61161,0.47876 -1.37316,0.70646 -2.30161,0.4668c0.19495,-1.36441 0.97206,-1.94178 1.74907,-2.5193z" data-paper-data="{&quot;index&quot;:null}" fill="#050606"/><path d="M367.18031,239.49743c-7.78812,-0.45459 -15.59341,-1.12577 -23.36587,-1.92988c-3.14903,-0.38869 -6.33068,-0.64414 -9.42972,-0.94914c-0.13267,-0.0343 -0.39792,-0.10276 -0.58049,-0.2206c0.4962,-0.2963 1.02511,-0.72568 1.52132,-1.02199c2.79462,-1.89566 5.55641,-3.6584 8.21846,-5.58821c3.02546,-2.26058 6.48328,-3.98503 9.59144,-6.29499c0.69441,-0.52798 1.58853,-0.72153 2.55129,-0.04867c0.64762,0.52088 1.62602,0.84424 2.43904,1.26635c4.71268,2.63148 9.37539,5.17925 14.00537,7.86012c1.09542,0.70717 2.30636,1.23205 3.30351,2.33828c-2.69625,1.49676 -4.77781,3.64715 -7.40852,4.87793c-0.34806,-0.01923 -0.58049,-0.2206 -0.84584,-0.28921z" data-paper-data="{&quot;index&quot;:null}" fill="#00ff00"/><path d="M328.50584,249.3184c7.40735,0.56843 14.76483,1.05334 22.10663,1.88776c-0.16539,0.09877 -0.36351,0.33061 -0.52892,0.42938c-4.44861,2.88334 -8.81452,5.7173 -13.18043,8.55126c-0.4962,0.2963 -1.02511,0.72568 -1.47133,1.10567c-1.22333,0.95736 -2.49655,1.8312 -3.78702,2.48827c-5.29158,-2.28579 -18.63208,-9.40824 -21.07271,-11.24088c1.88334,-1.91871 4.21607,-3.08487 6.39899,-4.50192c3.84493,0.42683 7.65713,0.98672 11.53479,1.28047z" data-paper-data="{&quot;index&quot;:null}" fill="#00ff00"/><path d="M317.40022,247.4415c2.05023,-1.45137 4.01786,-2.85319 6.11816,-4.22069c3.9775,0.46097 8.03771,0.87255 12.09802,1.2843c5.5848,0.52232 11.11961,0.96094 16.7044,1.48326c1.73987,0.09549 3.44701,0.32407 5.23684,0.50325c-2.34831,1.51583 -4.72943,3.16457 -7.07773,4.6804c-7.3419,-0.83458 -14.78198,-1.26994 -22.10673,-1.88792c-3.79495,-0.34313 -7.55718,-0.81933 -11.40211,-1.24616c0.11552,-0.1823 0.23095,-0.36476 0.42916,-0.59644z" data-paper-data="{&quot;index&quot;:null}" fill="#87ff87"/><path d="M362.22152,243.59303c-4.75611,-0.44972 -9.54515,-0.76668 -14.26853,-1.34947c-4.93876,-0.56771 -9.92751,-1.21912 -14.88352,-2.00361c-1.30921,-0.12581 -2.81654,-0.01979 -4.04464,-0.76126c1.50415,-1.23858 3.07544,-2.17688 4.77941,-3.08088c0.13257,0.03414 0.36511,0.23567 0.58049,0.2206c3.23162,0.33914 6.33068,0.64414 9.42972,0.94914c7.77246,0.8041 15.57775,1.47529 23.36587,1.92988c0.26535,0.06862 0.58049,0.2206 0.84584,0.28921c-1.86777,1.56904 -4.00239,2.50334 -5.80463,3.80639z" data-paper-data="{&quot;index&quot;:null}" fill="#86ff86"/><path d="M357.57479,246.70822c-1.73987,-0.09549 -3.44699,-0.32406 -5.23674,-0.50309c-5.5848,-0.52232 -11.1197,-0.96112 -16.7045,-1.48343c-4.0602,-0.41158 -8.03781,-0.87272 -12.09802,-1.2843c1.80223,-1.30305 3.65434,-2.52257 5.45657,-3.82562c1.3108,0.6921 2.68545,0.55176 4.04464,0.76127c4.95592,0.78432 9.94465,1.43572 14.88342,2.00343c4.80619,0.53357 9.51242,0.89975 14.26863,1.34964c-1.42145,1.18921 -2.96002,1.99442 -4.61401,2.9821z" data-paper-data="{&quot;index&quot;:null}" fill="#01ff01"/><path d="M255.53911,277.80182c-0.32921,0.76382 -1.04078,1.0752 -1.71953,1.25367c-1.24366,-0.3918 -2.27206,-0.79884 -3.38305,-1.15633c-0.18265,-0.118 -0.28251,-0.28523 -0.51504,-0.48675c0.47904,-0.5129 0.87538,-0.97642 1.43712,-1.53872c1.41065,0.85931 2.93524,0.97005 4.18049,1.92813z" data-paper-data="{&quot;index&quot;:null}" fill="#589ca0"/><path d="M246.78973,277.24048c-0.82858,-0.07244 -1.54174,-0.32734 -2.37191,-0.96606c1.10791,-0.7749 2.00035,-1.53489 2.94287,-2.21103c0.68034,0.38781 1.37634,0.42611 1.87571,1.26237c-0.89254,0.75983 -1.66955,1.33735 -2.44667,1.91473z" data-paper-data="{&quot;index&quot;:null}" fill="#5ba3a7"/><path d="M241.39513,273.65492c0.94252,-0.67613 1.68511,-1.68704 3.0803,-0.47788c-1.91775,1.48535 -1.91774,1.48535 -3.0803,0.47788z" data-paper-data="{&quot;index&quot;:null}" fill="#56999d"/><path d="M298.55429,262.09873c0.66318,0.17121 0.88015,0.7224 0.71634,1.38746c-0.34478,1.11349 -2.69467,2.06305 -3.62321,1.82322c-0.53051,-0.1369 -0.98,-0.88963 -0.63364,-1.43684c0.34636,-0.54722 0.8254,-1.06012 1.4043,-1.40581c0.82699,-0.49383 1.42304,-0.62292 2.1362,-0.36802z" data-paper-data="{&quot;index&quot;:null}" fill="#01f4f4"/><path d="M304.45155,267.65327c0.72703,-0.66122 1.62116,-0.85477 2.5497,-0.61495c0.74588,0.12182 1.11258,0.92378 0.7335,1.60407c-0.56015,1.12857 -1.60252,1.63748 -2.7619,1.76258c-0.944,0.11002 -1.12657,-0.00781 -1.6775,-1.49404c0.36352,-0.33061 0.70989,-0.87782 1.15621,-1.25765z" data-paper-data="{&quot;index&quot;:null}" fill="#35a76d"/><path d="M271.35265,280.61137c0.87846,0.15596 1.16256,1.00747 0.70067,1.73697c-0.31354,0.41431 -0.67717,0.74475 -1.17336,1.04105c-0.95957,0.4597 -2.18608,0.2845 -2.5029,-0.43393c-0.21697,-0.5512 0.39307,-1.59624 1.30275,-2.13947c0.4135,-0.24692 1.00955,-0.376 1.67283,-0.20463z" data-paper-data="{&quot;index&quot;:null}" fill="#da6694"/><path d="M285.33362,273.9643c-0.74429,0.44446 -1.63842,0.63801 -2.61683,0.31465c-0.61321,-0.08751 -0.8146,-0.9884 -0.33556,-1.5013c0.99081,-1.15889 2.2313,-1.89964 3.9899,-1.02127c0.16857,1.03379 -0.16064,1.79761 -1.0375,2.20793z" data-paper-data="{&quot;index&quot;:null}" fill="#01f001"/><path d="M290.33745,291.73751c-0.66159,0.39507 -1.34034,0.57355 -2.00352,0.40234c-0.26535,-0.06862 -0.4479,-0.18645 -0.63046,-0.30428c-0.23253,-0.20153 -0.29966,-0.50182 -0.15142,-0.8172c0.41191,-0.8132 1.25606,-1.09043 1.96763,-1.40181c0.71147,-0.31155 1.50733,-0.10603 2.07224,0.46424c-0.09668,0.96535 -0.75827,1.36041 -1.25447,1.65671z" data-paper-data="{&quot;index&quot;:null}" fill="#008bda"/><path d="M281.63922,285.8135c-0.06227,1.39871 -0.17778,1.581 -1.17018,2.17361c-1.15779,0.69138 -2.25162,0.55048 -3.3643,-0.37346c0.9549,-2.15838 2.04715,-2.58376 4.53448,-1.80017z" data-paper-data="{&quot;index&quot;:null}" fill="#ebe502"/><path d="M315.46525,272.19436c0.43066,-0.03032 0.8614,-0.06047 1.16096,0.44118c0.16699,0.46751 0.06871,0.86656 -0.24483,1.28087c-0.42916,0.59644 -1.14064,0.90798 -1.90209,1.13583c-0.62887,0.262 -1.2749,0.3074 -2.02237,-0.38071c0.60844,-1.61132 1.41828,-2.32177 3.00831,-2.47719z" data-paper-data="{&quot;index&quot;:null}" fill="#f30001"/><path d="M300.3984,281.53193c0.61161,-0.47876 1.29046,-0.65707 2.11904,-0.58463c0.6959,0.03813 1.01272,0.75655 0.58366,1.35315c-0.42906,0.59659 -1.14064,0.90798 -1.90209,1.13583c-0.54617,0.21261 -1.25764,0.52415 -1.87254,-0.12981c0.41032,-1.37948 0.44305,-1.51255 1.07193,-1.77455z" data-paper-data="{&quot;index&quot;:null}" fill="#de93ad"/><path d="M293.78046,278.90373c-0.74429,0.44446 -1.5229,0.45571 -2.40146,0.29958c-0.71316,-0.2549 -0.93003,-0.80594 -0.63364,-1.43684c0.41191,-0.8132 1.10623,-1.34134 1.91765,-1.48551c0.89412,-0.19355 1.75552,-0.25401 2.65283,0.685c-0.543,1.34517 -0.65842,1.52762 -1.53539,1.93778z" data-paper-data="{&quot;index&quot;:null}" fill="#865492"/></g><g stroke="#000000"><path d="M316.22309,228.16567c25.8595,-21.03819 35.20031,-18.62897 40.30667,-12.35239c5.10637,6.27659 -11.71738,28.41957 -37.57689,49.45776c-25.85951,21.03818 -23.01774,-51.12424 -28.12409,-57.40082c-0.73144,-7.05644 5.60978,-5.51158 10.83145,0.36126c6.43954,7.24259 12.35252,21.73244 14.56288,19.93418z" fill="#216aff" stroke-width="2"/><path d="M328.02205,202.98364c11.09955,-9.03012 27.60626,-7.12095 36.86878,4.26424c9.26251,11.3852 7.77331,27.9351 -3.32625,36.96522c-11.09955,9.03012 -27.60627,7.12095 -36.86879,-4.26425c-9.26251,-11.3852 -7.77329,-27.9351 3.32626,-36.96522z" fill="#faddbf" stroke-width="2"/><path d="M344.04736,241.17312c11.09955,-9.03012 10.66651,-45.07577 19.92902,-33.69055c9.26251,11.3852 7.77331,27.9351 -3.32626,36.96522c-11.09955,9.03012 -27.70232,5.75548 -16.60276,-3.27465z" fill="#ef8b89" stroke-width="0"/></g></g></g></svg>