<svg version="1.1" xmlns="http://www.w3.org/2000/svg" xmlns:xlink="http://www.w3.org/1999/xlink" width="199.78831" height="199.78831" viewBox="0,0,199.78831,199.78831"><g transform="translate(-142.42969,-80.36405)"><g data-paper-data="{&quot;isPaintingLayer&quot;:true}" fill-rule="nonzero" stroke-linecap="butt" stroke-linejoin="miter" stroke-miterlimit="10" stroke-dasharray="" stroke-dashoffset="0" style="mix-blend-mode: normal"><path d="M142.42969,280.15236v-199.78831h199.78831v199.78831z" data-paper-data="{&quot;index&quot;:null}" fill="none" stroke="none" stroke-width="0"/><path d="M202.35935,186.31147c0,-19.5232 6.77223,-36.57305 42.33565,-36.34646c51.53276,0.32833 39.98626,46.52267 39.98626,46.52267c0,0 5.67709,2.22368 3.80983,8.40647c-2.28715,7.57319 -21.88125,16.76717 -43.79602,16.76717c-23.38133,0 -42.33565,-15.82667 -42.33565,-35.34987z" data-paper-data="{&quot;index&quot;:null}" fill="#0088c2" stroke="#000000" stroke-width="2"/><path d="M263.40567,208.1213c-2.25871,0.3419 -1.96466,-3.33613 -2.31125,-7.3474c-0.22674,-2.62409 -0.28423,-5.066 -0.28423,-5.066c0,0 -3.08747,2.56103 -4.1658,1.70155c-0.68058,-0.54244 24.68029,-23.71741 24.68029,-23.71741l-14.00639,16.89352c0,0 -2.17825,17.27323 -3.91261,17.53575z" data-paper-data="{&quot;index&quot;:null}" fill="#000000" stroke="none" stroke-width="0.5"/><path d="M245.4902,209.9765c-5.26753,-0.99461 -2.69993,-8.73487 -3.37336,-11.1029c-0.67343,-2.36805 -1.25901,-5.18629 -1.25901,-5.18629l-37.04814,-18.25372l49.00443,19.53327c0,0 -7.60312,-7.90262 -3.24438,-5.90762c4.35873,1.99499 6.16558,9.0284 6.16558,9.0284l-3.58236,-1.2475c0,0 -2.57344,13.90851 -6.66277,13.13637z" data-paper-data="{&quot;index&quot;:null}" fill="#000000" stroke="none" stroke-width="0.5"/><path d="M200.79953,184.48612c0,-20.17005 6.99664,-37.78481 43.73836,-37.55072c53.24018,0.3392 41.31111,48.06409 41.31111,48.06409c0,0 5.86516,2.29736 3.93605,8.68501c-2.36293,7.82411 -22.60625,17.32271 -45.24711,17.32271c-24.15604,0 -43.73836,-16.35106 -43.73836,-36.52111z" data-paper-data="{&quot;index&quot;:null}" fill="#1a54c9" stroke="#000000" stroke-width="2"/><path d="M285.18319,179.70318c0,5.78702 0.06815,7.57309 -0.20668,6.65124c-0.28038,-0.94046 0.54731,-4.67215 -3.86147,-7.0795c-1.06835,-0.58335 -5.08104,3.12444 -6.43894,2.51303c-0.85293,-0.38405 -4.30737,-5.06574 -5.26006,-5.4023c-0.66611,-0.23532 -6.19811,4.17065 -6.89486,3.94631c-1.7377,-0.55953 -5.9683,-5.66218 -7.8358,-5.98975c-1.02837,-0.18038 -4.62132,5.89925 -5.67126,5.77288c-1.35405,-0.16298 -5.01253,-6.0081 -6.37529,-6.0081c-3.62416,0 -3.7237,3.49023 -6.33127,6.48035c-1.69445,1.94304 -6.96393,-6.49771 -8.51909,-4.28969c-1.93132,2.74207 -3.84326,5.38545 -5.9546,7.17747c-1.65643,1.40591 -6.65316,-5.02659 -8.08494,-3.72336c-6.91296,6.29233 -11.31278,10.71197 -11.31278,1.66538c0,-18.19101 21.79926,-4.52375 42.60024,-15.23804c19.91049,-10.25563 39.93338,-4.66688 39.93338,13.52413z" data-paper-data="{&quot;index&quot;:null}" fill="#133c8f" stroke="#000000" stroke-width="0"/><path d="M287.44069,175.56574c0,11.69086 3.25173,4.33881 -5.70858,-0.42827c-1.09649,-0.58335 -5.21488,3.12444 -6.60855,2.51303c-0.8754,-0.38405 -4.42082,-5.06574 -5.39861,-5.4023c-0.68367,-0.23532 -6.36138,4.17065 -7.07647,3.94631c-1.78348,-0.55957 -6.12553,-5.66218 -8.04221,-5.98975c-1.05546,-0.1804 -4.74303,5.89924 -5.82063,5.77286c-1.38971,-0.16296 -5.14455,-6.00809 -6.54322,-6.00809c-3.71961,0 -3.82179,3.49023 -6.49804,6.48035c-1.7391,1.94304 -7.14736,-6.49771 -8.74348,-4.28969c-1.98217,2.74207 -3.94449,5.38545 -6.11143,7.17747c-1.70006,1.40591 -6.8284,-5.02659 -8.2979,-3.72336c-7.09508,6.29233 -11.3551,10.27719 -11.3551,1.2306c0,-18.19101 19.84507,-40.45265 42.70911,-40.45265c22.86404,0 43.49517,20.9825 43.49517,39.17352z" data-paper-data="{&quot;index&quot;:null}" fill="#1a54c9" stroke="#000000" stroke-width="2"/><path d="M281.60881,174.55858c-1.09649,-0.58335 -5.21488,3.12444 -6.60855,2.51303c-0.87539,-0.38405 -4.42082,-5.06574 -5.39861,-5.4023c-0.68365,-0.23532 -6.36138,4.17065 -7.07647,3.94631c-1.78349,-0.55957 -6.12553,-5.66218 -8.04221,-5.98975c-1.05545,-0.1804 -4.74305,5.89924 -5.82065,5.77286c-1.38971,-0.16298 -5.14455,-6.0081 -6.54322,-6.0081c-3.71963,0 -3.82179,3.49023 -6.49804,6.48035c-1.7391,1.94304 -7.14736,-6.49771 -8.74348,-4.28969c-1.98219,2.74207 -3.94451,5.38545 -6.11145,7.17747c-1.70006,1.40591 -6.8284,-5.02659 -8.2979,-3.72336c-7.09508,6.29233 -11.3551,10.27719 -11.3551,1.2306c0,-18.19101 22.1178,-4.08897 43.46668,-14.80327c20.43494,-10.25563 42.73759,-4.66688 42.73759,13.52413c0,11.69086 3.25173,4.33881 -5.70858,-0.42827z" data-paper-data="{&quot;index&quot;:null}" fill="#174bb2" stroke="#000000" stroke-width="0"/><path d="M268.73216,206.81412c-3.27707,-1.02758 -2.38801,-4.83596 -2.09864,-11.47078c0.28937,-6.63482 0.36448,-15.5558 3.25496,-15.04211c2.89048,0.5137 3.26197,6.67778 2.98878,12.94127c-0.27315,6.26349 -1.60099,14.36935 -4.14508,13.57162z" data-paper-data="{&quot;index&quot;:null}" fill="#000000" stroke="none" stroke-width="0.5"/><path d="M252.05236,208.09465c-4.9603,-1.02758 -3.61457,-4.83596 -3.17658,-11.47078c0.43798,-6.63482 0.55167,-15.5558 4.92682,-15.04211c4.37514,0.5137 4.93745,6.67778 4.52396,12.94127c-0.41347,6.26349 -2.42335,14.36935 -6.27418,13.57162z" data-paper-data="{&quot;index&quot;:null}" fill="#000000" stroke="none" stroke-width="0.5"/></g></g></svg>