<svg version="1.1" xmlns="http://www.w3.org/2000/svg" xmlns:xlink="http://www.w3.org/1999/xlink" width="176.58959" height="309.59764" viewBox="0,0,176.58959,309.59764"><g transform="translate(-241.65589,-36.90835)"><g data-paper-data="{&quot;isPaintingLayer&quot;:true}" fill-rule="nonzero" stroke-linecap="butt" stroke-linejoin="miter" stroke-miterlimit="10" stroke-dasharray="" stroke-dashoffset="0" style="mix-blend-mode: normal"><g data-paper-data="{&quot;index&quot;:null}" stroke="#000000"><path d="M295.24996,260.53409c5.50389,-32.87897 16.43501,-58.44969 24.41535,-57.11379c7.98034,1.3359 9.98788,29.07253 4.48399,61.95149c-5.5039,32.87896 -16.43501,58.44968 -24.41535,57.11378c-7.98034,-1.3359 -9.98789,-29.07253 -4.48399,-61.95149z" fill="#0d69be" stroke-width="2"/><path d="M274.48872,304.04736c2.36242,-14.11248 16.01237,-23.58853 30.48805,-21.16531c14.47568,2.42322 24.29542,15.82803 21.93301,29.94052c-2.3624,14.11249 -16.01237,23.58851 -30.48804,21.16531c-14.47568,-2.42322 -24.29542,-15.82804 -21.93301,-29.94052z" fill="#faddbf" stroke-width="2"/><path d="M326.66171,311.91167c-2.36241,14.11248 -16.01237,23.5885 -30.48804,21.1653c-14.47568,-2.42321 17.07145,-19.86611 19.43386,-33.9786c2.36241,-14.11249 13.41659,-1.29919 11.05418,12.8133z" fill="#ef8b89" stroke-width="0"/></g><g data-paper-data="{&quot;index&quot;:null}" stroke="#000000"><path d="M333.41826,185.14028c18.77199,0 33.98969,24.87307 33.98969,55.55556c0,8.35076 6.37392,33.61764 4.35457,40.7234c-5.40019,19.00234 -24.68139,14.83216 -38.34426,14.83216c-10.32729,0 -32.7059,2.78608 -38.9397,-9.09579c-5.09742,-9.71589 4.95001,-32.65706 4.95001,-46.45977c0,-30.68249 15.2177,-55.55556 33.98969,-55.55556z" fill="#216aff" stroke-width="2"/><path d="M361.1575,210.10931c2.17098,1.37012 5.51953,20.51569 5.51953,29.96813c0,8.35075 6.37393,33.61764 4.35457,40.7234c-5.40019,19.00233 -24.68138,14.83215 -38.34425,14.83215c-10.32729,0 -32.7059,2.78607 -38.9397,-9.09579c-5.09743,-9.71588 56.94455,-16.46203 56.94455,-30.26474c0,-21.0232 4.52139,-62.9273 10.4653,-46.16315z" fill="#3236f4" stroke-width="0"/></g><g stroke="#000000"><g><path d="M414.29295,128.29755c-1.65576,46.76148 -40.90569,83.32691 -87.66717,81.67115c-46.76148,-1.65576 -83.32691,-40.90569 -81.67115,-87.66717c1.65576,-46.76148 40.90569,-83.32691 87.66717,-81.67116c46.76148,1.65576 83.32692,40.90569 81.67116,87.66717z" fill="#faddbf" stroke-width="2"/><path d="M414.09307,127.42043c-1.65576,46.76149 -40.90568,83.32691 -87.66717,81.67115c-6.05911,-0.21455 -18.41195,-2.61323 -20.75457,-3.50566c-1.46446,-0.55791 27.40638,-5.91328 48.14315,-18.49384c11.12716,-6.75062 17.85863,-20.93221 20.91014,-25.56959c1.63301,-0.38137 6.72977,-19.85448 6.73486,-19.91465c2.13306,-25.23025 -21.14224,-88.37733 -13.08753,-90.66474c0.61737,-0.17532 12.33619,7.0521 21.38241,15.72584c7.27813,6.97844 12.244,15.70286 12.74563,16.08791c4.39247,3.37172 12.12582,29.6187 11.5931,44.66355z" fill="#ef8b89" stroke-width="0"/><path d="M245.49395,121.86212c1.29301,-36.51727 45.31235,-46.19171 84.55237,-24.18899c40.99503,22.98681 85.25793,-3.79033 83.9649,32.72693c-0.64303,18.16046 -8.69202,9.86607 -22.12214,-3.25675c-2.78156,-2.71791 -13.26941,9.83975 -16.49464,6.89973c-4.111,-3.74746 -7.7612,-9.18975 -11.44328,-14.83156c-2.96491,-4.54296 -14.14301,12.02674 -17.40643,8.00575c-5.022,-6.1878 -4.97372,-13.20128 -12.24902,-13.45889c-2.73568,-0.09686 -10.49531,11.37679 -13.22504,11.60771c-2.11668,0.17906 -8.89714,-12.2808 -10.97435,-11.99178c-3.77215,0.52486 -12.62751,10.46734 -16.15562,11.46706c-1.4146,0.40085 -12.20657,-8.83707 -13.56046,-8.41204c-1.9364,0.60788 -9.20373,9.76058 -10.94321,10.47089c-2.76935,1.13085 -10.56104,-6.59753 -12.74712,-5.50243c-9.02147,4.51921 -8.92561,12.45211 -9.5553,14.32008c-0.61723,1.83102 -2.05199,-2.23866 -1.64065,-13.85572z" fill="#ef8b89" stroke-width="0"/></g><path d="M244.25511,113.50219c1.29301,-36.51727 44.2001,-77.17184 90.09817,-75.54665c45.89808,1.62518 84.15339,47.72458 82.86037,84.24185c-0.64303,18.16045 -8.91151,9.85829 -22.70717,-3.27746c-2.85726,-2.7206 -13.60933,9.8277 -16.92213,6.88459c-4.22263,-3.7514 -7.97395,-9.19727 -11.75814,-14.84271c-3.04715,-4.54587 -14.50388,12.01395 -17.85689,7.98979c-5.15988,-6.19268 -5.11687,-13.20634 -12.5838,-13.47074c-2.80773,-0.09941 -10.76083,11.3674 -13.56216,11.59578c-2.17221,0.17709 -9.14265,-12.28949 -11.27423,-12.0024c-3.87089,0.52135 -12.94996,10.45592 -16.56994,11.45239c-1.45144,0.39954 -12.53593,-8.84873 -13.92505,-8.42495c-1.98678,0.6061 -9.43676,9.75232 -11.22134,10.46103c-2.84116,1.12832 -10.84503,-6.60758 -13.0876,-5.51448c-18.32606,8.93268 -12.32102,23.92258 -11.49004,0.45395z" fill="#724e36" stroke-width="2"/><path d="M244.54385,112.34888c1.29301,-36.51726 46.46139,-46.15103 86.75422,-24.11102c42.09492,23.02576 87.49733,-3.71103 86.2043,32.80624c-0.64303,18.16045 -8.9115,9.85829 -22.70716,-3.27746c-2.85726,-2.7206 -13.60933,9.8277 -16.92214,6.88459c-4.22263,-3.7514 -7.97395,-9.19727 -11.75814,-14.84271c-3.04715,-4.54587 -14.50387,12.01395 -17.85689,7.98979c-5.15988,-6.19268 -5.11686,-13.20634 -12.58379,-13.47074c-2.80773,-0.09942 -10.76083,11.36739 -13.56216,11.59578c-2.17221,0.17709 -9.14264,-12.28948 -11.27423,-12.00239c-3.8709,0.52135 -12.94997,10.45591 -16.56995,11.45238c-1.45144,0.39954 -12.53593,-8.84874 -13.92505,-8.42496c-1.98678,0.6061 -9.43677,9.75232 -11.22135,10.46104c-2.84116,1.12832 -10.84503,-6.60758 -13.0876,-5.51448c-18.32607,8.93268 -12.32104,23.92258 -11.49005,0.45395z" fill="#623728" stroke-width="0"/></g><g data-paper-data="{&quot;index&quot;:null}" stroke="#000000"><path d="M318.6513,153.66974c1.01058,-28.54105 15.25289,-51.20286 31.81105,-50.61656c16.55816,0.5863 29.16197,24.19868 28.15137,52.73974c-1.01058,28.54104 -15.21789,42.77776 -31.77606,42.19145c-16.55816,-0.58631 -29.19695,-15.77358 -28.18636,-44.31464z" fill="#f0f0f0" stroke-width="2"/><path d="M378.00749,154.94067c-1.0106,28.54104 -15.21789,42.77776 -31.77606,42.19146c-16.55816,-0.5863 23.14011,-33.01046 19.83928,-61.378c-4.77204,-41.01108 12.94738,-9.35451 11.93678,19.18655z" fill="#9a99ff" stroke-width="0"/></g><path d="M357.75196,157.78564c0.55989,-15.81231 5.69973,-28.46479 11.48017,-28.26011c5.78044,0.20469 10.01254,13.189 9.45264,29.00131c-0.55989,15.8123 -5.69974,28.46479 -11.48018,28.26011c-5.78044,-0.20469 -10.01253,-13.189 -9.45263,-29.00131z" data-paper-data="{&quot;index&quot;:null}" fill="#000000" stroke="none" stroke-width="0"/><g data-paper-data="{&quot;index&quot;:null}" stroke="#000000"><path d="M324.7203,123.83113c4.59225,-9.59265 10.78941,-21.18552 26.48984,-20.6296c15.70042,0.55593 17.7301,12.90567 21.72797,22.2017c4.20171,9.77002 -8.11948,27.6139 -23.8199,27.05797c-8.47422,-0.30005 -23.45497,4.67265 -28.11701,-1.80293c-3.97544,-5.52191 1.50128,-22.19438 3.71909,-26.82713z" fill="#a100fe" stroke-width="2"/><path d="M350.29859,125.21608c15.16508,0.53697 17.90273,-9.48318 21.75324,-0.19237c4.04684,9.76454 -8.0224,27.20559 -23.18748,26.66861c-7.882,-0.27909 -21.78948,4.75317 -26.5413,-0.67287c-4.39074,-5.01373 0.0103,-20.45356 1.32757,-22.1302c5.23375,-6.66159 16.69761,-4.0255 26.64797,-3.67317z" fill="#99008e" stroke-width="0"/></g><g data-paper-data="{&quot;index&quot;:null}" stroke="#000000"><path d="M286.8123,99.76147c16.55816,0.5863 29.16196,24.19868 28.15137,52.73973c-1.0106,28.54106 -14.69191,42.79639 -31.25007,42.21009c-16.55815,-0.5863 -29.72294,-15.79221 -28.71234,-44.33326c1.01059,-28.54105 15.25288,-51.20285 31.81105,-50.61655z" fill="#f0f0f0" stroke-width="2"/><path d="M268.93017,131.27657c-5.29896,28.06303 32.00659,63.21379 15.44843,62.62748c-16.55815,-0.58631 -29.72295,-15.79221 -28.71235,-44.33326c1.0106,-28.54104 20.92465,-58.86507 13.26392,-18.29422z" fill="#9a99ff" stroke-width="0"/></g><path d="M304.09115,127.3733c5.78044,0.20468 10.01253,13.189 9.45264,29.00131c-0.55988,15.8123 -5.69974,28.46479 -11.48018,28.26011c-5.78044,-0.20469 -10.01254,-13.189 -9.45264,-29.00131c0.55989,-15.81231 5.69975,-28.46479 11.48019,-28.26012z" data-paper-data="{&quot;index&quot;:null}" fill="#000000" stroke="none" stroke-width="0"/><g data-paper-data="{&quot;index&quot;:null}" stroke="#000000"><path d="M311.02033,122.30808c1.98375,5.02939 5.46664,20.41447 0.66929,27.14457c-5.10489,7.16155 -18.80595,5.51529 -26.89997,5.22869c-9.31243,-0.32974 -21.67015,1.19702 -25.38765,-7.76023c-2.55007,-6.14435 1.42367,-22.61101 3.41008,-26.45523c4.64535,-8.98998 7.54341,-21.16524 23.24383,-20.60932c15.70042,0.55593 21.06213,12.55808 24.9644,22.4515z" fill="#a100fe" stroke-width="2"/><path d="M310.10915,121.99078c2.87357,7.56223 7.53437,23.28491 -2.39786,30.09386c-3.69539,2.53334 -19.54232,2.31703 -23.65462,2.17141c-7.92896,-0.28075 -19.81343,1.94373 -23.57111,-5.74767c-3.42933,-7.01932 0.80361,-23.79063 3.05929,-28.3016c4.498,-8.9952 6.52008,1.19349 21.68516,1.73046c15.16508,0.53697 21.12169,-9.83477 24.87915,0.05353z" fill="#99008e" stroke-width="0"/></g><path d="M390.83235,178.84168c-0.99707,-0.07638 -0.92068,-1.07347 -0.92068,-1.07347l0.01267,-0.11154c-0.05912,-4.1682 0.28492,-8.64299 -2.05102,-12.30752c-1.91282,-4.16392 -2.96924,-0.85851 -3.18481,1.95501c-0.31935,4.16813 0.11876,8.09821 0.95813,12.19982c0,0 0.20047,0.97971 -0.77924,1.18017c-0.97971,0.20047 -1.18017,-0.77924 -1.18017,-0.77924c-0.92461,-4.51932 -2.55259,-11.90183 -0.56164,-16.39066c1.76654,-3.98286 5.13505,-2.1019 6.50402,0.8781c2.52129,3.96342 2.23053,8.72995 2.29452,13.23594l-0.0183,0.29271c0,0 -0.07641,0.99706 -1.07348,0.92068z" data-paper-data="{&quot;index&quot;:null}" fill="#000000" stroke="none" stroke-width="0.5"/><g data-paper-data="{&quot;index&quot;:null}" stroke="#000000"><path d="M340.90382,274.02358c-1.69708,-33.29323 3.478,-60.61666 11.55889,-61.02857c8.08088,-0.41191 16.00749,26.24366 17.70457,59.53689c1.69708,33.29323 -3.47801,60.61665 -11.5589,61.02857c-8.08088,0.41191 -16.00749,-26.24367 -17.70457,-59.5369z" fill="#216aff" stroke-width="2"/><path d="M355.20992,293.75625c14.65806,-0.74717 27.13127,10.23169 27.8597,24.52199c0.72843,14.2903 -10.56377,26.48057 -25.22183,27.22775c-14.65806,0.74717 -27.13127,-10.2317 -27.8597,-24.52199c-0.72843,-14.29029 10.56376,-26.48058 25.22183,-27.22775z" fill="#faddbf" stroke-width="2"/><path d="M369.07991,307.30635c-0.72844,-14.2903 12.82309,-4.15464 13.55152,10.13566c0.72842,14.2903 -10.56377,26.48057 -25.22183,27.22775c-14.65807,0.74717 12.39873,-23.07311 11.6703,-37.36341z" fill="#ef8b89" stroke-width="0"/></g></g></g></svg>