<svg version="1.1" xmlns="http://www.w3.org/2000/svg" xmlns:xlink="http://www.w3.org/1999/xlink" width="194.24054" height="325.54367" viewBox="0,0,194.24054,325.54367"><g transform="translate(-211.15102,-20.03636)"><g data-paper-data="{&quot;isPaintingLayer&quot;:true}" fill-rule="nonzero" stroke-linejoin="miter" stroke-miterlimit="10" stroke-dasharray="" stroke-dashoffset="0" style="mix-blend-mode: normal"><g data-paper-data="{&quot;index&quot;:null}" stroke="#000000" stroke-linecap="butt"><path d="M330.18007,241.39192l6.43558,-47.62757l50.53814,6.82887l-6.43558,47.62757z" fill="#ffcaa0" stroke-width="2"/><g><path d="M336.42595,193.92063l8.87396,-65.6732l51.19685,6.91788l-8.87395,65.6732z" fill="#ff0008" stroke-width="2"/><path d="M337.13438,194.23077l4.64791,-34.39768c0,0 13.38378,16.3576 21.88312,17.50606c8.05864,1.08891 27.86125,-10.78446 27.86125,-10.78446l-4.64792,34.39769c0,0 -16.36142,-2.2108 -24.60758,-3.32505c-8.33435,-1.12617 -25.13677,-3.39655 -25.13677,-3.39655z" fill="#8d005e" stroke-width="0"/></g><path d="M331.03653,240.95837l6.43559,-47.62757l8.60338,34.03282l35.49918,20.42361z" fill="#ff6e5b" stroke-width="0"/></g><g data-paper-data="{&quot;index&quot;:null}" stroke="#000000" stroke-linecap="butt"><path d="M243.53135,35.51115c14.64755,-0.59806 27.58681,25.00292 28.90066,57.18138c1.31384,32.17846 -9.49526,58.74907 -24.14281,59.34714c-14.64755,0.59807 -27.5868,-25.00291 -28.90065,-57.18138c-1.31384,-32.17846 9.49525,-58.74907 24.1428,-59.34713z" fill="#01930e" stroke-width="2"/><path d="M272.01277,92.27511c1.31384,32.17846 -9.49526,58.74908 -24.1428,59.34714c-14.64754,0.59806 16.29345,-36.41686 14.97962,-68.59531c-1.31384,-32.17846 7.84934,-22.93028 9.16318,9.24818z" fill="#31525b" stroke-width="0"/></g><g data-paper-data="{&quot;index&quot;:null}" stroke="#000000" stroke-linecap="butt"><path d="M316.44532,344.13566v-90.27109h61.17899v90.27109z" fill="#273750" stroke-width="2"/><path d="M317.23266,343.37909v-90.27109l18.42709,49.31565l42.75189,40.95544z" fill="#1f1e2e" stroke-width="0"/></g><path d="M264.4606,253.45329v-113.80147h113.80147v113.80147z" data-paper-data="{&quot;index&quot;:null}" fill="#ff0008" stroke="#000000" stroke-width="2" stroke-linecap="butt"/><g data-paper-data="{&quot;index&quot;:null}" fill="#000000" stroke="#000000" stroke-linecap="butt"><path d="M291.35368,252.98407v-111.68333h61.17899v111.68333z" stroke-width="2"/><path d="M292.14106,252.04804v-111.68333l18.42709,61.01328l42.75189,50.67005z" stroke-width="0"/></g><g data-paper-data="{&quot;index&quot;:null}" stroke="#000000" stroke-linecap="butt"><path d="M263.83937,344.58003v-90.27109h61.17899v90.27109z" fill="#273750" stroke-width="2"/><path d="M264.62675,343.82343v-90.27109l18.42709,49.31565l42.75189,40.95544z" fill="#1f1e2e" stroke-width="0"/></g><g data-paper-data="{&quot;index&quot;:null}" stroke="#000000" stroke-linecap="butt"><path d="M212.44943,238.53956l17.73218,-44.66959l47.39939,18.81582l-17.73218,44.66958z" fill="#ffcaa0" stroke-width="2"/><g><path d="M229.9598,193.97589l24.45075,-61.59447l48.01719,19.06106l-24.45074,61.59447z" fill="#ff0008" stroke-width="2"/><path d="M230.57253,194.44773l12.80657,-32.26136c0,0 9.04367,19.10257 17.01514,22.26696c7.55815,3.00031 29.63977,-3.74668 29.63977,-3.74668l-12.80658,32.26137c0,0 -15.34527,-6.09151 -23.07929,-9.16163c-7.81673,-3.10296 -23.57561,-9.35865 -23.57561,-9.35865z" fill="#8d005e" stroke-width="0"/></g><path d="M213.38516,238.32537l17.73218,-44.66958l0.14157,35.10314l29.52564,28.38226z" fill="#ff6e5b" stroke-width="0"/></g><g data-paper-data="{&quot;index&quot;:null}" stroke="#000000" stroke-linecap="butt"><path d="M396.60513,86.05197c0.45295,11.09359 0.07103,36.64375 -5.5017,46.04032c-12.57595,21.20514 -41.1047,21.38791 -71.6546,22.63526c-28.89373,1.17973 -61.30531,5.65599 -76.08676,-12.61229c-7.77276,-9.60629 -5.90306,-37.09383 -6.41143,-49.5446c-0.14223,-3.48335 -2.13138,-26.23403 -1.62767,-29.59622c4.72068,-31.50945 38.94732,-37.45283 78.78397,-39.07936c42.40908,-1.73156 76.36109,-0.62977 80.3376,33.48573c0.15737,1.35008 2.10444,27.29587 2.16059,28.67119z" fill="#ffcaa0" stroke-width="2"/><path d="M398.43737,85.98735c0.45295,11.09359 0.07103,36.64375 -5.5017,46.04032c-12.57595,21.20514 -41.1047,21.38791 -71.65461,22.63525c-28.89373,1.17973 -61.96193,5.57393 -76.74338,-12.69436c-3.12503,-3.8622 63.78242,18.68505 100.49925,-0.01032c46.8525,-23.8562 48.98059,-104.02485 51.23986,-84.64206c0.15737,1.35008 2.10443,27.29587 2.16058,28.67119z" fill="#ff6e5b" stroke-width="0"/></g><g data-paper-data="{&quot;index&quot;:null}" stroke="#000000" stroke-linecap="butt"><path d="M375.41272,28.0508c14.64755,-0.59807 27.58681,25.00292 28.90066,57.18138c1.31384,32.17846 -9.49525,58.74907 -24.1428,59.34713c-14.64755,0.59807 -27.58681,-25.00292 -28.90066,-57.18137c-1.31384,-32.17846 9.49525,-58.74907 24.1428,-59.34713z" fill="#01930e" stroke-width="2"/><path d="M403.89413,84.81477c1.31384,32.17846 -9.49527,58.74908 -24.1428,59.34714c-14.64753,0.59806 16.29345,-36.41686 14.97961,-68.59531c-1.31384,-32.17846 7.84935,-22.93028 9.16319,9.24818z" fill="#31525b" stroke-width="0"/></g><g data-paper-data="{&quot;index&quot;:null}" stroke-linecap="butt"><path d="M219.04012,55.9811c-0.72049,-17.64626 40.02132,-33.6387 90.99938,-35.72013c50.97806,-2.08143 92.88802,10.53634 93.60851,28.1826c0.72049,17.64625 -40.02131,33.6387 -90.99937,35.72012c-50.97806,2.08144 -92.88803,-10.53635 -93.60852,-28.1826z" fill="#000000" stroke="none" stroke-width="NaN"/><path d="M311.01728,61.42661c50.97806,-2.08143 92.65379,-30.31509 93.37428,-12.66884c0.72049,17.64625 -40.02131,33.6387 -90.99937,35.72013c-50.97806,2.08144 -92.88803,-10.53635 -93.60852,-28.1826c-0.72049,-17.64626 40.25556,7.21274 91.23362,5.1313z" fill="#ff0000" stroke="#000000" stroke-width="2"/><path d="M312.04307,77.43206c50.97806,-2.08144 85.34437,-24.6044 87.91865,-20.48203c2.49248,3.99138 -12.79596,13.20529 -38.04608,19.72467c-13.60087,3.51163 -30.36278,5.82927 -48.18157,7.05852c-50.91962,3.51277 -87.9956,-13.61226 -88.19388,-18.46835c-0.19828,-4.8561 35.52481,14.24863 86.50287,12.1672z" fill="#900056" stroke="#000000" stroke-width="0"/></g><path d="M303.37118,113.37684c-0.64121,-15.70444 1.74164,-28.55392 5.32225,-28.7001c3.58061,-0.1462 7.00307,12.46624 7.64428,28.17067c0.64121,15.70443 -1.74163,28.55391 -5.32224,28.7001c-3.58062,0.1462 -7.00308,-12.46625 -7.64429,-28.17069z" data-paper-data="{&quot;index&quot;:null}" fill="#000000" stroke="none" stroke-width="0" stroke-linecap="butt"/><path d="M276.26656,86.8594c3.39215,-0.1385 6.65977,12.42926 7.29842,28.07088c0.63865,15.64162 -1.59351,28.43393 -4.98567,28.57243c-3.39215,0.1385 -6.65977,-12.42926 -7.29842,-28.07087c-0.63865,-15.64162 1.59351,-28.43393 4.98567,-28.57243z" data-paper-data="{&quot;index&quot;:null}" fill="#000000" stroke="none" stroke-width="0" stroke-linecap="butt"/><path d="M287.72901,88.53317l29.97502,-1.22388" data-paper-data="{&quot;index&quot;:null}" fill="none" stroke="#000000" stroke-width="5" stroke-linecap="round"/><path d="M279.60343,88.09799l-23.49846,-3.56814" data-paper-data="{&quot;index&quot;:null}" fill="none" stroke="#000000" stroke-width="5" stroke-linecap="round"/><path d="M324.41558,129.78648c0.47719,-6.36166 5.59848,-3.4914 11.96014,-3.0142c6.36166,0.47719 11.55464,-1.61938 11.07745,4.74228c-0.47719,6.36166 -6.02118,11.13196 -12.38284,10.65476c-6.36166,-0.47719 -11.13196,-6.02118 -10.65476,-12.38284z" fill="#000000" stroke="none" stroke-width="0" stroke-linecap="butt"/></g></g></svg>