<svg version="1.1" xmlns="http://www.w3.org/2000/svg" xmlns:xlink="http://www.w3.org/1999/xlink" width="186.21763" height="322.83516" viewBox="0,0,186.21763,322.83516"><g transform="translate(-231.93973,-38.15226)"><g data-paper-data="{&quot;isPaintingLayer&quot;:true}" fill-rule="nonzero" stroke-linejoin="miter" stroke-miterlimit="10" stroke-dasharray="" stroke-dashoffset="0" style="mix-blend-mode: normal"><g data-paper-data="{&quot;index&quot;:null}" stroke="#000000" stroke-linecap="butt"><path d="M350.23846,235.67677c1.7149,-2.27565 -12.98461,-7.64627 -20.46143,-13.8123c-6.06277,-4.99988 -7.84213,-11.27934 -0.76339,-10.81055c6.46195,4.86966 78.46897,-0.65092 58.40598,25.97229c-20.063,26.62321 -41.56572,44.25795 -48.02767,39.38828c-6.46195,-4.86966 -9.2165,-14.11453 10.8465,-40.73773z" fill="#216aff" stroke-width="2"/><path d="M362.32825,243.70589c11.72144,8.83317 14.24251,25.25757 5.63096,36.68492c-8.61155,11.42735 -25.0947,13.53035 -36.81614,4.69718c-11.72144,-8.83317 -14.2425,-25.25756 -5.63095,-36.68491c8.61155,-11.42735 25.09469,-13.53036 36.81613,-4.69719z" fill="#faddbf" stroke-width="2"/><path d="M368.15975,279.46823c-8.61154,11.42736 -25.09469,13.53036 -36.81613,4.69719c-11.72144,-8.83317 24.31541,-9.73949 32.92696,-21.16684c8.61155,-11.42737 12.50072,5.0423 3.88917,16.46965z" fill="#ef8b89" stroke-width="0"/></g><g stroke="#000000" stroke-linecap="butt"><path d="M327.76518,340.83534v-95.29492h29.49199v95.29492z" fill="#73fffc" stroke-width="2"/><path d="M327.43943,340.21741l1.32626,-93.78573c0,0 5.20288,68.11227 6.3799,77.52842c0.2602,2.08162 2.52228,2.78987 2.52228,2.78987l18.60659,13.13896z" fill="#59a9e6" stroke-width="0"/></g><g stroke="#000000" stroke-linecap="butt"><path d="M288.4238,338.41279v-95.29492h29.49199v95.29492z" fill="#73fffc" stroke-width="2"/><path d="M288.09805,337.7949l1.32626,-93.78573c0,0 5.20288,68.11227 6.3799,77.52842c0.2602,2.08162 2.52228,2.78987 2.52228,2.78987l18.60659,13.13896z" fill="#59a9e6" stroke-width="0"/></g><g stroke="#000000" stroke-linecap="butt"><path d="M355.22917,235.69588c0,13.80271 10.04743,36.74388 4.95001,46.45977c-6.2338,11.88187 -28.61241,9.09579 -38.9397,9.09579c-13.66287,0 -32.94407,4.17018 -38.34426,-14.83216c-2.01935,-7.10576 4.35457,-32.37264 4.35457,-40.7234c0,-30.68249 15.2177,-55.55556 33.98969,-55.55556c18.77199,0 33.98969,24.87307 33.98969,55.55556z" fill="#216aff" stroke-width="2"/><path d="M303.96554,251.27245c0,13.80271 62.04198,20.54886 56.94455,30.26474c-6.2338,11.88186 -28.61241,9.09579 -38.9397,9.09579c-13.66287,0 -32.94406,4.17018 -38.34425,-14.83215c-2.01936,-7.10576 4.35457,-32.37265 4.35457,-40.7234c0,-9.45244 3.34855,-28.59801 5.51953,-29.96813c5.94391,-16.76415 10.4653,25.13995 10.4653,46.16315z" fill="#3236f4" stroke-width="0"/></g><g stroke="#000000" stroke-linecap="butt"><g><path d="M246.48063,117.1709c5.25788,-46.49444 47.21142,-79.92328 93.70585,-74.66539c46.49444,5.25788 79.92328,47.21142 74.66539,93.70585c-5.25788,46.49444 -47.21142,79.92328 -93.70585,74.66539c-46.49444,-5.25788 -79.92328,-47.21142 -74.66539,-93.70585z" fill="#faddbf" stroke-width="2"/><path d="M246.80765,116.33283c1.69165,-14.95894 13.21087,-39.7786 18.05253,-42.46574c0.55293,-0.30689 6.75102,-8.20364 14.97863,-14.03254c10.22636,-7.24494 22.88286,-12.66528 23.46761,-12.40083c7.62935,3.45017 -24.70328,62.4747 -26.31404,87.74367c-0.00385,0.06026 2.16567,20.07206 3.72458,20.69007c2.33431,5.03668 6.90095,20.05586 16.91101,28.3735c18.65492,15.50091 46.42042,25.05508 44.8897,25.39092c-2.44861,0.53723 -15.02011,1.08811 -21.04463,0.40683c-46.49444,-5.25788 -79.92328,-47.21142 -74.66539,-93.70585z" fill="#ef8b89" stroke-width="0"/><path d="M414.38326,135.69724c-1.30623,11.55071 -3.32542,15.36435 -3.6659,13.46232c-0.34736,-1.94042 0.91726,-9.77244 -7.33918,-15.57258c-2.0007,-1.40549 -10.84684,5.08943 -13.41916,3.56257c-1.61572,-0.95906 -7.45393,-11.08334 -9.27952,-11.97012c-1.27642,-0.62003 -13.31265,6.92549 -14.65268,6.32043c-3.34211,-1.50905 -10.63453,-12.64866 -14.28805,-13.72403c-2.01188,-0.59217 -10.55556,10.73161 -12.6227,10.24238c-2.66584,-0.63092 -8.64873,-13.1234 -11.36877,-13.43101c-7.23374,-0.81804 -8.22021,6.12588 -14.09977,11.50549c-3.82068,3.4958 -12.43319,-14.54109 -16.0356,-10.485c-4.47377,5.03717 -8.88661,9.88171 -13.50527,12.98198c-3.62351,2.43228 -12.14493,-11.53465 -15.29687,-9.25662c-15.2184,10.99892 -24.40251,18.01571 -22.36054,-0.04102c4.10601,-36.30872 43.93642,-3.29725 87.87295,-19.98754c42.0556,-15.97579 84.16708,0.08407 80.06106,36.39279z" fill="#ef8b89" stroke-width="0"/></g><path d="M416.8413,127.61136c-2.63883,23.33461 5.51099,9.39408 -11.29749,-2.14334c-2.05687,-1.41184 -11.11397,5.05921 -13.7577,3.52428c-1.66056,-0.96413 -7.68038,-11.10894 -9.55607,-12.00139c-1.31144,-0.62399 -13.63852,6.88864 -15.01518,6.27944c-3.43347,-1.51939 -10.94831,-12.68415 -14.70001,-13.77061c-2.06595,-0.59829 -10.79852,10.70413 -12.92088,10.20866c-2.73703,-0.63898 -8.91226,-13.1532 -11.70395,-13.46891c-7.42429,-0.83958 -8.41598,6.10375 -14.43264,11.46785c-3.90977,3.48572 -12.79931,-14.58249 -16.48349,-10.53565c-4.5753,5.0257 -9.08867,9.85886 -13.81832,12.94657c-3.71059,2.42243 -12.49472,-11.57421 -15.72193,-9.30469c-15.58185,10.95782 -24.98419,17.94993 -22.94222,-0.10681c4.10601,-36.30872 48.741,-76.26296 94.37697,-71.10217c45.63595,5.1608 82.07897,51.69807 77.97295,88.00679z" fill="#724e36" stroke-width="2"/><path d="M416.72581,126.42809c-2.63883,23.33461 5.51099,9.39408 -11.29749,-2.14334c-2.05687,-1.41184 -11.11397,5.05921 -13.7577,3.52428c-1.66056,-0.96413 -7.68038,-11.10894 -9.55608,-12.00139c-1.31144,-0.62399 -13.63852,6.88864 -15.01518,6.27944c-3.43347,-1.51939 -10.94831,-12.68415 -14.70001,-13.77061c-2.06595,-0.59829 -10.79852,10.70413 -12.92088,10.20866c-2.73703,-0.63898 -8.91226,-13.1532 -11.70395,-13.46891c-7.42429,-0.83958 -8.41598,6.10375 -14.43264,11.46785c-3.90977,3.48572 -12.79931,-14.58249 -16.48349,-10.53565c-4.5753,5.0257 -9.08867,9.85886 -13.81833,12.94657c-3.71059,2.42243 -12.49472,-11.57421 -15.72193,-9.30469c-15.58185,10.95782 -24.98419,17.94993 -22.94222,-0.10681c4.10601,-36.30872 45.06942,-3.16911 90.09956,-19.73574c43.1024,-15.85742 86.35635,0.33165 82.25034,36.64037z" fill="#623728" stroke-width="0"/></g><g stroke="#000000" stroke-linecap="butt"><path d="M346.80856,151.56494c-3.20917,28.37806 -17.94933,41.53558 -34.41293,39.67377c-16.4636,-1.86181 -28.41622,-18.03791 -25.20705,-46.41596c3.20917,-28.37806 19.1571,-49.87372 35.6207,-48.01192c16.4636,1.86181 27.20845,26.37605 23.99929,54.75412z" fill="#f0f0f0" stroke-width="2"/><path d="M302.54943,126.85263c-7.44787,27.57067 27.03508,65.49434 10.57148,63.63253c-16.4636,-1.86181 -28.41622,-18.03791 -25.20705,-46.41596c3.20917,-28.37806 25.40299,-57.07562 14.63557,-17.21657z" fill="#9a99ff" stroke-width="0"/></g><path d="M342.01362,159.30842c-1.77794,15.722 -7.87846,27.94031 -13.62588,27.29036c-5.74742,-0.64995 -8.96533,-13.92205 -7.1874,-29.64405c1.77794,-15.722 7.87846,-27.94031 13.62588,-27.29036c5.74742,0.64995 8.96533,13.92205 7.1874,29.64405z" fill="#000000" stroke="none" stroke-width="0" stroke-linecap="butt"/><g stroke="#000000" stroke-linecap="butt"><path d="M345.20598,121.15759c3.28169,10.66612 -11.42201,12.91996 -27.03277,11.1546c-15.61076,-1.76536 -26.48623,-7.66635 -20.88975,-16.70997c5.32497,-8.60486 9.15358,-20.52029 24.76434,-18.75494c15.61076,1.76536 20.03067,14.14535 23.15817,24.31031z" fill="#a100fe" stroke-width="2"/><path d="M344.32737,120.70173c3.13059,10.64904 -11.08665,12.95788 -26.16513,11.25272c-15.07848,-1.70516 -25.56533,-7.56221 -20.12284,-16.62324c5.17846,-8.62143 6.40859,1.69289 21.48706,3.39805c15.07848,1.70516 21.81739,-8.1762 24.80089,1.97247z" fill="#99008e" stroke-width="0"/></g><g data-paper-data="{&quot;index&quot;:null}" stroke="#000000" stroke-linecap="butt"><path d="M386.29848,102.50252c16.4636,1.86181 27.20845,26.37605 23.99929,54.75412c-3.20917,28.37805 -18.47232,41.47643 -34.93593,39.61462c-16.4636,-1.86181 -27.89324,-17.97876 -24.68407,-46.35682c3.20917,-28.37806 19.1571,-49.87372 35.6207,-48.01192z" fill="#f0f0f0" stroke-width="2"/><path d="M409.75908,156.36016c-3.20917,28.37805 -18.47232,41.47643 -34.93593,39.61462c-16.4636,-1.86181 25.61751,-31.12713 24.5147,-59.66477c-1.59433,-41.25698 13.63038,-8.32791 10.42122,20.05015z" fill="#9a99ff" stroke-width="0"/></g><path d="M398.26297,136.66567c5.74742,0.64995 8.96533,13.92205 7.1874,29.64405c-1.77794,15.722 -7.87846,27.94031 -13.62588,27.29036c-5.74742,-0.64995 -8.96533,-13.92205 -7.1874,-29.64405c1.77794,-15.722 7.87846,-27.94031 13.62588,-27.29036z" data-paper-data="{&quot;index&quot;:null}" fill="#000000" stroke="none" stroke-width="0" stroke-linecap="butt"/><g data-paper-data="{&quot;index&quot;:null}" stroke="#000000" stroke-linecap="butt"><path d="M359.03037,121.23285c5.31851,-9.20983 12.39146,-20.29013 28.00222,-18.52477c15.61076,1.76536 16.68176,14.23488 19.95065,23.81158c3.43556,10.06502 -8.48305,13.38832 -24.09381,11.62295c-15.61076,-1.76536 -29.43981,-7.24585 -23.85907,-16.90976z" fill="#a100fe" stroke-width="2"/><path d="M359.98859,120.98472c5.17452,-9.22612 9.53658,1.91063 24.61506,3.61579c15.07848,1.70516 18.58089,-8.07397 21.70326,1.48617c3.28158,10.04761 -8.24843,13.41485 -23.3269,11.70968c-15.07848,-1.70516 -28.42107,-7.13065 -22.99144,-16.81164z" fill="#99008e" stroke-width="0"/></g><path d="M391.63632,338.87004c0,11.6628 -14.51982,21.11737 -32.43092,21.11737c-17.9111,0 -32.43092,-9.45457 -32.43092,-21.11737c0,-2.33142 -0.03339,-13.76009 1.08979,-15.13837c4.49546,-5.51647 17.81784,5.26144 32.14847,5.26144c17.9111,0 31.62358,-1.78588 31.62358,9.87692z" fill="#000082" stroke="#000000" stroke-width="2" stroke-linecap="butt"/><path d="M389.75004,336.13774c0,6.30841 -13.89058,10.1901 -31.80169,10.1901c-17.9111,0 -30.16566,-2.95748 -30.16566,-9.26589c0,-1.26107 -0.03338,-12.52602 1.0898,-13.27153c4.49546,-2.98386 15.55258,5.7726 29.88321,5.7726c17.9111,0 30.99434,0.26631 30.99434,6.57472z" fill="#2e0048" stroke="#000000" stroke-width="0" stroke-linecap="butt"/><path d="M348.64938,338.2252c0,11.6628 -14.51982,21.11737 -32.43092,21.11737c-17.9111,0 -32.43092,-9.45457 -32.43092,-21.11737c0,-2.33142 -0.03339,-13.76009 1.08979,-15.13837c4.49546,-5.51647 17.81784,5.26144 32.14847,5.26144c17.9111,0 31.62358,-1.78588 31.62358,9.87692z" fill="#000082" stroke="#000000" stroke-width="2" stroke-linecap="butt"/><path d="M346.7631,335.49289c0,6.30841 -13.89058,10.1901 -31.80169,10.1901c-17.9111,0 -30.16566,-2.95748 -30.16566,-9.26589c0,-1.26107 -0.03338,-12.52602 1.0898,-13.27153c4.49546,-2.98386 15.55258,5.7726 29.88321,5.7726c17.9111,0 30.99434,0.26631 30.99434,6.57472z" fill="#2e0048" stroke="#000000" stroke-width="0" stroke-linecap="butt"/><g><path d="M279.64908,257.21887c-11.8357,-9.35624 -14.04327,-20.77275 -5.33653,-32.90956c6.8096,-9.49234 24.76115,-11.89352 36.59687,-2.53727c11.83578,9.35626 14.38794,23.80099 5.12497,35.51878c-1.44855,1.83244 -3.32925,3.09367 -5.0362,4.26165c-9.2083,6.30062 -21.36425,3.55954 -31.34909,-4.33357z" fill="#485e84" stroke="#000000" stroke-width="2" stroke-linecap="butt"/><path d="M297.7188,217.82326c0,0 -3.90517,4.22855 -3.39099,6.16478c4.93207,18.57279 15.27405,28.0734 18.93442,30.95463c0.83162,0.65462 1.88121,0.2556 1.88121,0.2556c0,0 -1.12946,1.78673 -3.25456,3.5182c-2.26128,1.84243 -5.61228,3.65204 -8.63591,4.20233c-3.45384,0.62855 -11.76397,-0.04236 -11.76397,-0.04236l-18.25926,-10.26928c0,0 -2.71006,-13.17614 -2.38807,-15.31932c0.31542,-2.09962 1.29085,-4.49362 2.22553,-7.08077c1.45123,-4.0169 4.38051,-7.48478 6.78277,-9.07346c3.06587,-2.02748 7.57728,-3.21028 11.38035,-3.52516c3.53946,-0.29305 6.48841,0.21493 6.48841,0.21493z" fill="#343545" stroke="none" stroke-width="0" stroke-linecap="butt"/><path d="M284.48626,238.36758c0,0 4.00735,-8.08328 8.63594,-10.35402c5.8593,-2.87455 18.63012,-5.11252 18.63012,-5.11252" fill="none" stroke="#000000" stroke-width="1" stroke-linecap="round"/><path d="M319.03027,250.86672c0,0 -5.51728,4.54857 -9.39016,6.41204c-3.90984,1.88131 -13.57534,2.73617 -13.57534,2.73617" fill="none" stroke="#000000" stroke-width="1" stroke-linecap="round"/><path d="M274.31373,234.25955c0,0 3.98954,-8.35882 9.115,-10.5901c7.86485,-3.4238 19.19398,-5.90302 19.19398,-5.90302" fill="none" stroke="#000000" stroke-width="1" stroke-linecap="round"/><path d="M280.1564,220.1365c0,0 17.30385,0.22799 27.19118,14.57317c10.83032,15.71333 -0.12028,29.03905 -0.12028,29.03905" fill="none" stroke="#000000" stroke-width="1" stroke-linecap="round"/><path d="M273.30622,226.75317c0,0 17.51803,3.15929 26.27002,15.79899c7.18617,10.37836 -0.98779,22.46576 -0.98779,22.46576" fill="none" stroke="#000000" stroke-width="1" stroke-linecap="round"/><path d="M315.96256,236.31674c-0.41418,-1.12945 -0.02507,-2.3108 0.86902,-2.63867c0.89411,-0.32794 1.18983,0.41135 1.604,1.54079c0.41418,1.12945 0.78995,2.22132 -0.10415,2.54921c-0.89411,0.32794 -1.95473,-0.32189 -2.36886,-1.45131z" fill="#8fbbbe" stroke="none" stroke-width="0" stroke-linecap="butt"/><path d="M317.51292,243.41993c-0.47185,-0.37303 -0.40081,-1.24915 0.1587,-1.95693c0.55951,-0.70779 0.88567,-0.91952 1.35753,-0.54653c0.47185,0.37303 0.54322,1.36173 -0.01632,2.06949c-0.55951,0.70779 -1.02809,0.80695 -1.49992,0.43395z" fill="#8fbbbe" stroke="none" stroke-width="0" stroke-linecap="butt"/><path d="M313.52022,229.84383c-0.64415,-0.63177 -0.82491,-1.49195 -0.40376,-1.92138c0.42109,-0.42942 0.94705,0.16175 1.5912,0.79347c0.64415,0.63177 1.16261,1.06475 0.74148,1.4942c-0.42109,0.42942 -1.28477,0.26543 -1.92891,-0.36631z" fill="#8fbbbe" stroke="none" stroke-width="0" stroke-linecap="butt"/><path d="M293.26515,217.31059c0,0 9.6511,3.39646 15.36259,8.37628c3.23812,2.82332 5.11742,6.4295 6.51157,9.1795c1.23295,2.43194 1.67066,8.99198 1.48317,14.04798c-0.13803,3.72245 -0.7969,6.59175 -0.7969,6.59175" fill="none" stroke="#000000" stroke-width="0.5" stroke-linecap="round"/><path d="M321.4988,236.62161c0,0 -6.87052,8.03579 -11.64203,10.57544c-4.0201,2.13973 -14.83609,3.89431 -14.83609,3.89431" fill="none" stroke="#000000" stroke-width="1" stroke-linecap="round"/><path d="M291.61954,246.32028c0,0 6.36292,-7.27608 10.10157,-9.82036c6.56434,-4.46726 16.87965,-5.87128 16.87965,-5.87128" fill="none" stroke="#000000" stroke-width="1" stroke-linecap="round"/></g><g stroke="#000000" stroke-linecap="butt"><path d="M273.23105,231.30797c18.65491,27.62812 15.42448,36.71764 8.71863,41.24554c-6.70587,4.5279 -27.26483,-14.19854 -45.91974,-41.82667c-18.6549,-27.62813 52.96879,-18.37962 59.67466,-22.90751c7.09352,-0.10095 4.99082,6.07774 -1.32316,10.75639c-7.78661,5.76987 -22.74493,10.37072 -21.15039,12.73226z" fill="#216aff" stroke-width="2"/><path d="M297.26392,245.29982c8.00716,11.85869 4.63748,28.13019 -7.52639,36.34342c-12.16388,8.21322 -28.51574,5.258 -36.5229,-6.60069c-8.00716,-11.85869 -4.63747,-28.1302 7.52641,-36.34342c12.16388,-8.21322 28.51574,-5.25799 36.5229,6.6007z" fill="#faddbf" stroke-width="2"/><path d="M257.8005,257.86511c8.00716,11.85869 43.94847,14.6332 31.78459,22.84643c-12.16388,8.21322 -28.51574,5.258 -36.5229,-6.6007c-8.00716,-11.85869 -3.26886,-28.10442 4.7383,-16.24573z" fill="#ef8b89" stroke-width="0"/></g><path d="M286.55871,174.96959c0.77898,0.97761 -0.19864,1.75657 -0.19864,1.75657l-0.10792,0.00398c-1.55784,2.39539 -3.01027,5.05041 -5.90442,6.08175c-3.00048,1.06923 -6.70964,-0.36414 -7.01433,-3.76335c-0.40856,-4.55803 4.36865,-8.49215 6.79894,-11.75556c0,0 0.74717,-1.00211 1.74928,-0.25493c1.00211,0.74718 0.25494,1.74928 0.25494,1.74928c-2.05362,2.75115 -6.46314,6.28001 -6.30874,10.09437c0.069,1.70467 2.36219,2.08022 3.70594,1.56641c2.28685,-0.87446 3.38509,-3.17515 4.62211,-5.0802l0.64628,-0.59697c0,0 0.9776,-0.77897 1.75656,0.19864z" fill="#000000" stroke="none" stroke-width="0.5" stroke-linecap="butt"/></g></g></svg>