<svg version="1.1" xmlns="http://www.w3.org/2000/svg" xmlns:xlink="http://www.w3.org/1999/xlink" width="110.52354" height="110.52354" viewBox="0,0,110.52354,110.52354"><g transform="translate(-264.73823,-124.73823)"><g data-paper-data="{&quot;isPaintingLayer&quot;:true}" fill-rule="nonzero" stroke-linejoin="miter" stroke-miterlimit="10" stroke-dasharray="" stroke-dashoffset="0" style="mix-blend-mode: normal"><path d="M267.23823,180c0,-29.13952 23.62225,-52.76177 52.76177,-52.76177c29.13952,0 52.76177,23.62225 52.76177,52.76177c0,29.13952 -23.62225,52.76177 -52.76177,52.76177c-29.13952,0 -52.76177,-23.62225 -52.76177,-52.76177z" fill="#001aff" stroke="#000000" stroke-width="5" stroke-linecap="butt"/><path d="M370.63816,167.15219l-14.87708,14.23025l-11.85854,-16.38636l-22.42343,13.15221l-15.30831,-14.01465l-19.40489,12.28976l-14.01464,-17.24879" fill="none" stroke="#000000" stroke-width="5" stroke-linecap="round"/><path d="M328.06064,183.7547l-3.31004,28.31921" fill="none" stroke="#000000" stroke-width="7.5" stroke-linecap="round"/><path d="M339.82966,211.15445l3.49392,-27.76753" fill="none" stroke="#000000" stroke-width="7.5" stroke-linecap="round"/><path d="M318.60399,182.73992l32.08284,-3.03271" fill="none" stroke="#000000" stroke-width="3.5" stroke-linecap="round"/><path d="M309.63809,214.15234c-1.06066,1.06066 -2.12132,0 -2.12132,0l-0.09057,-0.13177c-2.39093,-1.59412 -5.63945,-3.03467 -6.93743,-5.78098c-0.99844,-2.11254 -0.24987,-6.25971 -0.11126,-8.48757c0,0 0.09357,-1.49708 1.59065,-1.40351c1.49708,0.09357 1.40351,1.59065 1.40351,1.59065c-0.10173,1.62006 -0.86114,5.59937 -0.11126,7.15239c0.96828,2.00532 4.07204,3.2611 5.82989,4.43288l0.54779,0.5066c0,0 1.06066,1.06066 0,2.12132z" fill="#000000" stroke="none" stroke-width="0.5" stroke-linecap="butt"/></g></g></svg>