<svg version="1.1" xmlns="http://www.w3.org/2000/svg" xmlns:xlink="http://www.w3.org/1999/xlink" width="110.54536" height="110.54536" viewBox="0,0,110.54536,110.54536"><g transform="translate(-264.72732,-124.72732)"><g data-paper-data="{&quot;isPaintingLayer&quot;:true}" fill-rule="nonzero" stroke-linejoin="miter" stroke-miterlimit="10" stroke-dasharray="" stroke-dashoffset="0" style="mix-blend-mode: normal"><path d="M268.40828,191.04984c-6.10266,-28.49332 12.04855,-56.5389 40.54187,-62.64156c28.49332,-6.10266 56.5389,12.04855 62.64156,40.54187c6.10266,28.49332 -12.04855,56.5389 -40.54187,62.64156c-28.49332,6.10266 -56.5389,-12.04855 -62.64156,-40.54187z" fill="#001aff" stroke="#000000" stroke-width="5" stroke-linecap="butt"/><path d="M366.82449,156.832l-11.56694,17.03037l-15.02735,-13.53945l-19.17171,17.55666l-17.90391,-10.49786l-16.40073,16.08117l-17.31624,-13.93121" fill="none" stroke="#000000" stroke-width="5" stroke-linecap="round"/><path d="M328.73392,179.99455l2.39889,27.88348" fill="none" stroke="#000000" stroke-width="7.5" stroke-linecap="round"/><path d="M292.32225,211.88357c-2.41779,-0.63585 -1.78194,-3.05364 -1.78194,-3.05364l0.8691,-3.05397c0.80893,-0.9443 1.42484,-2.09656 2.42678,-2.83291c1.06786,-0.78479 2.3123,-1.48844 3.63108,-1.61909c6.16536,-0.61068 8.84832,6.63929 7.60566,11.78616c-0.32092,1.32921 -1.19319,2.46078 -1.78979,3.69117c0,0 -1.12663,2.23175 -3.35838,1.10513c-2.23176,-1.12662 -1.10513,-3.35838 -1.10513,-3.35838c0.46466,-0.87188 1.11656,-1.66742 1.39398,-2.61564c0.33404,-1.14179 -0.24524,-4.92298 -1.05848,-5.77676c-0.8252,-0.86631 -2.98138,1.55479 -3.31884,1.94468l-0.46039,2.00129c0,0 -0.63585,2.41779 -3.05364,1.78194z" fill="#000000" stroke="none" stroke-width="0.5" stroke-linecap="butt"/><path d="M315.1115,182.62729l2.39889,27.88348" fill="none" stroke="#000000" stroke-width="7.5" stroke-linecap="round"/><path d="M296.41472,179.48722l22.59077,2.11129" fill="none" stroke="#000000" stroke-width="7.5" stroke-linecap="round"/><path d="M324.91709,169.35304l20.47948,0.63339" fill="none" stroke="#000000" stroke-width="7.5" stroke-linecap="round"/></g></g></svg>