<svg version="1.1" xmlns="http://www.w3.org/2000/svg" xmlns:xlink="http://www.w3.org/1999/xlink" width="220.04428" height="323.61938" viewBox="0,0,220.04428,323.61938"><g transform="translate(-228.865,-21.96065)"><g data-paper-data="{&quot;isPaintingLayer&quot;:true}" fill-rule="nonzero" stroke-linecap="butt" stroke-linejoin="miter" stroke-miterlimit="10" stroke-dasharray="" stroke-dashoffset="0" style="mix-blend-mode: normal"><g data-paper-data="{&quot;index&quot;:null}" stroke="#000000"><path d="M447.50766,83.80263l-29.15534,38.20691l-40.54178,-30.93706l29.15534,-38.20691z" fill="#ffcaa0" stroke-width="2"/><g><path d="M418.85728,122.1681l-40.20202,52.68315l-41.0702,-31.34029l40.20202,-52.68315z" fill="#0000c0" stroke-width="2"/><path d="M378.50712,91.10997c0,0 13.47892,10.28564 20.16476,15.38754c6.61508,5.04791 19.74024,15.0636 19.74024,15.0636l-21.05664,27.59388c0,0 -5.59029,-22.40242 -12.05494,-27.33554c-6.81819,-5.20289 -27.85006,-3.1156 -27.85006,-3.1156l21.05663,-27.59388z" fill="#56006b" stroke-width="0"/></g><path d="M447.80603,84.71502l-39.53551,-10.68921l-30.1616,17.95907l29.15534,-38.20691z" fill="#ff6e5b" stroke-width="0"/></g><g data-paper-data="{&quot;index&quot;:null}" stroke="#000000"><path d="M257.22608,33.58113c14.65834,0.20295 26.17984,26.4725 25.73399,58.67469c-0.44585,32.20219 -12.69021,58.14268 -27.34857,57.93974c-14.65834,-0.20295 -26.17984,-26.4725 -25.73399,-58.67469c0.44585,-32.20219 12.69021,-58.14268 27.34857,-57.93974z" fill="#01930e" stroke-width="2"/><path d="M282.56426,91.81613c-0.44585,32.20219 -12.69022,58.14268 -27.34857,57.93974c-14.65833,-0.20295 18.25839,-35.47246 18.70424,-67.67464c0.44585,-32.20219 9.09018,-22.46727 8.64433,9.7349z" fill="#31525b" stroke-width="0"/></g><g data-paper-data="{&quot;index&quot;:null}" stroke="#000000"><path d="M316.44531,344.13567v-90.27109h61.17899v90.27109z" fill="#273750" stroke-width="2"/><path d="M317.23265,343.37909v-90.27109l18.42709,49.31565l42.75189,40.95544z" fill="#1f1e2e" stroke-width="0"/></g><path d="M264.46059,253.45329v-113.80147h113.80147v113.80147z" data-paper-data="{&quot;index&quot;:null}" fill="#0000c0" stroke="#000000" stroke-width="2"/><g data-paper-data="{&quot;index&quot;:null}" stroke="#000000"><path d="M263.83936,344.58003v-90.27109h61.17899v90.27109z" fill="#273750" stroke-width="2"/><path d="M264.62674,343.82344v-90.27109l18.42709,49.31565l42.75189,40.95544z" fill="#1f1e2e" stroke-width="0"/></g><g data-paper-data="{&quot;index&quot;:null}" stroke="#000000"><path d="M291.35367,252.98407v-111.68333h61.17899v111.68333z" fill="#ffffff" stroke-width="2"/><path d="M292.14105,252.04804v-111.68333l18.42709,61.01328l42.75189,50.67005z" fill="#8ebbfc" stroke-width="0"/></g><g data-paper-data="{&quot;index&quot;:null}" stroke="#000000"><path d="M280.45643,273.58267l-16.36853,-45.18709l47.94852,-17.36883l16.36853,45.18709z" fill="#ffcaa0" stroke-width="2"/><g><path d="M263.99221,228.62199l-22.57041,-62.30805l48.57348,-17.59521l22.57041,62.30805z" fill="#0000c0" stroke-width="2"/><path d="M264.7637,228.56851l-11.82171,-32.63511c0,0 19.44028,8.2929 27.5041,5.37186c7.64571,-2.76958 19.69131,-22.46788 19.69131,-22.46788l11.82171,32.63512c0,0 -15.52305,5.62305 -23.34667,8.45707c-7.9073,2.86433 -23.84874,8.63894 -23.84874,8.63894z" fill="#56006b" stroke-width="0"/></g><path d="M281.01445,272.8016l-16.36853,-45.18709l23.39515,26.17093l40.9219,1.64734z" fill="#ff6e5b" stroke-width="0"/></g><g data-paper-data="{&quot;index&quot;:null}" stroke="#000000"><path d="M407.31055,92.40809c-0.15371,11.10177 -1.93072,36.59292 -8.00842,45.67105c-13.71549,20.48653 -42.21164,19.11065 -72.78406,18.68736c-28.91503,-0.40034 -61.52274,2.29878 -75.28422,-16.74967c-7.23642,-10.01654 -3.86802,-37.36091 -3.6955,-49.82085c0.04826,-3.48591 -0.69517,-26.3113 -0.00855,-29.64094c6.43482,-31.20455 40.93501,-35.26943 80.80103,-34.71747c42.44034,0.5876 76.28148,3.54236 78.38851,37.82413c0.08338,1.35666 0.61027,27.37007 0.59121,28.7464z" fill="#ffcaa0" stroke-width="2"/><path d="M409.14358,92.44364c-0.15371,11.10177 -1.93072,36.59292 -8.00842,45.67105c-13.71549,20.48653 -42.21164,19.11065 -72.78406,18.68736c-28.91502,-0.40034 -62.1739,2.18096 -75.93537,-16.86748c-2.90938,-4.02714 62.66652,22.14123 100.34976,5.47943c48.08569,-21.26128 54.58979,-101.194 55.7869,-81.71673c0.08338,1.35666 0.61027,27.37007 0.59121,28.7464z" fill="#ff6e5b" stroke-width="0"/></g><g data-paper-data="{&quot;index&quot;:null}" stroke="#000000"><path d="M389.31807,33.33589c14.65834,0.20295 26.17984,26.4725 25.73399,58.67469c-0.44585,32.20219 -12.69021,58.14268 -27.34857,57.93974c-14.65834,-0.20295 -26.17984,-26.4725 -25.73399,-58.67469c0.44585,-32.20219 12.69021,-58.14268 27.34857,-57.93974z" fill="#01930e" stroke-width="2"/><path d="M414.65624,91.57088c-0.44585,32.20219 -12.69022,58.14268 -27.34857,57.93974c-14.65833,-0.20295 18.25839,-35.47246 18.70424,-67.67464c0.44585,-32.20219 9.09018,-22.46727 8.64433,9.7349z" fill="#31525b" stroke-width="0"/></g><path d="M343.97349,97.13294c0.21759,-15.71602 3.29878,-28.41615 6.88204,-28.36653c3.58325,0.04961 6.31165,12.83017 6.09406,28.54618c-0.2176,15.71601 -3.29878,28.41614 -6.88204,28.36652c-3.58326,-0.04961 -6.31165,-12.83018 -6.09406,-28.54619z" data-paper-data="{&quot;index&quot;:null}" fill="#000000" stroke="none" stroke-width="0"/><path d="M327.97455,74.43517c3.39466,0.047 5.97088,12.77449 5.75416,28.42763c-0.21672,15.65315 -3.14432,28.30443 -6.53899,28.25744c-3.39466,-0.047 -5.97088,-12.77449 -5.75416,-28.42763c0.21672,-15.65315 3.14432,-28.30443 6.53899,-28.25744z" data-paper-data="{&quot;index&quot;:null}" fill="#000000" stroke="none" stroke-width="0"/><g data-paper-data="{&quot;index&quot;:null}"><path d="M231.65325,52.68269c0.2445,-17.65927 41.79906,-31.40233 92.81472,-30.69599c51.01565,0.70633 92.17379,15.59458 91.92929,33.25384c-0.2445,17.65926 -41.79905,31.40233 -92.81471,30.69599c-51.01565,-0.70633 -92.1738,-15.59459 -91.9293,-33.25385z" fill="#000000" stroke="none" stroke-width="NaN"/><path d="M323.19563,63.1443c51.01565,0.70633 94.1714,-25.20866 93.92689,-7.54939c-0.2445,17.65926 -41.79905,31.40233 -92.81471,30.69599c-51.01565,-0.70633 -92.1738,-15.59459 -91.9293,-33.25385c0.2445,-17.65927 39.80145,9.40092 90.81711,10.10725z" fill="#ff0000" stroke="#000000" stroke-width="2"/><path d="M323.34559,79.18189c51.01565,0.70633 86.56095,-19.90576 88.90621,-15.64893c2.27073,4.12157 -13.49818,12.48659 -39.06673,17.61696c-13.77237,2.76345 -30.63587,4.162 -48.4952,4.41609c-51.03549,0.72606 -87.12065,-18.39865 -87.05337,-23.25832c0.06729,-4.85967 34.69344,16.16788 85.7091,16.87421z" fill="#900056" stroke="#000000" stroke-width="0"/></g><path d="M339.76268,143.65833c-4.54879,-6.8119 3.96031,-5.71941 10.77222,-10.2682c6.8119,-4.54879 9.34708,-13.01632 13.89586,-6.20442c4.54879,6.8119 2.71418,16.02156 -4.09773,20.57035c-6.8119,4.54879 -16.02156,2.71418 -20.57035,-4.09773z" fill="#000000" stroke="none" stroke-width="0"/></g></g></svg>