<svg version="1.1" xmlns="http://www.w3.org/2000/svg" xmlns:xlink="http://www.w3.org/1999/xlink" width="212.48931" height="327.84229" viewBox="0,0,212.48931,327.84229"><g transform="translate(-213.26706,-33.14511)"><g data-paper-data="{&quot;isPaintingLayer&quot;:true}" fill-rule="nonzero" stroke-linejoin="miter" stroke-miterlimit="10" stroke-dasharray="" stroke-dashoffset="0" style="mix-blend-mode: normal"><g data-paper-data="{&quot;index&quot;:null}" stroke="#000000" stroke-linecap="butt"><path d="M370.51772,228.1978c23.71704,-23.42692 33.24622,-21.92692 38.93236,-16.17035c5.68616,5.75657 -8.93078,29.41447 -32.64784,52.84139c-23.71706,23.42691 -27.82632,-48.67442 -33.51247,-54.431c-1.40647,-6.95343 5.0539,-6.02539 10.816,-0.68177c7.10602,6.58993 14.38471,20.44417 16.41195,18.44173z" fill="#216aff" stroke-width="2"/><path d="M379.84098,201.99803c10.17995,-10.05543 26.79375,-9.7421 37.10796,0.69985c10.3142,10.44195 10.42305,27.05835 0.24309,37.11378c-10.17996,10.05543 -26.79376,9.74209 -37.10797,-0.69985c-10.3142,-10.44195 -10.42303,-27.05834 -0.24308,-37.11378z" fill="#faddbf" stroke-width="2"/><path d="M399.46365,238.46991c10.17996,-10.05543 6.2834,-45.89246 16.59761,-35.45052c10.3142,10.44195 10.42303,27.05835 0.24308,37.11378c-10.17996,10.05543 -27.02066,8.39218 -16.84069,-1.66325z" fill="#ef8b89" stroke-width="0"/></g><g stroke="#000000" stroke-linecap="butt"><path d="M327.76518,340.83535v-95.29492h29.49199v95.29492z" fill="#73fffc" stroke-width="2"/><path d="M327.43943,340.21742l1.32626,-93.78573c0,0 5.20288,68.11227 6.3799,77.52842c0.2602,2.08162 2.52228,2.78987 2.52228,2.78987l18.60659,13.13896z" fill="#59a9e6" stroke-width="0"/></g><g stroke="#000000" stroke-linecap="butt"><path d="M288.4238,338.4128v-95.29492h29.49199v95.29492z" fill="#73fffc" stroke-width="2"/><path d="M288.09805,337.7949l1.32626,-93.78573c0,0 5.20288,68.11227 6.3799,77.52842c0.2602,2.08162 2.52228,2.78987 2.52228,2.78987l18.60659,13.13896z" fill="#59a9e6" stroke-width="0"/></g><g stroke="#000000" stroke-linecap="butt"><path d="M355.03178,235.69588c0,13.80271 10.04743,36.74388 4.95001,46.45977c-6.2338,11.88187 -28.61241,9.09579 -38.9397,9.09579c-13.66287,0 -32.94407,4.17018 -38.34426,-14.83216c-2.01935,-7.10576 4.35457,-32.37264 4.35457,-40.7234c0,-30.68249 15.2177,-55.55556 33.98969,-55.55556c18.77199,0 33.98969,24.87307 33.98969,55.55556z" fill="#216aff" stroke-width="2"/><path d="M303.76815,251.27246c0,13.80271 62.04198,20.54886 56.94455,30.26474c-6.2338,11.88186 -28.61241,9.09579 -38.9397,9.09579c-13.66287,0 -32.94406,4.17018 -38.34425,-14.83215c-2.01936,-7.10576 4.35457,-32.37265 4.35457,-40.7234c0,-9.45244 3.34855,-28.59801 5.51953,-29.96813c5.94391,-16.76415 10.4653,25.13995 10.4653,46.16315z" fill="#3236f4" stroke-width="0"/></g><g data-paper-data="{&quot;index&quot;:null}" stroke="#000000" stroke-linecap="butt"><g><path d="M301.15497,206.324c-46.79079,0 -84.72222,-37.93143 -84.72222,-84.72222c0,-46.79079 37.93143,-84.72222 84.72222,-84.72222c46.79079,0 84.72222,37.93143 84.72222,84.72222c0,46.79079 -37.93143,84.72222 -84.72222,84.72222z" fill="#faddbf" stroke-width="2"/><path d="M385.64642,120.73228c0,46.79079 -37.93143,84.72222 -84.72222,84.72222c-6.06291,0 -18.49289,-1.96005 -20.86562,-2.76903c-1.48329,-0.50573 27.17997,-6.87938 47.45857,-20.18586c10.88131,-7.14014 17.10673,-21.55104 19.99223,-26.29351c1.61848,-0.43891 6.02298,-20.08018 6.02593,-20.14049c1.23891,-25.28993 -24.25635,-87.57384 -16.28763,-90.14485c0.61077,-0.19706 12.57802,6.61116 21.9255,14.95935c7.52051,6.71653 12.79199,15.25975 13.30693,15.62682c4.50904,3.21417 13.16632,29.17106 13.16632,44.22534z" fill="#ef8b89" stroke-width="0"/><path d="M216.95619,121.14359c0,-36.54015 43.64941,-47.76623 83.64345,-27.16584c41.78276,21.52174 85.0704,-6.80492 85.0704,29.73523c0,18.17183 -8.33746,10.16746 -22.22353,-2.47189c-2.87599,-2.61778 -12.91291,10.30314 -16.24015,7.47909c-4.24103,-3.59963 -8.08154,-8.90935 -11.96095,-14.41734c-3.12381,-4.4352 -13.70857,12.51967 -17.11223,8.61668c-5.23782,-6.00622 -5.43775,-13.01701 -12.7176,-13.01701c-2.73739,0 -10.08616,11.74106 -12.80601,12.06843c-2.10902,0.25385 -9.32614,-11.95827 -11.39182,-11.59592c-3.75121,0.65801 -12.2492,10.90762 -15.73972,12.03156c-1.39954,0.45065 -12.51164,-8.39959 -13.84965,-7.92692c-1.91368,0.67603 -8.85258,10.08015 -10.56583,10.85157c-2.72761,1.22814 -10.78789,-6.21968 -12.93385,-5.04791c-8.8559,4.83563 -8.47938,12.76015 -9.04258,14.64925c-0.55205,1.85172 -2.12992,-2.16465 -2.12992,-13.78899z" fill="#ef8b89" stroke-width="0"/></g><path d="M215.4223,112.8327c0,-36.54015 41.44159,-78.68758 87.36842,-78.68758c45.92684,0 85.78948,44.71682 85.78948,81.25697c0,18.17183 -8.55708,10.16746 -22.80892,-2.47189c-2.95174,-2.61778 -13.25304,10.30314 -16.66792,7.47909c-4.35273,-3.59963 -8.29441,-8.90935 -12.276,-14.41734c-3.2061,-4.4352 -14.06966,12.51967 -17.56298,8.61668c-5.37579,-6.00622 -5.58098,-13.01701 -13.05259,-13.01701c-2.80949,0 -10.35184,11.74106 -13.14333,12.06843c-2.16458,0.25385 -9.5718,-11.95827 -11.69189,-11.59592c-3.85002,0.65801 -12.57185,10.90762 -16.15431,12.03156c-1.4364,0.45065 -12.8412,-8.39959 -14.21446,-7.92692c-1.96409,0.67603 -9.08576,10.08015 -10.84414,10.85157c-2.79946,1.22814 -11.07205,-6.21968 -13.27454,-5.04791c-17.99849,9.57557 -11.46679,24.3436 -11.46679,0.86026z" fill="#724e36" stroke-width="2"/><path d="M215.67006,111.66991c0,-36.54015 44.79917,-47.76623 85.84668,-27.16584c42.88335,21.52174 87.31121,-6.80492 87.31121,29.73523c0,18.17183 -8.55708,10.16746 -22.80892,-2.47189c-2.95174,-2.61778 -13.25304,10.30314 -16.66792,7.47909c-4.35274,-3.59963 -8.29442,-8.90935 -12.27601,-14.41734c-3.2061,-4.4352 -14.06966,12.51967 -17.56298,8.61668c-5.37579,-6.00622 -5.58098,-13.01701 -13.05259,-13.01701c-2.80949,0 -10.35184,11.74106 -13.14333,12.06843c-2.16458,0.25385 -9.5718,-11.95827 -11.69189,-11.59592c-3.85002,0.65801 -12.57185,10.90762 -16.15431,12.03156c-1.4364,0.45065 -12.8412,-8.39959 -14.21446,-7.92692c-1.9641,0.67603 -9.08577,10.08015 -10.84415,10.85157c-2.79946,1.22814 -11.07205,-6.21968 -13.27454,-5.04791c-17.99849,9.57557 -11.46679,24.3436 -11.46679,0.86026z" fill="#623728" stroke-width="0"/></g><g data-paper-data="{&quot;index&quot;:null}" stroke="#000000" stroke-linecap="butt"><path d="M312.31986,92.79361c16.56854,0 30,23.15159 30,51.71053c0,28.55893 -13.69462,43.28947 -30.26316,43.28947c-16.56854,0 -29.73684,-14.73053 -29.73684,-43.28947c0,-28.55894 13.43146,-51.71053 30,-51.71053z" fill="#f0f0f0" stroke-width="2"/><path d="M341.68384,143.67387c0,28.55893 -13.69462,43.28947 -30.26316,43.28947c-16.56854,0 21.9575,-33.80863 17.65491,-62.0416c-6.22027,-40.81653 12.60825,-9.80681 12.60825,18.75213z" fill="#9a99ff" stroke-width="0"/></g><path d="M328.02,124.08874c5.78406,0 10.47297,12.82644 10.47297,28.64865c0,15.82221 -4.68891,28.64865 -10.47297,28.64865c-5.78406,0 -10.47297,-12.82644 -10.47297,-28.64865c0,-15.82221 4.68891,-28.64865 10.47297,-28.64865z" data-paper-data="{&quot;index&quot;:null}" fill="#000000" stroke="none" stroke-width="0" stroke-linecap="butt"/><g data-paper-data="{&quot;index&quot;:null}" stroke="#000000" stroke-linecap="butt"><path d="M287.32917,114.46945c4.24992,-9.74914 10.03298,-21.55405 25.74324,-21.55405c15.71026,0 18.17568,12.27019 22.5,21.41892c4.54481,9.61522 -30.07104,38.90314 -45.7813,38.90314c-15.71026,0 -6.92141,-28.53819 -2.46195,-38.768z" fill="#a100fe" stroke-width="2"/><path d="M288.25344,114.1152c4.10501,-9.74914 9.69088,0.8269 24.86546,0.8269c15.17458,0 17.55594,-10.11076 21.73281,-0.96203c4.38984,9.61522 -29.83492,38.68882 -45.0095,38.68882c-15.17458,0 -5.89618,-28.32387 -1.58878,-38.55368z" fill="#99008e" stroke-width="0"/></g><g data-paper-data="{&quot;index&quot;:null}" stroke="#000000" stroke-linecap="butt"><path d="M278.59317,143.02551c0,28.55894 -13.1683,43.28947 -29.73684,43.28947c-16.56854,0 -30.26316,-14.73054 -30.26316,-43.28947c0,-28.55894 13.43146,-51.71053 30,-51.71053c16.56854,0 30,23.15159 30,51.71053z" fill="#f0f0f0" stroke-width="2"/><path d="M231.83745,123.44311c-4.30259,28.23297 34.22345,62.0416 17.65491,62.0416c-16.56854,0 -30.26316,-14.73054 -30.26316,-43.28947c0,-28.55894 18.82852,-59.56866 12.60825,-18.75213z" fill="#9a99ff" stroke-width="0"/></g><path d="M272.90605,154.77247c0,15.82221 -4.68891,28.64865 -10.47297,28.64865c-5.78406,0 -10.47297,-12.82644 -10.47297,-28.64865c0,-15.82221 4.68891,-28.64865 10.47297,-28.64865c5.78406,0 10.47297,12.82644 10.47297,28.64865z" data-paper-data="{&quot;index&quot;:null}" fill="#000000" stroke="none" stroke-width="0" stroke-linecap="butt"/><g data-paper-data="{&quot;index&quot;:null}" stroke="#000000" stroke-linecap="butt"><path d="M273.58387,112.99081c4.45946,10.22981 12.17673,39.19663 -3.53353,39.19663c-15.71026,0 -49.25453,-29.71655 -44.70972,-39.33177c4.32432,-9.14873 6.78974,-21.41892 22.5,-21.41892c15.71026,0 21.49332,11.80491 25.74324,21.55405z" fill="#a100fe" stroke-width="2"/><path d="M272.65961,112.63657c4.3074,10.22981 12.72854,39.41095 -2.44604,39.41095c-15.17458,0 -48.54208,-29.93087 -44.15224,-39.54609c4.17687,-9.14873 6.55823,0.96203 21.73281,0.96203c15.17458,0 20.76045,-10.57604 24.86546,-0.8269z" fill="#99008e" stroke-width="0"/></g><path d="M391.63632,338.87004c0,11.6628 -14.51982,21.11737 -32.43092,21.11737c-17.9111,0 -32.43092,-9.45457 -32.43092,-21.11737c0,-2.33142 -0.03339,-13.76009 1.08979,-15.13837c4.49546,-5.51647 17.81784,5.26144 32.14847,5.26144c17.9111,0 31.62358,-1.78588 31.62358,9.87692z" fill="#000082" stroke="#000000" stroke-width="2" stroke-linecap="butt"/><path d="M389.75004,336.13774c0,6.30841 -13.89058,10.1901 -31.80169,10.1901c-17.9111,0 -30.16566,-2.95748 -30.16566,-9.26589c0,-1.26107 -0.03338,-12.52602 1.0898,-13.27153c4.49546,-2.98386 15.55258,5.7726 29.88321,5.7726c17.9111,0 30.99434,0.26631 30.99434,6.57472z" fill="#2e0048" stroke="#000000" stroke-width="0" stroke-linecap="butt"/><path d="M348.64938,338.22521c0,11.6628 -14.51982,21.11737 -32.43092,21.11737c-17.9111,0 -32.43092,-9.45457 -32.43092,-21.11737c0,-2.33142 -0.03339,-13.76009 1.08979,-15.13837c4.49546,-5.51647 17.81784,5.26144 32.14847,5.26144c17.9111,0 31.62358,-1.78588 31.62358,9.87692z" fill="#000082" stroke="#000000" stroke-width="2" stroke-linecap="butt"/><path d="M346.7631,335.49289c0,6.30841 -13.89058,10.1901 -31.80169,10.1901c-17.9111,0 -30.16566,-2.95748 -30.16566,-9.26589c0,-1.26107 -0.03338,-12.52602 1.0898,-13.27153c4.49546,-2.98386 15.55258,5.7726 29.88321,5.7726c17.9111,0 30.99434,0.26631 30.99434,6.57472z" fill="#2e0048" stroke="#000000" stroke-width="0" stroke-linecap="butt"/><g><path d="M287.08622,261.59324c-13.43898,-6.85687 -17.83984,-17.61989 -11.67887,-31.22695c4.81853,-10.64223 21.95209,-16.5129 35.39109,-9.65602c13.43906,6.85688 18.77095,20.52197 11.98245,33.82706c-1.06159,2.08066 -2.65884,3.68582 -4.10397,5.1655c-7.79591,7.98214 -20.2533,7.67501 -31.59069,1.89042z" fill="#216aff" stroke="#000000" stroke-width="2" stroke-linecap="butt"/><path d="M297.08991,219.42149c0,0 -3.00134,4.91153 -2.11787,6.70955c8.47422,17.24706 20.4767,24.53807 24.6305,26.64659c0.94372,0.47906 1.89483,-0.11781 1.89483,-0.11781c0,0 -0.75763,1.97334 -2.50245,4.0875c-1.85663,2.24964 -4.78829,4.68053 -7.64558,5.81237c-3.26384,1.29284 -11.54442,2.26257 -11.54442,2.26257l-19.91696,-6.49411c0,0 -5.23826,-12.39014 -5.34228,-14.55488c-0.10193,-2.12072 0.38572,-4.65941 0.79557,-7.37952c0.63638,-4.22334 2.82969,-8.19778 4.87427,-10.22621c2.60938,-2.58869 6.80176,-4.6322 10.46948,-5.68585c3.41351,-0.98062 6.40484,-1.06007 6.40484,-1.06007z" fill="#3236f4" stroke="none" stroke-width="0" stroke-linecap="butt"/><path d="M288.13749,242.15965c0,0 2.34653,-8.7116 6.44073,-11.84492c5.1828,-3.96648 17.26794,-8.66242 17.26794,-8.66242" fill="none" stroke="#000000" stroke-width="1" stroke-linecap="round"/><path d="M324.46052,247.65087c0,0 -4.51954,5.54109 -7.95242,8.12702c-3.46565,2.61065 -12.7765,5.34205 -12.7765,5.34205" fill="none" stroke="#000000" stroke-width="1" stroke-linecap="round"/><path d="M277.35738,240.12359c0,0 2.2751,-8.97832 6.86427,-12.17026c7.04193,-4.89791 17.66606,-9.54803 17.66606,-9.54803" fill="none" stroke="#000000" stroke-width="1" stroke-linecap="round"/><path d="M280.32073,225.12973c0,0 17.01336,-3.16558 29.51885,8.96523c13.69819,13.28775 5.56967,28.50017 5.56967,28.50017" fill="none" stroke="#000000" stroke-width="1" stroke-linecap="round"/><path d="M274.89917,232.95991c0,0 17.79752,-0.33299 28.85563,10.34772c9.07971,8.76986 3.43151,22.22411 3.43151,22.22411" fill="none" stroke="#000000" stroke-width="1" stroke-linecap="round"/><path d="M318.60246,233.98356c-0.62738,-1.02645 -0.47718,-2.26114 0.33537,-2.75777c0.81256,-0.4967 1.24734,0.17033 1.87471,1.19679c0.62738,1.02645 1.20972,2.02357 0.39715,2.52022c-0.81256,0.4967 -1.97991,0.06721 -2.60722,-0.95923z" fill="#8fbbbe" stroke="none" stroke-width="0" stroke-linecap="butt"/><path d="M321.51403,240.64551c-0.53577,-0.27339 -0.63771,-1.14645 -0.22766,-1.95011c0.41004,-0.80367 0.68842,-1.07518 1.22419,-0.80184c0.53577,0.27339 0.79939,1.22896 0.38932,2.0326c-0.41004,0.80367 -0.85012,0.99268 -1.38587,0.71932z" fill="#8fbbbe" stroke="none" stroke-width="0" stroke-linecap="butt"/><path d="M314.93963,228.11437c-0.75541,-0.49338 -1.10115,-1.30149 -0.77227,-1.8051c0.32882,-0.50358 0.9604,-0.02687 1.7158,0.46646c0.75541,0.49338 1.34863,0.81642 1.01976,1.32004c-0.32882,0.50358 -1.20789,0.51192 -1.96329,0.01857z" fill="#8fbbbe" stroke="none" stroke-width="0" stroke-linecap="butt"/><path d="M292.6221,219.79105c0,0 10.1294,1.44041 16.70562,5.20512c3.72839,2.13441 6.27759,5.30267 8.18336,7.72635c1.68539,2.14335 3.39947,8.4906 4.20589,13.48539c0.59373,3.67739 0.5096,6.62016 0.5096,6.62016" fill="none" stroke="#000000" stroke-width="0.5" stroke-linecap="round"/><path d="M324.09119,233.19818c0,0 -5.16356,9.22581 -9.34523,12.65083c-3.52314,2.88567 -13.786,6.72469 -13.786,6.72469" fill="none" stroke="#000000" stroke-width="1" stroke-linecap="round"/><path d="M296.69024,248.56119c0,0 4.81458,-8.3814 7.98249,-11.60866c5.56224,-5.66643 15.40277,-9.06363 15.40277,-9.06363" fill="none" stroke="#000000" stroke-width="1" stroke-linecap="round"/></g><g stroke="#000000" stroke-linecap="butt"><path d="M275.55229,237.3333c23.70487,23.43924 22.31728,32.98543 16.62815,38.73904c-5.68914,5.75362 -29.5177,-8.58343 -53.22256,-32.02269c-23.70486,-23.43925 48.34304,-28.39815 54.03218,-34.15176c6.93635,-1.48834 6.08454,4.98253 0.80922,10.80721c-6.5057,7.18321 -20.27318,14.6247 -18.24699,16.6282z" fill="#216aff" stroke-width="2"/><path d="M301.86014,246.34705c10.17473,10.06071 10.05727,26.67705 -0.26236,37.11363c-10.31962,10.43657 -26.9336,10.74127 -37.10833,0.68056c-10.17473,-10.06071 -10.05725,-26.67706 0.26238,-37.11364c10.31963,-10.43658 26.9336,-10.74127 37.10833,-0.68055z" fill="#faddbf" stroke-width="2"/><path d="M265.62211,266.39831c10.17473,10.06071 45.96333,5.742 35.6437,16.17857c-10.31962,10.43657 -26.9336,10.74127 -37.10833,0.68055c-10.17473,-10.06071 -8.7101,-26.91984 1.46462,-16.85912z" fill="#ef8b89" stroke-width="0"/></g><path d="M356.84225,152.18233c-0.1907,-0.37711 -0.1907,-0.75636 -0.1907,-0.75636l0.12128,-1.38046c0.4943,-1.15203 1.06219,-2.27229 1.65067,-3.37917c0.81824,-0.48648 1.52583,-1.25123 2.45471,-1.45944c3.42576,-0.76791 9.00056,2.67496 10.78525,5.42641c1.46622,2.26047 1.41091,4.53726 1.41091,7.10928c0,7.0541 -1.0563,18.1142 -9.71584,19.06624c-2.17823,0.00198 -4.36997,0.26075 -6.46824,-0.46902c-4.00682,-1.39356 -8.4167,-5.45724 -5.79275,-10.21149c1.80552,-3.27135 10.22715,-5.1502 7.66616,-10.32299c-0.46679,-0.94283 -1.19409,-1.73535 -1.71711,-2.64818c0,0 -0.25804,-0.45155 -0.20434,-0.97482z" fill="#000000" stroke="none" stroke-width="0.5" stroke-linecap="butt"/></g></g></svg>