<svg version="1.1" xmlns="http://www.w3.org/2000/svg" xmlns:xlink="http://www.w3.org/1999/xlink" width="174.90463" height="309.7294" viewBox="0,0,174.90463,309.7294"><g transform="translate(-242.32198,-36.77659)"><g data-paper-data="{&quot;isPaintingLayer&quot;:true}" fill-rule="nonzero" stroke-linecap="butt" stroke-linejoin="miter" stroke-miterlimit="10" stroke-dasharray="" stroke-dashoffset="0" style="mix-blend-mode: normal"><g data-paper-data="{&quot;index&quot;:null}" stroke="#000000"><path d="M295.24995,260.53409c5.50389,-32.87897 16.43501,-58.44969 24.41535,-57.11379c7.98034,1.3359 9.98788,29.07253 4.48399,61.95149c-5.5039,32.87896 -16.43501,58.44968 -24.41535,57.11378c-7.98034,-1.3359 -9.98789,-29.07253 -4.48399,-61.95149z" fill="#0d69be" stroke-width="2"/><path d="M274.48871,304.04736c2.36242,-14.11248 16.01237,-23.58853 30.48805,-21.16531c14.47568,2.42322 24.29542,15.82803 21.93301,29.94052c-2.3624,14.11249 -16.01237,23.58851 -30.48804,21.16531c-14.47568,-2.42322 -24.29542,-15.82804 -21.93301,-29.94052z" fill="#faddbf" stroke-width="2"/><path d="M326.6617,311.91167c-2.36241,14.11248 -16.01237,23.5885 -30.48804,21.1653c-14.47568,-2.42321 17.07145,-19.86611 19.43386,-33.9786c2.36241,-14.11249 13.41659,-1.29919 11.05418,12.8133z" fill="#ef8b89" stroke-width="0"/></g><g data-paper-data="{&quot;index&quot;:null}" stroke="#000000"><path d="M333.41825,185.14028c18.77199,0 33.98969,24.87307 33.98969,55.55556c0,8.35076 6.37392,33.61764 4.35457,40.7234c-5.40019,19.00234 -24.68139,14.83216 -38.34426,14.83216c-10.32729,0 -32.7059,2.78608 -38.9397,-9.09579c-5.09742,-9.71589 4.95001,-32.65706 4.95001,-46.45977c0,-30.68249 15.2177,-55.55556 33.98969,-55.55556z" fill="#216aff" stroke-width="2"/><path d="M361.15749,210.10931c2.17098,1.37012 5.51953,20.51569 5.51953,29.96813c0,8.35075 6.37393,33.61764 4.35457,40.7234c-5.40019,19.00233 -24.68138,14.83215 -38.34425,14.83215c-10.32729,0 -32.7059,2.78607 -38.9397,-9.09579c-5.09743,-9.71588 56.94455,-16.46203 56.94455,-30.26474c0,-21.0232 4.52139,-62.9273 10.4653,-46.16315z" fill="#3236f4" stroke-width="0"/></g><g stroke="#000000"><g><path d="M413.97146,115.34068c5.50842,46.46542 -27.69378,88.59855 -74.1592,94.10697c-46.46542,5.50842 -88.59855,-27.69378 -94.10697,-74.1592c-5.50842,-46.46542 27.69378,-88.59855 74.1592,-94.10698c46.46542,-5.50842 88.59856,27.69378 94.10698,74.1592z" fill="#faddbf" stroke-width="2"/><path d="M413.63992,114.5044c5.50842,46.46542 -27.69378,88.59855 -74.1592,94.10697c-6.02075,0.71375 -18.59504,0.23064 -21.04651,-0.29338c-1.53251,-0.3276 26.18109,-10.0313 44.75218,-25.63254c9.96508,-8.37149 14.45069,-23.41507 16.75782,-28.46425c1.55556,-0.6264 3.61717,-20.6496 3.613,-20.70984c-1.74695,-25.25992 -34.39727,-84.10931 -26.78663,-87.60055c0.58333,-0.26759 13.26885,5.08444 23.53412,12.27415c8.25892,5.78447 14.49949,13.64771 15.05406,13.9516c4.85607,2.661 16.50892,27.41821 18.28118,42.36781z" fill="#ef8b89" stroke-width="0"/><path d="M246.17114,134.7718c-4.30168,-36.28606 37.72263,-52.57268 79.86373,-36.82382c44.02586,16.45323 83.67774,-16.77248 87.97941,19.51358c2.13927,18.04548 -7.08251,11.07829 -22.35999,0.16156c-3.16417,-2.261 -11.61018,11.75167 -15.24675,9.33895c-4.63531,-3.07533 -9.07419,-7.896 -13.57505,-12.90899c-3.62422,-4.03661 -12.13937,14.04645 -15.97884,10.5713c-5.90848,-5.34783 -6.93236,-12.28634 -14.16159,-11.42932c-2.71836,0.32226 -8.63381,12.8468 -11.29621,13.49209c-2.06447,0.50037 -10.66907,-10.7772 -12.67773,-10.17419c-3.64766,1.09505 -10.87993,12.2738 -14.21386,13.80085c-1.33675,0.61228 -13.41347,-6.86825 -14.68653,-6.24135c-1.82079,0.89661 -7.60434,11.05222 -9.21486,12.01997c-2.56405,1.54071 -11.44508,-4.90643 -13.43817,-3.49017c-8.22505,5.84455 -6.91824,13.66965 -7.25513,15.61191c-0.33022,1.90383 -2.36994,-1.89885 -3.73841,-13.44236z" fill="#ef8b89" stroke-width="0"/></g><path d="M243.66952,126.69931c-4.30168,-36.28606 31.88995,-83.01911 77.49742,-88.42582c45.60748,-5.40672 90.4572,34.30634 94.75887,70.5924c2.13927,18.04547 -7.30062,11.10414 -22.94132,0.23047c-3.23939,-2.25209 -11.94795,11.79169 -15.67154,9.3893c-4.74623,-3.06217 -9.28558,-7.87093 -13.88791,-12.87189c-3.70594,-4.02692 -12.49796,14.08895 -16.42646,10.62435c-6.04549,-5.33159 -7.0746,-12.26947 -14.49425,-11.38988c-2.78995,0.33075 -8.89764,12.87809 -11.63118,13.53181c-2.11965,0.50691 -10.91303,-10.74828 -12.97572,-10.13887c-3.74578,1.10667 -11.20033,12.31179 -14.62556,13.84966c-1.37336,0.61661 -13.74075,-6.82946 -15.04881,-6.19841c-1.87084,0.90255 -7.83589,11.07967 -9.49123,12.05273c-2.63541,1.54917 -11.72727,-4.87298 -13.7765,-3.45007c-16.74605,11.62785 -8.5212,25.52424 -11.28577,2.2042z" fill="#724e36" stroke-width="2"/><path d="M243.77866,125.51543c-4.30168,-36.28606 38.86439,-52.70804 82.05164,-37.0832c45.11879,16.32367 85.90297,-17.03627 90.20464,19.24979c2.13927,18.04547 -7.30061,11.10414 -22.94131,0.23047c-3.23939,-2.25209 -11.94795,11.79169 -15.67154,9.3893c-4.74623,-3.06217 -9.28559,-7.87093 -13.88792,-12.87189c-3.70594,-4.02692 -12.49795,14.08895 -16.42645,10.62435c-6.04549,-5.33159 -7.0746,-12.26947 -14.49425,-11.38988c-2.78995,0.33074 -8.89764,12.87808 -11.63118,13.5318c-2.11965,0.50691 -10.91302,-10.74827 -12.97571,-10.13886c-3.74579,1.10667 -11.20034,12.31178 -14.62557,13.84965c-1.37336,0.61661 -13.74075,-6.82946 -15.04881,-6.19841c-1.87085,0.90255 -7.8359,11.07967 -9.49124,12.05273c-2.63541,1.54917 -11.72727,-4.87297 -13.7765,-3.45006c-16.74606,11.62785 -8.52121,25.52424 -11.28578,2.2042z" fill="#623728" stroke-width="0"/></g><g data-paper-data="{&quot;index&quot;:null}" stroke="#000000"><path d="M323.32944,155.02816c-3.3621,-28.36035 7.25045,-52.93217 23.70378,-54.88269c16.45333,-1.95053 32.5169,19.45886 35.87899,47.81921c3.3621,28.36034 -8.50315,44.60064 -24.95648,46.55116c-16.45333,1.95052 -31.2642,-11.12734 -34.62629,-39.48769z" fill="#f0f0f0" stroke-width="2"/><path d="M382.18288,147.21507c3.36209,28.36034 -8.50315,44.60065 -24.95648,46.55117c-16.45333,1.95053 17.8247,-36.15847 10.22832,-63.6886c-10.98213,-39.80042 11.36607,-11.22292 14.72816,17.13743z" fill="#9a99ff" stroke-width="0"/></g><path d="M328.16605,162.74569c-1.86266,-15.71219 1.28365,-29.00144 7.02749,-29.68237c5.74384,-0.68092 11.91013,11.50432 13.77279,27.21651c1.86266,15.71218 -1.28365,29.00143 -7.02749,29.68236c-5.74384,0.68092 -11.91013,-11.50432 -13.77279,-27.21651z" data-paper-data="{&quot;index&quot;:null}" fill="#000000" stroke="none" stroke-width="0"/><g data-paper-data="{&quot;index&quot;:null}" stroke="#000000"><path d="M324.7681,124.61261c3.07266,-10.18167 7.42577,-22.5853 23.02679,-24.43479c15.60101,-1.84948 19.49379,10.04514 24.86507,18.62118c5.64515,9.01332 -5.19835,14.97285 -20.79937,16.82233c-15.60102,1.84949 -30.31665,-0.32505 -27.0925,-11.00871z" fill="#a100fe" stroke-width="2"/><path d="M325.64425,124.15201c2.92875,-10.16461 9.72084,-0.31971 24.7899,-2.10613c15.06906,-1.78642 16.24358,-12.10721 21.46843,-3.51382c5.49126,9.03157 -4.96388,14.94506 -20.03294,16.73148c-15.06906,1.78642 -29.29856,-0.44575 -26.22541,-11.11151z" fill="#99008e" stroke-width="0"/></g><g data-paper-data="{&quot;index&quot;:null}" stroke="#000000"><path d="M283.62757,106.61757c16.45332,-1.95052 32.5169,19.45886 35.87899,47.81921c3.36209,28.36035 -7.98049,44.53869 -24.43382,46.48921c-16.45332,1.95053 -31.78686,-11.06539 -35.14895,-39.42573c-3.3621,-28.36035 7.25045,-52.93216 23.70378,-54.88268z" fill="#f0f0f0" stroke-width="2"/><path d="M270.77063,140.49486c-0.94896,28.54316 41.28929,57.58124 24.83596,59.53176c-16.45332,1.95052 -31.78686,-11.06539 -35.14895,-39.42573c-3.36209,-28.36034 11.6849,-61.37101 10.31299,-20.10603z" fill="#9a99ff" stroke-width="0"/></g><path d="M272.92102,140.26028c5.74384,-0.68092 11.91013,11.50432 13.77279,27.21651c1.86267,15.71218 -1.28365,29.00143 -7.02749,29.68236c-5.74384,0.68092 -11.91014,-11.50432 -13.7728,-27.21651c-1.86266,-15.71219 1.28366,-29.00144 7.0275,-29.68237z" data-paper-data="{&quot;index&quot;:null}" fill="#000000" stroke="none" stroke-width="0"/><g data-paper-data="{&quot;index&quot;:null}" stroke="#000000"><path d="M310.99628,125.20067c5.63275,9.63368 -8.16656,15.18864 -23.76758,17.03812c-15.60102,1.84948 -27.53737,-1.40952 -24.15611,-11.49291c3.21722,-9.59419 4.22098,-22.06929 19.822,-23.91878c15.60102,-1.84949 22.73359,9.19252 28.10167,18.37355z" fill="#a100fe" stroke-width="2"/><path d="M310.03671,124.95769c5.48175,9.65159 -7.83141,15.14891 -22.90047,16.93533c-15.06906,1.78642 -26.61705,-1.51862 -23.38968,-11.58377c3.0708,-9.57684 6.62588,0.18327 21.69494,-1.60315c15.06906,-1.78642 19.37103,-12.94651 24.59521,-3.74842z" fill="#99008e" stroke-width="0"/></g><path d="M388.53318,154.82124c0.99304,-0.11773 1.11077,0.87532 1.11077,0.87532l0.00912,0.11188c0.86348,4.07821 1.39065,8.53514 4.3907,11.67919c2.68142,3.71579 3.07918,0.26854 2.74699,-2.5336c-0.49213,-4.15127 -1.68145,-7.92262 -3.29761,-11.78471c0,0 -0.38601,-0.9225 0.53649,-1.30851c0.9225,-0.38601 1.30851,0.53649 1.30851,0.53649c1.78051,4.25546 4.80442,11.18422 3.71844,15.97317c-0.96358,4.24916 -4.63208,3.0546 -6.55111,0.39531c-3.23967,-3.40149 -3.87549,-8.13436 -4.80903,-12.54305l-0.03861,-0.29073c0,0 -0.11771,-0.99304 0.87533,-1.11077z" data-paper-data="{&quot;index&quot;:null}" fill="#000000" stroke="none" stroke-width="0.5"/><g data-paper-data="{&quot;index&quot;:null}" stroke="#000000"><path d="M340.90381,274.02358c-1.69708,-33.29323 3.478,-60.61666 11.55889,-61.02857c8.08088,-0.41191 16.00749,26.24366 17.70457,59.53689c1.69708,33.29323 -3.47801,60.61665 -11.5589,61.02857c-8.08088,0.41191 -16.00749,-26.24367 -17.70457,-59.5369z" fill="#216aff" stroke-width="2"/><path d="M355.20991,293.75625c14.65806,-0.74717 27.13127,10.23169 27.8597,24.52199c0.72843,14.2903 -10.56377,26.48057 -25.22183,27.22775c-14.65806,0.74717 -27.13127,-10.2317 -27.8597,-24.52199c-0.72843,-14.29029 10.56376,-26.48058 25.22183,-27.22775z" fill="#faddbf" stroke-width="2"/><path d="M369.0799,307.30635c-0.72844,-14.2903 12.82309,-4.15464 13.55152,10.13566c0.72842,14.2903 -10.56377,26.48057 -25.22183,27.22775c-14.65807,0.74717 12.39873,-23.07311 11.6703,-37.36341z" fill="#ef8b89" stroke-width="0"/></g></g></g></svg>