<svg version="1.1" xmlns="http://www.w3.org/2000/svg" xmlns:xlink="http://www.w3.org/1999/xlink" width="224.12919" height="306.10554" viewBox="0,0,224.12919,306.10554"><g transform="translate(-150.66473,-39.4745)"><g data-paper-data="{&quot;isPaintingLayer&quot;:true}" fill-rule="nonzero" stroke-linejoin="miter" stroke-miterlimit="10" stroke-dasharray="" stroke-dashoffset="0" style="mix-blend-mode: normal"><g data-paper-data="{&quot;index&quot;:null}" stroke="#000000" stroke-linecap="butt"><path d="M310.73435,278.20962l-13.02961,-46.26048l49.0875,-13.82586l13.02961,46.26047z" fill="#ffcaa0" stroke-width="2"/><g><path d="M297.5928,232.16797l-17.96641,-63.78813l49.72731,-14.00607l17.96641,63.78813z" fill="#0000c0" stroke-width="2"/><path d="M298.36614,232.1709l-9.41027,-33.41033c0,0 18.78375,9.68853 27.03912,7.36333c7.82733,-2.20462 21.27738,-20.97204 21.27738,-20.97204l9.41027,33.41034c0,0 -15.89178,4.47604 -23.90125,6.73196c-8.09513,2.28005 -24.41524,6.87674 -24.41524,6.87674z" fill="#56006b" stroke-width="0"/></g><path d="M311.34785,277.47131l-13.0296,-46.26048l21.4243,27.80738l40.69281,4.62724z" fill="#ff6e5b" stroke-width="0"/></g><g data-paper-data="{&quot;index&quot;:null}" stroke="#000000" stroke-linecap="butt"><path d="M370.32893,125.03392c-4.44494,31.89705 -19.8186,56.1145 -34.33805,54.09118c-14.51945,-2.02332 -22.68645,-29.52122 -18.24152,-61.41826c4.44494,-31.89705 19.81859,-56.11449 34.33804,-54.09117c14.51945,2.02332 22.68646,29.52122 18.24153,61.41827z" fill="#01930e" stroke-width="2"/><path d="M328.22851,109.02156c-4.44494,31.89705 22.73975,71.75231 8.22032,69.72899c-14.51944,-2.02332 -22.68646,-29.52122 -18.24153,-61.41827c4.44494,-31.89705 14.46614,-40.20778 10.02121,-8.31072z" fill="#31525b" stroke-width="0"/></g><g data-paper-data="{&quot;index&quot;:null}" stroke="#000000" stroke-linecap="butt"><path d="M236.44532,344.13568v-90.27109h61.17899v90.27109z" fill="#273750" stroke-width="2"/><path d="M237.23266,343.3791v-90.27109l18.42709,49.31565l42.75189,40.95544z" fill="#1f1e2e" stroke-width="0"/></g><path d="M184.4606,253.4533v-113.80147h113.80147v113.80147z" data-paper-data="{&quot;index&quot;:null}" fill="#0000c0" stroke="#000000" stroke-width="2" stroke-linecap="butt"/><g data-paper-data="{&quot;index&quot;:null}" stroke="#000000" stroke-linecap="butt"><path d="M183.83937,344.58004v-90.27109h61.17899v90.27109z" fill="#273750" stroke-width="2"/><path d="M184.62675,343.82345v-90.27109l18.42709,49.31565l42.75189,40.95544z" fill="#1f1e2e" stroke-width="0"/></g><g data-paper-data="{&quot;index&quot;:null}" stroke="#000000" stroke-linecap="butt"><path d="M211.35368,252.98408v-111.68333h61.17899v111.68333z" fill="#ffffff" stroke-width="2"/><path d="M212.14106,252.04805v-111.68333l18.42709,61.01328l42.75189,50.67005z" fill="#8ebbfc" stroke-width="0"/></g><g data-paper-data="{&quot;index&quot;:null}" stroke="#000000" stroke-linecap="butt"><path d="M152.0016,252.83581l21.04081,-43.2098l45.85039,22.32664l-21.04081,43.2098z" fill="#ffcaa0" stroke-width="2"/><g><path d="M172.81327,209.71496l29.01297,-59.58158l46.448,22.61764l-29.01297,59.58158z" fill="#0000c0" stroke-width="2"/><path d="M173.38876,210.23153l15.19614,-31.20706c0,0 7.58169,19.72853 15.29266,23.48335c7.31116,3.56012 29.83757,-1.50739 29.83757,-1.50739l-15.19614,31.20707c0,0 -14.84379,-7.22811 -22.32507,-10.87109c-7.56129,-3.68194 -22.80516,-11.10487 -22.80516,-11.10487z" fill="#56006b" stroke-width="0"/></g><path d="M152.95077,252.69259l21.04082,-43.2098l-2.49834,35.01441l27.30792,30.52202z" fill="#ff6e5b" stroke-width="0"/></g><g data-paper-data="{&quot;index&quot;:null}" stroke="#000000" stroke-linecap="butt"><path d="M194.81527,98.99125c0.18997,-1.36328 4.65743,-26.99563 4.94569,-28.32394c7.28377,-33.56525 41.18145,-31.35152 83.21965,-25.4934c39.48826,5.50279 72.97238,14.75489 74.59844,46.57448c0.17351,3.39527 -4.02433,25.84363 -4.50549,29.29651c-1.71987,12.34188 -2.53907,39.88076 -11.21139,48.68345c-16.49215,16.74009 -48.31289,9.12507 -76.95395,5.13387c-30.28274,-4.21997 -58.65775,-7.18338 -69.10631,-29.51363c-4.63004,-9.89513 -2.51904,-35.36079 -0.98664,-46.35737z" fill="#ffcaa0" stroke-width="2"/><path d="M192.99805,98.7483c0.18997,-1.36328 4.65743,-26.99563 4.94568,-28.32394c4.1383,-19.07018 -1.56006,60.92402 42.74329,89.23461c34.71914,22.18613 103.50613,6.26966 100.01943,9.80878c-16.49215,16.74009 -48.97438,9.14273 -77.61543,5.15153c-30.28274,-4.21997 -58.65777,-7.18337 -69.10632,-29.51363c-4.63004,-9.89513 -2.51904,-35.36079 -0.98664,-46.35737z" fill="#ff6e5b" stroke-width="0"/></g><g data-paper-data="{&quot;index&quot;:null}" stroke="#000000" stroke-linecap="butt"><path d="M239.80326,104.7509c-4.44493,31.89706 -19.8186,56.1145 -34.33805,54.09118c-14.51945,-2.02332 -22.68645,-29.52122 -18.24153,-61.41826c4.44493,-31.89706 19.8186,-56.11449 34.33805,-54.09117c14.51945,2.02332 22.68645,29.52121 18.24153,61.41826z" fill="#01930e" stroke-width="2"/><path d="M197.70283,88.73855c-4.44493,31.89706 22.73975,71.7523 8.22032,69.72899c-14.51944,-2.02332 -22.68645,-29.52122 -18.24153,-61.41826c4.44493,-31.89706 14.46614,-40.20778 10.02121,-8.31072z" fill="#31525b" stroke-width="0"/></g><g data-paper-data="{&quot;index&quot;:null}" stroke-linecap="butt"><path d="M374.46617,86.37592c-2.43755,17.49194 -45.37805,25.96345 -95.91031,18.92166c-50.53225,-7.04179 -89.52071,-26.9303 -87.08316,-44.42223c2.43755,-17.49194 45.37803,-25.96344 95.91028,-18.92165c50.53225,7.04179 89.52073,26.9303 87.08318,44.42224z" fill="#000000" stroke="none" stroke-width="NaN"/><path d="M373.69553,86.61614c-2.43755,17.49194 -45.37805,25.96344 -95.9103,18.92165c-50.53225,-7.04179 -89.52071,-26.93031 -87.08316,-44.42224c2.43755,-17.49194 41.16197,14.67054 91.69422,21.71232c50.53225,7.04179 93.7368,-13.70367 91.29925,3.78826z" fill="#ff0000" stroke="#000000" stroke-width="2"/><path d="M367.09192,94.98173c-0.6708,4.81362 -39.23978,18.24221 -89.57432,9.78159c-17.61405,-2.9607 -34.07014,-6.90155 -47.26383,-11.72251c-24.49419,-8.95016 -38.81144,-19.61077 -35.94169,-23.34012c2.96395,-3.85174 34.97056,21.91458 85.50281,28.95638c50.53225,7.04179 87.94782,-8.48896 87.27703,-3.67533z" fill="#900056" stroke="#000000" stroke-width="0"/></g><path d="M252.50962,154.97534c-0.10394,0.24354 -0.53782,1.06463 -1.55363,0.72868c-1.18679,-0.3925 -0.79429,-1.57928 -0.79429,-1.57928l0.20213,-0.44327c1.09135,-1.55866 2.14552,-3.13963 3.28379,-4.66414c1.08128,-1.24848 2.04542,-2.76898 3.19685,-3.9356c2.98032,-3.01966 7.69288,-1.44861 7.92394,2.8609c0.23753,4.43043 -3.20709,10.03028 -5.97265,13.23389c0,0 -0.81876,0.94455 -1.7633,0.12579c-0.94454,-0.81876 -0.12578,-1.7633 -0.12578,-1.7633c2.42276,-2.78209 4.54808,-6.69242 5.30886,-10.34636c0.84332,-4.05032 -2.66689,-3.46882 -4.4395,-1.19837c-0.77803,0.99653 -1.36218,1.64692 -2.18083,2.59049c-1.06991,1.43428 -2.06129,2.92309 -3.08558,4.39056z" data-paper-data="{&quot;index&quot;:null}" fill="#000000" stroke="none" stroke-width="0.5" stroke-linecap="butt"/><g><path d="M311.45958,143.58987c-1.17176,8.40867 -2.83455,14.41261 -4.91411,15.84555c-1.77037,1.21987 -3.91426,-1.54133 -5.54638,-1.76877c-3.5493,-0.4946 -4.56196,-0.3008 -2.39265,-15.86789c2.16931,-15.5671 6.80516,-27.78576 10.35445,-27.29115c3.5493,0.4946 4.668,13.51518 2.49868,29.08228z" data-paper-data="{&quot;index&quot;:null}" fill="#000000" stroke="none" stroke-width="0" stroke-linecap="butt"/><path d="M325.78222,122.61427l-31.67946,-15.53841" fill="none" stroke="#000000" stroke-width="5" stroke-linecap="round"/><path d="M289.029,150.42468l18.80606,10.74065" fill="none" stroke="#000000" stroke-width="2.5" stroke-linecap="round"/></g><g><path d="M337.20101,138.55781c-2.16064,15.50482 -6.63802,27.69412 -10.00051,27.22556c-3.36249,-0.46857 -4.33679,-13.41757 -2.17615,-28.9224c2.16064,-15.50482 6.63802,-27.69412 10.00051,-27.22555c3.36249,0.46858 4.33679,13.41757 2.17615,28.9224z" data-paper-data="{&quot;index&quot;:null}" fill="#000000" stroke="none" stroke-width="0" stroke-linecap="butt"/><path d="M352.11393,105.79179l-23.65268,4.98763" fill="none" stroke="#000000" stroke-width="5" stroke-linecap="round"/></g></g></g></svg>