<svg version="1.1" xmlns="http://www.w3.org/2000/svg" xmlns:xlink="http://www.w3.org/1999/xlink" width="110.37831" height="110.22817" viewBox="0,0,110.37831,110.22817"><g transform="translate(-264.73578,-124.88592)"><g data-paper-data="{&quot;isPaintingLayer&quot;:true}" fill-rule="nonzero" stroke-linejoin="miter" stroke-miterlimit="10" stroke-dasharray="" stroke-dashoffset="0" style="mix-blend-mode: normal"><path d="M267.38592,183.94493c-2.17873,-29.05796 19.61119,-54.38029 48.66915,-56.55902c29.05796,-2.17873 54.38029,19.61119 56.55902,48.66915c2.17873,29.05796 -19.61119,54.38029 -48.66915,56.55902c-29.05796,2.17873 -54.38029,-19.61119 -56.55902,-48.66915z" fill="#001aff" stroke="#000000" stroke-width="5" stroke-linecap="butt"/><path d="M369.5358,163.402l-13.77146,15.30276l-13.05054,-15.45384l-21.37729,14.79197l-16.31332,-12.83084l-18.43168,13.70624l-15.26508,-16.15265" fill="none" stroke="#000000" stroke-width="5" stroke-linecap="round"/><path d="M312.69492,181.2477l-1.18338,28.48743" fill="none" stroke="#000000" stroke-width="7.5" stroke-linecap="round"/><path d="M327.11091,208.95334l1.40799,-27.95104" fill="none" stroke="#000000" stroke-width="7.5" stroke-linecap="round"/><path d="M300.15337,207.07369c2.04784,1.43399 0.61385,3.48184 0.61385,3.48184l-1.87317,2.56385c-1.08595,0.60563 -2.06286,1.47321 -3.25784,1.8169c-1.2736,0.3663 -2.68473,0.59533 -3.96712,0.26106c-5.99519,-1.56277 -6.0007,-9.29325 -3.05213,-13.69102c0.76148,-1.13575 1.97171,-1.89511 2.95758,-2.84267c0,0 1.82994,-1.70332 3.53327,0.12661c1.70333,1.82994 -0.12662,3.53327 -0.12662,3.53327c-0.73791,0.65694 -1.62502,1.17742 -2.21372,1.97084c-0.70887,0.9554 -1.47524,4.70314 -1.00809,5.78576c0.47402,1.09852 3.33537,-0.42579 3.787,-0.67466l1.12513,-1.71791c0,0 1.43399,-2.04784 3.48184,-0.61385z" fill="#000000" stroke="none" stroke-width="0.5" stroke-linecap="butt"/></g></g></svg>