<svg version="1.1" xmlns="http://www.w3.org/2000/svg" xmlns:xlink="http://www.w3.org/1999/xlink" width="191.61047" height="309.21254" viewBox="0,0,191.61047,309.21254"><g transform="translate(-241.39737,-51.77488)"><g data-paper-data="{&quot;isPaintingLayer&quot;:true}" fill-rule="nonzero" stroke-linejoin="miter" stroke-miterlimit="10" stroke-dasharray="" stroke-dashoffset="0" style="mix-blend-mode: normal"><g data-paper-data="{&quot;index&quot;:null}" stroke="#000000" stroke-linecap="butt"><path d="M346.57036,238.88974c33.29598,-1.64224 39.39685,5.83001 39.79545,13.91156c0.3986,8.08156 -26.27,15.96424 -59.56598,17.60647c-33.29598,1.64223 11.72193,-54.82791 11.32333,-62.90946c3.58873,-6.11958 7.78416,-1.11996 8.51472,6.7045c0.90096,9.6494 -2.91353,24.82731 -0.06752,24.68694z" fill="#216aff" stroke-width="2"/><path d="M346.42127,253.40207c-0.72303,-14.65927 10.27637,-27.11437 24.56785,-27.81926c14.29148,-0.7049 26.46313,10.60736 27.18616,25.26663c0.72304,14.65927 -10.27636,27.11439 -24.56784,27.81929c-14.29148,0.7049 -26.46313,-10.60737 -27.18616,-25.26665z" fill="#faddbf" stroke-width="2"/><path d="M372.73153,278.31637c-14.29147,0.70489 -25.73204,-11.76463 -11.44055,-12.46951c14.29148,-0.7049 35.28537,-30.00903 36.0084,-15.34976c0.72303,14.65927 -10.27637,27.11438 -24.56785,27.81926z" fill="#ef8b89" stroke-width="0"/></g><g stroke="#000000" stroke-linecap="butt"><path d="M327.43955,340.83534v-95.29492h29.49199v95.29492z" fill="#73fffc" stroke-width="2"/><path d="M327.1138,340.21741l1.32626,-93.78573c0,0 5.20288,68.11227 6.3799,77.52842c0.2602,2.08162 2.52228,2.78987 2.52228,2.78987l18.60659,13.13896z" fill="#59a9e6" stroke-width="0"/></g><g stroke="#000000" stroke-linecap="butt"><path d="M288.4238,338.41279v-95.29492h29.49199v95.29492z" fill="#73fffc" stroke-width="2"/><path d="M288.09805,337.79491l1.32626,-93.78573c0,0 5.20288,68.11227 6.3799,77.52842c0.2602,2.08162 2.52228,2.78987 2.52228,2.78987l18.60659,13.13896z" fill="#59a9e6" stroke-width="0"/></g><g stroke="#000000" stroke-linecap="butt"><path d="M355.22917,235.69588c0,13.80271 10.04743,36.74388 4.95001,46.45977c-6.2338,11.88187 -28.61241,9.09579 -38.9397,9.09579c-13.66287,0 -32.94407,4.17018 -38.34426,-14.83216c-2.01935,-7.10576 4.35457,-32.37264 4.35457,-40.7234c0,-30.68249 15.2177,-55.55556 33.98969,-55.55556c18.77199,0 33.98969,24.87307 33.98969,55.55556z" fill="#216aff" stroke-width="2"/><path d="M303.96554,251.27245c0,13.80271 62.04198,20.54886 56.94455,30.26474c-6.2338,11.88186 -28.61241,9.09579 -38.9397,9.09579c-13.66287,0 -32.94406,4.17018 -38.34425,-14.83215c-2.01936,-7.10576 4.35457,-32.37265 4.35457,-40.7234c0,-9.45244 3.34855,-28.59801 5.51953,-29.96813c5.94391,-16.76415 10.4653,25.13995 10.4653,46.16315z" fill="#3236f4" stroke-width="0"/></g><g stroke="#000000" stroke-linecap="butt"><g><path d="M261.41176,129.57533c5.9288,-46.41366 48.36074,-79.23311 94.7744,-73.30431c46.41366,5.9288 79.23311,48.36074 73.30431,94.77439c-5.9288,46.41366 -48.36074,79.23311 -94.7744,73.30432c-46.41366,-5.9288 -79.23311,-48.36074 -73.30431,-94.7744z" fill="#faddbf" stroke-width="2"/><path d="M261.75085,128.74207c1.90751,-14.93294 13.78398,-39.58367 18.66394,-42.2006c0.5573,-0.29887 6.86879,-8.10528 15.17973,-13.81476c10.32992,-7.09649 23.06338,-12.33349 23.64425,-12.06062c7.57872,3.56 -25.60296,62.11142 -27.57849,87.35449c-0.00472,0.0602 1.87557,20.10125 3.42539,20.7417c2.26133,5.06986 6.61059,20.15342 16.49947,28.61478c18.42911,15.7687 46.05375,25.72287 44.51832,26.03657c-2.45611,0.50182 -15.03426,0.87108 -21.0483,0.10286c-46.41366,-5.9288 -79.23311,-48.36074 -73.30431,-94.77439z" fill="#ef8b89" stroke-width="0"/><path d="M429.02931,150.52459c-1.4729,11.53064 -3.54697,15.31472 -3.85994,13.40797c-0.3193,-1.94524 1.0583,-9.75818 -7.11351,-15.67695c-1.98019,-1.43423 -10.91921,4.93224 -13.46921,3.36839c-1.6017,-0.98229 -7.29308,-11.18982 -9.10568,-12.10289c-1.26733,-0.6384 -13.41127,6.73251 -14.74243,6.10815c-3.31998,-1.55716 -10.45075,-12.80092 -14.08835,-13.92895c-2.00312,-0.62116 -10.70945,10.57805 -12.7693,10.05902c-2.65645,-0.66936 -8.45829,-13.24695 -11.17362,-13.5938c-7.22117,-0.92243 -8.30782,6.00653 -14.26447,11.30066c-3.87077,3.44026 -12.22188,-14.71914 -15.8825,-10.7155c-4.54605,4.97204 -9.0284,9.75234 -13.69134,12.78558c-3.65825,2.3797 -11.97708,-11.70884 -15.16158,-9.47658c-15.37566,10.77799 -24.66015,17.66142 -22.35762,-0.36395c4.62995,-36.24564 43.97946,-2.66237 88.15244,-18.7164c42.28194,-15.36675 84.15709,1.2996 79.52713,37.54524z" fill="#ef8b89" stroke-width="0"/></g><path d="M431.60388,142.47504c-2.97554,23.29406 5.37475,9.47268 -11.26537,-2.30627c-2.03627,-1.4414 -11.18588,4.89819 -13.80716,3.32523c-1.64646,-0.98801 -7.51914,-11.2187 -9.38175,-12.13816c-1.3023,-0.64287 -13.73657,6.69095 -15.1043,6.06193c-3.41117,-1.56881 -10.76399,-12.84094 -14.4996,-13.98148c-2.05709,-0.62806 -10.95199,10.54707 -13.06695,10.02099c-2.7275,-0.67844 -8.72137,-13.28055 -11.50822,-13.63653c-7.41138,-0.94672 -8.50325,5.98157 -14.59676,11.25821c-3.95971,3.4289 -12.58737,-14.76582 -16.32961,-10.77261c-4.64741,4.95909 -9.23011,9.72657 -14.00386,12.74567c-3.74519,2.36859 -12.32626,-11.75345 -15.58591,-9.53078c-15.73848,10.73164 -25.24082,17.58725 -22.93829,-0.43812c4.62995,-36.24564 49.83732,-75.55109 95.39398,-69.73176c45.55665,5.81932 81.32378,52.87805 76.69382,89.12369z" fill="#724e36" stroke-width="2"/><path d="M431.50548,141.29024c-2.97554,23.29406 5.37475,9.47268 -11.26537,-2.30627c-2.03627,-1.4414 -11.18587,4.89819 -13.80716,3.32523c-1.64646,-0.98801 -7.51914,-11.2187 -9.38176,-12.13816c-1.3023,-0.64287 -13.73658,6.69095 -15.1043,6.06193c-3.41117,-1.56881 -10.76399,-12.84094 -14.4996,-13.98148c-2.05709,-0.62806 -10.95199,10.54707 -13.06695,10.02099c-2.7275,-0.67844 -8.72137,-13.28055 -11.50822,-13.63653c-7.41138,-0.94672 -8.50325,5.98157 -14.59675,11.25821c-3.95971,3.4289 -12.58738,-14.76582 -16.32961,-10.77261c-4.64741,4.95909 -9.2301,9.72657 -14.00386,12.74567c-3.74519,2.36859 -12.32627,-11.75345 -15.58592,-9.53078c-15.73848,10.73164 -25.24082,17.58725 -22.93829,-0.43812c4.62995,-36.24564 45.11049,-2.5179 90.3752,-18.43248c43.32691,-15.23327 86.34256,1.57878 81.71261,37.82441z" fill="#623728" stroke-width="0"/></g><g stroke="#000000" stroke-linecap="butt"><path d="M361.23249,165.41473c-3.61867,28.32875 -18.54731,41.27201 -34.98231,39.17263c-16.43499,-2.09938 -28.15275,-18.44642 -24.53408,-46.77516c3.61867,-28.32875 19.87538,-49.59186 36.31037,-47.49248c16.43499,2.09938 26.82468,26.76625 23.20602,55.09501z" fill="#a100fe" stroke-width="2"/><path d="M317.33488,140.06579c-7.84528,27.46024 26.0864,65.87795 9.6514,63.77857c-16.43499,-2.09938 -28.15275,-18.44642 -24.53408,-46.77516c3.61867,-28.32875 26.22463,-56.7028 14.88269,-17.00341z" fill="#99008e" stroke-width="0"/></g><g data-paper-data="{&quot;index&quot;:null}" stroke="#000000" stroke-linecap="butt"><path d="M401.42686,116.92773c16.43499,2.09938 26.82468,26.76624 23.20602,55.09501c-3.61867,28.32874 -19.0694,41.20533 -35.50439,39.10595c-16.43499,-2.09938 -27.63068,-18.37972 -24.012,-46.70848c3.61867,-28.32875 19.87538,-49.59186 36.31037,-47.49248z" fill="#f0f0f0" stroke-width="2"/><path d="M424.1072,171.11857c-3.61867,28.32874 -19.0694,41.20533 -35.50439,39.10595c-16.43499,-2.09938 26.06438,-30.75392 25.37383,-59.30451c-0.99832,-41.27571 13.74923,-8.13019 10.13056,20.19856z" fill="#9a99ff" stroke-width="0"/></g><path d="M412.89672,151.2601c5.73744,0.73289 8.76333,14.05008 6.75852,29.74477c-2.00482,15.69468 -8.28115,27.82362 -14.01859,27.09072c-5.73744,-0.73289 -8.76334,-14.05008 -6.75853,-29.74476c2.00482,-15.69468 8.28115,-27.82362 14.01859,-27.09072z" data-paper-data="{&quot;index&quot;:null}" fill="#000000" stroke="none" stroke-width="0" stroke-linecap="butt"/><g data-paper-data="{&quot;index&quot;:null}" stroke="#000000" stroke-linecap="butt"><path d="M373.89109,135.2623c5.45097,-9.13206 12.6832,-20.10906 28.26683,-18.11843c15.58363,1.99063 16.47444,14.47431 19.60468,24.09723c3.28984,10.11359 -8.67552,13.26441 -24.25915,11.27378c-15.58363,-1.99063 -29.3321,-7.67027 -23.61237,-17.25257z" fill="#a100fe" stroke-width="2"/><path d="M374.8528,135.02803c5.30723,-9.15042 9.508,2.04815 24.56026,3.9709c15.05227,1.92276 18.69556,-7.80478 21.67954,1.79946c3.13613,10.09395 -8.4413,13.29433 -23.49357,11.37157c-15.05227,-1.92276 -28.31513,-7.54036 -22.74624,-17.14193z" fill="#99008e" stroke-width="0"/></g><path d="M391.63632,338.87005c0,11.6628 -14.51982,21.11737 -32.43092,21.11737c-17.9111,0 -32.43092,-9.45457 -32.43092,-21.11737c0,-2.33142 -0.03339,-13.76009 1.08979,-15.13837c4.49546,-5.51647 17.81784,5.26144 32.14847,5.26144c17.9111,0 31.62358,-1.78588 31.62358,9.87692z" fill="#000082" stroke="#000000" stroke-width="2" stroke-linecap="butt"/><path d="M389.75004,336.13775c0,6.30841 -13.89058,10.1901 -31.80169,10.1901c-17.9111,0 -30.16566,-2.95748 -30.16566,-9.26589c0,-1.26107 -0.03338,-12.52602 1.0898,-13.27153c4.49546,-2.98386 15.55258,5.7726 29.88321,5.7726c17.9111,0 30.99434,0.26631 30.99434,6.57472z" fill="#2e0048" stroke="#000000" stroke-width="0" stroke-linecap="butt"/><path d="M348.64938,338.2252c0,11.6628 -14.51982,21.11737 -32.43092,21.11737c-17.9111,0 -32.43092,-9.45457 -32.43092,-21.11737c0,-2.33142 -0.03339,-13.76009 1.08979,-15.13837c4.49546,-5.51647 17.81784,5.26144 32.14847,5.26144c17.9111,0 31.62358,-1.78588 31.62358,9.87692z" fill="#000082" stroke="#000000" stroke-width="2" stroke-linecap="butt"/><path d="M346.7631,335.49289c0,6.30841 -13.89058,10.1901 -31.80169,10.1901c-17.9111,0 -30.16566,-2.95748 -30.16566,-9.26589c0,-1.26107 -0.03338,-12.52602 1.0898,-13.27153c4.49546,-2.98386 15.55258,5.7726 29.88321,5.7726c17.9111,0 30.99434,0.26631 30.99434,6.57472z" fill="#2e0048" stroke="#000000" stroke-width="0" stroke-linecap="butt"/><g><path d="M299.98065,265.71839c-14.66336,-3.5509 -21.44184,-12.99877 -18.60684,-27.66412c2.21725,-11.46992 17.52065,-21.1565 32.18403,-17.60559c14.66344,3.55089 23.02101,15.60555 19.50553,30.1228c-0.54975,2.27022 -1.73089,4.20223 -2.79317,5.97688c-5.73067,9.57341 -17.91923,12.16565 -30.28953,9.17004z" fill="#485e84" stroke="#000000" stroke-width="2" stroke-linecap="butt"/><path d="M299.92446,222.37642c0,0 -1.77957,5.47395 -0.50297,7.01786c12.24539,14.8096 25.6122,19.11615 30.14191,20.20313c1.02914,0.24697 1.81577,-0.55433 1.81577,-0.55433c0,0 -0.279,2.09529 -1.48554,4.55665c-1.28386,2.61909 -3.57136,5.66397 -6.08797,7.42799c-2.8747,2.01498 -10.70418,4.8799 -10.70418,4.8799l-20.88029,-1.6947c0,0 -7.97062,-10.83625 -8.57417,-12.91775c-0.5913,-2.03918 -0.70611,-4.62172 -0.9387,-7.36268c-0.36111,-4.25572 0.84998,-8.63066 2.36801,-11.07819c1.93739,-3.12358 5.54107,-6.08421 8.86415,-7.96027c3.09275,-1.74602 5.98397,-2.51749 5.98397,-2.51749z" fill="#343545" stroke="none" stroke-width="0" stroke-linecap="butt"/><path d="M296.49327,246.57138c0,0 0.26078,-9.01832 3.51605,-13.01624c4.12081,-5.06096 14.78623,-12.43328 14.78623,-12.43328" fill="none" stroke="#000000" stroke-width="1" stroke-linecap="round"/><path d="M333.09901,243.48324c0,0 -3.11023,6.43866 -5.84929,9.75065c-2.76518,3.34365 -11.18797,8.16124 -11.18797,8.16124" fill="none" stroke="#000000" stroke-width="1" stroke-linecap="round"/><path d="M285.53496,247.09263c0,0 0.1294,-9.26118 3.85253,-13.43099c5.71302,-6.3984 14.96795,-13.38711 14.96795,-13.38711" fill="none" stroke="#000000" stroke-width="1" stroke-linecap="round"/><path d="M284.93779,231.82041c0,0 15.81425,-7.02743 30.79352,1.87005c16.40789,9.74606 12.03162,26.42955 12.03162,26.42955" fill="none" stroke="#000000" stroke-width="1" stroke-linecap="round"/><path d="M281.4814,240.69501c0,0 17.23436,-4.45416 30.46923,3.36872c10.86703,6.42332 8.49536,20.82103 8.49536,20.82103" fill="none" stroke="#000000" stroke-width="1" stroke-linecap="round"/><path d="M324.22911,231.54852c-0.84845,-0.85283 -0.9889,-2.08867 -0.31378,-2.76031c0.67511,-0.67172 1.25282,-0.12378 2.10127,0.72905c0.84845,0.85283 1.64631,1.68759 0.97118,2.35926c-0.67511,0.67172 -1.91027,0.52484 -2.75866,-0.32799z" fill="#8fbbbe" stroke="none" stroke-width="0" stroke-linecap="butt"/><path d="M328.60722,237.35292c-0.58459,-0.14159 -0.88635,-0.96716 -0.67401,-1.84404c0.21234,-0.87688 0.42011,-1.20559 1.00469,-1.06404c0.58459,0.14159 1.06278,1.00989 0.85041,1.88676c-0.21234,0.87688 -0.59655,1.16287 -1.18111,1.02131z" fill="#8fbbbe" stroke="none" stroke-width="0" stroke-linecap="butt"/><path d="M319.30422,226.6896c-0.84929,-0.3046 -1.37312,-1.01042 -1.17009,-1.57659c0.20299,-0.56614 0.92793,-0.24901 1.7772,0.05554c0.84929,0.3046 1.50129,0.48115 1.29827,1.04734c-0.20299,0.56614 -1.05612,0.77826 -1.90538,0.47369z" fill="#8fbbbe" stroke="none" stroke-width="0" stroke-linecap="butt"/><path d="M295.66439,223.77273c0,0 10.18714,-0.94964 17.4575,1.18615c4.12192,1.2109 7.3368,3.70107 9.753,5.61631c2.13678,1.69371 5.27707,7.46989 7.22062,12.14118c1.43093,3.43921 2.03202,6.32116 2.03202,6.32116" fill="none" stroke="#000000" stroke-width="0.5" stroke-linecap="round"/><path d="M329.38573,229.51083c0,0 -2.88156,10.17225 -6.15423,14.47419c-2.75729,3.6245 -11.84903,9.7404 -11.84903,9.7404" fill="none" stroke="#000000" stroke-width="1" stroke-linecap="round"/><path d="M306.29812,250.81333c0,0 2.73807,-9.2699 5.07055,-13.14422c4.09539,-6.80256 12.87887,-12.39069 12.87887,-12.39069" fill="none" stroke="#000000" stroke-width="1" stroke-linecap="round"/></g><g stroke="#000000" stroke-linecap="butt"><path d="M283.31742,244.86405c28.49723,17.29816 29.36291,26.90575 25.16433,33.82256c-4.19859,6.91682 -30.70379,-1.49895 -59.20102,-18.79712c-28.49722,-17.29817 40.4329,-38.84179 44.63149,-45.7586c6.40159,-3.05742 7.07472,3.43446 3.29515,10.32437c-4.66109,8.49687 -16.32577,18.93021 -13.88994,20.4088z" fill="#216aff" stroke-width="2"/><path d="M310.99886,247.52649c12.23173,7.42481 15.97362,23.61477 8.35773,36.16129c-7.61589,12.54652 -23.70558,16.69849 -35.93731,9.27368c-12.23173,-7.42481 -15.97361,-23.61479 -8.35772,-36.1613c7.61589,-12.54652 23.70558,-16.69848 35.93731,-9.27367z" fill="#faddbf" stroke-width="2"/><path d="M280.40344,275.44006c12.23173,7.42481 46.04104,-5.08144 38.42515,7.46508c-7.61589,12.54652 -23.70558,16.69849 -35.93731,9.27367c-12.23173,-7.42481 -14.71958,-24.16357 -2.48785,-16.73875z" fill="#ef8b89" stroke-width="0"/></g><path d="M292.80258,196.82261c1.97967,-3.81284 6.04579,-5.62583 9.08194,-4.04942c3.03615,1.5764 3.8926,5.94524 1.91293,9.75808c-1.97967,3.81284 -6.04579,5.62583 -9.08194,4.04942c-3.03615,-1.5764 -3.8926,-5.94524 -1.91293,-9.75808z" fill="#000000" stroke="none" stroke-width="0" stroke-linecap="butt"/></g></g></svg>