<svg version="1.1" xmlns="http://www.w3.org/2000/svg" xmlns:xlink="http://www.w3.org/1999/xlink" width="110.5522" height="110.55221" viewBox="0,0,110.5522,110.55221"><g transform="translate(-264.7239,-124.7239)"><g data-paper-data="{&quot;isPaintingLayer&quot;:true}" fill-rule="nonzero" stroke-linejoin="miter" stroke-miterlimit="10" stroke-dasharray="" stroke-dashoffset="0" style="mix-blend-mode: normal"><path d="M269.98548,196.80336c-9.28023,-27.62225 5.5889,-57.53763 33.21116,-66.81787c27.62226,-9.28024 57.53764,5.58891 66.81787,33.21116c9.28024,27.62226 -5.5889,57.53763 -33.21116,66.81787c-27.62226,9.28024 -57.53764,-5.58891 -66.81787,-33.21116z" fill="#001aff" stroke="#000000" stroke-width="5" stroke-linecap="butt"/><path d="M363.90976,151.69414l-9.57045,18.22729l-16.45974,-11.75647l-17.06721,19.60871l-18.97455,-8.4096l-14.48051,17.82984l-18.77823,-11.88734" fill="none" stroke="#000000" stroke-width="5" stroke-linecap="round"/><path d="M342.29426,217.78782l-5.8813,-27.89882" fill="none" stroke="#000000" stroke-width="7.5" stroke-linecap="round"/><path d="M348.15136,180.53866l5.5313,27.43442" fill="none" stroke="#000000" stroke-width="7.5" stroke-linecap="round"/><path d="M314.70705,190.73306l26.37417,-4.80374" fill="none" stroke="#000000" stroke-width="5" stroke-linecap="round"/><path d="M345.21614,179.69976l15.67279,-11.8554" fill="none" stroke="#000000" stroke-width="5" stroke-linecap="round"/><path d="M322.76728,222.64015c-3.4982,0.46206 -9.78649,-4.46981 -10.81857,-5.11848c-2.34915,-1.47647 -1.00256,-4.07741 1.29332,-4.67573c2.95035,-0.76889 6.49791,4.28322 9.0056,4.31159c0.74791,-0.41557 1.68987,-0.43616 2.48134,0.02806c1.19097,0.69854 1.59016,2.2303 0.89162,3.42125c-0.0617,0.10518 -0.12988,0.20419 -0.20377,0.29681c-0.32735,0.88793 -1.16151,1.53994 -2.64953,1.7365z" fill="#000000" stroke="none" stroke-width="0.5" stroke-linecap="butt"/></g></g></svg>