<svg version="1.1" xmlns="http://www.w3.org/2000/svg" xmlns:xlink="http://www.w3.org/1999/xlink" width="183.02845" height="329.16622" viewBox="0,0,183.02845,329.16622"><g transform="translate(-226.20565,-31.82119)"><g data-paper-data="{&quot;isPaintingLayer&quot;:true}" fill-rule="nonzero" stroke-linejoin="miter" stroke-miterlimit="10" stroke-dasharray="" stroke-dashoffset="0" style="mix-blend-mode: normal"><g data-paper-data="{&quot;index&quot;:null}" stroke="#000000" stroke-linecap="butt"><path d="M354.08611,233.57419c31.89534,-9.69566 39.63123,-3.93275 41.98454,3.80885c2.35332,7.7416 -21.59523,21.87729 -53.49058,31.57295c-31.89535,9.69565 -1.97321,-56.03222 -4.32652,-63.77382c1.9916,-6.80895 7.27758,-2.98062 9.89033,4.43082c3.22213,9.14006 3.21595,24.78995 5.94224,23.96121z" fill="#216aff" stroke-width="2"/><path d="M374.53244,214.72484c13.69029,-4.16163 28.24894,3.84849 32.51767,17.8911c4.26873,14.04261 -3.36896,28.80007 -17.05925,32.9617c-13.69029,4.16163 -28.24895,-3.8485 -32.51767,-17.89112c-4.26873,-14.04261 3.36897,-28.80006 17.05926,-32.96169z" fill="#faddbf" stroke-width="2"/><path d="M374.92438,256.13852c13.69029,-4.16163 26.92168,-37.69379 31.19041,-23.65118c4.26873,14.04261 -3.36896,28.80007 -17.05926,32.96169c-13.69029,4.16163 -27.82146,-5.14889 -14.13115,-9.31051z" fill="#ef8b89" stroke-width="0"/></g><g stroke="#000000" stroke-linecap="butt"><path d="M327.76518,340.83534v-95.29492h29.49199v95.29492z" fill="#73fffc" stroke-width="2"/><path d="M327.43943,340.21741l1.32626,-93.78573c0,0 5.20288,68.11227 6.3799,77.52842c0.2602,2.08162 2.52228,2.78987 2.52228,2.78987l18.60659,13.13896z" fill="#59a9e6" stroke-width="0"/></g><g stroke="#000000" stroke-linecap="butt"><path d="M288.4238,338.41279v-95.29492h29.49199v95.29492z" fill="#73fffc" stroke-width="2"/><path d="M288.09805,337.79491l1.32626,-93.78573c0,0 5.20288,68.11227 6.3799,77.52842c0.2602,2.08162 2.52228,2.78987 2.52228,2.78987l18.60659,13.13896z" fill="#59a9e6" stroke-width="0"/></g><g stroke="#000000" stroke-linecap="butt"><path d="M355.22917,235.69588c0,13.80271 10.04743,36.74388 4.95001,46.45977c-6.2338,11.88187 -28.61241,9.09579 -38.9397,9.09579c-13.66287,0 -32.94407,4.17018 -38.34426,-14.83216c-2.01935,-7.10576 4.35457,-32.37264 4.35457,-40.7234c0,-30.68249 15.2177,-55.55556 33.98969,-55.55556c18.77199,0 33.98969,24.87307 33.98969,55.55556z" fill="#216aff" stroke-width="2"/><path d="M303.96554,251.27245c0,13.80271 62.04198,20.54886 56.94455,30.26474c-6.2338,11.88186 -28.61241,9.09579 -38.9397,9.09579c-13.66287,0 -32.94406,4.17018 -38.34425,-14.83215c-2.01936,-7.10576 4.35457,-32.37265 4.35457,-40.7234c0,-9.45244 3.34855,-28.59801 5.51953,-29.96813c5.94391,-16.76415 10.4653,25.13995 10.4653,46.16315z" fill="#3236f4" stroke-width="0"/></g><g stroke="#000000" stroke-linecap="butt"><g><path d="M232.22222,120.27785c0,-46.79079 37.93143,-84.72222 84.72222,-84.72222c46.79079,0 84.72222,37.93143 84.72222,84.72222c0,46.79079 -37.93143,84.72222 -84.72222,84.72222c-46.79079,0 -84.72222,-37.93143 -84.72222,-84.72222z" fill="#faddbf" stroke-width="2"/><path d="M232.45299,119.40834c0,-15.05428 8.65728,-41.01117 13.16632,-44.22534c0.51494,-0.36707 5.78642,-8.91029 13.30693,-15.62682c9.34748,-8.34819 21.31473,-15.15641 21.9255,-14.95935c7.96872,2.57101 -17.52654,64.85492 -16.28763,90.14485c0.00295,0.06031 4.40745,19.70158 6.02593,20.14049c2.8855,4.74247 9.11092,19.15337 19.99223,26.29351c20.2786,13.30648 48.94186,19.68013 47.45857,20.18586c-2.37273,0.80898 -14.80271,2.76903 -20.86562,2.76903c-46.79079,0 -84.72222,-37.93143 -84.72222,-84.72222z" fill="#ef8b89" stroke-width="0"/><path d="M401.14322,119.81965c0,11.62434 -1.57787,15.64071 -2.12992,13.78899c-0.5632,-1.8891 -0.18668,-9.81362 -9.04258,-14.64925c-2.14596,-1.17177 -10.20624,6.27605 -12.93385,5.04791c-1.71325,-0.77142 -8.65215,-10.17554 -10.56583,-10.85157c-1.33801,-0.47267 -12.45011,8.37757 -13.84965,7.92692c-3.49052,-1.12394 -11.98851,-11.37355 -15.73972,-12.03156c-2.06568,-0.36235 -9.2828,11.84977 -11.39182,11.59592c-2.71985,-0.32737 -10.06862,-12.06843 -12.80601,-12.06843c-7.27985,0 -7.47978,7.01079 -12.7176,13.01701c-3.40366,3.90299 -13.98842,-13.05188 -17.11223,-8.61668c-3.87941,5.50799 -7.71992,10.81771 -11.96095,14.41734c-3.32724,2.82405 -13.36416,-10.09687 -16.24015,-7.47909c-13.88607,12.63935 -22.22353,20.64372 -22.22353,2.47189c0,-36.54015 43.28764,-8.21349 85.0704,-29.73523c39.99404,-20.60039 83.64345,-9.37431 83.64345,27.16584z" fill="#ef8b89" stroke-width="0"/></g><path d="M402.67709,111.50876c0,23.48334 6.5317,8.71531 -11.46679,-0.86026c-2.20249,-1.17177 -10.47508,6.27605 -13.27454,5.04791c-1.75838,-0.77142 -8.88005,-10.17554 -10.84414,-10.85157c-1.37326,-0.47267 -12.77806,8.37757 -14.21446,7.92692c-3.58246,-1.12394 -12.30429,-11.37355 -16.15431,-12.03156c-2.12009,-0.36235 -9.52731,11.84977 -11.69189,11.59592c-2.79149,-0.32737 -10.33384,-12.06843 -13.14333,-12.06843c-7.47161,0 -7.6768,7.01079 -13.05259,13.01701c-3.49332,3.90299 -14.35688,-13.05188 -17.56298,-8.61668c-3.98159,5.50799 -7.92327,10.81771 -12.276,14.41734c-3.41488,2.82405 -13.71618,-10.09687 -16.66792,-7.47909c-14.25184,12.63935 -22.80892,20.64372 -22.80892,2.47189c0,-36.54015 39.86264,-81.25697 85.78948,-81.25697c45.92683,0 87.36842,42.14743 87.36842,78.68758z" fill="#724e36" stroke-width="2"/><path d="M402.42936,110.34597c0,23.48334 6.5317,8.71531 -11.46679,-0.86026c-2.20249,-1.17177 -10.47508,6.27605 -13.27454,5.04791c-1.75838,-0.77142 -8.88005,-10.17554 -10.84415,-10.85157c-1.37326,-0.47267 -12.77806,8.37757 -14.21446,7.92692c-3.58246,-1.12394 -12.30429,-11.37355 -16.15431,-12.03156c-2.12009,-0.36235 -9.52731,11.84977 -11.69189,11.59592c-2.79149,-0.32737 -10.33384,-12.06843 -13.14333,-12.06843c-7.47161,0 -7.6768,7.01079 -13.05259,13.01701c-3.49332,3.90299 -14.35688,-13.05188 -17.56298,-8.61668c-3.98159,5.50799 -7.92327,10.81771 -12.27601,14.41734c-3.41488,2.82405 -13.71618,-10.09687 -16.66792,-7.47909c-14.25184,12.63935 -22.80892,20.64372 -22.80892,2.47189c0,-36.54015 44.42786,-8.21349 87.31121,-29.73523c41.04751,-20.60039 85.84668,-9.37431 85.84668,27.16584z" fill="#623728" stroke-width="0"/></g><g stroke="#000000" stroke-linecap="butt"><path d="M317.54417,145.45964c0,28.55894 -13.1683,43.28947 -29.73684,43.28947c-16.56854,0 -30.26316,-14.73054 -30.26316,-43.28947c0,-28.55894 13.43146,-51.71053 30,-51.71053c16.56854,0 30,23.15159 30,51.71053z" fill="#f0f0f0" stroke-width="2"/><path d="M270.78844,125.87724c-4.30259,28.23297 34.22345,62.0416 17.65491,62.0416c-16.56854,0 -30.26316,-14.73054 -30.26316,-43.28947c0,-28.55894 18.82852,-59.56866 12.60825,-18.75213z" fill="#9a99ff" stroke-width="0"/></g><path d="M297.65434,162.10315c0,8.86465 -2.62704,16.05088 -5.86765,16.05088c-3.24062,0 -5.86765,-7.18623 -5.86765,-16.05088c0,-8.86465 2.62704,-16.05088 5.86765,-16.05088c3.24062,0 5.86765,7.18623 5.86765,16.05088z" fill="#000000" stroke="none" stroke-width="0" stroke-linecap="butt"/><g stroke="#000000" stroke-linecap="butt"><path d="M312.53487,115.42496c4.45946,10.22981 11.05276,41.71511 -4.6575,41.71511c-15.71026,0 -48.13056,-32.23503 -43.58575,-41.85025c4.32432,-9.14873 6.78974,-21.41892 22.5,-21.41892c15.71026,0 21.49332,11.80491 25.74324,21.55405z" fill="#a100fe" stroke-width="2"/><path d="M311.78093,115.07071c4.3074,10.22981 11.73091,41.37445 -3.44367,41.37445c-15.17458,0 -47.54445,-31.89437 -43.15461,-41.50959c4.17687,-9.14873 6.55823,0.96203 21.73281,0.96203c15.17458,0 20.76045,-10.57604 24.86546,-0.8269z" fill="#99008e" stroke-width="0"/></g><g data-paper-data="{&quot;index&quot;:null}" stroke="#000000" stroke-linecap="butt"><path d="M351.27085,92.27048c16.56854,0 30,23.15159 30,51.71053c0,28.55893 -13.69462,43.28947 -30.26316,43.28947c-16.56854,0 -29.73684,-14.73053 -29.73684,-43.28947c0,-28.55894 13.43146,-51.71053 30,-51.71053z" fill="#f0f0f0" stroke-width="2"/><path d="M380.63483,143.15074c0,28.55893 -13.69462,43.28947 -30.26316,43.28947c-16.56854,0 21.9575,-33.80863 17.65491,-62.0416c-6.22027,-40.81653 12.60825,-9.80681 12.60825,18.75213z" fill="#9a99ff" stroke-width="0"/></g><path d="M351.5636,137.07588c3.64448,0 6.59892,8.08182 6.59892,18.05124c0,9.96942 -2.95444,18.05124 -6.59892,18.05124c-3.64448,0 -6.59892,-8.08182 -6.59892,-18.05124c0,-9.96942 2.95444,-18.05124 6.59892,-18.05124z" data-paper-data="{&quot;index&quot;:null}" fill="#000000" stroke="none" stroke-width="0" stroke-linecap="butt"/><g data-paper-data="{&quot;index&quot;:null}" stroke="#000000" stroke-linecap="butt"><path d="M326.28016,113.9463c4.24992,-9.74914 10.03298,-21.55405 25.74324,-21.55405c15.71026,0 18.17568,12.27019 22.5,21.41892c4.54481,9.61522 -6.92488,14.25676 -22.63514,14.25676c-15.71026,0 -30.06757,-3.89181 -25.60811,-14.12162z" fill="#a100fe" stroke-width="2"/><path d="M327.20443,113.59206c4.10501,-9.74914 9.69088,0.8269 24.86546,0.8269c15.17458,0 17.55594,-10.11076 21.73281,-0.96203c4.38984,9.61522 -6.68876,14.25676 -21.86334,14.25676c-15.17458,0 -29.04234,-3.89181 -24.73494,-14.12162z" fill="#99008e" stroke-width="0"/></g><path d="M391.63632,338.87005c0,11.6628 -14.51982,21.11737 -32.43092,21.11737c-17.9111,0 -32.43092,-9.45457 -32.43092,-21.11737c0,-2.33142 -0.03339,-13.76009 1.08979,-15.13837c4.49546,-5.51647 17.81784,5.26144 32.14847,5.26144c17.9111,0 31.62358,-1.78588 31.62358,9.87692z" fill="#000082" stroke="#000000" stroke-width="2" stroke-linecap="butt"/><path d="M389.75004,336.13775c0,6.30841 -13.89058,10.1901 -31.80169,10.1901c-17.9111,0 -30.16566,-2.95748 -30.16566,-9.26589c0,-1.26107 -0.03338,-12.52602 1.0898,-13.27153c4.49546,-2.98386 15.55258,5.7726 29.88321,5.7726c17.9111,0 30.99434,0.26631 30.99434,6.57472z" fill="#2e0048" stroke="#000000" stroke-width="0" stroke-linecap="butt"/><path d="M348.64938,338.2252c0,11.6628 -14.51982,21.11737 -32.43092,21.11737c-17.9111,0 -32.43092,-9.45457 -32.43092,-21.11737c0,-2.33142 -0.03339,-13.76009 1.08979,-15.13837c4.49546,-5.51647 17.81784,5.26144 32.14847,5.26144c17.9111,0 31.62358,-1.78588 31.62358,9.87692z" fill="#000082" stroke="#000000" stroke-width="2" stroke-linecap="butt"/><path d="M346.7631,335.49289c0,6.30841 -13.89058,10.1901 -31.80169,10.1901c-17.9111,0 -30.16566,-2.95748 -30.16566,-9.26589c0,-1.26107 -0.03338,-12.52602 1.0898,-13.27153c4.49546,-2.98386 15.55258,5.7726 29.88321,5.7726c17.9111,0 30.99434,0.26631 30.99434,6.57472z" fill="#2e0048" stroke="#000000" stroke-width="0" stroke-linecap="butt"/><g><path d="M258.83508,243.35968c-6.35233,-13.6847 -3.18061,-24.87176 10.05985,-31.78549c10.35548,-5.40733 27.46423,0.53528 33.81657,14.22c6.35239,13.68475 2.12424,27.73062 -11.42407,34.01969c-2.11869,0.98349 -4.36591,1.26234 -6.416,1.53621c-11.05931,1.47726 -20.67739,-6.4457 -26.03635,-17.99038z" fill="#485e84" stroke="#000000" stroke-width="2" stroke-linecap="butt"/><path d="M292.71369,216.32693c0,0 -5.39131,2.01614 -5.80443,3.97642c-3.96287,18.80344 0.99083,31.94418 2.96093,36.16537c0.4476,0.95905 1.56441,1.0756 1.56441,1.0756c0,0 -1.81322,1.08642 -4.49046,1.67501c-2.8488,0.62632 -6.65572,0.73245 -9.60309,-0.13826c-3.36671,-0.99464 -10.48378,-5.33697 -10.48378,-5.33697l-11.67599,-17.39339c0,0 3.51573,-12.9844 4.76861,-14.75279c1.22739,-1.73246 3.17664,-3.43043 5.17652,-5.3192c3.10509,-2.93257 7.28247,-4.70918 10.14284,-5.04543c3.65049,-0.42909 8.21108,0.54709 11.74829,1.97908c3.29203,1.33274 5.69603,3.11463 5.69603,3.11463z" fill="#343545" stroke="none" stroke-width="0" stroke-linecap="butt"/><path d="M271.64539,228.7082c0,0 7.21891,-5.41161 12.37418,-5.35395c6.52603,0.07296 18.93591,3.82759 18.93591,3.82759" fill="none" stroke="#000000" stroke-width="1" stroke-linecap="round"/><path d="M296.85592,255.42796c0,0 -6.97475,1.57567 -11.27187,1.49481c-4.33815,-0.08158 -13.35257,-3.67224 -13.35257,-3.67224" fill="none" stroke="#000000" stroke-width="1" stroke-linecap="round"/><path d="M264.41385,220.45828c0,0 7.32713,-5.66563 12.90823,-5.34892c8.564,0.486 19.79541,3.37583 19.79541,3.37583" fill="none" stroke="#000000" stroke-width="1" stroke-linecap="round"/><path d="M275.99198,210.4811c0,0 15.34616,7.99816 17.71169,25.25934c2.59114,18.90742 -13.18819,25.87185 -13.18819,25.87185" fill="none" stroke="#000000" stroke-width="1" stroke-linecap="round"/><path d="M266.89564,213.30275c0,0 14.21696,10.71171 16.3371,25.93881c1.74081,12.50284 -11.00173,19.61245 -11.00173,19.61245" fill="none" stroke="#000000" stroke-width="1" stroke-linecap="round"/><path d="M300.67119,241.0559c0.13898,-1.19494 1.01853,-2.07438 1.96446,-1.96435c0.94598,0.10997 0.87698,0.90321 0.73799,2.09815c-0.13898,1.19494 -0.29534,2.33903 -1.24129,2.22901c-0.94598,-0.10997 -1.60018,-1.1679 -1.46116,-2.36279z" fill="#8fbbbe" stroke="none" stroke-width="0" stroke-linecap="butt"/><path d="M298.85568,248.09598c-0.25324,-0.54559 0.20485,-1.29579 1.0232,-1.67566c0.81836,-0.37988 1.20493,-0.42199 1.45819,0.12356c0.25324,0.54559 -0.12842,1.46044 -0.94678,1.84029c-0.81836,0.37988 -1.28137,0.25733 -1.53461,-0.28822z" fill="#8fbbbe" stroke="none" stroke-width="0" stroke-linecap="butt"/><path d="M301.40643,234.17672c-0.29051,-0.85421 -0.06442,-1.7036 0.50502,-1.89729c0.56938,-0.1937 0.77266,0.57102 1.0632,1.42518c0.29051,0.85421 0.55836,1.47431 -0.01108,1.66802c-0.56938,0.1937 -1.2666,-0.34176 -1.55712,-1.19593z" fill="#8fbbbe" stroke="none" stroke-width="0" stroke-linecap="butt"/><path d="M288.9684,213.86304c0,0 7.08653,7.37975 9.94256,14.3985c1.61921,3.97929 1.67262,8.04542 1.67856,11.12863c0.0053,2.72662 -2.55893,8.78058 -5.00382,13.21012c-1.80003,3.26123 -3.68077,5.52613 -3.68077,5.52613" fill="none" stroke="#000000" stroke-width="0.5" stroke-linecap="round"/><path d="M305.47661,243.82191c0,0 -9.75376,4.07948 -15.15776,4.19752c-4.55299,0.09947 -14.99985,-3.20617 -14.99985,-3.20617" fill="none" stroke="#000000" stroke-width="1" stroke-linecap="round"/><path d="M274.43163,239.02159c0,0 8.95836,-3.62987 13.4423,-4.2173c7.87294,-1.03141 17.71488,2.36167 17.71488,2.36167" fill="none" stroke="#000000" stroke-width="1" stroke-linecap="round"/></g><g stroke="#000000" stroke-linecap="butt"><path d="M264.77679,217.33542c4.20984,33.06956 -2.76872,39.72951 -10.79531,40.75132c-8.02661,1.02181 -17.94619,-24.95804 -22.15602,-58.02761c-4.20983,-33.06956 55.56968,7.4508 63.59628,6.429c6.37856,3.10519 1.71804,7.67434 -6.02659,9.00727c-9.55095,1.64381 -24.97819,-0.98662 -24.61836,1.84003z" fill="#216aff" stroke-width="2"/><path d="M279.93059,240.65306c1.80697,14.19429 -8.53107,27.20358 -23.09066,29.05705c-14.55959,1.85347 -27.82731,-8.15075 -29.63428,-22.34504c-1.80697,-14.19429 8.53108,-27.20358 23.09067,-29.05705c14.55959,-1.85347 27.8273,8.15075 29.63428,22.34505z" fill="#faddbf" stroke-width="2"/><path d="M239.0376,234.09482c1.80697,14.19429 32.64553,32.86135 18.08594,34.71481c-14.55959,1.85347 -27.82731,-8.15075 -29.63428,-22.34505c-1.80697,-14.19429 9.74136,-26.56407 11.54833,-12.36977z" fill="#ef8b89" stroke-width="0"/></g><path d="M240.84493,167.33666c0,-4.9936 3.29632,-9.04171 7.36253,-9.04171c4.06621,0 7.36253,4.04811 7.36253,9.04171c0,4.9936 -3.29632,9.04171 -7.36253,9.04171c-4.06621,0 -7.36253,-4.04811 -7.36253,-9.04171z" fill="#000000" stroke="#000000" stroke-width="2.5" stroke-linecap="butt"/></g></g></svg>