<svg version="1.1" xmlns="http://www.w3.org/2000/svg" xmlns:xlink="http://www.w3.org/1999/xlink" width="203.13071" height="329.53373" viewBox="0,0,203.13071,329.53373"><g transform="translate(-213.38253,-31.45367)"><g data-paper-data="{&quot;isPaintingLayer&quot;:true}" fill-rule="nonzero" stroke-linejoin="miter" stroke-miterlimit="10" stroke-dasharray="" stroke-dashoffset="0" style="mix-blend-mode: normal"><g data-paper-data="{&quot;index&quot;:null}" stroke="#000000" stroke-linecap="butt"><path d="M360.51621,227.41042c29.19125,-16.09936 37.95408,-12.066 41.86169,-4.98074c3.90762,7.08527 -16.58883,25.88012 -45.78009,41.97948c-29.19126,16.09935 -13.55031,-54.40489 -17.45792,-61.49016c0.53626,-7.07395 6.50125,-4.42506 10.59418,2.28344c5.04755,8.27315 8.28699,23.5841 10.78215,22.20799z" fill="#216aff" stroke-width="2"/><path d="M376.60906,204.73067c12.52962,-6.91026 28.43292,-2.09346 35.52101,10.75862c7.08809,12.85208 2.67686,28.87263 -9.85277,35.78288c-12.52962,6.91026 -28.43293,2.09345 -35.52102,-10.75863c-7.08809,-12.85208 -2.67685,-28.87261 9.85277,-35.78287z" fill="#faddbf" stroke-width="2"/><path d="M385.58088,245.16275c12.52962,-6.91026 18.51945,-42.45738 25.60754,-29.6053c7.08809,12.85208 2.67686,28.87263 -9.85277,35.78287c-12.52962,6.91026 -28.28441,0.73268 -15.75477,-6.17757z" fill="#ef8b89" stroke-width="0"/></g><g stroke="#000000" stroke-linecap="butt"><path d="M327.76518,340.83535v-95.29492h29.49199v95.29492z" fill="#73fffc" stroke-width="2"/><path d="M327.43943,340.21742l1.32626,-93.78573c0,0 5.20288,68.11227 6.3799,77.52842c0.2602,2.08162 2.52228,2.78987 2.52228,2.78987l18.60659,13.13896z" fill="#59a9e6" stroke-width="0"/></g><g stroke="#000000" stroke-linecap="butt"><path d="M288.4238,338.4128v-95.29492h29.49199v95.29492z" fill="#73fffc" stroke-width="2"/><path d="M288.09805,337.7949l1.32626,-93.78573c0,0 5.20288,68.11227 6.3799,77.52842c0.2602,2.08162 2.52228,2.78987 2.52228,2.78987l18.60659,13.13896z" fill="#59a9e6" stroke-width="0"/></g><g stroke="#000000" stroke-linecap="butt"><path d="M355.22917,235.69588c0,13.80271 10.04743,36.74388 4.95001,46.45977c-6.2338,11.88187 -28.61241,9.09579 -38.9397,9.09579c-13.66287,0 -32.94407,4.17018 -38.34426,-14.83216c-2.01935,-7.10576 4.35457,-32.37264 4.35457,-40.7234c0,-30.68249 15.2177,-55.55556 33.98969,-55.55556c18.77199,0 33.98969,24.87307 33.98969,55.55556z" fill="#216aff" stroke-width="2"/><path d="M303.96554,251.27246c0,13.80271 62.04198,20.54886 56.94455,30.26474c-6.2338,11.88186 -28.61241,9.09579 -38.9397,9.09579c-13.66287,0 -32.94406,4.17018 -38.34425,-14.83215c-2.01936,-7.10576 4.35457,-32.37265 4.35457,-40.7234c0,-9.45244 3.34855,-28.59801 5.51953,-29.96813c5.94391,-16.76415 10.4653,25.13995 10.4653,46.16315z" fill="#3236f4" stroke-width="0"/></g><g stroke="#000000" stroke-linecap="butt"><g><path d="M217.38639,123.97153c-2.29523,-46.73446 33.72989,-86.48087 80.46435,-88.7761c46.73446,-2.29523 86.48088,33.72989 88.77611,80.46435c2.29523,46.73446 -33.72989,86.48088 -80.46435,88.77611c-46.73446,2.29523 -86.48088,-33.72989 -88.77611,-80.46435z" fill="#faddbf" stroke-width="2"/><path d="M217.57423,123.09175c-0.73846,-15.03616 6.63514,-41.38646 10.98109,-44.81795c0.49632,-0.39189 5.34238,-9.1834 12.52437,-16.26075c8.92672,-8.79666 20.5456,-16.18372 21.1653,-16.01685c8.08524,2.17703 -14.32411,65.63658 -11.84615,90.83529c0.0059,0.06009 5.36857,19.46166 7.00663,19.82065c3.11466,4.59522 10.03949,18.68339 21.25794,25.28118c20.90691,12.29574 49.84831,17.2557 48.39162,17.83357c-2.33019,0.9244 -14.64907,3.49182 -20.70468,3.78922c-46.73446,2.29523 -86.48088,-33.72989 -88.77611,-80.46435z" fill="#ef8b89" stroke-width="0"/><path d="M386.08156,115.2278c0.57021,11.61034 -0.80874,15.69928 -1.45096,13.87687c-0.65519,-1.8592 -0.66784,-9.79265 -9.75029,-14.18805c-2.20085,-1.06509 -9.8861,6.76915 -12.67066,5.67628c-1.74903,-0.68645 -9.14087,-9.73887 -11.08541,-10.32022c-1.35958,-0.40647 -12.02418,8.9782 -13.44414,8.59674c-3.54145,-0.95136 -12.53198,-10.77179 -16.31095,-11.245c-2.08097,-0.26059 -8.69036,12.29086 -10.8093,12.14077c-2.73264,-0.19356 -10.64849,-11.56001 -13.38259,-11.42573c-7.27109,0.3571 -7.12687,7.36926 -12.06376,13.62518c-3.20811,4.06525 -14.61181,-12.35 -17.5143,-7.7669c-3.60456,5.69165 -7.17999,11.18337 -11.23934,14.9867c-3.18471,2.98386 -13.84335,-9.42916 -16.58747,-6.67346c-13.24936,13.30529 -21.18413,21.709 -22.07552,3.55904c-1.79241,-36.49616 42.83263,-10.32699 83.50939,-33.87239c38.93538,-22.53742 83.08292,-13.46599 84.87532,23.03018z" fill="#ef8b89" stroke-width="0"/></g><path d="M387.20591,106.85167c1.15193,23.45507 6.95135,8.38442 -11.49518,-0.29675c-2.25732,-1.06232 -10.15461,6.78233 -13.01094,5.69299c-1.79411,-0.68424 -9.36851,-9.7277 -11.36339,-10.30657c-1.39479,-0.40474 -12.35173,8.99429 -13.8085,8.61464c-3.63328,-0.94685 -12.84739,-10.75629 -16.72505,-11.22466c-2.13531,-0.25791 -8.93457,12.30285 -11.109,12.15548c-2.80419,-0.19004 -10.91339,-11.547 -13.7195,-11.40918c-7.46262,0.36651 -7.32366,7.37891 -12.39835,13.6416c-3.29766,4.06965 -14.97983,-12.33192 -17.96451,-7.74479c-3.70661,5.69667 -7.3831,11.19335 -11.55401,15.00216c-3.27224,2.98816 -14.19495,-9.4119 -17.01472,-6.65248c-13.61469,13.32323 -21.76882,21.73772 -22.66021,3.58776c-1.79241,-36.49616 35.82876,-83.11453 81.70031,-85.36738c45.87154,-2.25285 89.3307,37.81101 91.12311,74.30717z" fill="#724e36" stroke-width="2"/><path d="M386.90144,105.70244c1.15193,23.45507 6.95135,8.38442 -11.49519,-0.29674c-2.25732,-1.06232 -10.15461,6.78233 -13.01094,5.69299c-1.79411,-0.68424 -9.36851,-9.7277 -11.3634,-10.30657c-1.39479,-0.40474 -12.35173,8.99429 -13.8085,8.61464c-3.63328,-0.94685 -12.84739,-10.75629 -16.72505,-11.22466c-2.13531,-0.25791 -8.93457,12.30285 -11.109,12.15548c-2.80419,-0.19004 -10.91339,-11.547 -13.7195,-11.40919c-7.46262,0.36651 -7.32366,7.37892 -12.39835,13.64161c-3.29766,4.06965 -14.97983,-12.33192 -17.96451,-7.74479c-3.70661,5.69667 -7.38309,11.19335 -11.55402,15.00216c-3.27224,2.98816 -14.19495,-9.4119 -17.01472,-6.65247c-13.61469,13.32323 -21.76882,21.73771 -22.66021,3.58776c-1.79241,-36.49616 43.97148,-10.38292 85.7475,-33.98231c39.98759,-22.58909 85.2835,-13.57406 87.07591,22.9221z" fill="#623728" stroke-width="0"/></g><g stroke="#000000" stroke-linecap="butt"><path d="M309.14461,147.94481c1.4009,28.52456 -11.02897,43.88331 -27.57756,44.69604c-16.54859,0.81274 -30.94931,-13.22831 -32.35021,-41.75286c-1.4009,-28.52456 10.87874,-52.30713 27.42733,-53.11987c16.54859,-0.81274 31.09954,21.65213 32.50044,50.17669z" fill="#f0f0f0" stroke-width="2"/><path d="M261.48459,130.67949c-2.9125,28.41003 37.22558,60.28815 20.67699,61.10089c-16.54859,0.81274 -30.94931,-13.22831 -32.35021,-41.75286c-1.4009,-28.52456 15.88383,-60.42054 11.67323,-19.34803z" fill="#9a99ff" stroke-width="0"/></g><path d="M309.63049,155.91787c0.77612,15.80317 -3.27797,28.84417 -9.05506,29.12789c-5.77709,0.28373 -11.08954,-12.29726 -11.86566,-28.10043c-0.77612,-15.80317 3.27797,-28.84417 9.05506,-29.12789c5.77709,-0.28373 11.08954,12.29726 11.86566,28.10043z" fill="#000000" stroke="none" stroke-width="0" stroke-linecap="butt"/><g stroke="#000000" stroke-linecap="butt"><path d="M302.66805,118.19201c4.95589,9.99874 -9.19322,14.59014 -24.88457,15.36078c-15.69135,0.77063 -27.37491,-3.30269 -23.30723,-13.12928c3.87034,-9.34983 5.73091,-21.7262 21.42226,-22.49683c15.69135,-0.77063 22.04651,10.73639 26.76954,20.26532z" fill="#a100fe" stroke-width="2"/><path d="M301.72752,117.88352c4.80402,10.0062 -8.85614,14.57358 -24.01245,15.31794c-15.15631,0.74436 -26.44926,-3.34815 -22.53636,-13.16714c3.72307,-9.34261 6.59753,0.63918 21.75384,-0.10518c15.15631,-0.74436 20.21667,-11.58167 24.79496,-2.04563z" fill="#99008e" stroke-width="0"/></g><g data-paper-data="{&quot;index&quot;:null}" stroke="#000000" stroke-linecap="butt"><path d="M340.2216,93.16528c16.54859,-0.81274 31.09955,21.65213 32.50045,50.17669c1.4009,28.52455 -11.55466,43.90912 -28.10325,44.72186c-16.54859,0.81274 -30.42363,-13.25412 -31.82453,-41.77868c-1.4009,-28.52456 10.87874,-52.30713 27.42733,-53.11987z" fill="#f0f0f0" stroke-width="2"/><path d="M372.04606,142.5439c1.4009,28.52455 -11.55466,43.90912 -28.10325,44.72186c-16.54859,0.81274 20.27265,-34.84501 14.59033,-62.83294c-8.21495,-40.46227 12.11202,-10.41348 13.51292,18.11109z" fill="#9a99ff" stroke-width="0"/></g><path d="M361.50129,124.07426c5.77709,-0.28373 11.08954,12.29727 11.86567,28.10043c0.77612,15.80317 -3.27797,28.84417 -9.05506,29.12789c-5.77709,0.28373 -11.08954,-12.29727 -11.86566,-28.10043c-0.77612,-15.80317 3.27796,-28.84417 9.05506,-29.12789z" data-paper-data="{&quot;index&quot;:null}" fill="#000000" stroke="none" stroke-width="0" stroke-linecap="butt"/><g data-paper-data="{&quot;index&quot;:null}" stroke="#000000" stroke-linecap="butt"><path d="M316.32426,116.04088c3.76658,-9.94588 8.96361,-22.02025 24.65496,-22.79089c15.69135,-0.77063 18.75569,11.36385 23.52357,20.28945c5.01099,9.38071 -6.2172,14.57928 -21.90855,15.34992c-15.69135,0.77063 -30.22228,-2.41222 -26.26999,-12.84847z" fill="#a100fe" stroke-width="2"/><path d="M317.23004,115.64173c3.62185,-9.93877 9.71978,0.35054 24.87609,-0.39382c15.15631,-0.74436 17.03884,-10.95977 21.65945,-2.02694c4.85621,9.38831 -5.98137,14.5677 -21.13768,15.31206c-15.15631,0.74436 -29.19828,-2.46251 -25.39787,-12.89129z" fill="#99008e" stroke-width="0"/></g><path d="M391.63632,338.87004c0,11.6628 -14.51982,21.11737 -32.43092,21.11737c-17.9111,0 -32.43092,-9.45457 -32.43092,-21.11737c0,-2.33142 -0.03339,-13.76009 1.08979,-15.13837c4.49546,-5.51647 17.81784,5.26144 32.14847,5.26144c17.9111,0 31.62358,-1.78588 31.62358,9.87692z" fill="#000082" stroke="#000000" stroke-width="2" stroke-linecap="butt"/><path d="M389.75004,336.13774c0,6.30841 -13.89058,10.1901 -31.80169,10.1901c-17.9111,0 -30.16566,-2.95748 -30.16566,-9.26589c0,-1.26107 -0.03338,-12.52602 1.0898,-13.27153c4.49546,-2.98386 15.55258,5.7726 29.88321,5.7726c17.9111,0 30.99434,0.26631 30.99434,6.57472z" fill="#2e0048" stroke="#000000" stroke-width="0" stroke-linecap="butt"/><path d="M348.64938,338.22521c0,11.6628 -14.51982,21.11737 -32.43092,21.11737c-17.9111,0 -32.43092,-9.45457 -32.43092,-21.11737c0,-2.33142 -0.03339,-13.76009 1.08979,-15.13837c4.49546,-5.51647 17.81784,5.26144 32.14847,5.26144c17.9111,0 31.62358,-1.78588 31.62358,9.87692z" fill="#000082" stroke="#000000" stroke-width="2" stroke-linecap="butt"/><path d="M346.7631,335.49289c0,6.30841 -13.89058,10.1901 -31.80169,10.1901c-17.9111,0 -30.16566,-2.95748 -30.16566,-9.26589c0,-1.26107 -0.03338,-12.52602 1.0898,-13.27153c4.49546,-2.98386 15.55258,5.7726 29.88321,5.7726c17.9111,0 30.99434,0.26631 30.99434,6.57472z" fill="#2e0048" stroke="#000000" stroke-width="0" stroke-linecap="butt"/><g><path d="M316.10309,254.57128c-14.97841,1.80838 -24.63599,-4.66782 -27.11565,-19.39741c-1.9394,-11.52015 9.00333,-25.95208 23.98176,-27.76047c14.97848,-1.80842 27.02796,6.5566 28.81837,21.38575c0.27999,2.31899 -0.14987,4.54227 -0.52349,6.57654c-2.01566,10.97396 -12.52489,17.67 -25.16097,19.19559z" fill="#485e84" stroke="#000000" stroke-width="2" stroke-linecap="butt"/><path d="M300.87395,213.99292c0,0 0.24983,5.75053 1.98622,6.74969c16.65583,9.58421 30.68438,8.93763 35.30793,8.36968c1.05046,-0.12903 1.50671,-1.15504 1.50671,-1.15504c0,0 0.47235,2.06033 0.20405,4.78835c-0.28549,2.90284 -1.36198,6.55592 -3.10158,9.08948c-1.98714,2.89401 -8.31778,8.3191 -8.31778,8.3191l-20.15179,5.72397c0,0 -11.2604,-7.35924 -12.55459,-9.09763c-1.2679,-1.70303 -2.27974,-4.08187 -3.45737,-6.56786c-1.82842,-3.85985 -2.22592,-8.38189 -1.66101,-11.20601c0.72099,-3.60422 3.05984,-7.63928 5.51562,-10.56016c2.28557,-2.71842 4.72361,-4.45344 4.72361,-4.45344z" fill="#343545" stroke="none" stroke-width="0" stroke-linecap="butt"/><path d="M306.13203,237.85758c0,0 -2.91356,-8.5387 -1.26428,-13.42337c2.08779,-6.18349 9.49653,-16.82365 9.49653,-16.82365" fill="none" stroke="#000000" stroke-width="1" stroke-linecap="round"/><path d="M339.33895,222.14718c0,0 -0.65878,7.1201 -2.06471,11.18152c-1.41931,4.10021 -7.62195,11.56211 -7.62195,11.56211" fill="none" stroke="#000000" stroke-width="1" stroke-linecap="round"/><path d="M296.05,242.18297c0,0 -3.12166,-8.72018 -1.09433,-13.92967c3.11089,-7.99378 9.33275,-17.78072 9.33275,-17.78072" fill="none" stroke="#000000" stroke-width="1" stroke-linecap="round"/><path d="M290.14296,228.08672c0,0 12.35236,-12.12 29.49882,-9.03091c18.78178,3.3837 20.52441,20.54336 20.52441,20.54336" fill="none" stroke="#000000" stroke-width="1" stroke-linecap="round"/><path d="M290.01289,237.60975c0,0 14.58361,-10.2069 29.71984,-7.51357c12.42823,2.21149 15.24816,16.52816 15.24816,16.52816" fill="none" stroke="#000000" stroke-width="1" stroke-linecap="round"/><path d="M326.85158,214.0739c-1.09337,-0.50175 -1.65765,-1.61017 -1.26045,-2.47569c0.39716,-0.86559 1.13017,-0.55463 2.22352,-0.05288c1.09337,0.50175 2.133,1.00428 1.73581,1.86983c-0.39716,0.86559 -1.60555,1.16051 -2.69886,0.65874z" fill="#8fbbbe" stroke="none" stroke-width="0" stroke-linecap="butt"/><path d="M332.98497,217.9778c-0.59716,0.07208 -1.1689,-0.59557 -1.27704,-1.49129c-0.10815,-0.89572 -0.02864,-1.27637 0.5685,-1.34848c0.59716,-0.07208 1.34912,0.57381 1.45723,1.46953c0.10815,0.89572 -0.15159,1.29813 -0.74872,1.37022z" fill="#8fbbbe" stroke="none" stroke-width="0" stroke-linecap="butt"/><path d="M320.53709,211.24707c-0.90218,0.01207 -1.63999,-0.46564 -1.64807,-1.06706c-0.0081,-0.60138 0.78199,-0.55817 1.68413,-0.57028c0.90218,-0.01207 1.57472,-0.075 1.58281,0.52643c0.0081,0.60138 -0.71674,1.0988 -1.61889,1.11089z" fill="#8fbbbe" stroke="none" stroke-width="0" stroke-linecap="butt"/><path d="M297.3725,216.79252c0,0 9.20968,-4.45662 16.76762,-5.00182c4.28498,-0.30908 8.16827,0.89772 11.10214,1.84566c2.59457,0.83827 7.55862,5.14917 11.01481,8.84418c2.5446,2.72042 4.11677,5.20945 4.11677,5.20945" fill="none" stroke="#000000" stroke-width="0.5" stroke-linecap="round"/><path d="M330.96822,210.35958c0,0 0.86276,10.53725 -0.69637,15.7128c-1.31358,4.36052 -7.68821,13.27277 -7.68821,13.27277" fill="none" stroke="#000000" stroke-width="1" stroke-linecap="round"/><path d="M316.80149,238.39774c0,0 -0.6812,-9.64179 0.147,-14.08756c1.45415,-7.80592 7.72483,-16.11588 7.72483,-16.11588" fill="none" stroke="#000000" stroke-width="1" stroke-linecap="round"/></g><g stroke="#000000" stroke-linecap="butt"><path d="M293.1925,240.87196c32.75018,6.22452 36.92521,14.92074 35.41441,22.86981c-1.51081,7.94909 -29.28483,9.3471 -62.03501,3.12257c-32.75017,-6.22453 24.27239,-50.54062 25.78321,-58.4897c4.92574,-5.10542 7.82943,0.73976 6.70169,8.51692c-1.39076,9.59106 -8.66365,23.44834 -5.86429,23.9804z" fill="#216aff" stroke-width="2"/><path d="M320.05372,233.67298c14.05721,2.67172 23.23123,16.52647 20.49074,30.94543c-2.74048,14.41897 -16.3577,23.942 -30.41491,21.27028c-14.05721,-2.67172 -23.23123,-16.52648 -20.49074,-30.94545c2.74048,-14.41897 16.35771,-23.94199 30.41491,-21.27027z" fill="#faddbf" stroke-width="2"/><path d="M301.16941,270.53258c14.05721,2.67172 41.34692,-20.88134 38.60644,-6.46237c-2.74048,14.41897 -16.3577,23.942 -30.41491,21.27027c-14.05721,-2.67172 -22.24875,-17.47963 -8.19154,-14.8079z" fill="#ef8b89" stroke-width="0"/></g><path d="M241.89094,146.80614c0.06514,0.60861 -0.18443,1.13333 -0.18443,1.13333c-0.29444,0.6096 -1.31742,2.37856 -1.29843,3.31908c0.03506,1.73631 2.42481,3.00076 3.27537,4.22725c1.25574,1.81075 2.38215,5.6986 1.36896,7.82458c-1.87757,3.93972 -7.56847,4.14917 -10.41521,1.5475c-4.17552,-3.81604 -4.47816,-10.70368 -5.41442,-15.81305c-0.1087,-0.92217 -0.62438,-4.41124 -0.25632,-5.23443c1.35181,-3.02338 7.5163,-5.5009 10.53104,-3.50845c1.71582,1.13399 1.86346,3.31606 2.19899,5.04566l0.14314,0.39049c0,0 0.16274,0.50451 0.0513,1.06804z" fill="#000000" stroke="none" stroke-width="0.5" stroke-linecap="butt"/></g></g></svg>