<svg version="1.1" xmlns="http://www.w3.org/2000/svg" xmlns:xlink="http://www.w3.org/1999/xlink" width="199.2719" height="199.2719" viewBox="0,0,199.2719,199.2719"><g transform="translate(-140.36405,-80.36405)"><g data-paper-data="{&quot;isPaintingLayer&quot;:true}" fill-rule="nonzero" stroke-linecap="butt" stroke-linejoin="miter" stroke-miterlimit="10" stroke-dasharray="" stroke-dashoffset="0" style="mix-blend-mode: normal"><path d="M140.36405,279.63595v-199.2719h199.2719v199.2719z" data-paper-data="{&quot;index&quot;:null}" fill="none" stroke="none" stroke-width="0"/><path d="M140.36405,279.63595v-199.2719h199.2719v199.2719z" data-paper-data="{&quot;index&quot;:null}" fill="none" stroke="none" stroke-width="0"/><path d="M204.36254,180.70554c2.38891,-19.32565 11.17888,-35.3743 46.35471,-30.79838c50.97112,6.6307 33.88901,50.94473 33.88901,50.94473c0,0 5.34754,2.89583 2.74264,8.78759c-3.19067,7.21669 -23.7115,13.92006 -45.40452,11.23851c-23.14474,-2.861 -39.97066,-20.84681 -37.58176,-40.17246z" data-paper-data="{&quot;index&quot;:null}" fill="#0088c2" stroke="#000000" stroke-width="2"/><path d="M262.12245,209.76445c-2.27769,0.06204 -1.53657,-3.54278 -1.38882,-7.55587c0.09665,-2.62529 0.33853,-5.04952 0.33853,-5.04952c0,0 -3.3696,2.15733 -4.33185,1.1746c-0.60732,-0.62022 27.33268,-20.45747 27.33268,-20.45747l-15.9318,15.00871c0,0 -4.26981,16.83191 -6.01874,16.87955z" data-paper-data="{&quot;index&quot;:null}" fill="#000000" stroke="none" stroke-width="0.5"/><path d="M244.16125,209.40871c-5.09253,-1.62911 -1.6038,-8.97685 -1.98065,-11.40333c-0.37687,-2.42649 -0.61167,-5.28787 -0.61167,-5.28787l-34.43968,-22.60232l46.11842,25.33192c0,0 -6.5592,-8.75299 -2.48867,-6.24483c4.0705,2.50814 4.99845,9.69148 4.99845,9.69148l-3.39346,-1.67323c0,0 -4.24927,13.45289 -8.20275,12.18818z" data-paper-data="{&quot;index&quot;:null}" fill="#000000" stroke="none" stroke-width="0.5"/><path d="M203.04187,178.70777c2.46806,-19.96594 11.54929,-36.54633 47.89058,-31.8188c52.65994,6.85038 35.01184,52.63268 35.01184,52.63268c0,0 5.52471,2.99179 2.8335,9.07875c-3.2964,7.45581 -24.49715,14.38127 -46.90892,11.61088c-23.9116,-2.95579 -41.29502,-21.53755 -38.82696,-41.5035z" data-paper-data="{&quot;index&quot;:null}" fill="#1a54c9" stroke="#000000" stroke-width="2"/><path d="M287.15691,184.29861c-0.70812,5.72845 -0.85922,7.5048 -1.01846,6.55864c-0.16247,-0.96525 1.11347,-4.55791 -2.95613,-7.48037c-0.98616,-0.70818 -5.41193,2.47109 -6.68128,1.69971c-0.7973,-0.48452 -3.64393,-5.54153 -4.54579,-5.99126c-0.63057,-0.31444 -6.64572,3.37004 -7.30797,3.06271c-1.65165,-0.7665 -5.21507,-6.33518 -7.02359,-6.88795c-0.9959,-0.30438 -5.29641,5.27408 -6.32027,5.02051c-1.32039,-0.32701 -4.22664,-6.56065 -5.57561,-6.7274c-3.58749,-0.44346 -4.11309,2.99928 -7.06016,5.64007c-1.91507,1.71603 -6.09839,-7.28409 -7.90799,-5.28871c-2.24731,2.478 -4.46335,4.86069 -6.7726,6.37623c-1.8117,1.189 -5.97076,-5.78981 -7.54752,-4.67497c-7.61295,5.38278 -12.50906,9.21932 -11.4021,0.26427c2.22591,-18.00694 22.13222,-1.81056 44.03374,-9.87118c20.96392,-7.71557 40.10034,0.26669 37.87445,18.27363z" data-paper-data="{&quot;index&quot;:null}" fill="#133c8f" stroke="#000000" stroke-width="0"/><path d="M289.89783,180.47931c-1.43053,11.57256 2.68791,4.69279 -5.59842,-1.12245c-1.01401,-0.71162 -5.54442,2.45472 -6.84917,1.67896c-0.81956,-0.48727 -3.75624,-5.55542 -4.68295,-6.00823c-0.64796,-0.3166 -6.80735,3.35005 -7.48774,3.04047c-1.69696,-0.77214 -5.37071,-6.35442 -7.22791,-6.91321c-1.0227,-0.30773 -5.41688,5.25917 -6.46811,5.00221c-1.3557,-0.33136 -4.35732,-6.57679 -5.74184,-6.74793c-3.68197,-0.45514 -4.21019,2.98726 -7.22524,5.61966c-1.95927,1.71058 -6.27998,-7.30652 -8.13011,-5.31616c-2.29763,2.47177 -4.56355,4.84829 -6.92785,6.35704c-1.85489,1.18366 -6.14425,-5.81127 -7.75834,-4.70104c-7.79322,5.36048 -12.49774,8.78376 -11.39077,-0.1713c2.22589,-18.00694 24.59414,-37.61503 47.22683,-34.81732c22.63267,2.79769 40.48756,26.09235 38.26167,44.0993z" data-paper-data="{&quot;index&quot;:null}" fill="#1a54c9" stroke="#000000" stroke-width="2"/><path d="M284.2482,178.76872c-1.01401,-0.71162 -5.54442,2.45472 -6.84917,1.67896c-0.81955,-0.48727 -3.75624,-5.55542 -4.68295,-6.00823c-0.64795,-0.3166 -6.80735,3.35005 -7.48774,3.04047c-1.69697,-0.77214 -5.37071,-6.35442 -7.22791,-6.91321c-1.02269,-0.30773 -5.4169,5.25917 -6.46813,5.00221c-1.3557,-0.33138 -4.35732,-6.5768 -5.74184,-6.74795c-3.68199,-0.45514 -4.21019,2.98726 -7.22524,5.61966c-1.95927,1.71058 -6.27998,-7.30652 -8.13011,-5.31616c-2.29765,2.47177 -4.56356,4.84829 -6.92786,6.35704c-1.85489,1.18366 -6.14425,-5.81127 -7.75834,-4.70104c-7.79322,5.36048 -12.49774,8.78376 -11.39077,-0.1713c2.22589,-18.00694 22.39433,-1.3412 44.83821,-9.33478c21.48307,-7.65138 42.87618,0.60983 40.65028,18.61677c-1.43053,11.57256 2.68791,4.69279 -5.59842,-1.12245z" data-paper-data="{&quot;index&quot;:null}" fill="#174bb2" stroke="#000000" stroke-width="0"/><path d="M266.88118,197.51076c1.09829,-6.53228 2.26423,-15.3538 5.0626,-14.49162c2.79836,0.86218 2.41184,7.00934 1.37501,13.17602c-1.03681,6.16669 -3.34306,14.02805 -5.76379,12.92709c-3.11817,-1.41817 -1.7721,-5.07921 -0.67382,-11.6115z" data-paper-data="{&quot;index&quot;:null}" fill="#000000" stroke="none" stroke-width="0.5"/><path d="M249.14644,196.60544c1.2454,-6.51409 2.44954,-15.33089 6.71756,-14.28703c4.268,1.04384 4.07036,7.21437 2.89465,13.36387c-1.17571,6.1495 -4.1571,13.92742 -7.87136,12.66656c-4.78438,-1.62412 -2.98627,-5.22931 -1.74085,-11.7434z" data-paper-data="{&quot;index&quot;:null}" fill="#000000" stroke="none" stroke-width="0.5"/><g data-paper-data="{&quot;index&quot;:null}" stroke="none" stroke-width="0.5"><path d="M235.0733,207.82257c0,0 -7.44902,5.5108 -11.43771,2.80842c-5.06344,-3.43055 -0.20445,-15.90552 -0.20445,-15.90552c0,0 -3.21201,0.01058 -2.78524,-1.44824c0.42675,-1.45881 6.69887,1.07181 6.69887,1.07181c0,0 -2.27169,1.2748 -1.37318,3.04737c5.51629,10.88251 21.14399,11.62024 20.96284,13.12933c-0.18111,1.50912 -11.86113,-2.7032 -11.86113,-2.7032zM224.36679,196.2145c0,0 -3.85362,10.03465 -0.5604,13.34787c3.29322,3.31321 8.76505,-1.65429 9.89311,-2.54479c-1.51209,-0.91647 -4.67374,-3.04045 -6.34474,-4.9747c-1.671,-1.93426 -2.98797,-5.82839 -2.98797,-5.82839z" fill="#000000"/><path d="M223.45005,209.15628c-3.29322,-3.31324 0.89492,-13.01455 0.89492,-13.01455c0,0 1.34456,3.89113 3.01556,5.82538c1.671,1.93425 4.90052,4.15269 6.41263,5.06917c-1.12806,0.89051 -6.44306,5.81985 -9.73628,2.50662z" data-paper-data="{&quot;noHover&quot;:false,&quot;origItem&quot;:[&quot;Path&quot;,{&quot;applyMatrix&quot;:true,&quot;segments&quot;:[[489.75881,336.88645],[[483.06683,342.31726],[3.03881,-1.4416],[-3.03881,1.4416]],[[472.78663,344.93799],[2.30712,-0.30058],[0.88535,1.67108]],[[485.72188,358.51254],[-5.72409,2.24054],[5.72409,-2.24054]]],&quot;closed&quot;:true,&quot;fillColor&quot;:[0,0,0,1]}]}" fill="#ffffff"/></g><path d="M260.67656,183.13396c0,0 0.32815,0.35547 0.4739,0.87325l0.48648,0.46996c0.35872,0.3456 0.58189,0.83095 0.58189,1.36839c0,0.7145 -0.39441,1.33687 -0.97739,1.6613l0.28423,0.24942c0.40108,0.34834 0.6547,0.86204 0.6547,1.435c0,1.0493 -0.85061,1.89991 -1.89991,1.89991c-0.39921,0 -0.76966,-0.12311 -1.07546,-0.33347l-2.51664,-1.67767l0.21235,-0.31855c-0.01202,-0.01011 -0.02405,-0.02022 -0.03605,-0.03031c-1.77317,-0.80825 -3.31609,-1.89789 -5.00661,-3.67531c-0.68097,-0.71599 -1.74722,-1.38367 -2.34155,-2.18121c-0.05039,-0.04013 -0.10074,-0.08028 -0.1511,-0.12045c0,0 -1.485,-1.18509 -0.29991,-2.67009c0.35617,-0.4463 0.73943,-0.65143 1.10131,-0.72004c0.15169,-0.10951 0.31575,-0.19758 0.49033,-0.26617c0.27129,-0.71791 0.96493,-1.22842 1.77783,-1.22842c0.16785,0 0.3306,0.02177 0.48562,0.06262l2.03578,0.49009l-0.12846,0.53362c1.86745,0.36984 2.9093,1.41265 5.27068,3.56246l0.57798,0.61566z" data-paper-data="{&quot;index&quot;:null}" fill="#1a54c9" stroke="none" stroke-width="0.5"/><path d="M262.95991,188.79294c-0.2426,-0.5599 -0.22747,-1.01788 -0.09513,-1.38166c-0.01515,-0.09667 -0.02303,-0.19575 -0.02303,-0.29668c0,-0.66994 0.34676,-1.25891 0.87059,-1.59719l2.05223,-1.36809l0.07446,0.1117l0.22123,-0.27295c2.08232,-0.51672 4.19958,-0.89313 6.32101,-1.21344c0,0 1.87874,-0.2828 2.16155,1.59594c0.1096,0.72811 -0.10544,1.21651 -0.40997,1.54165c-0.22679,0.31666 -0.54848,0.56073 -0.92348,0.69066l-2.18397,0.81432c-0.60866,0.26863 -1.24583,0.44447 -1.90067,0.55287c-0.17887,0.1003 -0.37378,0.19644 -0.58724,0.29946l0.02815,0.18496l-0.59659,0.09079c-0.33609,0.16681 -0.71067,0.36364 -1.13013,0.61882l-1.38036,0.61676c0,0 -1.7433,0.75538 -2.49868,-0.98792z" data-paper-data="{&quot;index&quot;:null}" fill="#1a54c9" stroke="none" stroke-width="0.5"/></g></g></svg>