<svg version="1.1" xmlns="http://www.w3.org/2000/svg" xmlns:xlink="http://www.w3.org/1999/xlink" width="110.37831" height="110.22817" viewBox="0,0,110.37831,110.22817"><g transform="translate(-264.86178,-124.88591)"><g data-paper-data="{&quot;isPaintingLayer&quot;:true}" fill-rule="nonzero" stroke-linejoin="miter" stroke-miterlimit="10" stroke-dasharray="" stroke-dashoffset="0" style="mix-blend-mode: normal"><path d="M267.51192,183.94493c-2.17873,-29.05796 19.61119,-54.38029 48.66915,-56.55902c29.05796,-2.17873 54.38029,19.61119 56.55902,48.66915c2.17873,29.05796 -19.61119,54.38029 -48.66915,56.55902c-29.05796,2.17873 -54.38029,-19.61119 -56.55902,-48.66915z" fill="#001aff" stroke="#000000" stroke-width="5" stroke-linecap="butt"/><path d="M369.5358,163.402l-13.77146,15.30276l-13.05054,-15.45384l-21.37729,14.79197l-16.31332,-12.83084l-18.43168,13.70624l-15.26508,-16.15265" fill="none" stroke="#000000" stroke-width="5" stroke-linecap="round"/><path d="M313.07292,196.49381l-1.56138,13.24132" fill="none" stroke="#000000" stroke-width="7.5" stroke-linecap="round"/><path d="M327.11091,208.95334l0.27398,-11.06691" fill="none" stroke="#000000" stroke-width="7.5" stroke-linecap="round"/><path d="M288.08387,214.78454c-2.29374,-0.99435 -1.29939,-3.2881 -1.29939,-3.2881l1.32117,-2.88732c0.94249,-0.81104 1.72565,-1.85684 2.82747,-2.43312c1.17431,-0.61418 2.51088,-1.12145 3.83425,-1.05105c6.18678,0.32919 7.7419,7.90164 5.73481,12.80123c-0.51834,1.26535 -1.55177,2.25191 -2.32767,3.37787c0,0 -1.45133,2.03559 -3.48693,0.58427c-2.0356,-1.45133 -0.58426,-3.48693 -0.58426,-3.48693c0.59123,-0.79153 1.35599,-1.47929 1.77369,-2.37462c0.50295,-1.07811 0.50245,-4.90341 -0.17224,-5.8704c-0.68462,-0.98119 -3.1823,1.08579 -3.57487,1.42014l-0.7579,1.90859c0,0 -0.99435,2.29374 -3.2881,1.29939z" fill="#000000" stroke="none" stroke-width="0.5" stroke-linecap="butt"/><path d="M299.47004,199.78l17.76613,-6.42605" fill="none" stroke="#000000" stroke-width="7.5" stroke-linecap="round"/><path d="M324.29223,193.22795l20.41215,6.55205" fill="none" stroke="#000000" stroke-width="7.5" stroke-linecap="round"/></g></g></svg>