<svg version="1.1" xmlns="http://www.w3.org/2000/svg" xmlns:xlink="http://www.w3.org/1999/xlink" width="1014.66781" height="765.3003" viewBox="0,0,1014.66781,765.3003"><g transform="translate(267.33391,202.65015)"><g data-paper-data="{&quot;isPaintingLayer&quot;:true}" fill-rule="nonzero" stroke-linejoin="miter" stroke-miterlimit="10" stroke-dasharray="" stroke-dashoffset="0" style="mix-blend-mode: normal"><path d="M-267.33391,562.65015v-765.3003h1014.66781v765.3003z" fill="#000000" stroke="none" stroke-width="0" stroke-linecap="butt"/><path d="M118.10657,180c0,-42.22677 34.23156,-76.45833 76.45833,-76.45833c42.22677,0 76.45833,34.23156 76.45833,76.45833c0,42.22677 -34.23156,76.45833 -76.45833,76.45833c-42.22677,0 -76.45833,-34.23156 -76.45833,-76.45833z" fill="#000000" stroke="#ffffff" stroke-width="5" stroke-linecap="butt"/><path d="M268.66213,199.8346l-25,-32.91667l-17.08333,33.75l-23.75,-31.25l-21.25,31.66667l-23.33333,-30l-16.66667,28.33333l-20,-32.5" fill="none" stroke="#ffffff" stroke-width="5" stroke-linecap="round"/><path d="M360.24658,214.50677c-5.12039,14.18809 -19.03898,22.81191 -41.35946,25.63367c-1.01457,0.12682 -2.01328,0.20608 -3.012,0.23779c-1.29991,1.90231 -2.99614,3.55098 -4.99357,4.83505c-5.23136,3.3449 -10.12982,4.97772 -14.96486,4.97772c-9.93959,0 -20.6401,-7.41902 -20.6401,-23.7155c0,-1.10968 0.04756,-2.55227 0.15853,-4.5497c0.04756,-0.85604 0.09512,-1.52185 0.11097,-2.01328c-0.26949,-1.2365 -0.41217,-2.48886 -0.41217,-3.75707v-7.67266c0,-1.25236 0.12682,-2.50471 0.38046,-3.75707c0.01585,-1.06212 0.06341,-2.25107 0.14267,-3.55098c-0.38046,-1.39503 -0.66581,-3.012 -0.66581,-4.81919c0,-0.82434 0.06341,-1.64867 0.17438,-2.45715c0.6024,-4.2485 2.48886,-8.51285 5.67523,-11.92116c-1.09383,-3.05955 -1.66452,-6.29349 -1.66452,-9.60668v-8.08483c0,-3.28149 0.64996,-7.37146 3.83633,-17.54884c1.33162,-4.37532 1.75964,-5.73864 2.34619,-7.00685c3.12296,-7.00685 7.83119,-10.51028 11.25535,-12.23821c5.59597,-2.79006 11.60411,-4.21679 17.85004,-4.21679c2.88518,0 5.64353,0.3012 8.27506,0.87189c1.17309,-0.79263 2.42545,-1.45844 3.75707,-2.01328c1.69623,-0.72922 3.50343,-1.2365 5.50086,-1.55356c4.99357,-0.85604 10.27249,0.20608 14.86975,2.99614c4.83505,2.94859 10.38346,9.06769 9.7018,21.65467c-0.11097,2.21937 -0.3012,5.1838 -0.58655,9.05184c-0.01585,0.09512 -0.01585,0.19023 -0.03171,0.28535c-0.25364,2.80591 -0.61825,6.991 -1.10968,12.52356c0.12682,2.1401 0.07926,4.53385 -0.11097,7.35561c-0.07926,1.07798 -0.25364,2.15595 -0.53899,3.20223c-0.06341,0.23779 -0.12682,0.45973 -0.19023,0.66581c2.1401,2.7425 3.59854,5.485 4.59726,7.86289c0.9353,1.88646 1.72793,4.05827 2.42545,6.70565c0.26949,0.99871 0.44387,2.01328 0.52314,3.0437c0.71337,8.89331 0.34876,14.14053 -1.29991,18.57926z" fill="#ffffff" stroke="none" stroke-width="1" stroke-linecap="butt"/><path d="M344.1657,197.32888c0.46448,5.76559 0.36937,9.48145 -0.27901,11.15548c-2.69811,7.62352 -11.76264,12.40942 -27.1904,14.36246c-5.20758,0.65154 -10.41199,-1.81195 -15.61958,-7.39049c0,0.83702 0.18548,3.34649 0.5596,7.53158c0.27901,3.06748 0.23145,5.57695 -0.1395,7.5284c-2.32558,1.48697 -4.1835,2.23205 -5.57853,2.23205c-2.1401,0 -3.20698,-2.09096 -3.20698,-6.27605c0,-0.74349 0.04597,-1.92768 0.1395,-3.55416c0.09195,-1.62489 0.1395,-2.7647 0.1395,-3.41624c0,-1.58051 -0.1395,-2.69494 -0.41851,-3.34649v-7.66949c0,-0.18548 0.04597,-0.39473 0.1395,-0.62776c0.09195,-0.23145 0.18548,-0.4407 0.27901,-0.62776c-0.09353,-1.29991 -0.04756,-3.29893 0.1395,-5.99546c0.18548,-1.67404 0.18548,-2.74092 0,-3.20698c-0.46607,-0.92738 -0.69593,-1.48539 -0.69593,-1.67245c0.36937,-2.603 2.27802,-3.9045 5.71645,-3.9045c2.23046,0 3.57793,0.79105 4.044,2.36997c0,1.48697 0.18548,3.67305 0.55801,6.55347c0.5596,3.34649 2.32399,6.69456 5.29953,10.03946c3.25296,3.81255 6.36641,5.57853 9.34353,5.29953c3.34649,-0.36937 6.69297,-1.16041 10.03946,-2.36997c4.64799,-1.67404 7.43646,-3.62549 8.36701,-5.85595c0.64837,-1.67404 0.97494,-3.43843 0.97494,-5.29953c0,-5.66889 -2.09096,-9.89995 -6.27446,-12.68843c-1.8611,-1.20797 -5.29953,-2.18449 -10.32005,-2.92956c-2.882,-0.36937 -4.64957,-0.55801 -5.29794,-0.55801c-4.46251,0.09353 -8.62382,-1.34747 -12.48076,-4.32301c-3.85853,-2.97395 -5.7862,-6.41555 -5.7862,-10.32005v-8.08642c0,-1.7644 1.02249,-5.90193 3.06907,-12.40942c0.92738,-3.06907 1.43942,-4.69396 1.53453,-4.88102c0.83543,-1.95146 1.9039,-3.25296 3.2054,-3.9045c3.15943,-1.57892 6.50591,-2.36997 10.03946,-2.36997c6.87845,0 11.94494,2.78847 15.19948,8.36542c0.27901,0.27901 0.74349,0.69751 1.39503,1.25553c0.09195,-1.29991 0.27901,-3.29893 0.55801,-5.99546c-0.09353,-1.20797 -0.18706,-2.36997 -0.27901,-3.48599c0,-1.29991 0.64837,-2.1829 1.95146,-2.64897c0.37095,-0.18548 0.88299,-0.32498 1.53453,-0.41851c0.92896,-0.18548 1.92926,0.04756 2.99931,0.69593c1.06688,0.65154 1.50917,2.60458 1.32369,5.85595c-0.09353,2.04499 -0.27901,4.92699 -0.55801,8.64443c-0.27901,3.06907 -0.69593,7.76302 -1.25553,14.08504c0.18548,1.48697 0.18548,3.53355 0,6.13496c-0.46607,1.76598 -1.8611,2.64897 -4.1835,2.64897c-1.20955,0 -2.36997,-0.32498 -3.48599,-0.97494c-0.55801,-1.7644 -0.83543,-2.51105 -0.83543,-2.23205c0.18389,-2.50947 -0.32656,-5.85595 -1.53453,-10.03946c-1.02408,-2.13693 -2.43972,-5.18063 -4.25326,-9.13269c-1.81354,-3.95047 -4.20728,-6.06679 -7.18123,-6.3458c-3.71902,-0.27901 -6.13496,0.97652 -7.25098,3.76499c-0.37095,1.20955 -0.88458,2.97712 -1.53295,5.29953c-1.11602,3.44002 -1.81354,6.74053 -2.09254,9.89995c-0.09353,1.02408 -0.18706,1.44259 -0.27901,1.25553c0.27901,1.8611 0.60398,3.71902 0.97652,5.57853c0.46448,2.32399 1.60428,4.09156 3.41624,5.29794c1.81354,1.20955 5.27416,1.95146 10.38822,2.23046c12.54893,0.74666 20.31036,5.11564 23.2859,13.10852c0.4629,0.74507 0.92738,1.99901 1.39344,3.76341z" fill="#000000" stroke="none" stroke-width="1" stroke-linecap="butt"/><text transform="translate(131.4791,75.62701) scale(1.069,1.069)" font-size="40" xml:space="preserve" fill="#ffffff" fill-rule="nonzero" stroke="none" stroke-width="1" stroke-linecap="butt" stroke-linejoin="miter" stroke-miterlimit="10" stroke-dasharray="" stroke-dashoffset="0" font-family="Sans Serif" font-weight="normal" text-anchor="start" style="mix-blend-mode: normal"><tspan x="0" dy="0">Team 480's</tspan></text><text transform="translate(136.30225,306.4791) scale(1.08061,1.08061)" font-size="40" xml:space="preserve" fill="#ffffff" fill-rule="nonzero" stroke="none" stroke-width="1" stroke-linecap="butt" stroke-linejoin="miter" stroke-miterlimit="10" stroke-dasharray="" stroke-dashoffset="0" font-family="Sans Serif" font-weight="normal" text-anchor="start" style="mix-blend-mode: normal"><tspan x="0" dy="0">480 Engine</tspan></text></g></g></svg>