<svg version="1.1" xmlns="http://www.w3.org/2000/svg" xmlns:xlink="http://www.w3.org/1999/xlink" width="191.60125" height="54.39829" viewBox="0,0,191.60125,54.39829"><g transform="translate(-314.09767,-150.50871)"><g data-paper-data="{&quot;isPaintingLayer&quot;:true}" fill-rule="nonzero" stroke-linejoin="miter" stroke-miterlimit="10" stroke-dasharray="" stroke-dashoffset="0" style="mix-blend-mode: normal"><text transform="translate(316.27942,191.08926) scale(0.8727,0.8727)" font-size="40" xml:space="preserve" fill="#000000" fill-rule="nonzero" stroke="#000000" stroke-width="5" stroke-linecap="butt" stroke-linejoin="miter" stroke-miterlimit="10" stroke-dasharray="" stroke-dashoffset="0" font-family="&quot;Comic Sans MS&quot;, Sans Serif" font-weight="normal" text-anchor="start" style="mix-blend-mode: normal"><tspan x="0" dy="0">Insanity</tspan></text><text transform="translate(315.68642,190.89688) scale(0.8727,0.8727)" font-size="40" xml:space="preserve" fill="#ffffff" fill-rule="nonzero" stroke="#000000" stroke-width="0" stroke-linecap="butt" stroke-linejoin="miter" stroke-miterlimit="10" stroke-dasharray="" stroke-dashoffset="0" font-family="&quot;Comic Sans MS&quot;, Sans Serif" font-weight="normal" text-anchor="start" style="mix-blend-mode: normal"><tspan x="0" dy="0">Insanity</tspan></text><path d="M458.08917,180.47713c0,-12.80189 10.37799,-23.17987 23.17987,-23.17987c12.80189,0 23.17987,10.37799 23.17987,23.17987c0,12.80189 -10.37799,23.17987 -23.17987,23.17987c-12.80189,0 -23.17987,-10.37799 -23.17987,-23.17987z" fill="#001aff" stroke="#000000" stroke-width="2.5" stroke-linecap="butt"/><path d="M503.51596,174.83269l-6.53596,6.25179l-5.20982,-7.19903l-9.85131,5.77817l-6.72542,-6.15707l-8.52516,5.39927l-6.15707,-7.57792" fill="none" stroke="#000000" stroke-width="2.5" stroke-linecap="round"/><path d="M483.35614,194.56819l1.4542,-12.4415" fill="none" stroke="#000000" stroke-width="2.5" stroke-linecap="round"/><path d="M491.51581,181.96509l-1.53498,12.19914" fill="none" stroke="#000000" stroke-width="2.5" stroke-linecap="round"/><path d="M471.65816,194.86844c-1.06017,-0.28698 -0.7732,-1.34715 -0.7732,-1.34715l0.39146,-1.33893c0.35836,-0.4123 0.63258,-0.91656 1.07508,-1.23689c0.47161,-0.3414 1.02053,-0.6466 1.60031,-0.69982c2.71049,-0.24881 3.86627,2.94471 3.30409,5.2019c-0.14518,0.58293 -0.53196,1.0773 -0.79794,1.61595c0,0 -0.502,0.97689 -1.47889,0.4749c-0.9769,-0.50199 -0.4749,-1.47889 -0.4749,-1.47889c0.20689,-0.38156 0.49579,-0.72901 0.62066,-1.1447c0.15036,-0.50056 -0.09219,-2.16354 -0.44677,-2.54118c-0.35979,-0.38319 -1.31469,0.67363 -1.46417,0.84385l-0.20858,0.87775c0,0 -0.28698,1.06017 -1.34715,0.7732z" fill="#000000" stroke="none" stroke-width="2.5" stroke-linecap="butt"/><path d="M480.65574,181.68085l14.09498,-1.33236" fill="none" stroke="#000000" stroke-width="2.5" stroke-linecap="round"/></g></g></svg>