<svg version="1.1" xmlns="http://www.w3.org/2000/svg" xmlns:xlink="http://www.w3.org/1999/xlink" width="238.17214" height="238.17214" viewBox="0,0,238.17214,238.17214"><g transform="translate(-200.91393,-60.91393)"><g data-paper-data="{&quot;isPaintingLayer&quot;:true}" fill-rule="nonzero" stroke-linejoin="miter" stroke-miterlimit="10" stroke-dasharray="" stroke-dashoffset="0" style="mix-blend-mode: normal"><path d="M212.68844,145.22445c19.20601,-59.26653 82.82056,-91.74202 142.08711,-72.53601c59.26655,19.20601 91.74202,82.82058 72.53601,142.08711c-19.20601,59.26655 -82.82056,91.74202 -142.08711,72.53601c-59.26655,-19.20601 -91.74202,-82.82058 -72.53601,-142.08711z" fill="#001aff" stroke="#000000" stroke-width="12.5" stroke-linecap="butt"/><path d="M431.46043,187.24487l-39.63755,19.13719l-13.31862,-41.14405l-54.27545,11.97072l-21.89827,-38.59403l-47.56763,12.20614l-17.13545,-44.31924" fill="none" stroke="#000000" stroke-width="12.5" stroke-linecap="round"/><path d="M289.87564,238.47186l25.39758,-55.41644" fill="#000000" stroke="#000000" stroke-width="12.5" stroke-linecap="round"/><path d="M327.34274,246.36655l25.40794,-54.17319" fill="none" stroke="#000000" stroke-width="12.5" stroke-linecap="round"/><path d="M328.53995,195.32218l-44.38517,-36.26425" fill="none" stroke="#000000" stroke-width="12.5" stroke-linecap="round"/><path d="M349.7537,190.13966l42.01341,-0.42437" fill="none" stroke="#000000" stroke-width="15" stroke-linecap="round"/><path d="M281.87048,241.22104c1.60409,0.18637 3.1053,1.09465 3.98969,2.59248c0.99743,1.68927 0.95929,3.70331 0.07545,5.30494c0.05093,3.58234 -8.6656,3.9787 -10.54889,3.77213c-7.60868,-0.83462 -20.34352,-4.4451 -19.99952,-14.7525c0.23245,-6.9649 16.57227,-17.86712 20.64733,-10.96551c4.94498,8.37491 -8.04449,6.92318 -8.83639,11.82393c-0.74042,4.58211 12.38698,2.182 13.98281,2.14854c0.23755,-0.005 0.46682,0.02249 0.68953,0.076z" data-paper-data="{&quot;index&quot;:null}" fill="#000000" stroke="none" stroke-width="0.5" stroke-linecap="butt"/></g></g></svg>