<svg version="1.1" xmlns="http://www.w3.org/2000/svg" xmlns:xlink="http://www.w3.org/1999/xlink" width="242.30294" height="240.05165" viewBox="0,0,242.30294,240.05165"><g transform="translate(-116.81601,-112.98096)"><g data-paper-data="{&quot;isPaintingLayer&quot;:true}" fill-rule="nonzero" stroke-linejoin="miter" stroke-miterlimit="10" stroke-dasharray="" stroke-dashoffset="0" style="mix-blend-mode: normal"><g data-paper-data="{&quot;index&quot;:null}" stroke="#000000" stroke-linecap="butt"><path d="M236.44531,344.13567v-90.27109h61.17899v90.27109z" fill="#273750" stroke-width="2"/><path d="M237.23265,343.37909v-90.27109l18.42709,49.31565l42.75189,40.95544z" fill="#1f1e2e" stroke-width="0"/></g><g data-paper-data="{&quot;index&quot;:null}" stroke="#000000" stroke-linecap="butt"><path d="M183.83936,344.58003v-90.27109h61.17899v90.27109z" fill="#273750" stroke-width="2"/><path d="M184.62674,343.82344v-90.27109l18.42709,49.31565l42.75189,40.95544z" fill="#1f1e2e" stroke-width="0"/></g><g data-paper-data="{&quot;index&quot;:null}" stroke="#000000" stroke-linecap="butt"><path d="M310.4475,351.73339l-17.79652,-44.644l47.37223,-18.88408l17.79652,44.64399z" fill="#ffcaa0" stroke-width="2"/><g><path d="M292.56255,307.31874l-24.53945,-61.55917l47.98969,-19.13022l24.53945,61.55917z" fill="#0000c0" stroke-width="2"/><path d="M293.33196,307.24077l-12.85303,-32.24287c0,0 19.69405,7.6708 27.66095,4.49493c7.55382,-3.0112 18.96722,-23.08241 18.96722,-23.08241l12.85303,32.24288c0,0 -15.33648,6.11361 -23.06607,9.19487c-7.81226,3.11421 -23.5621,9.39261 -23.5621,9.39261z" fill="#56006b" stroke-width="0"/></g><path d="M310.98043,350.93497l-17.79651,-44.64399l24.21516,25.41411l40.95359,0.3458z" fill="#ff6e5b" stroke-width="0"/></g><path d="M189.3174,304.25528l13.89883,-112.94953l112.94953,13.89883l-13.89883,112.94953z" data-paper-data="{&quot;index&quot;:null}" fill="#0000c0" stroke="#000000" stroke-width="2" stroke-linecap="butt"/><g data-paper-data="{&quot;index&quot;:null}" stroke="#000000" stroke-linecap="butt"><path d="M216.06646,307.07408l13.64014,-110.84725l60.72099,7.47193l-13.64014,110.84725z" fill="#ffffff" stroke-width="2"/><path d="M216.96227,306.24123l13.64014,-110.84725l10.83745,62.80707l36.24339,55.51211z" fill="#8ebbfc" stroke-width="0"/></g><g data-paper-data="{&quot;index&quot;:null}" stroke="#000000" stroke-linecap="butt"><path d="M118.18585,314.89658l24.47156,-41.36357l43.89133,25.96705l-24.47156,41.36357z" fill="#ffcaa0" stroke-width="2"/><g><path d="M142.42182,273.60311l33.74361,-57.03583l44.46341,26.30551l-33.74361,57.03583z" fill="#0000c0" stroke-width="2"/><path d="M142.95359,274.16459l17.67391,-29.87367c0,0 5.95881,20.27781 13.34032,24.64486c6.99877,4.14061 29.86163,0.91433 29.86163,0.91433l-17.67391,29.87368c0,0 -14.20956,-8.40667 -21.37118,-12.64364c-7.23822,-4.28229 -21.83076,-12.91555 -21.83076,-12.91555z" fill="#56006b" stroke-width="0"/></g><path d="M119.14351,314.83071l24.47157,-41.36357l-5.32622,34.697l24.74598,32.63361z" fill="#ff6e5b" stroke-width="0"/></g><g data-paper-data="{&quot;index&quot;:null}" stroke="#000000" stroke-linecap="butt"><path d="M347.72198,187.77952c-1.30645,32.17876 -14.23982,57.78271 -28.8875,57.18802c-14.64768,-0.59469 -25.46289,-27.16282 -24.15644,-59.34158c1.30645,-32.17876 14.23981,-57.7827 28.88749,-57.18801c14.64768,0.59469 25.4629,27.16282 24.15645,59.34158z" fill="#01930e" stroke-width="2"/><path d="M304.25824,175.95816c-1.30645,32.17876 29.64305,69.18656 14.99539,68.59187c-14.64767,-0.59469 -25.4629,-27.16282 -24.15645,-59.34158c1.30645,-32.17876 10.4675,-41.42905 9.16106,-9.25028z" fill="#31525b" stroke-width="0"/></g><g data-paper-data="{&quot;index&quot;:null}" stroke="#000000" stroke-linecap="butt"><path d="M170.50339,179.01397c0.05583,-1.37532 1.99693,-27.32157 2.154,-28.67169c3.96867,-34.11641 37.92042,-35.226 80.3299,-33.50419c39.83701,1.61737 74.06503,7.55288 78.79295,39.06124c0.50449,3.36206 -1.47944,26.11321 -1.62086,29.59658c-0.5055,12.45088 1.37052,39.93799 -6.40003,49.54607c-14.77724,18.27169 -47.18986,13.80287 -76.08387,12.62979c-30.55019,-1.24032 -59.07899,-1.41653 -71.6598,-22.61878c-5.5749,-9.39529 -5.96269,-34.94535 -5.5123,-46.03904z" fill="#ffcaa0" stroke-width="2"/><path d="M168.67112,178.94977c0.05583,-1.37532 1.99693,-27.32157 2.15399,-28.67169c2.25482,-19.38332 4.40135,60.78485 51.25933,84.63028c36.72114,18.68692 103.62338,-3.87571 100.49925,-0.01279c-14.77724,18.27169 -47.84646,13.88509 -76.74046,12.71201c-30.55019,-1.24032 -59.079,-1.41652 -71.65981,-22.61878c-5.5749,-9.39529 -5.96269,-34.94535 -5.5123,-46.03904z" fill="#ff6e5b" stroke-width="0"/></g><g data-paper-data="{&quot;index&quot;:null}" stroke="#000000" stroke-linecap="butt"><path d="M215.8389,180.34949c-1.30644,32.17876 -14.23982,57.78271 -28.8875,57.18802c-14.64768,-0.59469 -25.46289,-27.16282 -24.15645,-59.34157c1.30644,-32.17876 14.23982,-57.7827 28.8875,-57.18801c14.64768,0.59469 25.46289,27.16281 24.15645,59.34157z" fill="#01930e" stroke-width="2"/><path d="M172.37516,168.52815c-1.30644,32.17876 29.64305,69.18655 14.99539,68.59187c-14.64767,-0.59469 -25.46289,-27.16282 -24.15645,-59.34157c1.30644,-32.17876 10.4675,-41.42905 9.16106,-9.25028z" fill="#31525b" stroke-width="0"/></g><g data-paper-data="{&quot;index&quot;:null}" stroke-linecap="butt"><path d="M348.06148,148.90224c-0.71644,17.64642 -42.6235,30.27384 -93.60204,28.20413c-50.97854,-2.06971 -91.72401,-18.05278 -91.00758,-35.69919c0.71644,-17.64642 42.62348,-30.27383 93.60202,-28.20412c50.97854,2.06971 91.72403,18.05278 91.0076,35.6992z" fill="#000000" stroke="none" stroke-width="NaN"/><path d="M347.318,149.21663c-0.71644,17.64642 -42.6235,30.27383 -93.60204,28.20412c-50.97854,-2.06971 -91.72402,-18.05279 -91.00758,-35.6992c0.71644,-17.64642 42.39865,10.57767 93.37719,12.64737c50.97854,2.06971 91.94888,-22.79871 91.23244,-5.15229z" fill="#ff0000" stroke="#000000" stroke-width="2"/><path d="M341.56354,158.18753c-0.19716,4.85614 -37.26919,21.98969 -88.18962,18.48862c-17.81908,-1.22516 -34.58152,-3.53893 -48.1832,-7.04744c-25.25162,-6.51357 -40.54217,-15.72396 -38.05061,-19.71592c2.57335,-4.12297 36.94482,18.3921 87.92336,20.46182c50.97854,2.06971 86.69724,-17.04322 86.50007,-12.18708z" fill="#900056" stroke="#000000" stroke-width="0"/></g><g><path d="M282.41189,228.81303c-0.3444,8.48293 -1.41247,14.62063 -3.34205,16.24994c-1.64268,1.38704 -4.04615,-1.15142 -5.69269,-1.21827c-3.58064,-0.14537 -4.56952,0.14647 -3.93192,-15.5581c0.6376,-15.70458 4.05716,-28.31781 7.6378,-28.17243c3.58064,0.14537 5.96645,12.99429 5.32885,28.69888z" data-paper-data="{&quot;index&quot;:null}" fill="#000000" stroke="none" stroke-width="0" stroke-linecap="butt"/><path d="M261.56974,194.17003l33.04634,12.36809" fill="none" stroke="#000000" stroke-width="5" stroke-linecap="round"/><path d="M260.75662,237.8072l19.76569,8.85137" fill="none" stroke="#000000" stroke-width="2.5" stroke-linecap="round"/></g><g><path d="M310.90098,221.80675c-0.63506,15.64176 -3.89978,28.21027 -7.29196,28.07256c-3.39219,-0.13772 -5.62729,-12.92952 -4.99224,-28.57128c0.63506,-15.64176 3.89978,-28.21027 7.29196,-28.07255c3.39219,0.13773 5.62729,12.92952 4.99224,28.57128z" data-paper-data="{&quot;index&quot;:null}" fill="#000000" stroke="none" stroke-width="0" stroke-linecap="butt"/><path d="M322.54038,187.74017l-23.05203,7.27526" fill="none" stroke="#000000" stroke-width="5" stroke-linecap="round"/></g><path d="M248.02546,235.22997c-4.20062,4.96031 -9.8153,7.1104 -12.54075,4.80237c-2.72544,-2.30803 -1.52958,-8.20019 2.67104,-13.16049c4.20062,-4.96031 9.8153,-7.1104 12.54075,-4.80237c2.72544,2.30803 1.52958,8.20019 -2.67104,13.16049z" fill="#000000" stroke="none" stroke-width="0" stroke-linecap="butt"/></g></g></svg>