<svg version="1.1" xmlns="http://www.w3.org/2000/svg" xmlns:xlink="http://www.w3.org/1999/xlink" width="203.87737" height="326.80606" viewBox="0,0,203.87737,326.80606"><g transform="translate(-259.27712,-18.04562)"><g data-paper-data="{&quot;isPaintingLayer&quot;:true}" fill-rule="nonzero" stroke-linecap="butt" stroke-linejoin="miter" stroke-miterlimit="10" stroke-dasharray="" stroke-dashoffset="0" style="mix-blend-mode: normal"><g data-paper-data="{&quot;index&quot;:null}" stroke="#000000"><path d="M416.51302,266.64339l-22.08558,-42.68524l45.29377,-23.43525l22.08559,42.68523z" fill="#ffcaa0" stroke-width="2"/><g><path d="M394.3619,224.19505l-30.4536,-58.85826l45.88413,-23.74071l30.4536,58.85826z" fill="#0000c0" stroke-width="2"/><path d="M395.11996,224.04206l-15.95069,-30.82821c0,0 20.35093,5.70404 27.9683,1.76278c7.2224,-3.73691 16.61406,-24.82995 16.61406,-24.82995l15.95069,30.82823c0,0 -14.66359,7.58703 -22.05404,11.41089c-7.4695,3.86476 -22.52832,11.65628 -22.52832,11.65628z" fill="#56006b" stroke-width="0"/></g><path d="M416.96514,265.79658l-22.08558,-42.68523l26.58897,22.91892l40.79038,-3.66894z" fill="#ff6e5b" stroke-width="0"/></g><g data-paper-data="{&quot;index&quot;:null}" stroke="#000000"><path d="M459.00107,88.88266c0,32.20527 -11.88407,58.3128 -26.54382,58.3128c-14.65975,0 -26.54382,-26.10753 -26.54382,-58.3128c0,-32.20527 11.88407,-58.3128 26.54382,-58.3128c14.65975,0 26.54382,26.10753 26.54382,58.3128z" fill="#01930e" stroke-width="2"/><path d="M415.09356,78.83419c0,32.20527 32.42529,67.9271 17.76555,67.9271c-14.65974,0 -26.54382,-26.10753 -26.54382,-58.3128c0,-32.20527 8.77827,-41.81957 8.77827,-9.6143z" fill="#31525b" stroke-width="0"/></g><path d="M276.16177,241.33241l19.11388,-112.18483l112.18482,19.11388l-19.11388,112.18482z" data-paper-data="{&quot;index&quot;:null}" fill="#0000c0" stroke="#000000" stroke-width="2"/><g data-paper-data="{&quot;index&quot;:null}" stroke="#000000"><path d="M307.60112,341.58836l17.81079,-93.87475l59.97636,12.80439l-15.18513,82.62194z" fill="#273750" stroke-width="2"/><path d="M308.52225,340.96636l17.81079,-93.87476l8.33472,55.14104l34.95613,41.41058z" fill="#1f1e2e" stroke-width="0"/></g><g data-paper-data="{&quot;index&quot;:null}" stroke="#000000"><path d="M264.94385,343.41844l8.80854,-106.25285l59.97636,12.8044l-17.81079,93.87476z" fill="#273750" stroke-width="2"/><path d="M265.86503,342.79644l8.80854,-106.25285l8.33472,55.14103l33.83085,51.53812z" fill="#1f1e2e" stroke-width="0"/></g><g data-paper-data="{&quot;index&quot;:null}" stroke="#000000"><path d="M302.75162,245.38677l18.75813,-110.09677l60.30988,10.27551l-18.75812,110.09677z" fill="#ffffff" stroke-width="2"/><path d="M303.68503,244.59628l18.75812,-110.09677l7.91764,63.24151l33.63412,57.13077z" fill="#8ebbfc" stroke-width="0"/></g><g data-paper-data="{&quot;index&quot;:null}" stroke="#000000"><path d="M260.43087,241.43943l8.07213,-47.37766l50.27296,8.56543l-8.07214,47.37766z" fill="#ffcaa0" stroke-width="2"/><g><path d="M268.30802,194.21143l11.13059,-65.32861l50.92822,8.67708l-11.13059,65.32861z" fill="#0000c0" stroke-width="2"/><path d="M269.00535,194.54578l5.82987,-34.21719c0,0 12.81245,16.80886 21.26719,18.24936c8.01636,1.36581 28.21615,-9.81847 28.21615,-9.81847l-5.82988,34.2172c0,0 -16.27557,-2.77301 -24.47846,-4.1706c-8.29062,-1.41254 -25.00488,-4.26029 -25.00488,-4.26029z" fill="#56006b" stroke-width="0"/></g><path d="M261.30174,241.03564l8.07214,-47.37766l7.42613,34.30893l34.7747,21.63415z" fill="#ff6e5b" stroke-width="0"/></g><g data-paper-data="{&quot;index&quot;:null}" stroke="#000000"><path d="M281.57277,87.3134c0,-1.37646 0.88696,-27.38008 0.98912,-28.73546c2.58143,-34.24932 36.46023,-36.73529 78.90464,-36.73529c39.86984,0 74.31045,4.54212 80.31266,35.83276c0.64046,3.33883 -0.4189,26.15173 -0.4189,29.63798c0,12.46114 2.98952,39.84953 -4.38487,49.76492c-14.02387,18.8561 -46.59108,15.70582 -75.50889,15.70582c-30.57536,0 -59.08782,0.98125 -72.51838,-19.6932c-5.95144,-9.1614 -7.37538,-34.67471 -7.37538,-45.77754z" fill="#ffcaa0" stroke-width="2"/><path d="M279.7394,87.32359c0,-1.37646 0.88696,-27.38008 0.98912,-28.73546c1.46665,-19.45883 6.86352,60.55627 54.65026,82.48122c37.44896,17.1819 103.38086,-8.07612 100.416,-4.08965c-14.02387,18.8561 -47.24381,15.81461 -76.16161,15.81461c-30.57536,0 -59.08782,0.98125 -72.51838,-19.6932c-5.95144,-9.1614 -7.37538,-34.67471 -7.37538,-45.77754z" fill="#ff6e5b" stroke-width="0"/></g><g data-paper-data="{&quot;index&quot;:null}" stroke="#000000"><path d="M326.92514,86.80875c0,32.20527 -11.88407,58.3128 -26.54382,58.3128c-14.65975,0 -26.54382,-26.10753 -26.54382,-58.3128c0,-32.20527 11.88407,-58.3128 26.54382,-58.3128c14.65975,0 26.54382,26.10753 26.54382,58.3128z" fill="#01930e" stroke-width="2"/><path d="M283.01763,76.76027c0,32.20527 32.42529,67.9271 17.76555,67.9271c-14.65974,0 -26.54382,-26.10753 -26.54382,-58.3128c0,-32.20527 8.77827,-41.81957 8.77827,-9.6143z" fill="#31525b" stroke-width="0"/></g><g data-paper-data="{&quot;index&quot;:null}"><path d="M457.76319,50.02361c0,17.66096 -41.36032,31.97799 -92.38086,31.97799c-51.02054,0 -92.38085,-14.31704 -92.38085,-31.97799c0,-17.66096 41.36031,-31.97798 92.38085,-31.97798c51.02054,0 92.38086,14.31703 92.38086,31.97799z" fill="#000000" stroke="none" stroke-width="NaN"/><path d="M457.03308,50.3679c0,17.66096 -41.36032,31.97799 -92.38086,31.97799c-51.02054,0 -92.38085,-14.31704 -92.38085,-31.97799c0,-17.66096 42.79284,8.849 93.81338,8.849c51.02054,0 90.94833,-26.50996 90.94833,-8.849z" fill="#ff0000" stroke="#000000" stroke-width="2"/><path d="M451.64727,59.56485c0,4.86014 -36.34648,23.48345 -87.36702,22.05092c-17.85411,-0.5013 -34.69662,-2.13318 -48.42942,-5.08703c-25.49507,-5.48385 -41.14666,-14.06638 -38.81909,-18.15612c2.40397,-4.22396 37.6605,16.87826 88.68104,16.87826c51.02054,0 85.93449,-20.54617 85.93449,-15.68603z" fill="#900056" stroke="#000000" stroke-width="0"/></g><path d="M387.32051,112.0925c0,15.71752 -2.90507,28.45909 -6.48867,28.45909c-3.5836,0 -6.48867,-12.74157 -6.48867,-28.45908c0,-15.71752 2.90508,-28.45908 6.48867,-28.45908c3.5836,0 6.48867,12.74157 6.48867,28.45909z" data-paper-data="{&quot;index&quot;:null}" fill="#000000" stroke="none" stroke-width="0"/><path d="M413.07013,107.77088c0,15.65465 -2.75218,28.34525 -6.14716,28.34525c-3.39499,0 -6.14716,-12.6906 -6.14716,-28.34525c0,-15.65465 2.75218,-28.34525 6.14716,-28.34525c3.39499,0 6.14716,12.6906 6.14716,28.34525z" data-paper-data="{&quot;index&quot;:null}" fill="#000000" stroke="none" stroke-width="0"/><path d="M341.11892,136.30155c0,-7.02515 4.39038,-2.60926 11.41553,-2.60926c7.02515,0 14.02479,-4.41589 14.02479,2.60926c0,7.02515 -5.69501,12.72016 -12.72016,12.72016c-7.02515,0 -12.72016,-5.69501 -12.72016,-12.72016z" fill="#000000" stroke="none" stroke-width="0"/></g></g></svg>