<svg version="1.1" xmlns="http://www.w3.org/2000/svg" xmlns:xlink="http://www.w3.org/1999/xlink" width="176.31314" height="329.16623" viewBox="0,0,176.31314,329.16623"><g transform="translate(-148.51922,-31.82119)"><g data-paper-data="{&quot;isPaintingLayer&quot;:true}" fill-rule="nonzero" stroke-linejoin="miter" stroke-miterlimit="10" stroke-dasharray="" stroke-dashoffset="0" style="mix-blend-mode: normal"><g data-paper-data="{&quot;index&quot;:null}" stroke="#000000" stroke-linecap="butt"><path d="M267.13716,235.14228c33.16273,3.39883 38.06671,11.70582 37.24175,19.75502c-0.82496,8.04922 -28.37743,11.8191 -61.54017,8.42027c-33.16274,-3.39884 19.85791,-52.4325 20.68287,-60.48172c4.47074,-5.50826 7.86401,0.06699 7.40601,7.91212c-0.56483,9.6749 -6.62508,24.10378 -3.79046,24.3943z" fill="#216aff" stroke-width="2"/><path d="M293.28374,225.67085c14.23429,1.45885 24.56037,14.47762 23.06396,29.07824c-1.49641,14.60061 -14.24865,25.25412 -28.48294,23.79525c-14.23428,-1.45886 -24.56037,-14.47764 -23.06397,-29.07825c1.49641,-14.60061 14.24866,-25.25409 28.48294,-23.79524z" fill="#faddbf" stroke-width="2"/><path d="M277.62324,264.01138c14.23428,1.45886 39.40813,-24.34333 37.91173,-9.74273c-1.49641,14.60061 -14.24866,25.2541 -28.48294,23.79524c-14.23428,-1.45886 -23.66309,-15.51138 -9.42879,-14.05251z" fill="#ef8b89" stroke-width="0"/></g><g stroke="#000000" stroke-linecap="butt"><path d="M247.76518,340.83537v-95.29492h29.49199v95.29492z" fill="#73fffc" stroke-width="2"/><path d="M247.43943,340.21744l1.32626,-93.78573c0,0 5.20288,68.11227 6.3799,77.52842c0.2602,2.08162 2.52228,2.78987 2.52228,2.78987l18.60659,13.13896z" fill="#59a9e6" stroke-width="0"/></g><g stroke="#000000" stroke-linecap="butt"><path d="M208.4238,338.41282v-95.29492h29.49199v95.29492z" fill="#73fffc" stroke-width="2"/><path d="M208.09805,337.79492l1.32626,-93.78573c0,0 5.20288,68.11227 6.3799,77.52842c0.2602,2.08162 2.52228,2.78987 2.52228,2.78987l18.60659,13.13896z" fill="#59a9e6" stroke-width="0"/></g><g stroke="#000000" stroke-linecap="butt"><path d="M275.22917,235.69588c0,13.80271 10.04743,36.74388 4.95001,46.45977c-6.2338,11.88187 -28.61241,9.09579 -38.9397,9.09579c-13.66287,0 -32.94407,4.17018 -38.34426,-14.83216c-2.01935,-7.10576 4.35457,-32.37264 4.35457,-40.7234c0,-30.68249 15.2177,-55.55556 33.98969,-55.55556c18.77199,0 33.98969,24.87307 33.98969,55.55556z" fill="#216aff" stroke-width="2"/><path d="M223.96554,251.27245c0,13.80271 62.04198,20.54886 56.94455,30.26474c-6.2338,11.88186 -28.61241,9.09579 -38.9397,9.09579c-13.66287,0 -32.94406,4.17018 -38.34425,-14.83215c-2.01936,-7.10576 4.35457,-32.37265 4.35457,-40.7234c0,-9.45244 3.34855,-28.59801 5.51953,-29.96813c5.94391,-16.76415 10.4653,25.13995 10.4653,46.16315z" fill="#3236f4" stroke-width="0"/></g><g stroke="#000000" stroke-linecap="butt"><g><path d="M152.22222,120.27785c0,-46.79079 37.93143,-84.72222 84.72222,-84.72222c46.79079,0 84.72222,37.93143 84.72222,84.72222c0,46.79079 -37.93143,84.72222 -84.72222,84.72222c-46.79079,0 -84.72222,-37.93143 -84.72222,-84.72222z" fill="#faddbf" stroke-width="2"/><path d="M152.45299,119.40834c0,-15.05428 8.65728,-41.01117 13.16632,-44.22534c0.51494,-0.36707 5.78642,-8.91029 13.30693,-15.62682c9.34748,-8.34819 21.31473,-15.15641 21.9255,-14.95935c7.96872,2.57101 -17.52654,64.85492 -16.28763,90.14485c0.00295,0.06031 4.40745,19.70158 6.02593,20.14049c2.8855,4.74247 9.11092,19.15337 19.99223,26.29351c20.2786,13.30648 48.94186,19.68013 47.45857,20.18586c-2.37273,0.80898 -14.80271,2.76903 -20.86562,2.76903c-46.79079,0 -84.72222,-37.93143 -84.72222,-84.72222z" fill="#ef8b89" stroke-width="0"/><path d="M321.14322,119.81965c0,11.62434 -1.57787,15.64071 -2.12992,13.78899c-0.5632,-1.8891 -0.18668,-9.81362 -9.04258,-14.64925c-2.14596,-1.17177 -10.20624,6.27605 -12.93385,5.04791c-1.71325,-0.77142 -8.65215,-10.17554 -10.56583,-10.85157c-1.33801,-0.47267 -12.45011,8.37757 -13.84965,7.92692c-3.49052,-1.12394 -11.98851,-11.37355 -15.73972,-12.03156c-2.06568,-0.36235 -9.2828,11.84977 -11.39182,11.59592c-2.71985,-0.32737 -10.06862,-12.06843 -12.80601,-12.06843c-7.27985,0 -7.47978,7.01079 -12.7176,13.01701c-3.40366,3.90299 -13.98842,-13.05188 -17.11223,-8.61668c-3.87941,5.50799 -7.71992,10.81771 -11.96095,14.41734c-3.32724,2.82405 -13.36416,-10.09687 -16.24015,-7.47909c-13.88607,12.63935 -22.22353,20.64372 -22.22353,2.47189c0,-36.54015 43.28764,-8.21349 85.0704,-29.73523c39.99404,-20.60039 83.64345,-9.37431 83.64345,27.16584z" fill="#ef8b89" stroke-width="0"/></g><path d="M322.67709,111.50876c0,23.48334 6.5317,8.71531 -11.46679,-0.86026c-2.20249,-1.17177 -10.47508,6.27605 -13.27454,5.04791c-1.75838,-0.77142 -8.88005,-10.17554 -10.84414,-10.85157c-1.37326,-0.47267 -12.77806,8.37757 -14.21446,7.92692c-3.58246,-1.12394 -12.30429,-11.37355 -16.15431,-12.03156c-2.12009,-0.36235 -9.52731,11.84977 -11.69189,11.59592c-2.79149,-0.32737 -10.33384,-12.06843 -13.14333,-12.06843c-7.47161,0 -7.6768,7.01079 -13.05259,13.01701c-3.49332,3.90299 -14.35688,-13.05188 -17.56298,-8.61668c-3.98159,5.50799 -7.92327,10.81771 -12.276,14.41734c-3.41488,2.82405 -13.71618,-10.09687 -16.66792,-7.47909c-14.25184,12.63935 -22.80892,20.64372 -22.80892,2.47189c0,-36.54015 39.86264,-81.25697 85.78948,-81.25697c45.92683,0 87.36842,42.14743 87.36842,78.68758z" fill="#724e36" stroke-width="2"/><path d="M322.42936,110.34597c0,23.48334 6.5317,8.71531 -11.46679,-0.86026c-2.20249,-1.17177 -10.47508,6.27605 -13.27454,5.04791c-1.75838,-0.77142 -8.88005,-10.17554 -10.84415,-10.85157c-1.37326,-0.47267 -12.77806,8.37757 -14.21446,7.92692c-3.58246,-1.12394 -12.30429,-11.37355 -16.15431,-12.03156c-2.12009,-0.36235 -9.52731,11.84977 -11.69189,11.59592c-2.79149,-0.32737 -10.33384,-12.06843 -13.14333,-12.06843c-7.47161,0 -7.6768,7.01079 -13.05259,13.01701c-3.49332,3.90299 -14.35688,-13.05188 -17.56298,-8.61668c-3.98159,5.50799 -7.92327,10.81771 -12.27601,14.41734c-3.41488,2.82405 -13.71618,-10.09687 -16.66792,-7.47909c-14.25184,12.63935 -22.80892,20.64372 -22.80892,2.47189c0,-36.54015 44.42786,-8.21349 87.31121,-29.73523c41.04751,-20.60039 85.84668,-9.37431 85.84668,27.16584z" fill="#623728" stroke-width="0"/></g><g stroke="#000000" stroke-linecap="butt"><path d="M234.87924,129.78257c0,28.55894 -13.1683,43.28947 -29.73684,43.28947c-16.56854,0 -30.26316,-14.73054 -30.26316,-43.28947c0,-28.55894 13.43146,-51.71053 30,-51.71053c16.56854,0 30,23.15159 30,51.71053z" fill="#f0f0f0" stroke-width="2"/><path d="M188.12351,110.20017c-4.30259,28.23297 34.22345,62.0416 17.65491,62.0416c-16.56854,0 -30.26316,-14.73054 -30.26316,-43.28947c0,-28.55894 18.82852,-59.56866 12.60825,-18.75213z" fill="#9a99ff" stroke-width="0"/></g><path d="M202.0459,118.1873c0,15.82221 -4.68891,28.64865 -10.47297,28.64865c-5.78406,0 -10.47297,-12.82644 -10.47297,-28.64865c0,-15.82221 4.68891,-28.64865 10.47297,-28.64865c5.78406,0 10.47297,12.82644 10.47297,28.64865z" fill="#000000" stroke="none" stroke-width="0" stroke-linecap="butt"/><g stroke="#000000" stroke-linecap="butt"><path d="M229.86994,99.74789c4.45946,10.22981 10.43537,21.18713 -5.27489,21.18713c-15.71026,0 -47.51317,-11.70705 -42.96836,-21.32227c4.32432,-9.14873 6.78974,-21.41892 22.5,-21.41892c15.71026,0 21.49332,11.80491 25.74324,21.55405z" fill="#a100fe" stroke-width="2"/><path d="M228.94567,99.39364c4.3074,10.22981 10.77286,20.7384 -4.40172,20.7384c-15.17458,0 -46.5864,-11.25832 -42.19656,-20.87354c4.17687,-9.14873 6.55823,0.96203 21.73281,0.96203c15.17458,0 20.76045,-10.57604 24.86546,-0.8269z" fill="#99008e" stroke-width="0"/></g><g data-paper-data="{&quot;index&quot;:null}" stroke="#000000" stroke-linecap="butt"><path d="M266.4623,92.67058c16.56854,0 30,23.15159 30,51.71053c0,28.55893 -13.69462,43.28947 -30.26316,43.28947c-16.56854,0 -29.73684,-14.73053 -29.73684,-43.28947c0,-28.55894 13.43146,-51.71053 30,-51.71053z" fill="#f0f0f0" stroke-width="2"/><path d="M295.82628,143.55084c0,28.55893 -13.69462,43.28947 -30.26316,43.28947c-16.56854,0 21.9575,-33.80863 17.65491,-62.0416c-6.22027,-40.81653 12.60825,-9.80681 12.60825,18.75213z" fill="#9a99ff" stroke-width="0"/></g><path d="M247.35605,111.87525c5.78406,0 10.47297,12.82644 10.47297,28.64865c0,15.82221 -4.68891,28.64865 -10.47297,28.64865c-5.78406,0 -10.47297,-12.82644 -10.47297,-28.64865c0,-15.82221 4.68891,-28.64865 10.47297,-28.64865z" data-paper-data="{&quot;index&quot;:null}" fill="#000000" stroke="none" stroke-width="0" stroke-linecap="butt"/><g data-paper-data="{&quot;index&quot;:null}" stroke="#000000" stroke-linecap="butt"><path d="M241.47161,114.3464c4.24992,-9.74914 10.03298,-21.55405 25.74324,-21.55405c15.71026,0 18.17568,12.27019 22.5,21.41892c4.54481,9.61522 -28.29622,26.20472 -44.00648,26.20472c-15.71026,0 -8.69622,-15.83977 -4.23676,-26.06958z" fill="#a100fe" stroke-width="2"/><path d="M242.63029,113.99216c4.10501,-9.74914 9.69088,0.8269 24.86546,0.8269c15.17458,0 17.55594,-10.11076 21.73281,-0.96203c4.38984,9.61522 -28.27443,26.41904 -43.44901,26.41904c-15.17458,0 -7.45667,-16.05409 -3.14927,-26.2839z" fill="#99008e" stroke-width="0"/></g><path d="M311.63632,338.87006c0,11.6628 -14.51982,21.11737 -32.43092,21.11737c-17.9111,0 -32.43092,-9.45457 -32.43092,-21.11737c0,-2.33142 -0.03339,-13.76009 1.08979,-15.13837c4.49546,-5.51647 17.81784,5.26144 32.14847,5.26144c17.9111,0 31.62358,-1.78588 31.62358,9.87692z" fill="#000082" stroke="#000000" stroke-width="2" stroke-linecap="butt"/><path d="M309.75004,336.13776c0,6.30841 -13.89058,10.1901 -31.80169,10.1901c-17.9111,0 -30.16566,-2.95748 -30.16566,-9.26589c0,-1.26107 -0.03338,-12.52602 1.0898,-13.27153c4.49546,-2.98386 15.55258,5.7726 29.88321,5.7726c17.9111,0 30.99434,0.26631 30.99434,6.57472z" fill="#2e0048" stroke="#000000" stroke-width="0" stroke-linecap="butt"/><path d="M268.64938,338.22523c0,11.6628 -14.51982,21.11737 -32.43092,21.11737c-17.9111,0 -32.43092,-9.45457 -32.43092,-21.11737c0,-2.33142 -0.03339,-13.76009 1.08979,-15.13837c4.49546,-5.51647 17.81784,5.26144 32.14847,5.26144c17.9111,0 31.62358,-1.78588 31.62358,9.87692z" fill="#000082" stroke="#000000" stroke-width="2" stroke-linecap="butt"/><path d="M266.7631,335.49289c0,6.30841 -13.89058,10.1901 -31.80169,10.1901c-17.9111,0 -30.16566,-2.95748 -30.16566,-9.26589c0,-1.26107 -0.03338,-12.52602 1.0898,-13.27153c4.49546,-2.98386 15.55258,5.7726 29.88321,5.7726c17.9111,0 30.99434,0.26631 30.99434,6.57472z" fill="#2e0048" stroke="#000000" stroke-width="0" stroke-linecap="butt"/><g><path d="M208.70598,262.1971c-13.68502,-6.35162 -18.48367,-16.94327 -12.83372,-30.77034c4.41885,-10.8143 21.32189,-17.31898 35.00693,-10.96736c13.6851,6.35162 19.52221,19.80867 13.23392,33.35734c-0.98337,2.11875 -2.51973,3.78229 -3.90875,5.31476c-7.49323,8.26693 -19.95341,8.42396 -31.49837,3.06561z" fill="#216aff" stroke="#000000" stroke-width="2" stroke-linecap="butt"/><path d="M217.13216,219.68207c0,0 -2.81634,5.0199 -1.86653,6.78377c9.11066,16.9195 21.37634,23.75845 25.60578,25.71081c0.96091,0.44358 1.88913,-0.1883 1.88913,-0.1883c0,0 -0.68361,2.00019 -2.34848,4.17786c-1.77156,2.31723 -4.61066,4.8556 -7.42381,6.09307c-3.21342,1.4135 -11.45215,2.69093 -11.45215,2.69093l-20.145,-5.74786c0,0 -5.69606,-12.18646 -5.88063,-14.34582c-0.18084,-2.11546 0.21193,-4.67054 0.52019,-7.40403c0.47865,-4.24411 2.52243,-8.29748 4.49004,-10.40064c2.51116,-2.68408 6.62453,-4.8823 10.25047,-6.07181c3.37462,-1.10706 6.36091,-1.29786 6.36091,-1.29786z" fill="#3236f4" stroke="none" stroke-width="0" stroke-linecap="butt"/><path d="M209.03277,242.73785c0,0 2.02047,-8.79295 5.99513,-12.07657c5.03148,-4.15675 16.93336,-9.2995 16.93336,-9.2995" fill="none" stroke="#000000" stroke-width="1" stroke-linecap="round"/><path d="M245.5351,246.87253c0,0 -4.31004,5.70557 -7.64424,8.41754c-3.36602,2.73791 -12.56869,5.81416 -12.56869,5.81416" fill="none" stroke="#000000" stroke-width="1" stroke-linecap="round"/><path d="M198.18431,241.10468c0,0 1.93915,-9.05682 6.40627,-12.41746c6.85463,-5.15677 17.29822,-10.19933 17.29822,-10.19933" fill="none" stroke="#000000" stroke-width="1" stroke-linecap="round"/><path d="M200.5872,226.01086c0,0 16.88366,-3.79699 29.83226,7.85967c14.18355,12.76839 6.62721,28.27298 6.62721,28.27298" fill="none" stroke="#000000" stroke-width="1" stroke-linecap="round"/><path d="M195.46102,234.03752c0,0 17.77277,-0.99557 29.22098,9.2659c9.40001,8.42563 4.2568,22.0809 4.2568,22.0809" fill="none" stroke="#000000" stroke-width="1" stroke-linecap="round"/><path d="M239.17211,233.43286c-0.66517,-1.00237 -0.56106,-2.2418 0.23243,-2.76835c0.7935,-0.52662 1.25282,0.12376 1.91798,1.12614c0.66517,1.00237 1.28424,1.97711 0.49074,2.50369c-0.7935,0.52662 -1.97603,0.1409 -2.64114,-0.86147z" fill="#8fbbbe" stroke="none" stroke-width="0" stroke-linecap="butt"/><path d="M242.32976,239.98176c-0.54558,-0.25325 -0.67996,-1.12191 -0.30013,-1.94028c0.37983,-0.81838 0.6479,-1.10008 1.19348,-0.84687c0.54558,0.25325 0.84461,1.19834 0.46475,2.01669c-0.37983,0.81838 -0.81256,1.02365 -1.35812,0.77044z" fill="#8fbbbe" stroke="none" stroke-width="0" stroke-linecap="butt"/><path d="M235.29324,227.70413c-0.77326,-0.4649 -1.14886,-1.25958 -0.83896,-1.77508c0.30984,-0.51548 0.95873,-0.06261 1.73198,0.40223c0.77326,0.4649 1.3781,0.76563 1.06821,1.28115c-0.30984,0.51548 -1.18799,0.55655 -1.96124,0.09168z" fill="#8fbbbe" stroke="none" stroke-width="0" stroke-linecap="butt"/><path d="M212.68122,220.21773c0,0 10.17602,1.06217 16.88788,4.57935c3.80529,1.99408 6.47072,5.0652 8.46543,7.41623c1.76405,2.0791 3.71332,8.3581 4.7052,13.3194c0.73027,3.65272 0.75579,6.59659 0.75579,6.59659" fill="none" stroke="#000000" stroke-width="0.5" stroke-linecap="round"/><path d="M244.62778,232.44362c0,0 -4.81639,9.41171 -8.8676,12.99009c-3.41323,3.01487 -13.526,7.23345 -13.526,7.23345" fill="none" stroke="#000000" stroke-width="1" stroke-linecap="round"/><path d="M217.81799,248.81641c0,0 4.4991,-8.55489 7.54462,-11.89789c5.34735,-5.86964 15.05453,-9.63097 15.05453,-9.63097" fill="none" stroke="#000000" stroke-width="1" stroke-linecap="round"/></g><g stroke="#000000" stroke-linecap="butt"><path d="M196.44574,238.48525c24.56135,22.54017 23.53025,32.13141 18.05933,38.0929c-5.47092,5.9615 -29.81688,-7.47818 -54.37823,-30.01835c-24.56134,-22.54017 47.2519,-30.17884 52.72282,-36.14033c6.87611,-1.74563 6.26588,4.75247 1.21114,10.76957c-6.23367,7.42051 -19.71447,15.36957 -17.61506,17.29622z" fill="#216aff" stroke-width="2"/><path d="M223.07103,246.51299c10.54235,9.67481 11.0438,26.28399 1.12001,37.09766c-9.92379,10.81366 -26.51489,11.73688 -37.05725,2.06208c-10.54235,-9.67481 -11.04378,-26.28401 -1.11999,-37.09766c9.92379,-10.81367 26.51489,-11.73688 37.05724,-2.06207z" fill="#faddbf" stroke-width="2"/><path d="M187.60489,267.8999c10.54235,9.67481 46.14529,4.02625 36.2215,14.8399c-9.92379,10.81366 -26.51489,11.73688 -37.05724,2.06207c-10.54235,-9.67481 -9.70661,-26.57678 0.83574,-16.90197z" fill="#ef8b89" stroke-width="0"/></g><path d="M164.01646,155.84374l21.98655,21.72788" fill="none" stroke="#000000" stroke-width="2.5" stroke-linecap="round"/></g></g></svg>