<svg version="1.1" xmlns="http://www.w3.org/2000/svg" xmlns:xlink="http://www.w3.org/1999/xlink" width="214.93816" height="324.91588" viewBox="0,0,214.93816,324.91588"><g transform="translate(-155.86001,-20.66415)"><g data-paper-data="{&quot;isPaintingLayer&quot;:true}" fill-rule="nonzero" stroke-linejoin="miter" stroke-miterlimit="10" stroke-dasharray="" stroke-dashoffset="0" style="mix-blend-mode: normal"><g data-paper-data="{&quot;index&quot;:null}" stroke="#000000" stroke-linecap="butt"><path d="M369.4674,64.81934l-20.47779,43.47945l-46.13652,-21.72922l20.47779,-43.47945z" fill="#ffcaa0" stroke-width="2"/><g><path d="M349.51661,108.34771l-28.23664,59.95339l-46.73786,-22.01243l28.23664,-59.95339z" fill="#0000c0" stroke-width="2"/><path d="M303.542,86.45987c0,0 15.33901,7.22431 22.94749,10.80772c7.52796,3.5455 22.46439,10.5802 22.46439,10.5802l-14.78952,31.40182c0,0 -10.17203,-20.72799 -17.5288,-24.19286c-7.75909,-3.65434 -27.88306,2.80494 -27.88306,2.80494l14.78951,-31.40182z" fill="#56006b" stroke-width="0"/></g><path d="M369.95079,65.64868l-40.89886,-2.14466l-25.71546,23.89489l20.47779,-43.47945z" fill="#ff6e5b" stroke-width="0"/></g><g data-paper-data="{&quot;index&quot;:null}" stroke="#000000" stroke-linecap="butt"><path d="M182.31612,34.47894c14.65722,-0.2723 27.02418,25.60999 27.62237,57.8097c0.5982,32.19972 -10.79888,58.52348 -25.45611,58.79578c-14.65722,0.2723 -27.02418,-25.60999 -27.62237,-57.8097c-0.5982,-32.19972 10.79888,-58.52348 25.45611,-58.79578z" fill="#01930e" stroke-width="2"/><path d="M209.52863,91.86202c0.5982,32.19972 -10.79889,58.52348 -25.45611,58.79578c-14.65721,0.2723 17.09897,-36.04566 16.50078,-68.24536c-0.5982,-32.19972 8.35714,-22.75012 8.95533,9.44959z" fill="#31525b" stroke-width="0"/></g><g data-paper-data="{&quot;index&quot;:null}" stroke="#000000" stroke-linecap="butt"><path d="M236.44532,344.13567v-90.27109h61.17899v90.27109z" fill="#273750" stroke-width="2"/><path d="M237.23266,343.37909v-90.27109l18.42709,49.31565l42.75189,40.95544z" fill="#1f1e2e" stroke-width="0"/></g><path d="M184.4606,253.45329v-113.80147h113.80147v113.80147z" data-paper-data="{&quot;index&quot;:null}" fill="#0000c0" stroke="#000000" stroke-width="2" stroke-linecap="butt"/><g data-paper-data="{&quot;index&quot;:null}" stroke="#000000" stroke-linecap="butt"><path d="M183.83937,344.58003v-90.27109h61.17899v90.27109z" fill="#273750" stroke-width="2"/><path d="M184.62675,343.82344v-90.27109l18.42709,49.31565l42.75189,40.95544z" fill="#1f1e2e" stroke-width="0"/></g><g data-paper-data="{&quot;index&quot;:null}" stroke="#000000" stroke-linecap="butt"><path d="M211.35368,252.98407v-111.68333h61.17899v111.68333z" fill="#ffffff" stroke-width="2"/><path d="M212.14106,252.04804v-111.68333l18.42709,61.01328l42.75189,50.67005z" fill="#8ebbfc" stroke-width="0"/></g><g data-paper-data="{&quot;index&quot;:null}" stroke="#000000" stroke-linecap="butt"><path d="M211.78038,268.05912l-16.36853,-45.18709l47.94852,-17.36883l16.36853,45.18709z" fill="#ffcaa0" stroke-width="2"/><g><path d="M195.31616,223.09844l-22.57041,-62.30805l48.57348,-17.59521l22.57041,62.30805z" fill="#0000c0" stroke-width="2"/><path d="M196.08765,223.04496l-11.82171,-32.63511c0,0 19.44028,8.2929 27.5041,5.37186c7.64571,-2.76958 19.69131,-22.46788 19.69131,-22.46788l11.82171,32.63512c0,0 -15.52305,5.62305 -23.34667,8.45707c-7.9073,2.86433 -23.84874,8.63894 -23.84874,8.63894z" fill="#56006b" stroke-width="0"/></g><path d="M212.3384,267.27805l-16.36853,-45.18709l23.39515,26.17093l40.9219,1.64734z" fill="#ff6e5b" stroke-width="0"/></g><g data-paper-data="{&quot;index&quot;:null}" stroke="#000000" stroke-linecap="butt"><path d="M334.22856,88.41008c0.20623,11.10092 -0.74357,36.63627 -6.52381,45.90664c-13.04422,20.92035 -41.56999,20.46888 -72.14007,21.0368c-28.91282,0.53713 -61.4159,4.2918 -75.78759,-14.30057c-7.5573,-9.77671 -5.07702,-37.2159 -5.30847,-49.67489c-0.06476,-3.48565 -1.54767,-26.27494 -0.96934,-29.62509c5.41996,-31.39673 39.77026,-36.57779 79.63322,-37.31834c42.43708,-0.78839 76.35622,1.06788 79.57337,35.26333c0.12731,1.35325 1.49713,27.33591 1.52269,28.71213z" fill="#ffcaa0" stroke-width="2"/><path d="M336.06178,88.3862c0.20623,11.10092 -0.74357,36.63627 -6.52381,45.90664c-13.04422,20.92035 -41.56999,20.46888 -72.14007,21.0368c-28.91281,0.53713 -62.07053,4.19515 -76.44222,-14.39721c-3.03839,-3.93071 63.35128,20.0983 100.47464,2.22377c47.37125,-22.80878 51.28095,-102.91032 53.10879,-83.48209c0.12731,1.35325 1.49713,27.33591 1.52269,28.71213z" fill="#ff6e5b" stroke-width="0"/></g><g data-paper-data="{&quot;index&quot;:null}" stroke="#000000" stroke-linecap="butt"><path d="M314.33074,29.95214c14.65722,-0.2723 27.02418,25.60999 27.62237,57.8097c0.5982,32.19972 -10.79888,58.52348 -25.45611,58.79578c-14.65722,0.2723 -27.02418,-25.60999 -27.62237,-57.8097c-0.5982,-32.19972 10.79888,-58.52348 25.45611,-58.79578z" fill="#01930e" stroke-width="2"/><path d="M341.54326,87.33521c0.5982,32.19972 -10.79889,58.52348 -25.45611,58.79578c-14.65721,0.2723 17.09897,-36.04566 16.50078,-68.24536c-0.5982,-32.19972 8.35714,-22.75012 8.95533,9.44959z" fill="#31525b" stroke-width="0"/></g><path d="M271.07793,95.18548c-0.29195,-15.71481 2.37595,-28.50814 5.95893,-28.5747c3.58297,-0.06656 6.72422,12.61884 7.01617,28.33365c0.29194,15.7148 -2.37595,28.50813 -5.95893,28.57469c-3.58298,0.06656 -6.72422,-12.61885 -7.01617,-28.33366z" data-paper-data="{&quot;index&quot;:null}" fill="#000000" stroke="none" stroke-width="0" stroke-linecap="butt"/><path d="M254.35167,73.01823c3.3944,-0.06306 6.38182,12.57423 6.6726,28.22618c0.29078,15.65195 -2.22519,28.39148 -5.6196,28.45454c-3.3944,0.06306 -6.38182,-12.57423 -6.6726,-28.22618c-0.29078,-15.65195 2.22519,-28.39148 5.6196,-28.45454z" data-paper-data="{&quot;index&quot;:null}" fill="#000000" stroke="none" stroke-width="0" stroke-linecap="butt"/><g data-paper-data="{&quot;index&quot;:null}" stroke-linecap="butt"><path d="M157.37589,54.39939c-0.32805,-17.65792 40.75921,-32.74072 91.77095,-33.6884c51.01174,-0.94769 92.63084,12.59862 92.95889,30.25653c0.32804,17.65791 -40.7592,32.74072 -91.77094,33.6884c-51.01174,0.94769 -92.63085,-12.59863 -92.9589,-30.25654z" fill="#000000" stroke="none" stroke-width="NaN"/><path d="M249.20928,61.88821c51.01174,-0.94769 93.30479,-28.24792 93.63283,-10.59001c0.32804,17.65791 -40.7592,32.74072 -91.77094,33.6884c-51.01174,0.94769 -92.63085,-12.59863 -92.9589,-30.25654c-0.32805,-17.65792 40.08526,8.10583 91.097,7.15815z" fill="#ff0000" stroke="#000000" stroke-width="2"/><path d="M249.87901,77.91251c51.01174,-0.94769 85.87022,-22.70113 88.35224,-18.52256c2.40314,4.0458 -13.08634,12.91757 -38.47515,18.87403c-13.67556,3.20842 -30.48486,5.15286 -48.32657,5.98571c-50.98513,2.37996 -87.67125,-15.56501 -87.76153,-20.42431c-0.09027,-4.8593 35.19929,15.03482 86.21103,14.08713z" fill="#900056" stroke="#000000" stroke-width="0"/></g><path d="M297.91138,139.45517c3.18255,7.5475 -4.96785,4.86993 -12.51536,8.05248c-7.5475,3.18255 -11.63404,11.02005 -14.81658,3.47255c-3.18255,-7.5475 0.35594,-16.24594 7.90345,-19.42849c7.5475,-3.18255 16.24593,0.35595 19.42849,7.90345z" fill="#000000" stroke="none" stroke-width="0" stroke-linecap="butt"/><path d="M212.37802,70.10687l47.20185,18.10802" fill="none" stroke="#000000" stroke-width="5" stroke-linecap="round"/><path d="M270.94116,84.73417l51.93268,-22.68138" fill="none" stroke="#000000" stroke-width="5" stroke-linecap="round"/></g></g></svg>