<svg version="1.1" xmlns="http://www.w3.org/2000/svg" xmlns:xlink="http://www.w3.org/1999/xlink" width="110.54537" height="110.54537" viewBox="0,0,110.54537,110.54537"><g transform="translate(-264.72732,-124.72731)"><g data-paper-data="{&quot;isPaintingLayer&quot;:true}" fill-rule="nonzero" stroke-linejoin="miter" stroke-miterlimit="10" stroke-dasharray="" stroke-dashoffset="0" style="mix-blend-mode: normal"><path d="M268.40828,191.04984c-6.10266,-28.49332 12.04855,-56.5389 40.54187,-62.64156c28.49332,-6.10266 56.5389,12.04855 62.64156,40.54187c6.10266,28.49332 -12.04855,56.5389 -40.54187,62.64156c-28.49332,6.10266 -56.5389,-12.04855 -62.64156,-40.54187z" fill="#001aff" stroke="#000000" stroke-width="5" stroke-linecap="butt"/><path d="M366.82449,156.832l-11.56694,17.03037l-15.02735,-13.53945l-19.17171,17.55666l-17.90391,-10.49786l-16.40073,16.08117l-17.31624,-13.93121" fill="none" stroke="#000000" stroke-width="5" stroke-linecap="round"/><path d="M330.97499,207.72021l-2.39889,-27.88348" fill="none" stroke="#000000" stroke-width="7.5" stroke-linecap="round"/><path d="M304.0118,209.51696c2.22353,1.14276 1.08077,3.3663 1.08077,3.3663l-1.50784,2.79437c-0.9937,0.74742 -1.84381,1.73957 -2.98108,2.24228c-1.21209,0.53578 -2.57908,0.95422 -3.89497,0.79711c-6.15183,-0.73457 -7.20656,-8.39276 -4.88219,-13.15005c0.60028,-1.2286 1.69624,-2.1452 2.54437,-3.2178c0,0 1.58181,-1.93594 3.51776,-0.35414c1.93595,1.58181 0.35413,3.51776 0.35413,3.51776c-0.64191,0.75102 -1.45017,1.38709 -1.92573,2.25307c-0.57263,1.04277 -0.82322,4.85985 -0.21345,5.86905c0.61874,1.02401 3.24671,-0.87457 3.66038,-1.18243l0.88154,-1.85473c0,0 1.14276,-2.22353 3.3663,-1.08077z" fill="#000000" stroke="none" stroke-width="0.5" stroke-linecap="butt"/><path d="M302.37118,194.59128l17.38985,5.11363" fill="none" stroke="#000000" stroke-width="7.5" stroke-linecap="round"/></g></g></svg>