<svg version="1.1" xmlns="http://www.w3.org/2000/svg" xmlns:xlink="http://www.w3.org/1999/xlink" width="198.75035" height="312.15763" viewBox="0,0,198.75035,312.15763"><g transform="translate(-140.32029,-63.45243)"><g data-paper-data="{&quot;isPaintingLayer&quot;:true}" fill-rule="nonzero" stroke-linejoin="miter" stroke-miterlimit="10" stroke-dasharray="" stroke-dashoffset="0" style="mix-blend-mode: normal"><g data-paper-data="{&quot;index&quot;:null}" stroke="#000000" stroke-linecap="butt"><path d="M181.34167,283.50653v-48.0604h50.99742v48.0604z" fill="#ffcaa0" stroke-width="2"/><g><path d="M180.84404,235.62641v-66.27003h51.66212v66.27003z" fill="#0000c0" stroke-width="2"/><path d="M231.76258,235.8389c0,0 -16.95511,0 -25.36521,0c-8.3211,0 -24.83121,0 -24.83121,0v-34.71029c0,0 18.03434,14.41812 26.16622,14.41812c8.57658,0 24.0302,-14.41812 24.0302,-14.41812v34.71028z" fill="#56006b" stroke-width="0"/></g><path d="M180.55098,282.9622l37.91432,-15.48613l13.0831,-32.57427v48.0604z" fill="#ff6e5b" stroke-width="0"/></g><g data-paper-data="{&quot;index&quot;:null}" stroke="#000000" stroke-linecap="butt"><path d="M164.15386,82.47486c14.60837,-1.2263 28.63471,23.79561 31.32871,55.888c2.694,32.09239 -6.96449,59.10253 -21.57286,60.32884c-14.60837,1.2263 -28.63471,-23.79561 -31.32871,-55.888c-2.694,-32.09239 6.96449,-59.10253 21.57286,-60.32884z" fill="#01930e" stroke-width="2"/><path d="M195.0458,137.96383c2.694,32.09239 -6.9645,59.10254 -21.57286,60.32884c-14.60836,1.2263 14.71512,-37.08274 12.02111,-69.17513c-2.694,-32.09239 6.85775,-23.2461 9.55175,8.84629z" fill="#31525b" stroke-width="0"/></g><g data-paper-data="{&quot;index&quot;:null}" stroke="#000000" stroke-linecap="butt"><path d="M195.62299,374.1657v-90.27109h61.17899v90.27109z" fill="#273750" stroke-width="2"/><path d="M194.83566,373.40912l42.75189,-40.95544l18.42709,-49.31565v90.27109z" fill="#1f1e2e" stroke-width="0"/></g><path d="M194.98523,283.48332v-113.80147h113.80147v113.80147z" data-paper-data="{&quot;index&quot;:null}" fill="#0000c0" stroke="#000000" stroke-width="2" stroke-linecap="butt"/><g data-paper-data="{&quot;index&quot;:null}" stroke="#000000" stroke-linecap="butt"><path d="M248.22894,374.61006v-90.27109h61.17899v90.27109z" fill="#273750" stroke-width="2"/><path d="M247.44157,373.85347l42.75189,-40.95544l18.42709,-49.31565v90.27109z" fill="#1f1e2e" stroke-width="0"/></g><g data-paper-data="{&quot;index&quot;:null}" stroke="#000000" stroke-linecap="butt"><path d="M220.71463,283.0141v-111.68333h61.17899v111.68333z" fill="#ffffff" stroke-width="2"/><path d="M219.92726,282.07807l42.75189,-50.67005l18.42709,-61.01328v111.68333z" fill="#8ebbfc" stroke-width="0"/></g><g data-paper-data="{&quot;index&quot;:null}" stroke="#000000" stroke-linecap="butt"><path d="M319.25616,126.39787c0.92876,11.06392 1.64403,36.60692 -3.52019,46.23405c-11.65405,21.72547 -40.14866,23.13275 -70.61685,25.69041c-28.81646,2.419 -61.006,8.28252 -76.55805,-9.33438c-8.17798,-9.26376 -7.49,-36.80624 -8.53239,-49.2237c-0.29163,-3.47403 -3.2556,-26.11836 -2.89668,-29.49906c3.36368,-31.68306 37.30363,-39.09025 77.03373,-42.42541c42.29565,-3.55052 76.26366,-3.90726 81.70103,30.00608c0.21518,1.34208 3.27426,27.18037 3.3894,28.552z" fill="#ffcaa0" stroke-width="2"/><path d="M321.08394,126.25465c0.92876,11.06392 1.64403,36.60692 -3.52019,46.23405c-11.65405,21.72547 -40.14866,23.13275 -70.61685,25.69041c-28.81645,2.419 -61.66553,8.22872 -77.21758,-9.38819c-3.28794,-3.72448 64.52573,15.92974 100.40616,-4.32458c45.78521,-25.84552 44.46982,-106.03162 47.55908,-86.76368c0.21518,1.34208 3.27426,27.18037 3.3894,28.552z" fill="#ff6e5b" stroke-width="0"/></g><g data-paper-data="{&quot;index&quot;:null}" stroke="#000000" stroke-linecap="butt"><path d="M253.37354,81.08672c14.60837,-1.2263 28.63471,23.79561 31.32871,55.888c2.694,32.09239 -6.96449,59.10253 -21.57286,60.32884c-14.60837,1.2263 -28.63471,-23.79561 -31.32871,-55.888c-2.694,-32.09239 6.96449,-59.10253 21.57286,-60.32884z" fill="#01930e" stroke-width="2"/><path d="M284.26548,136.57569c2.694,32.09239 -6.9645,59.10254 -21.57286,60.32884c-14.60836,1.2263 14.71512,-37.08274 12.02111,-69.17513c-2.694,-32.09239 6.85775,-23.2461 9.55175,8.84629z" fill="#31525b" stroke-width="0"/></g><g data-paper-data="{&quot;index&quot;:null}" stroke-linecap="butt"><path d="M140.56394,103.97731c-1.47736,-17.59906 38.54037,-35.32574 89.38208,-39.59366c50.84172,-4.26792 93.2547,6.53909 94.73206,24.13815c1.47736,17.59905 -38.54036,35.32574 -89.38207,39.59366c-50.84172,4.26792 -93.25471,-6.5391 -94.73207,-24.13816z" fill="#000000" stroke="none" stroke-width="NaN"/><path d="M232.69009,105.46937c50.84172,-4.26792 91.26699,-34.26463 92.74435,-16.66557c1.47736,17.59905 -38.54036,35.32574 -89.38207,39.59366c-50.84172,4.26792 -93.25471,-6.5391 -94.73207,-24.13816c-1.47736,-17.59906 40.52808,5.47798 91.36979,1.21006z" fill="#ff0000" stroke="#000000" stroke-width="2"/><path d="M234.40201,121.41604c50.84172,-4.26792 84.20946,-28.24542 86.95834,-24.23736c2.66152,3.8807 -12.21727,13.74242 -37.16426,21.33974c-13.43758,4.09226 -30.08455,7.12731 -47.83415,9.12037c-50.72189,5.69543 -88.49883,-9.82219 -88.90539,-14.66529c-0.40656,-4.84311 36.10373,12.71046 86.94545,8.44254z" fill="#900056" stroke="#000000" stroke-width="0"/></g><path d="M191.76779,179.86602c-0.64141,-7.64081 1.73351,-14.07791 5.30455,-14.37768c3.57103,-0.29977 6.98589,5.65131 7.6273,13.29212c0.64141,7.64081 -1.73351,14.07791 -5.30455,14.37768c-3.57104,0.29977 -6.98589,-5.65131 -7.6273,-13.29212z" data-paper-data="{&quot;index&quot;:null}" fill="#000000" stroke="none" stroke-width="0" stroke-linecap="butt"/><path d="M174.59465,166.73736c3.38308,-0.28399 6.50724,4.03191 6.978,9.63985c0.47076,5.60794 -1.89014,10.38429 -5.27323,10.66828c-3.38308,0.28399 -6.50724,-4.03191 -6.978,-9.63985c-0.47076,-5.60794 1.89014,-10.38429 5.27323,-10.66828z" data-paper-data="{&quot;index&quot;:null}" fill="#000000" stroke="none" stroke-width="0" stroke-linecap="butt"/><path d="M225.64579,193.8887c-0.19751,-1.77866 -0.3559,-3.56032 -0.60934,-5.33164c-0.26753,-1.22021 -0.46939,-2.07079 -0.67592,-3.3181c-0.47054,-2.84178 -3.2749,-5.0316 -4.47185,-1.07135c-1.07983,3.57267 -1.08403,8.02326 -0.28731,11.62535c0,0 0.26716,1.22112 -0.95396,1.48829c-1.22112,0.26716 -1.48829,-0.95396 -1.48829,-0.95396c-0.89611,-4.13623 -1.24225,-10.70159 1.08571,-14.47859c2.26442,-3.67391 7.15435,-2.79921 8.32705,1.27821c0.45306,1.57527 0.57239,3.37175 0.92468,4.98535c0.2703,1.88327 0.43976,3.7759 0.65252,5.66672l-0.03455,0.48594c0,0 -0.22305,1.22994 -1.45298,1.00689c-1.05275,-0.19092 -1.04099,-1.11951 -1.01576,-1.3831z" data-paper-data="{&quot;index&quot;:null}" fill="#000000" stroke="none" stroke-width="0.5" stroke-linecap="butt"/><g data-paper-data="{&quot;index&quot;:null}" stroke="#000000" stroke-linecap="butt"><path d="M274.442,103.53887l26.45229,40.12578l-42.57792,28.06882l-26.45229,-40.12578z" fill="#ffcaa0" stroke-width="2"/><g><path d="M301.21053,143.24025l36.47481,55.32907l-43.13287,28.43467l-36.47481,-55.32907z" fill="#0000c0" stroke-width="2"/><path d="M258.58152,171.08825c0,0 14.15588,-9.33204 21.17749,-13.96093c6.94731,-4.57991 20.73166,-13.66702 20.73166,-13.66702l19.10444,28.97974c0,0 -22.99262,-2.11169 -29.78194,2.36406c-7.16061,4.72052 -12.1272,25.26388 -12.1272,25.26388l-19.10443,-28.97973z" fill="#56006b" stroke-width="0"/></g><path d="M275.40173,103.55814l-23.13127,33.79734l7.00565,34.39726l-26.45229,-40.12578z" fill="#ff6e5b" stroke-width="0"/></g><path d="M163.85815,164.20652l18.60584,5.62321" fill="none" stroke="#000000" stroke-width="5" stroke-linecap="round"/><path d="M208.16863,162.1976l-20.45149,9.07297" fill="none" stroke="#000000" stroke-width="5" stroke-linecap="round"/></g></g></svg>