<svg version="1.1" xmlns="http://www.w3.org/2000/svg" xmlns:xlink="http://www.w3.org/1999/xlink" width="204.11771" height="327.20257" viewBox="0,0,204.11771,327.20257"><g transform="translate(-196.2947,-18.37746)"><g data-paper-data="{&quot;isPaintingLayer&quot;:true}" fill-rule="nonzero" stroke-linejoin="miter" stroke-miterlimit="10" stroke-dasharray="" stroke-dashoffset="0" style="mix-blend-mode: normal"><g data-paper-data="{&quot;index&quot;:null}" stroke="#000000" stroke-linecap="butt"><path d="M312.19191,233.39752l14.11846,-45.93986l48.7473,14.98126l-14.11846,45.93986z" fill="#ffcaa0" stroke-width="2"/><g><path d="M326.09772,187.5809l19.46782,-63.34604l49.38266,15.17653l-19.46781,63.34604z" fill="#ff0008" stroke-width="2"/><path d="M326.74607,188.00244l10.19666,-33.17878c0,0 10.53624,18.32169 18.7344,20.84119c7.77308,2.38886 29.24725,-6.09524 29.24725,-6.09524l-10.19667,33.17879c0,0 -15.78165,-4.85009 -23.7356,-7.29454c-8.03902,-2.4706 -24.24604,-7.45141 -24.24604,-7.45141z" fill="#8d005e" stroke-width="0"/></g><path d="M313.10762,233.10948l14.11847,-45.93986l2.93666,34.98038l31.69217,25.94074z" fill="#ff6e5b" stroke-width="0"/></g><g data-paper-data="{&quot;index&quot;:null}" stroke="#000000" stroke-linecap="butt"><path d="M234.50963,40.31075c14.56178,-1.69203 29.37977,22.86935 33.09691,54.85939c3.71714,31.99003 -5.07417,59.29474 -19.63595,60.98678c-14.56178,1.69204 -29.37976,-22.86935 -33.0969,-54.85939c-3.71714,-31.99003 5.07416,-59.29474 19.63594,-60.98677z" fill="#01930e" stroke-width="2"/><path d="M267.15725,94.78525c3.71714,31.99003 -5.07417,59.29475 -19.63594,60.98678c-14.56177,1.69203 13.52379,-37.5336 9.80666,-69.52363c-3.71714,-31.99003 6.11214,-23.45318 9.82928,8.53686z" fill="#31525b" stroke-width="0"/></g><g data-paper-data="{&quot;index&quot;:null}" stroke="#000000" stroke-linecap="butt"><path d="M316.44532,344.13566v-90.27109h61.17899v90.27109z" fill="#273750" stroke-width="2"/><path d="M317.23266,343.37909v-90.27109l18.42709,49.31565l42.75189,40.95544z" fill="#1f1e2e" stroke-width="0"/></g><path d="M264.4606,253.45329v-113.80147h113.80147v113.80147z" data-paper-data="{&quot;index&quot;:null}" fill="#ff0008" stroke="#000000" stroke-width="2" stroke-linecap="butt"/><g data-paper-data="{&quot;index&quot;:null}" fill="#000000" stroke="#000000" stroke-linecap="butt"><path d="M291.35368,252.98407v-111.68333h61.17899v111.68333z" stroke-width="2"/><path d="M292.14106,252.04804v-111.68333l18.42709,61.01328l42.75189,50.67005z" stroke-width="0"/></g><g data-paper-data="{&quot;index&quot;:null}" stroke="#000000" stroke-linecap="butt"><path d="M263.83937,344.58003v-90.27109h61.17899v90.27109z" fill="#273750" stroke-width="2"/><path d="M264.62675,343.82343v-90.27109l18.42709,49.31565l42.75189,40.95544z" fill="#1f1e2e" stroke-width="0"/></g><g data-paper-data="{&quot;index&quot;:null}" stroke="#000000" stroke-linecap="butt"><path d="M197.65989,229.0366l23.93605,-41.67575l44.22259,25.39881l-23.93605,41.67574z" fill="#ffcaa0" stroke-width="2"/><g><path d="M221.36127,187.43397l33.0052,-57.46629l44.79899,25.72985l-33.00519,57.46629z" fill="#ff0008" stroke-width="2"/><path d="M221.90025,187.98856l17.28714,-30.09914c0,0 6.21985,20.19925 13.65706,24.47074c7.05159,4.05001 29.87095,0.52913 29.87095,0.52913l-17.28715,30.09915c0,0 -14.3168,-8.22271 -21.53247,-12.36696c-7.29284,-4.18857 -21.99553,-12.63291 -21.99553,-12.63291z" fill="#8d005e" stroke-width="0"/></g><path d="M198.61663,228.95838l23.93605,-41.67574l-4.87826,34.76281l25.16481,32.31174z" fill="#ff6e5b" stroke-width="0"/></g><g data-paper-data="{&quot;index&quot;:null}" stroke="#000000" stroke-linecap="butt"><path d="M390.93507,79.25992c1.28149,11.02863 2.81182,36.53578 -2.04243,46.32287c-10.95455,22.08643 -39.38971,24.40266 -69.76072,27.93168c-28.72454,3.3377 -60.71049,10.22584 -76.81701,-6.8856c-8.46954,-8.99797 -8.66118,-36.54836 -10.09945,-48.92622c-0.40239,-3.46295 -4.08774,-26.00111 -3.83693,-29.39155c2.35052,-31.77429 36.0367,-40.2612 75.64008,-44.86299c42.16075,-4.89895 76.10006,-6.33989 82.6173,27.38259c0.25792,1.33453 4.1403,27.06199 4.29917,28.42925z" fill="#ffcaa0" stroke-width="2"/><path d="M392.75734,79.05843c1.28149,11.02863 2.81182,36.53578 -2.04243,46.32287c-10.95455,22.08643 -39.38971,24.40266 -69.76073,27.93167c-28.72454,3.3377 -61.37141,10.19312 -77.47793,-6.91832c-3.40517,-3.61762 65.00139,13.86172 100.21693,-7.52773c44.93678,-27.29398 41.06222,-107.39722 44.76501,-88.23772c0.25792,1.33453 4.14029,27.06199 4.29916,28.42925z" fill="#ff6e5b" stroke-width="0"/></g><g data-paper-data="{&quot;index&quot;:null}" stroke="#000000" stroke-linecap="butt"><path d="M365.46349,23.00645c14.56178,-1.69204 29.37977,22.86935 33.09691,54.85939c3.71714,31.99004 -5.07416,59.29474 -19.63594,60.98677c-14.56178,1.69204 -29.37977,-22.86935 -33.09691,-54.85938c-3.71714,-31.99003 5.07416,-59.29474 19.63594,-60.98677z" fill="#01930e" stroke-width="2"/><path d="M398.11111,77.48096c3.71714,31.99003 -5.07418,59.29475 -19.63594,60.98678c-14.56176,1.69203 13.52379,-37.5336 9.80665,-69.52363c-3.71714,-31.99003 6.11215,-23.45318 9.82929,8.53686z" fill="#31525b" stroke-width="0"/></g><g data-paper-data="{&quot;index&quot;:null}" stroke-linecap="butt"><path d="M211.61818,62.55532c-2.03843,-17.54293 37.39299,-36.53809 88.07255,-42.4269c50.67955,-5.8888 93.41592,3.55871 95.45435,21.10164c2.03843,17.54292 -37.39298,36.53809 -88.07254,42.42689c-50.67955,5.88881 -93.41593,-3.55872 -95.45436,-21.10164z" fill="#000000" stroke="none" stroke-width="NaN"/><path d="M303.745,61.1056c50.67955,-5.8888 90.12662,-37.16075 92.16505,-19.61783c2.03843,17.54292 -37.39298,36.53809 -88.07254,42.4269c-50.67955,5.88881 -93.41593,-3.55872 -95.45436,-21.10164c-2.03843,-17.54293 40.6823,4.18138 91.36185,-1.70743z" fill="#ff0000" stroke="#000000" stroke-width="2"/><path d="M305.96513,76.98948c50.67955,-5.88881 83.26484,-30.91931 86.14027,-27.00105c2.78406,3.79376 -11.77234,14.12544 -36.46407,22.51529c-13.30009,4.51915 -29.84168,8.0841 -47.5186,10.64277c-50.51421,7.31176 -88.76729,-6.99197 -89.32825,-11.81963c-0.56096,-4.82766 36.4911,11.55142 87.17065,5.66262z" fill="#900056" stroke="#000000" stroke-width="0"/></g><path d="M300.00624,113.48223c-1.81412,-15.61248 -0.3991,-28.6042 3.16055,-29.01781c3.55964,-0.41362 7.91594,11.90748 9.73006,27.51995c1.81412,15.61247 0.39911,28.60419 -3.16054,29.01781c-3.55965,0.41362 -7.91595,-11.90749 -9.73007,-27.51997z" data-paper-data="{&quot;index&quot;:null}" fill="#000000" stroke="none" stroke-width="0" stroke-linecap="butt"/><path d="M270.99403,89.06652c3.37229,-0.39185 7.57083,11.89628 9.3777,27.44631c1.80687,15.55003 0.53784,28.47347 -2.83446,28.86532c-3.37229,0.39185 -7.57083,-11.89628 -9.3777,-27.4463c-1.80687,-15.55003 -0.53784,-28.47347 2.83446,-28.86532z" data-paper-data="{&quot;index&quot;:null}" fill="#000000" stroke="none" stroke-width="0" stroke-linecap="butt"/><path d="M282.54956,89.8782l29.7995,-3.46261" data-paper-data="{&quot;index&quot;:null}" fill="none" stroke="#000000" stroke-width="5" stroke-linecap="round"/><path d="M274.41419,90.05204l-23.69953,-1.80044" data-paper-data="{&quot;index&quot;:null}" fill="none" stroke="#000000" stroke-width="5" stroke-linecap="round"/><path d="M322.21914,128.27175c0,-6.37953 5.32164,-3.90039 11.70117,-3.90039c6.37953,0 11.40114,-2.47914 11.40114,3.90039c0,6.37953 -5.17163,11.55116 -11.55116,11.55116c-6.37953,0 -11.55116,-5.17163 -11.55116,-11.55116z" fill="#000000" stroke="none" stroke-width="0" stroke-linecap="butt"/></g></g></svg>