<svg version="1.1" xmlns="http://www.w3.org/2000/svg" xmlns:xlink="http://www.w3.org/1999/xlink" width="260.61231" height="331.41535" viewBox="0,0,260.61231,331.41535"><g transform="translate(-193.98693,-60.39793)"><g data-paper-data="{&quot;isPaintingLayer&quot;:true}" fill-rule="nonzero" stroke-linejoin="miter" stroke-miterlimit="10" stroke-dasharray="" stroke-dashoffset="0" style="mix-blend-mode: normal"><g data-paper-data="{&quot;index&quot;:null}" stroke="#2a2b40" stroke-linecap="butt"><path d="M248.50337,298.68459l7.28991,-116.62177l46.93666,2.93397l-7.28991,116.62177z" fill="#000000" stroke-width="2"/><path d="M249.03387,289.52029l1.6296,-26.06984l47.38369,2.96191l-1.6296,26.06984z" fill="#ffffff" stroke-width="2.5"/></g><path d="M272.25225,390.81329v-94.89051h40.95702v94.89051z" data-paper-data="{&quot;index&quot;:null}" fill="#000000" stroke="#2a2b40" stroke-width="2" stroke-linecap="butt"/><path d="M313.51551,388.54622v-94.89051h40.95702v94.89051z" data-paper-data="{&quot;index&quot;:null}" fill="#000000" stroke="#2a2b40" stroke-width="2" stroke-linecap="butt"/><g data-paper-data="{&quot;index&quot;:null}" stroke-linecap="butt"><path d="M271.8588,298.09078v-107.85169h82.34382v107.85169z" fill="#000000" stroke="#2a2b40" stroke-width="2"/><path d="M314.16201,189.65097c10.59474,0 17.95376,7.37274 17.95376,29.51303c0,22.14029 -8.58873,40.08854 -19.18347,40.08854c-10.59474,0 -19.18347,-17.94825 -19.18347,-40.08854c0,-22.14028 9.81844,-29.51303 20.41318,-29.51303z" fill="#ffffff" stroke="#2a2b40" stroke-width="2.5"/><path d="M313.93137,190.96097c3.46366,0 6.27152,11.12131 6.27152,24.84014c0,13.71883 -2.80786,24.84014 -6.27152,24.84014c-3.46366,0 -6.27152,-11.12131 -6.27152,-24.84014c0,-13.71883 2.80786,-24.84014 6.27152,-24.84014z" fill="#000000" stroke="none" stroke-width="0"/></g><g data-paper-data="{&quot;index&quot;:null}"><g><path d="M308.3823,265.19338c-8.57335,9.40721 -20.12422,14.08247 -30.23205,9.3578c-1.8737,-0.87584 -3.93397,-1.81554 -5.66039,-3.38894c-11.03987,-10.06134 -10.86288,-24.72873 -0.70024,-35.87978c10.16259,-11.15103 28.26595,-11.69147 36.52416,-3.42847c10.55892,10.56498 10.2311,22.18834 0.06853,33.33936z" fill="#485e84" stroke="#000000" stroke-width="2" stroke-linecap="butt"/><path d="M284.16581,229.24786c0,0 2.82761,-0.97927 6.36776,-1.26383c3.80381,-0.30574 8.44729,0.13014 11.80126,1.63384c2.62802,1.17828 6.08068,4.12547 8.16384,7.85401c1.34168,2.40143 2.69227,4.60566 3.34385,6.62638c0.66512,2.06265 0.1267,15.50382 0.1267,15.50382l-16.35318,13.09321c0,0 -8.09149,2.00907 -11.60153,1.94869c-3.07284,-0.05289 -6.67285,-1.29538 -9.20288,-2.74691c-2.37766,-1.3641 -3.7818,-2.94412 -3.7818,-2.94412c0,0 1.10039,0.22361 1.8149,-0.55715c3.14492,-3.43646 11.81013,-14.48781 13.66641,-33.61444c0.19352,-1.99397 -4.34543,-5.53359 -4.34543,-5.53359z" fill="#343545" stroke="none" stroke-width="0" stroke-linecap="butt"/><path d="M271.14087,236.53316c0,0 12.96469,0.13828 19.21245,2.02505c4.93546,1.49045 10.20007,8.81725 10.20007,8.81725" fill="none" stroke="#000000" stroke-width="1" stroke-linecap="round"/><path d="M292.63695,270.61332c0,0 -9.67624,0.72318 -13.83933,-0.49948c-4.12373,-1.21105 -10.30534,-4.80514 -10.30534,-4.80514" fill="none" stroke="#000000" stroke-width="1" stroke-linecap="round"/><path d="M279.31745,229.98659c0,0 11.58117,0.61002 19.89699,2.71369c5.41936,1.37096 10.71106,8.97255 10.71106,8.97255" fill="none" stroke="#000000" stroke-width="1" stroke-linecap="round"/><path d="M282.22726,276.10715c0,0 -12.96581,-11.37445 -4.82578,-28.63552c7.43129,-15.75816 24.46934,-18.78801 24.46934,-18.78801" fill="none" stroke="#000000" stroke-width="1" stroke-linecap="round"/><path d="M290.95759,275.95923c0,0 -10.02517,-10.60258 -4.61632,-22.00854c6.58741,-13.89119 23.36166,-19.8483 23.36166,-19.8483" fill="none" stroke="#000000" stroke-width="1" stroke-linecap="round"/><path d="M269.16094,250.45393c-0.22558,1.18162 -1.16684,1.99477 -2.10228,1.8161c-0.93543,-0.17862 -0.74162,-1.31696 -0.51599,-2.49861c0.22562,-1.18165 0.39759,-1.95909 1.33303,-1.78042c0.93541,0.1786 1.51087,1.28126 1.28524,2.46291z" fill="#8fbbbe" stroke="none" stroke-width="0" stroke-linecap="butt"/><path d="M268.78249,257.71442c-0.40514,0.44455 -0.88359,0.42265 -1.55043,-0.18508c-0.66686,-0.6077 -0.7567,-1.59489 -0.35156,-2.03947c0.40516,-0.44454 0.76133,-0.28847 1.42817,0.31926c0.66684,0.60773 0.87895,1.46075 0.47381,1.90533z" fill="#8fbbbe" stroke="none" stroke-width="0" stroke-linecap="butt"/><path d="M270.52174,243.67068c-0.53322,0.72779 -1.35889,1.02961 -1.84402,0.67413c-0.48518,-0.35551 -0.04375,-0.8668 0.48947,-1.59463c0.53324,-0.72778 0.95641,-1.39639 1.44154,-1.04091c0.48518,0.35548 0.44624,1.23359 -0.08698,1.96142z" fill="#8fbbbe" stroke="none" stroke-width="0" stroke-linecap="butt"/><path d="M272.40661,269.36726c0,0 -1.11527,-2.72455 -1.85486,-6.3754c-1.00455,-4.95874 -1.63599,-11.50298 -0.81355,-14.10261c0.92995,-2.93962 2.19985,-6.80273 4.9375,-10.1136c4.82876,-5.83977 13.80167,-10.75571 13.80167,-10.75571" fill="none" stroke="#000000" stroke-width="0.5" stroke-linecap="round"/><path d="M292.22076,261.63853c0,0 -10.95736,0.02185 -15.27113,-1.43794c-5.12007,-1.73262 -13.2023,-8.54846 -13.2023,-8.54846" fill="none" stroke="#000000" stroke-width="1" stroke-linecap="round"/><path d="M265.63561,245.26867c0,0 10.40648,-0.28661 17.60813,3.05752c4.10162,1.90461 11.55981,8.05307 11.55981,8.05307" fill="none" stroke="#000000" stroke-width="1" stroke-linecap="round"/></g><g stroke="#2a2b40" stroke-linecap="butt"><path d="M276.43484,283.85901l71.10204,-109.88945l39.48401,25.54743l-71.10204,109.88945z" fill="#000000" stroke-width="2"/><path d="M282.22728,275.36l15.89428,-24.56488l39.86006,25.79075l-15.89428,24.56488z" fill="#ffffff" stroke-width="2.5"/></g></g><g data-paper-data="{&quot;index&quot;:null}" stroke-linecap="butt"><g stroke="#0c0c0c"><g><path d="M395.66836,122.31428c32.38761,-4.87656 53.37008,-20.68181 55.0331,-9.63687c1.66303,11.04494 -7.64007,34.91548 -40.02768,39.79204c-32.38762,4.87656 -59.9911,-0.1239 -61.65412,-11.16884c-1.66302,-11.04494 14.26109,-14.10977 46.6487,-18.98633z" fill="#fac843" stroke-width="2"/><path d="M350.0424,140.56917c-1.66302,-11.04494 29.09721,11.85344 61.48482,6.97688c32.3876,-4.87656 36.48469,-44.13837 38.14771,-33.09343c1.66302,11.04494 -5.59081,32.40882 -37.97842,37.28538c-32.38762,4.87656 -59.9911,-0.1239 -61.65412,-11.16884z" fill="#e47816" stroke-width="0"/></g><g><path d="M398.56614,85.02261c32.38761,-4.87656 53.37008,-20.68181 55.0331,-9.63687c1.66303,11.04494 -7.64007,34.91548 -40.02768,39.79204c-32.38762,4.87656 -59.9911,-0.1239 -61.65412,-11.16884c-1.66302,-11.04494 14.26109,-14.10977 46.6487,-18.98633z" fill="#fac843" stroke-width="2"/><path d="M352.94017,103.27748c-1.66302,-11.04494 29.09721,11.85344 61.48482,6.97688c32.38761,-4.87656 36.4847,-44.13837 38.14772,-33.09343c1.66302,11.04494 -5.59082,32.40883 -37.97843,37.28539c-32.38762,4.87656 -59.9911,-0.1239 -61.65412,-11.16884z" fill="#e47816" stroke-width="0"/></g><g><path d="M397.11923,158.81531c32.38761,-4.87656 53.37008,-20.68181 55.0331,-9.63687c1.66303,11.04494 -7.64007,34.91548 -40.02768,39.79204c-32.38762,4.87656 -59.9911,-0.1239 -61.65412,-11.16884c-1.66302,-11.04494 14.26109,-14.10977 46.6487,-18.98633z" fill="#fac843" stroke-width="2"/><path d="M351.49327,177.07019c-1.66302,-11.04494 29.09721,11.85344 61.48482,6.97688c32.3876,-4.87656 36.48469,-44.13837 38.14771,-33.09343c1.66302,11.04494 -5.59081,32.40883 -37.97842,37.28539c-32.38762,4.87656 -59.9911,-0.1239 -61.65412,-11.16884z" fill="#e47816" stroke-width="0"/></g></g><g stroke="#0c0c0c"><g data-paper-data="{&quot;index&quot;:null}"><path d="M299.75069,131.15245c-1.66303,11.04494 -29.26651,16.0454 -61.65412,11.16884c-32.38761,-4.87657 -41.6907,-28.7471 -40.02768,-39.79204c1.66302,-11.04494 22.64549,4.76031 55.0331,9.63687c32.38761,4.87656 48.31172,7.94139 46.6487,18.98633z" fill="#fac843" stroke-width="2"/><path d="M237.24316,137.39788c32.38761,4.87657 63.14784,-18.02182 61.48482,-6.97688c-1.66303,11.04494 -29.26651,16.0454 -61.65412,11.16884c-32.38763,-4.87655 -39.64145,-26.24044 -37.97843,-37.28538c1.66302,-11.04494 5.76011,28.21686 38.14772,33.09342z" fill="#e47816" stroke-width="0"/></g><g data-paper-data="{&quot;index&quot;:null}"><path d="M296.8529,93.86074c-1.66303,11.04494 -29.26651,16.0454 -61.65412,11.16884c-32.38761,-4.87657 -41.6907,-28.7471 -40.02768,-39.79204c1.66302,-11.04494 22.64549,4.76031 55.0331,9.63687c32.38761,4.87656 48.31172,7.94139 46.6487,18.98633z" fill="#fac843" stroke-width="2"/><path d="M234.34537,100.10619c32.38761,4.87657 63.14784,-18.02182 61.48482,-6.97688c-1.66303,11.04494 -29.26651,16.0454 -61.65412,11.16884c-32.38762,-4.87656 -39.64144,-26.24045 -37.97842,-37.28539c1.66302,-11.04494 5.7601,28.21687 38.14771,33.09343z" fill="#e47816" stroke-width="0"/></g><g data-paper-data="{&quot;index&quot;:null}"><path d="M298.29983,167.65346c-1.66303,11.04494 -29.26651,16.0454 -61.65412,11.16884c-32.38761,-4.87657 -41.6907,-28.7471 -40.02768,-39.79204c1.66302,-11.04494 22.64549,4.76031 55.0331,9.63687c32.38761,4.87656 48.31172,7.94139 46.6487,18.98633z" fill="#fac843" stroke-width="2"/><path d="M235.79229,173.89885c32.38761,4.87657 63.14784,-18.02182 61.48482,-6.97688c-1.66303,11.04494 -29.26651,16.0454 -61.65412,11.16884c-32.38762,-4.87656 -39.64144,-26.24045 -37.97842,-37.28539c1.66302,-11.04494 5.7601,28.21687 38.14771,33.09343z" fill="#e47816" stroke-width="0"/></g></g><path d="M311.38752,200.66151c-40.12802,0 -72.6582,-25.78191 -72.6582,-57.58549c0,-31.80359 32.53018,-57.58549 72.6582,-57.58549c40.12802,0 72.6582,25.78191 72.6582,57.58549c0,31.80359 -32.53018,57.58549 -72.6582,57.58549z" fill="#fdf7c7" stroke="#000000" stroke-width="2"/><path d="M383.49657,140.14999c0,31.8036 -33.11863,63.98834 -73.02118,59.74039c-44.84242,-5.06437 -35.66731,-9.66756 4.46071,-9.66756c35.67961,0 62.5829,-74.48914 65.9376,-59.95585c0.27111,1.17452 2.62288,6.35741 2.62288,9.88302z" fill="#f2bd9d" stroke="#000000" stroke-width="0"/></g><path d="M318.79618,160.93069c-7.78178,0 -14.09017,-6.30839 -14.09017,-14.09017c0,-7.78178 6.30839,-14.09017 14.09017,-14.09017c7.78178,0 14.09017,6.30839 14.09017,14.09017c0,7.78178 -6.30839,14.09017 -14.09017,14.09017z" data-paper-data="{&quot;index&quot;:null}" fill="#1a1507" stroke="#0c0c0c" stroke-width="2" stroke-linecap="butt"/><path d="M311.30199,150.61906c-2.74328,0 -4.96715,-2.22387 -4.96715,-4.96715c0,-2.74328 2.22387,-4.96715 4.96715,-4.96715c2.74328,0 4.96715,2.22387 4.96715,4.96715c0,2.74328 -2.22387,4.96715 -4.96715,4.96715z" data-paper-data="{&quot;index&quot;:null}" fill="#fdf7c7" stroke="#000000" stroke-width="0" stroke-linecap="butt"/><path d="M262.32039,159.51097c-7.78178,0 -14.09017,-6.30838 -14.09017,-14.09017c0,-7.78178 6.30839,-14.09017 14.09017,-14.09017c7.78179,0 14.09017,6.30839 14.09017,14.09017c0,7.78178 -6.30839,14.09017 -14.09017,14.09017z" data-paper-data="{&quot;index&quot;:null}" fill="#1a1507" stroke="#0c0c0c" stroke-width="2" stroke-linecap="butt"/><path d="M254.18766,149.19934c-2.74328,0 -4.96715,-2.22386 -4.96715,-4.96715c0,-2.74329 2.22387,-4.96716 4.96715,-4.96716c2.74328,0 4.96715,2.22388 4.96715,4.96716c0,2.74329 -2.22387,4.96715 -4.96715,4.96715z" data-paper-data="{&quot;index&quot;:null}" fill="#fdf7c7" stroke="#000000" stroke-width="0" stroke-linecap="butt"/><path d="M349.61184,152.51884c0,0 1.29904,15.08361 -5.51716,17.57967c-11.35464,4.15803 -56.34431,6.49774 -72.35253,8.38683c-0.59537,0.07026 -5.25358,-1.13683 -7.03182,-3.69099c-2.0866,-2.99709 -1.28221,-7.41951 -1.28221,-7.41951" data-paper-data="{&quot;index&quot;:null}" fill="none" stroke="#1a1507" stroke-width="2" stroke-linecap="round"/></g></g></svg>