<svg version="1.1" xmlns="http://www.w3.org/2000/svg" xmlns:xlink="http://www.w3.org/1999/xlink" width="87.39628" height="127.5477" viewBox="0,0,87.39628,127.5477"><g transform="translate(-279.13874,-101.45703)"><g data-paper-data="{&quot;isPaintingLayer&quot;:true}" fill-rule="nonzero" stroke-linejoin="miter" stroke-miterlimit="10" stroke-dasharray="" stroke-dashoffset="0" style="mix-blend-mode: normal"><text transform="translate(356.10636,203.02357) rotate(-180) scale(1.13469,-1.13469)" font-size="40" xml:space="preserve" data-paper-data="{&quot;index&quot;:null}" fill="#ffffff" fill-rule="nonzero" stroke="none" stroke-width="1" stroke-linecap="butt" stroke-linejoin="miter" stroke-miterlimit="10" stroke-dasharray="" stroke-dashoffset="0" font-family="Sans Serif" font-weight="normal" text-anchor="start" style="mix-blend-mode: normal"><tspan x="0" dy="0">???</tspan></text><path d="M295.38696,222.49204c0,0 -3.29015,-6.92207 -3.51371,-8.7269c-0.67067,-5.41442 -2.05058,-29.14431 -3.22639,-50.59546c-0.18188,-3.31795 2.2391,-8.65014 2.2391,-8.65014c0,0 3.53463,-2.92506 5.64454,-3.05229c23.27848,-1.4036 45.32817,-4.56807 54.10441,-2.45268c2.92542,0.70512 8.3506,3.32266 8.3506,3.32266c0,0 1.59191,7.28728 1.92005,9.16713c0.10939,0.6266 0.17267,0.97921 0.24454,1.61124c2.15347,18.93739 2.61226,40.96304 2.41141,48.67506c-0.06698,2.57067 -2.88609,6.73504 -2.88609,6.73504c0,0 -2.07052,4.68913 -9.35607,6.44581c-7.97163,1.92211 -27.60256,2.37313 -47.84763,2.77582z" data-paper-data="{&quot;index&quot;:null}" fill="#582700" stroke="#000000" stroke-width="2.5" stroke-linecap="round"/><path d="M311.56256,202.43412c-0.64028,0.03507 -1.42013,-4.69444 -1.74184,-10.56376c-0.32174,-5.86928 -0.06346,-10.65576 0.57682,-10.69086c0.64026,-0.03509 1.42016,4.69447 1.74187,10.56379c0.32171,5.86928 0.06343,10.65573 -0.57685,10.69083z" data-paper-data="{&quot;index&quot;:null}" fill="none" stroke="#000000" stroke-width="2.5" stroke-linecap="butt"/><path d="M366.20203,153.47189c-1.05918,1.80647 -2.86565,0.74728 -2.86565,0.74728l-1.24309,-0.80851c-0.15241,-0.04285 -0.30472,-0.08489 -0.45692,-0.1261c-0.34093,0.54136 -1.02719,1.18835 -2.27951,0.84975c-1.15426,-0.31208 -1.47126,-1.10498 -1.53082,-1.72792c-4.45795,-0.85636 -8.88833,-1.1408 -13.53173,-1.29633c-12.97788,0.00894 -25.92834,1.02475 -38.88337,1.77304c-4.24866,0.2454 -13.65958,2.50396 -17.3709,-0.11236c-1.80998,-1.27598 -1.31951,-4.54361 -1.58922,-6.29522c-0.78155,-5.07579 -1.70427,-10.32446 -2.01984,-15.45395c-0.36766,-6.7073 -3.22094,-12.55141 -4.44472,-19.08023c-0.61353,-3.27311 -1.92115,-6.52375 0.86572,-9.54336c0.78688,-0.85261 2.27629,-0.46744 3.42957,-0.59404c4.21493,-0.46273 8.32269,-0.40865 12.53258,-0.15127c13.34109,0.8156 26.49265,0.93285 39.78997,2.56534c5.36446,0.66496 10.72248,0.47257 16.12561,0.34507c3.17556,-0.07491 6.01511,-1.14547 8.1182,2.36812c1.25596,2.09826 0.80345,8.84328 0.85529,11.32716c0.19993,9.57789 2.37822,21.22577 0.92144,30.95557c0.19966,0.05337 0.39944,0.10807 0.59943,0.164l2.2307,1.22825c0,0 1.80647,1.05918 0.74728,2.86565z" data-paper-data="{&quot;index&quot;:null}" fill="#000000" stroke="none" stroke-width="0.5" stroke-linecap="butt"/><path d="M304.71999,182.19668c-0.54991,-1.99716 0.82916,-2.79358 0.82916,-2.79358l1.09712,-0.59396c1.79446,-1.58742 3.70265,-2.63492 5.68905,-3.13624c0.1471,-0.09251 0.29492,-0.18425 0.44345,-0.27526c0.03945,-0.02668 0.07922,-0.0536 0.11936,-0.08082l0.05801,-0.04333l-0.06519,-0.25937l1.46143,-0.77054c0.14174,-0.08013 0.29457,-0.12983 0.45472,-0.14325c0.81861,-0.06848 1.52054,0.83707 1.56783,2.02252c0.03504,0.87785 -0.29873,1.66305 -0.80669,2.03928c-0.26426,0.38723 -0.56407,0.56035 -0.56407,0.56035c-0.31848,0.18369 -0.63286,0.36877 -0.94393,0.55655c-1.30071,0.92837 -2.35546,2.23229 -3.47945,2.36471c-0.24191,0.18713 -0.48368,0.37971 -0.72565,0.57851l-1.2132,1.53705c-0.24128,0.31158 -0.55414,0.51176 -0.90192,0.54088c-0.50695,0.04237 -0.96914,-0.28875 -1.25885,-0.82861c-0.38443,0.13872 -1.32893,0.29481 -1.76118,-1.27495z" data-paper-data="{&quot;index&quot;:null}" fill="#582700" stroke="none" stroke-width="0.5" stroke-linecap="butt"/><path d="M321.29683,204.51847l0.89072,2.20573c0.81447,7.22381 -6.29975,7.56348 -11.74856,5.9346c0,0 -1.20346,-0.36103 -0.84242,-1.56449c0.36103,-1.20346 1.56449,-0.84242 1.56449,-0.84242c2.984,0.89856 9.53273,1.91457 8.60119,-2.86991l-0.79174,-1.91329c0,0 -0.47509,-1.16317 0.68805,-1.63827c1.16317,-0.47509 1.63827,0.68805 1.63827,0.68805z" data-paper-data="{&quot;index&quot;:null}" fill="#000000" stroke="none" stroke-width="0.5" stroke-linecap="butt"/><path d="M299.82309,203.27925c-0.64028,0.03507 -1.42013,-4.69444 -1.74184,-10.56376c-0.32174,-5.86928 -0.06346,-10.65576 0.57682,-10.69086c0.64026,-0.03509 1.42016,4.69447 1.74187,10.56379c0.32171,5.86928 0.06343,10.65573 -0.57685,10.69083z" data-paper-data="{&quot;index&quot;:null}" fill="none" stroke="#000000" stroke-width="2.5" stroke-linecap="butt"/><path d="M303.44741,182.75052c-0.43225,1.63049 -1.37675,1.46836 -1.76118,1.32428c-0.28971,0.56074 -0.7519,0.90468 -1.25885,0.86066c-0.34778,-0.03025 -0.66063,-0.23816 -0.90192,-0.56181l-1.2132,-1.59651c-0.24197,-0.20648 -0.48374,-0.40651 -0.72565,-0.60089c-1.12399,-0.13756 -2.17874,-1.49191 -3.47945,-2.45619c-0.31106,-0.19505 -0.62544,-0.38729 -0.94393,-0.57808c0,0 -0.29981,-0.17981 -0.56407,-0.58202c-0.50796,-0.39079 -0.84173,-1.20636 -0.80669,-2.11817c0.04728,-1.23132 0.74922,-2.1719 1.56783,-2.10076c0.16016,0.01393 0.31298,0.06557 0.45472,0.1488l1.46143,0.80034l-0.06519,0.2694l0.05801,0.04501c0.04013,0.02828 0.07991,0.05626 0.11936,0.08395c0.14853,0.09452 0.29635,0.18982 0.44345,0.28591c1.9864,0.52071 3.89459,1.60875 5.68905,3.25756l1.09712,0.61694c0,0 1.37907,0.82724 0.82916,2.90165z" data-paper-data="{&quot;index&quot;:null}" fill="#582700" stroke="none" stroke-width="0.5" stroke-linecap="butt"/></g></g></svg>