<svg version="1.1" xmlns="http://www.w3.org/2000/svg" xmlns:xlink="http://www.w3.org/1999/xlink" width="206.72009" height="315.62931" viewBox="0,0,206.72009,315.62931"><g transform="translate(-224.74903,-45.3581)"><g data-paper-data="{&quot;isPaintingLayer&quot;:true}" fill-rule="nonzero" stroke-linejoin="miter" stroke-miterlimit="10" stroke-dasharray="" stroke-dashoffset="0" style="mix-blend-mode: normal"><g data-paper-data="{&quot;index&quot;:null}" stroke="#000000" stroke-linecap="butt"><path d="M349.94995,245.19783c1.7149,-2.27565 -12.98461,-7.64627 -20.46143,-13.8123c-6.06277,-4.99988 -7.84213,-11.27934 -0.76339,-10.81055c6.46195,4.86966 78.46897,-0.65092 58.40598,25.97229c-20.063,26.62321 -41.56572,44.25795 -48.02767,39.38828c-6.46195,-4.86966 -9.2165,-14.11453 10.8465,-40.73773z" fill="#216aff" stroke-width="2"/><path d="M362.03974,253.22695c11.72144,8.83317 14.24251,25.25757 5.63096,36.68492c-8.61155,11.42735 -25.0947,13.53035 -36.81614,4.69718c-11.72144,-8.83317 -14.2425,-25.25756 -5.63095,-36.68491c8.61155,-11.42735 25.09469,-13.53036 36.81613,-4.69719z" fill="#faddbf" stroke-width="2"/><path d="M367.87124,288.98929c-8.61154,11.42736 -25.09469,13.53036 -36.81613,4.69719c-11.72144,-8.83317 24.31541,-9.73949 32.92696,-21.16684c8.61155,-11.42737 12.50072,5.0423 3.88917,16.46965z" fill="#ef8b89" stroke-width="0"/></g><g stroke="#000000" stroke-linecap="butt"><path d="M327.76518,340.83534v-95.29492h29.49199v95.29492z" fill="#73fffc" stroke-width="2"/><path d="M327.43943,340.21741l1.32626,-93.78573c0,0 5.20288,68.11227 6.3799,77.52842c0.2602,2.08162 2.52228,2.78987 2.52228,2.78987l18.60659,13.13896z" fill="#59a9e6" stroke-width="0"/></g><g stroke="#000000" stroke-linecap="butt"><path d="M288.4238,338.41279v-95.29492h29.49199v95.29492z" fill="#73fffc" stroke-width="2"/><path d="M288.09805,337.7949l1.32626,-93.78573c0,0 5.20288,68.11227 6.3799,77.52842c0.2602,2.08162 2.52228,2.78987 2.52228,2.78987l18.60659,13.13896z" fill="#59a9e6" stroke-width="0"/></g><g stroke="#000000" stroke-linecap="butt"><path d="M355.22917,235.69588c0,13.80271 10.04743,36.74388 4.95001,46.45977c-6.2338,11.88187 -28.61241,9.09579 -38.9397,9.09579c-13.66287,0 -32.94407,4.17018 -38.34426,-14.83216c-2.01935,-7.10576 4.35457,-32.37264 4.35457,-40.7234c0,-30.68249 15.2177,-55.55556 33.98969,-55.55556c18.77199,0 33.98969,24.87307 33.98969,55.55556z" fill="#216aff" stroke-width="2"/><path d="M303.96554,251.27245c0,13.80271 62.04198,20.54886 56.94455,30.26474c-6.2338,11.88186 -28.61241,9.09579 -38.9397,9.09579c-13.66287,0 -32.94406,4.17018 -38.34425,-14.83215c-2.01936,-7.10576 4.35457,-32.37265 4.35457,-40.7234c0,-9.45244 3.34855,-28.59801 5.51953,-29.96813c5.94391,-16.76415 10.4653,25.13995 10.4653,46.16315z" fill="#3236f4" stroke-width="0"/></g><g stroke="#000000" stroke-linecap="butt"><g><path d="M261.23389,114.04385c10.90139,-45.50316 56.6263,-73.55345 102.12946,-62.65205c45.50316,10.90139 73.55345,56.6263 62.65205,102.12946c-10.90139,45.50316 -56.6263,73.55345 -102.12946,62.65205c-45.50316,-10.90139 -73.55345,-56.6263 -62.65205,-102.12946z" fill="#faddbf" stroke-width="2"/><path d="M261.66091,113.25204c3.50737,-14.64001 17.97388,-37.8656 23.10768,-39.94081c0.5863,-0.237 7.70312,-7.31697 16.58149,-12.09651c11.03522,-5.94067 24.25934,-9.77339 24.80738,-9.43945c7.15043,4.35682 -32.15423,58.98683 -36.84149,83.86945c-0.01119,0.05934 -0.30394,20.18626 1.16774,20.99018c1.70118,5.28423 4.39781,20.74897 13.31617,30.22776c16.6204,17.66484 43.00993,30.5411 41.44963,30.68733c-2.49592,0.23391 -15.04049,-0.75593 -20.93656,-2.16847c-45.50316,-10.90139 -73.55345,-56.6263 -62.65205,-102.12946z" fill="#ef8b89" stroke-width="0"/><path d="M425.61316,152.95372c-2.70825,11.30444 -5.17845,14.84269 -5.28389,12.9133c-0.10758,-1.96833 2.10485,-9.58705 -5.38075,-16.35287c-1.81391,-1.63949 -11.38758,3.72548 -13.75399,1.89566c-1.48638,-1.14935 -6.04334,-11.91132 -7.74686,-13.01458c-1.19107,-0.77139 -14.05932,5.24638 -15.31535,4.48207c-3.13261,-1.90623 -9.00877,-13.85366 -12.50346,-15.36753c-1.92441,-0.83364 -11.78812,9.36095 -13.77996,8.62273c-2.56874,-0.95203 -6.97983,-14.08212 -9.64188,-14.71989c-7.07951,-1.69607 -8.90733,5.07521 -15.40034,9.69583c-4.21932,3.00259 -10.56264,-15.95175 -14.63381,-12.36638c-5.05591,4.45258 -10.02781,8.72142 -14.99078,11.23391c-3.89363,1.97115 -10.64401,-12.93262 -14.05075,-11.05692c-16.44867,9.05634 -26.42157,14.89795 -22.18787,-2.7738c8.51318,-35.53461 44.01001,2.09774 89.65712,-9.09712c43.69296,-10.71563 83.52573,10.37103 75.01254,45.90563z" fill="#ef8b89" stroke-width="0"/></g><path d="M429.04109,145.22891c-5.47119,22.83711 4.32145,9.99724 -10.95081,-3.50814c-1.86888,-1.65266 -11.64901,3.66283 -14.08531,1.81627c-1.53026,-1.15987 -6.26497,-11.96441 -8.01751,-13.07942c-1.22533,-0.7796 -14.37824,5.16998 -15.67012,4.39708c-3.22201,-1.92767 -9.31586,-13.92723 -12.90663,-15.46411c-1.97733,-0.84632 -12.0259,9.30398 -14.07179,8.55282c-2.6384,-0.96873 -7.23774,-14.14391 -9.96991,-14.79847c-7.26601,-1.74074 -9.09893,5.02931 -15.72612,9.61779c-4.30651,2.9817 -10.92095,-16.03758 -15.07215,-12.4714c-5.15528,4.42878 -10.22556,8.67405 -15.29715,11.16051c-3.97886,1.95073 -10.98634,-13.01463 -14.46675,-11.15659c-16.80438,8.97111 -26.99084,14.76157 -22.75714,-2.91019c8.51318,-35.53461 57.69702,-69.73362 102.36002,-59.03352c44.66298,10.70011 75.14458,61.3428 66.6314,96.87741z" fill="#724e36" stroke-width="2"/><path d="M429.07109,144.0404c-5.47119,22.83711 4.32145,9.99724 -10.95081,-3.50814c-1.86888,-1.65266 -11.64901,3.66283 -14.08531,1.81627c-1.53026,-1.15987 -6.26497,-11.96441 -8.01752,-13.07943c-1.22533,-0.7796 -14.37824,5.16998 -15.67012,4.39708c-3.22201,-1.92767 -9.31586,-13.92723 -12.90663,-15.46411c-1.97733,-0.84632 -12.0259,9.30398 -14.07179,8.55282c-2.6384,-0.96873 -7.23774,-14.14391 -9.96991,-14.79847c-7.26601,-1.74074 -9.09893,5.02931 -15.72612,9.61779c-4.30651,2.9817 -10.92095,-16.03758 -15.07215,-12.4714c-5.15528,4.42878 -10.22556,8.67405 -15.29716,11.1605c-3.97886,1.95073 -10.98634,-13.01463 -14.46675,-11.15659c-16.80438,8.97111 -26.99084,14.76157 -22.75714,-2.91019c8.51318,-35.53461 45.11885,2.36341 91.83625,-8.57505c44.71744,-10.47019 85.66832,10.88435 77.15514,46.41895z" fill="#623728" stroke-width="0"/></g><g stroke="#000000" stroke-linecap="butt"><path d="M356.60565,160.44291c-6.6537,27.77303 -22.89156,39.03023 -39.00415,35.17006c-16.11259,-3.86016 -25.99841,-21.37592 -19.34471,-49.14894c6.6537,-27.77303 25.10944,-47.15823 41.22203,-43.29807c16.11259,3.86016 23.78055,29.50392 17.12684,57.27696z" fill="#f0f0f0" stroke-width="2"/><path d="M315.69891,130.50618c-10.76194,26.4536 18.82712,68.30771 2.71453,64.44755c-16.11259,-3.86016 -25.99841,-21.37592 -19.34471,-49.14894c6.6537,-27.77303 32.18877,-53.54271 16.63019,-15.2986z" fill="#9a99ff" stroke-width="0"/></g><path d="M350.90019,167.54225c-3.68628,15.38681 -11.23449,26.76784 -16.85936,25.42027c-5.62488,-1.34758 -7.19644,-14.91348 -3.51017,-30.30028c3.68628,-15.38681 11.23449,-26.76784 16.85936,-25.42027c5.62488,1.34758 7.19644,14.91348 3.51017,30.30028z" fill="#000000" stroke="none" stroke-width="0" stroke-linecap="butt"/><g stroke="#000000" stroke-linecap="butt"><path d="M358.73172,130.06767c1.95339,10.98726 -12.91555,11.427 -28.19349,7.7668c-15.27794,-3.6602 -25.35059,-10.84624 -18.69069,-19.138c6.3368,-7.88948 11.5931,-19.24761 26.87104,-15.58742c15.27794,3.6602 18.15152,16.4876 20.01312,26.95862z" fill="#a100fe" stroke-width="2"/><path d="M357.91541,129.50784c1.80551,10.95184 -12.58734,11.50562 -27.34435,7.97023c-14.757,-3.53539 -24.44932,-10.63032 -17.94014,-18.95818c6.19341,-7.92383 6.15362,2.4635 20.91062,5.99889c14.757,3.53539 22.65317,-5.44819 24.37384,4.98905z" fill="#99008e" stroke-width="0"/></g><g data-paper-data="{&quot;index&quot;:null}" stroke="#000000" stroke-linecap="butt"><path d="M401.79628,116.57514c16.11259,3.86016 23.78055,29.50392 17.12684,57.27696c-6.6537,27.77302 -23.40341,38.9076 -39.516,35.04743c-16.11259,-3.86016 -25.48659,-21.2533 -18.83287,-49.02633c6.6537,-27.77303 25.10944,-47.15823 41.22203,-43.29807z" fill="#f0f0f0" stroke-width="2"/><path d="M418.49806,172.8965c-6.6537,27.77302 -23.40341,38.9076 -39.516,35.04743c-16.11259,-3.86016 29.23004,-27.76256 31.62361,-56.22102c3.46039,-41.14251 14.54608,-6.59945 7.89239,21.17358z" fill="#9a99ff" stroke-width="0"/></g><path d="M409.49537,151.94453c5.62488,1.34758 7.19644,14.91348 3.51017,30.30028c-3.68628,15.38681 -11.23449,26.76784 -16.85936,25.42027c-5.62488,-1.34758 -7.19644,-14.91348 -3.51017,-30.30028c3.68628,-15.38681 11.23449,-26.76784 16.85936,-25.42027z" data-paper-data="{&quot;index&quot;:null}" fill="#000000" stroke="none" stroke-width="0" stroke-linecap="butt"/><g data-paper-data="{&quot;index&quot;:null}" stroke="#000000" stroke-linecap="butt"><path d="M372.44326,131.8321c6.40433,-8.4907 14.77857,-18.62341 30.05651,-14.96321c15.27794,3.6602 14.81677,16.16713 16.89062,26.07157c2.17958,10.40948 -10.05587,12.25107 -25.33381,8.59086c-15.27794,-3.6602 -28.33343,-10.78989 -21.61332,-19.69923z" fill="#a100fe" stroke-width="2"/><path d="M373.42462,131.70295c6.26341,-8.52447 9.23154,3.06194 23.98855,6.59733c14.757,3.53539 19.42844,-5.74232 21.35888,4.12777c2.02887,10.37338 -9.82625,12.30607 -24.58325,8.77068c-14.757,-3.53539 -27.33641,-10.55104 -20.76419,-19.49578z" fill="#99008e" stroke-width="0"/></g><path d="M391.63632,338.87004c0,11.6628 -14.51982,21.11737 -32.43092,21.11737c-17.9111,0 -32.43092,-9.45457 -32.43092,-21.11737c0,-2.33142 -0.03339,-13.76009 1.08979,-15.13837c4.49546,-5.51647 17.81784,5.26144 32.14847,5.26144c17.9111,0 31.62358,-1.78588 31.62358,9.87692z" fill="#000082" stroke="#000000" stroke-width="2" stroke-linecap="butt"/><path d="M389.75004,336.13774c0,6.30841 -13.89058,10.1901 -31.80169,10.1901c-17.9111,0 -30.16566,-2.95748 -30.16566,-9.26589c0,-1.26107 -0.03338,-12.52602 1.0898,-13.27153c4.49546,-2.98386 15.55258,5.7726 29.88321,5.7726c17.9111,0 30.99434,0.26631 30.99434,6.57472z" fill="#2e0048" stroke="#000000" stroke-width="0" stroke-linecap="butt"/><path d="M348.64938,338.2252c0,11.6628 -14.51982,21.11737 -32.43092,21.11737c-17.9111,0 -32.43092,-9.45457 -32.43092,-21.11737c0,-2.33142 -0.03339,-13.76009 1.08979,-15.13837c4.49546,-5.51647 17.81784,5.26144 32.14847,5.26144c17.9111,0 31.62358,-1.78588 31.62358,9.87692z" fill="#000082" stroke="#000000" stroke-width="2" stroke-linecap="butt"/><path d="M346.7631,335.49289c0,6.30841 -13.89058,10.1901 -31.80169,10.1901c-17.9111,0 -30.16566,-2.95748 -30.16566,-9.26589c0,-1.26107 -0.03338,-12.52602 1.0898,-13.27153c4.49546,-2.98386 15.55258,5.7726 29.88321,5.7726c17.9111,0 30.99434,0.26631 30.99434,6.57472z" fill="#2e0048" stroke="#000000" stroke-width="0" stroke-linecap="butt"/><g><path d="M257.6098,241.28705c-5.10462,-14.19739 -0.94636,-25.05643 12.85872,-30.75989c10.79708,-4.46076 27.30665,2.98625 32.41127,17.18366c5.10467,14.19745 -0.36115,27.80952 -14.41705,32.86332c-2.19807,0.79032 -4.46121,0.86733 -6.52756,0.95699c-11.14706,0.48353 -20.01901,-8.26684 -24.32538,-20.24404z" fill="#485e84" stroke="#000000" stroke-width="2" stroke-linecap="butt"/><path d="M293.76756,217.38839c0,0 -5.54984,1.52653 -6.13641,3.44208c-5.62655,18.37432 -1.86638,31.905 -0.2812,36.28529c0.36014,0.9952 1.46208,1.21103 1.46208,1.21103c0,0 -1.90302,0.92012 -4.62212,1.26723c-2.89336,0.36936 -6.69454,0.13504 -9.55236,-0.99546c-3.26442,-1.29137 -9.96518,-6.25205 -9.96518,-6.25205l-10.07574,-18.36677c0,0 4.66145,-12.61848 6.06727,-14.26789c1.37722,-1.6159 3.47035,-3.13298 5.63094,-4.83557c3.35462,-2.6435 7.67399,-4.03988 10.55296,-4.11931c3.67423,-0.10131 8.12939,1.27832 11.52456,3.02053c3.15983,1.62145 5.39506,3.61095 5.39506,3.61095z" fill="#343545" stroke="none" stroke-width="0" stroke-linecap="butt"/><path d="M271.67757,227.83835c0,0 7.67342,-4.74518 12.80294,-4.22729c6.49343,0.65557 18.51834,5.50365 18.51834,5.50365" fill="none" stroke="#000000" stroke-width="1" stroke-linecap="round"/><path d="M294.40073,256.70311c0,0 -7.08761,0.94638 -11.36033,0.48203c-4.31352,-0.46874 -12.9712,-4.85022 -12.9712,-4.85022" fill="none" stroke="#000000" stroke-width="1" stroke-linecap="round"/><path d="M265.21182,218.97548c0,0 7.8039,-4.98853 13.3344,-4.17458c8.48636,1.24899 19.41476,5.13046 19.41476,5.13046" fill="none" stroke="#000000" stroke-width="1" stroke-linecap="round"/><path d="M277.63484,210.07234c0,0 14.57042,9.33691 15.38473,26.74038c0.89197,19.06329 -15.44635,24.59047 -15.44635,24.59047" fill="none" stroke="#000000" stroke-width="1" stroke-linecap="round"/><path d="M268.32282,212.07023c0,0 13.20336,11.93876 13.95494,27.29436c0.6171,12.60836 -12.70954,18.55138 -12.70954,18.55138" fill="none" stroke="#000000" stroke-width="1" stroke-linecap="round"/><path d="M299.48447,242.72928c0.24516,-1.17775 1.19974,-1.97511 2.13207,-1.78103c0.93238,0.19403 0.7928,0.97794 0.54763,2.15568c-0.24516,1.17775 -0.50308,2.3033 -1.43543,2.10923c-0.93238,-0.19403 -1.48947,-1.30616 -1.24427,-2.48386z" fill="#8fbbbe" stroke="none" stroke-width="0" stroke-linecap="butt"/><path d="M297.04739,249.57906c-0.20349,-0.56602 0.31977,-1.27231 1.16878,-1.57757c0.84902,-0.30527 1.2378,-0.31268 1.44132,0.25331c0.20349,0.56602 -0.25835,1.44313 -1.10737,1.74836c-0.84902,0.30527 -1.29923,0.14185 -1.50273,-0.42414z" fill="#8fbbbe" stroke="none" stroke-width="0" stroke-linecap="butt"/><path d="M300.83122,235.94327c-0.21305,-0.87674 0.08801,-1.70254 0.67247,-1.84459c0.58441,-0.14207 0.71857,0.63775 0.93165,1.51445c0.21305,0.87674 0.42444,1.51829 -0.16003,1.66036c-0.58441,0.14207 -1.23102,-0.45352 -1.44407,-1.33023z" fill="#8fbbbe" stroke="none" stroke-width="0" stroke-linecap="butt"/><path d="M290.25732,214.59982c0,0 6.39905,7.98322 8.61675,15.22902c1.25731,4.10801 0.94732,8.16266 0.67785,11.23407c-0.23827,2.7162 -3.33298,8.51692 -6.16374,12.71038c-2.08413,3.08741 -4.15965,5.17528 -4.15965,5.17528" fill="none" stroke="#000000" stroke-width="0.5" stroke-linecap="round"/><path d="M304.02362,245.91346c0,0 -10.07916,3.19196 -15.4721,2.82685c-4.54368,-0.3076 -14.65352,-4.53314 -14.65352,-4.53314" fill="none" stroke="#000000" stroke-width="1" stroke-linecap="round"/><path d="M273.53148,238.35939c0,0 9.24677,-2.8152 13.76526,-2.99977c7.9336,-0.32408 17.43313,3.93452 17.43313,3.93452" fill="none" stroke="#000000" stroke-width="1" stroke-linecap="round"/></g><g stroke="#000000" stroke-linecap="butt"><path d="M265.85225,215.89752c1.23924,33.31341 -6.30629,39.32341 -14.39207,39.6242c-8.08579,0.30079 -15.6452,-26.46124 -16.88444,-59.77465c-1.23923,-33.31341 54.68206,12.3845 62.76785,12.08372c6.07571,3.66251 1.0257,7.79713 -6.80703,8.43297c-9.65959,0.78415 -24.79023,-3.21373 -24.68431,-0.36623z" fill="#216aff" stroke-width="2"/><path d="M278.86274,240.4755c0.53191,14.29896 -10.92679,26.33285 -25.59374,26.87845c-14.66694,0.5456 -26.98806,-10.6037 -27.51997,-24.90266c-0.53191,-14.29896 10.92681,-26.33285 25.59375,-26.87845c14.66694,-0.5456 26.98805,10.60371 27.51997,24.90267z" fill="#faddbf" stroke-width="2"/><path d="M238.71898,230.29091c0.53191,14.29896 29.57987,35.6459 14.91292,36.19149c-14.66694,0.5456 -26.98806,-10.6037 -27.51997,-24.90267c-0.53191,-14.29896 12.07513,-25.5878 12.60704,-11.28883z" fill="#ef8b89" stroke-width="0"/></g><path d="M292.33827,176.41357c0.71188,1.0275 -0.31562,1.73936 -0.31562,1.73936l-0.10794,-0.00324c-1.71449,2.28589 -3.34115,4.83788 -6.29777,5.67344c-3.06525,0.86626 -6.67029,-0.81186 -6.74706,-4.22383c-0.10295,-4.57515 4.92657,-8.18111 7.56958,-11.27476c0,0 0.81249,-0.94992 1.76241,-0.13742c0.94992,0.8125 0.13743,1.76241 0.13743,1.76241c-2.23294,2.60771 -6.8685,5.83391 -6.96943,9.65006c-0.04511,1.70547 2.21784,2.23348 3.59294,1.81065c2.34019,-0.71963 3.58977,-2.94176 4.95138,-4.75985l0.68474,-0.55243c0,0 1.02749,-0.71188 1.73935,0.31562z" fill="#000000" stroke="none" stroke-width="0.5" stroke-linecap="butt"/></g></g></svg>