<svg version="1.1" xmlns="http://www.w3.org/2000/svg" xmlns:xlink="http://www.w3.org/1999/xlink" width="176.3313" height="298.51401" viewBox="0,0,176.3313,298.51401"><g transform="translate(-241.30081,-36.85203)"><g data-paper-data="{&quot;isPaintingLayer&quot;:true}" fill-rule="nonzero" stroke-linejoin="miter" stroke-miterlimit="10" stroke-dasharray="" stroke-dashoffset="0" style="mix-blend-mode: normal"><g data-paper-data="{&quot;index&quot;:null}" stroke="#000000" stroke-linecap="butt"><path d="M294.77501,260.53409c5.50389,-32.87897 16.43501,-58.44969 24.41535,-57.11379c7.98034,1.3359 9.98788,29.07253 4.48399,61.95149c-5.5039,32.87896 -16.43501,58.44968 -24.41535,57.11378c-7.98034,-1.3359 -9.98789,-29.07253 -4.48399,-61.95149z" fill="#0d69be" stroke-width="2"/><path d="M274.01377,304.04736c2.36242,-14.11248 16.01237,-23.58853 30.48805,-21.16531c14.47568,2.42322 24.29542,15.82803 21.93301,29.94052c-2.3624,14.11249 -16.01237,23.58851 -30.48804,21.16531c-14.47568,-2.42322 -24.29542,-15.82804 -21.93301,-29.94052z" fill="#faddbf" stroke-width="2"/><path d="M326.18676,311.91167c-2.36241,14.11248 -16.01237,23.5885 -30.48804,21.1653c-14.47568,-2.42321 17.07145,-19.86611 19.43386,-33.9786c2.36241,-14.11249 13.41659,-1.29919 11.05418,12.8133z" fill="#ef8b89" stroke-width="0"/></g><g data-paper-data="{&quot;index&quot;:null}" stroke="#000000" stroke-linecap="butt"><path d="M332.94331,185.14028c18.77199,0 33.98969,24.87307 33.98969,55.55556c0,8.35076 6.37392,33.61764 4.35457,40.7234c-5.40019,19.00234 -24.68139,14.83216 -38.34426,14.83216c-10.32729,0 -32.7059,2.78608 -38.9397,-9.09579c-5.09742,-9.71589 4.95001,-32.65706 4.95001,-46.45977c0,-30.68249 15.2177,-55.55556 33.98969,-55.55556z" fill="#216aff" stroke-width="2"/><path d="M360.68255,210.10931c2.17098,1.37012 5.51953,20.51569 5.51953,29.96813c0,8.35075 6.37393,33.61764 4.35457,40.7234c-5.40019,19.00233 -24.68138,14.83215 -38.34425,14.83215c-10.32729,0 -32.7059,2.78607 -38.9397,-9.09579c-5.09743,-9.71588 56.94455,-16.46203 56.94455,-30.26474c0,-21.0232 4.52139,-62.9273 10.4653,-46.16315z" fill="#3236f4" stroke-width="0"/></g><g stroke="#000000" stroke-linecap="butt"><g><path d="M413.91763,125.46146c-0.08606,46.79071 -38.08719,84.65232 -84.8779,84.56625c-46.79071,-0.08606 -84.65232,-38.08719 -84.56625,-84.8779c0.08606,-46.79071 38.08719,-84.65232 84.8779,-84.56626c46.79071,0.08606 84.65233,38.08719 84.56626,84.8779z" fill="#faddbf" stroke-width="2"/><path d="M413.68843,124.59154c-0.08606,46.79071 -38.08719,84.65232 -84.8779,84.56625c-6.0629,-0.01115 -18.48925,-1.99406 -20.86049,-2.8074c-1.48236,-0.50846 27.19257,-6.82938 47.49561,-20.09854c10.89443,-7.12012 17.14634,-21.51955 20.04056,-26.2567c1.61929,-0.43594 6.05991,-20.06906 6.06297,-20.12937c1.28542,-25.28761 -24.09524,-87.61831 -16.1218,-90.17465c0.61114,-0.19594 12.56584,6.63427 21.89795,14.99964c7.50815,6.73035 12.76391,15.28326 13.27817,15.65127c4.50312,3.22246 13.11265,29.19522 13.08496,44.24948z" fill="#ef8b89" stroke-width="0"/><path d="M244.99775,124.69255c0.0672,-36.54009 43.73719,-47.68586 83.69327,-27.01195c41.74311,21.59855 85.08277,-6.64845 85.01556,29.89164c-0.03342,18.17182 -8.35613,10.15212 -22.21894,-2.51275c-2.87117,-2.62306 -12.93183,10.27938 -16.25388,7.44921c-4.23441,-3.60743 -8.06514,-8.9242 -11.93441,-14.43932c-3.11565,-4.44094 -13.73157,12.49444 -17.12805,8.5852c-5.22677,-6.01584 -5.4138,-13.02699 -12.69364,-13.04038c-2.7374,-0.00504 -10.10774,11.72248 -12.82819,12.04485c-2.10948,0.24998 -9.30413,-11.9754 -11.37047,-11.61685c-3.75241,0.65111 -12.26924,10.88507 -15.76182,12.00259c-1.40036,0.44808 -12.49616,-8.42258 -13.83504,-7.95237c-1.91492,0.6725 -8.87111,10.06385 -10.58577,10.83212c-2.72985,1.22313 -10.77643,-6.23951 -12.92454,-5.07168c-8.86478,4.81933 -8.50284,12.74454 -9.06951,14.63259c-0.55545,1.8507 -2.12593,-2.16856 -2.10455,-13.79288z" fill="#ef8b89" stroke-width="0"/></g><path d="M243.47914,116.37891c0.0672,-36.54009 41.58625,-78.61124 87.513,-78.52676c45.92677,0.08447 85.7071,44.87453 85.63989,81.41462c-0.03342,18.1718 -8.57577,10.1517 -22.80434,-2.51384c-2.94691,-2.62321 -13.27196,10.27873 -16.68164,7.44841c-4.3461,-3.60763 -8.27801,-8.92458 -12.24946,-14.43989c-3.19794,-4.44108 -14.09267,12.49377 -17.5788,8.58436c-5.36474,-6.01609 -5.55704,-13.02725 -13.02863,-13.04099c-2.80948,-0.00517 -10.37341,11.72201 -13.1655,12.04424c-2.16505,0.24987 -9.5498,-11.97585 -11.67055,-11.61741c-3.85122,0.65092 -12.59189,10.88448 -16.17641,12.00183c-1.43723,0.448 -12.82574,-8.42319 -14.19986,-7.95305c-1.96532,0.67241 -9.10427,10.06342 -10.86407,10.8316c-2.80172,1.22299 -11.0606,-6.24004 -13.26524,-5.07232c-18.01606,9.54245 -11.51153,24.32247 -11.46834,0.83917z" fill="#724e36" stroke-width="2"/><path d="M243.72903,115.21656c0.0672,-36.54009 44.88695,-47.68375 85.8965,-27.0079c42.84369,21.60058 87.32358,-6.64432 87.25637,29.89577c-0.03342,18.1718 -8.57576,10.1517 -22.80433,-2.51384c-2.94691,-2.62321 -13.27196,10.27873 -16.68164,7.44841c-4.3461,-3.60763 -8.27802,-8.92458 -12.24947,-14.43989c-3.19794,-4.44108 -14.09266,12.49377 -17.57879,8.58436c-5.36474,-6.01609 -5.55704,-13.02725 -13.02863,-13.04099c-2.80948,-0.00518 -10.37341,11.722 -13.1655,12.04423c-2.16505,0.24987 -9.54979,-11.97584 -11.67054,-11.6174c-3.85122,0.65092 -12.59189,10.88447 -16.17641,12.00182c-1.43723,0.448 -12.82574,-8.42319 -14.19986,-7.95305c-1.96533,0.67241 -9.10428,10.06342 -10.86408,10.8316c-2.80172,1.22299 -11.0606,-6.24003 -13.26524,-5.07231c-18.01607,9.54245 -11.51154,24.32247 -11.46835,0.83917z" fill="#623728" stroke-width="0"/></g><g data-paper-data="{&quot;index&quot;:null}" stroke="#000000" stroke-linecap="butt"><path d="M319.18101,154.02798c0.05252,-28.55889 13.52654,-51.68575 30.09505,-51.65527c16.56851,0.03047 29.95737,23.20673 29.90484,51.76562c-0.05251,28.55888 -13.77421,43.26421 -30.34272,43.23373c-16.56852,-0.03048 -29.7097,-14.7852 -29.65717,-43.34409z" fill="#f0f0f0" stroke-width="2"/><path d="M378.54642,153.30691c-0.05253,28.55888 -13.77422,43.26422 -30.34273,43.23374c-16.56851,-0.03047 22.01964,-33.76819 17.76899,-62.00903c-6.14519,-40.82789 12.62627,-9.7836 12.57374,18.77529z" fill="#9a99ff" stroke-width="0"/></g><path d="M320.97177,162.0993c0.0291,-15.82219 4.74159,-28.63998 10.52564,-28.62935c5.78405,0.01064 10.44936,12.84567 10.42026,28.66786c-0.0291,15.82218 -4.74159,28.63997 -10.52564,28.62934c-5.78405,-0.01064 -10.44936,-12.84567 -10.42026,-28.66786z" data-paper-data="{&quot;index&quot;:null}" fill="#000000" stroke="none" stroke-width="0" stroke-linecap="butt"/><g data-paper-data="{&quot;index&quot;:null}" stroke="#000000" stroke-linecap="butt"><path d="M324.24557,124.00255c4.26785,-9.74131 10.0726,-21.53556 25.78284,-21.50667c15.71023,0.0289 18.15308,12.3036 22.46056,21.46027c4.52711,9.62356 -26.42751,39.74528 -42.13775,39.71638c-15.71024,-0.02888 -10.58394,-29.44837 -6.10567,-39.66996z" fill="#a100fe" stroke-width="2"/><path d="M325.17049,123.65c4.12293,-9.74157 9.68935,0.84472 24.8639,0.87263c15.17455,0.02791 17.57451,-10.07844 21.73454,-0.92205c4.37214,9.62329 -26.35294,39.29454 -41.52749,39.26663c-15.17455,-0.02792 -9.39718,-28.99532 -5.07097,-39.21719z" fill="#99008e" stroke-width="0"/></g><g data-paper-data="{&quot;index&quot;:null}" stroke="#000000" stroke-linecap="butt"><path d="M285.55141,101.21819c16.5685,0.03048 29.95737,23.20673 29.90484,51.76562c-0.05253,28.55889 -13.2479,43.26519 -29.81641,43.23471c-16.56851,-0.03047 -30.23602,-14.78618 -30.18349,-43.34506c0.05252,-28.55889 13.52654,-51.68574 30.09505,-51.65526z" fill="#f0f0f0" stroke-width="2"/><path d="M268.73662,133.31546c-4.35451,28.225 34.10928,62.10444 17.54077,62.07396c-16.56851,-0.03048 -30.23602,-14.78618 -30.18349,-43.34506c0.05253,-28.55888 18.93805,-59.53392 12.64272,-18.7289z" fill="#9a99ff" stroke-width="0"/></g><path d="M268.69491,133.00855c5.78405,0.01064 10.44936,12.84567 10.42026,28.66786c-0.02909,15.82218 -4.74159,28.63997 -10.52564,28.62934c-5.78405,-0.01065 -10.44937,-12.84568 -10.42027,-28.66787c0.0291,-15.82219 4.7416,-28.63998 10.52565,-28.62935z" data-paper-data="{&quot;index&quot;:null}" fill="#000000" stroke="none" stroke-width="0" stroke-linecap="butt"/><g data-paper-data="{&quot;index&quot;:null}" stroke="#000000" stroke-linecap="butt"><path d="M310.50221,122.93998c4.44064,10.23798 -7.77599,7.02262 -23.48623,6.99372c-15.71024,-0.0289 -29.31918,2.38924 -24.75669,-7.2176c4.34114,-9.14076 6.82911,-21.40639 22.53935,-21.3775c15.71024,0.02888 21.47157,11.84441 25.70355,21.60135z" fill="#a100fe" stroke-width="2"/><path d="M309.57857,122.58401c4.28858,10.23772 -9.30227,6.36709 -24.47682,6.33918c-15.17455,-0.02791 -26.52864,3.0471 -22.12112,-6.56003c4.19369,-9.14103 6.55645,0.97409 21.731,1.002c15.17455,0.02791 20.77987,-10.53784 24.86694,-0.78116z" fill="#99008e" stroke-width="0"/></g><path d="M385.00577,163.5587l15.38352,-7.48935" fill="none" stroke="#000000" stroke-width="2.5" stroke-linecap="round"/></g></g></svg>