<svg version="1.1" xmlns="http://www.w3.org/2000/svg" xmlns:xlink="http://www.w3.org/1999/xlink" width="232.43163" height="319.21704" viewBox="0,0,232.43163,319.21704"><g transform="translate(-190.63027,-41.77037)"><g data-paper-data="{&quot;isPaintingLayer&quot;:true}" fill-rule="nonzero" stroke-linecap="butt" stroke-linejoin="miter" stroke-miterlimit="10" stroke-dasharray="" stroke-dashoffset="0" style="mix-blend-mode: normal"><g data-paper-data="{&quot;index&quot;:null}" stroke="#000000"><path d="M350.23846,228.75236c1.7149,-2.27565 -12.98461,-7.64627 -20.46143,-13.8123c-6.06277,-4.99988 -7.84213,-11.27934 -0.76339,-10.81055c6.46195,4.86966 78.46897,-0.65092 58.40598,25.97229c-20.063,26.62321 -41.56572,44.25795 -48.02767,39.38828c-6.46195,-4.86966 -9.2165,-14.11453 10.8465,-40.73773z" fill="#216aff" stroke-width="2"/><path d="M362.32825,236.78149c11.72144,8.83317 14.24251,25.25757 5.63096,36.68492c-8.61155,11.42735 -25.0947,13.53035 -36.81614,4.69718c-11.72144,-8.83317 -14.2425,-25.25756 -5.63095,-36.68491c8.61155,-11.42735 25.09469,-13.53036 36.81613,-4.69719z" fill="#faddbf" stroke-width="2"/><path d="M368.15975,272.54383c-8.61154,11.42736 -25.09469,13.53036 -36.81613,4.69719c-11.72144,-8.83317 24.31541,-9.73949 32.92696,-21.16684c8.61155,-11.42737 12.50072,5.0423 3.88917,16.46965z" fill="#ef8b89" stroke-width="0"/></g><g stroke="#000000"><path d="M327.76518,340.83535v-95.29492h29.49199v95.29492z" fill="#73fffc" stroke-width="2"/><path d="M327.43943,340.21742l1.32626,-93.78573c0,0 5.20288,68.11227 6.3799,77.52842c0.2602,2.08162 2.52228,2.78987 2.52228,2.78987l18.60659,13.13896z" fill="#59a9e6" stroke-width="0"/></g><g stroke="#000000"><path d="M288.4238,338.4128v-95.29492h29.49199v95.29492z" fill="#73fffc" stroke-width="2"/><path d="M288.09805,337.7949l1.32626,-93.78573c0,0 5.20288,68.11227 6.3799,77.52842c0.2602,2.08162 2.52228,2.78987 2.52228,2.78987l18.60659,13.13896z" fill="#59a9e6" stroke-width="0"/></g><g stroke="#000000"><path d="M355.22917,235.69588c0,13.80271 10.04743,36.74388 4.95001,46.45977c-6.2338,11.88187 -28.61241,9.09579 -38.9397,9.09579c-13.66287,0 -32.94407,4.17018 -38.34426,-14.83216c-2.01935,-7.10576 4.35457,-32.37264 4.35457,-40.7234c0,-30.68249 15.2177,-55.55556 33.98969,-55.55556c18.77199,0 33.98969,24.87307 33.98969,55.55556z" fill="#216aff" stroke-width="2"/><path d="M303.96554,251.27246c0,13.80271 62.04198,20.54886 56.94455,30.26474c-6.2338,11.88186 -28.61241,9.09579 -38.9397,9.09579c-13.66287,0 -32.94406,4.17018 -38.34425,-14.83215c-2.01936,-7.10576 4.35457,-32.37265 4.35457,-40.7234c0,-9.45244 3.34855,-28.59801 5.51953,-29.96813c5.94391,-16.76415 10.4653,25.13995 10.4653,46.16315z" fill="#3236f4" stroke-width="0"/></g><g stroke="#000000"><g><path d="M251.19634,124.06414c3.44576,-46.66374 44.06754,-81.69884 90.73127,-78.25308c46.66374,3.44576 81.69884,44.06754 78.25308,90.73127c-3.44576,46.66374 -44.06754,81.69884 -90.73127,78.25308c-46.66374,-3.44576 -81.69884,-44.06754 -78.25308,-90.73127z" fill="#faddbf" stroke-width="2"/><path d="M251.49052,123.21399c1.10863,-15.0134 11.65391,-40.26228 16.38741,-43.13567c0.54058,-0.32815 6.42688,-8.45997 14.42159,-14.60444c9.93687,-7.63716 22.373,-13.5456 22.9676,-13.3041c7.75775,3.15086 -22.25499,63.38813 -22.88184,88.70063c-0.0015,0.06036 2.94462,19.97266 4.52639,20.52957c2.52842,4.94208 7.6757,19.7723 18.00164,27.69438c19.24363,14.7637 47.35969,23.23086 45.84318,23.62598c-2.42586,0.63205 -14.96643,1.67141 -21.01289,1.22492c-46.66374,-3.44576 -81.69884,-44.06754 -78.25308,-90.73127z" fill="#ef8b89" stroke-width="0"/><path d="M419.69242,136.04684c-0.85604,11.59277 -2.72539,15.48204 -3.13958,13.59469c-0.42255,-1.92544 0.53652,-9.80072 -7.93923,-15.27538c-2.05384,-1.32662 -10.64071,5.5074 -13.27047,4.08173c-1.65179,-0.8955 -7.87931,-10.78507 -9.73801,-11.60019c-1.29957,-0.56992 -13.03324,7.43797 -14.3958,6.88549c-3.39828,-1.37794 -11.11839,-12.22553 -14.81095,-13.158c-2.03339,-0.51349 -10.13024,11.13399 -12.21483,10.72552c-2.68836,-0.52677 -9.15254,-12.77714 -11.88249,-12.97872c-7.26008,-0.5361 -7.97575,6.44093 -13.64167,12.04512c-3.68184,3.64174 -12.98927,-14.04658 -16.43122,-9.85346c-4.27449,5.20735 -8.49559,10.21982 -12.9902,13.49737c-3.52617,2.57136 -12.58432,-11.05361 -15.64528,-8.65474c-14.77915,11.58244 -23.68343,18.95108 -22.34522,0.8286c2.69089,-36.44093 43.77496,-5.00341 87.02917,-23.38975c41.4025,-17.59922 84.10667,-3.1892 81.4158,33.25174z" fill="#ef8b89" stroke-width="0"/></g><path d="M421.83416,127.87147c-1.72936,23.41958 5.87216,9.17265 -11.37231,-1.70236c-2.11021,-1.33079 -10.90881,5.48761 -13.61024,4.05664c-1.6968,-0.89881 -8.10659,-10.80186 -10.01557,-11.62068c-1.33472,-0.57251 -13.3603,7.41382 -14.75962,6.85862c-3.48996,-1.38471 -11.43331,-12.24878 -15.22442,-13.18852c-2.08765,-0.51749 -10.37408,11.11599 -12.51408,10.70342c-2.7598,-0.53205 -9.41704,-12.79666 -12.21891,-13.00356c-7.45132,-0.55022 -8.17224,6.42642 -13.97574,12.02045c-3.77125,3.63514 -13.35673,-14.07371 -16.88075,-9.88666c-4.3764,5.19982 -8.69839,10.20486 -13.30438,13.47416c-3.61357,2.56491 -12.93539,-11.07954 -16.07189,-8.68624c-15.14393,11.5555 -24.26723,18.90798 -22.92902,0.78549c2.69089,-36.44093 45.73831,-78.10078 91.54046,-74.71864c45.80212,3.38214 84.02738,48.46695 81.3365,84.90789z" fill="#724e36" stroke-width="2"/><path d="M421.67273,126.6936c-1.72936,23.41958 5.87216,9.17265 -11.37231,-1.70236c-2.11021,-1.33079 -10.90881,5.48761 -13.61024,4.05664c-1.6968,-0.89881 -8.10659,-10.80186 -10.01558,-11.62068c-1.33472,-0.57251 -13.3603,7.41382 -14.75962,6.85862c-3.48996,-1.38471 -11.43331,-12.24878 -15.22442,-13.18852c-2.08765,-0.51749 -10.37408,11.11599 -12.51408,10.70342c-2.7598,-0.53205 -9.41704,-12.79666 -12.21891,-13.00356c-7.45132,-0.55022 -8.17224,6.42642 -13.97574,12.02045c-3.77125,3.63514 -13.35673,-14.07371 -16.88075,-9.88666c-4.3764,5.19982 -8.69839,10.20486 -13.30439,13.47416c-3.61357,2.56491 -12.93539,-11.07954 -16.07189,-8.68624c-15.14393,11.5555 -24.26723,18.90798 -22.92902,0.78549c2.69089,-36.44093 44.91209,-4.91944 89.26389,-23.22473c42.45311,-17.52164 86.30392,-3.02695 83.61304,33.41398z" fill="#623728" stroke-width="0"/></g><g stroke="#000000"><path d="M352.78592,154.53047c-2.10314,28.4814 -16.32046,42.20219 -32.84401,40.98206c-16.52355,-1.22013 -29.09621,-16.91918 -26.99307,-45.40057c2.10314,-28.4814 17.20305,-50.581 33.7266,-49.36087c16.52355,1.22013 28.21362,25.29798 26.11048,53.77938z" fill="#f0f0f0" stroke-width="2"/><path d="M307.59923,131.55806c-6.37003,27.83946 29.56167,64.39342 13.03811,63.17329c-16.52355,-1.22013 -29.09621,-16.91918 -26.99307,-45.40057c2.10314,-28.4814 23.16415,-58.02035 13.95496,-17.77272z" fill="#9a99ff" stroke-width="0"/></g><path d="M348.29576,162.45458c-1.16518,15.77925 -6.78592,28.22556 -12.55427,27.79962c-5.76835,-0.42595 -9.49997,-13.56286 -8.33479,-29.34211c1.16518,-15.77925 6.78592,-28.22556 12.55427,-27.79962c5.76835,0.42595 9.49997,13.56286 8.33479,29.34211z" fill="#000000" stroke="none" stroke-width="0"/><g stroke="#000000"><path d="M350.00203,124.20845c3.69401,10.53044 -10.91091,13.35438 -26.57852,12.19745c-15.6676,-1.15693 -26.76434,-6.63051 -21.52379,-15.88494c4.98631,-8.80544 8.34864,-20.86075 24.01623,-19.70382c15.6676,1.15693 20.56562,13.35567 24.08606,23.3913z" fill="#a100fe" stroke-width="2"/><path d="M349.10636,123.7871c3.54236,10.51924 -10.57434,13.37924 -25.70772,12.26175c-15.13338,-1.11748 -25.84008,-6.56227 -20.75408,-15.8281c4.83926,-8.81629 6.46957,1.44238 21.60295,2.55987c15.13338,1.11748 21.48292,-9.01848 24.85884,1.00648z" fill="#99008e" stroke-width="0"/></g><g data-paper-data="{&quot;index&quot;:null}" stroke="#000000"><path d="M390.33798,103.96943c16.52355,1.22013 28.21362,25.29798 26.11048,53.77938c-2.10314,28.48139 -16.84535,42.16343 -33.3689,40.94329c-16.52355,-1.22013 -28.57131,-16.88041 -26.46818,-45.3618c2.10314,-28.4814 17.20305,-50.581 33.7266,-49.36087z" fill="#f0f0f0" stroke-width="2"/><path d="M415.87531,156.87395c-2.10314,28.48139 -16.84535,42.16343 -33.3689,40.94329c-16.52355,-1.22013 24.38761,-32.09984 22.17583,-60.573c-3.19758,-41.16377 13.29621,-8.85169 11.19307,19.62971z" fill="#9a99ff" stroke-width="0"/></g><path d="M403.62199,137.64143c5.76835,0.42595 9.49997,13.56286 8.33479,29.34211c-1.16518,15.77925 -6.78592,28.22556 -12.55427,27.79962c-5.76835,-0.42595 -9.49997,-13.56286 -8.33479,-29.34211c1.16518,-15.77925 6.78592,-28.22556 12.55427,-27.79962z" data-paper-data="{&quot;index&quot;:null}" fill="#000000" stroke="none" stroke-width="0"/><g data-paper-data="{&quot;index&quot;:null}" stroke="#000000"><path d="M363.81889,123.74603c4.95632,-9.4097 11.59302,-20.75668 27.26062,-19.59975c15.6676,1.15693 17.22272,13.57537 20.86158,23.01771c3.82438,9.9238 -7.95597,13.70809 -23.62357,12.55116c-15.6676,-1.15693 -29.69933,-6.09547 -24.49864,-15.9691z" fill="#a100fe" stroke-width="2"/><path d="M364.76674,123.46082c4.81181,-9.42036 9.60367,1.5383 24.73705,2.65579c15.13338,1.11748 18.25284,-8.79046 21.74465,0.64103c3.66983,9.91239 -7.72049,13.72548 -22.85387,12.60799c-15.13338,-1.11748 -28.67688,-6.01997 -23.62784,-15.9048z" fill="#99008e" stroke-width="0"/></g><path d="M391.63632,338.87004c0,11.6628 -14.51982,21.11737 -32.43092,21.11737c-17.9111,0 -32.43092,-9.45457 -32.43092,-21.11737c0,-2.33142 -0.03339,-13.76009 1.08979,-15.13837c4.49546,-5.51647 17.81784,5.26144 32.14847,5.26144c17.9111,0 31.62358,-1.78588 31.62358,9.87692z" fill="#000082" stroke="#000000" stroke-width="2"/><path d="M389.75004,336.13774c0,6.30841 -13.89058,10.1901 -31.80169,10.1901c-17.9111,0 -30.16566,-2.95748 -30.16566,-9.26589c0,-1.26107 -0.03338,-12.52602 1.0898,-13.27153c4.49546,-2.98386 15.55258,5.7726 29.88321,5.7726c17.9111,0 30.99434,0.26631 30.99434,6.57472z" fill="#2e0048" stroke="#000000" stroke-width="0"/><path d="M348.64938,338.22521c0,11.6628 -14.51982,21.11737 -32.43092,21.11737c-17.9111,0 -32.43092,-9.45457 -32.43092,-21.11737c0,-2.33142 -0.03339,-13.76009 1.08979,-15.13837c4.49546,-5.51647 17.81784,5.26144 32.14847,5.26144c17.9111,0 31.62358,-1.78588 31.62358,9.87692z" fill="#000082" stroke="#000000" stroke-width="2"/><path d="M346.7631,335.49289c0,6.30841 -13.89058,10.1901 -31.80169,10.1901c-17.9111,0 -30.16566,-2.95748 -30.16566,-9.26589c0,-1.26107 -0.03338,-12.52602 1.0898,-13.27153c4.49546,-2.98386 15.55258,5.7726 29.88321,5.7726c17.9111,0 30.99434,0.26631 30.99434,6.57472z" fill="#2e0048" stroke="#000000" stroke-width="0"/><path d="M293.49185,180.26049c0.8164,0.94657 -0.13018,1.76297 -0.13018,1.76297l-0.10768,0.00817c-1.4635,2.45417 -2.81159,5.16366 -5.66344,6.30677c-2.95663,1.18511 -6.71873,-0.10293 -7.15538,-3.48773c-0.5855,-4.53869 4.03509,-8.65562 6.33663,-12.01107c0,0 0.70763,-1.0304 1.73804,-0.32276c1.0304,0.70764 0.32277,1.73805 0.32277,1.73805c-1.94507,2.82893 -6.21402,6.52661 -5.91141,10.33208c0.13524,1.7007 2.44131,1.98678 3.76405,1.4211c2.2511,-0.96273 3.25906,-3.3044 4.42104,-5.25611l0.62257,-0.62166c0,0 0.94657,-0.81639 1.76296,0.13018z" fill="#000000" stroke="none" stroke-width="0.5"/><g stroke="none" stroke-width="1"><path d="M413.59004,296.40457c-2.8871,0.15612 -5.87246,0.21673 -8.75759,0.47012c-7.02216,0.53239 -14.14062,1.06653 -21.16279,1.59872c-5.57961,0.4056 -11.2555,0.81316 -16.83512,1.21875c-9.42774,0.67853 -18.85548,1.35707 -28.28125,2.13305c-7.40737,0.54001 -14.71647,1.17552 -22.12186,1.81319c-6.25173,0.51655 -12.60177,0.9378 -18.85351,1.45434c-9.90926,0.68831 -19.81654,1.47408 -29.72579,2.16239c-8.17779,0.55586 -16.45386,1.01619 -24.63362,1.47439c-2.69449,0.15221 -5.48726,0.20892 -8.27805,0.36308c-0.96302,0.01955 -1.73938,-0.25698 -2.42932,-1.02238c-0.29484,-0.28632 -0.49337,-0.57459 -0.78821,-0.8609c-2.36267,-2.48505 -4.4384,-5.07323 -6.60846,-7.56239c-5.72396,-6.70345 -11.54223,-13.30747 -17.26618,-20.01111c-2.27229,-2.77919 -4.63891,-5.45896 -6.81491,-8.2401c-3.06644,-3.93208 -6.13091,-7.76688 -9.29169,-11.59975c-0.88846,-1.05347 -1.48606,-2.01574 -0.83963,-3.39268c0.18469,-0.39356 0.0785,-0.8785 0.16493,-1.36736c0.39056,-4.48937 1.07001,-8.98481 1.84776,-13.38474c0.60491,-3.42202 0.7032,-3.32671 4.16018,-3.88401c4.80128,-0.77941 9.60849,-1.26661 14.41569,-1.75402c7.49973,-0.73688 14.90314,-1.47161 22.30655,-2.20654c7.40342,-0.73493 14.90314,-1.47162 22.30656,-2.20655c4.7109,-0.48545 9.52009,-0.87521 14.23099,-1.36066c2.11469,-0.23775 4.13309,-0.47354 6.24976,-0.614c3.46293,-0.26512 6.92784,-0.43297 10.38682,-0.89281c4.61263,-0.58076 9.13291,-0.96485 13.7475,-1.44835c6.05715,-0.61009 12.21062,-1.22216 18.36606,-1.73673c7.11648,-0.6318 14.23297,-1.2634 21.34946,-1.895c4.42396,-0.38212 8.94623,-0.66876 13.37021,-1.05087c4.52028,-0.3839 9.0366,-0.96289 13.55688,-1.3468c5.09809,-0.39581 10.29249,-0.7936 15.39058,-1.18941c1.05933,-0.02151 2.11865,-0.04303 3.17797,-0.06453c1.73543,0.06226 2.9992,0.62102 3.90153,2.35631c1.70833,3.47274 3.70556,6.93943 5.60649,10.40806c1.60411,3.08506 3.49515,6.06678 5.09929,9.15184c2.60668,5.01313 5.11508,9.93094 7.81609,14.84464c3.70357,6.84197 7.21654,13.78511 10.82382,20.62902c0.50128,0.96403 0.80799,1.83471 0.73345,2.90793c-0.13526,2.82807 -0.2725,5.55869 -0.40776,8.38676c0.01583,0.77908 -0.06466,1.56012 -0.24145,2.34312c-0.3516,1.66326 -0.21773,3.51166 -1.43999,4.99779c-1.53688,0.22621 -2.97944,0.35279 -4.23137,0.37821zM413.77018,291.04257c-3.1845,-5.0014 -6.08207,-10.1061 -8.97964,-15.21063c-2.29405,-3.85045 -4.39747,-7.80209 -6.59719,-11.75195c-2.80127,-5.10667 -5.50427,-10.11783 -8.30355,-15.12706c-1.5962,-2.69541 -3.28871,-5.38889 -4.8849,-8.08449c-1.64307,-0.25894 -8.28199,0.16816 -11.06487,0.71177c-0.18667,0.29609 -0.08444,0.58632 0.1141,0.87459c2.39035,3.8485 4.30314,7.9015 6.50286,11.85117c1.0006,1.8308 2.38244,3.45887 3.19241,5.39103c0.20446,0.58025 0.50524,1.15875 0.7097,1.73921c0.30474,0.77322 0.02769,1.36325 -0.63852,1.76658c-0.47558,0.30196 -1.04944,0.50841 -1.72356,0.5221c-5.19044,0.59249 -10.38087,1.185 -15.57527,1.58277c-6.44435,0.52045 -12.79041,1.13642 -19.14242,1.4604c-4.33163,0.18526 -8.56102,0.66093 -12.8887,1.04111c-4.90549,0.39172 -9.81098,0.78361 -14.71844,1.07826c-5.48527,0.30618 -10.87426,0.61042 -16.35756,1.01405c-3.2723,0.16394 -6.63695,0.52436 -9.90727,0.78578c-4.32965,0.28272 -8.56102,0.66093 -12.89067,0.94366c-6.44632,0.42318 -12.89265,0.84639 -19.33898,1.26938c-5.96482,0.41342 -12.02986,0.63405 -17.99469,1.04749c-4.32767,0.38018 -8.75165,0.76231 -13.07933,1.14229c-0.38323,0.10528 -0.76843,0.11312 -1.15365,0.12093c-1.63318,0.22797 -2.70634,-0.43216 -3.79138,-1.67664c-4.13763,-4.49494 -7.89797,-9.38732 -11.84497,-13.98342c-2.56516,-2.96824 -2.56516,-2.96824 -6.31305,-2.50234c-4.03679,0.47157 -8.07357,0.94335 -12.10838,1.51238c-0.38521,0.00782 -0.76844,0.11311 -1.04747,0.60587c1.18727,1.5347 2.37652,3.16668 3.66008,4.69944c6.62231,8.24402 13.43327,16.2894 20.43288,24.13615c4.8335,5.55251 9.76132,11.00562 14.40618,16.75675c0.69191,0.86266 1.47815,1.62612 2.16808,2.39152c2.12458,0.24916 4.04273,-0.1794 6.0631,-0.31791c5.7742,-0.31205 11.54638,-0.72156 17.3186,-1.13106c5.4833,-0.40364 10.87228,-0.70787 16.35558,-1.11151c4.71486,-0.29053 9.3354,-0.48186 14.04828,-0.86985c8.65536,-0.76016 17.31069,-1.5205 25.96801,-2.1834c4.23335,-0.28077 8.4667,-0.56153 12.69806,-0.93974c6.82954,-0.52847 13.75344,-1.15616 20.6793,-1.68639c3.94444,-0.27509 7.79456,-0.45057 11.73702,-0.82293c9.32946,-0.77405 18.56263,-1.54611 27.89803,-2.02779c6.64091,-0.32984 13.18354,-0.75479 19.82246,-1.18191c2.69449,-0.15221 5.387,-0.40167 8.27211,-0.65507c-0.31463,-1.26013 -1.10085,-2.02357 -1.70241,-3.18056zM252.65145,270.34761c-1.97944,-2.59013 -3.86059,-5.08516 -5.83805,-7.57803c-0.58967,-0.57243 -1.18134,-1.24252 -0.81787,-2.32142c1.24205,-0.51251 2.59226,-0.44243 3.84419,-0.46785c0.57781,-0.01173 0.97093,0.37008 1.36405,0.75171c0.98873,1.24643 2.07376,2.49092 3.0625,3.73737c1.08899,1.4392 2.18193,3.07332 3.27091,4.51253c0.59166,0.66989 1.18331,1.33998 1.77497,2.00988c0.77635,0.27654 1.45046,0.26285 2.11865,-0.04303c-0.01187,-0.58437 -0.40696,-1.06344 -0.70377,-1.44702c-1.97745,-2.49287 -3.85664,-4.89044 -5.7378,-7.38527c-0.49536,-0.67185 -1.08504,-1.24447 -0.81788,-2.32161c1.24007,-0.60958 2.68856,-0.44421 4.03678,-0.47158c0.67412,-0.01369 0.97292,0.46735 1.36604,0.84917c1.08504,1.24448 2.17006,2.48895 3.16274,3.93013c1.38778,1.92024 2.77753,3.93795 4.35595,5.75701c0.68795,0.66794 1.36603,0.84917 2.22485,0.44193c0.27902,-0.49278 -0.11212,-0.77714 -0.31065,-1.0654c-1.88313,-2.5921 -3.86454,-5.27988 -5.74768,-7.87196c-0.49536,-0.67204 -1.08701,-1.34193 -1.01246,-2.41517c1.33043,-0.90372 2.77893,-0.73835 4.32372,-0.57491c0.5798,0.08572 0.88056,0.66403 1.27368,1.04585c1.67471,1.81711 2.96619,3.73931 4.35595,5.75701c1.09295,1.63392 2.28218,3.26609 3.4734,4.99553c2.21298,-0.14243 4.32768,-0.38018 6.44435,-0.52046c0.37532,-0.49491 -0.01978,-0.974 -0.21831,-1.26208c-1.18924,-1.63218 -2.47282,-3.16491 -3.66207,-4.79689c-0.89045,-1.15113 -1.78091,-2.30205 -2.67135,-3.45319c-0.3951,-0.47909 -0.69587,-1.05738 -0.51907,-1.84038c1.2361,-0.80451 2.6846,-0.63912 4.13113,-0.57099c0.48152,-0.00978 0.7803,0.47127 1.07514,0.75758c1.18134,1.24252 2.26835,2.58428 3.25905,3.92817c1.5883,2.30596 3.08028,4.61389 5.14415,6.61771c0.67609,0.08377 1.25589,0.16949 1.92209,-0.23384c-0.01186,-0.58416 -0.30868,-0.96795 -0.60748,-1.44898c-1.28753,-1.72747 -2.57307,-3.35768 -3.85861,-4.98771c-0.79019,-0.95816 -1.58237,-2.01379 -2.27625,-2.97393c-0.29683,-0.38377 -0.49535,-0.67204 -0.59956,-1.05953c-0.10025,-0.19277 -0.10619,-0.48495 -0.11213,-0.77713c1.33044,-0.90392 2.87721,-0.64304 4.41804,-0.6743c1.66483,1.3302 2.95037,2.96023 4.14159,4.68984c1.58829,2.30578 3.17658,4.61175 5.14416,6.61771c1.93,0.15562 6.06507,-0.22044 7.69429,-0.64333c0.1847,-0.39335 -0.11015,-0.67967 -0.30869,-0.96795c-1.48409,-1.91828 -3.06643,-3.93208 -4.55053,-5.85056c-0.59364,-0.76735 -1.18727,-1.53471 -1.78287,-2.39934c-0.3951,-0.47909 -0.59759,-0.96208 -0.41883,-1.64781c1.2361,-0.80451 2.6846,-0.63893 4.13111,-0.57098c0.48152,-0.00978 0.7803,0.47126 1.07516,0.75758c1.08306,1.14721 2.07179,2.39365 3.0625,3.73737c1.18924,1.63218 2.28021,3.16882 3.46747,4.70335c0.2988,0.48123 0.79019,0.95836 1.18529,1.43745c0.69191,0.86266 1.55665,0.7478 2.50782,0.14388c-1.00256,-1.92807 -2.48073,-3.55436 -3.76825,-5.28184c-1.28753,-1.72747 -2.86,-3.25437 -3.67392,-5.38125c1.52107,-1.0051 2.96955,-0.83971 4.51436,-0.67608c0.38719,0.08944 0.78228,0.56853 1.07711,0.85483c1.08306,1.14721 2.07178,2.39365 3.0625,3.73736c1.09096,1.53667 2.17994,2.97587 3.27091,4.51253c0.3951,0.47909 0.79019,0.95837 1.18529,1.43745c0.5956,0.8646 1.36801,0.94643 2.22682,0.53919c0.27902,-0.49278 0.07852,-0.87831 -0.21831,-1.26208c-1.28753,-1.72747 -2.57308,-3.35749 -3.85861,-4.98771c-0.89046,-1.15093 -1.77893,-2.20461 -2.57306,-3.35749c-0.49338,-0.57459 -0.49338,-0.57459 -0.42475,-1.93998c1.14772,-0.41291 2.40359,-0.24361 3.65356,-0.3665c0.67412,-0.01369 1.16354,0.36618 1.55863,0.84526c1.18134,1.24252 2.26835,2.58446 3.25905,3.92817c1.5883,2.30596 3.1766,4.61195 5.24244,6.71342c2.50781,0.14389 5.10006,-0.29855 7.59997,-0.54412c0.08049,-0.78104 -0.31263,-1.16266 -0.61142,-1.6437c-1.28753,-1.72768 -2.57308,-3.35768 -3.85862,-4.98789c-0.79019,-0.95816 -1.58236,-2.01379 -2.27624,-2.9739c-0.2988,-0.48104 -0.69588,-1.05758 -0.51909,-1.84057c1.23611,-0.80431 2.6846,-0.63893 4.13111,-0.57098c0.48152,-0.00978 0.7803,0.47126 1.07516,0.75758c1.18134,1.24252 2.26635,2.487 3.25904,3.92835c1.58631,2.20851 3.08029,4.6137 5.14416,6.61772c0.5798,0.08572 1.25786,0.26675 1.92407,-0.13638c-0.01187,-0.58437 -0.30868,-0.96794 -0.60748,-1.44918c-1.28753,-1.72747 -2.57306,-3.35749 -3.85861,-4.98772c-0.79019,-0.95816 -1.58236,-2.01378 -2.27624,-2.97389c-0.3951,-0.47909 -0.69588,-1.05758 -0.61538,-1.83863c1.33043,-0.90372 2.77893,-0.73834 4.32373,-0.57489c0.38719,0.08963 0.78229,0.56871 1.07713,0.85503c1.27566,1.14311 2.26636,2.487 3.25905,3.92817c1.5883,2.30596 3.1766,4.61195 5.24244,6.71323c1.73345,-0.0352 3.56121,-0.16962 5.38898,-0.30422c0.27309,-0.78495 -0.12201,-1.26403 -0.5171,-1.74311c-1.28554,-1.63001 -2.56911,-3.16277 -3.75836,-4.79495c-0.89046,-1.15093 -1.77893,-2.2046 -2.57306,-3.35749c-0.2988,-0.48123 -0.69587,-1.05758 -0.32648,-1.84448c1.24204,-0.51232 2.69053,-0.34693 4.03876,-0.3743c0.57781,-0.01173 0.97291,0.46735 1.26972,0.85112c1.08504,1.24448 2.07376,2.49091 3.06447,3.83463c1.78091,2.30205 3.27488,4.70745 5.34072,6.80874c0.58177,0.18299 1.15761,0.07399 1.73345,-0.0352c0.09234,-0.19667 0.1847,-0.39336 0.18272,-0.49082c-0.10817,-0.5824 -0.50128,-0.96403 -0.80008,-1.44507c-1.97745,-2.49287 -3.85664,-4.89043 -5.7378,-7.38527c-0.49536,-0.67185 -1.08504,-1.24448 -0.81788,-2.32162c1.24007,-0.60958 2.68855,-0.4442 4.03679,-0.47157c0.57781,-0.01173 0.97291,0.46736 1.26972,0.85093c1.08504,1.24448 2.07376,2.49111 3.06447,3.83481c1.77893,2.2046 3.27487,4.70725 5.33874,6.71126c0.48547,0.18514 1.06329,0.17341 1.53887,-0.12855c0.27705,-0.59023 -0.02373,-1.16872 -0.41883,-1.64781c-1.18727,-1.5347 -2.37453,-3.06922 -3.56179,-4.60393c-0.88847,-1.05367 -1.68263,-2.20675 -2.57109,-3.26022c-0.49338,-0.57459 -0.79415,-1.15309 -0.61934,-2.03335c1.14178,-0.70529 2.59027,-0.53971 3.93852,-0.56708c0.67412,-0.01369 0.97291,0.46736 1.36602,0.84897c1.18134,1.24252 2.26636,2.487 3.25905,3.92817c1.58631,2.20871 3.1766,4.61195 5.24046,6.61596c1.34625,-0.12484 2.79079,-0.15416 4.32569,-0.47745c-0.01779,-0.87655 -0.51513,-1.64585 -0.91418,-2.31965c-3.09413,-5.29553 -6.28258,-10.49183 -9.47302,-15.7854c-2.98933,-0.1341 -5.86851,0.41145 -8.75362,0.66504c-3.17403,0.25927 -6.44236,0.6179 -9.61442,0.97443c-5.57762,0.50305 -11.15327,1.10337 -16.7309,1.60644c-3.55923,0.26708 -7.21476,0.53609 -10.77201,0.90063c-5.86653,0.50872 -11.6348,1.11295 -17.50132,1.62188c-3.55725,0.36453 -7.02019,0.62964 -10.57943,0.89672c-2.98142,0.25535 -5.96085,0.60814 -8.94228,0.86367c-3.26835,0.35848 -6.63498,0.62183 -9.90531,0.88303c-3.94444,0.2749 -7.7906,0.6453 -11.73307,1.01765c-6.34607,0.61596 -12.69213,1.23192 -19.0382,1.84789c-5.47934,0.59836 -10.86436,1.09752 -16.34569,1.59841c-3.84615,0.3704 -7.6943,0.64334 -11.54047,1.01373c-1.24995,0.12288 -2.50188,0.14831 -3.74591,0.56317c0.01384,0.68163 0.31264,1.16287 0.70576,1.54448c2.85012,2.76747 5.03798,6.13297 7.60312,9.10101c0.98477,1.05171 1.97153,2.20068 2.86198,3.35163c0.59167,0.67009 1.17738,1.0478 2.03817,0.73802c0.76646,-0.21036 1.53688,-0.22602 2.20902,-0.33716c0.08642,-0.48887 -0.11409,-0.87439 -0.31263,-1.16266c-1.28554,-1.63001 -2.56911,-3.16277 -3.75836,-4.79494c-0.89046,-1.15093 -1.77893,-2.2046 -2.57306,-3.35749c-0.2988,-0.48123 -0.6939,-0.96032 -0.4228,-1.84253c1.24204,-0.51232 2.68855,-0.44438 4.13506,-0.37626c0.48152,-0.00978 0.77832,0.3738 1.07516,0.75758c0.98674,1.14898 2.06981,2.2962 2.96223,3.54458c1.68657,2.40128 3.37315,4.80276 5.53925,7.0968c0.67808,0.18123 1.54282,0.06617 2.40558,-0.14616c0.08444,-0.58632 -0.2104,-0.87264 -0.40895,-1.16091c-1.4821,-1.82084 -2.96618,-3.73931 -4.45026,-5.6576c-0.79019,-0.95816 -1.58237,-2.01378 -2.27625,-2.97392c-0.3951,-0.47909 -0.39707,-0.57654 -0.42277,-1.84254c1.24204,-0.51232 2.69054,-0.34693 4.03876,-0.3743c0.57781,-0.01173 0.97291,0.46736 1.26972,0.85113c1.08504,1.24448 2.17006,2.48895 3.06446,3.83462c1.39174,2.11516 3.06843,4.02954 4.65078,6.04333c0.59364,0.76735 1.27368,1.04585 2.23474,0.92903c1.05734,-0.11896 2.21297,-0.14244 3.27032,-0.2614c0.08245,-0.68359 -0.11607,-0.97185 0.26914,-0.97967zM372.63866,239.17112c1.0712,0.56286 2.22287,0.34447 3.18192,0.1302c2.39965,-0.43833 4.71486,-0.29053 7.11847,-0.53414c0.28891,-0.00587 0.5778,-0.01173 1.05932,-0.02151c0.52443,-2.64117 0.66167,-5.37179 0.99349,-8.00905c0.32985,-2.73453 0.85425,-5.3757 1.27844,-8.20963c-1.25392,-0.07204 -2.21891,-0.14974 -3.18193,-0.13019c-4.04471,0.08213 -8.0815,0.5537 -12.11828,1.02546c-0.76844,0.11291 -1.63516,0.13051 -2.50188,0.1481c-2.98339,0.15807 -6.05716,0.61009 -9.13489,0.86758c-2.3073,0.24166 -4.61657,0.38603 -6.92387,0.62769c-4.2294,0.47548 -8.46076,0.8537 -12.78844,1.23387c-3.94444,0.2749 -7.98321,0.64921 -11.92369,1.11901c-2.98142,0.25535 -5.97074,0.12122 -8.94228,0.86348c-0.1926,0.00391 -0.2889,0.00587 -0.48152,0.00978c-3.75184,0.27099 -7.40738,0.54001 -11.06291,0.80923c-2.98142,0.25535 -6.05715,0.61009 -9.1329,0.96485c-0.1926,0.00391 -0.2889,0.00587 -0.48152,0.00978c-3.65553,0.26903 -7.40936,0.44256 -11.06291,0.80904c-2.78882,0.25143 -5.47934,0.59836 -8.26816,0.84998c-0.38324,0.10508 -0.67214,0.11095 -0.96105,0.11682c-3.94444,0.2749 -7.89087,0.45252 -11.73504,0.92038c-2.11272,0.33501 -4.23533,0.1833 -6.34211,0.81068c-0.19062,0.10118 -0.47953,0.10704 -0.67214,0.11095c-3.07772,0.25749 -6.15741,0.41733 -9.23315,0.77209c-2.78683,0.34889 -5.67195,0.60227 -8.46077,0.8537c-4.04074,0.27704 -8.07754,0.74862 -12.11629,1.12293c-4.32767,0.38018 -8.74769,0.95703 -13.07932,1.14247c-3.27231,0.16375 -6.5367,0.71713 -9.80505,1.07581c-3.07574,0.35477 -6.24779,0.71146 -9.32156,1.16348c-0.38323,0.10528 -0.76646,0.21056 -1.24402,0.41507c-0.34961,1.76072 -0.89183,3.52534 -1.04687,5.37961c-0.15701,1.75681 -0.60292,3.51948 -0.75994,5.27628c-0.15504,1.85426 -0.69726,3.61889 -0.65771,5.56651c1.06526,0.27066 2.02433,0.05639 2.98538,-0.06062c2.30532,-0.33892 4.70895,-0.58271 7.01228,-1.01909c2.11271,-0.3352 4.32568,-0.47763 6.44235,-0.61792c0.67412,-0.01369 1.34427,-0.22208 2.11075,-0.43266c0.36939,-0.78691 0.44592,-1.76267 0.62074,-2.64294c0.25727,-1.56404 0.51454,-3.12808 0.87008,-4.59661c0.26914,-0.97988 0.83311,-1.67323 1.89046,-1.79219c0.47954,-0.10705 0.86078,-0.30958 1.3423,-0.31936c1.92605,-0.03911 3.84813,-0.27313 5.77023,-0.50696c3.74985,-0.36844 7.40934,-0.44275 11.06092,-0.9065c2.97746,-0.45025 5.96482,-0.41342 8.94228,-0.86367c2.20902,-0.33697 4.42397,-0.38193 6.63497,-0.62182c3.17403,-0.25927 6.34607,-0.61596 9.41984,-1.06798c0.1926,-0.00391 0.2889,-0.00587 0.48152,-0.00978c3.75184,-0.27099 7.40935,-0.44275 11.06093,-0.90669c2.59423,-0.34479 5.19835,-0.20287 7.78666,-0.84002c0.38521,-0.00782 0.67412,-0.01369 0.96303,-0.01956c3.56517,0.02511 7.11847,-0.53414 10.57942,-0.89672c2.97944,-0.3528 6.16335,-0.12515 9.13488,-0.86758c0.38324,-0.10508 0.67214,-0.11096 0.96105,-0.11682c3.55923,-0.26708 7.12044,-0.43687 10.57942,-0.89672c2.59423,-0.34498 5.20033,-0.10559 7.78664,-0.84021c0.1926,-0.00391 0.48151,-0.00978 0.67412,-0.01369c3.55923,-0.26708 7.21675,-0.43885 10.774,-0.80319c5.38502,-0.49914 10.67177,-1.0936 16.05678,-1.59274c2.98142,-0.25535 5.86852,-0.41128 8.75165,-0.76211c2.88116,-0.44829 5.77418,-0.31204 8.65138,-0.95507c0.1926,-0.00391 0.2889,-0.00587 0.48152,-0.00978c3.17403,-0.25927 6.25173,-0.51674 9.42576,-0.776c0.38521,-0.00782 0.77042,-0.01564 1.25193,-0.02542c0.25389,3.01497 -0.84636,5.76533 -0.69469,8.49008zM371.09131,234.13648c-1.92407,0.13637 -3.94444,0.2749 -5.86852,0.41145c-3.07575,0.35456 -6.15149,0.70932 -9.22921,0.9668c-5.28872,0.49699 -10.57942,0.89672 -15.86814,1.39371c-5.09611,0.49327 -10.09593,0.98441 -15.19204,1.47768c-2.78882,0.25143 -5.67392,0.50482 -8.46274,0.75625c-5.96086,0.60833 -11.92172,1.21647 -17.88455,1.72716c-2.98142,0.25535 -5.96283,0.51087 -8.94425,0.76622c-5.19242,0.49504 -10.38484,0.99027 -15.57726,1.4853c-2.69251,0.24948 -5.38503,0.49914 -8.07753,0.74861c-5.86456,0.60618 -11.63282,1.21042 -17.49934,1.71933c-5.09611,0.49308 -10.29052,0.89087 -15.38662,1.38394c-5.09611,0.49327 -10.28854,0.98831 -15.38464,1.48159c-0.1926,0.00391 -0.38323,0.1051 -0.76646,0.21036c-0.34171,2.15036 -0.87602,4.30443 -1.02116,6.64559c1.54282,0.06617 2.88907,-0.05866 4.23532,-0.18349c3.94246,-0.37216 7.98124,-0.74647 11.9237,-1.11883c6.92388,-0.62769 13.94208,-1.3548 20.86399,-2.07994c6.05715,-0.61009 12.11632,-1.12274 18.17346,-1.73283c6.92388,-0.62769 13.75145,-1.25343 20.67533,-1.88132c3.26835,-0.35848 6.63498,-0.62183 9.90531,-0.88303c5.38502,-0.49895 10.67374,-0.99613 16.05876,-1.49508c3.17402,-0.25945 6.25173,-0.51674 9.42576,-0.776c4.13506,-0.37626 8.36644,-0.75448 12.59781,-1.13269c6.92388,-0.62769 13.75146,-1.25342 20.67535,-1.88112c2.78882,-0.25143 5.48132,-0.50091 8.27013,-0.75253c0.67214,-0.11095 1.3423,-0.31937 2.11075,-0.43247c-0.43466,-2.42669 0.39253,-4.39211 0.2468,-6.82467zM416.64543,290.30228c0.32588,-2.92944 0.65177,-5.85869 0.97766,-8.78813c0.25332,-1.75876 -0.35615,-3.3052 -1.06388,-4.94696c-2.22147,-5.02095 -5.11114,-9.73621 -7.52324,-14.65579c-1.30532,-2.60401 -2.80127,-5.10667 -4.29919,-7.70677c-3.79591,-6.64509 -7.40122,-13.39175 -10.9122,-20.23743c-1.50385,-2.89228 -3.10205,-5.68517 -4.6059,-8.57726c-0.19656,-0.19101 -0.39509,-0.47909 -0.69191,-0.86286c-0.37137,0.68945 -0.55409,1.18026 -0.63852,1.76657c-0.41427,3.32084 -0.63398,6.73524 -1.33914,9.96449c-0.43801,2.15232 0.17343,3.79601 1.26636,5.43014c5.17185,7.98117 9.38857,16.37153 13.98854,24.65662c4.40142,7.99681 8.80087,15.89636 13.67986,23.68867c0.19853,0.28827 0.49338,0.57459 0.79217,1.05562c0.28298,-0.29805 0.3773,-0.39746 0.36939,-0.78691z" data-paper-data="{&quot;index&quot;:null}" fill="#000000"/><path d="M407.20442,295.07292c-6.63892,0.42711 -13.18155,0.85226 -19.82246,1.18192c-9.33539,0.48186 -18.56857,1.25374 -27.89803,2.02779c-3.94444,0.2749 -7.79257,0.54803 -11.73702,0.82291c-6.82956,0.52828 -13.75344,1.15598 -20.6793,1.68639c-4.23335,0.28077 -8.4667,0.56153 -12.69806,0.93974c-8.65535,0.76035 -17.31069,1.5207 -25.96802,2.18359c-4.71486,0.29053 -9.33342,0.57912 -14.04828,0.86966c-5.4833,0.40364 -10.87227,0.70805 -16.35558,1.11151c-5.77221,0.4095 -11.54441,0.819 -17.3186,1.13106c-2.02036,0.13853 -4.03482,0.56904 -6.0631,0.31811c-0.68993,-0.7654 -1.47617,-1.52884 -2.16808,-2.3917c-4.64485,-5.75115 -9.47637,-11.2062 -14.40618,-16.75675c-6.99962,-7.84675 -13.81256,-15.9894 -20.43289,-24.13616c-1.28357,-1.53275 -2.47281,-3.16472 -3.66008,-4.69944c0.27902,-0.49278 0.66226,-0.59805 1.04747,-0.60587c4.03679,-0.47157 8.0716,-1.0406 12.10838,-1.51238c3.74788,-0.46572 3.74789,-0.46571 6.31304,2.50234c4.04331,4.59435 7.70735,9.48849 11.84497,13.98342c1.18134,1.24252 2.15819,1.9046 3.79138,1.67664c0.38324,-0.10508 0.76844,-0.11291 1.15365,-0.12073c4.32767,-0.38018 8.74967,-0.85976 13.07932,-1.14247c5.96482,-0.41342 12.02988,-0.63387 17.99469,-1.04728c6.44632,-0.42318 12.89265,-0.8464 19.33897,-1.26958c4.32965,-0.28272 8.56299,-0.56348 12.89067,-0.94366c3.27032,-0.26121 6.63694,-0.52456 9.90727,-0.78577c5.48527,-0.30618 10.87426,-0.61042 16.35756,-1.01405c4.90746,-0.29444 9.81296,-0.68636 14.71844,-1.07826c4.32965,-0.28272 8.55707,-0.85566 12.8887,-1.04111c6.4483,-0.32573 12.79436,-0.9417 19.14242,-1.4604c5.19242,-0.49504 10.38286,-1.08753 15.57527,-1.58277c0.57584,-0.10919 1.15168,-0.21819 1.72356,-0.5221c0.66622,-0.40313 0.94325,-0.99337 0.63852,-1.76659c-0.20447,-0.58045 -0.50524,-1.15894 -0.7097,-1.73921c-0.80997,-1.93216 -2.19183,-3.56022 -3.19241,-5.39103c-2.19971,-3.94968 -4.11252,-8.00268 -6.50286,-11.85117c-0.19853,-0.28827 -0.30077,-0.57849 -0.11409,-0.87439c2.78288,-0.5438 9.4218,-0.97072 11.06487,-0.71197c1.59423,2.59816 3.28674,5.29162 4.8849,8.08449c2.79929,5.00941 5.50427,10.11783 8.30355,15.12706c2.19972,3.94986 4.39747,7.80209 6.59719,11.75195c2.89756,5.10471 5.79513,10.20923 8.97964,15.21063c0.59561,0.86482 1.38383,1.72572 1.69844,2.98584c-2.88511,0.25339 -5.57763,0.50285 -8.26816,0.84978zM340.06074,285.91436c-2.18983,-3.46277 -4.474,-6.82632 -6.37889,-10.48968c-0.30078,-0.5785 -0.69784,-1.15504 -0.90429,-1.83275c-0.3067,-0.87048 -0.89046,-1.15092 -1.75718,-1.13333c-1.15563,0.02346 -2.40756,0.04889 -3.65751,0.17157c-0.57781,0.01173 -1.24995,0.12288 -1.82777,0.13461c-7.02414,0.43492 -14.14853,0.67689 -21.17069,1.20927c-5.38898,0.30422 -10.68165,0.6065 -16.06074,1.39782c-3.65157,0.46375 -7.30515,0.83024 -10.9587,1.19672c-0.76844,0.11291 -1.63516,0.13052 -2.20309,0.62934c-0.46966,0.59395 -0.17086,1.07499 0.02965,1.46071c0.71564,2.03138 2.09947,3.7569 3.19636,5.58575c1.69647,2.88818 3.48922,5.77461 5.37828,8.65888c1.59423,2.59816 3.38106,5.19239 5.26023,7.58976c0.58374,0.28044 1.25589,0.1693 1.8337,0.15757c4.90746,-0.29444 9.81692,-0.49163 14.72438,-0.78608c5.29268,-0.30226 10.68166,-0.60649 16.07063,-0.91073c4.13704,-0.279 8.27409,-0.5578 12.41113,-0.8366c2.78882,-0.25143 5.48528,-0.3062 8.27606,-0.46036c0.86475,-0.11506 1.63318,-0.22797 2.49793,-0.34303c0.48152,-0.00978 0.76251,-0.40509 1.03956,-0.99532c-1.90093,-3.46864 -3.7095,-7.13415 -5.79909,-10.40415zM219.26618,272.58431c-2.96026,-3.44714 -5.44691,-7.29367 -8.21851,-10.93944c-0.79415,-1.15309 -1.6668,-1.42767 -2.91478,-1.20732c-1.05537,0.21624 -2.1147,0.23775 -3.17204,0.35652c-0.96105,0.11701 -1.82579,0.23207 -2.48803,0.82992c-0.17876,0.68573 0.21634,1.16482 0.51315,1.54839c2.86593,3.54654 5.73185,7.09309 8.59779,10.63962c0.98873,1.24643 2.1582,1.90459 3.78941,1.57918c1.3423,-0.31937 2.78683,-0.3487 4.13309,-0.47353c0.28891,-0.00587 0.57584,-0.10919 0.85486,-0.60196c-0.11014,-0.67967 -0.60352,-1.25426 -1.09491,-1.73139zM257.53637,278.4321c-1.72158,0.61957 -2.36406,2.19143 -1.75064,3.93258c1.11864,2.89992 6.14811,3.8695 8.22327,1.68414c1.60353,-1.68887 1.06664,-4.4058 -1.07376,-5.43405c-0.87463,-0.37204 -1.84556,-0.74192 -2.90291,-0.62298c-0.7724,-0.08181 -1.63516,0.13051 -2.49596,0.44029zM262.4371,287.29568c-1.14575,0.51037 -1.70378,1.49591 -1.67808,2.7619c0.02571,1.26598 1.01839,2.70734 2.18193,3.07333c1.64703,0.45366 3.2901,0.7126 4.9134,-0.00226c0.19063,-0.10138 0.47754,-0.2047 0.76251,-0.40529c1.70773,-1.30119 1.76252,-3.34822 0.09572,-4.77569c-0.88253,-0.76148 -2.43524,-1.31456 -3.87977,-1.28523c-0.86871,-0.07967 -1.63121,0.32542 -2.3957,0.63326zM229.20289,287.4834c1.53886,-0.12874 2.86931,-1.03247 3.13448,-2.20706c0.3516,-1.66326 -0.55269,-3.49601 -2.20369,-4.14441c-1.65296,-0.74584 -3.28614,-0.51788 -4.71684,0.19309c-2.1932,1.11625 -2.3344,3.65214 -0.47301,5.17315c0.88057,0.66403 2.14041,1.02824 3.68125,0.99696c0.1926,-0.00391 0.3852,-0.00782 0.57781,-0.01173zM240.92747,281.30236c-0.84893,0.89414 -0.92941,1.67519 -0.32985,2.73453c1.39965,2.50479 5.46213,3.29902 7.6415,1.50114c1.42279,-1.1006 1.48746,-2.66073 0.30413,-4.00052c-1.08504,-1.24448 -2.44512,-1.80145 -4.07833,-1.5735c-1.4485,-0.1654 -2.59226,0.44244 -3.53748,1.33834zM243.60455,299.2715c-1.4742,-1.43138 -4.17659,-1.66881 -5.98657,-0.65766c-1.71367,1.00901 -1.86474,3.058 -0.48685,4.49133c1.28158,1.43529 5.14159,1.74672 6.47204,0.8428c0.85685,-0.50451 1.22621,-1.29141 1.20053,-2.5574c-0.01583,-0.77908 -0.60748,-1.44898 -1.19913,-2.11907zM230.12895,290.38722c-1.04548,0.70334 -1.40498,1.97714 -0.80542,3.03668c1.80068,3.27587 6.33281,3.47595 8.21339,1.19705c0.94126,-1.09083 0.71307,-2.83981 -0.36405,-3.69464c-0.97883,-0.75953 -2.91873,-1.40225 -4.55588,-1.369c-0.67412,0.01369 -1.63517,0.13071 -2.48804,0.82993zM267.25339,296.74558c-1.13586,0.99728 -1.20249,2.45994 -0.31206,3.61087c0.3951,0.47909 0.88649,0.9564 1.46827,1.13939c1.26182,0.46148 2.614,0.62883 4.05459,0.40478c0.57584,-0.10919 1.14772,-0.4131 1.62132,-0.81233c1.79812,-1.59532 1.35753,-4.31421 -0.96955,-5.04636c-0.97093,-0.37008 -1.93396,-0.35053 -2.99724,-0.52375c-0.95906,0.21428 -2.01247,0.52797 -2.86534,1.22738zM251.47366,297.7479c-1.03955,0.99531 -1.21041,2.0705 -0.41427,3.32084c0.19853,0.28827 0.49536,0.67185 0.78822,0.8607c1.46431,0.94467 3.11134,1.39833 4.83687,0.9735c0.67016,-0.20841 1.14574,-0.51037 1.61933,-0.90959c1.2282,-1.19414 1.39708,-2.36658 0.31007,-3.70853c-0.98873,-1.24643 -2.25252,-1.80538 -3.69507,-1.6786c-1.35021,-0.07008 -2.40558,0.14634 -3.44512,1.14167zM252.94528,294.30808c1.52501,-0.81037 1.77833,-2.56913 0.69131,-3.91108c-1.4821,-1.82084 -4.38502,-2.444 -6.4839,-1.42696c-2.00455,0.91741 -2.34626,3.06778 -0.77379,4.59466c1.17936,1.14507 2.44118,1.60656 3.98003,1.47802c0.96302,-0.01955 1.8258,-0.23207 2.58632,-0.73461zM344.52308,277.93238c2.40756,-0.04889 4.71881,-0.09581 7.12242,-0.33942c0.86475,-0.11506 1.63911,0.06421 2.49991,-0.24557c0.67015,-0.20862 1.04943,-0.50842 1.1319,-1.1922c-0.49536,-0.67185 -1.26578,-0.6562 -1.93989,-0.64251c-2.98538,0.06062 -5.87246,0.21673 -8.75561,0.56739c-0.76843,0.11311 -1.53688,0.22621 -1.9043,1.11037c0.40104,0.77126 1.07713,0.85503 1.84556,0.74193zM373.74224,279.2875c-2.98538,0.06062 -5.87246,0.21673 -8.75561,0.56759c-0.76843,0.11311 -1.53688,0.22602 -1.90429,1.11037c0.40104,0.77126 1.07712,0.85484 1.75124,0.84114c2.40756,-0.04889 4.71881,-0.0958 7.12242,-0.33942c0.86475,-0.11506 1.63911,0.06421 2.49991,-0.24557c0.67016,-0.20841 1.04943,-0.50841 1.13189,-1.19219c-0.49536,-0.67185 -1.17144,-0.75563 -1.84556,-0.74193zM395.41282,283.71874c-3.07376,0.45221 -6.15939,0.32006 -9.1329,0.96485c-0.57584,0.10919 -1.05537,0.21643 -1.2361,0.80451c0.00989,0.4869 0.39708,0.57653 0.78623,0.76344c0.58374,0.28044 1.25589,0.1693 1.8337,0.15757c2.5962,-0.24752 5.28872,-0.49699 7.9832,-0.6492c0.57781,-0.01173 1.15168,-0.21819 1.72356,-0.5221c0.38125,-0.20255 0.46966,-0.59395 0.36346,-1.0791c-0.77832,-0.3738 -1.55469,-0.65034 -2.32115,-0.43997zM370.84863,274.3777c-2.97746,0.45006 -5.96679,0.31595 -8.94031,0.96094c-0.57584,0.10919 -1.15365,0.12093 -1.33045,0.90373c0.10817,0.5824 0.68797,0.66813 1.07516,0.75758c0.7724,0.08181 1.54481,0.16362 2.31324,0.05052c2.11271,-0.3352 4.32767,-0.38018 6.44435,-0.52045c0.86475,-0.11506 1.73147,-0.13265 2.49397,-0.53793c0.38125,-0.20255 0.66424,-0.50059 0.55409,-1.18027c-0.77832,-0.3738 -1.55469,-0.65034 -2.61006,-0.43412zM347.4873,281.57441c-0.38324,0.10508 -0.86276,0.21233 -1.24204,0.51232c-0.28495,0.20059 -0.37533,0.49473 -0.27309,0.78495c0.10025,0.19277 0.2988,0.48105 0.4914,0.47713c0.38719,0.08944 0.87067,0.17713 1.35021,0.06988c2.40163,-0.34088 4.71091,-0.48527 7.11648,-0.63161c1.05736,-0.11878 2.11271,-0.3352 3.06586,-0.84167c0.28694,-0.10313 0.47361,-0.39922 0.46767,-0.6914c-0.00594,-0.29217 -0.30077,-0.5785 -0.58968,-0.57263c-0.57781,0.01173 -1.0613,-0.07575 -1.73542,-0.06207c-2.78882,0.25143 -5.67195,0.60227 -8.65138,0.95507zM397.92717,288.92873c-1.25193,0.02542 -2.40757,0.04888 -3.65753,0.17158c-1.63517,0.1307 -3.36662,0.26335 -4.9998,0.49132c-0.67214,0.11095 -1.24797,0.22014 -1.82184,0.4266c-0.28693,0.10333 -0.57189,0.30391 -0.56397,0.69356c0.0079,0.38945 0.30076,0.57831 0.59166,0.6699c0.38719,0.08963 0.77438,0.17909 1.15959,0.17125c3.176,-0.16179 6.44631,-0.42319 9.62035,-0.68245c0.57781,-0.01173 1.15167,-0.21818 1.52107,-1.00509c-0.40104,-0.77126 -1.17342,-0.85308 -1.84952,-0.93667zM377.81323,285.2453c-1.25193,0.02542 -2.40757,0.04888 -3.65753,0.17158c-1.73146,0.13265 -3.46095,0.36257 -5.19043,0.59268c-0.57584,0.109 -1.1497,0.31546 -1.72356,0.52211c-0.09432,0.09922 -0.281,0.39531 -0.27704,0.59004c0.00198,0.09746 0.20051,0.38573 0.39509,0.47909c0.48745,0.2824 0.96895,0.27263 1.54676,0.2609c1.25193,-0.02542 2.60016,-0.0528 3.85013,-0.17548c1.63715,-0.03325 3.17401,-0.25945 4.80918,-0.38995c0.86475,-0.11506 1.72949,-0.22992 2.28951,-1.1182c-0.50128,-0.96403 -1.17539,-0.95035 -2.04212,-0.93274zM389.68829,272.24156c-1.25193,0.02542 -2.40756,0.04889 -3.65751,0.17157c-1.72948,0.23013 -3.46095,0.36258 -5.19044,0.59269c-0.47954,0.10705 -1.05339,0.3135 -1.53294,0.42073c-0.28693,0.10333 -0.57189,0.30391 -0.56397,0.69335c0.0079,0.38965 0.30077,0.5785 0.59166,0.67009c0.48349,0.08749 1.06327,0.17321 1.5448,0.16344c1.63715,-0.03325 3.3686,-0.16589 5.00179,-0.39386c1.24798,-0.22015 2.40558,-0.14635 3.65553,-0.26903c0.96302,-0.01955 0.96105,-0.11701 2.09888,-1.01682c-0.49931,-0.86676 -1.17343,-0.85308 -1.9478,-1.03216zM383.01298,280.36598c1.54084,-0.0313 3.08167,-0.06258 4.62052,-0.19131c1.44455,-0.02933 2.98142,-0.25535 4.52028,-0.38408c1.05734,-0.11896 1.05735,-0.11897 2.19715,-0.92152c0.08444,-0.58612 -0.30472,-0.77303 -0.78821,-0.8607c-0.5798,-0.08572 -1.15761,-0.07399 -1.63912,-0.06422c-2.6925,0.24966 -5.48132,0.5011 -8.17383,0.75058c-0.77042,0.01564 -1.53886,0.12874 -2.19913,0.82406c0.21237,0.96989 0.88848,1.05368 1.46234,0.84722zM353.71708,294.21055c2.78881,-0.25162 5.67392,-0.50501 8.46275,-0.75644c0.76843,-0.11311 1.5349,-0.32347 2.20112,-0.7266c0.38125,-0.20274 0.46964,-0.59414 0.36542,-0.98183c-0.48942,-0.37966 -1.06722,-0.36794 -1.54874,-0.35815c-2.98142,0.25535 -5.96283,0.51068 -8.94229,0.86348c-0.57584,0.10919 -1.05339,0.31368 -1.53095,0.51819c-0.57386,0.20666 -0.56397,0.69355 -0.36148,1.17655c0.39312,0.38162 0.8766,0.46931 1.35416,0.26481zM371.51126,292.77754c2.59819,-0.15025 5.19637,-0.30031 7.79456,-0.45057c0.86671,-0.01761 1.53885,-0.12874 2.20308,-0.62933c0.28495,-0.20059 0.47163,-0.49669 0.2731,-0.78496c-0.10025,-0.19277 -0.2988,-0.48104 -0.4914,-0.47713c-0.38719,-0.08944 -0.87067,-0.17713 -1.35219,-0.16734c-2.59819,0.15025 -5.19836,0.20305 -7.79653,0.35311c-0.77042,0.01564 -1.53689,0.22601 -2.20507,0.53188c-0.28693,0.10333 -0.47359,0.39942 -0.56002,0.88828c0.68598,0.57067 1.36208,0.65424 2.13447,0.73607zM351.00618,288.80974c2.59226,-0.44243 5.29268,-0.30227 7.98716,-0.45448c0.76843,-0.11311 1.53885,-0.12875 2.1048,-0.72465c0.09433,-0.09941 0.1847,-0.39355 0.18074,-0.58828c-0.00396,-0.19473 -0.20052,-0.38554 -0.3951,-0.47909c-0.4835,-0.08769 -0.87067,-0.17713 -1.35219,-0.16734c-2.69448,0.15202 -5.29465,0.20482 -7.98915,0.35703c-0.96105,0.11701 -2.01839,0.23579 -2.76706,1.3227c0.78623,0.76344 1.46431,0.94447 2.23077,0.73411z" data-paper-data="{&quot;index&quot;:null}" fill="#216aff"/><path d="M248.42996,271.21273c-0.96105,0.11701 -1.6411,-0.16148 -2.23473,-0.92883c-1.58037,-1.91633 -3.16273,-3.93013 -4.65078,-6.04333c-0.9907,-1.34388 -1.97944,-2.59034 -3.06448,-3.83481c-0.29681,-0.38358 -0.69191,-0.86266 -1.26972,-0.85093c-1.35021,-0.07008 -2.70043,-0.13996 -4.03876,0.3743c0.12399,1.3613 0.02768,1.36326 0.42278,1.84234c0.79216,1.05563 1.48606,2.01574 2.27624,2.97389c1.4821,1.82102 2.96619,3.73951 4.45028,5.6578c0.29484,0.28632 0.58968,0.57263 0.40894,1.16071c-0.86276,0.21252 -1.72752,0.32739 -2.40558,0.14635c-2.16413,-2.19678 -3.75638,-4.69747 -5.53926,-7.097c-0.89243,-1.2484 -1.97548,-2.39541 -2.96223,-3.54458c-0.29681,-0.38358 -0.59364,-0.76735 -1.07516,-0.75758c-1.44652,-0.06792 -2.89302,-0.13607 -4.13506,0.37625c-0.27309,0.78495 0.02768,1.36345 0.42278,1.84254c0.89046,1.15093 1.6846,2.30401 2.57307,3.35769c1.28554,1.63001 2.47281,3.16472 3.75836,4.79494c0.29484,0.28612 0.39905,0.67382 0.31264,1.16266c-0.76843,0.11311 -1.53886,0.12874 -2.20902,0.33715c-0.95709,0.31174 -1.54282,-0.06618 -2.03817,-0.73802c-0.98675,-1.14918 -1.87523,-2.20264 -2.86198,-3.35181c-2.47084,-3.06746 -4.75302,-6.33355 -7.60313,-9.10082c-0.39312,-0.38182 -0.6919,-0.86286 -0.70575,-1.54448c1.14772,-0.4131 2.49595,-0.44049 3.74591,-0.56317c3.84615,-0.3704 7.6943,-0.64353 11.54047,-1.01373c5.48132,-0.5011 10.86436,-1.09752 16.34569,-1.59841c6.34607,-0.61596 12.69214,-1.23211 19.0382,-1.84807c3.94247,-0.37234 7.7906,-0.6453 11.73307,-1.01765c3.26835,-0.35848 6.63497,-0.62182 9.9053,-0.88303c2.98142,-0.25535 5.96084,-0.60814 8.94228,-0.86348c3.55725,-0.36453 7.02019,-0.62964 10.57942,-0.89691c5.86653,-0.50872 11.63479,-1.11295 17.50131,-1.62187c3.55923,-0.26708 7.21476,-0.5361 10.77201,-0.90063c5.57763,-0.50286 11.15326,-1.10338 16.7309,-1.60623c3.17205,-0.35671 6.4404,-0.71538 9.61441,-0.97462c2.8871,-0.15612 5.76431,-0.79895 8.75362,-0.66484c3.19043,5.29358 6.37888,10.48968 9.47301,15.78521c0.39906,0.674 0.8944,1.34585 0.91418,2.31965c-1.53294,0.42092 -2.97944,0.3528 -4.32568,0.47763c-2.06387,-2.00401 -3.65218,-4.31 -5.24046,-6.61596c-0.9907,-1.34388 -2.07772,-2.68564 -3.25905,-3.92817c-0.39312,-0.38182 -0.78821,-0.8609 -1.36603,-0.84917c-1.34823,0.02738 -2.70041,-0.13997 -3.93852,0.56708c-0.17482,0.88046 0.22226,1.4568 0.61933,2.03334c0.88847,1.05367 1.68262,2.20656 2.57109,3.26022c1.18727,1.5347 2.37453,3.06941 3.5618,4.60413c0.2988,0.48104 0.69389,0.96011 0.41883,1.64761c-0.47558,0.30196 -1.05339,0.31369 -1.53886,0.12875c-2.06387,-2.00401 -3.65413,-4.40725 -5.33874,-6.71126c-0.9907,-1.34388 -1.97944,-2.59033 -3.06447,-3.8348c-0.29681,-0.38358 -0.69191,-0.86286 -1.26972,-0.85113c-1.34823,0.02738 -2.69844,-0.0425 -4.03678,0.47177c-0.26915,0.97968 0.32252,1.64957 0.81788,2.32162c1.97745,2.49287 3.85861,4.98772 5.7378,7.38507c0.3951,0.47909 0.6919,0.86286 0.80008,1.44526c0.00197,0.09726 -0.09037,0.29394 -0.18272,0.49082c-0.57584,0.109 -1.15168,0.21819 -1.73345,0.0352c-2.06586,-2.10146 -3.65612,-4.50471 -5.34072,-6.80873c-0.9907,-1.34388 -1.97944,-2.59034 -3.06448,-3.83481c-0.29681,-0.38358 -0.69191,-0.86266 -1.26972,-0.85093c-1.44651,-0.06812 -2.79671,-0.13821 -4.03876,0.37412c-0.36939,0.78691 -0.06862,1.3654 0.32649,1.84448c0.89045,1.15113 1.6846,2.30401 2.57307,3.35769c1.28554,1.63001 2.56911,3.16277 3.75835,4.79494c0.2988,0.48104 0.7902,0.95816 0.51711,1.74312c-1.82974,0.03715 -3.65752,0.17158 -5.38898,0.30422c-2.06586,-2.10146 -3.65414,-4.40725 -5.24244,-6.71323c-0.9907,-1.34388 -2.07772,-2.68583 -3.25905,-3.92835c-0.29681,-0.38358 -0.69191,-0.86266 -1.07711,-0.85483c-1.4485,-0.1654 -2.99328,-0.32901 -4.32372,0.5749c-0.08049,0.78104 0.22028,1.35954 0.61537,1.83862c0.79217,1.05542 1.48607,2.01574 2.27625,2.97392c1.28753,1.72747 2.57306,3.35749 3.8586,4.9877c0.29681,0.38358 0.59561,0.86482 0.60748,1.44898c-0.66621,0.40334 -1.34427,0.22209 -1.92407,0.13657c-1.96758,-2.00596 -3.55586,-4.31194 -5.14415,-6.61791c-0.9907,-1.3437 -2.07773,-2.68565 -3.25905,-3.92817c-0.29484,-0.28632 -0.59364,-0.76735 -1.07516,-0.75758c-1.35021,-0.07008 -2.895,-0.23352 -4.13111,0.57098c-0.17679,0.78299 0.12399,1.36149 0.51909,1.84057c0.79216,1.05563 1.48607,2.01575 2.27625,2.97393c1.28753,1.72747 2.57307,3.35769 3.85861,4.98771c0.29683,0.38377 0.59562,0.86481 0.61143,1.6439c-2.5962,0.24752 -5.09217,0.68782 -7.59998,0.54392c-2.06586,-2.10146 -3.65414,-4.40724 -5.24244,-6.71323c-0.9907,-1.34388 -2.07772,-2.68583 -3.25904,-3.92836c-0.3951,-0.47909 -0.88451,-0.85875 -1.55863,-0.84506c-1.25193,0.02542 -2.50585,-0.04662 -3.65356,0.3665c0.02571,1.26598 -0.0706,1.26794 0.42476,1.93979c0.89045,1.15113 1.68262,2.20656 2.57307,3.35769c1.28554,1.63001 2.57308,3.35749 3.85861,4.98771c0.29681,0.38358 0.59364,0.76735 0.21831,1.26208c-0.86079,0.30978 -1.63317,0.22797 -2.22681,-0.53939c-0.3951,-0.47909 -0.79019,-0.95816 -1.18529,-1.43725c-1.09096,-1.53667 -2.17994,-2.97587 -3.27091,-4.51253c-0.89243,-1.2484 -1.88314,-2.59228 -3.0625,-3.73737c-0.29683,-0.38377 -0.69191,-0.86285 -1.07713,-0.85503c-1.4485,-0.1654 -2.99328,-0.32883 -4.51434,0.67626c0.81392,2.1269 2.38638,3.65359 3.67392,5.38125c1.28554,1.63001 2.6674,3.25827 3.76824,5.28184c-0.95116,0.60373 -1.7196,0.71683 -2.50781,-0.14407c-0.3951,-0.47909 -0.79019,-0.95816 -1.18529,-1.43725c-1.18727,-1.5347 -2.37652,-3.16668 -3.46748,-4.70335c-0.8944,-1.34585 -1.88314,-2.59228 -3.06249,-3.73736c-0.29484,-0.28632 -0.59364,-0.76735 -1.07516,-0.75758c-1.35021,-0.07008 -2.89302,-0.13626 -4.13111,0.57098c-0.17876,0.68554 0.12003,1.16658 0.41882,1.64761c0.59364,0.76735 1.18924,1.63218 1.78288,2.39952c1.48409,1.91828 3.06644,3.93208 4.55053,5.85037c0.29484,0.28632 0.49338,0.57459 0.30868,0.96814c-1.62726,0.52014 -5.7643,0.79895 -7.6943,0.64334c-1.96758,-2.00596 -3.55586,-4.31194 -5.14415,-6.61791c-1.28554,-1.63001 -2.47677,-3.35964 -4.1416,-4.68966c-1.44455,0.02933 -2.9913,-0.23155 -4.41804,0.67413c0.10223,0.29023 0.01186,0.58436 0.11212,0.77714c0.20051,0.38573 0.40104,0.77126 0.59957,1.05953c0.79216,1.05563 1.48606,2.01574 2.27624,2.97389c1.28753,1.72747 2.57307,3.35769 3.85862,4.98789c0.29681,0.38358 0.5956,0.8646 0.60748,1.44898c-0.66622,0.40313 -1.24403,0.41487 -1.92209,0.23384c-1.96758,-2.00596 -3.55587,-4.31195 -5.14416,-6.61792c-0.9907,-1.3437 -2.07772,-2.68564 -3.25905,-3.92817c-0.29484,-0.28632 -0.59364,-0.76735 -1.07516,-0.75758c-1.35021,-0.07008 -2.89499,-0.23351 -4.13113,0.57099c-0.17679,0.78299 0.12399,1.36149 0.51909,1.84057c0.89046,1.15093 1.7809,2.30205 2.67135,3.45299c1.18924,1.63218 2.47282,3.16491 3.66206,4.7969c0.19853,0.28827 0.59166,0.66988 0.21831,1.26207c-2.11666,0.14047 -4.23137,0.37822 -6.44435,0.52066c-1.19123,-1.72962 -2.38046,-3.36159 -3.4734,-4.99571c-1.29346,-2.01965 -2.68321,-4.03736 -4.35595,-5.75701c-0.39312,-0.38162 -0.69388,-0.96012 -1.27368,-1.04565c-1.44849,-0.16559 -2.99328,-0.32901 -4.32372,0.57491c-0.07455,1.07303 0.5171,1.74311 1.01245,2.41496c1.88314,2.59228 3.86455,5.27989 5.74769,7.87217c0.19853,0.28827 0.49338,0.57439 0.31066,1.06539c-0.85882,0.40703 -1.5349,0.32328 -2.22484,-0.44212c-1.57841,-1.81886 -2.96817,-3.83658 -4.35594,-5.757c-0.8944,-1.34565 -1.98141,-2.6876 -3.16274,-3.93013c-0.39312,-0.38162 -0.78821,-0.8607 -1.36602,-0.84897c-1.34823,0.02738 -2.69845,-0.04271 -4.03679,0.47157c-0.26915,0.97968 0.32252,1.64957 0.81788,2.32162c1.97745,2.49287 3.8586,4.9877 5.7378,7.38507c0.3951,0.47909 0.69191,0.86286 0.70377,1.44722c-0.66818,0.30587 -1.34428,0.2221 -2.11866,0.04303c-0.58968,-0.57263 -1.18133,-1.24253 -1.77496,-2.00988c-1.09096,-1.53667 -2.18193,-3.07332 -3.27091,-4.51253c-0.98873,-1.24643 -1.97745,-2.49287 -3.06249,-3.73736c-0.2988,-0.48123 -0.78623,-0.76344 -1.36407,-0.75171c-1.34626,0.12464 -2.60214,-0.04467 -3.84418,0.46766c-0.36544,0.98162 0.32252,1.64977 0.81788,2.32162c1.97944,2.59033 3.86059,5.08516 5.83805,7.57803c0.29681,0.38358 0.49536,0.67184 0.41289,1.35543c-1.05734,0.11896 -2.11469,0.23794 -3.95236,-0.11455z" data-paper-data="{&quot;index&quot;:null}" fill="#ffffff"/><path d="M372.4686,230.79609c-3.17403,0.25927 -6.25173,0.51655 -9.42577,0.77579c-0.1926,0.00391 -0.2889,0.00587 -0.48152,0.00978c-2.7809,0.64107 -5.76825,0.60443 -8.65138,0.95507c-2.88314,0.35084 -5.86654,0.50892 -8.75166,0.76231c-5.38502,0.49914 -10.67177,1.0936 -16.05678,1.59254c-3.55923,0.26708 -7.21476,0.53629 -10.774,0.80337c-0.1926,0.00391 -0.48349,-0.08768 -0.67412,0.01369c-2.5883,0.63716 -5.19242,0.49504 -7.78667,0.84001c-3.457,0.5573 -7.02019,0.62964 -10.57943,0.89672c-0.38323,0.10528 -0.67412,0.01369 -0.96105,0.11701c-2.97351,0.64499 -6.05913,0.51283 -9.13488,0.86739c-3.55527,0.46199 -7.01425,0.92183 -10.57941,0.8969c-0.38719,-0.08963 -0.67609,-0.08377 -0.96303,0.01956c-2.5883,0.63697 -5.19242,0.49504 -7.78666,0.84002c-3.65157,0.46394 -7.40539,0.63747 -11.06091,0.90649c-0.1926,0.00391 -0.2889,0.00587 -0.48152,0.00978c-3.17008,0.45416 -6.2458,0.80892 -9.41984,1.06818c-2.21298,0.14243 -4.42595,0.28469 -6.63497,0.62182c-2.97746,0.45025 -5.96482,0.41342 -8.94228,0.86348c-3.65157,0.46394 -7.40737,0.5402 -11.06093,0.90669c-1.92407,0.13637 -3.84616,0.3704 -5.77024,0.50677c-0.47953,0.10723 -0.86078,0.30978 -1.34229,0.31956c-1.15365,0.12092 -1.71762,0.81429 -1.89045,1.792c-0.35357,1.56599 -0.61282,3.03257 -0.87008,4.59661c-0.07851,0.8785 -0.25331,1.75876 -0.62072,2.64313c-0.76843,0.11311 -1.43663,0.41878 -2.11074,0.43247c-2.21298,0.14243 -4.32966,0.28291 -6.44236,0.61791c-2.30532,0.33911 -4.61065,0.67821 -7.01227,1.01928c-0.96105,0.11701 -1.92011,0.33129 -2.98538,0.06062c-0.13585,-1.94566 0.50268,-3.71224 0.6577,-5.5665c0.15701,-1.75681 0.60292,-3.51948 0.75994,-5.27649c0.25134,-1.85602 0.69726,-3.6187 1.04687,-5.37961c0.47756,-0.2045 0.85882,-0.40703 1.24403,-0.41487c3.07574,-0.35477 6.14951,-0.80677 9.32156,-1.16349c3.26637,-0.45612 6.53274,-0.91205 9.80504,-1.076c4.42595,-0.28469 8.75166,-0.76211 13.07933,-1.14229c4.04074,-0.27704 8.07754,-0.74862 12.11629,-1.12293c2.78882,-0.25143 5.67392,-0.50483 8.46076,-0.8537c3.07574,-0.35477 6.15543,-0.51478 9.23315,-0.77209c0.19063,-0.10138 0.48152,-0.00978 0.67214,-0.11114c2.01049,-0.62524 4.22742,-0.57295 6.34211,-0.81068c3.94048,-0.46962 7.7906,-0.6453 11.73504,-0.92019c0.38323,-0.10528 0.67213,-0.11114 0.96105,-0.11702c2.78882,-0.25143 5.47934,-0.59836 8.26815,-0.84979c3.65553,-0.26903 7.40737,-0.5402 11.06291,-0.80923c0.1926,-0.00391 0.28891,-0.00587 0.48152,-0.00978c2.97944,-0.3528 6.05518,-0.70756 9.1329,-0.96485c3.65553,-0.26903 7.40738,-0.54001 11.06291,-0.80923c0.1926,-0.00391 0.2889,-0.00587 0.48151,-0.00978c2.97352,-0.64478 5.96283,-0.51068 8.94229,-0.86348c3.94247,-0.37234 7.98122,-0.74665 11.9237,-1.11883c4.23137,-0.37822 8.55904,-0.75839 12.78844,-1.23406c2.30532,-0.33892 4.61459,-0.48332 6.92387,-0.62769c2.98142,-0.25535 6.05519,-0.70736 9.13489,-0.86739c0.77042,-0.01564 1.63714,-0.03325 2.50188,-0.14831c4.03679,-0.47157 8.07358,-0.94334 12.11828,-1.02546c1.06131,0.07596 2.02434,0.05639 3.18193,0.13038c-0.51849,2.93316 -0.94661,5.57237 -1.27844,8.20963c-0.23553,2.63511 -0.47104,5.27042 -0.99349,8.00885c-0.48152,0.00978 -0.77042,0.01564 -1.05932,0.02151c-2.4036,0.2438 -4.71881,0.09581 -7.11846,0.53435c-1.05736,0.11878 -2.11075,0.43247 -3.18193,-0.13019c-0.44256,-2.81634 0.56141,-5.56476 0.3075,-8.57973c-0.57781,0.01173 -0.96303,0.01956 -0.86474,0.11506z" data-paper-data="{&quot;index&quot;:null}" fill="#216aff"/><path d="M368.73574,241.4911c-2.78882,0.25143 -5.48132,0.5011 -8.27013,0.75253c-6.92388,0.62769 -13.75146,1.25342 -20.67535,1.88112c-4.13506,0.37626 -8.36644,0.75448 -12.59781,1.1327c-3.17403,0.25927 -6.25173,0.51655 -9.42577,0.77579c-5.38502,0.49914 -10.67374,0.99614 -16.05876,1.49528c-3.26835,0.35867 -6.63498,0.62182 -9.90531,0.88303c-6.92388,0.62769 -13.75145,1.25343 -20.67534,1.88112c-6.05913,0.51283 -12.1163,1.12293 -18.17346,1.73302c-6.92388,0.62769 -13.94208,1.3548 -20.86399,2.07994c-3.94246,0.37216 -7.98124,0.74647 -11.9237,1.11883c-1.34625,0.12484 -2.69251,0.24948 -4.23532,0.18349c0.14515,-2.34116 0.67946,-4.49544 1.02116,-6.6456c0.28693,-0.10333 0.57385,-0.20665 0.76646,-0.21056c5.09611,-0.49308 10.28854,-0.98832 15.38465,-1.48139c5.09611,-0.49308 10.29051,-0.89086 15.38662,-1.38413c5.86456,-0.60618 11.63282,-1.21041 17.49935,-1.71913c2.6925,-0.24966 5.38502,-0.49914 8.07754,-0.74862c5.19241,-0.49523 10.38484,-0.99027 15.57726,-1.4855c2.98142,-0.25535 5.96282,-0.51068 8.94424,-0.76603c5.96087,-0.60813 11.92369,-1.119 17.88456,-1.72715c2.78882,-0.25143 5.67392,-0.50482 8.46275,-0.75644c5.09611,-0.49308 10.09593,-0.9844 15.19205,-1.47748c5.28871,-0.49718 10.57943,-0.89672 15.86814,-1.39391c3.07574,-0.35477 6.15148,-0.7095 9.22922,-0.9668c1.92209,-0.23384 3.94445,-0.27491 5.86851,-0.41146c0.14376,2.33531 -0.77972,4.30266 -0.24876,6.72741c-0.76843,0.11311 -1.43862,0.32152 -2.10878,0.52993z" data-paper-data="{&quot;index&quot;:null}" fill="#d0e9ea"/><path d="M415.48781,290.22829c-4.7807,-7.69681 -9.27843,-15.69166 -13.67986,-23.68867c-4.59996,-8.28508 -8.91299,-16.67348 -13.98854,-24.65661c-1.09492,-1.73139 -1.70438,-3.27782 -1.26636,-5.43014c0.60688,-3.32476 0.92486,-6.64365 1.33914,-9.96449c0.08444,-0.58612 0.26518,-1.1744 0.63852,-1.76657c0.29683,0.38377 0.58967,0.57264 0.69191,0.86286c1.50188,2.79483 3.10204,5.68497 4.6059,8.57726c3.51098,6.84588 7.11627,13.59233 10.9122,20.23762c1.49594,2.50265 2.99387,5.10257 4.2992,7.70658c2.4121,4.91976 5.39609,9.53542 7.52324,14.65579c0.70773,1.64175 1.22088,3.19013 1.06387,4.94714c-0.32589,2.92925 -0.65178,5.85868 -0.97767,8.78794c0.00198,0.09746 -0.09234,0.19667 -0.37335,0.59219c-0.29683,-0.38377 -0.59166,-0.66989 -0.78821,-0.8609z" data-paper-data="{&quot;index&quot;:null}" fill="#216aff"/><path d="M344.82027,297.31382c-0.86475,0.11506 -1.63121,0.32542 -2.49793,0.34303c-2.79079,0.15416 -5.48528,0.3062 -8.27606,0.46036c-4.13705,0.27881 -8.27409,0.5576 -12.41113,0.8366c-5.29268,0.30226 -10.68166,0.60649 -16.07063,0.91073c-4.90746,0.29444 -9.81692,0.49163 -14.72438,0.78608c-0.57584,0.10919 -1.24797,0.22035 -1.8337,-0.15757c-1.87917,-2.39738 -3.5697,-4.99357 -5.26023,-7.58976c-1.79276,-2.88624 -3.67985,-5.67325 -5.37828,-8.65888c-1.09691,-1.82884 -2.38442,-3.55631 -3.19636,-5.58575c-0.10421,-0.38768 -0.40104,-0.77126 -0.02965,-1.46071c0.47163,-0.49688 1.33834,-0.51448 2.20309,-0.62934c3.65356,-0.3665 7.30712,-0.73296 10.9587,-1.19672c5.28477,-0.69191 10.67374,-0.99614 16.06074,-1.39782c7.02216,-0.53239 14.14458,-0.87181 21.17069,-1.20927c0.57781,-0.01173 1.24995,-0.12288 1.82777,-0.13461c1.15563,-0.02346 2.40558,-0.14615 3.65751,-0.17157c0.86475,-0.11506 1.45047,0.26285 1.75718,1.13333c0.20447,0.58045 0.60352,1.25426 0.90429,1.83275c1.90291,3.56609 4.18906,7.02691 6.37889,10.48968c2.09156,3.36746 3.89816,6.93551 5.79909,10.40415c-0.27705,0.59023 -0.56001,0.88808 -1.03956,0.99532zM293.14845,276.7348c-2.49991,0.24557 -4.90549,0.39191 -7.40539,0.63747c-0.1926,0.00391 -0.38124,0.20255 -0.57189,0.30391c-2.59819,0.15006 -5.2023,0.00813 -7.78863,0.74275c1.21099,2.70323 9.27447,15.49694 12.74194,20.20029c1.44651,0.06812 2.98538,-0.06062 4.52226,-0.28662c0.57584,-0.10919 1.24797,-0.22014 1.82579,-0.23187c5.29268,-0.30226 10.48904,-0.60277 15.68542,-0.90309c0.1926,-0.00391 0.47953,-0.10704 0.67214,-0.11095c2.79079,-0.15416 5.6759,-0.40755 8.46669,-0.56172c1.83173,0.0603 3.56714,0.12238 5.39095,-0.20696c2.4036,-0.24361 4.72079,0.00164 7.02414,-0.43473c2.9913,0.23137 5.76825,-0.60422 8.8519,-0.56954c-0.22424,-1.55426 -1.11272,-2.60792 -1.71228,-3.66728c-2.79138,-4.61976 -5.48447,-9.14402 -8.27586,-13.76379c-0.49734,-0.76931 -1.08899,-1.4392 -1.49199,-2.30793c-0.40696,-1.06325 -1.37591,-1.33587 -2.24066,-1.22101c-3.74787,0.4659 -7.60592,0.25193 -11.4501,0.71978c-3.26638,0.45593 -6.63695,0.52437 -9.90727,0.78558c-0.57781,0.01173 -1.24995,0.12288 -1.82776,0.13461c-1.92803,-0.05835 -3.75777,-0.02119 -5.67789,0.3101c-2.21101,0.2397 -4.42396,0.38212 -6.83153,0.43102z" data-paper-data="{&quot;index&quot;:null}" fill="#010201"/><path d="M219.60056,274.81824c-1.34625,0.12484 -2.7888,0.25161 -4.13309,0.47372c-1.63121,0.32542 -2.80068,-0.33293 -3.78942,-1.57936c-2.86593,-3.54654 -5.73186,-7.0929 -8.59778,-10.63944c-0.29683,-0.38377 -0.68993,-0.7654 -0.51314,-1.54839c0.66225,-0.59805 1.527,-0.71311 2.48804,-0.82993c1.05734,-0.11896 2.11668,-0.14048 3.17205,-0.35671c1.24798,-0.22015 2.0263,0.15365 2.91478,1.20732c2.7716,3.64577 5.25825,7.49231 8.21851,10.93944c0.39708,0.57654 0.79415,1.15309 1.0006,1.8308c-0.27902,0.49278 -0.56595,0.5961 -0.76054,0.50255zM212.56793,270.08979c0.10223,0.29023 0.10618,0.48494 0.20645,0.67792c0.78821,0.8607 1.57644,1.72161 2.36663,2.67978c0.67808,0.18104 1.35416,0.26481 2.11469,-0.23775c-0.60945,-1.54643 -1.87918,-2.39755 -2.67728,-3.74519c-0.76448,0.30783 -1.34032,0.41681 -2.01049,0.62524zM212.00138,265.91216c-1.24996,0.12268 -2.40162,0.34106 -3.65157,0.46375c0.40301,0.86872 0.89638,1.44331 1.58236,2.01379c1.05736,-0.11878 2.01641,-0.33325 3.07377,-0.45202c-0.01779,-0.87655 -0.60549,-1.35172 -1.00454,-2.02552zM207.02077,262.60335c0.51117,1.45094 0.51116,1.45092 2.91279,1.11006c-0.61143,-1.64391 -1.75914,-1.23079 -2.91279,-1.11006z" data-paper-data="{&quot;index&quot;:null}" fill="#020202"/><path d="M263.03154,278.61283c2.1404,1.02825 2.67728,3.74518 1.07376,5.43405c-2.07515,2.18536 -7.10462,1.21577 -8.22327,-1.68414c-0.61342,-1.74115 0.02907,-3.31302 1.75064,-3.93258c0.76448,-0.30783 1.62726,-0.52014 2.39965,-0.43833c1.05734,-0.11896 2.02631,0.15366 2.99921,0.62101zM258.44857,280.6543c-0.57189,0.30391 -0.65237,1.08495 -0.16097,1.56209c0.59167,0.67009 3.20172,1.10419 4.05064,0.21005c0.47361,-0.39922 0.55606,-1.083 0.06466,-1.56012c-0.49338,-0.57459 -1.07515,-0.75758 -2.03817,-0.73802c-0.67412,0.01369 -1.34427,0.22209 -1.91616,0.52602z" data-paper-data="{&quot;index&quot;:null}" fill="#030606"/><path d="M268.80887,287.94572c1.5705,1.42942 1.61201,3.4745 -0.09572,4.77569c-0.18865,0.19863 -0.47557,0.30196 -0.76251,0.40529c-1.62132,0.81233 -3.26638,0.45593 -4.9134,0.00226c-1.16354,-0.36597 -2.15621,-1.80733 -2.18193,-3.07333c-0.02571,-1.26598 0.53233,-2.25154 1.67808,-2.7619c0.76448,-0.30783 1.527,-0.71292 2.2994,-0.6313c1.34823,-0.02738 2.99724,0.52375 3.97608,1.28327zM263.8664,291.26101c1.16551,0.46344 2.22681,0.53939 3.27231,-0.16375c0.56991,-0.40138 0.74471,-1.28164 0.15701,-1.75682c-0.68797,-0.66813 -1.56061,-0.94272 -2.51968,-0.72823c-0.57584,0.109 -1.14969,0.31545 -1.62726,0.52014c-0.25727,1.56404 -0.157,1.75681 0.71763,2.12864z" data-paper-data="{&quot;index&quot;:null}" fill="#040605"/><path d="M224.84755,286.50012c-1.86138,-1.52101 -1.62388,-4.05887 0.47301,-5.17315c1.527,-0.71292 3.16216,-0.84362 4.71684,-0.19309c1.65098,0.64839 2.55329,2.38368 2.20368,4.1444c-0.16888,1.17263 -1.49931,2.07636 -3.13447,2.20706c-0.1926,0.00391 -0.2889,0.00587 -0.48152,0.00978c-1.54084,0.0313 -2.80068,-0.33293 -3.77754,-0.99501zM225.85744,284.04409c0.01583,0.77908 0.89836,1.54058 1.95966,1.61633c0.48152,-0.00978 1.05734,-0.11877 1.5349,-0.32347c0.86079,-0.30978 0.93731,-1.28555 0.25133,-1.85603c-0.48942,-0.37986 -1.07316,-0.66032 -1.55469,-0.65053c-1.0613,-0.07575 -2.10876,0.52992 -2.19122,1.21371z" data-paper-data="{&quot;index&quot;:null}" fill="#040505"/><path d="M248.54524,281.6348c1.18331,1.33998 1.02235,2.90206 -0.30413,4.0007c-2.17936,1.79787 -6.24186,1.00346 -7.6415,-1.50114c-0.59957,-1.05953 -0.52106,-1.93785 0.32985,-2.73453c0.94324,-0.99336 2.08701,-1.60119 3.5355,-1.43579c1.53688,-0.22602 2.89699,0.33098 4.08029,1.67077zM243.06393,282.13589c-0.57584,0.109 -0.84696,0.99141 -0.45185,1.47049c0.59364,0.76735 1.46629,1.04194 2.42932,1.02238c0.86671,-0.01761 1.53293,-0.42092 1.99466,-1.40452c-1.09096,-1.53667 -2.5355,-1.50733 -3.97213,-1.08837z" data-paper-data="{&quot;index&quot;:null}" fill="#030604"/><path d="M243.60316,303.94796c-1.33241,0.80646 -5.1924,0.49523 -6.47204,-0.8428c-1.37789,-1.43334 -1.22682,-3.48232 0.48685,-4.49133c1.71367,-1.0092 4.41607,-0.77176 5.98657,0.65766c0.68797,0.66813 1.27961,1.33803 1.19913,2.11907c-0.0706,1.26794 -0.43999,2.05484 -1.20053,2.5574zM240.83154,300.30221c-0.7724,-0.08181 -1.64307,-0.25894 -2.4036,0.2436c-0.28693,0.10333 -0.37533,0.49473 -0.27308,0.78495c0.10025,0.19277 0.20051,0.38553 0.39708,0.57654c0.5877,0.47517 1.16947,0.65815 1.93989,0.64251c0.77042,-0.01564 1.54283,0.06618 2.00653,-0.82015c-0.2104,-0.87264 -0.7981,-1.34781 -1.6668,-1.42746z" data-paper-data="{&quot;index&quot;:null}" fill="#030506"/><path d="M237.17287,290.9263c1.07712,0.85484 1.30531,2.60382 0.36405,3.69464c-1.88057,2.2789 -6.4127,2.07882 -8.21339,-1.19705c-0.59957,-1.05953 -0.23809,-2.23609 0.80542,-3.03668c0.85485,-0.60177 1.81393,-0.81625 2.48804,-0.82993c1.63715,-0.03325 3.57703,0.60947 4.55588,1.369zM233.87149,294.40307c1.15563,-0.02346 1.34626,-0.12464 2.09294,-1.30901c-1.77299,-1.91242 -2.93257,-2.08368 -4.83093,-0.68131c0.5092,1.35366 1.38778,1.92044 2.73799,1.99033z" data-paper-data="{&quot;index&quot;:null}" fill="#050504"/><path d="M273.11794,296.1392c2.23077,0.73411 2.76765,3.45124 0.96954,5.04656c-0.47361,0.39922 -1.04548,0.70314 -1.62132,0.81233c-1.34427,0.22209 -2.69647,0.05476 -4.05458,-0.40496c-0.58374,-0.28026 -1.07317,-0.66013 -1.46827,-1.1392c-0.89046,-1.15093 -0.72949,-2.71301 0.31205,-3.61108c0.75459,-0.79473 1.808,-1.10842 2.86337,-1.32466c1.06328,0.17321 2.02629,0.15365 2.99921,0.62101zM269.8245,300.00581c0.67808,0.18104 1.45046,0.26266 2.21496,-0.04497c0.47953,-0.10723 0.85683,-0.50469 0.84695,-0.9916c0.08444,-0.58612 -0.40103,-0.77126 -0.79019,-0.95816c-1.45641,-0.55504 -2.51376,-0.43606 -3.84024,0.66258c0.2104,0.87244 0.89046,1.15092 1.56852,1.33216z" data-paper-data="{&quot;index&quot;:null}" fill="#050304"/><path d="M258.70819,298.18561c1.08701,1.34175 0.92011,2.61163 -0.31007,3.70833c-0.4736,0.39941 -1.04548,0.70313 -1.61935,0.90979c-1.82184,0.4266 -3.37256,-0.02901 -4.83686,-0.9735c-0.29287,-0.18886 -0.58968,-0.57263 -0.78821,-0.8609c-0.79612,-1.25035 -0.62528,-2.32552 0.41427,-3.32083c0.9472,-0.79864 2.00257,-1.01488 3.35081,-1.04225c1.44256,-0.1268 2.70438,0.33489 3.78943,1.57936zM254.22944,300.61457c0.67808,0.18123 1.45245,0.36031 2.21496,-0.04497c0.57189,-0.30372 0.74868,-1.08672 0.16294,-1.46462c-0.58572,-0.3777 -1.36011,-0.55698 -2.13053,-0.54135c-0.76843,0.11311 -0.96105,0.11702 -1.9043,1.11037c0.20842,0.77517 0.98082,0.85699 1.65691,0.94057z" data-paper-data="{&quot;index&quot;:null}" fill="#040405"/><path d="M246.47523,293.56274c-1.57247,-1.52688 -1.23077,-3.67724 0.77378,-4.59466c2.09887,-1.01703 5.00178,-0.39385 6.4839,1.42696c1.08701,1.34193 0.83369,3.1007 -0.69131,3.91108c-0.85685,0.50451 -1.71762,0.81429 -2.68262,0.73656c-1.54084,0.0313 -2.89896,-0.42844 -3.88373,-1.47996zM250.26206,290.27072c-0.77437,-0.17908 -1.6411,-0.16148 -2.40163,0.34107c-0.56991,0.40138 -0.65237,1.08495 -0.16097,1.56209c0.58968,0.57263 1.368,0.94643 2.23473,0.92883c0.96302,-0.01955 1.15563,-0.02346 2.29346,-0.92328c-0.31264,-1.16287 -1.09095,-1.53666 -1.96559,-1.90871z" data-paper-data="{&quot;index&quot;:null}" fill="#040506"/><path d="M344.48749,276.17947c2.88314,-0.35084 5.86654,-0.50873 8.75561,-0.56739c0.67412,-0.01369 1.44454,-0.02933 1.93988,0.64252c-0.08245,0.68359 -0.46174,0.98358 -1.1319,1.19199c-0.86079,0.30978 -1.63517,0.13071 -2.4999,0.24575c-2.40558,0.14615 -4.71683,0.19309 -7.12242,0.33942c-0.67412,0.01369 -1.35021,-0.07009 -1.75124,-0.84135c0.36743,-0.88417 1.13586,-0.99728 1.80998,-1.01096z" data-paper-data="{&quot;index&quot;:null}" fill="#0c1212"/><path d="M374.36158,281.32085c-0.86079,0.30978 -1.63517,0.13071 -2.49989,0.24575c-2.40558,0.14615 -4.71684,0.19309 -7.12242,0.33942c-0.67412,0.01369 -1.35021,-0.07009 -1.75123,-0.84135c0.36743,-0.88417 1.13586,-0.99728 1.9043,-1.11018c2.88116,-0.44829 5.86653,-0.50893 8.75561,-0.56759c0.67412,-0.01369 1.44454,-0.02933 1.93988,0.64252c0.01385,0.68182 -0.46174,0.98378 -1.22621,1.29141z" data-paper-data="{&quot;index&quot;:null}" fill="#0d1313"/><path d="M397.36854,285.14054c-0.57189,0.30391 -1.04944,0.50841 -1.72356,0.5221c-2.5962,0.24752 -5.28872,0.49699 -7.9832,0.6492c-0.57781,0.01173 -1.24996,0.12269 -1.8337,-0.15757c-0.38918,-0.1871 -0.77635,-0.27654 -0.78623,-0.76344c0.18073,-0.58828 0.66026,-0.69552 1.2361,-0.80451c2.97351,-0.64499 6.05913,-0.51283 9.1329,-0.96485c0.76843,-0.11311 1.6411,0.16148 2.32312,0.53724c0.10817,0.5824 -0.0785,0.8785 -0.36544,0.98183z" data-paper-data="{&quot;index&quot;:null}" fill="#090c0d"/><path d="M372.99892,275.89286c-0.85882,0.40703 -1.62726,0.52014 -2.49397,0.53774c-2.21298,0.14243 -4.33162,0.18546 -6.44434,0.52046c-0.76843,0.11311 -1.54084,0.0313 -2.31323,-0.05034c-0.38719,-0.08963 -0.96698,-0.17516 -1.07516,-0.75758c0.08049,-0.78104 0.7546,-0.79474 1.33044,-0.90392c2.97352,-0.64478 5.96282,-0.51068 8.9403,-0.96094c0.86474,-0.11486 1.73741,0.15972 2.51574,0.53352c0.11014,0.67967 -0.17283,0.97772 -0.45977,1.08105z" data-paper-data="{&quot;index&quot;:null}" fill="#090d0e"/><path d="M357.97238,280.77691c0.28891,-0.00587 0.58374,0.28045 0.58968,0.57263c0.00592,0.29199 -0.18272,0.49082 -0.46767,0.69141c-0.95313,0.50646 -2.00851,0.72269 -3.06587,0.84167c-2.40558,0.14634 -4.71683,0.19327 -7.11647,0.6316c-0.38323,0.10528 -0.86671,0.01761 -1.35021,-0.07008c-0.1926,0.00391 -0.39113,-0.28416 -0.4914,-0.47713c-0.10223,-0.29023 -0.01187,-0.58417 0.27308,-0.78495c0.28101,-0.3953 0.76053,-0.50255 1.24204,-0.51232c2.88314,-0.35084 5.76628,-0.7015 8.55311,-1.05038c0.67412,-0.01369 1.15564,-0.02347 1.8337,0.15757z" data-paper-data="{&quot;index&quot;:null}" fill="#080b0b"/><path d="M398.2576,290.96794c-3.17403,0.25927 -6.44631,0.42319 -9.62035,0.68245c-0.38521,0.00782 -0.77241,-0.08182 -1.15959,-0.17125c-0.2909,-0.09159 -0.58573,-0.37792 -0.59166,-0.67009c-0.0079,-0.38945 0.27704,-0.59003 0.56397,-0.69335c0.67016,-0.20841 1.246,-0.3176 1.82184,-0.4268c1.63517,-0.13051 3.36465,-0.36044 4.99981,-0.49114c1.24995,-0.12288 2.40559,-0.14634 3.65752,-0.17176c0.67412,-0.01369 1.44454,-0.02933 1.84753,0.83939c-0.36939,0.78691 -0.94127,1.09082 -1.51909,1.10255z" data-paper-data="{&quot;index&quot;:null}" fill="#07090a"/><path d="M377.76043,287.38959c-1.63715,0.03325 -3.17401,0.25944 -4.80918,0.38995c-1.25193,0.02542 -2.59818,0.15026 -3.85012,0.17567c-0.57781,0.01173 -1.05932,0.02151 -1.54676,-0.2609c-0.19459,-0.09354 -0.39114,-0.28436 -0.3951,-0.47909c-0.00396,-0.19473 0.08642,-0.48887 0.27705,-0.59023c0.57386,-0.20646 1.14772,-0.41291 1.72356,-0.5221c1.72949,-0.22993 3.45896,-0.45984 5.19044,-0.59249c1.24995,-0.12288 2.40558,-0.14635 3.65751,-0.17177c0.67412,-0.01369 1.34823,-0.02738 1.84754,0.8394c-0.56002,0.88828 -1.42476,1.00314 -2.09492,1.21155z" data-paper-data="{&quot;index&quot;:null}" fill="#07090a"/><path d="M389.63549,274.38584c-1.24995,0.12288 -2.40756,0.04889 -3.65553,0.26922c-1.63318,0.22797 -3.36465,0.36063 -5.00178,0.39386c-0.48152,0.00978 -1.06131,-0.07597 -1.54479,-0.16363c-0.29089,-0.09139 -0.58374,-0.28045 -0.59166,-0.6699c-0.0079,-0.38945 0.27704,-0.59022 0.56397,-0.69335c0.47756,-0.2047 1.0534,-0.3137 1.53293,-0.42093c1.72949,-0.22993 3.45899,-0.45985 5.19044,-0.59249c1.24995,-0.12288 2.40558,-0.14634 3.6575,-0.17176c0.67412,-0.01369 1.35021,0.07009 1.84952,0.93685c-1.23216,0.99923 -1.23216,0.99923 -2.0006,1.11213z" data-paper-data="{&quot;index&quot;:null}" fill="#060909"/><path d="M383.75373,278.88942c2.69053,-0.34693 5.48132,-0.50091 8.17384,-0.75037c0.57584,-0.10919 1.15563,-0.02346 1.63912,0.06402c0.38719,0.08963 0.87264,0.27458 0.78821,0.8609c-1.13981,0.80256 -1.13981,0.80256 -2.19716,0.92132c-1.44256,0.1268 -2.98141,0.25554 -4.52028,0.38409c-1.53886,0.12874 -3.07969,0.16004 -4.62052,0.1913c-0.57781,0.01173 -1.25392,-0.07204 -1.46629,-1.04195c0.66225,-0.59805 1.4307,-0.71096 2.20309,-0.62933z" data-paper-data="{&quot;index&quot;:null}" fill="#060909"/><path d="M352.72637,292.86665c0.47558,-0.30196 1.04943,-0.50841 1.53096,-0.5182c2.97944,-0.3528 5.96087,-0.60813 8.94229,-0.86348c0.57781,-0.01173 1.15562,-0.02346 1.54874,0.35816c0.1042,0.38749 0.01583,0.77908 -0.36543,0.98162c-0.66423,0.50059 -1.43267,0.6137 -2.20112,0.7266c-2.78881,0.25162 -5.67392,0.505 -8.46274,0.75643c-0.48152,0.00978 -0.96303,0.01955 -1.35613,-0.36207c-0.20051,-0.38573 -0.21041,-0.87263 0.36346,-1.07909z" data-paper-data="{&quot;index&quot;:null}" fill="#070909"/><path d="M370.03112,291.05397c0.66818,-0.30587 1.43466,-0.51624 2.20507,-0.53188c2.59819,-0.15025 5.19636,-0.30051 7.79653,-0.35331c0.48152,-0.00978 0.8687,0.07987 1.35219,0.16754c0.19458,0.09334 0.39113,0.28416 0.4914,0.47713c0.10223,0.29023 -0.08444,0.58611 -0.27308,0.78495c-0.66423,0.50059 -1.43268,0.61349 -2.2031,0.62915c-2.59819,0.15025 -5.19636,0.30051 -7.79456,0.45057c-0.86671,0.01761 -1.54282,-0.06598 -2.22881,-0.63666c0.08642,-0.48887 0.27308,-0.78495 0.65434,-0.9875z" data-paper-data="{&quot;index&quot;:null}" fill="#050606"/><path d="M351.54247,286.75292c2.69449,-0.15221 5.29268,-0.30226 7.98915,-0.35703c0.48152,-0.00978 0.8687,0.07966 1.35219,0.16734c0.19459,0.09354 0.39114,0.28436 0.3951,0.47909c0.10025,0.19277 -0.08642,0.48887 -0.18074,0.58828c-0.56595,0.5959 -1.33438,0.70901 -2.1048,0.72465c-2.69251,0.24948 -5.29664,0.10755 -7.98716,0.45448c-0.76843,0.11311 -1.54282,-0.06617 -2.23077,-0.73411c0.84497,-1.08886 1.80602,-1.20569 2.76706,-1.3227z" data-paper-data="{&quot;index&quot;:null}" fill="#050606"/><path d="M333.21655,295.21121c-6.54123,-4.25132 -12.99014,-8.69932 -19.34469,-13.24655c-2.5434,-1.89697 -5.18115,-3.69434 -7.72257,-5.49385c-0.09828,-0.0955 -0.29483,-0.28632 -0.3951,-0.47909c0.57781,-0.01173 1.24995,-0.12288 1.82777,-0.13461c3.36662,-0.26317 6.63891,-0.42711 9.90727,-0.78558c3.74787,-0.4659 7.60592,-0.25193 11.4501,-0.71978c0.86474,-0.11486 1.73739,0.15972 2.24066,1.22101c0.30474,0.77322 0.99466,1.53862 1.49199,2.30793c2.79138,4.61976 5.58077,9.14206 8.27586,13.76379c0.60154,1.1568 1.39371,2.21242 1.71227,3.66727c-3.08365,-0.0347 -5.9569,0.80287 -8.85189,0.56955c-0.29288,-0.18905 -0.3951,-0.47909 -0.59166,-0.6701z" data-paper-data="{&quot;index&quot;:null}" fill="#00ff00"/><path d="M294.75315,284.59359c6.15406,4.16168 12.30612,8.22611 18.27153,12.58644c-0.1926,0.00391 -0.47952,0.10723 -0.67213,0.11114c-5.29268,0.30226 -10.48905,0.60259 -15.68542,0.9029c-0.57781,0.01173 -1.24995,0.12288 -1.82579,0.23207c-1.53688,0.22602 -3.07574,0.35477 -4.52226,0.28662c-3.4655,-4.60607 -11.52898,-17.39977 -12.74195,-20.20047c2.58632,-0.73443 5.19044,-0.59249 7.78862,-0.74274c3.12913,2.27469 6.16394,4.64879 9.3874,6.82404z" data-paper-data="{&quot;index&quot;:null}" fill="#00ff00"/><path d="M286.03396,277.46387c2.49989,-0.24576 4.9035,-0.48936 7.40538,-0.63747c3.2274,2.37 6.55112,4.73803 9.87485,7.10627c4.59345,3.21917 9.1849,6.34087 13.77835,9.56002c1.46431,0.94447 2.8343,1.98837 4.30058,3.03031c-2.79079,0.15416 -5.6759,0.40755 -8.46669,0.56172c-5.96539,-4.36051 -12.21377,-8.42279 -18.27154,-12.58663c-3.12716,-2.17722 -6.15999,-4.45386 -9.28912,-6.72855c0.19062,-0.10118 0.38125,-0.20255 0.66819,-0.30568z" data-paper-data="{&quot;index&quot;:null}" fill="#87ff87"/><path d="M326.88036,296.31408c-3.90942,-2.74575 -7.9132,-5.39247 -11.72832,-8.23765c-4.00969,-2.93872 -8.02137,-5.97488 -11.93872,-9.11048c-1.07516,-0.75758 -2.43722,-1.41183 -3.13704,-2.66413c1.92011,-0.33129 3.74985,-0.36844 5.67789,-0.3101c0.09828,0.09531 0.20052,0.38554 0.3951,0.47909c2.6397,1.89483 5.18115,3.69434 7.72257,5.49385c6.35457,4.54722 12.80346,8.99523 19.34469,13.24655c0.19656,0.19101 0.3951,0.47909 0.59166,0.6701c-2.39965,0.43833 -4.71684,0.19308 -6.92785,0.43277z" data-paper-data="{&quot;index&quot;:null}" fill="#86ff86"/><path d="M321.30076,296.71967c-1.46431,-0.94447 -2.83429,-1.98836 -4.30057,-3.03012c-4.59345,-3.21917 -9.1849,-6.34106 -13.77835,-9.56022c-3.32371,-2.36804 -6.55113,-4.73823 -9.87485,-7.10627c2.21101,-0.2397 4.42396,-0.38212 6.63497,-0.62182c0.79612,1.25035 2.0599,1.8091 3.13704,2.66414c3.91735,3.1354 7.92902,6.17157 11.93872,9.11027c3.91141,2.8434 7.81888,5.49189 11.72831,8.23784c-1.8238,0.32934 -3.55923,0.26707 -5.48527,0.30617z" data-paper-data="{&quot;index&quot;:null}" fill="#01ff01"/><path d="M217.25569,273.20974c-0.66423,0.50059 -1.43663,0.41879 -2.11469,0.23775c-0.88649,-0.9562 -1.57841,-1.81906 -2.36663,-2.67978c-0.10026,-0.19296 -0.10421,-0.38769 -0.20645,-0.67792c0.67016,-0.20841 1.24403,-0.41486 2.01049,-0.62524c0.80008,1.44507 2.06981,2.2962 2.67728,3.74519z" data-paper-data="{&quot;index&quot;:null}" fill="#589ca0"/><path d="M209.93217,268.38969c-0.684,-0.47321 -1.17738,-1.0478 -1.58236,-2.01379c1.34626,-0.12464 2.49792,-0.34302 3.65157,-0.46375c0.39905,0.67381 0.98477,1.05171 1.00454,2.02552c-1.15168,0.21819 -2.11271,0.3352 -3.07377,0.45202z" data-paper-data="{&quot;index&quot;:null}" fill="#5ba3a7"/><path d="M207.02077,262.60335c1.15365,-0.12073 2.29939,-0.63131 2.91279,1.11006c-2.40163,0.34088 -2.40162,0.34088 -2.91279,-1.11006z" data-paper-data="{&quot;index&quot;:null}" fill="#56999d"/><path d="M262.4029,280.86632c0.4914,0.47713 0.40697,1.06344 -0.06466,1.56012c-0.8509,0.79668 -3.36268,0.45808 -4.05064,-0.21005c-0.39312,-0.38162 -0.41092,-1.25816 0.16097,-1.56209c0.57189,-0.30391 1.24204,-0.51232 1.91616,-0.52602c0.96302,-0.01955 1.54479,0.16343 2.03817,0.73802z" data-paper-data="{&quot;index&quot;:null}" fill="#01f4f4"/><path d="M264.77605,288.6122c0.95905,-0.21447 1.83173,0.06011 2.51968,0.72823c0.5877,0.47517 0.50919,1.35348 -0.15701,1.75682c-1.04548,0.70314 -2.20308,0.62914 -3.27231,0.16375c-0.87463,-0.37185 -0.9749,-0.56463 -0.71763,-2.12864c0.47953,-0.10723 1.05142,-0.41115 1.62726,-0.52014z" data-paper-data="{&quot;index&quot;:null}" fill="#35a76d"/><path d="M229.60333,283.48093c0.68598,0.57048 0.51117,1.45094 -0.25133,1.85603c-0.47756,0.2047 -0.95709,0.31174 -1.5349,0.32347c-1.0613,-0.07575 -2.04014,-0.83528 -1.95966,-1.61633c0.08444,-0.58632 1.13189,-1.19219 2.19122,-1.21371c0.48152,-0.00978 1.06327,0.17322 1.55469,0.65053z" data-paper-data="{&quot;index&quot;:null}" fill="#da6694"/><path d="M245.04139,284.62878c-0.86671,0.01761 -1.73938,-0.25698 -2.42932,-1.02238c-0.48942,-0.37966 -0.21831,-1.26208 0.45185,-1.47049c1.43466,-0.51624 2.87918,-0.54556 3.97213,1.08837c-0.36544,0.98162 -1.02967,1.48222 -1.99466,1.40452z" data-paper-data="{&quot;index&quot;:null}" fill="#01f001"/><path d="M240.58812,302.54787c-0.77042,0.01564 -1.44849,-0.16539 -1.93989,-0.64251c-0.19656,-0.19101 -0.29682,-0.38377 -0.39708,-0.57654c-0.10223,-0.29023 -0.01187,-0.58437 0.2731,-0.78496c0.76053,-0.50255 1.63121,-0.32541 2.4036,-0.2436c0.77239,0.08161 1.36207,0.65425 1.5705,1.42942c-0.56199,0.79083 -1.33241,0.80646 -1.91022,0.81819z" data-paper-data="{&quot;index&quot;:null}" fill="#008bda"/><path d="M235.96443,293.09406c-0.74668,1.18437 -0.9373,1.28555 -2.09294,1.30901c-1.34823,0.02738 -2.2288,-0.63665 -2.73799,-1.99033c1.89836,-1.40237 3.05794,-1.2311 4.83093,0.68131z" data-paper-data="{&quot;index&quot;:null}" fill="#ebe502"/><path d="M272.09619,298.01107c0.38918,0.1869 0.77833,0.37399 0.79019,0.95816c-0.08642,0.48887 -0.36939,0.7869 -0.84695,0.9916c-0.66819,0.30568 -1.44059,0.22405 -2.21496,0.04497c-0.67609,-0.08377 -1.25985,-0.36421 -1.56852,-1.33216c1.32648,-1.09864 2.38185,-1.31488 3.84024,-0.66258z" data-paper-data="{&quot;index&quot;:null}" fill="#f30001"/><path d="M254.38249,298.66304c0.76843,-0.11311 1.44651,0.06812 2.13052,0.54134c0.58572,0.3777 0.50525,1.15875 -0.16294,1.46462c-0.66818,0.30587 -1.44059,0.22405 -2.21496,0.04497c-0.5798,-0.08572 -1.35217,-0.16735 -1.56259,-1.03998c1.03955,-0.99531 1.13388,-1.09473 1.80999,-1.01096z" data-paper-data="{&quot;index&quot;:null}" fill="#de93ad"/><path d="M249.9342,293.10271c-0.86671,0.01761 -1.54875,-0.35815 -2.23473,-0.92883c-0.49338,-0.57459 -0.40894,-1.16071 0.16097,-1.56209c0.76053,-0.50255 1.62528,-0.6176 2.40163,-0.34107c0.87264,0.27458 1.65097,0.64859 1.96559,1.90871c-1.13784,0.89981 -1.32846,1.00118 -2.29346,0.92328z" data-paper-data="{&quot;index&quot;:null}" fill="#865492"/></g><g stroke="#000000"><path d="M271.20902,227.9439c15.37866,29.57727 11.1316,38.23856 3.95265,41.97124c-7.17896,3.73269 -25.46551,-17.2185 -40.84418,-46.7958c-15.37865,-29.57728 54.72084,-12.21204 61.8998,-15.94473c7.05866,0.70957 4.2643,6.6078 -2.54255,10.53499c-8.39443,4.84315 -23.78022,7.70614 -22.46573,10.23429z" fill="#216aff" stroke-width="2"/><path d="M293.48731,244.58807c6.60091,12.69532 1.39556,28.47572 -11.62647,35.2465c-13.02203,6.77078 -28.92959,1.968 -35.5305,-10.72732c-6.60091,-12.69532 -1.39555,-28.47573 11.62648,-35.24651c13.02203,-6.77078 28.92958,-1.968 35.53049,10.72733z" fill="#faddbf" stroke-width="2"/><path d="M252.84736,252.5657c6.60091,12.69532 41.99044,19.55508 28.9684,26.32586c-13.02203,6.77078 -28.92959,1.968 -35.53049,-10.72733c-6.60091,-12.69532 -0.03883,-28.29386 6.56207,-15.59854z" fill="#ef8b89" stroke-width="0"/></g></g></g></svg>