<svg version="1.1" xmlns="http://www.w3.org/2000/svg" xmlns:xlink="http://www.w3.org/1999/xlink" width="188.98834" height="107.472" viewBox="0,0,188.98834,107.472"><g transform="translate(-231.63798,-119.55699)"><g data-paper-data="{&quot;isPaintingLayer&quot;:true}" fill-rule="nonzero" stroke="#000000" stroke-linejoin="miter" stroke-miterlimit="10" stroke-dasharray="" stroke-dashoffset="0" style="mix-blend-mode: normal"><path d="M399.95606,128.08259c5.43473,11.80348 -8.60251,29.86387 -31.35306,40.33901c-22.75055,10.47514 -45.59924,9.39832 -51.03397,-2.40516c-5.43473,-11.80348 12.84563,-21.3583 35.59618,-31.83344c22.75055,-10.47514 41.35612,-17.90389 46.79085,-6.10041z" fill="#fff7ad" stroke-width="5" stroke-linecap="butt"/><path d="M408.29628,145.5993c5.43473,11.80348 -8.60252,29.86387 -31.35307,40.33902c-22.75055,10.47514 -45.59923,9.39831 -51.03396,-2.40516c-5.43473,-11.80348 12.84563,-21.35831 35.59618,-31.83345c22.75055,-10.47514 41.35612,-17.90389 46.79086,-6.1004z" fill="#fff7ad" stroke-width="5" stroke-linecap="butt"/><path d="M416.9576,163.45844c5.43473,11.80348 -8.60252,29.86386 -31.35307,40.339c-22.75055,10.47514 -45.59923,9.39832 -51.03396,-2.40516c-5.43473,-11.80348 12.84563,-21.35831 35.59618,-31.83345c22.75055,-10.47514 41.35612,-17.90389 46.79086,-6.1004z" fill="#fff7ad" stroke-width="5" stroke-linecap="butt"/><path d="M331.51131,158.60222c-3.25471,12.58035 -25.55001,17.69325 -49.79795,11.41997c-24.24793,-6.27328 -41.2663,-21.55717 -38.01159,-34.13752c3.25471,-12.58035 23.45786,-8.42115 47.70579,-2.14788c24.24793,6.27328 43.35845,12.28508 40.10374,24.86542z" fill="#fff7ad" stroke-width="5" stroke-linecap="butt"/><path d="M326.89418,177.4457c-3.25471,12.58035 -25.55001,17.69325 -49.79794,11.41997c-24.24793,-6.27328 -41.2663,-21.55717 -38.01159,-34.13752c3.25471,-12.58035 23.45787,-8.42116 47.7058,-2.14789c24.24793,6.27328 43.35845,12.28508 40.10373,24.86543z" fill="#fff7ad" stroke-width="5" stroke-linecap="butt"/><path d="M322.34642,196.61379c-3.25471,12.58035 -25.55001,17.69325 -49.79794,11.41997c-24.24793,-6.27328 -41.2663,-21.55717 -38.01159,-34.13752c3.25471,-12.58035 23.45787,-8.42116 47.7058,-2.14789c24.24793,6.27328 43.35845,12.28508 40.10373,24.86543z" fill="#fff7ad" stroke-width="5" stroke-linecap="butt"/><path d="M279.10914,173.76734c0,-28.03489 20.87381,-34.25346 48.90869,-34.25346c28.03488,0 52.61461,6.21858 52.61461,34.25346c0,28.03489 -22.72676,50.76165 -50.76165,50.76165c-28.03488,0 -50.76165,-22.72676 -50.76165,-50.76165z" fill="#fff7ad" stroke-width="5" stroke-linecap="butt"/><path d="M324.67223,180.46694c0,-7.69459 6.2377,-13.93229 13.93229,-13.93229c7.69459,0 13.93229,6.2377 13.93229,13.93229c0,7.69459 -5.14318,7.14628 -12.83777,7.14628c-7.69459,0 -15.02681,0.54831 -15.02681,-7.14628z" fill="#000000" stroke-width="2.5" stroke-linecap="butt"/><path d="M344.17485,180.41132c0,-2.42258 1.96389,-4.38647 4.38647,-4.38647c2.42259,0 4.38647,1.96389 4.38647,4.38647c0,2.42258 -1.96389,4.38647 -4.38647,4.38647c-2.42259,0 -4.38647,-1.96389 -4.38647,-4.38647z" fill="#fff7ad" stroke-width="0.5" stroke-linecap="butt"/><path d="M371.28321,186.69615c-7.69459,0 -14.8079,0.76721 -14.8079,-6.92738c0,-7.69459 6.2377,-13.93229 13.93229,-13.93229c7.69459,0 13.93229,6.2377 13.93229,13.93229c0,7.69459 -5.36209,6.92738 -13.05668,6.92738z" data-paper-data="{&quot;index&quot;:null}" fill="#000000" stroke-width="2.5" stroke-linecap="butt"/><path d="M380.70989,183.9595c-2.35299,0 -4.26047,-1.90748 -4.26047,-4.26047c0,-2.35299 1.90747,-4.26047 4.26047,-4.26047c2.35299,0 4.26047,1.90748 4.26047,4.26047c0,2.35299 -1.90747,4.26047 -4.26047,4.26047z" data-paper-data="{&quot;index&quot;:null}" fill="#fff7ad" stroke-width="0.5" stroke-linecap="butt"/><path d="M341.22669,197.2286c0,0 -16.02516,2.7225 -18.6823,2.10398c-4.38753,-1.02131 -18.99198,-10.87365 -18.99198,-10.87365" fill="none" stroke-width="2.5" stroke-linecap="round"/></g></g></svg>