<svg version="1.1" xmlns="http://www.w3.org/2000/svg" xmlns:xlink="http://www.w3.org/1999/xlink" width="177.49523" height="96.58208" viewBox="0,0,177.49523,96.58208"><g transform="translate(-235.85451,-137.01388)"><g data-paper-data="{&quot;isPaintingLayer&quot;:true}" fill-rule="nonzero" stroke="#000000" stroke-linejoin="miter" stroke-miterlimit="10" stroke-dasharray="" stroke-dashoffset="0" style="mix-blend-mode: normal"><path d="M410.84974,174.91106c-3.47079,12.52246 -25.8508,17.2508 -49.98714,10.56105c-24.13635,-6.68975 -40.8891,-22.26434 -37.41831,-34.7868c3.47079,-12.52246 23.59935,-8.0161 47.7357,-1.32635c24.13635,6.68975 43.14055,13.02963 39.66976,25.55209z" fill="#fff7ad" stroke-width="5" stroke-linecap="butt"/><path d="M405.90892,193.67226c-3.47079,12.52246 -25.85081,17.2508 -49.98715,10.56105c-24.13635,-6.68975 -40.88909,-22.26433 -37.4183,-34.78679c3.47079,-12.52246 23.59935,-8.01611 47.7357,-1.32635c24.13635,6.68975 43.14055,13.02963 39.66976,25.5521z" fill="#fff7ad" stroke-width="5" stroke-linecap="butt"/><path d="M400.99221,212.90228c-3.47079,12.52246 -25.85079,17.2508 -49.98714,10.56104c-24.13635,-6.68975 -40.88909,-22.26433 -37.41831,-34.78678c3.47079,-12.52246 23.59935,-8.01611 47.7357,-1.32635c24.13635,6.68975 43.14055,13.02963 39.66976,25.5521z" fill="#fff7ad" stroke-width="5" stroke-linecap="butt"/><path d="M326.35921,156.8645c3.14465,12.60831 -14.00662,27.7429 -38.30845,33.80405c-24.30182,6.06115 -46.5516,0.75362 -49.69625,-11.85469c-3.14465,-12.60831 16.59381,-18.59658 40.89563,-24.65773c24.30182,-6.06115 43.96441,-9.89994 47.10906,2.70837z" fill="#fff7ad" stroke-width="5" stroke-linecap="butt"/><path d="M331.2961,175.62674c3.14465,12.60831 -14.00662,27.7429 -38.30844,33.80405c-24.30182,6.06115 -46.5516,0.75362 -49.69625,-11.85469c-3.14465,-12.60831 16.59381,-18.59659 40.89563,-24.65774c24.30182,-6.06115 43.96441,-9.89994 47.10907,2.70838z" fill="#fff7ad" stroke-width="5" stroke-linecap="butt"/><path d="M336.4848,194.78515c3.14465,12.60831 -14.00662,27.7429 -38.30844,33.80405c-24.30182,6.06115 -46.5516,0.75362 -49.69625,-11.85469c-3.14465,-12.60831 16.59381,-18.59659 40.89563,-24.65774c24.30182,-6.06115 43.96441,-9.89994 47.10907,2.70838z" fill="#fff7ad" stroke-width="5" stroke-linecap="butt"/><path d="M279.10914,173.76734c0,-28.03489 20.87381,-34.25346 48.90869,-34.25346c28.03488,0 52.61461,6.21858 52.61461,34.25346c0,28.03489 -22.72676,50.76165 -50.76165,50.76165c-28.03488,0 -50.76165,-22.72676 -50.76165,-50.76165z" fill="#fff7ad" stroke-width="5" stroke-linecap="butt"/><path d="M324.67223,180.46694c0,-7.69459 9.8496,-5.28561 17.5442,-5.28561c3.01835,0 10.32038,0.60936 10.32038,5.28561c0,7.69459 -6.2377,13.93229 -13.93229,13.93229c-7.69459,0 -13.93229,-6.2377 -13.93229,-13.93229z" fill="#000000" stroke-width="2.5" stroke-linecap="butt"/><path d="M344.17485,180.41132c0,-2.42258 1.96389,-4.38647 4.38647,-4.38647c2.42259,0 4.38647,1.96389 4.38647,4.38647c0,2.42258 -1.96389,4.38647 -4.38647,4.38647c-2.42259,0 -4.38647,-1.96389 -4.38647,-4.38647z" fill="#fff7ad" stroke-width="0.5" stroke-linecap="butt"/><path d="M370.4076,193.70106c-7.69459,0 -13.93229,-6.2377 -13.93229,-13.93229c0,-7.69459 9.52125,-4.40999 17.21584,-4.40999c7.69459,0 10.64874,-3.2846 10.64874,4.40999c0,7.69459 -6.2377,13.93229 -13.93229,13.93229z" data-paper-data="{&quot;index&quot;:null}" fill="#000000" stroke-width="2.5" stroke-linecap="butt"/><path d="M380.70989,183.9595c-2.35299,0 -4.26047,-1.90748 -4.26047,-4.26047c0,-2.35299 1.90747,-4.26047 4.26047,-4.26047c2.35299,0 4.26047,1.90748 4.26047,4.26047c0,2.35299 -1.90747,4.26047 -4.26047,4.26047z" data-paper-data="{&quot;index&quot;:null}" fill="#fff7ad" stroke-width="0.5" stroke-linecap="butt"/><path d="M349.21667,210.73404c0,0 -22.13027,-2.63761 -29.08021,-4.86903c-4.38753,-1.40871 -10.12639,0.76291 -10.12639,0.76291" fill="none" stroke-width="2.5" stroke-linecap="round"/></g></g></svg>