<svg version="1.1" xmlns="http://www.w3.org/2000/svg" xmlns:xlink="http://www.w3.org/1999/xlink" width="113.04572" height="110.74295" viewBox="0,0,113.04572,110.74295"><g transform="translate(-184.43189,-122.51873)"><g data-paper-data="{&quot;isPaintingLayer&quot;:true}" fill-rule="nonzero" stroke="#000000" stroke-width="5" stroke-linejoin="miter" stroke-miterlimit="10" stroke-dasharray="" stroke-dashoffset="0" style="mix-blend-mode: normal"><path d="M189.23836,180.00004c0,-28.03489 22.72677,-50.76165 50.76165,-50.76165c28.03488,0 50.76165,22.72677 50.76165,50.76165c0,28.03489 -22.72676,50.76165 -50.76165,50.76165c-28.03488,0 -50.76165,-22.72676 -50.76165,-50.76165z" fill="#ff0000" stroke-linecap="butt"/><path d="M215.06768,164.64333c0,-1.27815 -11.45097,-1.3545 -10.80041,-4.32631c2.18354,-9.97452 20.58638,-31.78128 35.30199,-31.78128c19.09998,0 34.58357,4.51386 34.58357,10.08199c0,5.56813 -15.48359,10.08199 -34.58357,10.08199c-19.09998,0 -24.50158,21.51174 -24.50158,15.94361z" fill="#ff0000" stroke-linecap="butt"/><path d="M186.9319,179.29738c0,-16.5717 6.68123,-29.75209 15.93693,-29.45305c3.43718,0.11105 2.17615,11.98541 8.33019,11.98541c9.95553,0 13.2524,-9.48775 14.60454,-7.69989c1.73443,2.29334 -0.18494,17.08661 -0.18494,29.85682c0,22.72574 17.21581,44.19663 -5.50993,44.19663c-22.72574,0 -33.17678,-26.16019 -33.17678,-48.88593z" fill="#ff0000" stroke-linecap="butt"/><path d="M195.6071,146.82396c0,-12.0427 14.80127,-21.80523 33.05955,-21.80523c18.25829,0 59.55408,10.46593 59.55408,22.50863c0,6.97354 -13.84728,8.4918 -29.05007,12.28474c-11.05113,2.75714 -22.81851,8.8171 -30.50401,8.8171c-18.25828,0 -33.05955,-9.76254 -33.05955,-21.80524z" fill="#ff0000" stroke-linecap="butt"/><path d="M218.81912,165.3467c0,-16.96337 15.62725,-11.48878 32.59062,-11.48878c16.96337,0 38.45224,-19.77695 38.45224,-2.81358c0,16.96337 -71.04286,30.88493 -71.04286,14.30236z" fill="#ff0000" stroke-linecap="butt"/><path d="M253.63151,178.71149l41.34611,10.19861" fill="none" stroke-linecap="round"/><path d="M270.37379,184.81551l0.75018,24.75608" fill="none" stroke-linecap="round"/><path d="M277.53192,184.70186l1.50037,25.05615" fill="none" stroke-linecap="round"/><path d="M251.43814,215.43461l-11.25276,-1.50037" fill="none" stroke-linecap="round"/><path d="M260.2842,203.9379l12.30189,7.1761" fill="none" stroke-linecap="round"/><path d="M289.96359,206.73021l-11.78931,3.84434" fill="none" stroke-linecap="round"/></g></g></svg>