<svg version="1.1" xmlns="http://www.w3.org/2000/svg" xmlns:xlink="http://www.w3.org/1999/xlink" width="175.07429" height="320.42541" viewBox="0,0,175.07429,320.42541"><g transform="translate(-244.09905,-40.56202)"><g data-paper-data="{&quot;isPaintingLayer&quot;:true}" fill-rule="nonzero" stroke-linejoin="miter" stroke-miterlimit="10" stroke-dasharray="" stroke-dashoffset="0" style="mix-blend-mode: normal"><g data-paper-data="{&quot;index&quot;:null}" stroke="#000000" stroke-linecap="butt"><path d="M348.56219,233.84468c2.37145,-1.57977 -9.72193,-11.51302 -14.73646,-19.80623c-4.06616,-6.72475 -3.66681,-13.23922 2.85778,-10.45389c4.48594,6.734 74.26156,25.3579 46.5175,43.83994c-27.74408,18.48204 -53.87166,28.00571 -58.35759,21.2717c-4.48594,-6.734 -4.02531,-16.36951 23.71877,-34.85153z" fill="#216aff" stroke-width="2"/><path d="M357.31302,245.42279c8.13711,12.21493 5.07984,28.54802 -6.82862,36.48097c-11.90846,7.93295 -28.15861,4.46173 -36.29572,-7.7532c-8.13711,-12.21493 -5.07983,-28.548 6.82863,-36.48095c11.90846,-7.93295 28.1586,-4.46174 36.29571,7.75318z" fill="#faddbf" stroke-width="2"/><path d="M350.97899,281.09955c-11.90845,7.93296 -28.1586,4.46174 -36.29571,-7.75318c-8.13711,-12.21493 26.16852,-1.14247 38.07699,-9.07542c11.90847,-7.93297 10.12719,8.89565 -1.78126,16.82861z" fill="#ef8b89" stroke-width="0"/></g><g stroke="#000000" stroke-linecap="butt"><path d="M327.43955,340.83534v-95.29492h29.49199v95.29492z" fill="#73fffc" stroke-width="2"/><path d="M327.1138,340.21741l1.32626,-93.78573c0,0 5.20288,68.11227 6.3799,77.52842c0.2602,2.08162 2.52228,2.78987 2.52228,2.78987l18.60659,13.13896z" fill="#59a9e6" stroke-width="0"/></g><g stroke="#000000" stroke-linecap="butt"><path d="M288.4238,338.41279v-95.29492h29.49199v95.29492z" fill="#73fffc" stroke-width="2"/><path d="M288.09805,337.79491l1.32626,-93.78573c0,0 5.20288,68.11227 6.3799,77.52842c0.2602,2.08162 2.52228,2.78987 2.52228,2.78987l18.60659,13.13896z" fill="#59a9e6" stroke-width="0"/></g><g stroke="#000000" stroke-linecap="butt"><path d="M355.22917,235.69588c0,13.80271 10.04743,36.74388 4.95001,46.45977c-6.2338,11.88187 -28.61241,9.09579 -38.9397,9.09579c-13.66287,0 -32.94407,4.17018 -38.34426,-14.83216c-2.01935,-7.10576 4.35457,-32.37264 4.35457,-40.7234c0,-30.68249 15.2177,-55.55556 33.98969,-55.55556c18.77199,0 33.98969,24.87307 33.98969,55.55556z" fill="#216aff" stroke-width="2"/><path d="M303.96554,251.27245c0,13.80271 62.04198,20.54886 56.94455,30.26474c-6.2338,11.88186 -28.61241,9.09579 -38.9397,9.09579c-13.66287,0 -32.94406,4.17018 -38.34425,-14.83215c-2.01936,-7.10576 4.35457,-32.37265 4.35457,-40.7234c0,-9.45244 3.34855,-28.59801 5.51953,-29.96813c5.94391,-16.76415 10.4653,25.13995 10.4653,46.16315z" fill="#3236f4" stroke-width="0"/></g><g stroke="#000000" stroke-linecap="butt"><g><path d="M247.41974,121.47927c4.20891,-46.60111 45.39857,-80.96677 91.99968,-76.75786c46.60111,4.20891 80.96677,45.39857 76.75786,91.99968c-4.20891,46.60111 -45.39857,80.96677 -91.99968,76.75786c-46.60111,-4.20891 -80.96677,-45.39857 -76.75786,-91.99968z" fill="#faddbf" stroke-width="2"/><path d="M247.72778,120.63404c1.35416,-14.99325 12.31121,-40.06618 17.09109,-42.86172c0.54587,-0.31927 6.56445,-8.35367 14.65865,-14.36649c10.06052,-7.47352 22.59167,-13.17767 23.18223,-12.92647c7.70515,3.27739 -23.2893,63.01547 -24.33029,88.31431c-0.00249,0.06033 2.61739,20.01817 4.18983,20.60089c2.4472,4.9828 7.35111,19.89526 17.54604,27.98526c18.99946,15.07663 46.9732,24.00275 45.45042,24.373c-2.43588,0.59227 -14.99179,1.42627 -21.03011,0.88091c-46.60111,-4.20891 -80.96677,-45.39857 -76.75786,-91.99968z" fill="#ef8b89" stroke-width="0"/><path d="M415.69717,136.21767c-1.04562,11.57721 -2.97838,15.43538 -3.36163,13.5415c-0.39099,-1.9321 0.69683,-9.79063 -7.6882,-15.40326c-2.03186,-1.36005 -10.72941,5.33254 -13.33548,3.86402c-1.63692,-0.92241 -7.70177,-10.91256 -9.54688,-11.75799c-1.29007,-0.59111 -13.15321,7.2237 -14.50655,6.64898c-3.37527,-1.43336 -10.91684,-12.40583 -14.59365,-13.3986c-2.02472,-0.54669 -10.31108,10.96673 -12.38871,10.5242c-2.67938,-0.5707 -8.94223,-12.9252 -11.66852,-13.17143c-7.25033,-0.65484 -8.08009,6.30955 -13.83695,11.82027c-3.74095,3.581 -12.75767,-14.25726 -16.26777,-10.12103c-4.35914,5.1367 -8.6617,10.07944 -13.20932,13.28298c-3.56778,2.51331 -12.40175,-11.25806 -15.50155,-8.90961c-14.96671,11.33903 -23.99038,18.56099 -22.35579,0.46282c3.28684,-36.39202 43.85097,-4.2864 87.40027,-21.96246c41.68495,-16.91934 84.14761,-1.81244 80.86075,34.57958z" fill="#ef8b89" stroke-width="0"/></g><path d="M417.9724,128.07844c-2.11236,23.38814 5.72127,9.26751 -11.34293,-1.88823c-2.08816,-1.36513 -10.99715,5.30836 -13.67479,3.83338c-1.68186,-0.92646 -7.92874,-10.93306 -9.82406,-11.78303c-1.32518,-0.59428 -13.47983,7.1942 -14.86988,6.61617c-3.46683,-1.44163 -11.23134,-12.43424 -15.00656,-13.43589c-2.07891,-0.55159 -10.5546,10.94473 -12.68756,10.4972c-2.75072,-0.57714 -9.20637,-12.94906 -12.00447,-13.20177c-7.44132,-0.67209 -8.27631,6.29183 -14.17058,11.79014c-3.83024,3.57294 -13.12464,-14.29039 -16.7167,-10.16157c-4.46091,5.12751 -8.86422,10.06114 -13.5231,13.25465c-3.65506,2.50542 -12.75234,-11.28973 -15.9276,-8.94808c-15.33099,11.30613 -24.57339,18.50834 -22.93881,0.41017c3.28684,-36.39202 47.01025,-77.34185 92.7509,-73.21065c45.74064,4.13119 83.22301,49.83551 79.93615,86.22753z" fill="#724e36" stroke-width="2"/><path d="M417.83026,126.89808c-2.11236,23.38814 5.72127,9.26751 -11.34293,-1.88823c-2.08816,-1.36513 -10.99715,5.30836 -13.67479,3.83338c-1.68186,-0.92646 -7.92874,-10.93306 -9.82407,-11.78303c-1.32518,-0.59428 -13.47983,7.1942 -14.86988,6.61617c-3.46683,-1.44163 -11.23134,-12.43424 -15.00656,-13.43589c-2.07891,-0.55159 -10.5546,10.94473 -12.68756,10.4972c-2.75072,-0.57714 -9.20637,-12.94906 -12.00447,-13.20177c-7.44132,-0.67209 -8.27631,6.29183 -14.17058,11.79014c-3.83024,3.57294 -13.12464,-14.29039 -16.7167,-10.16157c-4.46091,5.12751 -8.86422,10.06114 -13.52311,13.25465c-3.65506,2.50542 -12.75234,-11.28973 -15.9276,-8.94808c-15.33099,11.30613 -24.57339,18.50834 -22.93881,0.41017c3.28684,-36.39202 44.98657,-4.18383 89.632,-21.7609c42.73415,-16.82458 86.34191,-1.61425 83.05505,34.77777z" fill="#623728" stroke-width="0"/></g><g stroke="#000000" stroke-linecap="butt"><path d="M348.49716,153.60395c-2.56892,28.44316 -17.00888,41.92946 -33.51025,40.4391c-16.50137,-1.49037 -28.81544,-17.39305 -26.24651,-45.8362c2.56892,-28.44316 18.02846,-50.29272 34.52983,-48.80235c16.50137,1.49037 27.79585,25.75628 25.22693,54.19946z" fill="#f0f0f0" stroke-width="2"/><path d="M303.69244,129.89517c-6.82476,27.73149 28.50397,64.86855 12.00259,63.37818c-16.50137,-1.49037 -28.81544,-17.39305 -26.24651,-45.8362c2.56892,-28.44316 24.1105,-57.63352 14.24392,-17.54197z" fill="#9a99ff" stroke-width="0"/></g><path d="M343.87792,161.45351c-1.42324,15.75807 -7.2469,28.11074 -13.00751,27.59045c-5.76061,-0.52029 -9.27675,-13.71651 -7.85352,-29.47458c1.42324,-15.75807 7.2469,-28.11074 13.00751,-27.59045c5.76061,0.52029 9.27675,13.71651 7.85352,29.47458z" fill="#000000" stroke="none" stroke-width="0" stroke-linecap="butt"/><g stroke="#000000" stroke-linecap="butt"><path d="M346.20984,123.24043c3.52119,10.58947 7.25561,42.54021 -8.39096,41.12706c-15.64657,-1.41317 -45.03585,-36.43378 -39.64456,-45.60121c5.12974,-8.72267 8.68889,-20.72134 24.33545,-19.30817c15.64657,1.41317 20.34431,13.69041 23.70006,23.78233z" fill="#a100fe" stroke-width="2"/><path d="M345.49082,122.8198c3.36975,10.5758 7.96165,42.26194 -7.15141,40.89696c-15.11307,-1.36498 -44.48276,-36.04178 -39.2458,-45.22315c4.98288,-8.73593 6.4451,1.54805 21.55817,2.91304c15.11307,1.36498 21.62762,-8.66573 24.83904,1.41315z" fill="#99008e" stroke-width="0"/></g><g data-paper-data="{&quot;index&quot;:null}" stroke="#000000" stroke-linecap="butt"><path d="M386.87157,103.66419c16.50137,1.49037 27.79585,25.75628 25.22693,54.19946c-2.56892,28.44315 -17.53307,41.88212 -34.03444,40.39175c-16.50137,-1.49037 -28.29126,-17.3457 -25.72232,-45.78886c2.56892,-28.44316 18.02846,-50.29272 34.52983,-48.80235z" fill="#f0f0f0" stroke-width="2"/><path d="M411.53975,156.97952c-2.56892,28.44315 -17.53307,41.88212 -34.03444,40.39175c-16.50137,-1.49037 24.90964,-31.69646 23.16409,-60.202c-2.52353,-41.21059 13.43927,-8.63292 10.87035,19.81024z" fill="#9a99ff" stroke-width="0"/></g><path d="M399.6028,137.54907c5.76061,0.52029 9.27675,13.71651 7.85352,29.47458c-1.42324,15.75807 -7.2469,28.11074 -13.00751,27.59045c-5.76061,-0.52029 -9.27675,-13.71651 -7.85352,-29.47458c1.42324,-15.75807 7.2469,-28.11074 13.00751,-27.59045z" data-paper-data="{&quot;index&quot;:null}" fill="#000000" stroke="none" stroke-width="0" stroke-linecap="butt"/><g data-paper-data="{&quot;index&quot;:null}" stroke="#000000" stroke-linecap="butt"><path d="M360.03242,123.00418c5.10964,-9.32733 11.93113,-20.56419 27.5777,-19.15102c15.64657,1.41317 16.99827,13.85538 20.48212,23.356c3.66148,9.98505 -8.17923,13.57606 -23.8258,12.1629c-15.64657,-1.41317 -29.59561,-6.58066 -24.23403,-16.36787z" fill="#a100fe" stroke-width="2"/><path d="M360.9848,122.73451c4.96532,-9.34037 9.57722,1.69526 24.69027,3.06024c15.11307,1.36498 18.39425,-8.49058 21.73124,0.99678c3.50714,9.97111 -7.94406,13.5973 -23.05713,12.23232c-15.11307,-1.36498 -28.57453,-6.48844 -23.3644,-16.28932z" fill="#99008e" stroke-width="0"/></g><path d="M391.63632,338.87005c0,11.6628 -14.51982,21.11737 -32.43092,21.11737c-17.9111,0 -32.43092,-9.45457 -32.43092,-21.11737c0,-2.33142 -0.03339,-13.76009 1.08979,-15.13837c4.49546,-5.51647 17.81784,5.26144 32.14847,5.26144c17.9111,0 31.62358,-1.78588 31.62358,9.87692z" fill="#000082" stroke="#000000" stroke-width="2" stroke-linecap="butt"/><path d="M389.75004,336.13775c0,6.30841 -13.89058,10.1901 -31.80169,10.1901c-17.9111,0 -30.16566,-2.95748 -30.16566,-9.26589c0,-1.26107 -0.03338,-12.52602 1.0898,-13.27153c4.49546,-2.98386 15.55258,5.7726 29.88321,5.7726c17.9111,0 30.99434,0.26631 30.99434,6.57472z" fill="#2e0048" stroke="#000000" stroke-width="0" stroke-linecap="butt"/><path d="M348.64938,338.2252c0,11.6628 -14.51982,21.11737 -32.43092,21.11737c-17.9111,0 -32.43092,-9.45457 -32.43092,-21.11737c0,-2.33142 -0.03339,-13.76009 1.08979,-15.13837c4.49546,-5.51647 17.81784,5.26144 32.14847,5.26144c17.9111,0 31.62358,-1.78588 31.62358,9.87692z" fill="#000082" stroke="#000000" stroke-width="2" stroke-linecap="butt"/><path d="M346.7631,335.49289c0,6.30841 -13.89058,10.1901 -31.80169,10.1901c-17.9111,0 -30.16566,-2.95748 -30.16566,-9.26589c0,-1.26107 -0.03338,-12.52602 1.0898,-13.27153c4.49546,-2.98386 15.55258,5.7726 29.88321,5.7726c17.9111,0 30.99434,0.26631 30.99434,6.57472z" fill="#2e0048" stroke="#000000" stroke-width="0" stroke-linecap="butt"/><g><path d="M307.80527,257.84234c-15.05214,-1.02767 -23.32658,-9.19735 -23.0049,-24.13074c0.25156,-11.67955 13.7026,-23.80776 28.75476,-22.78009c15.05222,1.02764 25.32267,11.50054 24.30528,26.40269c-0.1591,2.33041 -0.99757,4.43391 -1.74542,6.36227c-4.03445,10.4026 -15.61142,15.01284 -28.3097,14.14588z" fill="#485e84" stroke="#000000" stroke-width="2" stroke-linecap="butt"/><path d="M300.44197,215.13039c0,0 -0.83113,5.69563 0.68752,7.00219c14.56712,12.53287 28.46869,14.52398 33.11682,14.83164c1.05605,0.06991 1.69631,-0.85255 1.69631,-0.85255c0,0 0.07828,2.11233 -0.69597,4.74189c-0.82387,2.79806 -2.56522,6.18505 -4.74837,8.34814c-2.4938,2.47084 -9.72812,6.61487 -9.72812,6.61487l-20.86709,1.8502c0,0 -9.68361,-9.33718 -10.62948,-11.28711c-0.92666,-1.91029 -1.47527,-4.43649 -2.16669,-7.09899c-1.0735,-4.1339 -0.61741,-8.65041 0.46621,-11.31885c1.38298,-3.40552 4.43588,-6.93138 7.39506,-9.34089c2.75407,-2.24249 5.47382,-3.49041 5.47382,-3.49041z" fill="#343545" stroke="none" stroke-width="0" stroke-linecap="butt"/><path d="M301.13943,239.55748c0,0 -1.26354,-8.93317 1.27104,-13.42273c3.20848,-5.68331 12.47815,-14.74838 12.47815,-14.74838" fill="none" stroke="#000000" stroke-width="1" stroke-linecap="round"/><path d="M336.70038,230.34144c0,0 -1.98007,6.87089 -4.12148,10.5973c-2.16182,3.76202 -9.65172,9.9308 -9.65172,9.9308" fill="none" stroke="#000000" stroke-width="1" stroke-linecap="round"/><path d="M290.4259,241.91895c0,0 -1.43398,-9.1504 1.53277,-13.88827c4.55239,-7.27007 12.49644,-15.7192 12.49644,-15.7192" fill="none" stroke="#000000" stroke-width="1" stroke-linecap="round"/><path d="M287.26222,226.96607c0,0 14.40294,-9.59326 30.66795,-3.34883c17.81626,6.83998 16.31566,24.0225 16.31566,24.0225" fill="none" stroke="#000000" stroke-width="1" stroke-linecap="round"/><path d="M285.35167,236.2964c0,0 16.23659,-7.29628 30.601,-1.81694c11.79448,4.49906 11.88437,19.09052 11.88437,19.09052" fill="none" stroke="#000000" stroke-width="1" stroke-linecap="round"/><path d="M325.94516,220.07315c-0.9801,-0.69756 -1.32691,-1.89203 -0.7747,-2.66788c0.55219,-0.77593 1.21401,-0.33325 2.19411,0.36432c0.9801,0.69756 1.90728,1.38584 1.35507,2.16173c-0.55219,0.77593 -1.79443,0.83942 -2.77447,0.14184z" fill="#8fbbbe" stroke="none" stroke-width="0" stroke-linecap="butt"/><path d="M331.23927,225.05625c-0.60009,-0.04099 -1.03673,-0.80387 -0.97528,-1.70399c0.06145,-0.90013 0.21082,-1.25916 0.8109,-1.21821c0.60009,0.04099 1.21784,0.81624 1.15636,1.71636c-0.06145,0.90013 -0.39194,1.24681 -0.992,1.20584z" fill="#8fbbbe" stroke="none" stroke-width="0" stroke-linecap="butt"/><path d="M320.27151,216.11418c-0.88849,-0.15704 -1.52383,-0.76443 -1.41917,-1.35673c0.10463,-0.59226 0.87266,-0.4019 1.76112,-0.24491c0.88849,0.15704 1.56092,0.22113 1.45627,0.81344c-0.10463,0.59226 -0.90978,0.94519 -1.79823,0.78818z" fill="#8fbbbe" stroke="none" stroke-width="0" stroke-linecap="butt"/><path d="M296.47833,217.225c0,0 9.88117,-2.6537 17.40755,-1.77435c4.26708,0.49856 7.8558,2.41102 10.56033,3.89144c2.39176,1.30918 6.46102,6.47317 9.16437,10.74988c1.99033,3.1487 3.06874,5.88804 3.06874,5.88804" fill="none" stroke="#000000" stroke-width="0.5" stroke-linecap="round"/><path d="M330.68437,217.19517c0,0 -1.12516,10.51247 -3.62562,15.30463c-2.10668,4.03752 -10.03705,11.59881 -10.03705,11.59881" fill="none" stroke="#000000" stroke-width="1" stroke-linecap="round"/><path d="M311.51914,242.08549c0,0 1.13587,-9.59885 2.7817,-13.81098c2.88977,-7.39569 10.60528,-14.3848 10.60528,-14.3848" fill="none" stroke="#000000" stroke-width="1" stroke-linecap="round"/></g><g stroke="#000000" stroke-linecap="butt"><path d="M287.86435,240.09618c31.00588,12.24557 33.4791,21.56964 30.50688,29.09535c-2.97223,7.52572 -30.51694,3.69949 -61.52282,-8.54609c-31.00587,-12.24558 33.30488,-45.10309 36.27711,-52.6288c5.79442,-4.09302 7.55252,2.19242 4.98877,9.62096c-3.1617,9.16113 -12.9002,21.41188 -10.24994,22.45859z" fill="#216aff" stroke-width="2"/><path d="M315.59838,238.05312c13.30851,5.25611 19.72662,20.58335 14.33524,34.23436c-5.39138,13.65101 -20.55064,20.45642 -33.85915,15.20031c-13.30851,-5.25611 -19.72661,-20.58337 -14.33523,-34.23437c5.39138,-13.65101 20.55064,-20.45641 33.85915,-15.2003z" fill="#faddbf" stroke-width="2"/><path d="M290.14752,270.72575c13.30851,5.25611 44.52508,-12.77169 39.1337,0.87932c-5.39138,13.65101 -20.55064,20.45642 -33.85915,15.2003c-13.30851,-5.25611 -18.58307,-21.33574 -5.27456,-16.07962z" fill="#ef8b89" stroke-width="0"/></g><path d="M269.60259,172.44165l15.95275,12.72837" fill="none" stroke="#000000" stroke-width="2.5" stroke-linecap="round"/></g></g></svg>