<svg version="1.1" xmlns="http://www.w3.org/2000/svg" xmlns:xlink="http://www.w3.org/1999/xlink" width="198.24862" height="325.28384" viewBox="0,0,198.24862,325.28384"><g transform="translate(-233.38689,-20.29619)"><g data-paper-data="{&quot;isPaintingLayer&quot;:true}" fill-rule="nonzero" stroke-linecap="butt" stroke-linejoin="miter" stroke-miterlimit="10" stroke-dasharray="" stroke-dashoffset="0" style="mix-blend-mode: normal"><g data-paper-data="{&quot;index&quot;:null}" stroke="#000000"><path d="M383.96708,254.53903l-20.06084,-43.67339l46.34231,-21.28678l20.06084,43.67339z" fill="#ffcaa0" stroke-width="2"/><g><path d="M363.82968,211.09921l-27.6617,-60.22082l46.94634,-21.56423l27.6617,60.22082z" fill="#0000c0" stroke-width="2"/><path d="M364.59407,210.98191l-14.48838,-31.54188c0,0 20.06125,6.65154 27.85495,3.0716c7.38959,-3.39432 17.75948,-24.02403 17.75948,-24.02403l14.48838,31.54189c0,0 -15.00305,6.89147 -22.56459,10.36477c-7.64242,3.51045 -23.04984,10.58766 -23.04984,10.58766z" fill="#56006b" stroke-width="0"/></g><path d="M384.45839,253.71435l-20.06084,-43.67339l25.48565,24.13985l40.9175,-1.75324z" fill="#ff6e5b" stroke-width="0"/></g><g data-paper-data="{&quot;index&quot;:null}" stroke="#000000"><path d="M421.11659,91.13322c0,32.20527 -11.88407,58.3128 -26.54382,58.3128c-14.65975,0 -26.54382,-26.10753 -26.54382,-58.3128c0,-32.20527 11.88407,-58.3128 26.54382,-58.3128c14.65975,0 26.54382,26.10753 26.54382,58.3128z" fill="#01930e" stroke-width="2"/><path d="M377.20908,81.08475c0,32.20527 32.42529,67.9271 17.76555,67.9271c-14.65974,0 -26.54382,-26.10753 -26.54382,-58.3128c0,-32.20527 8.77827,-41.81957 8.77827,-9.6143z" fill="#31525b" stroke-width="0"/></g><g data-paper-data="{&quot;index&quot;:null}" stroke="#000000"><path d="M316.44531,344.13567v-90.27109h61.17899v90.27109z" fill="#273750" stroke-width="2"/><path d="M317.23265,343.37909v-90.27109l18.42709,49.31565l42.75189,40.95544z" fill="#1f1e2e" stroke-width="0"/></g><path d="M264.46059,253.45329v-113.80147h113.80147v113.80147z" data-paper-data="{&quot;index&quot;:null}" fill="#0000c0" stroke="#000000" stroke-width="2"/><g data-paper-data="{&quot;index&quot;:null}" stroke="#000000"><path d="M263.83936,344.58003v-90.27109h61.17899v90.27109z" fill="#273750" stroke-width="2"/><path d="M264.62674,343.82344v-90.27109l18.42709,49.31565l42.75189,40.95544z" fill="#1f1e2e" stroke-width="0"/></g><g data-paper-data="{&quot;index&quot;:null}" stroke="#000000"><path d="M291.35367,252.98407v-111.68333h61.17899v111.68333z" fill="#ffffff" stroke-width="2"/><path d="M292.14105,252.04804v-111.68333l18.42709,61.01328l42.75189,50.67005z" fill="#8ebbfc" stroke-width="0"/></g><g data-paper-data="{&quot;index&quot;:null}" stroke="#000000"><path d="M380.53621,210.92984l-47.98045,-2.77098l2.94032,-50.91259l47.98045,2.77098z" fill="#ffcaa0" stroke-width="2"/><g><path d="M332.72611,208.33606l-66.15979,-3.82088l2.97864,-51.57618l66.15979,3.82088z" fill="#0000c0" stroke-width="2"/><path d="M332.98111,207.60597l-34.65254,-2.00126c0,0 15.28513,-14.59662 15.77963,-23.15893c0.46885,-8.11835 -12.88549,-26.95399 -12.88549,-26.95399l34.65255,2.00126c0,0 -0.95191,16.48265 -1.43167,24.7899c-0.48489,8.39611 -1.46246,25.32301 -1.46246,25.32301z" fill="#56006b" stroke-width="0"/></g><path d="M380.03839,210.10909l-47.98045,-2.77098l33.2744,-11.18323l17.64636,-36.95838z" fill="#ff6e5b" stroke-width="0"/></g><g data-paper-data="{&quot;index&quot;:null}" stroke="#000000"><path d="M244.08308,89.56396c0,-1.37646 0.88696,-27.38008 0.98912,-28.73546c2.58143,-34.24932 36.46023,-36.73529 78.90464,-36.73529c39.86984,0 74.31045,4.54212 80.31266,35.83276c0.64046,3.33883 -0.4189,26.15173 -0.4189,29.63798c0,12.46114 2.98952,39.84953 -4.38487,49.76492c-14.02387,18.8561 -46.59108,15.70582 -75.50889,15.70582c-30.57536,0 -59.08782,0.98125 -72.51838,-19.6932c-5.95144,-9.1614 -7.37538,-34.67471 -7.37538,-45.77754z" fill="#ffcaa0" stroke-width="2"/><path d="M242.24972,89.57415c0,-1.37646 0.88696,-27.38008 0.98912,-28.73546c1.46665,-19.45883 6.86352,60.55627 54.65026,82.48122c37.44896,17.1819 103.38086,-8.07612 100.416,-4.08965c-14.02387,18.8561 -47.24381,15.81461 -76.16161,15.81461c-30.57536,0 -59.08782,0.98125 -72.51838,-19.6932c-5.95144,-9.1614 -7.37538,-34.67471 -7.37538,-45.77754z" fill="#ff6e5b" stroke-width="0"/></g><g data-paper-data="{&quot;index&quot;:null}" stroke="#000000"><path d="M289.04066,89.05931c0,32.20527 -11.88407,58.3128 -26.54382,58.3128c-14.65975,0 -26.54382,-26.10753 -26.54382,-58.3128c0,-32.20527 11.88407,-58.3128 26.54382,-58.3128c14.65975,0 26.54382,26.10753 26.54382,58.3128z" fill="#01930e" stroke-width="2"/><path d="M245.13315,79.01084c0,32.20527 32.42529,67.9271 17.76555,67.9271c-14.65974,0 -26.54382,-26.10753 -26.54382,-58.3128c0,-32.20527 8.77827,-41.81957 8.77827,-9.6143z" fill="#31525b" stroke-width="0"/></g><g data-paper-data="{&quot;index&quot;:null}"><path d="M419.87871,52.27417c0,17.66096 -41.36032,31.97799 -92.38086,31.97799c-51.02054,0 -92.38085,-14.31704 -92.38085,-31.97799c0,-17.66096 41.36031,-31.97798 92.38085,-31.97798c51.02054,0 92.38086,14.31703 92.38086,31.97799z" fill="#000000" stroke="none" stroke-width="NaN"/><path d="M419.1486,52.61846c0,17.66096 -41.36032,31.97799 -92.38086,31.97799c-51.02054,0 -92.38085,-14.31704 -92.38085,-31.97799c0,-17.66096 42.79284,8.849 93.81338,8.849c51.02054,0 90.94833,-26.50996 90.94833,-8.849z" fill="#ff0000" stroke="#000000" stroke-width="2"/><path d="M413.76279,61.81541c0,4.86014 -36.34648,23.48345 -87.36702,22.05092c-17.85411,-0.5013 -34.69662,-2.13318 -48.42942,-5.08703c-25.49507,-5.48385 -41.14666,-14.06638 -38.81909,-18.15612c2.40397,-4.22396 37.6605,16.87826 88.68104,16.87826c51.02054,0 85.93449,-20.54617 85.93449,-15.68603z" fill="#900056" stroke="#000000" stroke-width="0"/></g><path d="M362.50933,113.48579c0,15.71752 -2.90507,28.45909 -6.48867,28.45909c-3.5836,0 -6.48867,-12.74157 -6.48867,-28.45908c0,-15.71752 2.90508,-28.45908 6.48867,-28.45908c3.5836,0 6.48867,12.74157 6.48867,28.45909z" data-paper-data="{&quot;index&quot;:null}" fill="#000000" stroke="none" stroke-width="0"/><path d="M386.54442,109.80712c0,15.65465 -2.75218,28.34525 -6.14716,28.34525c-3.39499,0 -6.14716,-12.6906 -6.14716,-28.34525c0,-15.65465 2.75218,-28.34525 6.14716,-28.34525c3.39499,0 6.14716,12.6906 6.14716,28.34525z" data-paper-data="{&quot;index&quot;:null}" fill="#000000" stroke="none" stroke-width="0"/><path d="M343.83776,145.09456c-3.20544,5.06315 -11.14289,5.7876 -17.72878,1.61812c-6.5859,-4.16948 -9.3263,-11.65401 -6.12085,-16.71715c3.20544,-5.06315 7.73906,-0.41109 14.32495,3.75839c6.5859,4.16948 12.73012,6.2775 9.52468,11.34064z" fill="#000000" stroke="none" stroke-width="0"/></g></g></svg>