<svg version="1.1" xmlns="http://www.w3.org/2000/svg" xmlns:xlink="http://www.w3.org/1999/xlink" width="175.59026" height="324.65261" viewBox="0,0,175.59026,324.65261"><g transform="translate(-236.9759,-36.33481)"><g data-paper-data="{&quot;isPaintingLayer&quot;:true}" fill-rule="nonzero" stroke-linejoin="miter" stroke-miterlimit="10" stroke-dasharray="" stroke-dashoffset="0" style="mix-blend-mode: normal"><g data-paper-data="{&quot;index&quot;:null}" stroke="#000000" stroke-linecap="butt"><path d="M350.49921,230.34813c2.06341,-1.96514 -11.56207,-9.66355 -17.93191,-16.96751c-5.16515,-5.9226 -5.89545,-12.40831 1.01178,-10.79014c5.58023,5.8593 77.52243,12.16864 53.38212,35.15917c-24.14032,22.99053 -48.23358,36.87814 -53.81381,31.01883c-5.58023,-5.8593 -6.78851,-15.42984 17.35181,-38.42036z" fill="#216aff" stroke-width="2"/><path d="M361.11596,240.2433c10.12207,10.6283 9.92788,27.24392 -0.43376,37.11203c-10.36164,9.86811 -26.96697,9.25186 -37.08904,-1.37644c-10.12207,-10.6283 -9.92787,-27.24391 0.43377,-37.11202c10.36164,-9.86811 26.96696,-9.25187 37.08903,1.37642z" fill="#faddbf" stroke-width="2"/><path d="M361.03067,276.47787c-10.36163,9.86812 -26.96696,9.25187 -37.08903,-1.37642c-10.12207,-10.6283 25.57924,-5.63909 35.94088,-15.5072c10.36164,-9.86813 11.50979,7.01551 1.14816,16.88362z" fill="#ef8b89" stroke-width="0"/></g><g stroke="#000000" stroke-linecap="butt"><path d="M327.43955,340.83534v-95.29492h29.49199v95.29492z" fill="#73fffc" stroke-width="2"/><path d="M327.1138,340.21741l1.32626,-93.78573c0,0 5.20288,68.11227 6.3799,77.52842c0.2602,2.08162 2.52228,2.78987 2.52228,2.78987l18.60659,13.13896z" fill="#59a9e6" stroke-width="0"/></g><g stroke="#000000" stroke-linecap="butt"><path d="M288.4238,338.41279v-95.29492h29.49199v95.29492z" fill="#73fffc" stroke-width="2"/><path d="M288.09805,337.79491l1.32626,-93.78573c0,0 5.20288,68.11227 6.3799,77.52842c0.2602,2.08162 2.52228,2.78987 2.52228,2.78987l18.60659,13.13896z" fill="#59a9e6" stroke-width="0"/></g><g stroke="#000000" stroke-linecap="butt"><path d="M355.22917,235.69588c0,13.80271 10.04743,36.74388 4.95001,46.45977c-6.2338,11.88187 -28.61241,9.09579 -38.9397,9.09579c-13.66287,0 -32.94407,4.17018 -38.34426,-14.83216c-2.01935,-7.10576 4.35457,-32.37264 4.35457,-40.7234c0,-30.68249 15.2177,-55.55556 33.98969,-55.55556c18.77199,0 33.98969,24.87307 33.98969,55.55556z" fill="#216aff" stroke-width="2"/><path d="M303.96554,251.27245c0,13.80271 62.04198,20.54886 56.94455,30.26474c-6.2338,11.88186 -28.61241,9.09579 -38.9397,9.09579c-13.66287,0 -32.94406,4.17018 -38.34425,-14.83215c-2.01936,-7.10576 4.35457,-32.37265 4.35457,-40.7234c0,-9.45244 3.34855,-28.59801 5.51953,-29.96813c5.94391,-16.76415 10.4653,25.13995 10.4653,46.16315z" fill="#3236f4" stroke-width="0"/></g><g stroke="#000000" stroke-linecap="butt"><g><path d="M240.41267,120.2695c2.53302,-46.72218 42.46225,-82.54456 89.18443,-80.01154c46.72218,2.53302 82.54456,42.46225 80.01154,89.18443c-2.53302,46.72218 -42.46225,82.54456 -89.18443,80.01154c-46.72218,-2.53302 -82.54456,-42.46225 -80.01154,-89.18443z" fill="#faddbf" stroke-width="2"/><path d="M240.69017,119.41376c0.81497,-15.0322 10.86473,-40.48237 15.54116,-43.44773c0.53406,-0.33866 6.26029,-8.58398 14.13338,-14.88353c9.7857,-7.82992 22.10397,-13.98031 22.70317,-13.75047c7.81785,2.99863 -21.01177,63.81102 -21.14375,89.13093c-0.00032,0.06038 3.33444,19.91129 4.92679,20.43717c2.62453,4.89172 8.06069,19.6185 18.53951,27.33724c19.52852,14.38475 47.80471,22.30074 46.29621,22.72543c-2.41304,0.67935 -14.93091,1.96362 -20.98492,1.63541c-46.72218,-2.53302 -82.54456,-42.46225 -80.01154,-89.18443z" fill="#ef8b89" stroke-width="0"/><path d="M409.11077,128.95653c-0.62928,11.60729 -2.42227,15.53236 -2.87327,13.65347c-0.46011,-1.91682 0.34486,-9.80934 -8.23628,-15.11729c-2.07938,-1.28622 -10.53103,5.71433 -13.18815,4.34033c-1.66898,-0.86304 -8.08861,-10.629 -9.96289,-11.40764c-1.31046,-0.54441 -12.88537,7.6913 -14.25847,7.16554c-3.42456,-1.31125 -11.35522,-12.00587 -15.06531,-12.86599c-2.04304,-0.47364 -9.91068,11.32987 -12.00286,10.96222c-2.69814,-0.47413 -9.40053,-12.5958 -12.13391,-12.74399c-7.26917,-0.3941 -7.84834,6.59559 -13.40363,12.30945c-3.60996,3.71301 -13.26134,-13.79001 -16.62067,-9.53042c-4.1719,5.2899 -8.29422,10.38393 -12.72389,13.74869c-3.47524,2.63979 -12.79797,-10.80553 -15.81145,-8.34729c-14.54994,11.86909 -23.30849,19.41038 -22.32476,1.26519c1.9781,-36.48657 43.6688,-5.85807 86.55537,-25.08633c41.0506,-18.4051 84.02828,-4.83252 82.05017,31.65405z" fill="#ef8b89" stroke-width="0"/></g><path d="M411.0923,120.74086c-1.27127,23.4489 6.05032,9.05612 -11.40341,-1.47975c-2.13583,-1.28928 -10.79947,5.69978 -13.52834,4.32189c-1.71404,-0.86548 -8.31617,-10.64134 -10.24079,-11.42271c-1.34566,-0.54632 -13.21284,7.67354 -14.62274,7.14579c-3.51636,-1.31623 -11.67054,-12.02297 -15.47929,-12.88843c-2.09737,-0.47659 -10.15483,11.31663 -12.30249,10.94597c-2.76967,-0.47801 -9.66536,-12.61016 -12.47073,-12.76225c-7.46065,-0.40448 -8.04507,6.58493 -13.73813,12.29132c-3.69949,3.70816 -13.62926,-13.80995 -17.07076,-9.55482c-4.27393,5.28437 -8.49727,10.37292 -13.03848,13.73164c-3.56275,2.63504 -13.14947,-10.82459 -16.2386,-8.37044c-14.91517,11.84929 -23.89302,19.37869 -22.90929,1.2335c1.9781,-36.48657 44.20304,-78.97985 90.06253,-76.49359c45.85948,2.48625 84.95865,46.81532 82.98054,83.30189z" fill="#724e36" stroke-width="2"/><path d="M410.90788,119.56637c-1.27127,23.4489 6.05032,9.05612 -11.40341,-1.47975c-2.13583,-1.28928 -10.79947,5.69978 -13.52834,4.32189c-1.71404,-0.86548 -8.31617,-10.64134 -10.2408,-11.42271c-1.34566,-0.54632 -13.21284,7.67354 -14.62274,7.14579c-3.51636,-1.31623 -11.67054,-12.02297 -15.47929,-12.88843c-2.09737,-0.47659 -10.15483,11.31663 -12.30249,10.94597c-2.76967,-0.47801 -9.66536,-12.61016 -12.47073,-12.76225c-7.46065,-0.40448 -8.04507,6.58493 -13.73813,12.29132c-3.69949,3.70816 -13.62926,-13.80995 -17.07076,-9.55482c-4.27393,5.28437 -8.49727,10.37292 -13.03849,13.73164c-3.56275,2.63504 -13.14947,-10.82459 -16.2386,-8.37044c-14.91517,11.84929 -23.89302,19.37869 -22.90929,1.2335c1.9781,-36.48657 44.80735,-5.79634 88.7929,-24.96503c42.10252,-18.34807 86.22828,-4.71324 84.25017,31.77332z" fill="#623728" stroke-width="0"/></g><g stroke="#000000" stroke-linecap="butt"><path d="M342.57833,148.74437c-1.54604,28.51706 -15.49247,42.51312 -32.03671,41.61618c-16.54424,-0.89694 -29.42134,-16.34724 -27.8753,-44.86429c1.54604,-28.51706 16.21112,-50.90759 32.75536,-50.01065c16.54424,0.89694 28.70269,24.74169 27.15665,53.25876z" fill="#f0f0f0" stroke-width="2"/><path d="M296.95126,126.65955c-5.82468,27.95865 30.81464,63.80331 14.27039,62.90637c-16.54424,-0.89694 -29.42134,-16.34724 -27.8753,-44.86429c1.54604,-28.51706 22.02567,-58.46203 13.60491,-18.04208z" fill="#9a99ff" stroke-width="0"/></g><path d="M338.2439,156.75472c-0.85654,15.79901 -6.23293,28.35281 -12.00851,28.03968c-5.77558,-0.31312 -9.76325,-13.37459 -8.90672,-29.1736c0.85654,-15.79901 6.23293,-28.35281 12.00851,-28.03968c5.77558,0.31312 9.76325,13.37459 8.90672,29.1736z" fill="#000000" stroke="none" stroke-width="0" stroke-linecap="butt"/><g stroke="#000000" stroke-linecap="butt"><path d="M339.20231,118.48255c3.89913,10.45622 8.7783,42.25228 -6.90892,41.40181c-15.68722,-0.85048 -46.31494,-34.79331 -41.25627,-44.1484c4.81325,-8.90122 7.9393,-21.01995 23.62652,-20.16947c15.68722,0.85048 20.82274,12.95114 24.53866,22.91606z" fill="#a100fe" stroke-width="2"/><path d="M338.46865,118.088c3.74729,10.44799 9.4739,41.94883 -5.67843,41.12736c-15.15233,-0.82148 -45.74813,-34.42142 -40.8442,-43.7849c4.66601,-8.9092 6.49653,1.31565 21.64886,2.13713c15.15233,0.82148 21.30254,-9.43666 24.87376,0.52041z" fill="#99008e" stroke-width="0"/></g><g data-paper-data="{&quot;index&quot;:null}" stroke="#000000" stroke-linecap="butt"><path d="M379.13495,97.459c16.54424,0.89694 28.70269,24.74169 27.15665,53.25876c-1.54604,28.51705 -16.01802,42.48463 -32.56226,41.58769c-16.54424,-0.89694 -28.8958,-16.31874 -27.34975,-44.8358c1.54604,-28.51706 16.21112,-50.90759 32.75536,-50.01065z" fill="#f0f0f0" stroke-width="2"/><path d="M405.70147,149.85427c-1.54604,28.51705 -16.01802,42.48463 -32.56226,41.58769c-16.54424,-0.89694 23.75554,-32.57038 20.98765,-60.99487c-4.00154,-41.09341 13.12065,-9.10988 11.57461,19.40718z" fill="#9a99ff" stroke-width="0"/></g><path d="M393.07458,130.86493c5.77558,0.31312 9.76325,13.37459 8.90672,29.1736c-0.85654,15.79901 -6.23293,28.35281 -12.00851,28.03968c-5.77558,-0.31312 -9.76325,-13.37459 -8.90672,-29.1736c0.85654,-15.79901 6.23293,-28.35281 12.00851,-28.03968z" data-paper-data="{&quot;index&quot;:null}" fill="#000000" stroke="none" stroke-width="0" stroke-linecap="butt"/><g data-paper-data="{&quot;index&quot;:null}" stroke="#000000" stroke-linecap="butt"><path d="M353.00749,117.75016c4.77146,-9.50477 11.1851,-20.97931 26.87232,-20.12883c15.68722,0.85048 17.48478,13.23614 21.30749,22.60555c4.01762,9.84715 -7.68652,13.86098 -23.37374,13.0105c-15.68722,-0.85048 -29.8128,-5.51381 -24.80608,-15.48721z" fill="#a100fe" stroke-width="2"/><path d="M353.94958,117.44647c4.62676,-9.51262 9.63191,1.3503 24.78423,2.17178c15.15233,0.82148 18.07754,-9.14554 21.75302,0.21589c3.86288,9.83876 -7.45074,13.87376 -22.60307,13.05228c-15.15233,-0.82148 -28.78907,-5.45831 -23.93419,-15.43994z" fill="#99008e" stroke-width="0"/></g><path d="M391.63632,338.87005c0,11.6628 -14.51982,21.11737 -32.43092,21.11737c-17.9111,0 -32.43092,-9.45457 -32.43092,-21.11737c0,-2.33142 -0.03339,-13.76009 1.08979,-15.13837c4.49546,-5.51647 17.81784,5.26144 32.14847,5.26144c17.9111,0 31.62358,-1.78588 31.62358,9.87692z" fill="#000082" stroke="#000000" stroke-width="2" stroke-linecap="butt"/><path d="M389.75004,336.13775c0,6.30841 -13.89058,10.1901 -31.80169,10.1901c-17.9111,0 -30.16566,-2.95748 -30.16566,-9.26589c0,-1.26107 -0.03338,-12.52602 1.0898,-13.27153c4.49546,-2.98386 15.55258,5.7726 29.88321,5.7726c17.9111,0 30.99434,0.26631 30.99434,6.57472z" fill="#2e0048" stroke="#000000" stroke-width="0" stroke-linecap="butt"/><path d="M348.64938,338.2252c0,11.6628 -14.51982,21.11737 -32.43092,21.11737c-17.9111,0 -32.43092,-9.45457 -32.43092,-21.11737c0,-2.33142 -0.03339,-13.76009 1.08979,-15.13837c4.49546,-5.51647 17.81784,5.26144 32.14847,5.26144c17.9111,0 31.62358,-1.78588 31.62358,9.87692z" fill="#000082" stroke="#000000" stroke-width="2" stroke-linecap="butt"/><path d="M346.7631,335.49289c0,6.30841 -13.89058,10.1901 -31.80169,10.1901c-17.9111,0 -30.16566,-2.95748 -30.16566,-9.26589c0,-1.26107 -0.03338,-12.52602 1.0898,-13.27153c4.49546,-2.98386 15.55258,5.7726 29.88321,5.7726c17.9111,0 30.99434,0.26631 30.99434,6.57472z" fill="#2e0048" stroke="#000000" stroke-width="0" stroke-linecap="butt"/><g><path d="M299.98065,259.99391c-14.66336,-3.5509 -21.44184,-12.99877 -18.60684,-27.66412c2.21725,-11.46992 17.52065,-21.1565 32.18403,-17.60559c14.66344,3.55089 23.02101,15.60555 19.50553,30.1228c-0.54975,2.27022 -1.73089,4.20223 -2.79317,5.97688c-5.73067,9.57341 -17.91923,12.16565 -30.28953,9.17004z" fill="#485e84" stroke="#000000" stroke-width="2" stroke-linecap="butt"/><path d="M299.92446,216.65194c0,0 -1.77957,5.47395 -0.50297,7.01786c12.24539,14.8096 25.6122,19.11615 30.14191,20.20313c1.02914,0.24697 1.81577,-0.55433 1.81577,-0.55433c0,0 -0.279,2.09529 -1.48554,4.55665c-1.28386,2.61909 -3.57136,5.66397 -6.08797,7.42799c-2.8747,2.01498 -10.70418,4.8799 -10.70418,4.8799l-20.88029,-1.6947c0,0 -7.97062,-10.83625 -8.57417,-12.91775c-0.5913,-2.03918 -0.70611,-4.62172 -0.9387,-7.36268c-0.36111,-4.25572 0.84998,-8.63066 2.36801,-11.07819c1.93739,-3.12358 5.54107,-6.08421 8.86415,-7.96027c3.09275,-1.74602 5.98397,-2.51749 5.98397,-2.51749z" fill="#343545" stroke="none" stroke-width="0" stroke-linecap="butt"/><path d="M296.49327,240.8469c0,0 0.26078,-9.01832 3.51605,-13.01624c4.12081,-5.06096 14.78623,-12.43328 14.78623,-12.43328" fill="none" stroke="#000000" stroke-width="1" stroke-linecap="round"/><path d="M333.09901,237.75876c0,0 -3.11023,6.43866 -5.84929,9.75065c-2.76518,3.34365 -11.18797,8.16124 -11.18797,8.16124" fill="none" stroke="#000000" stroke-width="1" stroke-linecap="round"/><path d="M285.53496,241.36815c0,0 0.1294,-9.26118 3.85253,-13.43099c5.71302,-6.3984 14.96795,-13.38711 14.96795,-13.38711" fill="none" stroke="#000000" stroke-width="1" stroke-linecap="round"/><path d="M284.93779,226.09593c0,0 15.81425,-7.02743 30.79352,1.87005c16.40789,9.74606 12.03162,26.42955 12.03162,26.42955" fill="none" stroke="#000000" stroke-width="1" stroke-linecap="round"/><path d="M281.4814,234.97053c0,0 17.23436,-4.45416 30.46923,3.36872c10.86703,6.42332 8.49536,20.82103 8.49536,20.82103" fill="none" stroke="#000000" stroke-width="1" stroke-linecap="round"/><path d="M324.22911,225.82404c-0.84845,-0.85283 -0.9889,-2.08867 -0.31378,-2.76031c0.67511,-0.67172 1.25282,-0.12378 2.10127,0.72905c0.84845,0.85283 1.64631,1.68759 0.97118,2.35926c-0.67511,0.67172 -1.91027,0.52484 -2.75866,-0.32799z" fill="#8fbbbe" stroke="none" stroke-width="0" stroke-linecap="butt"/><path d="M328.60722,231.62844c-0.58459,-0.14159 -0.88635,-0.96716 -0.67401,-1.84404c0.21234,-0.87688 0.42011,-1.20559 1.00469,-1.06404c0.58459,0.14159 1.06278,1.00989 0.85041,1.88676c-0.21234,0.87688 -0.59655,1.16287 -1.18111,1.02131z" fill="#8fbbbe" stroke="none" stroke-width="0" stroke-linecap="butt"/><path d="M319.30422,220.96512c-0.84929,-0.3046 -1.37312,-1.01042 -1.17009,-1.57659c0.20299,-0.56614 0.92793,-0.24901 1.7772,0.05554c0.84929,0.3046 1.50129,0.48115 1.29827,1.04734c-0.20299,0.56614 -1.05612,0.77826 -1.90538,0.47369z" fill="#8fbbbe" stroke="none" stroke-width="0" stroke-linecap="butt"/><path d="M295.66439,218.04825c0,0 10.18714,-0.94964 17.4575,1.18615c4.12192,1.2109 7.3368,3.70107 9.753,5.61631c2.13678,1.69371 5.27707,7.46989 7.22062,12.14118c1.43093,3.43921 2.03202,6.32116 2.03202,6.32116" fill="none" stroke="#000000" stroke-width="0.5" stroke-linecap="round"/><path d="M329.38573,223.78635c0,0 -2.88156,10.17225 -6.15423,14.47419c-2.75729,3.6245 -11.84903,9.7404 -11.84903,9.7404" fill="none" stroke="#000000" stroke-width="1" stroke-linecap="round"/><path d="M306.29812,245.08885c0,0 2.73807,-9.2699 5.07055,-13.14422c4.09539,-6.80256 12.87887,-12.39069 12.87887,-12.39069" fill="none" stroke="#000000" stroke-width="1" stroke-linecap="round"/></g><g stroke="#000000" stroke-linecap="butt"><path d="M283.31742,239.13957c28.49723,17.29816 29.36291,26.90575 25.16433,33.82256c-4.19859,6.91682 -30.70379,-1.49895 -59.20102,-18.79712c-28.49722,-17.29817 40.4329,-38.84179 44.63149,-45.7586c6.40159,-3.05742 7.07472,3.43446 3.29515,10.32437c-4.66109,8.49687 -16.32577,18.93021 -13.88994,20.4088z" fill="#216aff" stroke-width="2"/><path d="M310.99886,241.80201c12.23173,7.42481 15.97362,23.61477 8.35773,36.16129c-7.61589,12.54652 -23.70558,16.69849 -35.93731,9.27368c-12.23173,-7.42481 -15.97361,-23.61479 -8.35772,-36.1613c7.61589,-12.54652 23.70558,-16.69848 35.93731,-9.27367z" fill="#faddbf" stroke-width="2"/><path d="M280.40344,269.71558c12.23173,7.42481 46.04104,-5.08144 38.42515,7.46508c-7.61589,12.54652 -23.70558,16.69849 -35.93731,9.27367c-12.23173,-7.42481 -14.71958,-24.16357 -2.48785,-16.73875z" fill="#ef8b89" stroke-width="0"/></g><path d="M264.41098,170.40257l16.39947,12.14739" fill="none" stroke="#000000" stroke-width="2.5" stroke-linecap="round"/></g></g></svg>