<svg version="1.1" xmlns="http://www.w3.org/2000/svg" xmlns:xlink="http://www.w3.org/1999/xlink" width="212.08156" height="325.27447" viewBox="0,0,212.08156,325.27447"><g transform="translate(-210.42247,-20.30556)"><g data-paper-data="{&quot;isPaintingLayer&quot;:true}" fill-rule="nonzero" stroke-linejoin="miter" stroke-miterlimit="10" stroke-dasharray="" stroke-dashoffset="0" style="mix-blend-mode: normal"><g data-paper-data="{&quot;index&quot;:null}" stroke="#000000" stroke-linecap="butt"><path d="M364.36659,260.34437l-6.77294,-47.58077l50.48847,-7.18684l6.77294,47.58077z" fill="#ffcaa0" stroke-width="2"/><g><path d="M357.45365,212.96563l-9.33914,-65.60867l51.14654,-7.28051l9.33914,65.60867z" fill="#ff0008" stroke-width="2"/><path d="M358.21976,213.0712l-4.89157,-34.36388c0,0 17.33128,12.09642 25.82227,10.88776c8.05073,-1.14599 23.87321,-17.96172 23.87321,-17.96172l4.89156,34.36389c0,0 -16.34534,2.3267 -24.5834,3.49935c-8.32617,1.1852 -25.11207,3.57461 -25.11207,3.57461z" fill="#8d005e" stroke-width="0"/></g><path d="M365.07268,259.69404l-6.77294,-47.58077l17.54308,30.40544l39.71834,9.98849z" fill="#ff6e5b" stroke-width="0"/></g><g data-paper-data="{&quot;index&quot;:null}" stroke="#000000" stroke-linecap="butt"><path d="M421.50403,91.14259c0,32.20527 -11.88407,58.3128 -26.54382,58.3128c-14.65975,0 -26.54382,-26.10753 -26.54382,-58.3128c0,-32.20527 11.88407,-58.3128 26.54382,-58.3128c14.65975,0 26.54382,26.10753 26.54382,58.3128z" fill="#01930e" stroke-width="2"/><path d="M377.59652,81.09412c0,32.20527 32.42529,67.9271 17.76555,67.9271c-14.65974,0 -26.54382,-26.10753 -26.54382,-58.3128c0,-32.20527 8.77827,-41.81957 8.77827,-9.6143z" fill="#31525b" stroke-width="0"/></g><g data-paper-data="{&quot;index&quot;:null}" stroke="#000000" stroke-linecap="butt"><path d="M316.44531,344.13566v-90.27109h61.17899v90.27109z" fill="#273750" stroke-width="2"/><path d="M317.23265,343.37909v-90.27109l18.42709,49.31565l42.75189,40.95544z" fill="#1f1e2e" stroke-width="0"/></g><path d="M264.46059,253.45329v-113.80147h113.80147v113.80147z" data-paper-data="{&quot;index&quot;:null}" fill="#ff0008" stroke="#000000" stroke-width="2" stroke-linecap="butt"/><g data-paper-data="{&quot;index&quot;:null}" stroke="#000000" stroke-linecap="butt"><path d="M263.83936,344.58003v-90.27109h61.17899v90.27109z" fill="#273750" stroke-width="2"/><path d="M264.62674,343.82343v-90.27109l18.42709,49.31565l42.75189,40.95544z" fill="#1f1e2e" stroke-width="0"/></g><g data-paper-data="{&quot;index&quot;:null}" stroke="#000000" stroke-linecap="butt"><path d="M211.65402,248.42105l12.88915,-46.29981l49.12923,13.67682l-12.88915,46.29981z" fill="#ffcaa0" stroke-width="2"/><g><path d="M224.33387,202.25011l17.77273,-63.84236l49.76958,13.85508l-17.77273,63.84236z" fill="#ff0008" stroke-width="2"/><path d="M224.99322,202.65422l9.30883,-33.43874c0,0 11.02076,18.0344 19.28316,20.33452c7.83399,2.18086 29.07441,-6.87252 29.07441,-6.87252l-9.30883,33.43875c0,0 -15.90529,-4.42779 -23.92156,-6.6594c-8.10201,-2.25547 -24.43601,-6.80261 -24.43601,-6.80261z" fill="#8d005e" stroke-width="0"/></g><path d="M212.56172,248.10872l12.88915,-46.29981l3.86784,34.88969l32.37224,25.08694z" fill="#ff6e5b" stroke-width="0"/></g><g data-paper-data="{&quot;index&quot;:null}" fill="#000000" stroke="#000000" stroke-linecap="butt"><path d="M291.35367,252.98407v-111.68333h61.17899v111.68333z" stroke-width="2"/><path d="M292.14105,252.04804v-111.68333l18.42709,61.01328l42.75189,50.67005z" stroke-width="0"/></g><g data-paper-data="{&quot;index&quot;:null}" stroke="#000000" stroke-linecap="butt"><path d="M244.07573,89.57333c0,-1.37646 0.88696,-27.38008 0.98912,-28.73546c2.58143,-34.24932 36.46023,-36.73529 78.90464,-36.73529c39.86984,0 74.31045,4.54212 80.31266,35.83276c0.64046,3.33883 -0.4189,26.15173 -0.4189,29.63798c0,12.46114 2.98952,39.84953 -4.38487,49.76492c-14.02387,18.8561 -46.59108,15.70582 -75.50889,15.70582c-30.57536,0 -59.08782,0.98125 -72.51838,-19.6932c-5.95144,-9.1614 -7.37538,-34.67471 -7.37538,-45.77754z" fill="#ffcaa0" stroke-width="2"/><path d="M242.24237,89.58352c0,-1.37646 0.88696,-27.38008 0.98912,-28.73546c1.46665,-19.45883 6.86352,60.55627 54.65026,82.48122c37.44896,17.1819 103.38086,-8.07612 100.416,-4.08965c-14.02387,18.8561 -47.24381,15.81461 -76.16161,15.81461c-30.57536,0 -59.08782,0.98125 -72.51838,-19.6932c-5.95144,-9.1614 -7.37538,-34.67471 -7.37538,-45.77754z" fill="#ff6e5b" stroke-width="0"/></g><g data-paper-data="{&quot;index&quot;:null}" stroke="#000000" stroke-linecap="butt"><path d="M289.4281,89.06867c0,32.20527 -11.88407,58.3128 -26.54382,58.3128c-14.65975,0 -26.54382,-26.10753 -26.54382,-58.3128c0,-32.20527 11.88407,-58.3128 26.54382,-58.3128c14.65975,0 26.54382,26.10753 26.54382,58.3128z" fill="#01930e" stroke-width="2"/><path d="M245.52059,79.02021c0,32.20527 32.42529,67.9271 17.76555,67.9271c-14.65974,0 -26.54382,-26.10753 -26.54382,-58.3128c0,-32.20527 8.77827,-41.81957 8.77827,-9.6143z" fill="#31525b" stroke-width="0"/></g><g data-paper-data="{&quot;index&quot;:null}" stroke-linecap="butt"><path d="M420.26615,46.42014c0,14.42269 -41.36032,26.11459 -92.38086,26.11459c-51.02054,0 -92.38085,-11.69191 -92.38085,-26.11459c0,-14.42269 41.36031,-26.11458 92.38085,-26.11458c51.02054,0 92.38086,11.6919 92.38086,26.11459z" fill="#000000" stroke="none" stroke-width="NaN"/><path d="M419.53604,46.7013c0,14.42269 -41.36032,26.11459 -92.38086,26.11459c-51.02054,0 -92.38085,-11.69191 -92.38085,-26.11459c0,-14.42269 42.79284,7.22647 93.81338,7.22647c51.02054,0 90.94833,-21.64916 90.94833,-7.22647z" fill="#ff0000" stroke="#000000" stroke-width="2"/><path d="M414.15023,54.21192c0,3.969 -36.34648,19.17759 -87.36702,18.00772c-17.85411,-0.40938 -34.69662,-1.74205 -48.42942,-4.15429c-25.49507,-4.47835 -41.14666,-11.48721 -38.81909,-14.82706c2.40397,-3.44947 37.6605,13.78351 88.68104,13.78351c51.02054,0 85.93449,-16.77888 85.93449,-12.80988z" fill="#900056" stroke="#000000" stroke-width="0"/></g><path d="M350.35938,102.0266c0,15.71752 -2.90507,28.45909 -6.48867,28.45909c-3.5836,0 -6.48867,-12.74157 -6.48867,-28.45908c0,-15.71752 2.90508,-28.45908 6.48867,-28.45908c3.5836,0 6.48867,12.74157 6.48867,28.45909z" data-paper-data="{&quot;index&quot;:null}" fill="#000000" stroke="none" stroke-width="0" stroke-linecap="butt"/><path d="M376.6449,98.77679c0,15.65465 -2.75218,28.34525 -6.14716,28.34525c-3.39499,0 -6.14716,-12.6906 -6.14716,-28.34525c0,-15.65465 2.75218,-28.34525 6.14716,-28.34525c3.39499,0 6.14716,12.6906 6.14716,28.34525z" data-paper-data="{&quot;index&quot;:null}" fill="#000000" stroke="none" stroke-width="0" stroke-linecap="butt"/><path d="M353.49834,75.28492h-30" fill="none" stroke="#000000" stroke-width="5" stroke-linecap="round"/><path d="M363.08186,73.73768l23.33333,-4.52381" fill="none" stroke="#000000" stroke-width="5" stroke-linecap="round"/><path d="M305.39999,131.7824c0,-7.39773 5.99704,-13.39477 13.39477,-13.39477c7.39773,0 13.39477,5.99704 13.39477,13.39477c0,7.39773 -6.42568,4.39348 -13.8234,4.39348c-7.39773,0 -12.96614,3.00424 -12.96614,-4.39348z" fill="#000000" stroke="none" stroke-width="0" stroke-linecap="butt"/></g></g></svg>