<svg version="1.1" xmlns="http://www.w3.org/2000/svg" xmlns:xlink="http://www.w3.org/1999/xlink" width="174.38162" height="315.97739" viewBox="0,0,174.38162,315.97739"><g transform="translate(-251.62287,-45.01003)"><g data-paper-data="{&quot;isPaintingLayer&quot;:true}" fill-rule="nonzero" stroke-linejoin="miter" stroke-miterlimit="10" stroke-dasharray="" stroke-dashoffset="0" style="mix-blend-mode: normal"><g data-paper-data="{&quot;index&quot;:null}" stroke="#000000" stroke-linecap="butt"><path d="M349.37758,236.88647c2.59037,-1.1872 -7.79055,-12.89856 -11.43859,-21.87713c-2.9581,-7.28049 -1.53932,-13.65111 4.4661,-9.87444c3.37121,7.35564 69.35012,36.72006 39.04493,50.6094c-30.30521,13.88934 -57.60533,19.18596 -60.97653,11.83031c-3.37121,-7.35564 -1.40112,-16.79883 28.90409,-30.68815z" fill="#216aff" stroke-width="2"/><path d="M356.19888,249.6966c6.11507,13.34252 0.52746,28.99165 -12.4803,34.9533c-13.00776,5.96165 -28.50989,-0.02173 -34.62497,-13.36425c-6.11507,-13.34252 -0.52745,-28.99163 12.48031,-34.95328c13.00776,-5.96165 28.50988,0.02171 34.62496,13.36423z" fill="#faddbf" stroke-width="2"/><path d="M344.33347,283.93347c-13.00775,5.96166 -28.50988,-0.02171 -34.62496,-13.36423c-6.11507,-13.34252 26.02261,2.98675 39.03038,-2.9749c13.00778,-5.96167 8.60235,10.37748 -4.4054,16.33914z" fill="#ef8b89" stroke-width="0"/></g><g stroke="#000000" stroke-linecap="butt"><path d="M327.43955,340.83534v-95.29492h29.49199v95.29492z" fill="#73fffc" stroke-width="2"/><path d="M327.1138,340.21741l1.32626,-93.78573c0,0 5.20288,68.11227 6.3799,77.52842c0.2602,2.08162 2.52228,2.78987 2.52228,2.78987l18.60659,13.13896z" fill="#59a9e6" stroke-width="0"/></g><g stroke="#000000" stroke-linecap="butt"><path d="M288.4238,338.41279v-95.29492h29.49199v95.29492z" fill="#73fffc" stroke-width="2"/><path d="M288.09805,337.79491l1.32626,-93.78573c0,0 5.20288,68.11227 6.3799,77.52842c0.2602,2.08162 2.52228,2.78987 2.52228,2.78987l18.60659,13.13896z" fill="#59a9e6" stroke-width="0"/></g><g stroke="#000000" stroke-linecap="butt"><path d="M355.22917,235.69588c0,13.80271 10.04743,36.74388 4.95001,46.45977c-6.2338,11.88187 -28.61241,9.09579 -38.9397,9.09579c-13.66287,0 -32.94407,4.17018 -38.34426,-14.83216c-2.01935,-7.10576 4.35457,-32.37264 4.35457,-40.7234c0,-30.68249 15.2177,-55.55556 33.98969,-55.55556c18.77199,0 33.98969,24.87307 33.98969,55.55556z" fill="#216aff" stroke-width="2"/><path d="M303.96554,251.27245c0,13.80271 62.04198,20.54886 56.94455,30.26474c-6.2338,11.88186 -28.61241,9.09579 -38.9397,9.09579c-13.66287,0 -32.94406,4.17018 -38.34425,-14.83215c-2.01936,-7.10576 4.35457,-32.37265 4.35457,-40.7234c0,-9.45244 3.34855,-28.59801 5.51953,-29.96813c5.94391,-16.76415 10.4653,25.13995 10.4653,46.16315z" fill="#3236f4" stroke-width="0"/></g><g stroke="#000000" stroke-linecap="butt"><g><path d="M254.79994,119.11891c7.95232,-46.11007 51.77855,-77.04304 97.88863,-69.09072c46.11007,7.95232 77.04304,51.77855 69.09072,97.88863c-7.95232,46.11007 -51.77855,77.04304 -97.88863,69.09072c-46.11007,-7.95232 -77.04304,-51.77855 -69.09072,-97.88863z" fill="#faddbf" stroke-width="2"/><path d="M255.17512,118.30127c2.55855,-14.83527 15.50138,-38.94319 20.49108,-41.34426c0.56983,-0.27422 7.21658,-7.79723 15.7692,-13.1379c10.63031,-6.63808 23.58055,-11.31337 24.14893,-11.01537c7.41583,3.88793 -28.29397,60.93269 -31.37123,86.06524c-0.00735,0.05993 0.99495,20.16403 2.51529,20.87162c2.03751,5.16388 5.72317,20.42316 15.23267,29.30877c17.72209,16.55934 44.88512,27.71172 43.33745,27.958c-2.4757,0.39395 -15.05798,0.21295 -21.03267,-0.81746c-46.11007,-7.95232 -77.04304,-51.77855 -69.09072,-97.88863z" fill="#ef8b89" stroke-width="0"/><path d="M421.34132,147.37633c-1.9756,11.45522 -4.21313,15.14501 -4.44244,13.22639c-0.23395,-1.95733 1.48391,-9.70258 -6.42132,-15.97296c-1.91559,-1.51944 -11.12441,4.45015 -13.6036,2.7763c-1.55722,-1.05138 -6.7969,-11.49797 -8.56784,-12.48941c-1.23821,-0.69319 -13.69279,6.13974 -14.99539,5.45778c-3.24872,-1.70082 -9.88111,-13.24559 -13.46591,-14.53156c-1.97405,-0.70815 -11.16168,10.09972 -13.19687,9.49113c-2.62465,-0.78486 -7.87105,-13.60407 -10.56862,-14.0693c-7.17393,-1.23725 -8.56248,5.63757 -14.74489,10.66622c-4.01748,3.26774 -11.56668,-15.23941 -15.39883,-11.39964c-4.75908,4.76853 -9.44614,9.3483 -14.23723,12.17477c-3.7588,2.21748 -11.45372,-12.22128 -14.73277,-10.13038c-15.83217,10.09546 -25.40872,16.5664 -22.32033,-1.34107c6.21017,-36.00856 44.0538,-0.73706 88.88643,-14.84451c42.91334,-13.5035 84.01981,4.97768 77.80962,40.98623z" fill="#ef8b89" stroke-width="0"/></g><path d="M424.26536,139.44703c-3.9911,23.1417 4.95547,9.69861 -11.15377,-2.79658c-1.9713,-1.52904 -11.38933,4.40446 -13.93933,2.7184c-1.60169,-1.05904 -7.02148,-11.53671 -8.8421,-12.53672c-1.27295,-0.69919 -14.01597,6.084 -15.35489,5.39578c-3.33932,-1.71644 -10.1923,-13.29926 -13.87447,-14.60202c-2.02767,-0.7174 -11.40264,10.05816 -13.49257,9.44012c-2.69523,-0.79703 -8.13241,-13.64915 -10.90103,-14.12663c-7.36291,-1.26984 -8.75663,5.60409 -15.075,10.60929c-4.10583,3.2525 -11.92978,-15.30202 -15.84303,-11.47624c-4.85978,4.75117 -9.64652,9.31373 -14.5477,12.12123c-3.84516,2.20258 -11.80062,-12.28111 -15.15433,-10.20308c-16.19261,10.0333 -25.98559,16.46691 -22.89721,-1.44056c6.21017,-36.00856 53.09273,-73.29998 98.35141,-65.49449c45.25867,7.80548 78.93421,56.38295 72.72403,92.39151z" fill="#724e36" stroke-width="2"/><path d="M424.21884,138.25905c-3.9911,23.1417 4.95547,9.69861 -11.15377,-2.79658c-1.9713,-1.52904 -11.38933,4.40446 -13.93933,2.7184c-1.60169,-1.05904 -7.02148,-11.53671 -8.84211,-12.53672c-1.27295,-0.69919 -14.01597,6.084 -15.35489,5.39578c-3.33932,-1.71644 -10.1923,-13.29926 -13.87447,-14.60202c-2.02767,-0.7174 -11.40264,10.05816 -13.49257,9.44012c-2.69523,-0.79703 -8.13241,-13.64915 -10.90103,-14.12663c-7.36291,-1.26984 -8.75663,5.60409 -15.075,10.60929c-4.10583,3.2525 -11.92978,-15.30202 -15.84303,-11.47624c-4.85978,4.75117 -9.64652,9.31373 -14.54771,12.12123c-3.84516,2.20258 -11.80062,-12.28111 -15.15433,-10.20308c-16.19261,10.0333 -25.98559,16.46691 -22.89721,-1.44056c6.21017,-36.00856 45.17744,-0.54327 91.09464,-14.46368c43.95148,-13.32446 86.19099,5.35213 79.9808,41.36069z" fill="#623728" stroke-width="0"/></g><g stroke="#000000" stroke-linecap="butt"><path d="M352.95834,159.28816c-4.85372,28.14346 -20.33398,40.42166 -36.66148,37.60577c-16.3275,-2.8159 -27.31936,-19.65961 -22.46563,-47.80306c4.85372,-28.14346 22.02451,-48.6755 38.35201,-45.85959c16.3275,2.8159 25.62882,27.91341 20.7751,56.05689z" fill="#f0f0f0" stroke-width="2"/><path d="M310.21094,132.04427c-9.03833,27.09098 23.1813,66.95545 6.85379,64.13955c-16.3275,-2.8159 -27.31936,-19.65961 -22.46563,-47.80306c4.85372,-28.14346 28.67859,-55.50205 15.61183,-16.33648z" fill="#9a99ff" stroke-width="0"/></g><path d="M347.72128,166.73975c-2.68907,15.59203 -9.48968,27.43497 -15.18959,26.45193c-5.69991,-0.98303 -8.14069,-14.41978 -5.45163,-30.0118c2.68907,-15.59203 9.48968,-27.43497 15.18959,-26.45193c5.69991,0.98303 8.14069,14.41978 5.45163,30.0118z" fill="#000000" stroke="none" stroke-width="0" stroke-linecap="butt"/><g stroke="#000000" stroke-linecap="butt"><path d="M353.12646,128.83907c2.65597,10.83889 3.80228,42.9867 -11.67942,40.31668c-15.4817,-2.67004 -41.95185,-39.94609 -35.83901,-48.64902c5.81629,-8.2807 10.33122,-19.95336 25.81291,-17.28332c15.4817,2.67004 19.17432,15.28606 21.70551,25.61568z" fill="#a100fe" stroke-width="2"/><path d="M352.44369,128.36184c2.50613,10.81305 4.52846,42.76625 -10.42536,40.18726c-14.95382,-2.57899 -41.43217,-39.51078 -35.47203,-48.24004c5.67097,-8.30576 6.29931,2.06263 21.25313,4.64164c14.95382,2.57899 22.25587,-6.89384 24.64425,3.41114z" fill="#99008e" stroke-width="0"/></g><g data-paper-data="{&quot;index&quot;:null}" stroke="#000000" stroke-linecap="butt"><path d="M395.23411,112.60482c16.3275,2.8159 25.62882,27.91341 20.7751,56.05689c-4.85372,28.14345 -20.85265,40.33222 -37.18014,37.51631c-16.3275,-2.8159 -26.8007,-19.57015 -21.94696,-47.71361c4.85372,-28.14346 22.02451,-48.6755 38.35201,-45.85959z" fill="#f0f0f0" stroke-width="2"/><path d="M415.52356,167.73541c-4.85372,28.14345 -20.85265,40.33222 -37.18014,37.51631c-16.3275,-2.8159 27.38401,-29.58499 27.94234,-58.13847c0.8072,-41.27989 14.09153,-7.52131 9.23781,20.62215z" fill="#9a99ff" stroke-width="0"/></g><path d="M405.19201,147.40582c5.69991,0.98303 8.14069,14.41978 5.45163,30.0118c-2.68907,15.59203 -9.48968,27.43497 -15.18959,26.45193c-5.69991,-0.98303 -8.14069,-14.41978 -5.45163,-30.0118c2.68907,-15.59203 9.48968,-27.43497 15.18959,-26.45193z" data-paper-data="{&quot;index&quot;:null}" fill="#000000" stroke="none" stroke-width="0" stroke-linecap="butt"/><g data-paper-data="{&quot;index&quot;:null}" stroke="#000000" stroke-linecap="butt"><path d="M366.92309,129.718c5.845,-8.88501 13.55023,-19.53533 29.03193,-16.86529c15.4817,2.67004 15.82588,15.18072 18.53242,24.93129c2.84454,10.24774 -9.24714,12.87243 -24.72885,10.2024c-15.4817,-2.67004 -28.96872,-8.94532 -22.83552,-18.2684z" fill="#a100fe" stroke-width="2"/><path d="M367.89411,129.526c5.7022,-8.90965 9.40937,2.46188 24.36317,5.04088c14.95382,2.57899 19.01891,-6.97994 21.58013,2.74557c2.69182,10.22141 -9.01445,12.91256 -23.96828,10.33357c-14.95382,-2.57899 -27.95839,-8.77108 -21.97505,-18.12z" fill="#99008e" stroke-width="0"/></g><path d="M391.63632,338.87005c0,11.6628 -14.51982,21.11737 -32.43092,21.11737c-17.9111,0 -32.43092,-9.45457 -32.43092,-21.11737c0,-2.33142 -0.03339,-13.76009 1.08979,-15.13837c4.49546,-5.51647 17.81784,5.26144 32.14847,5.26144c17.9111,0 31.62358,-1.78588 31.62358,9.87692z" fill="#000082" stroke="#000000" stroke-width="2" stroke-linecap="butt"/><path d="M389.75004,336.13775c0,6.30841 -13.89058,10.1901 -31.80169,10.1901c-17.9111,0 -30.16566,-2.95748 -30.16566,-9.26589c0,-1.26107 -0.03338,-12.52602 1.0898,-13.27153c4.49546,-2.98386 15.55258,5.7726 29.88321,5.7726c17.9111,0 30.99434,0.26631 30.99434,6.57472z" fill="#2e0048" stroke="#000000" stroke-width="0" stroke-linecap="butt"/><path d="M348.64938,338.2252c0,11.6628 -14.51982,21.11737 -32.43092,21.11737c-17.9111,0 -32.43092,-9.45457 -32.43092,-21.11737c0,-2.33142 -0.03339,-13.76009 1.08979,-15.13837c4.49546,-5.51647 17.81784,5.26144 32.14847,5.26144c17.9111,0 31.62358,-1.78588 31.62358,9.87692z" fill="#000082" stroke="#000000" stroke-width="2" stroke-linecap="butt"/><path d="M346.7631,335.49289c0,6.30841 -13.89058,10.1901 -31.80169,10.1901c-17.9111,0 -30.16566,-2.95748 -30.16566,-9.26589c0,-1.26107 -0.03338,-12.52602 1.0898,-13.27153c4.49546,-2.98386 15.55258,5.7726 29.88321,5.7726c17.9111,0 30.99434,0.26631 30.99434,6.57472z" fill="#2e0048" stroke="#000000" stroke-width="0" stroke-linecap="butt"/><g><path d="M314.95017,256.18304c-15.01621,1.46167 -24.52151,-5.23603 -26.66003,-20.01901c-1.67259,-11.5619 9.60081,-25.73704 24.61704,-27.19871c15.01628,-1.46172 26.86919,7.1796 28.31634,22.04617c0.22631,2.32485 -0.25482,4.5376 -0.67537,6.56269c-2.2688,10.92444 -12.92998,17.37577 -25.59795,18.60887z" fill="#485e84" stroke="#000000" stroke-width="2" stroke-linecap="butt"/><path d="M300.66306,215.26352c0,0 0.11684,5.75477 1.82968,6.79379c16.42984,9.96665 30.46959,9.64451 35.10503,9.18359c1.05317,-0.10471 1.53301,-1.1199 1.53301,-1.1199c0,0 0.42459,2.0707 0.09332,4.79178c-0.35251,2.89545 -1.51315,6.5227 -3.31085,9.01536c-2.05351,2.84731 -8.50785,8.12462 -8.50785,8.12462l-20.27872,5.25664c0,0 -11.08728,-7.61757 -12.34095,-9.3854c-1.22819,-1.73189 -2.18477,-4.13348 -3.30463,-6.64602c-1.73871,-3.90108 -2.03158,-8.4311 -1.40154,-11.24141c0.80411,-3.58659 3.23561,-7.5665 5.75825,-10.42985c2.34779,-2.66487 4.82529,-4.34307 4.82529,-4.34307z" fill="#343545" stroke="none" stroke-width="0" stroke-linecap="butt"/><path d="M305.3681,239.24334c0,0 -2.71541,-8.60375 -0.95366,-13.44901c2.23017,-6.13357 9.88286,-16.59964 9.88286,-16.59964" fill="none" stroke="#000000" stroke-width="1" stroke-linecap="round"/><path d="M338.9293,224.30471c0,0 -0.82318,7.10297 -2.32262,11.1308c-1.51372,4.06632 -7.88718,11.38284 -7.88718,11.38284" fill="none" stroke="#000000" stroke-width="1" stroke-linecap="round"/><path d="M295.18878,243.33452c0,0 -2.91926,-8.79 -0.77205,-13.95125c3.29483,-7.91974 9.74125,-17.56025 9.74125,-17.56025" fill="none" stroke="#000000" stroke-width="1" stroke-linecap="round"/><path d="M289.60915,229.10549c0,0 12.62922,-11.83124 29.69969,-8.34664c18.69854,3.81694 20.04407,21.0123 20.04407,21.0123" fill="none" stroke="#000000" stroke-width="1" stroke-linecap="round"/><path d="M289.259,238.62298c0,0 14.81564,-9.86708 29.88557,-6.82459c12.37378,2.49818 14.86204,16.8762 14.86204,16.8762" fill="none" stroke="#000000" stroke-width="1" stroke-linecap="round"/><path d="M326.63187,215.94494c-1.08147,-0.52688 -1.61999,-1.64806 -1.20289,-2.50416c0.41707,-0.85617 1.14268,-0.52836 2.22415,-0.00147c1.08147,0.52688 2.10922,1.05332 1.69212,1.90945c-0.41707,0.85617 -1.63195,1.12309 -2.71337,0.59618z" fill="#8fbbbe" stroke="none" stroke-width="0" stroke-linecap="butt"/><path d="M332.67338,219.98957c-0.59866,0.05825 -1.15481,-0.62243 -1.24223,-1.5204c-0.08741,-0.89798 0.00088,-1.27669 0.59952,-1.33498c0.59866,-0.05825 1.33549,0.60485 1.42287,1.50283c0.08741,0.89798 -0.18156,1.29429 -0.78019,1.35256z" fill="#8fbbbe" stroke="none" stroke-width="0" stroke-linecap="butt"/><path d="M320.38441,212.97291c-0.90222,-0.00879 -1.6288,-0.50343 -1.62296,-1.10487c0.00581,-0.6014 0.79469,-0.53994 1.69687,-0.53119c0.90222,0.00879 1.57603,-0.03858 1.57021,0.56288c-0.00581,0.6014 -0.74196,1.08194 -1.64413,1.07317z" fill="#8fbbbe" stroke="none" stroke-width="0" stroke-linecap="butt"/><path d="M297.09785,217.98144c0,0 9.31023,-4.24255 16.87875,-4.6129c4.29097,-0.20996 8.14534,1.08629 11.05651,2.10179c2.57449,0.89803 7.43758,5.32251 10.80744,9.09642c2.48104,2.77852 3.99526,5.30322 3.99526,5.30322" fill="none" stroke="#000000" stroke-width="0.5" stroke-linecap="round"/><path d="M330.83327,212.32677c0,0 0.61895,10.55438 -1.05938,15.6925c-1.41402,4.329 -7.99295,13.0915 -7.99295,13.0915" fill="none" stroke="#000000" stroke-width="1" stroke-linecap="round"/><path d="M316.02223,240.02997c0,0 -0.45814,-9.65496 0.47259,-14.0804c1.63419,-7.77023 8.09528,-15.93301 8.09528,-15.93301" fill="none" stroke="#000000" stroke-width="1" stroke-linecap="round"/></g><g stroke="#000000" stroke-linecap="butt"><path d="M292.36235,241.95781c32.59754,6.97988 36.57045,15.77027 34.87631,23.68231c-1.69415,7.91205 -29.49307,8.66769 -62.09061,1.6878c-32.59754,-6.97989 25.43415,-49.96606 27.1283,-57.8781c5.04243,-4.9902 7.81024,0.92055 6.50303,8.66956c-1.61209,9.55635 -9.20334,23.24182 -6.41703,23.83844z" fill="#216aff" stroke-width="2"/><path d="M319.3828,235.38166c13.99169,2.99594 22.84301,17.05903 19.76997,31.41081c-3.07304,14.35178 -16.90675,23.5575 -30.89844,20.56156c-13.99169,-2.99594 -22.84301,-17.05905 -19.76996,-31.41082c3.07304,-14.35178 16.90675,-23.55749 30.89845,-20.56155z" fill="#faddbf" stroke-width="2"/><path d="M299.65152,271.79489c13.99169,2.99594 41.81855,-19.92003 38.74551,-5.56826c-3.07304,14.35178 -16.90675,23.5575 -30.89845,20.56155c-13.99169,-2.99594 -21.83876,-17.98924 -7.84707,-14.99329z" fill="#ef8b89" stroke-width="0"/></g><path d="M272.80185,171.70383l14.87462,13.97309" fill="none" stroke="#000000" stroke-width="2.5" stroke-linecap="round"/></g></g></svg>