<svg version="1.1" xmlns="http://www.w3.org/2000/svg" xmlns:xlink="http://www.w3.org/1999/xlink" width="193.08925" height="326.2519" viewBox="0,0,193.08925,326.2519"><g transform="translate(-199.54707,-34.73551)"><g data-paper-data="{&quot;isPaintingLayer&quot;:true}" fill-rule="nonzero" stroke-linecap="butt" stroke-linejoin="miter" stroke-miterlimit="10" stroke-dasharray="" stroke-dashoffset="0" style="mix-blend-mode: normal"><g stroke="#000000"><path d="M327.76518,340.83535v-95.29492h29.49199v95.29492z" fill="#73fffc" stroke-width="2"/><path d="M327.43943,340.21742l1.32626,-93.78573c0,0 5.20288,68.11227 6.3799,77.52842c0.2602,2.08162 2.52228,2.78987 2.52228,2.78987l18.60659,13.13896z" fill="#59a9e6" stroke-width="0"/></g><g stroke="#000000"><path d="M288.4238,338.4128v-95.29492h29.49199v95.29492z" fill="#73fffc" stroke-width="2"/><path d="M288.09805,337.7949l1.32626,-93.78573c0,0 5.20288,68.11227 6.3799,77.52842c0.2602,2.08162 2.52228,2.78987 2.52228,2.78987l18.60659,13.13896z" fill="#59a9e6" stroke-width="0"/></g><g stroke="#000000"><path d="M355.22917,235.69588c0,13.80271 10.04743,36.74388 4.95001,46.45977c-6.2338,11.88187 -28.61241,9.09579 -38.9397,9.09579c-13.66287,0 -32.94407,4.17018 -38.34426,-14.83216c-2.01935,-7.10576 4.35457,-32.37264 4.35457,-40.7234c0,-30.68249 15.2177,-55.55556 33.98969,-55.55556c18.77199,0 33.98969,24.87307 33.98969,55.55556z" fill="#216aff" stroke-width="2"/><path d="M303.96554,251.27246c0,13.80271 62.04198,20.54886 56.94455,30.26474c-6.2338,11.88186 -28.61241,9.09579 -38.9397,9.09579c-13.66287,0 -32.94406,4.17018 -38.34425,-14.83215c-2.01936,-7.10576 4.35457,-32.37265 4.35457,-40.7234c0,-9.45244 3.34855,-28.59801 5.51953,-29.96813c5.94391,-16.76415 10.4653,25.13995 10.4653,46.16315z" fill="#3236f4" stroke-width="0"/></g><g stroke="#000000"><g><path d="M215.39509,129.95582c-3.83115,-46.63368 30.86715,-87.54351 77.50083,-91.37467c46.63368,-3.83115 87.54351,30.86715 91.37467,77.50083c3.83115,46.63368 -30.86715,87.54351 -77.50083,91.37467c-46.63368,3.83115 -87.54351,-30.86715 -91.37467,-77.50083z" fill="#faddbf" stroke-width="2"/><path d="M215.55389,129.07033c-1.23262,-15.00373 5.27028,-41.58231 9.50101,-45.15488c0.48316,-0.408 5.03743,-9.35415 11.98275,-16.6639c8.63256,-9.08552 20.00218,-16.85073 20.62703,-16.70435c8.15247,1.90991 -12.15748,66.0722 -8.85203,91.17578c0.00788,0.05987 6.00578,19.27455 7.65477,19.57947c3.26412,4.49029 10.64857,18.34307 22.07797,24.56829c21.30002,11.60142 50.38891,15.60677 48.952,16.23225c-2.29853,1.00054 -14.52628,3.97175 -20.56884,4.46818c-46.63368,3.83115 -87.54351,-30.86715 -91.37467,-77.50083z" fill="#ef8b89" stroke-width="0"/><path d="M383.71139,115.66818c0.95178,11.58531 -0.29194,15.71739 -0.99375,13.91709c-0.71599,-1.83664 -0.98958,-9.76538 -10.21167,-13.85967c-2.2347,-0.99213 -9.6581,7.09065 -12.47711,6.08996c-1.77066,-0.62855 -9.45626,-9.43295 -11.41886,-9.95002c-1.37222,-0.36153 -11.72237,9.36884 -13.1541,9.03429c-3.57083,-0.83437 -12.8795,-10.35376 -16.672,-10.70242c-2.08841,-0.192 -8.28139,12.57004 -10.40412,12.48973c-2.73752,-0.10357 -11.02296,-11.20351 -13.75115,-10.97937c-7.25541,0.59606 -6.88063,7.59968 -11.60909,14.0146c-3.07266,4.16857 -15.01012,-11.86271 -17.76029,-7.18663c-3.4154,5.80714 -6.80826,11.41348 -10.74032,15.34827c-3.08484,3.087 -14.146,-8.96873 -16.798,-6.12426c-12.80456,13.73388 -20.45864,22.39403 -21.94652,4.28322c-2.99185,-36.41746 42.46979,-11.73023 82.35009,-36.60081c38.17303,-23.80587 82.59505,-16.19142 85.5869,20.22604z" fill="#ef8b89" stroke-width="0"/></g><path d="M384.55963,107.25961c1.92278,23.40449 7.22336,8.15124 -11.49872,0.08151c-2.29104,-0.9875 -9.92604,7.11266 -12.81665,6.11786c-1.81564,-0.62486 -9.68339,-9.41429 -11.69624,-9.92723c-1.40735,-0.35864 -12.04921,9.39569 -13.51769,9.06416c-3.66246,-0.82684 -13.19422,-10.32791 -17.08519,-10.66847c-2.14264,-0.18754 -8.52508,12.59006 -10.70318,12.5143c-2.80892,-0.09771 -11.28729,-11.18179 -14.08734,-10.95175c-7.44652,0.61176 -7.07699,7.61581 -11.94295,14.04203c-3.16202,4.17591 -15.37734,-11.83254 -18.20953,-7.14972c-3.51724,5.8155 -7.01093,11.43013 -11.05431,15.37407c-3.17219,3.09417 -14.49684,-8.93991 -17.22433,-6.08924c-13.1691,13.76383 -21.04206,22.44196 -22.52994,4.33115c-2.99185,-36.41746 33.07561,-84.24802 78.84824,-88.00844c45.77262,-3.76041 90.52603,34.85233 93.51788,71.26979z" fill="#724e36" stroke-width="2"/><path d="M384.21753,106.12101c1.92278,23.40449 7.22336,8.15124 -11.49872,0.08151c-2.29104,-0.9875 -9.92604,7.11266 -12.81665,6.11786c-1.81564,-0.62486 -9.68339,-9.41429 -11.69625,-9.92723c-1.40735,-0.35864 -12.04921,9.39569 -13.51769,9.06416c-3.66246,-0.82684 -13.19422,-10.32791 -17.08519,-10.66847c-2.14264,-0.18754 -8.52508,12.59006 -10.70318,12.5143c-2.80892,-0.09771 -11.28729,-11.18179 -14.08734,-10.95175c-7.44652,0.61176 -7.07699,7.61581 -11.94295,14.04203c-3.16202,4.17591 -15.37734,-11.83254 -18.20953,-7.14972c-3.51724,5.8155 -7.01093,11.43013 -11.05432,15.37407c-3.17219,3.09417 -14.49684,-8.93991 -17.22433,-6.08924c-13.1691,13.76383 -21.04206,22.44196 -22.52994,4.33115c-2.99185,-36.41746 43.60618,-11.82359 84.58338,-36.78429c39.22296,-23.89212 84.79088,-16.37182 87.78273,20.04564z" fill="#623728" stroke-width="0"/></g><g stroke="#000000"><path d="M320.47993,144.30218c2.33836,28.46305 -9.57961,44.22232 -26.09252,45.57892c-16.51291,1.3566 -31.36766,-12.20318 -33.70602,-40.66622c-2.33836,-28.46305 9.15239,-52.63665 25.6653,-53.99325c16.51291,-1.3566 31.79488,20.6175 34.13324,49.08055z" fill="#f0f0f0" stroke-width="2"/><path d="M272.27781,128.61381c-1.97647,28.49046 39.1884,59.03113 22.67549,60.38773c-16.51291,1.3566 -31.36766,-12.20318 -33.70602,-40.66622c-2.33836,-28.46305 13.88792,-60.9103 11.03052,-19.72151z" fill="#9a99ff" stroke-width="0"/></g><path d="M303.60603,161.15998c1.2955,15.76908 -2.32746,28.93638 -8.0921,29.40997c-5.76464,0.47359 -11.48801,-11.92586 -12.78351,-27.69495c-1.2955,-15.76908 2.32746,-28.93638 8.0921,-29.40997c5.76464,-0.47359 11.48801,11.92586 12.78351,27.69495z" fill="#000000" stroke="none" stroke-width="0"/><g stroke="#000000"><path d="M313.02826,114.7785c5.28209,9.83033 -8.70836,14.88462 -24.36587,16.17095c-15.65751,1.28633 -27.46873,-2.40051 -23.72646,-12.35556c3.56072,-9.47208 5.0132,-21.90294 20.67071,-23.18927c15.65751,-1.28633 22.38772,10.00544 27.42161,19.37386z" fill="#a100fe" stroke-width="2"/><path d="M312.07809,114.50111c5.13054,9.84278 -8.372,14.85699 -23.49563,16.09946c-15.12363,1.24247 -26.54507,-2.47639 -22.95725,-12.41876c3.41376,-9.46001 6.61498,0.42182 21.73861,-0.82065c15.12363,-1.24247 19.82479,-12.24036 24.71426,-2.86007z" fill="#99008e" stroke-width="0"/></g><g data-paper-data="{&quot;index&quot;:null}" stroke="#000000"><path d="M349.73832,88.53012c16.51291,-1.3566 31.79488,20.6175 34.13324,49.08055c2.33836,28.46304 -10.10417,44.26541 -26.61708,45.62202c-16.51291,1.3566 -30.84311,-12.24627 -33.18146,-40.70931c-2.33836,-28.46305 9.15239,-52.63665 25.6653,-53.99325z" fill="#f0f0f0" stroke-width="2"/><path d="M383.1697,136.83527c2.33836,28.46304 -10.10417,44.26541 -26.61708,45.62202c-16.51291,1.3566 19.11558,-35.49296 12.51577,-63.27884c-9.54137,-40.17018 11.76295,-10.80622 14.10131,17.65682z" fill="#9a99ff" stroke-width="0"/></g><path d="M346.41589,125.73522c5.76464,-0.47359 11.48801,11.92586 12.78351,27.69495c1.2955,15.76908 -2.32746,28.93638 -8.0921,29.40997c-5.76464,0.47359 -11.48801,-11.92586 -12.78351,-27.69495c-1.2955,-15.76908 2.32746,-28.93638 8.0921,-29.40997z" data-paper-data="{&quot;index&quot;:null}" fill="#000000" stroke="none" stroke-width="0"/><g data-paper-data="{&quot;index&quot;:null}" stroke="#000000"><path d="M326.60633,112.17936c3.43741,-10.06438 8.23448,-22.30316 23.89199,-23.58949c15.65751,-1.28633 19.11932,10.7408 24.1782,19.50474c5.31683,9.21081 -5.73431,14.77589 -21.39182,16.06222c-15.65751,1.28633 -30.28527,-1.41686 -26.67838,-11.97745z" fill="#a100fe" stroke-width="2"/><path d="M327.49849,111.75063c3.29298,-10.05252 9.72605,0.03065 24.84968,-1.21182c15.12363,-1.24247 16.66914,-11.51426 21.58107,-2.73825c5.16238,9.2235 -5.49898,14.75656 -20.62261,15.99902c-15.12363,1.24247 -29.26348,-1.5008 -25.80814,-12.04895z" fill="#99008e" stroke-width="0"/></g><path d="M391.63632,338.87004c0,11.6628 -14.51982,21.11737 -32.43092,21.11737c-17.9111,0 -32.43092,-9.45457 -32.43092,-21.11737c0,-2.33142 -0.03339,-13.76009 1.08979,-15.13837c4.49546,-5.51647 17.81784,5.26144 32.14847,5.26144c17.9111,0 31.62358,-1.78588 31.62358,9.87692z" fill="#000082" stroke="#000000" stroke-width="2"/><path d="M389.75004,336.13774c0,6.30841 -13.89058,10.1901 -31.80169,10.1901c-17.9111,0 -30.16566,-2.95748 -30.16566,-9.26589c0,-1.26107 -0.03338,-12.52602 1.0898,-13.27153c4.49546,-2.98386 15.55258,5.7726 29.88321,5.7726c17.9111,0 30.99434,0.26631 30.99434,6.57472z" fill="#2e0048" stroke="#000000" stroke-width="0"/><path d="M348.64938,338.22521c0,11.6628 -14.51982,21.11737 -32.43092,21.11737c-17.9111,0 -32.43092,-9.45457 -32.43092,-21.11737c0,-2.33142 -0.03339,-13.76009 1.08979,-15.13837c4.49546,-5.51647 17.81784,5.26144 32.14847,5.26144c17.9111,0 31.62358,-1.78588 31.62358,9.87692z" fill="#000082" stroke="#000000" stroke-width="2"/><path d="M346.7631,335.49289c0,6.30841 -13.89058,10.1901 -31.80169,10.1901c-17.9111,0 -30.16566,-2.95748 -30.16566,-9.26589c0,-1.26107 -0.03338,-12.52602 1.0898,-13.27153c4.49546,-2.98386 15.55258,5.7726 29.88321,5.7726c17.9111,0 30.99434,0.26631 30.99434,6.57472z" fill="#2e0048" stroke="#000000" stroke-width="0"/><path d="M265.89238,178.91461c0.95329,0.80854 0.14474,1.76183 0.14474,1.76183l-0.10511,0.02477c-1.06528,2.65141 -1.97696,5.53715 -4.61708,7.10862c-2.73712,1.6292 -6.65344,0.94006 -7.60962,-2.3361c-1.28215,-4.39302 2.64423,-9.17659 4.39768,-12.84831c0,0 0.53931,-1.12766 1.66698,-0.58835c1.12766,0.53932 0.58836,1.66698 0.58836,1.66698c-1.48292,3.09631 -5.12692,7.41117 -4.23792,11.12369c0.3973,1.65916 2.71984,1.58423 3.93887,0.8203c2.07461,-1.30012 2.70729,-3.76976 3.55262,-5.87803l0.51865,-0.71066c0,0 0.80854,-0.95328 1.76182,-0.14474z" fill="#000000" stroke="none" stroke-width="0.5"/><g stroke="#000000"><path d="M284.32357,240.68962c1.11781,33.3177 -6.44957,39.30016 -14.5364,39.57148c-8.08684,0.27132 -15.54865,-26.51809 -16.66646,-59.83579c-1.1178,-33.3177 54.63656,12.58373 62.72339,12.31242c6.06232,3.68463 0.99727,7.80081 -6.83773,8.4081c-9.66239,0.74893 -24.77835,-3.30406 -24.68281,-0.4562z" fill="#216aff" stroke-width="2"/><path d="M297.24439,265.31486c0.47979,14.3008 -11.0227,26.29285 -25.69153,26.78499c-14.66883,0.49213 -26.94923,-10.702 -27.42902,-25.0028c-0.47979,-14.3008 11.02271,-26.29285 25.69155,-26.78499c14.66883,-0.49213 26.94922,10.70201 27.42902,25.00281z" fill="#faddbf" stroke-width="2"/><path d="M257.13802,254.98402c0.47979,14.3008 29.44975,35.75347 14.78091,36.24561c-14.66883,0.49213 -26.94923,-10.702 -27.42902,-25.00281c-0.47979,-14.3008 12.16831,-25.54362 12.6481,-11.24281z" fill="#ef8b89" stroke-width="0"/></g><g stroke="none" stroke-width="1"><path d="M334.88055,340.82704c-2.13633,-1.94827 -4.27353,-4.03359 -6.47781,-5.91223c-5.30492,-4.63163 -10.67865,-9.33066 -15.98344,-13.96243c-4.20272,-3.69238 -8.47437,-7.45202 -12.67709,-11.1444c-7.0964,-6.2437 -14.19281,-12.4874 -21.35729,-18.66134c-5.58055,-4.90083 -11.16024,-9.66465 -16.80899,-14.49557c-4.75325,-4.09362 -9.5075,-8.32414 -14.26075,-12.41776c-7.44112,-6.58004 -14.9503,-13.09032 -22.39141,-19.67036c-6.13222,-5.43885 -12.26531,-11.01474 -18.32932,-16.52348c-1.99845,-1.81374 -3.99776,-3.76451 -6.06514,-5.64552c-0.68941,-0.67268 -1.03687,-1.42 -0.97525,-2.44861c-0.00273,-0.41098 0.06347,-0.75467 0.06074,-1.16565c0.11401,-3.42706 0.50279,-6.72193 0.75481,-10.01458c0.76302,-8.78167 1.38901,-17.56082 2.15215,-26.34263c0.38704,-3.56895 0.63706,-7.13541 1.09304,-10.63709c0.65175,-4.94365 1.23553,-9.81763 1.7504,-14.75891c0.12767,-1.37218 0.39437,-2.47306 1.82922,-2.97814c0.41006,-0.14441 0.68121,-0.56025 1.09027,-0.84153c3.47376,-2.87055 7.15446,-5.53944 10.83604,-8.0713c2.86335,-1.96911 2.86435,-1.83221 5.68635,0.24086c3.92321,2.87543 7.64233,5.96004 11.36159,9.0445c5.78564,4.82857 11.5022,9.59001 17.21891,14.35131c5.7167,4.76129 11.50221,9.59001 17.21892,14.35132c3.65032,3.0172 7.30135,6.17157 10.95167,9.18877c1.65274,1.34049 3.23655,2.61372 4.82133,4.02384c2.61791,2.28224 5.1679,4.63414 7.92183,6.77698c3.64932,2.88029 7.09367,5.83274 10.67504,8.78265c4.68344,3.88932 9.43582,7.8459 14.12012,11.87227c5.44194,4.62913 10.88375,9.2584 16.32554,13.88766c3.37541,2.88516 6.7517,5.90737 10.1271,8.79253c3.44423,2.95257 7.02473,5.76545 10.46895,8.71803c3.858,3.35604 7.78497,6.77935 11.64297,10.13538c0.75836,0.73995 1.51672,1.47989 2.27508,2.21984c1.17288,1.2806 1.66106,2.57329 1.05713,4.43357c-1.27695,3.65346 -2.34694,7.50857 -3.48587,11.29643c-1.07373,3.30725 -1.87255,6.74652 -2.94627,10.05377c-1.74474,5.37421 -3.49048,10.61151 -5.0982,15.98321c-2.27887,7.43881 -4.76356,14.8127 -7.11135,22.18423c-0.33551,1.03349 -0.74096,1.8628 -1.55819,2.56244c-2.11058,1.88725 -4.1531,3.70474 -6.26369,5.59197c-0.54419,0.55774 -1.15734,1.04821 -1.83943,1.47141c-1.4321,0.91603 -2.65567,2.30796 -4.57223,2.47918c-1.23921,-0.93675 -2.34127,-1.87615 -3.23752,-2.75063zM338.82868,337.19444c1.33108,-5.77782 2.93708,-11.4236 4.54293,-17.06925c1.13534,-4.33586 2.4765,-8.60682 3.74884,-12.94517c1.67493,-5.57851 3.35072,-11.01999 4.95758,-16.52874c0.80155,-3.02831 1.53417,-6.12388 2.33588,-9.15232c-0.96792,-1.35273 -5.92899,-5.78505 -8.2684,-7.38726c-0.34196,0.07464 -0.47712,0.35107 -0.54333,0.69477c-1.06639,4.40312 -2.61351,8.60931 -3.88572,12.94754c-0.60307,1.99733 -0.79423,4.12419 -1.60326,6.05676c-0.27016,0.55273 -0.47152,1.17288 -0.74183,1.72575c-0.33737,0.75955 -0.95224,0.97593 -1.707,0.784c-0.5488,-0.12717 -1.09847,-0.39138 -1.58106,-0.86225c-4.06297,-3.2839 -8.12592,-6.56782 -12.05288,-9.99111c-4.89112,-4.22816 -9.78139,-8.31928 -14.46771,-12.61944c-3.17033,-2.95743 -6.47592,-5.63829 -9.78239,-8.45619c-3.71999,-3.22163 -7.44012,-6.44315 -11.0923,-9.73428c-4.06569,-3.69488 -8.06245,-7.32248 -12.19623,-10.9476c-2.41209,-2.21735 -5.02902,-4.3627 -7.50919,-6.51028c-3.2384,-2.88766 -6.47592,-5.63829 -9.71432,-8.52594c-4.82319,-4.29779 -9.64638,-8.59559 -14.46943,-12.89352c-4.47849,-3.96145 -8.88988,-8.12957 -13.36838,-12.09102c-3.30647,-2.81789 -6.68188,-5.70305 -9.98822,-8.52108c-0.34384,-0.19931 -0.61961,-0.46837 -0.89539,-0.73745c-1.30803,-1.00415 -1.59025,-2.23208 -1.46431,-3.87833c0.30156,-6.10192 1.15105,-12.21371 1.65844,-18.25074c0.31636,-3.9103 0.31637,-3.91029 -2.64453,-6.25482c-3.16759,-2.54647 -6.3353,-5.09277 -9.57098,-7.56947c-0.27576,-0.26908 -0.61961,-0.46839 -1.16655,-0.32162c-0.26109,1.9227 -0.59013,3.91502 -0.78228,5.90499c-1.23093,10.50255 -2.18797,21.00024 -2.87111,31.49306c-0.56726,7.33971 -0.9975,14.67691 -1.83866,22.02149c-0.12955,1.09824 -0.12221,2.19413 -0.18382,3.22275c1.31262,1.68907 2.96351,2.75563 4.47935,4.09849c4.27253,3.89668 8.61313,7.72358 12.95373,11.55052c4.13378,3.6251 8.13052,7.25272 12.26431,10.87784c3.51416,3.15674 6.89145,6.31584 10.47369,9.4028c6.61283,5.63592 13.22576,11.27172 19.77062,16.97726c3.16946,2.82039 6.33891,5.64078 9.57644,8.39141c5.16703,4.49709 10.47095,8.99183 15.7068,13.55633c2.96277,2.61845 5.78837,5.23955 8.81908,7.78836c7.09554,6.10665 14.12213,12.14606 21.01345,18.46203c4.89314,4.50195 9.78513,8.86715 14.7462,13.29948c1.99845,1.81374 4.06483,3.55785 6.26909,5.43649c0.67749,-1.10812 0.67015,-2.204 1.07286,-3.44429zM240.56764,207.84107c0.45772,-3.2276 0.91656,-6.31846 1.30635,-9.47645c-0.0056,-0.82181 0.05701,-1.71352 1.08093,-2.21122c1.23649,0.52578 2.1336,1.53731 3.02984,2.41179c0.41365,0.40361 0.41726,0.95161 0.42099,1.49949c-0.19489,1.57898 -0.32085,3.22524 -0.51573,4.80424c-0.26196,1.78566 -0.66007,3.71085 -0.92204,5.49652c-0.06247,0.89157 -0.12507,1.7833 -0.18754,2.67487c0.34744,0.74731 0.83003,1.21819 1.51672,1.47989c0.40818,-0.41834 0.47252,-1.03598 0.53773,-1.51659c0.38977,-3.15798 0.78055,-6.17905 1.23927,-9.26977c0.13141,-0.82432 0.12594,-1.64626 1.08105,-2.21137c1.3043,0.45629 2.2024,1.6047 3.16759,2.54646c0.48259,0.47088 0.34932,1.02125 0.35291,1.56926c-0.12595,1.64626 -0.25189,3.29251 -0.5828,5.01091c-0.39525,2.33604 -0.85857,4.74184 -1.04799,7.14278c0.00646,0.95885 0.35291,1.56926 1.24556,1.89574c0.54694,-0.14676 0.47526,-0.62501 0.54147,-0.96871c0.52666,-3.16034 1.05258,-6.45784 1.57924,-9.61819c0.13155,-0.82445 0.19402,-1.71604 1.01126,-2.41568c1.57731,0.31439 2.47545,1.4628 3.4425,2.67849c0.34557,0.47338 0.14435,1.09337 0.14796,1.64139c-0.12047,2.4682 -0.58465,4.73697 -1.04798,7.14278c-0.39798,1.92506 -0.72714,3.91751 -1.12426,5.97962c1.65374,1.4774 3.30648,2.8179 4.89113,4.22816c0.61601,-0.07963 0.68035,-0.69728 0.74642,-1.04084c0.32917,-1.99247 0.52133,-3.98243 0.85036,-5.97476c0.19589,-1.44209 0.39164,-2.88405 0.58753,-4.32613c0.06435,-0.61764 0.26556,-1.23764 0.94766,-1.66084c1.44044,0.31674 2.33855,1.46517 3.30461,2.54395c0.34471,0.33635 0.21142,0.88671 0.21415,1.29768c-0.057,1.71352 -0.25089,3.42942 -0.51385,5.07818c-0.52953,2.7495 -1.128,5.43175 -1.10859,8.30827c0.41452,0.54065 0.7601,1.01402 1.51485,1.20595c0.40805,-0.4182 0.4734,-0.89895 0.60668,-1.44932c0.32817,-2.12936 0.58839,-4.18908 0.84849,-6.24869c0.12868,-1.23528 0.32544,-2.54035 0.52307,-3.70837c0.06534,-0.48075 0.13155,-0.82443 0.33464,-1.1705c0.06708,-0.20667 0.27116,-0.41583 0.47524,-0.625c1.57746,0.31424 2.47644,1.59971 3.57951,2.67599c0.21964,2.11964 -0.04047,4.17924 -0.43772,6.24146c-0.52939,2.74937 -1.05892,5.49887 -1.10858,8.30828c1.24282,1.48476 4.41127,4.16826 5.85545,5.03289c0.40991,-0.14426 0.40719,-0.55525 0.4734,-0.89896c0.3263,-2.40331 0.65174,-4.94363 0.97818,-7.34707c0.13055,-0.96135 0.2611,-1.92271 0.45958,-2.95368c0.06435,-0.61764 0.26656,-1.10075 0.8807,-1.45433c1.44044,0.31674 2.33842,1.4653 3.3046,2.54396c0.34471,0.33635 0.21143,0.88672 0.21417,1.29769c-0.05801,1.57664 -0.25289,3.15562 -0.51573,4.80424c-0.32917,1.99247 -0.65921,3.84789 -0.92017,5.77045c-0.13341,0.55051 -0.12881,1.23542 -0.19316,1.85307c-0.12955,1.09824 0.55887,1.63402 1.65647,1.88836c0.67102,-2.06695 0.79335,-4.26123 1.12153,-6.39058c0.32817,-2.12936 0.31349,-4.32114 1.25855,-6.3931c1.78329,0.37916 2.68141,1.52757 3.64832,2.74341c0.20783,0.33871 0.14348,0.95635 0.14622,1.36731c-0.05801,1.57664 -0.2529,3.15562 -0.51572,4.80424c-0.33004,1.85543 -0.59201,3.64109 -0.92204,5.49652c-0.06435,0.61764 -0.12883,1.23542 -0.19315,1.85306c-0.19848,1.03098 0.28497,1.6389 1.17762,1.96537c0.54694,-0.14676 0.68109,-0.56011 0.74642,-1.04085c0.32817,-2.12936 0.58826,-4.18895 0.84849,-6.24869c0.19576,-1.44196 0.32357,-2.81428 0.58826,-4.18896c0.06347,-0.75469 0.06347,-0.75469 1.08479,-1.66348c1.09933,0.52842 1.85956,1.54229 2.82389,2.34701c0.48259,0.47088 0.55513,1.08616 0.49078,1.70381c-0.057,1.71352 -0.25102,3.42955 -0.51385,5.07817c-0.52953,2.7495 -1.05905,5.49901 -1.10786,8.44546c1.65646,1.88837 3.79007,3.42568 5.71858,5.03523c0.61315,-0.49046 0.6094,-1.03834 0.74268,-1.58871c0.32831,-2.1295 0.5884,-4.1891 0.84863,-6.24883c0.12868,-1.23529 0.32544,-2.54034 0.52306,-3.70835c0.13327,-0.55038 0.26568,-1.2378 0.94777,-1.66099c1.44031,0.31688 2.33842,1.4653 3.3046,2.54396c0.34471,0.33635 0.21143,0.88672 0.21417,1.29769c-0.057,1.71352 -0.18295,3.35978 -0.51399,5.07831c-0.46145,2.67973 -1.12785,5.4316 -1.10859,8.30828c0.34557,0.47338 0.69216,1.08366 1.44678,1.27573c0.40817,-0.41834 0.47339,-0.89894 0.60681,-1.44946c0.32817,-2.12937 0.58826,-4.18896 0.8485,-6.24869c0.12868,-1.23529 0.32543,-2.54033 0.52306,-3.70834c0.06435,-0.61764 0.26569,-1.23779 0.87884,-1.72826c1.57731,0.31439 2.47543,1.4628 3.44249,2.6785c0.2077,0.33884 0.14336,0.95648 0.14609,1.36745c0.08002,1.71103 -0.18295,3.35978 -0.51385,5.07817c-0.52953,2.7495 -1.05906,5.49902 -1.10772,8.44533c1.24095,1.21083 2.61879,2.41928 3.99676,3.62761c0.75102,-0.35593 0.81537,-0.97357 0.8797,-1.59122c0.26009,-2.05959 0.45224,-4.04955 0.78142,-6.04202c0.19576,-1.44196 0.32356,-2.81428 0.58826,-4.18896c0.13341,-0.55051 0.2657,-1.23778 1.08567,-1.52645c1.23635,0.52592 2.13445,1.67433 3.09964,2.61609c0.41366,0.40361 0.34931,1.02125 0.28398,1.50199c-0.12595,1.64626 -0.32084,3.22524 -0.58366,4.87387c-0.39164,2.88405 -1.05819,5.63605 -1.10686,8.58236c0.27764,0.54301 0.75923,0.87699 1.24095,1.21083c0.20495,-0.07213 0.40992,-0.14427 0.47799,-0.21403c0.33924,-0.48561 0.3355,-1.03349 0.46878,-1.58385c0.38978,-3.15798 0.78055,-6.17905 1.23927,-9.26977c0.13142,-0.8243 0.12595,-1.64626 1.08106,-2.21136c1.30429,0.45629 2.2024,1.6047 3.16759,2.54647c0.41366,0.40361 0.3493,1.02125 0.28409,1.50185c-0.12595,1.64626 -0.32096,3.22538 -0.5838,4.874c-0.32356,2.81428 -1.05804,5.63591 -1.03878,8.51259c0.20856,0.47588 0.62221,0.87949 1.17101,1.00667c0.61501,-0.21654 0.81636,-0.83668 0.8807,-1.45432c0.26109,-1.9227 0.52205,-3.84526 0.78315,-5.76795c0.12782,-1.37232 0.39264,-2.74714 0.52033,-4.11932c0.06347,-0.75468 0.26484,-1.37483 1.01485,-1.86766c1.30356,0.31911 2.20154,1.46767 3.16672,2.40942c0.48259,0.47087 0.3493,1.02124 0.35305,1.56913c-0.057,1.71352 -0.18295,3.3598 -0.51385,5.07818c-0.46158,2.67987 -1.05905,5.49901 -1.03979,8.37569c1.03326,0.87198 2.06739,1.881 3.37442,2.74827c0.61228,-0.62751 0.81177,-1.52159 1.01212,-2.27863c1.60412,-5.91972 3.07136,-11.83706 4.60653,-17.82404c-2.00118,-2.2247 -4.40954,-3.89418 -6.61394,-5.77268c-2.4111,-2.08045 -4.9592,-4.1584 -7.43825,-6.1692c-4.27079,-3.62262 -8.60953,-7.17558 -12.88032,-10.79819c-2.68686,-2.34951 -5.44266,-4.7663 -8.1976,-7.04605c-4.47748,-3.82456 -8.9541,-7.51207 -13.43172,-11.33648c-2.75494,-2.27975 -5.37286,-4.56201 -8.05972,-6.91152c-2.27321,-1.94591 -4.61449,-3.82205 -6.88784,-5.76782c-2.54798,-2.07808 -5.0971,-4.29294 -7.57713,-6.44064c-2.96263,-2.6186 -5.92439,-5.10015 -8.9551,-7.64897c-4.89027,-4.09113 -9.78053,-8.18224 -14.6708,-12.27337c-4.26978,-3.48571 -8.4027,-6.97377 -12.60441,-10.52926c-2.96176,-2.48155 -5.85546,-5.03288 -8.81722,-7.51444c-0.96431,-0.80472 -1.86055,-1.6792 -3.02883,-2.27488c-0.47613,0.48797 -0.60954,1.03849 -0.60581,1.58635c0.02661,3.97256 -0.83755,7.8926 -1.1538,11.80274c-0.05888,1.43958 -0.18568,2.94881 -0.38144,4.39075c-0.0626,0.89171 0.07902,1.57413 0.90358,1.97037c0.68755,0.39874 1.23908,0.93687 1.78975,1.338c0.40905,-0.2813 0.5432,-0.69463 0.60941,-1.03834c0.26009,-2.05959 0.45224,-4.04955 0.78142,-6.04202c0.19576,-1.44196 0.32356,-2.81427 0.58826,-4.18896c0.13341,-0.55051 0.19776,-1.16816 1.01671,-1.59372c1.23635,0.52592 2.20253,1.60456 3.16859,2.68336c0.3447,0.33635 0.2795,0.81694 0.21417,1.29769c-0.12682,1.50922 -0.18482,3.08586 -0.44865,4.59757c-0.52852,2.8864 -1.05718,5.77295 -1.17292,8.92592c0.34644,0.61042 1.035,1.14605 1.79149,1.61207c0.47712,-0.35107 0.47438,-0.76204 0.54059,-1.10576c0.25823,-2.33354 0.58466,-4.73696 0.91097,-7.14027c0.12868,-1.23528 0.32543,-2.54034 0.52305,-3.70836c0.06435,-0.61764 0.13242,-0.68741 1.01673,-1.59372c1.23635,0.52592 2.13446,1.67434 3.09964,2.61609c0.41365,0.40361 0.34931,1.02125 0.28398,1.50199c-0.12595,1.64626 -0.25189,3.29251 -0.58366,4.87385c-0.53139,2.47557 -0.71982,5.01341 -1.04525,7.55374c-0.13055,0.96135 0.14795,1.64139 0.9053,2.24445c0.82643,0.67019 1.65374,1.47739 2.48019,2.14758c0.54507,-0.4207 0.61127,-0.76441 0.88704,-0.49533zM346.94978,271.49438c0.35018,1.15829 1.31362,1.82597 2.13906,2.35924c1.99558,1.4029 3.51417,3.15674 5.37373,4.69904c0.20684,0.2018 0.41365,0.4036 0.75836,0.73994c2.25034,-1.47879 4.29285,-3.29626 6.40531,-4.90957c2.1804,-1.68294 4.43072,-3.16173 6.74813,-4.84717c-0.82817,-0.94426 -1.44964,-1.68657 -2.13906,-2.35924c-2.89556,-2.82526 -6.06314,-5.37172 -9.23085,-7.91804c-0.61948,-0.46852 -1.23995,-1.07393 -1.86043,-1.67934c-2.20526,-2.01555 -4.68344,-3.88932 -7.02573,-5.90236c-1.79063,-1.47503 -3.51329,-3.01969 -5.30392,-4.49473c-3.30547,-2.681 -6.54301,-5.43162 -9.84948,-8.24952c-2.96263,-2.6186 -6.06228,-5.23468 -9.16105,-7.71373c-2.27321,-1.94591 -4.27439,-4.17062 -6.88771,-5.76796c-0.13788,-0.13453 -0.20682,-0.2018 -0.34471,-0.33635c-2.82475,-2.48405 -5.58055,-4.90084 -8.33649,-7.31749c-2.27321,-1.94591 -4.68344,-3.88932 -7.09366,-5.83272c-0.13788,-0.13453 -0.20682,-0.2018 -0.34471,-0.33634c-2.7558,-2.41679 -5.51249,-4.97061 -8.33636,-7.31763c-2.13533,-1.81137 -4.26978,-3.48571 -6.40525,-5.29695c-0.34371,-0.19944 -0.55053,-0.40124 -0.75736,-0.60306c-2.96263,-2.6186 -5.85732,-5.30683 -8.88716,-7.7186c-1.72067,-1.27087 -3.10138,-2.89017 -5.02628,-3.95171c-0.20582,-0.0649 -0.41265,-0.26671 -0.55053,-0.40124c-2.34229,-2.01304 -4.61637,-4.09599 -7.0266,-6.03939c-2.2034,-1.74161 -4.40768,-3.62025 -6.543,-5.43163c-3.03171,-2.68573 -6.1993,-5.23219 -9.29894,-7.84825c-3.30647,-2.81789 -6.8179,-5.56365 -9.98836,-8.52095c-2.41197,-2.21748 -5.0961,-4.15603 -7.64421,-6.23396c-2.41023,-1.94341 -4.8894,-3.95409 -7.36757,-5.82787c-0.34384,-0.19931 -0.68768,-0.3986 -1.16841,-0.59554c-1.50019,0.9858 -3.13824,1.83708 -4.56862,3.0272c-1.36229,1.12033 -2.93142,2.03888 -4.29372,3.15922c-1.43038,1.19011 -3.06844,2.04138 -4.42886,3.43566c0.55427,0.94911 1.3797,1.4824 2.13719,2.08531c1.85856,1.4054 3.71826,2.94757 5.64489,4.2832c1.72081,1.27073 3.37454,2.74813 4.95921,4.15838c0.48259,0.47088 1.10118,0.80236 1.78889,1.20097c0.81997,-0.28867 1.56913,-0.91854 2.31916,-1.41138c1.29522,-0.91367 2.59044,-1.82734 3.88653,-2.60398c0.88719,-0.49547 1.77695,-0.57983 2.60339,0.09035c0.41266,0.26672 0.82443,0.39637 1.16914,0.73272c1.37883,1.34536 2.89382,2.55118 4.40868,3.75715c2.89281,2.41429 5.51261,4.97047 8.40443,7.24785c2.40936,1.80637 4.47849,3.96145 6.88784,5.76782c1.78962,1.33814 3.37528,2.88529 5.09709,4.29292c2.4111,2.08043 4.89026,4.09113 7.36843,5.96491c0.13788,0.13453 0.20682,0.2018 0.34471,0.33634c2.82475,2.48405 5.51261,4.97048 8.40457,7.24772c2.06539,1.6072 3.79079,3.56284 6.0604,4.96075c0.27576,0.26908 0.48259,0.47088 0.68943,0.67268c2.48277,2.55869 5.37373,4.69904 8.05972,6.91152c2.34129,1.87614 4.41228,4.30516 7.02573,5.90236c0.34371,0.19944 0.55054,0.40125 0.75737,0.60306c2.68686,2.34951 5.30578,4.76867 8.05972,6.91152c2.06552,1.60707 3.72286,3.63248 6.06054,4.9606c0.13788,0.13453 0.3447,0.33633 0.48259,0.47087c2.68686,2.34951 5.37474,4.83594 8.12953,7.11583c4.1329,3.48808 8.26481,6.83924 12.39772,10.32732c2.27321,1.94591 4.40942,3.89433 6.68176,5.70319c2.34042,1.73911 4.27252,3.89669 6.74895,5.49638c0.13788,0.13453 0.20682,0.2018 0.34471,0.33634c2.41111,2.08044 4.75338,4.09348 7.16448,6.17394c0.27577,0.26907 0.55153,0.53814 0.89624,0.87448c-1.97083,2.29572 -4.7029,3.44066 -6.53859,5.45996zM349.45288,266.86013c-1.44678,-1.27574 -2.96263,-2.6186 -4.40954,-3.89419c-2.4101,-1.94354 -4.82032,-3.88695 -7.16261,-5.89998c-4.06383,-3.42095 -8.05972,-6.91152 -12.12354,-10.33247c-3.92608,-3.28627 -7.7831,-6.5054 -11.70918,-9.79167c-2.13533,-1.81137 -4.33958,-3.69002 -6.47493,-5.50139c-4.61463,-3.82192 -9.22914,-7.64396 -13.77556,-11.53578c-2.27321,-1.94591 -4.54655,-3.89168 -6.81977,-5.83758c-3.99489,-3.35368 -7.98991,-6.70722 -11.9848,-10.06089c-2.06638,-1.7441 -4.13291,-3.48808 -6.19929,-5.23218c-4.54556,-3.75477 -9.02218,-7.4423 -13.4998,-11.26671c-3.92594,-3.28641 -7.8529,-6.70971 -11.77884,-9.99611c-3.92608,-3.28627 -7.92098,-6.63995 -11.84705,-9.92622c-0.13788,-0.13453 -0.34371,-0.19944 -0.68755,-0.39875c-1.77234,1.26475 -3.68244,2.39482 -5.45292,3.9335c1.035,1.14606 2.06826,2.01804 3.10152,2.89002c3.03057,2.54896 6.13023,5.16506 9.16092,7.71387c5.30392,4.49474 10.74484,8.98696 16.11683,13.41192c4.68343,3.88932 9.29882,7.84842 13.98225,11.73774c5.30392,4.49474 10.53888,8.92218 15.84293,13.41678c2.54798,2.07808 5.0971,4.29293 7.57713,6.44064c4.13276,3.48822 8.19673,6.90903 12.32952,10.39723c2.41124,2.08031 4.75338,4.09348 7.16447,6.17393c3.16859,2.68336 6.40612,5.43398 9.64365,8.18462c5.30392,4.49474 10.53889,8.92219 15.84281,13.41693c2.13533,1.81137 4.20171,3.55548 6.33718,5.36671c0.55053,0.40124 1.16914,0.73272 1.78875,1.2011c1.42477,-2.01193 3.40581,-2.80091 5.03741,-4.61104zM341.37307,338.72452c2.31654,-1.82248 4.63296,-3.64484 6.9495,-5.46731c1.43124,-1.05307 2.10598,-2.57217 2.77973,-4.22815c2.0205,-5.10513 3.35445,-10.47211 5.169,-15.64201c0.94044,-2.75688 1.67493,-5.57851 2.47749,-8.46992c2.07377,-7.36652 4.35365,-14.66843 6.77026,-21.97256c1.00665,-3.10058 1.87629,-6.19866 2.8828,-9.2991c-0.00173,-0.27408 0.06434,-0.61763 0.12968,-1.09838c-0.75189,0.21889 -1.22988,0.43293 -1.70701,0.78399c-2.65752,2.03402 -5.24524,4.27234 -8.04151,6.03479c-1.8413,1.19748 -2.58396,2.7862 -2.98209,4.71139c-2.06096,9.28436 -5.08353,18.17498 -7.76223,27.26491c-2.6125,8.74621 -5.15707,17.42281 -7.28885,26.36595c-0.06621,0.3437 -0.06347,0.75468 -0.19675,1.30505c0.41092,-0.00736 0.54794,-0.00986 0.81997,-0.28866z" data-paper-data="{&quot;index&quot;:null}" fill="#000000"/><path d="M331.35071,335.34164c-4.96107,-4.43232 -9.85321,-8.79738 -14.74621,-13.29948c-6.89145,-6.31582 -13.91791,-12.35538 -21.01345,-18.46204c-2.96263,-2.6186 -5.85645,-5.16977 -8.81908,-7.78837c-5.1669,-4.49723 -10.47082,-8.99197 -15.7068,-13.55633c-3.16946,-2.82039 -6.33891,-5.64078 -9.57644,-8.39141c-6.61295,-5.63579 -13.2259,-11.27157 -19.77076,-16.97714c-3.51416,-3.15674 -6.95939,-6.2462 -10.47354,-9.40293c-4.13377,-3.62511 -8.13068,-7.2526 -12.26432,-10.87784c-4.3406,-3.82691 -8.68119,-7.65383 -12.95372,-11.55051c-1.51584,-1.34286 -3.23567,-2.47668 -4.47948,-4.09836c0.06161,-1.02862 0.05427,-2.1245 0.18395,-3.22288c0.84115,-7.34457 1.34034,-14.61451 1.83866,-22.02149c0.68313,-10.49283 1.7081,-21.06015 2.8711,-31.49307c0.19215,-1.98997 0.52118,-3.98229 0.78228,-5.90499c0.54694,-0.14676 0.89078,0.05254 1.16655,0.32162c3.16759,2.54647 6.40325,5.02315 9.57098,7.56947c2.96076,2.34465 2.96077,2.34467 2.64453,6.2548c-0.43858,6.10443 -1.35688,12.14882 -1.65845,18.25073c-0.057,1.71352 0.15628,2.87418 1.46431,3.87833c0.34371,0.19944 0.61948,0.46852 0.89524,0.7376c3.30647,2.81789 6.74996,5.63329 9.98836,8.52095c4.47849,3.96145 8.88974,8.1297 13.36823,12.09117c4.82319,4.29779 9.6464,8.59557 14.46958,12.89338c3.2384,2.88766 6.40785,5.70805 9.71432,8.52594c2.48003,2.14771 5.02914,4.36256 7.50918,6.51028c4.06569,3.69488 8.06246,7.32249 12.19623,10.9476c3.65205,3.29127 7.37218,6.51278 11.09229,9.73428c3.2384,2.88766 6.61194,5.49889 9.7824,8.45619c4.75511,4.36757 9.64537,8.45868 14.46771,12.61944c3.99489,3.35369 8.05785,6.63758 12.05288,9.99111c0.48172,0.33384 0.96332,0.66781 1.58106,0.86225c0.75462,0.19207 1.36963,-0.02447 1.70701,-0.784c0.2703,-0.55288 0.47166,-1.17302 0.74183,-1.72575c0.80903,-1.93255 1.00017,-4.05943 1.60326,-6.05676c1.27222,-4.33823 2.81932,-8.54442 3.88572,-12.94754c0.06621,-0.3437 0.20135,-0.62014 0.54319,-0.69464c2.33955,1.60207 7.3005,6.03453 8.26855,7.38711c-0.73363,2.95868 -1.46624,6.05425 -2.33588,9.15232c-1.60699,5.50889 -3.35073,11.01999 -4.95758,16.52874c-1.27235,4.33836 -2.4765,8.60682 -3.74884,12.94517c-1.60598,5.64577 -3.21183,11.29142 -4.54292,17.06924c-0.19862,1.03112 -0.25936,2.19677 -0.93685,3.3049c-2.20427,-1.87864 -4.27066,-3.62276 -6.40511,-5.29709zM290.78278,281.06092c0.93211,-3.98965 1.72734,-7.97695 3.00228,-11.9042c0.20136,-0.62015 0.33378,-1.30754 0.67202,-1.93005c0.40531,-0.82917 0.19575,-1.44196 -0.42473,-2.04737c-0.8273,-0.80722 -1.72353,-1.6817 -2.68772,-2.48656c-0.41366,-0.40361 -0.96431,-0.80472 -1.37797,-1.20834c-5.23684,-4.70141 -10.40648,-9.60959 -15.71139,-14.24123c-3.99676,-3.62761 -7.92458,-7.18795 -12.26157,-10.46685c-2.89182,-2.27739 -5.71571,-4.62441 -8.53958,-6.97143c-0.61948,-0.46852 -1.23995,-1.07392 -1.99385,-1.12883c-0.75276,0.08187 -0.88604,0.63223 -1.02032,1.04571c-0.94591,1.93493 -1.20514,4.13155 -1.73927,6.19616c-0.86863,3.23498 -1.66846,6.53735 -2.39921,9.90686c-0.73362,2.95868 -1.32936,6.05189 -1.72,9.07284c0.20957,0.61278 0.76023,1.01388 1.17389,1.41749c3.65206,3.29127 7.23615,6.65218 10.88821,9.94345c3.92782,3.56035 7.92458,7.18795 11.92133,10.81556c3.10065,2.75299 6.20115,5.50612 9.30166,8.25925c2.13533,1.81137 4.06569,3.69487 6.13309,5.57587c0.68856,0.53565 1.30803,1.00416 1.99658,1.53981c0.34471,0.33634 0.82357,0.25934 1.43858,0.04281c1.13893,-3.78785 2.48296,-7.64796 3.348,-11.43095zM215.55644,185.61454c0.38057,-4.5278 1.37802,-8.99819 2.0325,-13.53085c0.26484,-1.37483 -0.15156,-2.18941 -1.18395,-2.92436c-0.89438,-0.60055 -1.65273,-1.3405 -2.47903,-2.01081c-0.75748,-0.60292 -1.44604,-1.13855 -2.33668,-1.19123c-0.61414,0.35356 -0.67848,0.97121 -0.74367,1.45182c-0.5176,4.5303 -1.03519,9.06059 -1.55277,13.59089c-0.19489,1.57898 0.15629,2.87417 1.53239,3.80858c1.16914,0.73272 2.20327,1.74174 3.23653,2.61373c0.20683,0.2018 0.48172,0.33385 1.02867,0.18709c0.40719,-0.55524 0.47065,-1.30991 0.46606,-1.99483zM238.23177,216.9934c-1.64914,-0.79248 -3.22013,-0.14788 -4.03089,1.5106c-1.28229,2.83137 1.55441,7.0962 4.56757,7.04242c2.32848,-0.0417 3.8884,-2.33005 3.11997,-4.57685c-0.34831,-0.88435 -0.76571,-1.83583 -1.59214,-2.50602c-0.48347,-0.60791 -1.23994,-1.07392 -2.06452,-1.47017zM235.3517,226.70347c-1.16741,-0.45865 -2.26127,-0.16512 -3.14559,0.74119c-0.8843,0.9063 -1.21535,2.62483 -0.66008,3.71085c0.83191,1.49213 1.79983,2.84486 3.44796,3.50045c0.20596,0.06478 0.48085,0.19679 0.82371,0.25919c2.12527,0.30451 3.62271,-1.09226 3.47101,-3.28152c-0.07627,-1.16315 -0.77116,-2.65778 -1.80529,-3.6668c-0.55254,-0.67505 -1.37611,-0.93439 -2.13173,-1.26336zM211.90689,203.14741c1.17114,1.00653 2.74846,1.3209 3.77165,0.68603c1.43211,-0.91604 2.10412,-2.8461 1.40823,-4.47764c-0.62781,-1.7013 -1.93584,-2.70545 -3.44609,-3.2265c-2.33396,-0.78026 -4.24045,0.89782 -4.01895,3.29141c0.14436,1.09339 0.76843,2.2468 1.8715,3.3231c0.13788,0.13453 0.27576,0.26906 0.41365,0.4036zM224.53623,207.16864c-1.23275,0.02209 -1.84589,0.51257 -2.18039,1.68294c-0.80357,2.75451 1.47985,6.20713 4.28992,6.49942c1.78243,0.24211 2.93976,-0.80609 3.06471,-2.58925c0.12595,-1.64626 -0.43107,-3.00635 -1.73909,-4.01051c-0.8981,-1.14842 -2.13359,-1.5373 -3.43515,-1.58261zM213.60646,221.68057c-0.01381,-2.05473 -1.74008,-4.14741 -3.73033,-4.72823c-1.92116,-0.51368 -3.48755,0.81583 -3.5427,2.80329c-0.12408,1.92019 2.36142,4.88985 3.9389,5.2041c0.9606,0.25685 1.78054,-0.03182 2.66485,-0.93812c0.54419,-0.55774 0.60668,-1.44932 0.66927,-2.34104zM210.48672,205.84424c-1.23461,-0.25184 -2.39468,0.38539 -2.72933,1.55591c-1.07186,3.58118 1.96445,6.95181 4.90781,6.69373c1.43771,-0.09423 2.52425,-1.48364 2.37802,-2.85096c-0.14522,-1.23042 -1.0478,-3.06389 -2.21981,-4.20746c-0.48259,-0.47088 -1.2401,-1.07379 -2.33669,-1.19123zM231.99451,236.7646c-1.50751,-0.11008 -2.59677,0.86837 -2.79254,2.31031c-0.06435,0.61764 -0.05987,1.30269 0.21777,1.8457c0.55614,1.22306 1.38531,2.30421 2.55545,3.17383c0.48172,0.33384 1.09946,0.52827 1.71621,0.58581c2.39829,0.16263 4.02715,-2.05848 2.91675,-4.23065c-0.41725,-0.95161 -1.10667,-1.62429 -1.72901,-2.50365c-0.82543,-0.53327 -1.78789,-1.06406 -2.88462,-1.18137zM220.21193,226.22061c-1.43858,-0.04281 -2.32475,0.58957 -2.65752,2.03402c-0.06621,0.3437 -0.13141,0.82432 -0.0606,1.16552c0.35378,1.7063 1.18568,3.19842 2.69881,4.13031c0.61861,0.33147 1.1674,0.45865 1.78414,0.51619c1.71261,0.03781 2.66672,-0.6642 2.86074,-2.38023c0.19489,-1.57898 -0.29318,-2.8718 -1.39537,-3.81107c-0.89711,-1.01153 -1.79162,-1.61193 -3.23019,-1.65472zM223.69588,224.85678c1.64726,0.51855 3.0785,-0.53453 3.27252,-2.25057c0.25823,-2.33354 -1.33376,-4.83969 -3.53084,-5.62231c-2.05991,-0.78526 -3.83226,0.47949 -3.8176,2.67126c0.01107,1.64376 0.56722,2.86681 1.73821,3.87347c0.68941,0.67268 1.44605,1.13856 2.33769,1.32813zM299.60191,278.64277c1.72354,1.6817 3.37815,3.29614 5.23771,4.83844c0.68856,0.53565 1.10393,1.21333 1.92851,1.60956c0.61875,0.33133 1.09847,0.39137 1.64367,-0.02946c0.13142,-0.8243 -0.42012,-1.36246 -0.90272,-1.83333c-2.13719,-2.08531 -4.27352,-4.03357 -6.54573,-5.84259c-0.61961,-0.46838 -1.23922,-0.93676 -2.12713,-0.57846c-0.26843,0.82682 0.14609,1.36746 0.76568,1.83584zM319.13085,300.41927c-2.13719,-2.08531 -4.27353,-4.03359 -6.54588,-5.84246c-0.61961,-0.46838 -1.23908,-0.93688 -2.12712,-0.57845c-0.26843,0.82682 0.14623,1.36732 0.62882,1.8382c1.72354,1.6817 3.37814,3.29615 5.23771,4.83844c0.68856,0.53565 1.10393,1.21333 1.92851,1.60956c0.61861,0.33148 1.09846,0.39137 1.64366,-0.02946c0.13142,-0.8243 -0.2831,-1.36496 -0.76569,-1.83583zM331.17259,318.97314c-2.4783,-1.87364 -4.54842,-4.16561 -7.09366,-5.83272c-0.48172,-0.33384 -0.89452,-0.6004 -1.44045,-0.31673c-0.34011,0.34857 -0.13241,0.68741 0.00734,1.09588c0.20957,0.61278 0.76022,1.01388 1.17388,1.41749c1.99745,1.67684 4.06383,3.42095 6.06228,5.23468c0.41366,0.40361 0.96332,0.66782 1.58105,0.86226c0.41179,0.12968 0.75277,-0.08187 1.02407,-0.49784c-0.2795,-0.81694 -0.62695,-1.56427 -1.31449,-1.96301zM320.60068,294.91304c-2.40923,-1.8065 -4.41041,-4.03123 -6.95579,-5.6982c-0.48172,-0.33384 -0.89539,-0.73745 -1.57733,-0.31439c-0.33924,0.48561 0.00634,0.95898 0.21417,1.29769c0.48346,0.60791 0.96692,1.21582 1.58654,1.6842c1.7208,1.27073 3.30647,2.81789 4.89112,4.22816c0.68856,0.53565 1.30902,1.14107 2.13273,1.40027c0.41179,0.12968 0.82271,0.12232 1.22989,-0.43294c-0.2795,-0.81694 -0.62694,-1.56425 -1.52132,-2.16482zM299.08519,283.31011c-0.34371,-0.19944 -0.75648,-0.46601 -1.23634,-0.52592c-0.34285,-0.06241 -0.61588,0.07949 -0.75103,0.35593c-0.06708,0.20667 -0.13328,0.55038 0.0046,0.68491c0.20783,0.33871 0.48446,0.74481 0.89724,1.01138c1.9275,1.47267 3.65018,3.01734 5.4418,4.62927c0.8263,0.67032 1.7208,1.27073 2.75033,1.59484c0.27476,0.13217 0.61675,0.05754 0.82083,-0.15162c0.20408,-0.20918 0.20136,-0.62014 -0.00547,-0.82195c-0.41366,-0.40361 -0.69041,-0.80959 -1.17301,-1.28046c-2.13533,-1.81137 -4.40767,-3.62024 -6.74896,-5.49637zM329.22277,324.41963c-0.89624,-0.87448 -1.72354,-1.68171 -2.68774,-2.48657c-1.24008,-1.0738 -2.54911,-2.21484 -3.85714,-3.219c-0.55053,-0.40124 -1.03225,-0.73508 -1.58193,-0.99929c-0.2749,-0.13204 -0.61775,-0.19444 -0.88992,0.08451c-0.27203,0.2788 -0.20123,0.62 -0.06247,0.89158c0.2077,0.33884 0.41552,0.67755 0.69129,0.94661c2.34302,2.15021 4.82319,4.29778 7.23429,6.37823c0.41366,0.40361 0.96331,0.66782 1.78328,0.37915c0.26843,-0.82682 -0.21502,-1.43472 -0.62967,-1.97524zM317.73989,307.49978c-0.89624,-0.87448 -1.72354,-1.68171 -2.68774,-2.48656c-1.30902,-1.14106 -2.68598,-2.21249 -4.06309,-3.28377c-0.48158,-0.33397 -1.03126,-0.59819 -1.58106,-0.86225c-0.13688,0.00237 -0.47885,0.07699 -0.61488,0.2164c-0.06807,0.06976 -0.13428,0.41348 -0.06435,0.61764c0.14063,0.54551 0.48532,0.88184 0.89898,1.28546c0.89624,0.87448 1.86143,1.81623 2.82561,2.6211c1.17201,1.14356 2.41124,2.0803 3.65118,3.15423c0.68856,0.53565 1.37696,1.07143 2.40288,0.84753c0.33551,-1.03349 -0.14707,-1.50435 -0.76756,-2.10976zM335.33768,306.8427c-0.89624,-0.87448 -1.72353,-1.6817 -2.68772,-2.48656c-1.37711,-1.07129 -2.686,-2.21248 -4.0631,-3.28377c-0.41266,-0.26672 -0.96231,-0.53091 -1.3751,-0.7975c-0.2749,-0.13204 -0.61774,-0.19444 -0.88977,0.08436c-0.27217,0.27895 -0.20137,0.62015 -0.06261,0.89171c0.27677,0.40598 0.62234,0.87934 0.96706,1.21569c1.17201,1.14356 2.48104,2.28461 3.78906,3.28877c1.03227,0.73508 1.79163,1.61193 2.7558,2.41679c0.68941,0.67267 0.75748,0.60293 2.19693,0.78276c0.26756,-0.96384 -0.21502,-1.43473 -0.63055,-2.11227zM324.86482,307.78345c1.10307,1.07629 2.20614,2.15256 3.37728,3.15909c1.03413,1.00902 2.27321,1.9459 3.44435,2.95243c0.82643,0.67018 0.82644,0.67018 2.19794,0.91966c0.47698,-0.35094 0.33724,-0.75941 0.06061,-1.16551c-0.34557,-0.47338 -0.75922,-0.87698 -1.10393,-1.21333c-2.06651,-1.74395 -4.20185,-3.55534 -6.26823,-5.29944c-0.55153,-0.53814 -1.17113,-1.00653 -2.12986,-0.98942c-0.54233,0.83167 -0.12782,1.37232 0.42186,1.63653zM294.44844,296.61359c2.13547,1.81124 4.33973,3.68987 6.47506,5.50124c0.61961,0.46838 1.30716,0.86713 2.06179,1.0592c0.41192,0.12953 0.7529,-0.08201 0.95611,-0.42822c-0.07268,-0.61514 -0.48632,-1.01874 -0.83103,-1.35508c-2.27321,-1.94591 -4.54643,-3.89183 -6.88772,-5.76797c-0.48172,-0.33384 -0.96244,-0.53078 -1.44317,-0.72772c-0.5498,-0.26406 -0.8899,0.0845 -1.09213,0.5676c0.00374,0.54788 0.28036,0.95397 0.76109,1.15091zM307.95096,308.29127c1.9295,1.74647 3.85887,3.49308 5.78837,5.23955c0.62048,0.6054 1.17113,1.00652 1.99384,1.12882c0.34285,0.06241 0.68482,-0.01223 0.75103,-0.35594c0.06708,-0.20667 0.13327,-0.55038 -0.0046,-0.68491c-0.20782,-0.33871 -0.48446,-0.74481 -0.82917,-1.08114c-1.9295,-1.74647 -3.79094,-3.5627 -5.7203,-5.30931c-0.55153,-0.53814 -1.23909,-0.93689 -1.92577,-1.19859c-0.2749,-0.13204 -0.61687,-0.05739 -1.02592,0.2239c0.07441,0.88921 0.48907,1.42973 0.97251,2.03764zM296.3964,290.89318c2.1336,1.53731 3.92782,3.56035 5.92627,5.37409c0.61961,0.46838 1.17114,1.00651 1.99284,0.99193c0.13702,-0.00249 0.41005,-0.1444 0.54607,-0.28381c0.13602,-0.13941 0.13415,-0.41334 0.06435,-0.61764c-0.27663,-0.40611 -0.48446,-0.74481 -0.82917,-1.08115c-1.99831,-1.81388 -3.85975,-3.63011 -5.85819,-5.44385c-0.75748,-0.60292 -1.58379,-1.27322 -2.88362,-1.04445c0.00734,1.09588 0.35392,1.70616 1.04147,2.1049z" data-paper-data="{&quot;index&quot;:null}" fill="#216aff"/><path d="M236.99001,205.43901c-0.75748,-0.60292 -1.036,-1.28296 -0.90545,-2.24431c0.25735,-2.47056 0.5828,-5.0109 1.04525,-7.55374c0.26296,-1.64876 0.45785,-3.22775 0.5838,-4.87401c0.06521,-0.48061 0.12955,-1.09824 -0.2841,-1.50185c-0.89711,-1.01153 -1.79436,-2.02289 -3.09964,-2.61609c-0.8833,1.04322 -0.95225,0.97595 -1.01658,1.59358c-0.19677,1.30506 -0.39437,2.47306 -0.52305,3.70834c-0.25836,2.33367 -0.58481,4.7371 -0.91111,7.14041c0.00273,0.41098 0.00546,0.82195 -0.54046,1.10562c-0.75662,-0.46587 -1.44505,-1.00165 -1.79163,-1.61193c0.04781,-3.08334 0.71334,-5.97225 1.17306,-8.92606c0.26383,-1.51171 0.3217,-3.0882 0.44865,-4.59756c0.06521,-0.48061 0.13054,-0.96134 -0.21416,-1.29769c-0.96619,-1.07865 -1.93224,-2.15745 -3.16859,-2.68336c-0.75103,0.35594 -0.95239,0.97607 -1.01672,1.59373c-0.19576,1.44196 -0.46058,2.81677 -0.5884,4.1891c-0.26009,2.05959 -0.52118,3.98229 -0.78142,6.04202c0.00287,0.41085 -0.20037,0.75705 -0.60941,1.03835c-0.6196,-0.46838 -1.17113,-1.00653 -1.78974,-1.33801c-0.8935,-0.46351 -1.03499,-1.14606 -0.90358,-1.97037c0.12694,-1.50936 0.25462,-2.88153 0.38157,-4.39089c0.45326,-3.91266 1.1804,-7.83018 1.15366,-11.80261c-0.00361,-0.54801 0.12969,-1.09838 0.60581,-1.58634c1.09947,0.52827 2.06466,1.47003 3.02883,2.27488c2.96176,2.48155 5.85559,5.03275 8.81722,7.51444c4.20185,3.55534 8.4027,6.97377 12.60441,10.52926c4.89027,4.09113 9.78066,8.18212 14.67094,12.27324c3.03071,2.54882 5.9244,5.10014 8.9551,7.64896c2.54798,2.07808 5.09709,4.29293 7.57713,6.44065c2.27321,1.94591 4.61449,3.82204 6.88771,5.76796c2.75494,2.27975 5.37286,4.562 8.05986,6.91137c4.47748,3.82456 8.95409,7.51207 13.4317,11.33648c2.68686,2.34951 5.44266,4.7663 8.19759,7.04605c4.27066,3.62275 8.60952,7.17558 12.88018,10.79833c2.47918,2.01068 5.02729,4.08862 7.43837,6.16906c2.13633,1.94827 4.61264,3.54811 6.61381,5.77282c-1.53518,5.98698 -3.00228,11.90419 -4.6064,17.82391c-0.20049,0.75718 -0.33191,1.58149 -1.01212,2.27862c-1.37523,-0.79735 -2.34128,-1.87614 -3.37454,-2.74813c-0.01926,-2.87668 0.51025,-5.62619 1.03978,-8.37569c0.26296,-1.64876 0.45685,-3.36464 0.51385,-5.07817c-0.0036,-0.54802 0.06075,-1.16565 -0.35291,-1.56926c-0.96519,-0.94175 -1.79434,-2.02291 -3.16672,-2.40943c-0.75016,0.49297 -0.88244,1.18024 -1.01486,1.86765c-0.12782,1.37232 -0.39252,2.74702 -0.52033,4.11933c-0.26109,1.9227 -0.52219,3.84539 -0.78328,5.76809c-0.13327,0.55038 -0.19762,1.16801 -0.88058,1.45418c-0.5488,-0.12717 -0.96245,-0.53078 -1.17115,-1.00652c-0.01926,-2.87668 0.5782,-5.69581 1.03878,-8.51259c0.26296,-1.64876 0.45784,-3.22774 0.5838,-4.87399c0.06521,-0.4806 0.12969,-1.09839 -0.28396,-1.502c-0.96519,-0.94175 -1.86243,-1.95313 -3.16772,-2.54631c-0.88704,0.49533 -0.94952,1.38691 -1.08106,2.21136c-0.38978,3.15798 -0.84851,6.24869 -1.23914,9.26963c-0.06435,0.61764 -0.12969,1.09838 -0.46892,1.58399c-0.06794,0.06963 -0.2729,0.14177 -0.47799,0.21404c-0.48158,-0.33397 -0.96331,-0.66782 -1.24094,-1.21083c0.0488,-2.94644 0.64627,-5.76559 1.10685,-8.58236c0.26296,-1.64876 0.45785,-3.22775 0.5838,-4.87401c0.06521,-0.4806 0.12955,-1.09824 -0.2841,-1.50185c-0.96606,-1.07879 -1.86315,-2.09031 -3.0995,-2.61623c-0.81997,0.28867 -1.02133,0.90881 -1.08566,1.52646c-0.19589,1.4421 -0.46059,2.81677 -0.5884,4.1891c-0.26009,2.05959 -0.45224,4.04955 -0.78142,6.04201c-0.13327,0.55038 -0.12867,1.23529 -0.8797,1.59122c-1.30989,-1.27809 -2.68773,-2.48655 -3.99676,-3.62761c0.0488,-2.94644 0.5782,-5.69582 1.10772,-8.44533c0.26296,-1.64876 0.45699,-3.36478 0.51399,-5.07831c0.06521,-0.4806 0.12955,-1.09824 -0.14622,-1.36731c-0.89811,-1.14843 -1.86504,-2.36425 -3.44249,-2.67849c-0.61315,0.49047 -0.81449,1.11062 -0.87884,1.72825c-0.19662,1.30492 -0.39437,2.47307 -0.52305,3.70836c-0.32817,2.12937 -0.58826,4.18895 -0.84849,6.24868c-0.06521,0.4806 -0.19863,1.03112 -0.60668,1.44932c-0.75476,-0.19193 -1.10119,-0.80236 -1.44691,-1.2756c0.04967,-2.80941 0.5792,-5.55891 1.10872,-8.30841c0.26283,-1.64863 0.45685,-3.36466 0.51385,-5.07817c-0.00273,-0.41098 0.13054,-0.96135 -0.21417,-1.29769c-0.89711,-1.01153 -1.86415,-2.22722 -3.3046,-2.54396c-0.68208,0.4232 -0.88344,1.04336 -0.94777,1.66099c-0.19676,1.30506 -0.39437,2.47307 -0.52305,3.70836c-0.32817,2.12937 -0.5884,4.1891 -0.84849,6.24869c-0.06534,0.48075 -0.19862,1.03111 -0.74282,1.58885c-1.99745,-1.67684 -4.06198,-3.147 -5.71844,-5.03537c0.0488,-2.94644 0.57819,-5.6958 1.10773,-8.44532c0.26296,-1.64876 0.45698,-3.36478 0.514,-5.07831c0.06435,-0.61764 -0.00834,-1.23278 -0.49093,-1.70367c-0.89624,-0.87448 -1.72442,-1.81874 -2.82389,-2.34701c-0.8843,0.9063 -0.95325,0.83903 -1.08466,1.66336c-0.19589,1.44209 -0.39252,2.74702 -0.5884,4.1891c-0.26009,2.05959 -0.58826,4.18896 -0.84849,6.24869c-0.06521,0.4806 -0.13055,0.96135 -0.74642,1.04084c-0.82457,-0.39625 -1.30803,-1.00415 -1.17748,-1.9655c0.06435,-0.61764 0.12868,-1.23528 0.19303,-1.85292c0.33004,-1.85543 0.59201,-3.64109 0.92204,-5.49652c0.26383,-1.51171 0.52679,-3.16048 0.51572,-4.80424c0.06534,-0.48075 0.12967,-1.09838 -0.14609,-1.36745c-0.89811,-1.14842 -1.86518,-2.36411 -3.64845,-2.74326c-0.94505,2.07196 -0.93025,4.26358 -1.25855,6.39309c-0.26009,2.05959 -0.45138,4.1866 -1.12153,6.39058c-1.09746,-0.25447 -1.71708,-0.72286 -1.65634,-1.88851c0.06435,-0.61764 0.12868,-1.23528 0.19303,-1.85292c0.26109,-1.9227 0.59013,-3.91503 0.92016,-5.77046c0.33191,-1.58149 0.52679,-3.16048 0.51573,-4.80423c-0.00273,-0.41098 0.13055,-0.96135 -0.21417,-1.29769c-0.89711,-1.01153 -1.93209,-2.15758 -3.3046,-2.54396c-0.61401,0.35344 -0.7473,0.90382 -0.88058,1.45418c-0.13055,0.96135 -0.32917,1.99247 -0.45972,2.95381c-0.3263,2.40331 -0.65174,4.94365 -0.97803,7.34694c0.00273,0.41098 -0.06348,0.75468 -0.47353,0.89907c-1.51211,-0.795 -4.61262,-3.5481 -5.85546,-5.03288c0.04967,-2.80941 0.5792,-5.55891 1.10872,-8.30841c0.26009,-2.05959 0.65735,-4.12184 0.43758,-6.24134c-1.03413,-1.00902 -1.9331,-2.29447 -3.57938,-2.67612c-0.13515,0.27643 -0.40818,0.41833 -0.47526,0.62501c-0.13428,0.41348 -0.26843,0.82682 -0.33464,1.17052c-0.19676,1.30506 -0.39437,2.47306 -0.52305,3.70834c-0.32817,2.12936 -0.5884,4.1891 -0.84863,6.24884c-0.06521,0.48061 -0.19848,1.03098 -0.60667,1.44932c-0.75462,-0.19207 -1.16828,-0.59568 -1.51486,-1.20595c0.04967,-2.80941 0.5792,-5.55893 1.10873,-8.30843c0.26283,-1.64863 0.45685,-3.36464 0.51385,-5.07817c-0.00273,-0.41098 0.13055,-0.96135 -0.21416,-1.29769c-0.89711,-1.01153 -1.86417,-2.2272 -3.30462,-2.54395c-0.68208,0.4232 -0.88344,1.04336 -0.94777,1.66099c-0.19576,1.44196 -0.39164,2.88403 -0.5874,4.32599c-0.32917,1.99247 -0.52133,3.98243 -0.85036,5.97476c-0.06621,0.3437 -0.06246,0.89157 -0.74641,1.04083c-1.58479,-1.41013 -3.23753,-2.75062 -4.89127,-4.22802c0.39724,-2.06224 0.72628,-4.05455 1.12439,-5.97975c0.53225,-2.33853 0.99559,-4.74434 1.04799,-7.14278c-0.00374,-0.54787 0.19762,-1.16802 -0.14809,-1.64126c-0.89798,-1.14856 -1.86503,-2.36424 -3.44249,-2.67848c-0.8171,0.6995 -0.8797,1.59122 -1.01112,2.41552c-0.52679,3.16048 -1.05258,6.45786 -1.57937,9.61834c-0.06621,0.3437 -0.06335,0.75455 -0.54146,0.9687c-0.89251,-0.32662 -1.30703,-0.86725 -1.24543,-1.89587c0.18929,-2.40079 0.65261,-4.8066 1.04799,-7.14276c0.33177,-1.58136 0.5258,-3.29738 0.5828,-5.01091c-0.00374,-0.54787 0.06061,-1.1655 -0.35304,-1.56912c-0.96519,-0.94175 -1.86229,-1.95328 -3.16758,-2.54646c-0.88704,0.49533 -0.94952,1.38691 -1.08107,2.21136c-0.38977,3.15798 -0.84849,6.24869 -1.23913,9.26963c-0.06435,0.61764 -0.12968,1.09839 -0.53787,1.51673c-0.68669,-0.26171 -1.10121,-0.80235 -1.51673,-1.47989c-0.00546,-0.82195 0.05701,-1.71353 0.18755,-2.67487c0.33004,-1.85543 0.66007,-3.71085 0.92204,-5.49651c0.19489,-1.57898 0.38977,-3.15798 0.51573,-4.80424c0.13341,-0.55051 -0.00734,-1.09588 -0.42099,-1.49949c-1.03312,-0.87213 -1.79334,-1.88602 -3.0297,-2.41192c-0.95598,0.42807 -0.94965,1.38706 -1.08107,2.21136c-0.45785,3.22775 -0.91656,6.31846 -1.30635,9.47645c-0.06521,0.48061 -0.1314,0.82431 -0.67647,1.24501c-0.82643,-0.67019 -1.65286,-1.34035 -2.69061,-2.89739z" data-paper-data="{&quot;index&quot;:null}" fill="#ffffff"/><path d="M352.79981,265.49879c-2.4111,-2.08045 -4.75324,-4.09362 -7.16434,-6.17407c-0.13788,-0.13453 -0.20682,-0.2018 -0.34471,-0.33634c-2.40749,-1.53244 -4.47676,-3.68739 -6.74896,-5.49638c-2.27235,-1.80887 -4.47762,-3.82441 -6.68189,-5.70304c-4.1329,-3.48808 -8.26481,-6.83924 -12.39758,-10.32746c-2.68686,-2.34951 -5.4428,-4.76617 -8.12967,-7.11569c-0.13788,-0.13453 -0.27663,-0.4061 -0.48259,-0.47087c-2.26961,-1.3979 -3.99489,-3.35368 -6.06041,-4.96076c-2.822,-2.07308 -5.37286,-4.56201 -8.05972,-6.91152c-0.34384,-0.19931 -0.48259,-0.47087 -0.75748,-0.60292c-2.54539,-1.66697 -4.6155,-3.95895 -7.0256,-5.9025c-2.82301,-2.20999 -5.57694,-4.35283 -8.05985,-6.91138c-0.2077,-0.33885 -0.41452,-0.54065 -0.68943,-0.67268c-2.26947,-1.39803 -3.99489,-3.35368 -6.0604,-4.96075c-2.89195,-2.27725 -5.64863,-4.83108 -8.40442,-7.24785c-0.13788,-0.13453 -0.20682,-0.2018 -0.34471,-0.33634c-2.54725,-1.94092 -4.95746,-3.88431 -7.36856,-5.96476c-1.65373,-1.4774 -3.30735,-2.95492 -5.09709,-4.29292c-2.40936,-1.80637 -4.47848,-3.96145 -6.88771,-5.76797c-2.89195,-2.27725 -5.58068,-4.9007 -8.40457,-7.24771c-1.44678,-1.27573 -2.96177,-2.48155 -4.40855,-3.75728c-0.41277,-0.26657 -0.82457,-0.39625 -1.16927,-0.73259c-0.89538,-0.73745 -1.78515,-0.65309 -2.60325,-0.09049c-1.36416,0.84641 -2.59131,1.69032 -3.88653,2.60399c-0.68122,0.56024 -1.43123,1.05308 -2.31928,1.41151c-0.6196,-0.46838 -1.30615,-0.73021 -1.78874,-1.20109c-1.65373,-1.4774 -3.23853,-2.88753 -4.95922,-4.15839c-1.8587,-1.40526 -3.71738,-2.81054 -5.64502,-4.28307c-0.75748,-0.60292 -1.58293,-1.13619 -2.13719,-2.08531c1.29149,-1.46155 2.99848,-2.24555 4.42886,-3.43565c1.36229,-1.12033 2.93142,-2.03889 4.29387,-3.15937c1.49918,-1.1227 3.06829,-2.04125 4.56861,-3.0272c0.48073,0.19694 0.89251,0.32662 1.16828,0.59568c2.41023,1.94341 4.8884,3.81718 7.36758,5.82786c2.6162,2.00818 5.23223,4.01649 7.64433,6.23383c3.30734,2.95493 6.68176,5.70319 9.98823,8.5211c3.03171,2.68573 6.1993,5.23219 9.29895,7.84826c2.13533,1.81137 4.3396,3.69001 6.543,5.43162c2.41023,1.94341 4.68444,4.02622 7.0266,6.0394c0.20596,0.06478 0.34471,0.33634 0.55067,0.40111c1.85582,0.99442 3.37354,2.61123 5.02628,3.95172c3.09864,2.47919 5.92439,5.10014 8.88703,7.71873c0.34384,0.19931 0.55067,0.40111 0.7575,0.60291c2.13533,1.81137 4.26979,3.48571 6.40511,5.29708c2.7558,2.41679 5.58068,4.90071 8.33649,7.3175c0.13788,0.13453 0.20684,0.20181 0.34471,0.33634c2.34129,1.87614 4.75153,3.81954 7.09366,5.83272c2.7558,2.41679 5.58055,4.90085 8.33649,7.3175c0.13788,0.13453 0.20682,0.2018 0.3447,0.33633c2.54524,1.66711 4.54643,3.89182 6.88773,5.76796c3.03071,2.54882 6.13034,5.16491 9.16092,7.71387c3.23753,2.75062 6.544,5.56852 9.84961,8.24938c1.85855,1.4054 3.58124,2.95006 5.30391,4.49472c2.27321,1.94591 4.75138,3.81969 7.0256,5.9025c0.55153,0.53814 1.17202,1.14355 1.86055,1.6792c3.16759,2.54647 6.33531,5.09278 9.23086,7.91804c0.69029,0.80972 1.37971,1.4824 2.13893,2.35938c-2.45429,1.68781 -4.63568,3.23385 -6.74814,4.84716c-2.04338,1.68045 -4.0869,3.36103 -6.40517,4.90944c-0.34471,-0.33634 -0.55153,-0.53814 -0.75835,-0.73994c-1.85969,-1.54215 -3.37815,-3.29614 -5.37387,-4.69889c-0.8263,-0.67032 -1.78875,-1.20109 -2.13907,-2.35924c1.69693,-2.29087 4.36006,-3.50307 6.3309,-5.79879c-0.41366,-0.40361 -0.68942,-0.67268 -0.68855,-0.53564z" data-paper-data="{&quot;index&quot;:null}" fill="#216aff"/><path d="M342.55864,270.33984c-2.13533,-1.81137 -4.20185,-3.55534 -6.33718,-5.36671c-5.30392,-4.49474 -10.53889,-8.92219 -15.84281,-13.41693c-3.16859,-2.68335 -6.40612,-5.43398 -9.64365,-8.18461c-2.41111,-2.08044 -4.75324,-4.09362 -7.16434,-6.17407c-4.1329,-3.48808 -8.19674,-6.90901 -12.32964,-10.39709c-2.54811,-2.07795 -5.0971,-4.29295 -7.57713,-6.44065c-5.30392,-4.49474 -10.53889,-8.92218 -15.84281,-13.41692c-4.6155,-3.95895 -9.29895,-7.84827 -13.98238,-11.73758c-5.30392,-4.49474 -10.74484,-8.98696 -16.11683,-13.41193c-3.03056,-2.54896 -6.13022,-5.16505 -9.16092,-7.71386c-1.03326,-0.87199 -2.06638,-1.7441 -3.10152,-2.89002c1.77048,-1.53867 3.68072,-2.66889 5.45292,-3.93351c0.2749,0.13204 0.5498,0.26408 0.68768,0.39861c3.92594,3.28641 7.92099,6.63995 11.84692,9.92634c3.92594,3.28641 7.85289,6.70971 11.77898,9.99597c4.54556,3.75477 9.02217,7.44231 13.49965,11.26687c2.06651,1.74396 4.1329,3.48807 6.19931,5.23218c3.99503,3.35353 7.98991,6.70722 11.98494,10.06076c2.27321,1.94591 4.54641,3.89181 6.81962,5.83772c4.6145,3.82204 9.16105,7.71373 13.77556,11.53579c2.13533,1.81137 4.33958,3.69002 6.47506,5.50124c3.92594,3.28641 7.78308,6.50542 11.70904,9.79182c4.06396,3.42081 8.05973,6.91151 12.12369,10.33232c2.41023,1.94341 4.82045,3.88682 7.16261,5.9c1.51486,1.20595 2.96264,2.61859 4.40955,3.89418c-1.56365,1.74048 -3.61364,2.46221 -4.96946,4.54141c-0.61961,-0.46838 -1.23823,-0.79985 -1.85683,-1.13133z" data-paper-data="{&quot;index&quot;:null}" fill="#d0e9ea"/><path d="M340.61384,337.84753c2.13265,-8.80612 4.6762,-17.61961 7.28885,-26.36596c2.67871,-9.08993 5.63232,-18.04782 7.76223,-27.2649c0.46605,-1.99484 1.14079,-3.51391 2.98209,-4.71138c2.7954,-1.89948 5.38399,-4.00077 8.04151,-6.03479c0.47698,-0.35094 1.02305,-0.63474 1.707,-0.784c-0.06534,0.48075 0.00546,0.82195 -0.12968,1.09839c-0.93858,3.03081 -1.87615,6.19851 -2.8828,9.2991c-2.41674,7.30426 -4.69648,14.60602 -6.77039,21.9727c-0.73449,2.82163 -1.53691,5.71291 -2.47735,8.46979c-1.81469,5.17003 -3.01148,10.53437 -5.169,15.642c-0.67376,1.65599 -1.41743,3.1078 -2.77986,4.22828c-2.31641,1.82234 -4.63295,3.64483 -6.94937,5.46717c-0.06807,0.06976 -0.20495,0.07213 -0.68395,0.14927c0.06534,-0.48075 0.06247,-0.89157 0.06074,-1.16565z" data-paper-data="{&quot;index&quot;:null}" fill="#216aff"/><path d="M285.99621,292.44906c-0.68856,-0.53565 -1.37611,-0.93439 -1.99658,-1.5398c-2.06739,-1.881 -4.06569,-3.69487 -6.13309,-5.57588c-3.10052,-2.75313 -6.20102,-5.50626 -9.30167,-8.25924c-3.92782,-3.56035 -7.92458,-7.18796 -11.92133,-10.81556c-3.65205,-3.29127 -7.23615,-6.65218 -10.88821,-9.94345c-0.48172,-0.33384 -1.0324,-0.73494 -1.17388,-1.41749c0.39064,-3.02094 1.05533,-6.04689 1.72,-9.07283c0.79969,-3.30224 1.4625,-6.60213 2.39921,-9.90687c0.53413,-2.0646 0.86229,-4.19396 1.73927,-6.19615c0.20322,-0.34621 0.26843,-0.82682 1.02032,-1.04571c0.68495,-0.01237 1.30543,0.59304 1.99385,1.12883c2.82389,2.34701 5.64775,4.69404 8.53958,6.97143c4.19999,3.2814 8.19674,6.90902 12.26157,10.46685c5.30493,4.63163 10.54263,9.47006 15.71139,14.24123c0.41366,0.40361 0.96431,0.80472 1.37797,1.20834c0.8273,0.80722 1.79149,1.61208 2.68773,2.48656c0.68856,0.53565 0.83003,1.21819 0.42472,2.04737c-0.2703,0.55288 -0.47066,1.30991 -0.67202,1.93005c-1.20701,3.85762 -2.07016,7.91455 -3.00228,11.9042c-0.9331,3.85276 -2.20906,7.6431 -3.34799,11.43096c-0.61501,0.21654 -1.02579,0.22376 -1.43858,-0.04281zM264.42044,241.18544c-1.9285,-1.60956 -3.72012,-3.22151 -5.64862,-4.83107c-0.13788,-0.13453 -0.41179,-0.12966 -0.61775,-0.19444c-1.92936,-1.74661 -3.65478,-3.70225 -5.99247,-5.03037c-1.07732,2.75923 -4.54019,17.48021 -5.46036,23.25066c0.96606,1.07879 2.13719,2.08531 3.37628,3.02221c0.48172,0.33384 1.03225,0.73508 1.44591,1.13869c3.92782,3.56035 7.78682,7.05329 11.6457,10.54637c0.13788,0.13453 0.41264,0.2667 0.55053,0.40124c2.06739,1.881 4.27167,3.75965 6.33905,5.64065c1.24183,1.34786 2.41482,2.62832 3.92882,3.69724c1.85957,1.54229 3.31007,3.36591 5.23671,4.70154c1.93324,2.29434 4.47661,3.6875 6.61482,5.90972c0.95051,-1.25001 1.07832,-2.62234 1.41283,-3.79271c1.33482,-5.22994 2.67051,-10.32284 4.00534,-15.55279c0.19948,-0.89408 0.26196,-1.78566 0.59847,-2.68223c0.47238,-1.03584 -0.01293,-1.91769 -0.70135,-2.45346c-2.9609,-2.34451 -5.51448,-5.24443 -8.54433,-7.6562c-2.61606,-2.00833 -5.02902,-4.36269 -7.50906,-6.51039c-0.41366,-0.40361 -0.96431,-0.80472 -1.37797,-1.20833c-1.31076,-1.41513 -2.62065,-2.69322 -4.20359,-3.82941c-1.72168,-1.40776 -3.37541,-2.88516 -5.09896,-4.56687z" data-paper-data="{&quot;index&quot;:null}" fill="#010201"/><path d="M214.19874,187.41978c-1.03326,-0.87199 -2.13545,-1.81124 -3.23666,-2.61359c-1.3761,-0.93439 -1.72714,-2.22972 -1.53225,-3.8087c0.5176,-4.5303 1.03504,-9.06047 1.55264,-13.59076c0.06534,-0.48075 0.06161,-1.02862 0.74369,-1.45181c0.89077,0.05254 1.57934,0.58818 2.33669,1.19123c0.82643,0.67019 1.5848,1.41013 2.47918,2.01068c1.03226,0.73508 1.31177,1.55202 1.18395,2.92436c-0.65448,4.53266 -1.65193,9.00306 -2.0325,13.53086c-0.13242,0.68742 -0.26484,1.37483 -0.60307,1.99732c-0.54694,0.14676 -0.82183,0.01474 -0.89165,-0.18958zM212.63614,179.09065c-0.13514,0.27643 -0.27116,0.41583 -0.33838,0.62265c-0.06061,1.16551 -0.12134,2.33117 -0.25002,3.56645c0.34657,0.61028 0.76109,1.15093 1.65274,1.34049c0.67475,-1.51909 0.39076,-3.02107 0.79149,-4.53516c-0.75562,-0.32897 -1.23721,-0.66296 -1.85583,-0.99443zM215.21638,175.75658c-0.96418,-0.80485 -1.92764,-1.47254 -2.89182,-2.27739c-0.3365,0.89658 -0.39998,1.65126 -0.32544,2.54034c0.8263,0.67032 1.65187,1.20346 2.47818,1.87378c0.61228,-0.62751 0.53873,-1.37969 0.73909,-2.13673zM214.08124,169.88579c-0.67562,1.38205 -0.67561,1.38204 1.25189,2.85472c0.74283,-1.58886 -0.35664,-2.11713 -1.25189,-2.85472z" data-paper-data="{&quot;index&quot;:null}" fill="#020202"/><path d="M241.95737,221.03684c0.76842,2.2468 -0.79148,4.53517 -3.11998,4.57686c-3.01316,0.05379 -5.84986,-4.21107 -4.56757,-7.04242c0.81076,-1.65849 2.38175,-2.3031 4.03089,-1.51061c0.75562,0.32897 1.51211,0.795 1.99558,1.4029c0.82643,0.67019 1.31177,1.55202 1.66107,2.57328zM237.28773,219.20226c-0.61775,-0.19444 -1.23089,0.29602 -1.22628,0.98095c-0.0626,0.89171 1.45872,3.05653 2.69147,3.03444c0.61674,0.05754 1.16193,-0.3633 1.15733,-1.04822c0.06347,-0.75469 -0.21415,-1.2977 -0.90358,-1.97036c-0.48259,-0.47088 -1.1012,-0.80235 -1.71895,-0.99679z" data-paper-data="{&quot;index&quot;:null}" fill="#030606"/><path d="M239.35765,231.70089c0.08275,2.12199 -1.34577,3.58604 -3.47101,3.28152c-0.2739,0.00486 -0.5488,-0.12716 -0.82371,-0.25919c-1.71622,-0.58582 -2.61605,-2.00831 -3.44796,-3.50044c-0.55528,-1.08602 -0.22423,-2.80455 0.66008,-3.71086c0.8843,-0.9063 1.97817,-1.19985 3.14559,-0.74119c0.75562,0.32897 1.5792,0.58832 2.06278,1.19609c0.96519,0.94175 1.72902,2.50365 1.87424,3.73406zM233.52795,230.50354c0.48719,1.1558 1.17747,1.9655 2.41197,2.21748c0.68582,0.12467 1.43584,-0.36817 1.36231,-1.12035c-0.00634,-0.95898 -0.42271,-1.77357 -1.2483,-2.3067c-0.48159,-0.33398 -1.03126,-0.5982 -1.51211,-0.795c-1.29522,0.91367 -1.3623,1.12034 -1.01384,2.00457z" data-paper-data="{&quot;index&quot;:null}" fill="#040605"/><path d="M209.5528,199.35345c-0.2215,-2.39358 1.75395,-4.00439 4.01895,-3.29141c1.5792,0.58832 2.81928,1.66212 3.44609,3.22651c0.69588,1.63154 0.09195,3.49182 -1.40824,4.47761c-0.95425,0.70213 -2.53157,0.38777 -3.77165,-0.68602c-0.13788,-0.13453 -0.20681,-0.2018 -0.3447,-0.33634c-1.10308,-1.07629 -1.72714,-2.22972 -1.94044,-3.39037zM212.01169,198.35053c-0.54419,0.55774 -0.46793,1.72089 0.22249,2.53047c0.3447,0.33635 0.82629,0.67031 1.30716,0.86712c0.82457,0.39625 1.57372,-0.23362 1.49918,-1.1227c-0.07255,-0.61528 -0.28209,-1.22806 -0.62681,-1.5644c-0.69042,-0.80959 -1.85682,-1.13133 -2.40202,-0.71048z" data-paper-data="{&quot;index&quot;:null}" fill="#040505"/><path d="M229.64252,212.83139c-0.12508,1.7833 -1.35137,2.76423 -3.06484,2.58939c-2.81008,-0.29229 -5.09335,-3.74505 -4.28992,-6.49942c0.33464,-1.17052 1.01572,-1.73063 2.1804,-1.68294c1.36962,-0.02447 2.60511,0.36442 3.50321,1.51285c1.23908,0.93688 1.79609,2.29698 1.67115,4.08014zM225.44068,209.27604c-0.48159,-0.33398 -1.3007,0.09173 -1.36502,0.70937c-0.13055,0.96135 0.28584,1.77593 0.97525,2.44861c0.62048,0.6054 1.37524,0.79734 2.40017,0.43654c0.33004,-1.85543 -0.70409,-2.86445 -2.01037,-3.59453z" data-paper-data="{&quot;index&quot;:null}" fill="#030604"/><path d="M210.27233,224.95974c-1.50938,-0.38401 -3.99501,-3.35353 -3.9389,-5.2041c0.05514,-1.98746 1.62152,-3.31697 3.5427,-2.80329c1.9213,0.51355 3.64758,2.60623 3.73033,4.72823c0.00634,0.95898 -0.05615,1.85057 -0.66927,2.34104c-0.95325,0.83903 -1.7732,1.1277 -2.66485,0.93812zM210.92679,220.42707c-0.48347,-0.60791 -0.96792,-1.35273 -1.85956,-1.5423c-0.2749,-0.13204 -0.61588,0.0795 -0.75101,0.35594c-0.06708,0.20667 -0.13415,0.41333 -0.13242,0.68742c0.07354,0.75217 0.35118,1.29518 0.90272,1.83333c0.55153,0.53814 1.035,1.14606 1.99197,0.85489c0.47439,-0.76204 0.40085,-1.51423 -0.15169,-2.18926z" data-paper-data="{&quot;index&quot;:null}" fill="#030506"/><path d="M215.04322,211.24292c0.14622,1.36732 -0.94032,2.75673 -2.37802,2.85096c-2.94336,0.25809 -5.97965,-3.11255 -4.9078,-6.69374c0.33464,-1.17052 1.42677,-1.73813 2.72933,-1.55591c1.02852,0.18721 1.85409,0.72034 2.33668,1.19123c1.17201,1.14356 2.07459,2.97703 2.21981,4.20746zM210.2495,211.32853c0.82731,0.80721 1.03312,0.87212 2.40102,0.57358c0.11948,-2.60511 -0.57181,-3.55171 -2.90289,-3.92113c-0.60766,1.31242 -0.39538,2.33616 0.50186,3.34755z" data-paper-data="{&quot;index&quot;:null}" fill="#050504"/><path d="M236.5402,240.51925c1.04147,2.10491 -0.51859,4.39341 -2.91688,4.23079c-0.61674,-0.05754 -1.23449,-0.25198 -1.71622,-0.58582c-1.1012,-0.80235 -1.93037,-1.8835 -2.55531,-3.17396c-0.20969,-0.61264 -0.28223,-1.22792 -0.21789,-1.84557c0.19576,-1.44196 1.42203,-2.42289 2.79268,-2.31046c1.09573,-0.0196 2.05819,0.5112 2.95256,1.11174c0.62234,0.87935 1.31176,1.55202 1.66107,2.57328zM231.47419,240.88393c0.34657,0.61028 0.83017,1.21806 1.58565,1.54717c0.41277,0.26657 0.96072,0.25671 1.30082,-0.09185c0.47699,-0.35094 0.26843,-0.82681 0.12868,-1.23528c-0.62595,-1.42737 -1.45238,-2.09755 -3.16586,-2.27239c-0.47426,0.7619 -0.19575,1.44196 0.15069,2.05237z" data-paper-data="{&quot;index&quot;:null}" fill="#050304"/><path d="M224.97438,231.68406c-0.19389,1.7159 -1.21607,2.48765 -2.86061,2.38008c-0.61688,-0.0574 -1.23448,-0.25198 -1.78428,-0.51605c-1.58193,-0.99929 -2.34489,-2.42415 -2.6988,-4.13031c-0.07081,-0.34121 -0.00548,-0.82194 0.06073,-1.16564c0.33277,-1.44445 1.21893,-2.07684 2.65751,-2.03402c1.23361,0.11494 2.12799,0.71549 3.09318,1.65724c1.1022,0.93926 1.65821,2.16244 1.53226,3.80871zM220.10166,230.19553c0.34644,0.61042 0.76197,1.28797 1.58566,1.54717c0.61761,0.19458 1.29969,-0.22862 1.15821,-0.91118c-0.14162,-0.68241 -0.55701,-1.3601 -1.10853,-1.89825c-0.6196,-0.46838 -0.7575,-0.60291 -2.12713,-0.57846c-0.40632,0.69227 0.07715,1.30019 0.49179,1.8407z" data-paper-data="{&quot;index&quot;:null}" fill="#040405"/><path d="M219.68893,219.72244c-0.01467,-2.19177 1.75767,-3.45652 3.81759,-2.67126c2.19708,0.78262 3.78905,3.28877 3.53084,5.62231c-0.19402,1.71603 -1.62527,2.76911 -3.27253,2.25057c-0.9606,-0.25685 -1.78515,-0.65309 -2.40663,-1.3954c-1.10308,-1.07629 -1.72801,-2.36675 -1.66926,-3.80621zM224.69146,220.11243c-0.41552,-0.67754 -1.036,-1.28296 -1.92764,-1.47253c-0.68582,-0.12467 -1.23089,0.29602 -1.22628,0.98095c0.00546,0.82195 0.28498,1.63889 0.90545,2.24431c0.68941,0.67268 0.8273,0.80721 2.26674,0.98706c0.60954,-1.03849 0.33005,-1.85542 -0.01827,-2.73977z" data-paper-data="{&quot;index&quot;:null}" fill="#040506"/><path d="M300.82632,277.38788c2.27235,1.80888 4.47749,3.82455 6.54573,5.84259c0.48259,0.47087 1.03412,1.00903 0.9027,1.83333c-0.54507,0.4207 -1.02491,0.3608 -1.64352,0.02932c-0.82457,-0.39625 -1.24009,-1.07379 -1.92864,-1.60944c-1.79148,-1.61207 -3.44609,-3.2265 -5.23772,-4.83844c-0.48259,-0.47087 -0.89709,-1.01152 -0.62867,-1.83833c0.8879,-0.35829 1.50752,0.11007 1.99011,0.58096z" data-paper-data="{&quot;index&quot;:null}" fill="#0c1212"/><path d="M318.11598,302.28693c-0.82457,-0.39625 -1.24009,-1.0738 -1.92864,-1.60944c-1.79148,-1.61207 -3.44609,-3.2265 -5.23771,-4.83844c-0.48259,-0.47087 -0.89709,-1.01152 -0.62867,-1.83833c0.8879,-0.35829 1.5075,0.11008 2.12698,0.57859c2.34042,1.73911 4.47762,3.82441 6.54588,5.84246c0.48259,0.47087 1.03412,1.00903 0.9027,1.83333c-0.47626,0.4881 -1.02506,0.36093 -1.78054,0.03182z" data-paper-data="{&quot;index&quot;:null}" fill="#0d1313"/><path d="M331.53097,321.36437c-0.61775,-0.19444 -1.09847,-0.39138 -1.58105,-0.86226c-1.99745,-1.67684 -4.06383,-3.42095 -6.06228,-5.23468c-0.41366,-0.40361 -0.9642,-0.80485 -1.17389,-1.41748c-0.13962,-0.40861 -0.34744,-0.74731 -0.00734,-1.09588c0.54607,-0.28381 0.95886,-0.01724 1.44045,0.31673c2.54539,1.66697 4.6155,3.95895 7.09366,5.83272c0.61961,0.46838 1.036,1.28296 1.24655,2.03263c-0.33924,0.48561 -0.68122,0.56024 -0.95612,0.4282z" data-paper-data="{&quot;index&quot;:null}" fill="#090c0d"/><path d="M321.029,297.5084c-0.89251,-0.32662 -1.51211,-0.795 -2.13258,-1.40041c-1.65374,-1.4774 -3.17046,-2.95728 -4.89114,-4.22815c-0.61961,-0.46838 -1.10307,-1.07628 -1.58666,-1.68406c-0.2077,-0.33884 -0.55339,-0.81208 -0.21417,-1.29769c0.61315,-0.49046 1.09573,-0.01961 1.57746,0.31424c2.54524,1.66711 4.54641,3.89181 6.95578,5.69819c0.68842,0.53578 1.1048,1.35038 1.38431,2.16732c-0.40719,0.55523 -0.81809,0.56261 -1.09301,0.43057z" data-paper-data="{&quot;index&quot;:null}" fill="#090d0e"/><path d="M307.00802,290.22398c0.20684,0.2018 0.20955,0.61278 0.00547,0.82195c-0.20397,0.20903 -0.47799,0.21403 -0.82084,0.15163c-1.02952,-0.32411 -1.9239,-0.92467 -2.75034,-1.59485c-1.79162,-1.61194 -3.44622,-3.22635 -5.44179,-4.62926c-0.34384,-0.19931 -0.62049,-0.60541 -0.89711,-1.01153c-0.13788,-0.13453 -0.0718,-0.47809 -0.0046,-0.68491c0.13515,-0.27643 0.40804,-0.4182 0.75102,-0.35594c0.47885,-0.07699 0.89165,0.18957 1.23635,0.52592c2.27235,1.80888 4.54455,3.61788 6.74795,5.35949c0.48259,0.47087 0.82732,0.80721 1.17388,1.41749z" data-paper-data="{&quot;index&quot;:null}" fill="#080b0b"/><path d="M328.00108,326.08548c-2.4111,-2.08045 -4.82318,-4.29778 -7.23429,-6.37824c-0.27577,-0.26907 -0.48345,-0.60792 -0.69128,-0.94662c-0.13876,-0.27158 -0.14148,-0.68255 0.06261,-0.8917c0.27203,-0.2788 0.61487,-0.2164 0.88978,-0.08436c0.61861,0.33148 1.10034,0.66532 1.58206,0.99916c1.23996,1.07393 2.61692,2.14534 3.857,3.21914c0.96431,0.80472 1.79163,1.61194 2.68787,2.48642c0.48259,0.47087 1.03412,1.00903 0.69761,1.9056c-0.81997,0.28867 -1.4377,0.09422 -1.85136,-0.30939z" data-paper-data="{&quot;index&quot;:null}" fill="#07090a"/><path d="M316.1745,308.96619c-1.17201,-1.14356 -2.41122,-2.0803 -3.65118,-3.15423c-0.89624,-0.87448 -1.9295,-1.74647 -2.82575,-2.62096c-0.41366,-0.40361 -0.75835,-0.73994 -0.89898,-1.28546c-0.06981,-0.20429 -0.07168,-0.47825 0.06435,-0.61764c0.13602,-0.13941 0.40905,-0.2813 0.61501,-0.21653c0.54967,0.26421 1.09933,0.52841 1.58105,0.86226c1.37697,1.07142 2.75393,2.14284 4.06297,3.28389c0.96431,0.80472 1.79163,1.61193 2.68787,2.48641c0.48259,0.47087 0.96519,0.94175 0.69762,1.9056c-1.02592,0.2239 -1.71435,-0.31188 -2.33295,-0.64335z" data-paper-data="{&quot;index&quot;:null}" fill="#07090a"/><path d="M333.7723,308.3091c-0.96431,-0.80472 -1.72355,-1.68169 -2.75594,-2.41665c-1.30803,-1.00415 -2.61705,-2.1452 -3.78907,-3.28876c-0.34471,-0.33634 -0.69027,-0.80972 -0.96692,-1.21583c-0.13889,-0.27144 -0.20955,-0.61278 0.06248,-0.89158c0.27203,-0.2788 0.615,-0.21653 0.88977,-0.08435c0.48086,0.1968 0.96246,0.53076 1.37524,0.79733c1.37697,1.07142 2.75394,2.14286 4.06296,3.28391c0.96431,0.80472 1.79162,1.61194 2.68786,2.48641c0.48259,0.47087 0.8971,1.01152 0.62955,1.97537c-1.57645,-0.17734 -1.57646,-0.17735 -2.19593,-0.64586z" data-paper-data="{&quot;index&quot;:null}" fill="#060909"/><path d="M326.43681,307.27576c2.13446,1.67433 4.20171,3.55548 6.2681,5.29958c0.48172,0.33384 0.82729,0.80722 1.10407,1.21319c0.2077,0.33884 0.41639,0.81457 -0.06075,1.16565c-1.3715,-0.24947 -1.3715,-0.24947 -2.19779,-0.9198c-1.1022,-0.93926 -2.27335,-1.94577 -3.44436,-2.95243c-1.17114,-1.00653 -2.27421,-2.08281 -3.37727,-3.1591c-0.41366,-0.40361 -0.82817,-0.94426 -0.28584,-1.77594c0.89078,0.05253 1.51025,0.52106 1.99383,1.12883z" data-paper-data="{&quot;index&quot;:null}" fill="#060909"/><path d="M294.71141,294.96482c0.5488,0.12717 1.09847,0.39138 1.44318,0.72773c2.34129,1.87614 4.61451,3.82205 6.88773,5.76796c0.41366,0.40361 0.82729,0.80722 0.83102,1.35509c-0.20309,0.34607 -0.54419,0.55774 -0.95598,0.42807c-0.82269,-0.12231 -1.44232,-0.59069 -2.06179,-1.0592c-2.13547,-1.81124 -4.33973,-3.68987 -6.47505,-5.50124c-0.34471,-0.33634 -0.68942,-0.67269 -0.69315,-1.22055c0.13428,-0.41347 0.47438,-0.76204 1.02405,-0.49783z" data-paper-data="{&quot;index&quot;:null}" fill="#070909"/><path d="M308.14125,306.02737c0.68668,0.26171 1.37424,0.66046 1.92577,1.1986c1.9295,1.74647 3.859,3.49293 5.72043,5.30917c0.34471,0.33634 0.5524,0.67519 0.82903,1.0813c0.06995,0.20416 0.0718,0.47809 0.0046,0.68491c-0.13515,0.27643 -0.47698,0.35093 -0.75102,0.35594c-0.82269,-0.12231 -1.44218,-0.59082 -1.99371,-1.12896c-1.9295,-1.74647 -3.859,-3.49294 -5.78837,-5.23955c-0.62048,-0.6054 -1.03512,-1.14593 -1.10954,-2.03514c0.40906,-0.2813 0.75102,-0.35595 1.16282,-0.22627z" data-paper-data="{&quot;index&quot;:null}" fill="#050606"/><path d="M298.23856,289.83273c1.99845,1.81374 3.92782,3.56035 5.85818,5.44385c0.34471,0.33634 0.55253,0.67505 0.82917,1.08115c0.06981,0.20429 0.07168,0.47824 -0.06434,0.61764c-0.06708,0.20667 -0.40906,0.2813 -0.54607,0.2838c-0.82169,0.01459 -1.44131,-0.45378 -1.99284,-0.99192c-2.06638,-1.7441 -3.7918,-3.69975 -5.92627,-5.37409c-0.61961,-0.46838 -1.035,-1.14606 -1.04147,-2.10491c1.36877,-0.16149 2.12613,0.44155 2.88361,1.04446z" data-paper-data="{&quot;index&quot;:null}" fill="#050606"/><path d="M279.3558,282.70369c-1.55799,-7.64422 -2.91105,-15.36058 -4.12721,-23.07931c-0.43192,-3.14339 -1.00099,-6.28414 -1.50099,-9.35775c-0.00086,-0.13703 -0.00274,-0.41097 0.06434,-0.61764c0.41366,0.40361 0.96431,0.80472 1.37797,1.20833c2.54898,2.21498 4.96107,4.43232 7.50906,6.5104c2.9609,2.34451 5.51448,5.24443 8.54432,7.65619c0.68842,0.53578 1.1048,1.35036 0.70136,2.45348c-0.33737,0.75955 -0.39899,1.78816 -0.59848,2.68224c-1.33482,5.22994 -2.60157,10.3901 -4.00533,15.55278c-0.40258,1.24015 -0.59934,2.5452 -1.41283,3.79271c-2.13819,-2.22221 -4.75052,-3.68263 -6.61481,-5.90971c-0.07067,-0.34135 0.06435,-0.61764 0.06261,-0.89172z" data-paper-data="{&quot;index&quot;:null}" fill="#00ff00"/><path d="M259.94465,247.84148c1.35031,7.30539 2.76856,14.54115 3.84497,21.85138c-0.13788,-0.13453 -0.41277,-0.26656 -0.55067,-0.40111c-3.92782,-3.56035 -7.7867,-7.05342 -11.64557,-10.54649c-0.41366,-0.40361 -0.96432,-0.80471 -1.44603,-1.13855c-1.23909,-0.93688 -2.41023,-1.94341 -3.37628,-3.02221c0.85223,-5.70082 4.3151,-20.42179 5.4605,-23.25079c2.33755,1.32827 4.06297,3.28389 5.99246,5.03038c0.57354,3.8258 1.01006,7.65409 1.72063,11.47738z" data-paper-data="{&quot;index&quot;:null}" fill="#00ff00"/><path d="M258.91058,236.62595c1.92864,1.60943 3.78819,3.15173 5.64862,4.83107c0.57454,3.96269 1.21802,7.99265 1.86138,12.02276c0.92746,5.53197 1.923,10.99414 2.85044,16.5261c0.35392,1.70616 0.5708,3.41483 0.85664,5.19076c-2.06739,-1.881 -4.27167,-3.75965 -6.33905,-5.64065c-1.07627,-7.31038 -2.56359,-14.61326 -3.84482,-21.85153c-0.64162,-3.75602 -1.14622,-7.51455 -1.71976,-11.34035c0.20582,0.0649 0.41179,0.12967 0.68656,0.26185z" data-paper-data="{&quot;index&quot;:null}" fill="#87ff87"/><path d="M274.12542,278.96113c-0.7851,-4.71236 -1.70697,-9.42252 -2.35505,-14.1374c-0.71789,-4.91917 -1.36771,-9.90813 -1.88051,-14.89957c-0.21417,-1.29769 -0.70322,-2.7274 -0.30152,-4.10459c1.58293,1.13619 2.89281,2.41428 4.20358,3.82942c0.001,0.1369 -0.13415,0.41335 -0.06434,0.61764c0.50099,3.21052 1.00099,6.28414 1.50099,9.35775c1.21617,7.71872 2.5692,15.43509 4.12721,23.07931c0.00173,0.27408 -0.06435,0.61764 -0.06262,0.89172c-1.99558,-1.4029 -3.44608,-3.2265 -5.16776,-4.63427z" data-paper-data="{&quot;index&quot;:null}" fill="#86ff86"/><path d="M269.9227,275.26875c-0.35392,-1.70616 -0.57081,-3.41481 -0.85678,-5.19062c-0.92746,-5.53197 -1.92284,-10.99428 -2.85031,-16.52623c-0.64348,-4.02996 -1.21789,-7.99279 -1.86138,-12.02277c1.72168,1.40776 3.37541,2.88516 5.09709,4.29292c-0.33277,1.44445 0.15542,2.73714 0.3015,4.10461c0.51293,4.99131 1.16275,9.98025 1.88066,14.89943c0.71689,4.78227 1.56995,9.42502 2.35491,14.13754c-1.51399,-1.06893 -2.68686,-2.34952 -4.06569,-3.69488z" data-paper-data="{&quot;index&quot;:null}" fill="#01ff01"/><path d="M213.70048,184.62024c-0.82269,-0.12231 -1.30617,-0.73021 -1.65274,-1.34049c0.05974,-1.30255 0.18942,-2.40093 0.25002,-3.56645c0.06722,-0.20681 0.20323,-0.34622 0.33838,-0.62265c0.61861,0.33147 1.16828,0.59569 1.85583,0.99443c-0.46879,1.58385 -0.18482,3.08585 -0.79149,4.53516z" data-paper-data="{&quot;index&quot;:null}" fill="#589ca0"/><path d="M211.99913,176.01953c-0.14248,-0.81944 -0.07902,-1.57413 0.32544,-2.54034c1.03312,0.87213 1.99657,1.5398 2.89182,2.27739c-0.20035,0.75704 -0.05887,1.43958 -0.73909,2.13673c-0.96332,-0.66782 -1.72081,-1.27073 -2.47818,-1.87378z" data-paper-data="{&quot;index&quot;:null}" fill="#5ba3a7"/><path d="M214.08124,169.88579c0.89524,0.73759 2.06278,1.19609 1.25189,2.85472c-1.92751,-1.47267 -1.9275,-1.47267 -1.25189,-2.85472z" data-paper-data="{&quot;index&quot;:null}" fill="#56999d"/><path d="M239.91025,222.16942c0.0046,0.68491 -0.47251,1.03598 -1.15733,1.04822c-1.16468,-0.04768 -2.68513,-2.07545 -2.69147,-3.03444c-0.00374,-0.54787 0.60854,-1.17538 1.22628,-0.98095c0.61775,0.19444 1.23634,0.52591 1.71894,0.99679c0.68941,0.67268 0.96705,1.21568 0.90358,1.97036z" data-paper-data="{&quot;index&quot;:null}" fill="#01f4f4"/><path d="M236.05393,229.29397c0.82556,0.53313 1.24195,1.34772 1.24829,2.3067c0.07354,0.75217 -0.60754,1.31229 -1.3623,1.12035c-1.23449,-0.25198 -1.9937,-1.12897 -2.41196,-2.21749c-0.34844,-0.88421 -0.28137,-1.09089 1.01384,-2.00457c0.41277,0.26657 1.03052,0.46101 1.51211,0.795z" data-paper-data="{&quot;index&quot;:null}" fill="#35a76d"/><path d="M215.04052,200.62542c0.07455,0.88907 -0.67561,1.38205 -1.49918,1.1227c-0.48086,-0.1968 -0.8935,-0.46351 -1.30716,-0.86712c-0.69042,-0.80959 -0.83564,-2.04 -0.22249,-2.53047c0.47712,-0.35107 1.64366,-0.02945 2.40202,0.71049c0.3447,0.33635 0.62234,0.87935 0.62681,1.56439z" data-paper-data="{&quot;index&quot;:null}" fill="#da6694"/><path d="M225.05089,212.43404c-0.62048,-0.6054 -1.03687,-1.42 -0.97525,-2.44861c-0.07268,-0.61514 0.74642,-1.04084 1.36503,-0.70937c1.37424,0.66045 2.40836,1.66947 2.01038,3.59453c-0.95598,0.42807 -1.77867,0.30576 -2.40016,-0.43655z" data-paper-data="{&quot;index&quot;:null}" fill="#01f001"/><path d="M209.15545,221.82872c-0.55153,-0.53814 -0.89812,-1.14841 -0.90272,-1.83333c-0.00173,-0.27408 0.06535,-0.48074 0.13242,-0.68742c0.13514,-0.27643 0.40818,-0.41834 0.75104,-0.35593c0.89164,0.18957 1.37609,0.9344 1.85955,1.5423c0.48359,0.60778 0.48906,1.42972 0.08275,2.12199c-0.95785,0.15414 -1.50937,-0.38401 -1.92303,-0.78762z" data-paper-data="{&quot;index&quot;:null}" fill="#008bda"/><path d="M212.65053,211.90211c-1.3679,0.29853 -1.57372,0.23363 -2.40102,-0.57358c-0.96519,-0.94175 -1.10954,-2.03513 -0.50186,-3.34756c2.33108,0.36942 3.02236,1.31604 2.90289,3.92114z" data-paper-data="{&quot;index&quot;:null}" fill="#ebe502"/><path d="M234.48935,241.10394c0.13975,0.40848 0.27937,0.81709 -0.12867,1.23529c-0.40905,0.2813 -0.81997,0.28866 -1.30082,0.09185c-0.68656,-0.26184 -1.17014,-0.86962 -1.58565,-1.54717c-0.41452,-0.54065 -0.62409,-1.15342 -0.15069,-2.05238c1.71347,0.17484 2.60785,0.77539 3.16586,2.27239z" data-paper-data="{&quot;index&quot;:null}" fill="#f30001"/><path d="M221.59997,228.93579c0.6196,0.46838 0.96605,1.07879 1.10853,1.89823c0.14162,0.68241 -0.47152,1.17289 -1.15821,0.91118c-0.68669,-0.26171 -1.17014,-0.86963 -1.58565,-1.54717c-0.34557,-0.47338 -0.82917,-1.08115 -0.35478,-1.8432c1.43858,0.04281 1.5756,0.04031 1.99011,0.58096z" data-paper-data="{&quot;index&quot;:null}" fill="#de93ad"/><path d="M222.44299,221.86515c-0.62048,-0.6054 -0.83104,-1.35509 -0.90545,-2.24431c0.06347,-0.75469 0.54047,-1.10562 1.22629,-0.98094c0.89164,0.18957 1.58019,0.72522 1.92764,1.47253c0.41638,0.81458 0.69574,1.63167 0.01827,2.73979c-1.43944,-0.17985 -1.6454,-0.24461 -2.26675,-0.98707z" data-paper-data="{&quot;index&quot;:null}" fill="#865492"/></g><g data-paper-data="{&quot;index&quot;:null}" stroke="#000000"><path d="M344.55535,240.25411c2.098,-1.92818 -11.38856,-9.86743 -17.62764,-17.28341c-5.05911,-6.01343 -5.67408,-12.51109 1.20332,-10.77046c5.47526,5.95751 77.29401,13.54397 52.74907,36.102c-24.54495,22.55803 -48.88114,36.01541 -54.35639,30.05788c-5.47526,-5.95751 -6.51331,-15.54801 18.03164,-38.10603z" fill="#216aff" stroke-width="2"/><path d="M354.99462,250.33635c9.93166,10.80645 9.4423,27.416 -1.09302,37.09847c-10.53532,9.68247 -27.12708,8.77131 -37.05874,-2.03514c-9.93166,-10.80645 -9.44229,-27.41599 1.09303,-37.09846c10.53532,-9.68247 27.12707,-8.77132 37.05873,2.03513z" fill="#faddbf" stroke-width="2"/><path d="M354.26561,286.56368c-10.53531,9.68248 -27.12707,8.77132 -37.05873,-2.03513c-9.93166,-10.80645 25.67539,-5.18376 36.2107,-14.86623c10.53532,-9.68249 11.38334,7.21889 0.84803,16.90136z" fill="#ef8b89" stroke-width="0"/></g></g></g></svg>