<svg version="1.1" xmlns="http://www.w3.org/2000/svg" xmlns:xlink="http://www.w3.org/1999/xlink" width="94.0281" height="128.62322" viewBox="0,0,94.0281,128.62322"><g transform="translate(-280.50115,-100.78913)"><g data-paper-data="{&quot;isPaintingLayer&quot;:true}" fill-rule="nonzero" stroke-linejoin="miter" stroke-miterlimit="10" stroke-dasharray="" stroke-dashoffset="0" style="mix-blend-mode: normal"><text transform="translate(365.13014,199.172) rotate(175.29517) scale(1.13469,-1.13469)" font-size="40" xml:space="preserve" data-paper-data="{&quot;index&quot;:null}" fill="#ffffff" fill-rule="nonzero" stroke="none" stroke-width="1" stroke-linecap="butt" stroke-linejoin="miter" stroke-miterlimit="10" stroke-dasharray="" stroke-dashoffset="0" font-family="Sans Serif" font-weight="normal" text-anchor="start" style="mix-blend-mode: normal"><tspan x="0" dy="0">???</tspan></text><path d="M306.21218,223.55524c0,0 -3.84683,-6.62887 -4.21767,-8.40927c-1.11252,-5.34115 -4.43417,-28.8779 -7.36552,-50.16032c-0.45343,-3.29185 1.52204,-8.80466 1.52204,-8.80466c0,0 3.28279,-3.20511 5.37515,-3.50498c23.08493,-3.30824 44.80076,-8.27063 53.72094,-6.88223c2.97339,0.46279 8.59499,2.62651 8.59499,2.62651c0,0 2.18425,7.13216 2.66548,8.97876c0.16043,0.61553 0.25241,0.96175 0.37588,1.58577c3.69952,18.69694 5.96338,40.61074 6.39578,48.31325c0.1441,2.56748 -2.32393,6.94906 -2.32393,6.94906c0,0 -1.67894,4.84317 -8.79584,7.19151c-7.78713,2.56948 -27.3149,4.62918 -47.45873,6.69109z" data-paper-data="{&quot;index&quot;:null}" fill="#582700" stroke="#000000" stroke-width="2.5" stroke-linecap="round"/><path d="M319.36347,192.79371c0.80202,5.82314 0.93723,10.61462 0.30198,10.70213c-0.63525,0.08748 -1.80039,-4.56211 -2.60244,-10.38528c-0.80205,-5.82314 -0.93726,-10.61465 -0.30201,-10.70216c0.63521,-0.08751 1.80041,4.56214 2.60246,10.38531z" data-paper-data="{&quot;index&quot;:null}" fill="none" stroke="#000000" stroke-width="2.5" stroke-linecap="butt"/><path d="M371.12741,148.95923c-0.90747,1.88724 -2.79471,0.97981 -2.79471,0.97981l-1.30521,-0.70384c-0.15539,-0.03022 -0.31065,-0.05963 -0.46571,-0.0882c-0.29537,0.56749 -0.92627,1.26859 -2.20213,1.03386c-1.17599,-0.21634 -1.55696,-0.98055 -1.66741,-1.59652c-4.51316,-0.48782 -8.95194,-0.4079 -13.59245,-0.18205c-12.93343,1.0734 -25.75693,3.14803 -38.60693,4.9564c-4.21422,0.59306 -13.40816,3.61592 -17.32159,1.31284c-1.90854,-1.12322 -1.68776,-4.42008 -2.10022,-6.14365c-1.19526,-4.99457 -2.54538,-10.14989 -3.28062,-15.2362c-0.91655,-6.65456 -4.2396,-12.24493 -5.99476,-18.65138c-0.87993,-3.21176 -2.44976,-6.34421 0.08003,-9.58222c0.71429,-0.91429 2.23028,-0.65259 3.36929,-0.87335c4.16275,-0.80691 8.26112,-1.08994 12.47793,-1.17873c13.36302,-0.28142 26.4799,-1.2433 39.86631,-0.707c5.40093,0.22272 10.7251,-0.40851 16.09957,-0.97877c3.15872,-0.33511 5.90087,-1.63499 8.28508,1.69426c1.42383,1.98819 1.52609,8.74761 1.7815,11.21885c0.98485,9.52924 4.11121,20.9592 3.4574,30.7757c0.20339,0.0368 0.40699,0.07494 0.61088,0.11427l2.32393,1.04113c0,0 1.88724,0.90747 0.97981,2.79471z" data-paper-data="{&quot;index&quot;:null}" fill="#000000" stroke="none" stroke-width="0.5" stroke-linecap="butt"/><path d="M311.29839,183.93779c-0.66118,-1.32932 0.66814,-1.99052 0.66814,-1.99052l1.05978,-0.49875c1.69851,-1.23963 3.54095,-2.11703 5.49225,-2.62496c0.14138,-0.07571 0.28351,-0.15097 0.42638,-0.22579c0.03781,-0.02157 0.07592,-0.04338 0.11439,-0.0654l0.05536,-0.03456l-0.07967,-0.17314l1.41286,-0.65015c0.1367,-0.06677 0.28622,-0.11352 0.44506,-0.1359c0.81197,-0.11426 1.56282,0.45135 1.67709,1.26329c0.08465,0.60125 -0.20353,1.16898 -0.68846,1.46956c-0.24144,0.28815 -0.53043,0.43189 -0.53043,0.43189c-0.30698,0.15253 -0.60983,0.30568 -0.90922,0.46044c-1.24375,0.74558 -2.22108,1.72945 -3.33378,1.91278c-0.2305,0.14863 -0.46052,0.30097 -0.69043,0.45764l-1.12205,1.1573c-0.22284,0.23422 -0.5233,0.39765 -0.86825,0.44622c-0.50284,0.07074 -0.98226,-0.11924 -1.30155,-0.46699c-0.37525,0.12702 -1.30774,0.3119 -1.82744,-0.73295z" data-paper-data="{&quot;index&quot;:null}" fill="#582700" stroke="none" stroke-width="0.5" stroke-linecap="butt"/><g data-paper-data="{&quot;index&quot;:null}" stroke="#000000" stroke-width="0.625" stroke-linecap="butt"><g data-paper-data="{&quot;index&quot;:null}" fill="#000000"><path d="M327.41637,212.85883c-14.23584,3.68209 -11.01159,-3.63165 -11.01159,-3.63165l19.00732,-4.84494c0,0 7.12302,4.41444 -7.9957,8.47658z"/></g><g data-paper-data="{&quot;index&quot;:null}" fill="#ffffff"><path d="M327.41643,212.85885c-2.91195,0.75318 -5.09337,1.04628 -6.72124,1.036c-0.02917,-0.00018 0.70393,-1.52552 0.40734,-2.73264c-0.36214,-1.47385 -1.76291,-2.68309 -1.75847,-2.68422c3.20902,-0.81799 16.06804,-4.09575 16.06804,-4.09575c0,0 7.12302,4.41444 -7.9957,8.47658z"/></g></g><path d="M308.19581,194.50486c0.80202,5.82314 0.93723,10.61462 0.30198,10.70213c-0.63525,0.08748 -1.80039,-4.56211 -2.60244,-10.38528c-0.80205,-5.82314 -0.93726,-10.61465 -0.30201,-10.70216c0.63521,-0.08751 1.80041,4.56214 2.60246,10.38531z" data-paper-data="{&quot;index&quot;:null}" fill="none" stroke="#000000" stroke-width="2.5" stroke-linecap="butt"/><path d="M312.08631,186.00061c-0.5197,1.04485 -1.45219,0.85997 -1.82744,0.73295c-0.3193,0.34775 -0.79871,0.53773 -1.30155,0.46699c-0.34494,-0.04856 -0.64541,-0.21199 -0.86825,-0.44622l-1.12205,-1.1573c-0.2299,-0.15667 -0.45993,-0.30902 -0.69043,-0.45764c-1.1127,-0.18334 -2.09004,-1.1672 -3.33378,-1.91278c-0.29939,-0.15476 -0.60223,-0.30791 -0.90922,-0.46044c0,0 -0.28899,-0.14373 -0.53043,-0.43189c-0.48492,-0.30058 -0.77311,-0.86831 -0.68846,-1.46956c0.11426,-0.81194 0.86512,-1.37756 1.67709,-1.26329c0.15884,0.02238 0.30836,0.06913 0.44506,0.1359l1.41286,0.65015l-0.07967,0.17314l0.05536,0.03456c0.03847,0.02202 0.07658,0.04383 0.11439,0.0654c0.14287,0.07481 0.285,0.15008 0.42638,0.22579c1.9513,0.50793 3.79373,1.38533 5.49225,2.62496l1.05978,0.49875c0,0 1.32931,0.6612 0.66814,1.99052z" data-paper-data="{&quot;index&quot;:null}" fill="#582700" stroke="none" stroke-width="0.5" stroke-linecap="butt"/></g></g></svg>