<svg version="1.1" xmlns="http://www.w3.org/2000/svg" xmlns:xlink="http://www.w3.org/1999/xlink" width="176.31314" height="329.16621" viewBox="0,0,176.31314,329.16621"><g transform="translate(-228.51922,-31.8212)"><g data-paper-data="{&quot;isPaintingLayer&quot;:true}" fill-rule="nonzero" stroke-linejoin="miter" stroke-miterlimit="10" stroke-dasharray="" stroke-dashoffset="0" style="mix-blend-mode: normal"><g data-paper-data="{&quot;index&quot;:null}" stroke="#000000" stroke-linecap="butt"><path d="M342.88469,234.14588c31.42105,-11.13716 39.41119,-5.73227 42.11438,1.8942c2.7032,7.62648 -20.57723,22.83741 -51.99829,33.97457c-31.42106,11.13715 -4.52116,-55.88437 -7.22435,-63.51085c1.67967,-6.89254 7.13439,-3.30873 10.08172,3.97613c3.63475,8.98395 4.3408,24.61791 7.02655,23.66595z" fill="#216aff" stroke-width="2"/><path d="M362.45202,214.38555c13.48671,-4.78036 28.39481,2.55891 33.29819,16.39271c4.90337,13.8338 -2.05479,28.92356 -15.5415,33.70391c-13.48671,4.78035 -28.39482,-2.55892 -33.2982,-16.39272c-4.90337,-13.8338 2.0548,-28.92354 15.54151,-33.7039z" fill="#faddbf" stroke-width="2"/><path d="M364.72827,255.73849c13.48671,-4.78035 25.17836,-38.87993 30.08174,-25.04614c4.90337,13.8338 -2.0548,28.92355 -15.54151,33.7039c-13.48671,4.78035 -28.02696,-3.87741 -14.54023,-8.65776z" fill="#ef8b89" stroke-width="0"/></g><g stroke="#000000" stroke-linecap="butt"><path d="M327.76518,340.83535v-95.29492h29.49199v95.29492z" fill="#73fffc" stroke-width="2"/><path d="M327.43943,340.21742l1.32626,-93.78573c0,0 5.20288,68.11227 6.3799,77.52842c0.2602,2.08162 2.52228,2.78987 2.52228,2.78987l18.60659,13.13896z" fill="#59a9e6" stroke-width="0"/></g><g stroke="#000000" stroke-linecap="butt"><path d="M288.4238,338.4128v-95.29492h29.49199v95.29492z" fill="#73fffc" stroke-width="2"/><path d="M288.09805,337.7949l1.32626,-93.78573c0,0 5.20288,68.11227 6.3799,77.52842c0.2602,2.08162 2.52228,2.78987 2.52228,2.78987l18.60659,13.13896z" fill="#59a9e6" stroke-width="0"/></g><g stroke="#000000" stroke-linecap="butt"><path d="M355.22917,235.69588c0,13.80271 10.04743,36.74388 4.95001,46.45977c-6.2338,11.88187 -28.61241,9.09579 -38.9397,9.09579c-13.66287,0 -32.94407,4.17018 -38.34426,-14.83216c-2.01935,-7.10576 4.35457,-32.37264 4.35457,-40.7234c0,-30.68249 15.2177,-55.55556 33.98969,-55.55556c18.77199,0 33.98969,24.87307 33.98969,55.55556z" fill="#216aff" stroke-width="2"/><path d="M303.96554,251.27246c0,13.80271 62.04198,20.54886 56.94455,30.26474c-6.2338,11.88186 -28.61241,9.09579 -38.9397,9.09579c-13.66287,0 -32.94406,4.17018 -38.34425,-14.83215c-2.01936,-7.10576 4.35457,-32.37265 4.35457,-40.7234c0,-9.45244 3.34855,-28.59801 5.51953,-29.96813c5.94391,-16.76415 10.4653,25.13995 10.4653,46.16315z" fill="#3236f4" stroke-width="0"/></g><g stroke="#000000" stroke-linecap="butt"><g><path d="M232.22222,120.27786c0,-46.79079 37.93143,-84.72222 84.72222,-84.72222c46.79079,0 84.72222,37.93143 84.72222,84.72222c0,46.79079 -37.93143,84.72222 -84.72222,84.72222c-46.79079,0 -84.72222,-37.93143 -84.72222,-84.72222z" fill="#faddbf" stroke-width="2"/><path d="M232.45299,119.40835c0,-15.05428 8.65728,-41.01117 13.16632,-44.22534c0.51494,-0.36707 5.78642,-8.91029 13.30693,-15.62682c9.34748,-8.34819 21.31473,-15.15641 21.9255,-14.95935c7.96872,2.57101 -17.52654,64.85492 -16.28763,90.14485c0.00295,0.06031 4.40745,19.70158 6.02593,20.14049c2.8855,4.74247 9.11092,19.15337 19.99223,26.29351c20.2786,13.30648 48.94186,19.68013 47.45857,20.18586c-2.37273,0.80898 -14.80271,2.76903 -20.86562,2.76903c-46.79079,0 -84.72222,-37.93143 -84.72222,-84.72222z" fill="#ef8b89" stroke-width="0"/><path d="M401.14322,119.81966c0,11.62434 -1.57787,15.64071 -2.12992,13.78899c-0.5632,-1.8891 -0.18668,-9.81362 -9.04258,-14.64925c-2.14596,-1.17177 -10.20624,6.27605 -12.93385,5.04791c-1.71325,-0.77142 -8.65215,-10.17554 -10.56583,-10.85157c-1.33801,-0.47267 -12.45011,8.37757 -13.84965,7.92692c-3.49052,-1.12394 -11.98851,-11.37355 -15.73972,-12.03156c-2.06568,-0.36235 -9.2828,11.84977 -11.39182,11.59592c-2.71985,-0.32737 -10.06862,-12.06843 -12.80601,-12.06843c-7.27985,0 -7.47978,7.01079 -12.7176,13.01701c-3.40366,3.90299 -13.98842,-13.05188 -17.11223,-8.61668c-3.87941,5.50799 -7.71992,10.81771 -11.96095,14.41734c-3.32724,2.82405 -13.36416,-10.09687 -16.24015,-7.47909c-13.88607,12.63935 -22.22353,20.64372 -22.22353,2.47189c0,-36.54015 43.28764,-8.21349 85.0704,-29.73523c39.99404,-20.60039 83.64345,-9.37431 83.64345,27.16584z" fill="#ef8b89" stroke-width="0"/></g><path d="M402.67709,111.50877c0,23.48334 6.5317,8.71531 -11.46679,-0.86026c-2.20249,-1.17177 -10.47508,6.27605 -13.27454,5.04791c-1.75838,-0.77142 -8.88005,-10.17554 -10.84414,-10.85157c-1.37326,-0.47267 -12.77806,8.37757 -14.21446,7.92692c-3.58246,-1.12394 -12.30429,-11.37355 -16.15431,-12.03156c-2.12009,-0.36235 -9.52731,11.84977 -11.69189,11.59592c-2.79149,-0.32737 -10.33384,-12.06843 -13.14333,-12.06843c-7.47161,0 -7.6768,7.01079 -13.05259,13.01701c-3.49332,3.90299 -14.35688,-13.05188 -17.56298,-8.61668c-3.98159,5.50799 -7.92327,10.81771 -12.276,14.41734c-3.41488,2.82405 -13.71618,-10.09687 -16.66792,-7.47909c-14.25184,12.63935 -22.80892,20.64372 -22.80892,2.47189c0,-36.54015 39.86264,-81.25697 85.78948,-81.25697c45.92683,0 87.36842,42.14743 87.36842,78.68758z" fill="#724e36" stroke-width="2"/><path d="M402.42936,110.34598c0,23.48334 6.5317,8.71531 -11.46679,-0.86026c-2.20249,-1.17177 -10.47508,6.27605 -13.27454,5.04791c-1.75838,-0.77142 -8.88005,-10.17554 -10.84415,-10.85157c-1.37326,-0.47267 -12.77806,8.37757 -14.21446,7.92692c-3.58246,-1.12394 -12.30429,-11.37355 -16.15431,-12.03156c-2.12009,-0.36235 -9.52731,11.84977 -11.69189,11.59592c-2.79149,-0.32737 -10.33384,-12.06843 -13.14333,-12.06843c-7.47161,0 -7.6768,7.01079 -13.05259,13.01701c-3.49332,3.90299 -14.35688,-13.05188 -17.56298,-8.61668c-3.98159,5.50799 -7.92327,10.81771 -12.27601,14.41734c-3.41488,2.82405 -13.71618,-10.09687 -16.66792,-7.47909c-14.25184,12.63935 -22.80892,20.64372 -22.80892,2.47189c0,-36.54015 44.42786,-8.21349 87.31121,-29.73523c41.04751,-20.60039 85.84668,-9.37431 85.84668,27.16584z" fill="#623728" stroke-width="0"/></g><g stroke="#000000" stroke-linecap="butt"><path d="M335.77956,143.18022c0,28.55894 -13.1683,43.28947 -29.73684,43.28947c-16.56854,0 -30.26316,-14.73054 -30.26316,-43.28947c0,-28.55894 13.43146,-51.71053 30,-51.71053c16.56854,0 30,23.15159 30,51.71053z" fill="#f0f0f0" stroke-width="2"/><path d="M289.02383,123.59782c-4.30259,28.23297 34.22345,62.0416 17.65491,62.0416c-16.56854,0 -30.26316,-14.73054 -30.26316,-43.28947c0,-28.55894 18.82852,-59.56866 12.60825,-18.75213z" fill="#9a99ff" stroke-width="0"/></g><path d="M331.88513,151.41347c0,15.82221 -4.68891,28.64865 -10.47297,28.64865c-5.78406,0 -10.47297,-12.82644 -10.47297,-28.64865c0,-15.82221 4.68891,-28.64865 10.47297,-28.64865c5.78406,0 10.47297,12.82644 10.47297,28.64865z" fill="#000000" stroke="none" stroke-width="0" stroke-linecap="butt"/><g stroke="#000000" stroke-linecap="butt"><path d="M330.77026,113.14554c4.45946,10.22981 13.24831,38.768 -2.46195,38.768c-15.71026,0 -50.32611,-29.28792 -45.7813,-38.90314c4.32432,-9.14873 6.78974,-21.41892 22.5,-21.41892c15.71026,0 21.49332,11.80491 25.74324,21.55405z" fill="#a100fe" stroke-width="2"/><path d="M329.84599,112.79129c4.3074,10.22981 13.5858,38.55368 -1.58878,38.55368c-15.17458,0 -49.39934,-29.0736 -45.0095,-38.68882c4.17687,-9.14873 6.55823,0.96203 21.73281,0.96203c15.17458,0 20.76045,-10.57604 24.86546,-0.8269z" fill="#99008e" stroke-width="0"/></g><g data-paper-data="{&quot;index&quot;:null}" stroke="#000000" stroke-linecap="butt"><path d="M369.50624,89.99106c16.56854,0 30,23.15159 30,51.71053c0,28.55893 -13.69462,43.28947 -30.26316,43.28947c-16.56854,0 -29.73684,-14.73053 -29.73684,-43.28947c0,-28.55894 13.43146,-51.71053 30,-51.71053z" fill="#f0f0f0" stroke-width="2"/><path d="M398.87022,140.87132c0,28.55893 -13.69462,43.28947 -30.26316,43.28947c-16.56854,0 21.9575,-33.80863 17.65491,-62.0416c-6.22027,-40.81653 12.60825,-9.80681 12.60825,18.75213z" fill="#9a99ff" stroke-width="0"/></g><path d="M385.23386,122.59338c5.78406,0 10.47297,12.82644 10.47297,28.64865c0,15.82221 -4.68891,28.64865 -10.47297,28.64865c-5.78406,0 -10.47297,-12.82644 -10.47297,-28.64865c0,-15.82221 4.68891,-28.64865 10.47297,-28.64865z" data-paper-data="{&quot;index&quot;:null}" fill="#000000" stroke="none" stroke-width="0" stroke-linecap="butt"/><g data-paper-data="{&quot;index&quot;:null}" stroke="#000000" stroke-linecap="butt"><path d="M344.51555,111.66688c4.24992,-9.74914 10.03298,-21.55405 25.74324,-21.55405c15.71026,0 18.17568,12.27019 22.5,21.41892c4.54481,9.61522 -28.99946,39.33177 -44.70972,39.33177c-15.71026,0 -7.99299,-28.96682 -3.53353,-39.19663z" fill="#a100fe" stroke-width="2"/><path d="M345.43982,111.31264c4.10501,-9.74914 9.69088,0.8269 24.86546,0.8269c15.17458,0 17.55594,-10.11076 21.73281,-0.96203c4.38984,9.61522 -28.97766,39.54609 -44.15224,39.54609c-15.17458,0 -6.75344,-29.18114 -2.44604,-39.41095z" fill="#99008e" stroke-width="0"/></g><path d="M391.63632,338.87004c0,11.6628 -14.51982,21.11737 -32.43092,21.11737c-17.9111,0 -32.43092,-9.45457 -32.43092,-21.11737c0,-2.33142 -0.03339,-13.76009 1.08979,-15.13837c4.49546,-5.51647 17.81784,5.26144 32.14847,5.26144c17.9111,0 31.62358,-1.78588 31.62358,9.87692z" fill="#000082" stroke="#000000" stroke-width="2" stroke-linecap="butt"/><path d="M389.75004,336.13774c0,6.30841 -13.89058,10.1901 -31.80169,10.1901c-17.9111,0 -30.16566,-2.95748 -30.16566,-9.26589c0,-1.26107 -0.03338,-12.52602 1.0898,-13.27153c4.49546,-2.98386 15.55258,5.7726 29.88321,5.7726c17.9111,0 30.99434,0.26631 30.99434,6.57472z" fill="#2e0048" stroke="#000000" stroke-width="0" stroke-linecap="butt"/><path d="M348.64938,338.22521c0,11.6628 -14.51982,21.11737 -32.43092,21.11737c-17.9111,0 -32.43092,-9.45457 -32.43092,-21.11737c0,-2.33142 -0.03339,-13.76009 1.08979,-15.13837c4.49546,-5.51647 17.81784,5.26144 32.14847,5.26144c17.9111,0 31.62358,-1.78588 31.62358,9.87692z" fill="#000082" stroke="#000000" stroke-width="2" stroke-linecap="butt"/><path d="M346.7631,335.49289c0,6.30841 -13.89058,10.1901 -31.80169,10.1901c-17.9111,0 -30.16566,-2.95748 -30.16566,-9.26589c0,-1.26107 -0.03338,-12.52602 1.0898,-13.27153c4.49546,-2.98386 15.55258,5.7726 29.88321,5.7726c17.9111,0 30.99434,0.26631 30.99434,6.57472z" fill="#2e0048" stroke="#000000" stroke-width="0" stroke-linecap="butt"/><g><path d="M316.11183,257.32851c-15.00138,1.60671 -24.57096,-4.99883 -26.85224,-19.76045c-1.78424,-11.54521 9.35166,-25.8286 24.35306,-27.43532c15.00145,-1.60675 26.93731,6.91962 28.52806,21.77151c0.24876,2.32255 -0.21096,4.53985 -0.61192,6.56891c-2.16312,10.94585 -12.76148,17.4999 -25.41694,18.85536z" fill="#216aff" stroke="#000000" stroke-width="2" stroke-linecap="butt"/><path d="M301.42998,216.54894c0,0 0.17244,5.75338 1.89524,6.7758c16.52538,9.80741 30.56136,9.34962 35.19214,8.84393c1.0521,-0.11488 1.52211,-1.13466 1.52211,-1.13466c0,0 0.44459,2.0665 0.13961,4.79066c-0.32452,2.89873 -1.45006,6.537 -3.22359,9.04693c-2.0259,2.86702 -8.42894,8.20645 -8.42894,8.20645l-20.22698,5.45235c0,0 -11.16037,-7.51006 -12.43106,-9.2657c-1.24487,-1.71993 -2.22462,-4.11217 -3.3687,-6.61378c-1.77632,-3.8841 -2.11295,-8.41108 -1.51011,-11.22735c0.76941,-3.59419 3.16234,-7.59742 5.65719,-10.485c2.32193,-2.68743 4.7831,-4.38949 4.7831,-4.38949z" fill="#3236f4" stroke="none" stroke-width="0" stroke-linecap="butt"/><path d="M306.36653,240.48218c0,0 -2.79843,-8.57712 -1.08358,-13.43916c2.17079,-6.15484 9.722,-16.69437 9.722,-16.69437" fill="none" stroke="#000000" stroke-width="1" stroke-linecap="round"/><path d="M339.7818,225.21994c0,0 -0.75451,7.1106 -2.21495,11.15273c-1.47435,4.08075 -7.77681,11.45852 -7.77681,11.45852" fill="none" stroke="#000000" stroke-width="1" stroke-linecap="round"/><path d="M296.22722,244.67154c0,0 -3.00407,-8.76138 -0.90683,-13.94314c3.21815,-7.95121 9.57112,-17.65356 9.57112,-17.65356" fill="none" stroke="#000000" stroke-width="1" stroke-linecap="round"/><path d="M290.51036,230.4971c0,0 12.51429,-11.95273 29.61765,-8.63324c18.73456,3.63607 20.24618,20.81762 20.24618,20.81762" fill="none" stroke="#000000" stroke-width="1" stroke-linecap="round"/><path d="M290.25218,240.01752c0,0 14.71961,-10.00978 29.81823,-7.11307c12.39735,2.37849 15.02442,16.7318 15.02442,16.7318" fill="none" stroke="#000000" stroke-width="1" stroke-linecap="round"/><path d="M327.40417,216.9794c-1.08652,-0.51641 -1.63584,-1.63232 -1.22704,-2.49242c0.40877,-0.86016 1.13752,-0.53938 2.22403,-0.02296c1.08652,0.51641 2.11929,1.03289 1.71049,1.89301c-0.40877,0.86016 -1.62101,1.13881 -2.70747,0.62237z" fill="#8fbbbe" stroke="none" stroke-width="0" stroke-linecap="butt"/><path d="M333.48448,220.96545c-0.59807,0.06403 -1.16078,-0.61124 -1.25686,-1.50833c-0.09609,-0.8971 -0.01146,-1.27664 0.58659,-1.34071c0.59807,-0.06403 1.34127,0.59192 1.43732,1.48901c0.09609,0.8971 -0.16904,1.29597 -0.76708,1.36002z" fill="#8fbbbe" stroke="none" stroke-width="0" stroke-linecap="butt"/><path d="M321.12828,214.06787c-0.90226,-0.00007 -1.63359,-0.48766 -1.63357,-1.08914c-0.00002,-0.60143 0.78944,-0.5476 1.69166,-0.54757c0.90226,0.00007 1.57558,-0.0538 1.57558,0.54769c0.00002,0.60143 -0.73146,1.08905 -1.63369,1.089z" fill="#8fbbbe" stroke="none" stroke-width="0" stroke-linecap="butt"/><path d="M297.89119,219.30118c0,0 9.2688,-4.33231 16.83339,-4.77578c4.28875,-0.25141 8.15545,1.00753 11.0763,1.99486c2.58306,0.8731 7.48866,5.25039 10.89482,8.99156c2.50777,2.75441 4.04632,5.26436 4.04632,5.26436" fill="none" stroke="#000000" stroke-width="0.5" stroke-linecap="round"/><path d="M331.57041,213.32079c0,0 0.72091,10.5479 -0.90769,15.702c-1.37212,4.34245 -7.86608,13.16815 -7.86608,13.16815" fill="none" stroke="#000000" stroke-width="1" stroke-linecap="round"/><path d="M317.02776,241.16582c0,0 -0.55142,-9.65008 0.3365,-14.08431c1.55903,-7.78565 7.94094,-16.0105 7.94094,-16.0105" fill="none" stroke="#000000" stroke-width="1" stroke-linecap="round"/></g><g stroke="#000000" stroke-linecap="butt"><path d="M293.38762,243.32221c32.66348,6.66455 36.72114,15.41615 35.10353,23.34418c-1.61761,7.92804 -29.40793,8.95228 -62.07141,2.28772c-32.66347,-6.66456 24.95014,-50.20951 26.56775,-58.13754c4.99397,-5.03869 7.81877,0.84503 6.5865,8.60631c-1.51966,9.57148 -8.97832,23.32967 -6.18637,23.89934z" fill="#216aff" stroke-width="2"/><path d="M320.34326,236.48525c14.01999,2.86059 23.00679,16.8375 20.07258,31.2183c-2.93421,14.38079 -16.67832,23.71977 -30.69831,20.85918c-14.01999,-2.86059 -23.00678,-16.83752 -20.07257,-31.21831c2.93421,-14.3808 16.67832,-23.71977 30.69831,-20.85917z" fill="#faddbf" stroke-width="2"/><path d="M300.96477,273.08746c14.01999,2.86059 41.6241,-20.3232 38.68989,-5.94241c-2.93421,14.38079 -16.67832,23.71977 -30.69831,20.85917c-14.01999,-2.86059 -22.01157,-17.77736 -7.99158,-14.91676z" fill="#ef8b89" stroke-width="0"/></g><path d="M278.54129,173.2069c0.88389,0.88388 0,1.76777 0,1.76777l-0.10679,0.01608c-1.2788,2.55528 -2.42369,5.35669 -5.18362,6.70671c-2.86133,1.39962 -6.70807,0.39213 -7.39279,-2.95132c-0.91815,-4.48325 3.38672,-8.92927 5.43491,-12.4451c0,0 0.62983,-1.07972 1.70956,-0.44988c1.07972,0.62984 0.44989,1.70956 0.44989,1.70956c-1.73146,2.96449 -5.71652,6.9665 -5.13448,10.73935c0.26012,1.68612 2.58099,1.80161 3.85848,1.14005c2.1741,-1.12589 3.00686,-3.53543 4.02197,-5.56741l0.5751,-0.66581c0,0 0.88388,-0.88388 1.76776,0z" fill="#000000" stroke="none" stroke-width="0.5" stroke-linecap="butt"/></g></g></svg>