<svg version="1.1" xmlns="http://www.w3.org/2000/svg" xmlns:xlink="http://www.w3.org/1999/xlink" width="242.31535" height="334.98321" viewBox="0,0,242.31535,334.98321"><g transform="translate(-193.81834,-10.59682)"><g data-paper-data="{&quot;isPaintingLayer&quot;:true}" fill-rule="nonzero" stroke-linejoin="miter" stroke-miterlimit="10" stroke-dasharray="" stroke-dashoffset="0" style="mix-blend-mode: normal"><g data-paper-data="{&quot;index&quot;:null}" stroke="#000000" stroke-linecap="butt"><path d="M386.96,263.97456l-16.51761,-45.13281l47.89092,-17.52701l16.51761,45.13281z" fill="#ffcaa0" stroke-width="2"/><g><path d="M370.34746,219.06847l-22.77597,-62.23321l48.51513,-17.75546l22.77597,62.23321z" fill="#ff0008" stroke-width="2"/><path d="M371.11877,219.01245l-11.92938,-32.59591c0,0 19.46755,8.22868 27.52169,5.28104c7.63653,-2.7948 19.61703,-22.53276 19.61703,-22.53276l11.92938,32.59592c0,0 -15.5044,5.67427 -23.31862,8.5341c-7.8978,2.89042 -23.82009,8.71763 -23.82009,8.71763z" fill="#8d005e" stroke-width="0"/></g><path d="M387.51545,263.19164l-16.51761,-45.13281l23.48141,26.09356l40.92712,1.51224z" fill="#ff6e5b" stroke-width="0"/></g><g data-paper-data="{&quot;index&quot;:null}" stroke="#000000" stroke-linecap="butt"><path d="M421.06272,81.43385c0,32.20527 -11.88407,58.3128 -26.54382,58.3128c-14.65975,0 -26.54382,-26.10753 -26.54382,-58.3128c0,-32.20527 11.88407,-58.3128 26.54382,-58.3128c14.65975,0 26.54382,26.10753 26.54382,58.3128z" fill="#01930e" stroke-width="2"/><path d="M377.15521,71.38538c0,32.20527 32.42529,67.9271 17.76555,67.9271c-14.65974,0 -26.54382,-26.10753 -26.54382,-58.3128c0,-32.20527 8.77827,-41.81957 8.77827,-9.6143z" fill="#31525b" stroke-width="0"/></g><g data-paper-data="{&quot;index&quot;:null}" stroke="#000000" stroke-linecap="butt"><path d="M316.44531,344.13566v-90.27109h61.17899v90.27109z" fill="#273750" stroke-width="2"/><path d="M317.23265,343.37909v-90.27109l18.42709,49.31565l42.75189,40.95544z" fill="#1f1e2e" stroke-width="0"/></g><path d="M264.46059,253.45329v-113.80147h113.80147v113.80147z" data-paper-data="{&quot;index&quot;:null}" fill="#ff0008" stroke="#000000" stroke-width="2" stroke-linecap="butt"/><g data-paper-data="{&quot;index&quot;:null}" stroke="#000000" stroke-linecap="butt"><path d="M263.83936,344.58003v-90.27109h61.17899v90.27109z" fill="#273750" stroke-width="2"/><path d="M264.62674,343.82343v-90.27109l18.42709,49.31565l42.75189,40.95544z" fill="#1f1e2e" stroke-width="0"/></g><g data-paper-data="{&quot;index&quot;:null}" stroke="#000000" stroke-linecap="butt"><path d="M195.1657,233.94696l22.05273,-42.70222l45.31179,23.40039l-22.05273,42.70222z" fill="#ffcaa0" stroke-width="2"/><g><path d="M216.98726,191.32826l30.4083,-58.88168l45.90238,23.70539l-30.4083,58.88168z" fill="#ff0008" stroke-width="2"/><path d="M217.55044,191.85824l15.92697,-30.84048c0,0 7.1149,19.90163 14.73529,23.83703c7.22527,3.73135 29.8648,-0.80418 29.8648,-0.80418l-15.92697,30.84049c0,0 -14.66942,-7.57574 -22.06281,-11.39391c-7.47247,-3.85901 -22.53728,-11.63894 -22.53728,-11.63894z" fill="#8d005e" stroke-width="0"/></g><path d="M196.118,233.82613l22.05273,-42.70222l-3.32237,34.94585l26.58143,31.15676z" fill="#ff6e5b" stroke-width="0"/></g><g data-paper-data="{&quot;index&quot;:null}" fill="#000000" stroke="#000000" stroke-linecap="butt"><path d="M291.35367,252.98407v-111.68333h61.17899v111.68333z" stroke-width="2"/><path d="M292.14105,252.04804v-111.68333l18.42709,61.01328l42.75189,50.67005z" stroke-width="0"/></g><g data-paper-data="{&quot;index&quot;:null}" stroke="#000000" stroke-linecap="butt"><path d="M243.63442,79.86459c0,-1.37646 0.88696,-27.38008 0.98912,-28.73546c2.58143,-34.24932 36.46023,-36.73529 78.90464,-36.73529c39.86984,0 74.31045,4.54212 80.31266,35.83276c0.64046,3.33883 -0.4189,26.15173 -0.4189,29.63798c0,12.46114 2.98952,39.84953 -4.38487,49.76492c-14.02387,18.8561 -46.59108,15.70582 -75.50889,15.70582c-30.57536,0 -59.08782,0.98125 -72.51838,-19.6932c-5.95144,-9.1614 -7.37538,-34.67471 -7.37538,-45.77754z" fill="#ffcaa0" stroke-width="2"/><path d="M241.80106,79.87478c0,-1.37646 0.88696,-27.38008 0.98912,-28.73546c1.46665,-19.45883 6.86352,60.55627 54.65026,82.48122c37.44896,17.1819 103.38086,-8.07612 100.416,-4.08965c-14.02387,18.8561 -47.24381,15.81461 -76.16161,15.81461c-30.57536,0 -59.08782,0.98125 -72.51838,-19.6932c-5.95144,-9.1614 -7.37538,-34.67471 -7.37538,-45.77754z" fill="#ff6e5b" stroke-width="0"/></g><g data-paper-data="{&quot;index&quot;:null}" stroke="#000000" stroke-linecap="butt"><path d="M288.98679,79.35993c0,32.20527 -11.88407,58.3128 -26.54382,58.3128c-14.65975,0 -26.54382,-26.10753 -26.54382,-58.3128c0,-32.20527 11.88407,-58.3128 26.54382,-58.3128c14.65975,0 26.54382,26.10753 26.54382,58.3128z" fill="#01930e" stroke-width="2"/><path d="M245.07928,69.31147c0,32.20527 32.42529,67.9271 17.76555,67.9271c-14.65974,0 -26.54382,-26.10753 -26.54382,-58.3128c0,-32.20527 8.77827,-41.81957 8.77827,-9.6143z" fill="#31525b" stroke-width="0"/></g><g data-paper-data="{&quot;index&quot;:null}" stroke-linecap="butt"><path d="M419.82484,36.7114c0,14.42269 -41.36032,26.11459 -92.38086,26.11459c-51.02054,0 -92.38085,-11.69191 -92.38085,-26.11459c0,-14.42269 41.36031,-26.11458 92.38085,-26.11458c51.02054,0 92.38086,11.6919 92.38086,26.11459z" fill="#000000" stroke="none" stroke-width="NaN"/><path d="M419.09473,36.99256c0,14.42269 -41.36032,26.11459 -92.38086,26.11459c-51.02054,0 -92.38085,-11.69191 -92.38085,-26.11459c0,-14.42269 42.79284,7.22647 93.81338,7.22647c51.02054,0 90.94833,-21.64916 90.94833,-7.22647z" fill="#ff0000" stroke="#000000" stroke-width="2"/><path d="M413.70892,44.50318c0,3.969 -36.34648,19.17759 -87.36702,18.00772c-17.85411,-0.40938 -34.69662,-1.74205 -48.42942,-4.15429c-25.49507,-4.47835 -41.14666,-11.48721 -38.81909,-14.82706c2.40397,-3.44947 37.6605,13.78351 88.68104,13.78351c51.02054,0 85.93449,-16.77888 85.93449,-12.80988z" fill="#900056" stroke="#000000" stroke-width="0"/></g><path d="M349.91807,92.31786c0,15.71752 -2.90507,28.45909 -6.48867,28.45909c-3.5836,0 -6.48867,-12.74157 -6.48867,-28.45908c0,-15.71752 2.90508,-28.45908 6.48867,-28.45908c3.5836,0 6.48867,12.74157 6.48867,28.45909z" data-paper-data="{&quot;index&quot;:null}" fill="#000000" stroke="none" stroke-width="0" stroke-linecap="butt"/><path d="M376.20359,89.06805c0,15.65465 -2.75218,28.34525 -6.14716,28.34525c-3.39499,0 -6.14716,-12.6906 -6.14716,-28.34525c0,-15.65465 2.75218,-28.34525 6.14716,-28.34525c3.39499,0 6.14716,12.6906 6.14716,28.34525z" data-paper-data="{&quot;index&quot;:null}" fill="#000000" stroke="none" stroke-width="0" stroke-linecap="butt"/><path d="M353.05703,65.57618h-30" fill="none" stroke="#000000" stroke-width="5" stroke-linecap="round"/><path d="M385.97388,59.50513l-23.33333,4.52381" fill="none" stroke="#000000" stroke-width="5" stroke-linecap="round"/><path d="M304.95868,122.07366c0,-7.39773 5.99704,-13.39477 13.39477,-13.39477c7.39773,0 13.39477,5.99704 13.39477,13.39477c0,7.39773 -6.42568,4.39348 -13.8234,4.39348c-7.39773,0 -12.96614,3.00424 -12.96614,-4.39348z" fill="#000000" stroke="none" stroke-width="0" stroke-linecap="butt"/></g></g></svg>