<svg version="1.1" xmlns="http://www.w3.org/2000/svg" xmlns:xlink="http://www.w3.org/1999/xlink" width="110.37831" height="110.22817" viewBox="0,0,110.37831,110.22817"><g transform="translate(-263.469,-126.36381)"><g data-paper-data="{&quot;isPaintingLayer&quot;:true}" fill-rule="nonzero" stroke-linejoin="miter" stroke-miterlimit="10" stroke-dasharray="" stroke-dashoffset="0" style="mix-blend-mode: normal"><path d="M266.11914,185.42283c-2.17873,-29.05796 19.61119,-54.38029 48.66915,-56.55902c29.05796,-2.17873 54.38029,19.61119 56.55902,48.66915c2.17873,29.05796 -19.61119,54.38029 -48.66915,56.55902c-29.05796,2.17873 -54.38029,-19.61119 -56.55902,-48.66915z" fill="#001aff" stroke="#000000" stroke-width="5" stroke-linecap="butt"/><path d="M369.5358,163.402l-13.77146,15.30276l-13.05054,-15.45384l-21.37729,14.79197l-16.31332,-12.83084l-18.43168,13.70624l-15.26508,-16.15265" fill="none" stroke="#000000" stroke-width="5" stroke-linecap="round"/><path d="M312.69491,181.2477l-1.18338,28.48743" fill="none" stroke="#000000" stroke-width="7.5" stroke-linecap="round"/><path d="M327.11091,208.95334l1.40799,-27.95104" fill="none" stroke="#000000" stroke-width="7.5" stroke-linecap="round"/><path d="M288.03465,208.42048c-2.42038,-0.6259 -1.79448,-3.04629 -1.79448,-3.04629l0.85653,-3.05752c0.80504,-0.94762 1.4162,-2.10241 2.41511,-2.84287c1.06463,-0.78918 2.30615,-1.49795 3.62439,-1.63401c6.16279,-0.63604 8.87555,6.60284 7.65408,11.75477c-0.31545,1.33052 -1.18305,2.46566 -1.77459,3.6985c0,0 -1.11744,2.23636 -3.3538,1.11894c-2.23637,-1.11743 -1.11893,-3.35381 -1.11893,-3.35381c0.46107,-0.87378 1.10969,-1.672 1.38321,-2.62136c0.32934,-1.14316 -0.26548,-4.92193 -1.08223,-5.77235c-0.82875,-0.86291 -2.97496,1.56703 -3.31082,1.95832l-0.45216,2.00317c0,0 -0.6259,2.42038 -3.04629,1.79448z" fill="#000000" stroke="none" stroke-width="0.5" stroke-linecap="butt"/><path d="M298.73714,176.95368l20.47948,3.80031" fill="none" stroke="#000000" stroke-width="5" stroke-linecap="round"/><path d="M324.49483,180.54286l19.42383,-4.01144" fill="none" stroke="#000000" stroke-width="5" stroke-linecap="round"/></g></g></svg>