<svg version="1.1" xmlns="http://www.w3.org/2000/svg" xmlns:xlink="http://www.w3.org/1999/xlink" width="187.72188" height="330.09164" viewBox="0,0,187.72188,330.09164"><g transform="translate(-243.44682,-30.89577)"><g data-paper-data="{&quot;isPaintingLayer&quot;:true}" fill-rule="nonzero" stroke-linejoin="miter" stroke-miterlimit="10" stroke-dasharray="" stroke-dashoffset="0" style="mix-blend-mode: normal"><g data-paper-data="{&quot;index&quot;:null}" stroke="#000000" stroke-linecap="butt"><path d="M354.81828,215.47863c28.85839,-16.68868 37.70129,-12.83406 41.75194,-5.82959c4.05066,7.00447 -16.05999,26.21157 -44.91839,42.90026c-28.8584,16.68867 -14.65205,-54.11858 -18.70269,-61.12306c0.39253,-7.08338 6.41007,-4.55614 10.63836,2.06789c5.21447,8.16897 8.76409,23.41099 11.2308,21.98452z" fill="#216aff" stroke-width="2"/><path d="M370.44737,192.47684c12.38674,-7.16321 28.38456,-2.67027 35.73211,10.03526c7.34755,12.70553 3.26248,28.81233 -9.12428,35.97553c-12.38674,7.16321 -28.38456,2.67027 -35.73212,-10.03526c-7.34755,-12.70553 -3.26247,-28.81231 9.12428,-35.97553z" fill="#faddbf" stroke-width="2"/><path d="M380.2382,232.71844c12.38674,-7.16321 17.65367,-42.82461 25.00121,-30.11909c7.34755,12.70553 3.26248,28.81233 -9.12428,35.97553c-12.38674,7.16321 -28.26371,1.30676 -15.87694,-5.85645z" fill="#ef8b89" stroke-width="0"/></g><g stroke="#000000" stroke-linecap="butt"><path d="M327.76518,340.83535v-95.29492h29.49199v95.29492z" fill="#73fffc" stroke-width="2"/><path d="M327.43943,340.21742l1.32626,-93.78573c0,0 5.20288,68.11227 6.3799,77.52842c0.2602,2.08162 2.52228,2.78987 2.52228,2.78987l18.60659,13.13896z" fill="#59a9e6" stroke-width="0"/></g><g stroke="#000000" stroke-linecap="butt"><path d="M288.4238,338.4128v-95.29492h29.49199v95.29492z" fill="#73fffc" stroke-width="2"/><path d="M288.09805,337.7949l1.32626,-93.78573c0,0 5.20288,68.11227 6.3799,77.52842c0.2602,2.08162 2.52228,2.78987 2.52228,2.78987l18.60659,13.13896z" fill="#59a9e6" stroke-width="0"/></g><g stroke="#000000" stroke-linecap="butt"><path d="M355.22917,235.69588c0,13.80271 10.04743,36.74388 4.95001,46.45977c-6.2338,11.88187 -28.61241,9.09579 -38.9397,9.09579c-13.66287,0 -32.94407,4.17018 -38.34426,-14.83216c-2.01935,-7.10576 4.35457,-32.37264 4.35457,-40.7234c0,-30.68249 15.2177,-55.55556 33.98969,-55.55556c18.77199,0 33.98969,24.87307 33.98969,55.55556z" fill="#216aff" stroke-width="2"/><path d="M303.96554,251.27246c0,13.80271 62.04198,20.54886 56.94455,30.26474c-6.2338,11.88186 -28.61241,9.09579 -38.9397,9.09579c-13.66287,0 -32.94406,4.17018 -38.34425,-14.83215c-2.01936,-7.10576 4.35457,-32.37265 4.35457,-40.7234c0,-9.45244 3.34855,-28.59801 5.51953,-29.96813c5.94391,-16.76415 10.4653,25.13995 10.4653,46.16315z" fill="#3236f4" stroke-width="0"/></g><g stroke="#000000" stroke-linecap="butt"><g><path d="M246.85658,114.21611c2.87514,-46.70237 43.06566,-82.23135 89.76803,-79.35622c46.70237,2.87514 82.23136,43.06566 79.35623,89.76803c-2.87514,46.70237 -43.06566,82.23136 -89.76803,79.35623c-46.70237,-2.87514 -82.23136,-43.06566 -79.35623,-89.76803z" fill="#faddbf" stroke-width="2"/><path d="M247.14034,113.36242c0.92503,-15.02584 11.16092,-40.40171 15.85895,-43.33274c0.53653,-0.33474 6.323,-8.53789 14.242,-14.77962c9.84278,-7.75804 22.20576,-13.81805 22.80327,-13.58383c7.79568,3.05581 -21.47854,63.65542 -21.79596,88.97369c-0.00077,0.06037 3.18853,19.93517 4.77698,20.4727c2.58864,4.91081 7.9168,19.67701 18.3388,27.47228c19.42264,14.52739 47.6401,22.65026 46.12854,23.06388c-2.41796,0.66166 -14.9449,1.85422 -20.99635,1.48168c-46.70237,-2.87514 -82.23136,-43.06566 -79.35623,-89.76803z" fill="#ef8b89" stroke-width="0"/><path d="M415.48653,124.13841c-0.71428,11.60237 -2.53595,15.5142 -2.97318,13.63206c-0.44606,-1.92014 0.41669,-9.80655 -8.12535,-15.17721c-2.0699,-1.30141 -10.5726,5.63706 -13.21958,4.24363c-1.66261,-0.87523 -8.01054,-10.68795 -9.87907,-11.4803c-1.30643,-0.55399 -12.94136,7.59672 -14.31056,7.06092c-3.41486,-1.33629 -11.26698,-12.08872 -14.97067,-12.97598c-2.03951,-0.4886 -9.99339,11.25699 -12.08283,10.87402c-2.6946,-0.49388 -9.30803,-12.66431 -12.04025,-12.83251c-7.2661,-0.44732 -7.89643,6.53794 -13.49341,12.21096c-3.63705,3.68647 -13.15999,-13.88676 -16.55042,-9.65189c-4.21053,5.2592 -8.37005,10.3229 -12.82425,13.65513c-3.49448,2.61426 -12.71848,-10.89897 -15.74989,-8.46286c-14.63648,11.76221 -23.45001,19.23915 -22.33342,1.10165c2.24527,-36.4711 43.71053,-5.53809 86.73678,-24.45174c41.18429,-18.10396 84.06142,-4.21698 81.81614,32.25413z" fill="#ef8b89" stroke-width="0"/></g><path d="M417.52818,115.93747c-1.44297,23.43897 5.98383,9.10019 -11.39226,-1.56324c-2.12633,-1.30489 -10.84093,5.62053 -13.55963,4.2227c-1.70766,-0.87801 -8.23803,-10.70197 -10.15686,-11.4974c-1.34162,-0.55616 -13.26869,7.57657 -14.67467,7.03851c-3.50663,-1.34194 -11.58218,-12.10811 -15.38449,-13.00146c-2.09382,-0.49193 -10.23743,11.24196 -12.38233,10.85558c-2.7661,-0.49827 -9.57274,-12.68061 -12.37693,-12.85324c-7.4575,-0.4591 -8.09308,6.52582 -13.82777,12.19037c-3.72654,3.68096 -13.52776,-13.9094 -17.00032,-9.67958c-4.31251,5.25293 -8.57302,10.31041 -13.1387,13.63578c-3.58195,2.60888 -13.06984,-10.92061 -16.17685,-8.48915c-15.00156,11.73974 -24.0343,19.20318 -22.91771,1.06569c2.24527,-36.4711 44.78029,-78.65399 90.62035,-75.83194c45.84004,2.82205 84.6135,47.43629 82.36824,83.90739z" fill="#724e36" stroke-width="2"/><path d="M417.35237,114.76167c-1.44297,23.43897 5.98383,9.10019 -11.39227,-1.56323c-2.12633,-1.30489 -10.84093,5.62053 -13.55963,4.2227c-1.70766,-0.87801 -8.23803,-10.70197 -10.15687,-11.4974c-1.34162,-0.55616 -13.26869,7.57657 -14.67467,7.03851c-3.50663,-1.34194 -11.58218,-12.10811 -15.38449,-13.00146c-2.09382,-0.49193 -10.23743,11.24196 -12.38233,10.85558c-2.7661,-0.49827 -9.57274,-12.68061 -12.37693,-12.85325c-7.4575,-0.4591 -8.09309,6.52583 -13.82777,12.19038c-3.72654,3.68096 -13.52776,-13.9094 -17.00032,-9.67958c-4.31251,5.25293 -8.57301,10.31041 -13.13871,13.63578c-3.58195,2.60888 -13.06984,-10.92061 -16.17685,-8.48914c-15.00156,11.73974 -24.0343,19.20317 -22.91771,1.06569c2.24527,-36.4711 44.8486,-5.46802 88.97335,-24.31405c42.23578,-18.03922 86.26048,-4.0816 84.01522,32.3895z" fill="#623728" stroke-width="0"/></g><g stroke="#000000" stroke-linecap="butt"><path d="M366.30098,148.60829c-1.75485,28.50497 -15.80341,42.39853 -32.34064,41.38044c-16.53723,-1.01808 -29.30083,-16.56228 -27.54598,-45.06724c1.75485,-28.50497 16.58353,-50.78749 33.12075,-49.76942c16.53723,1.01808 28.52072,24.95124 26.76587,53.45622z" fill="#f0f0f0" stroke-width="2"/><path d="M320.83688,126.18991c-6.02928,27.91523 30.34653,64.02728 13.8093,63.0092c-16.53723,-1.01808 -29.30083,-16.56228 -27.54598,-45.06724c1.75485,-28.50497 22.45324,-58.29914 13.73669,-17.94196z" fill="#9a99ff" stroke-width="0"/></g><path d="M365.9042,156.58628c-0.97223,15.79232 -6.44042,28.3064 -12.21354,27.95098c-5.77312,-0.35541 -9.66504,-13.44572 -8.69281,-29.23804c0.97223,-15.79232 6.44042,-28.3064 12.21354,-27.95098c5.77312,0.35541 9.66504,13.44572 8.69281,29.23804z" fill="#000000" stroke="none" stroke-width="0" stroke-linecap="butt"/><g stroke="#000000" stroke-linecap="butt"><path d="M363.14668,118.32256c3.82244,10.48449 10.28483,28.46824 -5.39574,27.5029c-15.68058,-0.96535 -47.87508,-21.28437 -42.74804,-30.60217c4.87831,-8.86572 8.09304,-20.96125 23.77361,-19.9959c15.68058,0.96535 20.72733,13.1033 24.37017,23.09516z" fill="#a100fe" stroke-width="2"/><path d="M362.24593,117.91219c3.67068,10.47515 10.62168,28.77707 -4.52422,27.84464c-15.1459,-0.93243 -46.95007,-21.51553 -41.9777,-30.84285c4.73114,-8.87479 6.48673,1.3632 21.63263,2.29563c15.1459,0.93243 21.37108,-9.28039 24.86928,0.70256z" fill="#99008e" stroke-width="0"/></g><g data-paper-data="{&quot;index&quot;:null}" stroke="#000000" stroke-linecap="butt"><path d="M403.23223,97.59203c16.53723,1.01808 28.52073,24.95124 26.76588,53.45622c-1.75485,28.50496 -16.32874,42.36618 -32.86597,41.3481c-16.53723,-1.01808 -28.77552,-16.52993 -27.02066,-45.0349c1.75485,-28.50497 16.58353,-50.78749 33.12075,-49.76942z" fill="#f0f0f0" stroke-width="2"/><path d="M429.4143,150.18046c-1.75485,28.50496 -16.32874,42.36618 -32.86597,41.3481c-16.53723,-1.01808 23.99343,-32.39553 21.4338,-60.83953c-3.70047,-41.12162 13.18702,-9.01355 11.43217,19.49144z" fill="#9a99ff" stroke-width="0"/></g><path d="M420.97172,130.66015c5.77312,0.35541 9.66504,13.44573 8.69282,29.23804c-0.97223,15.79232 -6.44042,28.3064 -12.21354,27.95098c-5.77312,-0.35541 -9.66504,-13.44573 -8.69281,-29.23804c0.97223,-15.79232 6.44041,-28.3064 12.21354,-27.95098z" data-paper-data="{&quot;index&quot;:null}" fill="#000000" stroke="none" stroke-width="0" stroke-linecap="butt"/><g data-paper-data="{&quot;index&quot;:null}" stroke="#000000" stroke-linecap="butt"><path d="M376.95685,117.6913c4.84094,-9.46958 11.33845,-20.89683 27.01902,-19.93149c15.68058,0.96535 17.38737,13.36384 21.14135,22.761c3.94539,9.87632 -7.78782,13.80431 -23.46839,12.83897c-15.68058,-0.96535 -29.77162,-5.73201 -24.69199,-15.66847z" fill="#a100fe" stroke-width="2"/><path d="M377.90114,117.39452c4.69631,-9.47848 9.62176,1.42081 24.76766,2.35324c15.1459,0.93243 18.14404,-9.01291 21.75085,0.37519c3.79072,9.86679 -7.55215,13.81882 -22.69805,12.88639c-15.1459,-0.93243 -28.74832,-5.66901 -23.82047,-15.61481z" fill="#99008e" stroke-width="0"/></g><path d="M391.63632,338.87004c0,11.6628 -14.51982,21.11737 -32.43092,21.11737c-17.9111,0 -32.43092,-9.45457 -32.43092,-21.11737c0,-2.33142 -0.03339,-13.76009 1.08979,-15.13837c4.49546,-5.51647 17.81784,5.26144 32.14847,5.26144c17.9111,0 31.62358,-1.78588 31.62358,9.87692z" fill="#000082" stroke="#000000" stroke-width="2" stroke-linecap="butt"/><path d="M389.75004,336.13774c0,6.30841 -13.89058,10.1901 -31.80169,10.1901c-17.9111,0 -30.16566,-2.95748 -30.16566,-9.26589c0,-1.26107 -0.03338,-12.52602 1.0898,-13.27153c4.49546,-2.98386 15.55258,5.7726 29.88321,5.7726c17.9111,0 30.99434,0.26631 30.99434,6.57472z" fill="#2e0048" stroke="#000000" stroke-width="0" stroke-linecap="butt"/><path d="M348.64938,338.22521c0,11.6628 -14.51982,21.11737 -32.43092,21.11737c-17.9111,0 -32.43092,-9.45457 -32.43092,-21.11737c0,-2.33142 -0.03339,-13.76009 1.08979,-15.13837c4.49546,-5.51647 17.81784,5.26144 32.14847,5.26144c17.9111,0 31.62358,-1.78588 31.62358,9.87692z" fill="#000082" stroke="#000000" stroke-width="2" stroke-linecap="butt"/><path d="M346.7631,335.49289c0,6.30841 -13.89058,10.1901 -31.80169,10.1901c-17.9111,0 -30.16566,-2.95748 -30.16566,-9.26589c0,-1.26107 -0.03338,-12.52602 1.0898,-13.27153c4.49546,-2.98386 15.55258,5.7726 29.88321,5.7726c17.9111,0 30.99434,0.26631 30.99434,6.57472z" fill="#2e0048" stroke="#000000" stroke-width="0" stroke-linecap="butt"/><g><path d="M309.49187,260.09874c-15.03811,-1.21579 -23.20976,-9.48828 -22.7014,-24.41649c0.39756,-11.67548 13.99919,-23.63457 29.03733,-22.41879c15.03819,1.21577 25.17689,11.81625 23.97326,26.70452c-0.18822,2.32824 -1.05293,4.42108 -1.82482,6.33995c-4.16419,10.35134 -15.79791,14.81647 -28.48435,13.79081z" fill="#485e84" stroke="#000000" stroke-width="2" stroke-linecap="butt"/><path d="M302.66319,217.29804c0,0 -0.90228,5.68479 0.59991,7.01024c14.40928,12.71403 28.28487,14.87879 32.9288,15.24454c1.05509,0.0831 1.70683,-0.83127 1.70683,-0.83127c0,0 0.05187,2.11315 -0.75521,4.73282c-0.8588,2.78755 -2.64235,6.15248 -4.85238,8.28811c-2.52449,2.43947 -9.81008,6.49272 -9.81008,6.49272l-20.88858,1.58914c0,0 -9.5661,-9.45751 -10.48752,-11.41912c-0.9027,-1.92172 -1.41969,-4.45459 -2.07776,-7.12552c-1.02173,-4.14701 -0.5092,-8.65745 0.6077,-11.31213c1.42545,-3.38797 4.5222,-6.87538 7.51127,-9.2477c2.78189,-2.20787 5.51703,-3.4217 5.51703,-3.4217z" fill="#343545" stroke="none" stroke-width="0" stroke-linecap="butt"/><path d="M303.05517,241.73195c0,0 -1.15174,-8.94828 1.43876,-13.40579c3.27929,-5.64276 12.66159,-14.59121 12.66159,-14.59121" fill="none" stroke="#000000" stroke-width="1" stroke-linecap="round"/><path d="M338.72857,232.96126c0,0 -2.06583,6.8456 -4.25365,10.54494c-2.20868,3.73469 -9.77513,9.80936 -9.77513,9.80936" fill="none" stroke="#000000" stroke-width="1" stroke-linecap="round"/><path d="M292.31295,243.95929c0,0 -1.31946,-9.16762 1.70629,-13.86801c4.64293,-7.21258 12.69201,-15.56172 12.69201,-15.56172" fill="none" stroke="#000000" stroke-width="1" stroke-linecap="round"/><path d="M289.33649,228.96803c0,0 14.52176,-9.41243 30.70742,-2.96512c17.72935,7.0622 16.01403,24.22462 16.01403,24.22462" fill="none" stroke="#000000" stroke-width="1" stroke-linecap="round"/><path d="M287.30943,238.27373c0,0 16.32654,-7.09269 30.62133,-1.43418c11.73732,4.64617 11.64475,19.23762 11.64475,19.23762" fill="none" stroke="#000000" stroke-width="1" stroke-linecap="round"/><path d="M328.10259,222.5593c-0.97131,-0.70976 -1.30315,-1.90847 -0.74128,-2.67737c0.56184,-0.76897 1.21809,-0.31804 2.18939,0.39172c0.97131,0.70976 1.88981,1.40957 1.32794,2.1785c-0.56184,0.76897 -1.80477,0.81691 -2.77603,0.10715z" fill="#8fbbbe" stroke="none" stroke-width="0" stroke-linecap="butt"/><path d="M333.33398,227.60821c-0.59953,-0.04848 -1.02661,-0.81677 -0.9539,-1.71606c0.0727,-0.89929 0.22654,-1.25643 0.82607,-1.20798c0.59953,0.04848 1.20755,0.83139 1.1348,1.73068c-0.0727,0.89929 -0.40749,1.24181 -1.00699,1.19333z" fill="#8fbbbe" stroke="none" stroke-width="0" stroke-linecap="butt"/><path d="M322.47888,218.52969c-0.88646,-0.16814 -1.51415,-0.78342 -1.40209,-1.37436c0.11202,-0.59091 0.87761,-0.39096 1.76404,-0.22288c0.88646,0.16814 1.55803,0.24062 1.44598,0.83158c-0.11202,0.59091 -0.92152,0.93375 -1.80795,0.76564z" fill="#8fbbbe" stroke="none" stroke-width="0" stroke-linecap="butt"/><path d="M298.67366,219.34292c0,0 9.91358,-2.52995 17.42838,-1.55657c4.26052,0.55188 7.82504,2.50905 10.51085,4.02318c2.37521,1.33897 6.37958,6.55344 9.02925,10.86362c1.95081,3.17333 2.99487,5.92595 2.99487,5.92595" fill="none" stroke="#000000" stroke-width="0.5" stroke-linecap="round"/><path d="M332.87741,219.7408c0,0 -1.2565,10.49758 -3.81669,15.25811c-2.157,4.01086 -10.18129,11.47241 -10.18129,11.47241" fill="none" stroke="#000000" stroke-width="1" stroke-linecap="round"/><path d="M313.40246,244.38955c0,0 1.25579,-9.5839 2.95417,-13.77512c2.98201,-7.35897 10.78431,-14.25108 10.78431,-14.25108" fill="none" stroke="#000000" stroke-width="1" stroke-linecap="round"/></g><g stroke="#000000" stroke-linecap="butt"><path d="M289.7744,242.10464c30.85035,12.63229 33.20679,21.98656 30.14071,29.47451c-3.0661,7.48796 -30.5608,3.31764 -61.41115,-9.31466c-30.85034,-12.63229 33.86621,-44.68314 36.93231,-52.1711c5.84515,-4.02025 7.52452,2.28667 4.86809,9.68257c-3.27599,9.12089 -13.1669,21.2489 -10.52994,22.32867z" fill="#216aff" stroke-width="2"/><path d="M317.53181,240.40849c13.24175,5.42209 19.46772,20.8284 13.90608,34.41091c-5.56164,13.58253 -20.8048,20.19787 -34.04656,14.77577c-13.24175,-5.42209 -19.46772,-20.82841 -13.90607,-34.41093c5.56164,-13.58253 20.80481,-20.19785 34.04655,-14.77577z" fill="#faddbf" stroke-width="2"/><path d="M291.67442,272.76035c13.24175,5.42209 44.68128,-12.21398 39.11965,1.36855c-5.56164,13.58253 -20.8048,20.19787 -34.04655,14.77577c-13.24175,-5.42209 -18.31486,-21.56642 -5.0731,-16.14432z" fill="#ef8b89" stroke-width="0"/></g><path d="M294.75216,186.64629c0,-4.69393 3.80518,-8.49911 8.49911,-8.49911c4.69393,0 8.49911,3.80518 8.49911,8.49911c0,4.69393 -3.80518,8.49911 -8.49911,8.49911c-4.69393,0 -8.49911,-3.80518 -8.49911,-8.49911z" fill="#000000" stroke="none" stroke-width="0" stroke-linecap="butt"/></g></g></svg>