<svg version="1.1" xmlns="http://www.w3.org/2000/svg" xmlns:xlink="http://www.w3.org/1999/xlink" width="192.28731" height="323.1594" viewBox="0,0,192.28731,323.1594"><g transform="translate(-251.02179,-21.6923)"><g data-paper-data="{&quot;isPaintingLayer&quot;:true}" fill-rule="nonzero" stroke-linecap="butt" stroke-linejoin="miter" stroke-miterlimit="10" stroke-dasharray="" stroke-dashoffset="0" style="mix-blend-mode: normal"><g data-paper-data="{&quot;index&quot;:null}" stroke="#000000"><path d="M395.7797,268.17473l-20.3502,-43.53931l46.20004,-21.59382l20.35021,43.5393z" fill="#ffcaa0" stroke-width="2"/><g><path d="M375.35448,224.86949l-28.0607,-60.03593l46.80221,-21.87528l28.0607,60.03593z" fill="#0000c0" stroke-width="2"/><path d="M376.11808,224.74712l-14.69736,-31.44504c0,0 20.10494,6.51827 27.87472,2.88669c7.36691,-3.44328 17.59967,-24.14136 17.59967,-24.14136l14.69736,31.44506c0,0 -14.95699,6.99088 -22.49531,10.51428c-7.61895,3.56109 -22.97908,10.74039 -22.97908,10.74039z" fill="#56006b" stroke-width="0"/></g><path d="M396.26552,267.3468l-20.3502,-43.5393l25.64527,23.9702l40.90497,-2.02472z" fill="#ff6e5b" stroke-width="0"/></g><g data-paper-data="{&quot;index&quot;:null}" stroke="#000000"><path d="M441.21687,85.72309c2.5528,32.10393 -7.22443,59.07132 -21.83805,60.23335c-14.61362,1.16203 -28.52975,-23.92135 -31.08255,-56.02528c-2.5528,-32.10393 7.22443,-59.07132 21.83805,-60.23335c14.61362,-1.16203 28.52975,23.92135 31.08255,56.02528z" fill="#01930e" stroke-width="2"/><path d="M396.65101,79.18663c2.5528,32.10393 37.7076,65.14313 23.09399,66.30515c-14.61361,1.16203 -28.52975,-23.92135 -31.08255,-56.02528c-2.5528,-32.10393 5.43576,-42.38381 7.98856,-10.27987z" fill="#31525b" stroke-width="0"/></g><path d="M271.03703,252.18617l10.16124,-113.34693l113.34692,10.16124l-10.16124,113.34692z" data-paper-data="{&quot;index&quot;:null}" fill="#0000c0" stroke="#000000" stroke-width="2"/><g data-paper-data="{&quot;index&quot;:null}" stroke="#000000"><path d="M307.60112,341.58837l17.81079,-93.87475l59.97636,12.80439l-15.18513,82.62194z" fill="#273750" stroke-width="2"/><path d="M308.52225,340.96637l17.81079,-93.87476l8.33472,55.14104l34.95613,41.41058z" fill="#1f1e2e" stroke-width="0"/></g><g data-paper-data="{&quot;index&quot;:null}" stroke="#000000"><path d="M264.94385,343.41845l8.80854,-106.25285l59.97636,12.8044l-17.81079,93.87476z" fill="#273750" stroke-width="2"/><path d="M265.86503,342.79645l8.80854,-106.25285l8.33472,55.14103l33.83085,51.53812z" fill="#1f1e2e" stroke-width="0"/></g><g data-paper-data="{&quot;index&quot;:null}" stroke="#000000"><path d="M297.86459,254.12009l9.97213,-111.23724l60.93462,5.46263l-9.97212,111.23724z" fill="#ffffff" stroke-width="2"/><path d="M298.7324,253.2581l9.97212,-111.23724l12.90566,62.41492l38.05684,54.28495z" fill="#8ebbfc" stroke-width="0"/></g><g data-paper-data="{&quot;index&quot;:null}" stroke="#000000"><path d="M280.24363,262.00591l-5.09833,-47.78921l50.70966,-5.4099l5.09832,47.78922z" fill="#ffcaa0" stroke-width="2"/><g><path d="M274.99829,214.41369l-7.03004,-65.8961l51.37062,-5.4804l7.03004,65.8961z" fill="#0000c0" stroke-width="2"/><path d="M275.76021,214.54609l-3.68213,-34.51442c0,0 16.89592,12.69742 25.42411,11.78759c8.08599,-0.86265 24.48908,-17.11252 24.48908,-17.11252l3.68212,34.51444c0,0 -16.41695,1.75142 -24.6911,2.63414c-8.36264,0.89216 -25.22209,2.69079 -25.22209,2.69079z" fill="#56006b" stroke-width="0"/></g><path d="M280.9721,261.38078l-5.09832,-47.78922l16.46481,31.00258l39.34319,11.37673z" fill="#ff6e5b" stroke-width="0"/></g><g data-paper-data="{&quot;index&quot;:null}" stroke="#000000"><path d="M264.22246,98.22288c-0.10911,-1.37213 -1.28615,-27.36423 -1.29175,-28.72345c-0.14151,-34.34617 33.43363,-39.50977 75.74449,-42.87419c39.74439,-3.16034 74.43667,-1.3625 82.90029,29.35391c0.9031,3.27756 1.65537,26.10265 1.93172,29.57793c0.98775,12.42193 6.13884,39.48717 -0.42638,49.95591c-12.48509,19.90839 -45.19953,19.34951 -74.02635,21.64172c-30.47915,2.4236 -58.82412,5.66184 -73.85121,-13.88296c-6.65891,-8.66082 -10.10071,-33.98098 -10.9808,-45.04888z" fill="#ffcaa0" stroke-width="2"/><path d="M262.39567,98.37836c-0.10911,-1.37213 -1.28615,-27.36423 -1.29175,-28.72345c-0.0804,-19.51386 11.642,59.82168 61.0163,77.88976c38.69307,14.15939 102.4154,-16.24534 99.77587,-12.0364c-12.48509,19.90839 -45.84159,19.5097 -74.6684,21.80191c-30.47915,2.4236 -58.82412,5.66184 -73.85121,-13.88296c-6.65891,-8.66082 -10.10071,-33.98098 -10.9808,-45.04888z" fill="#ff6e5b" stroke-width="0"/></g><g data-paper-data="{&quot;index&quot;:null}" stroke="#000000"><path d="M309.39213,94.12489c2.5528,32.10393 -7.22443,59.07132 -21.83805,60.23335c-14.61362,1.16203 -28.52975,-23.92135 -31.08255,-56.02528c-2.5528,-32.10393 7.22443,-59.07132 21.83805,-60.23335c14.61362,-1.16203 28.52975,23.92135 31.08255,56.02528z" fill="#01930e" stroke-width="2"/><path d="M264.82627,87.58843c2.5528,32.10393 37.7076,65.14313 23.09399,66.30515c-14.61361,1.16203 -28.52975,-23.92135 -31.08255,-56.02528c-2.5528,-32.10393 5.43576,-42.38381 7.98856,-10.27987z" fill="#31525b" stroke-width="0"/></g><g data-paper-data="{&quot;index&quot;:null}"><path d="M436.90267,47.08443c1.39992,17.60539 -38.6954,35.15586 -89.5554,39.20007c-50.86,4.04422 -93.22503,-6.94929 -94.62495,-24.55467c-1.39992,-17.60539 38.69539,-35.15585 89.55539,-39.20006c50.86,-4.04422 93.22504,6.94928 94.62496,24.55467z" fill="#000000" stroke="none" stroke-width="NaN"/><path d="M436.20214,47.48551c1.39992,17.60539 -38.6954,35.15586 -89.5554,39.20007c-50.86,4.04422 -93.22503,-6.94929 -94.62495,-24.55467c-1.39992,-17.60539 43.35962,5.42912 94.21962,1.3849c50.86,-4.04422 88.56081,-33.6357 89.96073,-16.03031z" fill="#ff0000" stroke="#000000" stroke-width="2"/><path d="M431.56229,57.08044c0.38525,4.84485 -34.37066,26.29062 -85.34422,28.90681c-17.83767,0.91551 -34.75654,0.62381 -48.68027,-1.23219c-25.84953,-3.44569 -42.13218,-10.76057 -40.13612,-15.02194c2.06159,-4.40122 38.87988,13.83994 89.73988,9.79572c50.86,-4.04422 84.03547,-27.29324 84.42072,-22.4484z" fill="#900056" stroke="#000000" stroke-width="0"/></g><path d="M371.60162,114.54176c1.24587,15.66806 -0.64008,28.59982 -4.2124,28.88388c-3.57232,0.28406 -7.47823,-12.18714 -8.7241,-27.8552c-1.24587,-15.66806 0.64009,-28.59981 4.2124,-28.88387c3.57232,-0.28406 7.47823,12.18714 8.7241,27.85521z" data-paper-data="{&quot;index&quot;:null}" fill="#000000" stroke="none" stroke-width="0"/><path d="M396.92766,108.19266c1.24089,15.60539 -0.49669,28.47422 -3.88099,28.74332c-3.38431,0.26911 -7.13376,-12.1634 -8.37465,-27.7688c-1.24089,-15.60539 0.49669,-28.47422 3.88099,-28.74332c3.38431,-0.26911 7.13376,12.1634 8.37465,27.7688z" data-paper-data="{&quot;index&quot;:null}" fill="#000000" stroke="none" stroke-width="0"/><path d="M327.46437,142.33687c-0.55686,-7.00305 4.16974,-2.94906 11.17278,-3.50592c7.00305,-0.55686 13.63063,-5.51369 14.18749,1.48935c0.55686,7.00305 -4.66881,13.13156 -11.67185,13.68842c-7.00305,0.55686 -13.13156,-4.66881 -13.68842,-11.67185z" fill="#000000" stroke="none" stroke-width="0"/></g></g></svg>