<svg version="1.1" xmlns="http://www.w3.org/2000/svg" xmlns:xlink="http://www.w3.org/1999/xlink" width="231.91135" height="325.36092" viewBox="0,0,231.91135,325.36092"><g transform="translate(-202.53214,-35.62649)"><g data-paper-data="{&quot;isPaintingLayer&quot;:true}" fill-rule="nonzero" stroke-linecap="butt" stroke-linejoin="miter" stroke-miterlimit="10" stroke-dasharray="" stroke-dashoffset="0" style="mix-blend-mode: normal"><g data-paper-data="{&quot;index&quot;:null}" stroke="#000000"><path d="M350.23846,228.75236c1.7149,-2.27565 -12.98461,-7.64627 -20.46143,-13.8123c-6.06277,-4.99988 -7.84213,-11.27934 -0.76339,-10.81055c6.46195,4.86966 78.46897,-0.65092 58.40598,25.97229c-20.063,26.62321 -41.56572,44.25795 -48.02767,39.38828c-6.46195,-4.86966 -9.2165,-14.11453 10.8465,-40.73773z" fill="#216aff" stroke-width="2"/><path d="M362.32825,236.78149c11.72144,8.83317 14.24251,25.25757 5.63096,36.68492c-8.61155,11.42735 -25.0947,13.53035 -36.81614,4.69718c-11.72144,-8.83317 -14.2425,-25.25756 -5.63095,-36.68491c8.61155,-11.42735 25.09469,-13.53036 36.81613,-4.69719z" fill="#faddbf" stroke-width="2"/><path d="M368.15975,272.54383c-8.61154,11.42736 -25.09469,13.53036 -36.81613,4.69719c-11.72144,-8.83317 24.31541,-9.73949 32.92696,-21.16684c8.61155,-11.42737 12.50072,5.0423 3.88917,16.46965z" fill="#ef8b89" stroke-width="0"/></g><g stroke="#000000"><path d="M327.76518,340.83535v-95.29492h29.49199v95.29492z" fill="#73fffc" stroke-width="2"/><path d="M327.43943,340.21742l1.32626,-93.78573c0,0 5.20288,68.11227 6.3799,77.52842c0.2602,2.08162 2.52228,2.78987 2.52228,2.78987l18.60659,13.13896z" fill="#59a9e6" stroke-width="0"/></g><g stroke="#000000"><path d="M288.4238,338.4128v-95.29492h29.49199v95.29492z" fill="#73fffc" stroke-width="2"/><path d="M288.09805,337.7949l1.32626,-93.78573c0,0 5.20288,68.11227 6.3799,77.52842c0.2602,2.08162 2.52228,2.78987 2.52228,2.78987l18.60659,13.13896z" fill="#59a9e6" stroke-width="0"/></g><g stroke="#000000"><path d="M355.22917,235.69588c0,13.80271 10.04743,36.74388 4.95001,46.45977c-6.2338,11.88187 -28.61241,9.09579 -38.9397,9.09579c-13.66287,0 -32.94407,4.17018 -38.34426,-14.83216c-2.01935,-7.10576 4.35457,-32.37264 4.35457,-40.7234c0,-30.68249 15.2177,-55.55556 33.98969,-55.55556c18.77199,0 33.98969,24.87307 33.98969,55.55556z" fill="#216aff" stroke-width="2"/><path d="M303.96554,251.27246c0,13.80271 62.04198,20.54886 56.94455,30.26474c-6.2338,11.88186 -28.61241,9.09579 -38.9397,9.09579c-13.66287,0 -32.94406,4.17018 -38.34425,-14.83215c-2.01936,-7.10576 4.35457,-32.37265 4.35457,-40.7234c0,-9.45244 3.34855,-28.59801 5.51953,-29.96813c5.94391,-16.76415 10.4653,25.13995 10.4653,46.16315z" fill="#3236f4" stroke-width="0"/></g><g stroke="#000000"><g><path d="M239.55475,120.29559c2.12344,-46.74258 41.73717,-82.91355 88.47975,-80.79011c46.74258,2.12344 82.91355,41.73717 80.79011,88.47975c-2.12344,46.74258 -41.73717,82.91355 -88.47975,80.79011c-46.74258,-2.12344 -82.91355,-41.73717 -80.79011,-88.47975z" fill="#faddbf" stroke-width="2"/><path d="M239.82474,119.43745c0.68319,-15.03877 10.50951,-40.57604 15.15977,-43.58227c0.53107,-0.34332 6.18482,-8.63851 14.00239,-15.00683c9.7167,-7.91539 21.98059,-14.1735 22.58179,-13.94893c7.84383,2.92999 -20.4517,63.99272 -20.36176,89.31282c0.00021,0.06038 3.50882,19.8813 5.10572,20.39321c2.66731,4.86853 8.23233,19.5471 18.77839,27.1737c19.65384,14.21304 47.99832,21.88091 46.49361,22.3188c-2.407,0.70047 -14.91312,2.09441 -20.96979,1.81926c-46.74258,-2.12344 -82.91355,-41.73717 -80.79011,-88.47975z" fill="#ef8b89" stroke-width="0"/><path d="M408.32251,127.50375c-0.52753,11.61236 -2.28604,15.55299 -2.75349,13.67812c-0.47689,-1.91271 0.25887,-9.81198 -8.36846,-15.04452c-2.09057,-1.26795 -10.48054,5.80641 -13.14961,4.45575c-1.67648,-0.84838 -8.18145,-10.5577 -10.06248,-11.31988c-1.31518,-0.5329 -12.81747,7.80393 -14.19512,7.29024c-3.43592,-1.28119 -11.46001,-11.90589 -15.17749,-12.73346c-2.04711,-0.45572 -9.811,11.41629 -11.90632,11.067c-2.70219,-0.45046 -9.51056,-12.51293 -12.24513,-12.63715c-7.27235,-0.33037 -7.79023,6.66412 -13.29523,12.42646c-3.57728,3.74451 -13.38169,-13.67325 -16.70356,-9.38438c-4.12537,5.32626 -8.20289,10.45622 -12.60291,13.85968c-3.45197,2.67015 -12.89218,-10.69295 -15.88401,-8.20839c-14.44536,11.99616 -23.13748,19.61391 -22.31281,1.46081c1.65825,-36.5025 43.61578,-6.24057 86.33218,-25.84397c40.88771,-18.76418 83.98269,-5.56879 82.32445,30.93372z" fill="#ef8b89" stroke-width="0"/></g><path d="M410.23196,119.27103c-1.06571,23.45915 6.12946,9.00275 -11.41594,-1.37975c-2.14704,-1.27052 -10.7491,5.79421 -13.48995,4.44029c-1.72156,-0.85042 -8.40912,-10.56805 -10.34051,-11.33251c-1.35039,-0.5345 -13.14508,7.78905 -14.55955,7.27368c-3.52776,-1.28536 -11.77546,-11.92022 -15.59166,-12.75227c-2.10146,-0.45819 -10.05525,11.4052 -12.20608,11.05338c-2.77376,-0.45371 -9.77551,-12.52496 -12.58211,-12.65246c-7.46391,-0.33907 -7.98705,6.65518 -13.62987,12.41125c-3.66684,3.74044 -13.74977,-13.68997 -17.15385,-9.40484c-4.22745,5.32162 -8.40603,10.447 -12.91763,13.84538c-3.53952,2.66617 -13.24384,-10.70893 -16.31134,-8.2278c-14.81075,11.97956 -23.72226,19.58735 -22.8976,1.43424c1.65825,-36.5025 43.50913,-79.36423 89.38866,-77.28c45.87951,2.08423 85.36569,46.06891 83.70745,82.57142z" fill="#724e36" stroke-width="2"/><path d="M410.03725,118.0982c-1.06571,23.45915 6.12946,9.00275 -11.41594,-1.37975c-2.14704,-1.27052 -10.7491,5.79421 -13.48995,4.44029c-1.72156,-0.85042 -8.40912,-10.56805 -10.34052,-11.33251c-1.35039,-0.5345 -13.14508,7.78905 -14.55955,7.27368c-3.52776,-1.28536 -11.77546,-11.92022 -15.59166,-12.75227c-2.10146,-0.45819 -10.05525,11.4052 -12.20608,11.05338c-2.77376,-0.45371 -9.77551,-12.52496 -12.58211,-12.65246c-7.46391,-0.33907 -7.98705,6.65518 -13.62987,12.41125c-3.66684,3.74044 -13.74977,-13.68997 -17.15385,-9.40484c-4.22745,5.32162 -8.40603,10.447 -12.91764,13.84538c-3.53952,2.66617 -13.24384,-10.70893 -16.31134,-8.2278c-14.81075,11.97956 -23.72226,19.58735 -22.8976,1.43424c1.65825,-36.5025 44.75483,-6.18883 88.57068,-25.74228c41.9401,-18.71637 86.18365,-5.4688 84.52541,31.0337z" fill="#623728" stroke-width="0"/></g><g stroke="#000000"><path d="M341.96605,147.87394c-1.29605,28.52952 -15.11927,42.64727 -31.67074,41.89537c-16.55147,-0.7519 -29.56349,-16.08875 -28.26744,-44.61826c1.29605,-28.52952 15.76432,-51.04771 32.31579,-50.29581c16.55147,0.7519 28.91844,24.48918 27.62239,53.0187z" fill="#f0f0f0" stroke-width="2"/><path d="M296.14717,126.18987c-5.57941,28.00862 31.37265,63.53079 14.82118,62.77889c-16.55147,-0.7519 -29.56349,-16.08875 -28.26744,-44.61826c1.29605,-28.52952 21.51244,-58.65282 13.44626,-18.16063z" fill="#9a99ff" stroke-width="0"/></g><path d="M337.702,155.92198c-0.71804,15.80591 -5.9842,28.40634 -11.7623,28.14386c-5.7781,-0.26249 -9.8801,-13.2885 -9.16206,-29.09441c0.71804,-15.80591 5.9842,-28.40634 11.7623,-28.14386c5.7781,0.26249 9.8801,13.2885 9.16206,29.09441z" fill="#000000" stroke="none" stroke-width="0"/><g stroke="#000000"><path d="M338.32493,117.64288c3.99062,10.42165 -10.52851,13.65789 -26.22259,12.94494c-15.69407,-0.71295 -26.94131,-5.87022 -21.96483,-15.26929c4.73505,-8.94306 7.75477,-21.08872 23.44884,-20.37577c15.69407,0.71295 20.93545,12.76815 24.73856,22.70011z" fill="#a100fe" stroke-width="2"/><path d="M337.41769,117.24705c3.83872,10.41475 -10.19137,13.67321 -25.35032,12.98456c-15.15895,-0.68864 -26.01549,-5.82817 -21.19382,-15.23426c4.58775,-8.94975 6.50781,1.25866 21.66676,1.94731c15.15895,0.68864 21.21902,-9.623 24.87737,0.30238z" fill="#99008e" stroke-width="0"/></g><g data-paper-data="{&quot;index&quot;:null}" stroke="#000000"><path d="M378.07179,96.27015c16.55147,0.7519 28.91844,24.48918 27.62239,53.0187c-1.29605,28.52951 -15.64505,42.62339 -32.19652,41.87148c-16.55147,-0.7519 -29.03771,-16.06486 -27.74166,-44.59437c1.29605,-28.52952 15.76432,-51.04771 32.31579,-50.29581z" fill="#f0f0f0" stroke-width="2"/><path d="M405.09649,148.43057c-1.29605,28.52951 -15.64505,42.62339 -32.19652,41.87148c-16.55147,-0.7519 23.46916,-32.77733 20.45226,-61.17647c-4.36155,-41.05676 13.04031,-9.22453 11.74426,19.30499z" fill="#9a99ff" stroke-width="0"/></g><path d="M392.30366,129.55262c5.7781,0.26249 9.8801,13.2885 9.16206,29.09441c-0.71804,15.80591 -5.9842,28.40634 -11.7623,28.14386c-5.7781,-0.26249 -9.8801,-13.2885 -9.16206,-29.09441c0.71804,-15.80591 5.9842,-28.40634 11.7623,-28.14386z" data-paper-data="{&quot;index&quot;:null}" fill="#000000" stroke="none" stroke-width="0"/><g data-paper-data="{&quot;index&quot;:null}" stroke="#000000"><path d="M352.12316,116.78952c4.68797,-9.54623 11.0008,-21.07653 26.69487,-20.36358c15.69407,0.71295 17.60011,13.08239 21.5048,22.41794c4.10377,9.81156 -7.56474,13.92781 -23.25881,13.21486c-15.69407,-0.71295 -29.85998,-5.25231 -24.94087,-15.2692z" fill="#a100fe" stroke-width="2"/><path d="M353.06256,116.47759c4.54321,-9.5528 9.64337,1.26583 24.80232,1.95448c15.15895,0.68864 17.99669,-9.30363 21.75408,0.02523c3.94896,9.80453 -7.32886,13.93853 -22.48781,13.24988c-15.15895,-0.68864 -28.8358,-5.20578 -24.0686,-15.22958z" fill="#99008e" stroke-width="0"/></g><path d="M391.63632,338.87004c0,11.6628 -14.51982,21.11737 -32.43092,21.11737c-17.9111,0 -32.43092,-9.45457 -32.43092,-21.11737c0,-2.33142 -0.03339,-13.76009 1.08979,-15.13837c4.49546,-5.51647 17.81784,5.26144 32.14847,5.26144c17.9111,0 31.62358,-1.78588 31.62358,9.87692z" fill="#000082" stroke="#000000" stroke-width="2"/><path d="M389.75004,336.13774c0,6.30841 -13.89058,10.1901 -31.80169,10.1901c-17.9111,0 -30.16566,-2.95748 -30.16566,-9.26589c0,-1.26107 -0.03338,-12.52602 1.0898,-13.27153c4.49546,-2.98386 15.55258,5.7726 29.88321,5.7726c17.9111,0 30.99434,0.26631 30.99434,6.57472z" fill="#2e0048" stroke="#000000" stroke-width="0"/><path d="M348.64938,338.22521c0,11.6628 -14.51982,21.11737 -32.43092,21.11737c-17.9111,0 -32.43092,-9.45457 -32.43092,-21.11737c0,-2.33142 -0.03339,-13.76009 1.08979,-15.13837c4.49546,-5.51647 17.81784,5.26144 32.14847,5.26144c17.9111,0 31.62358,-1.78588 31.62358,9.87692z" fill="#000082" stroke="#000000" stroke-width="2"/><path d="M346.7631,335.49289c0,6.30841 -13.89058,10.1901 -31.80169,10.1901c-17.9111,0 -30.16566,-2.95748 -30.16566,-9.26589c0,-1.26107 -0.03338,-12.52602 1.0898,-13.27153c4.49546,-2.98386 15.55258,5.7726 29.88321,5.7726c17.9111,0 30.99434,0.26631 30.99434,6.57472z" fill="#2e0048" stroke="#000000" stroke-width="0"/><path d="M283.4241,175.27213c0.84287,0.92308 -0.08022,1.76595 -0.08022,1.76595l-0.10741,0.01122c-1.39344,2.49461 -2.66429,5.24118 -5.48264,6.46456c-2.9219,1.26833 -6.71895,0.0873 -7.25124,-3.28378c-0.71375,-4.5203 3.78845,-8.76638 5.99409,-12.18563c0,0 0.67818,-1.05002 1.72821,-0.37183c1.05002,0.67819 0.37184,1.72822 0.37184,1.72822c-1.86421,2.88286 -6.02678,6.6999 -5.61656,10.49528c0.18333,1.69619 2.49657,1.91688 3.80277,1.31398c2.22295,-1.02607 3.16421,-3.39533 4.27048,-5.37915l0.60472,-0.63903c0,0 0.92308,-0.84286 1.76594,0.08022z" fill="#000000" stroke="none" stroke-width="0.5"/><g stroke="none" stroke-width="1"><path d="M429.94617,267.77652c-2.77347,0.81703 -5.66458,1.56377 -8.41372,2.475c-6.71063,2.13579 -13.51457,4.29547 -20.22526,6.43107c-5.33609,1.68008 -10.76542,3.38426 -16.10152,5.06434c-9.01784,2.83219 -18.03568,5.66438 -27.02915,8.59094c-7.08372,2.23195 -14.04982,4.5342 -21.10911,6.86072c-5.96458,1.94289 -12.04676,3.81569 -18.01135,5.75858c-9.48415,2.95263 -18.94393,5.99964 -28.42807,8.95227c-7.82977,2.42485 -15.77718,4.7794 -23.63137,7.10968c-2.58695,0.76885 -5.29153,1.46742 -7.97174,2.26036c-0.93261,0.24088 -1.75179,0.15064 -2.5995,-0.43523c-0.35287,-0.21069 -0.61247,-0.44547 -0.96534,-0.65616c-2.87161,-1.87391 -5.48776,-3.91428 -8.17289,-5.83656c-7.11429,-5.20449 -14.29746,-10.2905 -21.4118,-15.49518c-2.85143,-2.18095 -5.77174,-4.24344 -8.52991,-6.44848c-3.88981,-3.11989 -7.75529,-6.14557 -11.71404,-9.14718c-1.10726,-0.82045 -1.91046,-1.61917 -1.59863,-3.108c0.08906,-0.42552 -0.12599,-0.87296 -0.15451,-1.36858c-0.65418,-4.45859 -1.02863,-8.98964 -1.28544,-13.4504c-0.19971,-3.46933 -0.08211,-3.39923 3.15351,-4.73794c4.49258,-1.86453 9.05824,-3.44609 13.62386,-5.02784c7.12824,-2.4448 14.16325,-4.86532 21.19822,-7.28604c7.03497,-2.42072 14.16325,-4.86533 21.19823,-7.28605c4.47235,-1.55766 9.0624,-3.04485 13.53475,-4.60251c2.00304,-0.71852 3.91283,-1.41296 5.9402,-2.03727c3.3087,-1.05576 6.64175,-2.01732 9.90175,-3.26165c4.35477,-1.62777 8.66498,-3.04288 13.04406,-4.57646c5.75368,-1.98909 11.60063,-4.00229 17.47196,-5.92108c6.77951,-2.25426 13.55908,-4.50833 20.33864,-6.76239c4.21694,-1.39101 8.55153,-2.71175 12.76848,-4.10276c4.31026,-1.41493 8.57171,-3.01879 12.88197,-4.43372c4.86978,-1.55963 9.83282,-3.14338 14.7026,-4.70301c1.02588,-0.26497 2.05175,-0.52995 3.07763,-0.79492c1.70309,-0.33921 3.0616,-0.08662 4.33942,1.39412c2.46241,2.98578 5.20455,5.89911 7.85343,8.83652c2.27168,2.63253 4.79877,5.09841 7.07047,7.73094c3.69146,4.27777 7.26533,8.48543 11.02568,12.64473c5.18017,5.80473 10.19816,11.75182 15.28507,17.58062c0.70989,0.82262 1.20893,1.59922 1.38363,2.66075c0.51989,2.78316 1.01541,5.47195 1.5353,8.25511c0.19488,0.75448 0.29649,1.53306 0.30484,2.33572c0.04103,1.69952 0.59712,3.46736 -0.2499,5.1951c-1.44343,0.57418 -2.81802,1.02969 -4.03042,1.34283zM428.88621,262.51724c-4.25103,-4.13324 -8.24666,-8.43312 -12.24224,-12.73282c-3.11939,-3.2184 -6.07658,-6.57917 -9.12708,-9.91603c-3.90236,-4.32397 -7.6871,-8.57765 -11.56508,-12.80725c-2.17422,-2.25519 -4.44171,-4.4863 -6.61597,-6.74168c-1.65853,0.12655 -8.02049,2.0716 -10.60328,3.24169c-0.11344,0.33113 0.05291,0.59 0.31251,0.82478c3.21265,3.19431 6.0077,6.69764 9.05815,10.03431c1.39545,1.55104 3.11519,2.81698 4.3485,4.51058c0.33264,0.51754 0.75859,1.01119 1.09128,1.52893c0.47467,0.68222 0.341,1.3202 -0.21437,1.86616c-0.39323,0.4034 -0.90409,0.7365 -1.55692,0.90512c-4.91434,1.7723 -9.82866,3.5446 -14.7917,5.12833c-6.15111,1.99106 -12.18458,4.05243 -18.29109,5.83103c-4.17244,1.17817 -8.17848,2.61539 -12.30218,3.98232c-4.6833,1.51128 -9.36656,3.02273 -14.07414,4.44c-5.2672,1.56161 -10.44114,3.09914 -15.68397,4.75513c-3.14652,0.91338 -6.33763,2.03924 -9.45977,3.04702c-4.14806,1.27256 -8.17848,2.61539 -12.32654,3.88795c-6.17544,1.89687 -12.35088,3.79375 -18.52637,5.69044c-5.70913,1.77643 -11.56022,3.38837 -17.26936,5.16482c-4.12368,1.36693 -8.34063,2.75795 -12.46437,4.1247c-0.34867,0.19073 -0.72171,0.2871 -1.09476,0.38345c-1.53674,0.59808 -2.73311,0.20294 -4.07565,-0.75811c-5.06185,-3.42083 -9.84813,-7.31533 -14.74779,-10.87853c-3.17997,-2.29745 -3.17997,-2.29745 -6.71972,-0.98067c-3.81957,1.38886 -7.63909,2.77791 -11.43428,4.26115c-0.37305,0.09635 -0.72172,0.28709 -0.87971,0.83089c1.50889,1.21991 3.04211,2.53402 4.64426,3.72984c8.34339,6.49666 16.8246,12.75657 25.44362,18.77973c5.98264,4.28965 12.03417,8.46083 17.879,12.98723c0.87203,0.68006 1.81301,1.24185 2.66071,1.82772c2.12483,-0.24699 3.89266,-1.10591 5.82677,-1.70614c5.54699,-1.63388 11.06958,-3.36214 16.5922,-5.09039c5.24282,-1.65599 10.41676,-3.19352 15.65959,-4.84951c4.52111,-1.3689 8.97329,-2.61953 13.47002,-4.08281c8.24743,-2.73368 16.49479,-5.46754 24.76653,-8.10702c4.0548,-1.24847 8.1096,-2.49693 12.14002,-3.83977c6.5241,-2.08761 13.11715,-4.2935 19.73457,-6.40501c3.77497,-1.17639 7.4811,-2.23411 11.23173,-3.5047c8.9002,-2.90249 17.70715,-5.78087 26.68048,-8.40022c6.38629,-1.85086 12.65504,-3.77163 19.017,-5.71669c2.58695,-0.76885 5.14957,-1.6319 7.8987,-2.54312c-0.59646,-1.15375 -1.53742,-1.71553 -2.38933,-2.70282zM267.33364,279.4965c-2.52289,-2.06446 -4.92824,-4.059 -7.4268,-6.02927c-0.70569,-0.42119 -1.43581,-0.93695 -1.33067,-2.07056c1.09057,-0.78486 2.42061,-1.02772 3.633,-1.34087c0.55957,-0.14453 1.03007,0.13645 1.50053,0.41725c1.24928,0.98513 2.59182,1.94618 3.84111,2.93132c1.39125,1.14962 2.83125,2.48799 4.2225,3.63762c0.73007,0.51557 1.46018,1.03134 2.19025,1.54691c0.81917,0.09025 1.472,-0.07837 2.05175,-0.52995c-0.14617,-0.56591 -0.641,-0.94109 -1.0182,-1.24597c-2.49856,-1.97026 -4.87953,-3.87043 -7.28484,-5.86478c-0.63681,-0.53966 -1.34255,-0.96103 -1.33072,-2.07074c1.06628,-0.87887 2.51391,-1.05163 3.81956,-1.38887c0.65283,-0.16862 1.05441,0.23064 1.52492,0.51163c1.34255,0.96104 2.68508,1.92208 3.98307,3.0958c1.79282,1.54888 3.61002,3.19216 5.56505,4.59867c0.82333,0.49149 1.52491,0.51163 2.26681,-0.08251c0.158,-0.5438 -0.28814,-0.7304 -0.54774,-0.96518c-2.42963,-2.08855 -4.97694,-4.24757 -7.40657,-6.33611c-0.63686,-0.53985 -1.36692,-1.05542 -1.54162,-2.11696c1.08645,-1.18591 2.53409,-1.35868 4.07498,-1.55552c0.58395,-0.05015 1.00985,0.44331 1.48036,0.72429c2.04828,1.38242 3.74785,2.9554 5.56505,4.59867c1.43996,1.33819 2.97322,2.65248 4.53081,4.06098c2.12064,-0.64841 4.12369,-1.36693 6.15111,-1.99107c0.25121,-0.56807 -0.24363,-0.94325 -0.50319,-1.17784c-1.53327,-1.3143 -3.13542,-2.51011 -4.66864,-3.82422c-1.13169,-0.91503 -2.26334,-1.82986 -3.39502,-2.74489c-0.49484,-0.37518 -0.92074,-0.86863 -0.92909,-1.6713c1.01752,-1.06764 2.46515,-1.24039 3.88846,-1.50734c0.46631,-0.12044 0.86788,0.27883 1.22074,0.48952c1.43581,0.93695 2.80268,1.9922 4.07633,3.07171c2.07681,1.87804 4.06035,3.78017 6.53033,5.25463c0.67721,-0.07424 1.26116,-0.12439 1.81652,-0.67035c-0.14612,-0.56572 -0.52336,-0.8708 -0.92494,-1.27006c-1.65086,-1.38439 -3.27738,-2.67459 -4.90386,-3.96462c-0.98967,-0.75035 -2.00373,-1.59509 -2.90014,-2.36954c-0.37725,-0.30507 -0.63685,-0.53985 -0.82752,-0.89291c-0.14197,-0.16449 -0.21505,-0.44744 -0.28814,-0.73039c1.08641,-1.18611 2.65168,-1.28857 4.14386,-1.67397c1.92649,0.91089 3.55297,2.20092 5.11061,3.60958c2.07676,1.87786 4.15357,3.7559 6.53034,5.25463c1.91393,-0.29319 5.85115,-1.61175 7.33913,-2.39859c0.08911,-0.42532 -0.26377,-0.63602 -0.52337,-0.8708c-1.88609,-1.52479 -3.8898,-3.11989 -5.77595,-4.64487c-0.75445,-0.60995 -1.50889,-1.21992 -2.28766,-1.92407c-0.49484,-0.37518 -0.80315,-0.79853 -0.78718,-1.507c1.01752,-1.06764 2.4652,-1.2402 3.88846,-1.50733c0.46631,-0.12044 0.86788,0.27882 1.22076,0.48951c1.31822,0.86685 2.5675,1.85198 3.84111,2.93132c1.53327,1.3143 2.94889,2.55829 4.45773,3.77802c0.40163,0.39945 0.98972,0.75054 1.48456,1.12572c0.87203,0.68006 1.68705,0.36907 2.47351,-0.43773c-1.41977,-1.64524 -3.23283,-2.88726 -4.88369,-4.27166c-1.65086,-1.38439 -3.5328,-2.50796 -4.8148,-4.39013c1.24861,-1.32848 2.69623,-1.50123 4.23718,-1.69788c0.39738,-0.00216 0.89221,0.37302 1.24507,0.5837c1.31822,0.86685 2.56749,1.85198 3.84111,2.93131c1.41563,1.244 2.80687,2.39362 4.2225,3.63762c0.49484,0.37518 0.98972,0.75055 1.48456,1.12572c0.77877,0.70414 1.54925,0.60582 2.29114,0.01169c0.158,-0.5438 -0.12594,-0.87277 -0.50319,-1.17784c-1.65086,-1.38439 -3.27734,-2.67441 -4.90386,-3.96462c-1.13165,-0.91484 -2.23896,-1.73549 -3.27733,-2.67442c-0.61248,-0.44547 -0.61248,-0.44547 -0.86025,-1.78995c1.02173,-0.66621 2.28282,-0.79079 3.47085,-1.19832c0.65283,-0.16862 1.2166,0.08828 1.71144,0.46346c1.43581,0.93695 2.80273,1.99237 4.07633,3.07171c2.07681,1.87804 4.15362,3.75609 6.64803,5.32512c2.4735,-0.43772 4.89411,-1.46544 7.2702,-2.28032c-0.10161,-0.77857 -0.57207,-1.05937 -0.97364,-1.45863c-1.65091,-1.38459 -3.27739,-2.67459 -4.90391,-3.9648c-0.98967,-0.75035 -2.00372,-1.59509 -2.90013,-2.36953c-0.40158,-0.39926 -0.9208,-0.86882 -0.92915,-1.67148c1.01757,-1.06745 2.4652,-1.2402 3.88846,-1.50733c0.46631,-0.12044 0.86788,0.27882 1.22076,0.48951c1.43581,0.93695 2.77834,1.898 4.07637,3.07189c2.05243,1.78366 4.06031,3.77999 6.53034,5.25464c0.58395,-0.05015 1.28548,-0.0302 1.8409,-0.57597c-0.14617,-0.56591 -0.52336,-0.87079 -0.92499,-1.27025c-1.65086,-1.38439 -3.27733,-2.67442 -4.90386,-3.96463c-0.98967,-0.75035 -2.00372,-1.59508 -2.90013,-2.36952c-0.49484,-0.37518 -0.9208,-0.86882 -1.0224,-1.6474c1.08645,-1.18591 2.53409,-1.35867 4.07499,-1.5555c0.39743,-0.00198 0.89226,0.3732 1.24513,0.58389c1.50469,0.81848 2.77835,1.898 4.07633,3.07171c2.07681,1.87804 4.15362,3.75609 6.64798,5.32493c1.67871,-0.43359 3.42634,-0.98547 5.17394,-1.53752c0.08491,-0.82675 -0.40993,-1.20192 -0.90476,-1.5771c-1.62648,-1.29001 -3.22863,-2.48584 -4.7619,-3.80014c-1.13165,-0.91484 -2.23896,-1.73548 -3.27733,-2.67442c-0.40163,-0.39945 -0.92079,-0.86882 -0.74262,-1.71966c1.09061,-0.78468 2.53823,-0.95743 3.8439,-1.29466c0.55957,-0.14453 1.0544,0.23064 1.43165,0.53571c1.34255,0.96104 2.59182,1.94617 3.86544,3.02551c2.26334,1.82986 4.27126,3.82638 6.76562,5.39523c0.60828,0.04404 1.14352,-0.19468 1.67871,-0.43359c0.04455,-0.21266 0.08911,-0.42533 0.06473,-0.51971c-0.23943,-0.54182 -0.70989,-0.82262 -1.11146,-1.22188c-2.49856,-1.97026 -4.87953,-3.87042 -7.28484,-5.86478c-0.63681,-0.53966 -1.34255,-0.96104 -1.33072,-2.07075c1.06628,-0.87887 2.51391,-1.05162 3.81957,-1.38886c0.55957,-0.14453 1.0544,0.23065 1.4316,0.53553c1.34255,0.96104 2.59187,1.94636 3.86548,3.02569c2.23896,1.73548 4.27121,3.82619 6.74124,5.30084c0.51507,0.06832 1.07463,-0.07621 1.46786,-0.47961c0.13362,-0.63818 -0.29234,-1.13182 -0.78718,-1.507c-1.50889,-1.21991 -3.01773,-2.43964 -4.52661,-3.65955c-1.10731,-0.82065 -2.14575,-1.75976 -3.25301,-2.58022c-0.61248,-0.44547 -1.03843,-0.93912 -1.07111,-1.83597c0.94859,-0.94935 2.39627,-1.12192 3.70194,-1.45916c0.65283,-0.16862 1.0544,0.23065 1.52486,0.51144c1.43581,0.93695 2.77835,1.898 4.07633,3.07171c2.05248,1.78385 4.15362,3.75609 6.62365,5.23074c1.28128,-0.43162 2.68021,-0.79294 4.09935,-1.46113c-0.21925,-0.84887 -0.88043,-1.48291 -1.42398,-2.04666c-4.23086,-4.44029 -8.53064,-8.76228 -12.85476,-13.17847c-2.93981,0.55817 -5.61587,1.75234 -8.36496,2.66376c-3.02892,0.9835 -6.12673,2.08544 -9.13133,3.16313c-5.31171,1.77446 -10.59909,3.64312 -15.91079,5.41759c-3.40197,1.07985 -6.8972,2.18377 -10.27479,3.358c-5.59154,1.84653 -11.06545,3.76337 -16.65694,5.6101c-3.37759,1.17423 -6.6863,2.22998 -10.08828,3.30983c-2.8424,0.93532 -5.66042,1.965 -8.50278,2.90051c-3.09785,1.10178 -6.31326,2.13363 -9.43545,3.14121c-3.77502,1.1762 -7.43239,2.42269 -11.18304,3.69327c-6.03347,2.06136 -12.06694,4.12273 -18.10041,6.18409c-5.19411,1.84456 -10.3193,3.57086 -15.53779,5.32104c-3.65737,1.24649 -7.33913,2.3986 -10.99652,3.64509c-1.18802,0.40753 -2.40042,0.72068 -3.51541,1.41098c0.1705,0.66011 0.57213,1.05956 1.04258,1.34035c3.41101,2.03643 6.31534,4.80739 9.49525,7.10465c1.20057,0.79656 2.42548,1.6873 3.55712,2.60215c0.73012,0.51576 1.3871,0.74838 2.15336,0.24863c0.69738,-0.38128 1.44347,-0.57399 2.07193,-0.83699c-0.02853,-0.49562 -0.31246,-0.82459 -0.57207,-1.05937c-1.62648,-1.29001 -3.22863,-2.48584 -4.7619,-3.80013c-1.13165,-0.91484 -2.23896,-1.73548 -3.27733,-2.67442c-0.40163,-0.39945 -0.89646,-0.77463 -0.83589,-1.69557c1.09061,-0.78468 2.51386,-1.0518 3.93716,-1.31875c0.46631,-0.12044 0.8435,0.18444 1.22076,0.48951c1.2249,0.89075 2.54312,1.7576 3.69913,2.76682c2.1944,1.94815 4.38885,3.89649 7.02517,5.62981c0.70159,0.02015 1.51656,-0.29104 2.30721,-0.69641c-0.05291,-0.59 -0.40577,-0.80069 -0.66539,-1.03547c-1.86171,-1.43042 -3.74784,-2.9554 -5.63393,-4.4802c-0.98967,-0.75035 -2.00373,-1.59508 -2.90014,-2.36953c-0.49484,-0.37518 -0.51921,-0.46956 -0.83587,-1.69558c1.09061,-0.78468 2.53824,-0.95743 3.8439,-1.29466c0.55957,-0.14453 1.0544,0.23065 1.43165,0.53572c1.34255,0.96104 2.68508,1.92208 3.86543,3.0255c1.84158,1.73764 3.91419,3.21427 5.91791,4.80936c0.75445,0.60995 1.48036,0.72429 2.38865,0.38922c1.0015,-0.35935 2.12063,-0.64842 3.12214,-1.00777c-0.07724,-0.68419 -0.33684,-0.91897 0.03621,-1.01532zM376.9112,221.51666c1.17205,0.30094 2.24243,-0.17688 3.12633,-0.60634c2.23413,-0.97936 4.52111,-1.3689 6.80394,-2.15968c0.27979,-0.07227 0.55956,-0.14453 1.02587,-0.26497c-0.09814,-2.69094 -0.59365,-5.37973 -0.87831,-8.0225c-0.30899,-2.73696 -0.40714,-5.4279 -0.64724,-8.28333c-1.23678,0.21877 -2.19372,0.36546 -3.12633,0.60635c-3.91699,1.01171 -7.73656,2.40057 -11.55608,3.78962c-0.72176,0.2869 -1.56111,0.50369 -2.40047,0.72049c-2.86673,0.84112 -5.75369,1.98909 -8.68931,2.94869c-2.18957,0.7667 -4.40346,1.43919 -6.59303,2.20589c-4.00609,1.43704 -8.03652,2.77988 -12.16021,4.14681c-3.77502,1.1762 -7.61891,2.47087 -11.34518,3.83582c-2.8424,0.93532 -5.78222,1.49347 -8.50283,2.90032c-0.18652,0.04818 -0.27978,0.07226 -0.46631,0.12044c-3.58849,1.12803 -7.08373,2.23195 -10.57891,3.33607c-2.8424,0.93532 -5.75368,1.98909 -8.66497,3.04288c-0.18652,0.04818 -0.27978,0.07226 -0.46631,0.12044c-3.49523,1.10394 -7.10811,2.13758 -10.57896,3.33589c-2.65588,0.88714 -5.19411,1.84456 -7.84995,2.73189c-0.34872,0.19055 -0.6285,0.26281 -0.90829,0.33508c-3.77502,1.1762 -7.57437,2.2582 -11.20736,3.59907c-1.97871,0.81271 -4.07918,1.15408 -5.98476,2.24993c-0.16219,0.14237 -0.44198,0.21463 -0.6285,0.26281c-2.93561,0.95959 -5.89565,1.82461 -8.80693,2.8784c-2.6315,0.98152 -5.38064,1.89274 -8.03653,2.77988c-3.86823,1.20047 -7.68781,2.58934 -11.5317,3.884c-4.12368,1.36693 -8.29192,2.94653 -12.46432,4.12488c-3.14656,0.9132 -6.19567,2.20373 -9.29347,3.3057c-2.91128,1.05379 -5.91584,2.13165 -8.80279,3.27963c-0.34867,0.19073 -0.69733,0.38147 -1.11494,0.69049c0.06541,1.7939 -0.0557,3.63597 0.22061,5.47608c0.25193,1.74572 0.22409,3.56371 0.47602,5.30943c0.27631,1.8401 0.15519,3.68218 0.64236,5.5683c1.09896,0.01798 1.98287,-0.41148 2.89111,-0.74674c2.16523,-0.86089 4.44804,-1.65186 6.58889,-2.60713c1.97866,-0.8129 4.0993,-1.46131 6.12672,-2.08545c0.65283,-0.16862 1.25695,-0.5258 1.9543,-0.90728c0.17817,-0.85084 0.02785,-1.81799 -0.00482,-2.71485c-0.10996,-1.58124 -0.21993,-3.16247 -0.21226,-4.67342c0.03616,-1.01552 0.42523,-1.82015 1.42673,-2.1795c0.44198,-0.21464 0.76631,-0.49956 1.23262,-0.62c1.86523,-0.48177 3.6817,-1.15229 5.49823,-1.82264c3.56411,-1.2224 7.10805,-2.13776 10.55457,-3.43027c2.79365,-1.12407 5.70913,-1.77643 8.50278,-2.90051c2.07198,-0.8368 4.21699,-1.39083 6.31325,-2.13362c3.02892,-0.9835 6.03347,-2.06136 8.92043,-3.20934c0.18652,-0.04818 0.27978,-0.07226 0.46631,-0.12044c3.58849,-1.12803 7.10806,-2.13776 10.55454,-3.43045c2.44502,-0.93316 5.01179,-1.39497 7.38369,-2.61126c0.37305,-0.09635 0.65283,-0.16862 0.93262,-0.24089c3.47506,-0.79689 6.80394,-2.15968 10.08827,-3.30982c2.81802,-1.0297 5.96874,-1.54165 8.6893,-2.94869c0.34872,-0.19055 0.6285,-0.26282 0.90829,-0.33508c3.40197,-1.07985 6.82827,-2.06549 10.08827,-3.30982c2.44498,-0.93334 5.03613,-1.30077 7.38364,-2.61145c0.18652,-0.04818 0.4663,-0.12044 0.65283,-0.16862c3.40197,-1.07985 6.92153,-2.08959 10.29917,-3.26363c5.12518,-1.72628 10.13278,-3.52268 15.25796,-5.24896c2.8424,-0.93532 5.61592,-1.75217 8.34068,-2.75776c2.70039,-1.09998 5.54699,-1.63387 8.19866,-2.92244c0.18652,-0.04818 0.27978,-0.07226 0.46631,-0.12044c3.02892,-0.9835 5.96453,-1.94308 8.99346,-2.92657c0.37305,-0.09635 0.74609,-0.19271 1.2124,-0.31315c0.94164,2.87538 0.50459,5.80524 1.27989,8.42176zM374.24562,216.97391c-1.8409,0.57596 -3.77502,1.1762 -5.61588,1.75234c-2.91133,1.0536 -5.82262,2.10738 -8.75823,3.06697c-5.03197,1.70201 -10.08827,3.30982 -15.12025,5.01182c-4.8454,1.65402 -9.59759,3.28377 -14.44298,4.93779c-2.65588,0.88714 -5.40501,1.79836 -8.06089,2.6855c-5.66038,1.96519 -11.3208,3.9302 -17.0056,5.80084c-2.8424,0.93532 -5.68475,1.87081 -8.52715,2.80613c-4.93871,1.67792 -9.87738,3.35603 -14.81609,5.03395c-2.56261,0.86305 -5.12519,1.72628 -7.6878,2.58933c-5.56717,1.94092 -11.04107,3.85776 -16.63256,5.70448c-4.84544,1.65383 -9.80849,3.23757 -14.65393,4.89139c-4.8454,1.65402 -9.78412,3.33194 -14.62951,4.98596c-0.18652,0.04818 -0.34871,0.19055 -0.69738,0.38128c0.16287,2.17124 0.13917,4.39046 0.53728,6.70209c1.51656,-0.29104 2.79785,-0.72265 4.07913,-1.15426c3.75068,-1.27039 7.5946,-2.56506 11.34523,-3.83564c6.59304,-2.20589 13.25496,-4.53025 19.82363,-6.83052c5.75368,-1.98909 11.53176,-3.88382 17.28544,-5.87291c6.59304,-2.20589 13.09281,-4.3877 19.6858,-6.59377c3.09785,-1.10178 6.31326,-2.13363 9.43545,-3.14121c5.12523,-1.7261 10.15716,-3.42829 15.28239,-5.15439c3.02888,-0.98368 5.96453,-1.94308 8.99346,-2.92657c3.93716,-1.31875 7.96759,-2.6616 11.99801,-4.00443c6.59304,-2.20589 13.09282,-4.38769 19.68586,-6.59359c2.65588,-0.88714 5.21849,-1.75019 7.87432,-2.63751c0.6285,-0.26281 1.23262,-0.62001 1.95435,-0.9071c-0.98201,-2.26129 -0.62985,-4.3644 -1.33207,-6.69796zM431.51357,261.13449c-0.35775,-2.92572 -0.71545,-5.85126 -1.07319,-8.77698c-0.15867,-1.76981 -1.108,-3.13425 -2.17491,-4.56881c-3.31841,-4.37413 -7.21663,-8.29685 -10.69719,-12.52842c-1.87011,-2.23326 -3.90236,-4.32397 -5.95899,-6.50906c-5.22467,-5.59187 -10.28726,-11.32649 -15.28086,-17.1792c-2.12971,-2.46804 -4.32832,-4.81762 -6.45799,-7.28547c-0.23528,-0.14059 -0.49483,-0.37518 -0.87208,-0.68025c-0.20255,0.75646 -0.26728,1.27616 -0.21438,1.86616c0.3619,3.32696 0.9347,6.70013 0.99244,10.00497c0.06961,2.19533 1.04326,3.65395 2.48326,4.99234c6.87139,6.57503 12.90762,13.76829 19.29252,20.77081c6.12529,6.76774 12.22626,13.44129 18.76915,19.90001c0.2596,0.23478 0.61248,0.44547 1.01405,0.84473c0.20671,-0.35522 0.27559,-0.47369 0.17817,-0.85084z" data-paper-data="{&quot;index&quot;:null}" fill="#000000"/><path d="M423.42554,267.95177c-6.36196,1.94505 -12.63066,3.86602 -19.017,5.7167c-8.97328,2.61953 -17.78028,5.49773 -26.68048,8.40022c-3.77502,1.1762 -7.45672,2.32849 -11.23174,3.50468c-6.52415,2.08742 -13.1172,4.29332 -19.73457,6.40501c-4.0548,1.24847 -8.1096,2.49693 -12.14002,3.83977c-8.24738,2.73387 -16.49474,5.46773 -24.76649,8.10721c-4.52111,1.3689 -8.94896,2.71372 -13.47006,4.08263c-5.24282,1.65599 -10.41672,3.1937 -15.65959,4.84951c-5.52261,1.72825 -11.04521,3.45651 -16.5922,5.09039c-1.93411,0.60024 -3.7952,1.48325 -5.82673,1.70633c-0.8477,-0.58587 -1.78867,-1.14764 -2.66075,-1.82789c-5.84483,-4.5264 -11.80309,-8.72167 -17.879,-12.98723c-8.61903,-6.02316 -17.12457,-12.37727 -25.44363,-18.77974c-1.60215,-1.19582 -3.13537,-2.50993 -4.64426,-3.72984c0.158,-0.5438 0.50667,-0.73453 0.87971,-0.83089c3.81957,-1.38886 7.61476,-2.8721 11.43428,-4.26115c3.53978,-1.3166 3.53979,-1.3166 6.71971,0.98067c4.99297,3.5393 9.68594,7.4577 14.74779,10.87853c1.43581,0.93695 2.53891,1.35618 4.07565,0.75811c0.34872,-0.19055 0.72176,-0.2869 1.09481,-0.38325c4.12368,-1.36693 8.31626,-2.85233 12.46432,-4.12488c5.70913,-1.77643 11.56027,-3.38819 17.26941,-5.16462c6.17544,-1.89687 12.35088,-3.79376 18.52632,-5.69063c4.14806,-1.27256 8.20286,-2.52101 12.32654,-3.88795c3.12218,-1.00758 6.33758,-2.03943 9.45977,-3.04701c5.2672,-1.56161 10.44114,-3.09914 15.68397,-4.75513c4.70763,-1.41708 9.39089,-2.92855 14.07414,-4.44c4.14806,-1.27256 8.12978,-2.80397 12.30218,-3.98232c6.19982,-1.80249 12.23328,-3.86386 18.29109,-5.83103c4.93871,-1.67792 9.85304,-3.45022 14.7917,-5.12833c0.53519,-0.23891 1.07043,-0.47764 1.55692,-0.90512c0.55542,-0.54577 0.68903,-1.18395 0.21437,-1.86617c-0.33269,-0.51774 -0.75864,-1.01138 -1.09128,-1.52893c-1.2333,-1.6936 -2.95305,-2.95952 -4.3485,-4.51058c-3.05045,-3.33669 -5.84551,-6.84 -9.05815,-10.03431c-0.2596,-0.23478 -0.42595,-0.49364 -0.31246,-0.82459c2.58275,-1.17027 8.94475,-3.11515 10.60323,-3.24188c2.14989,2.161 4.41738,4.39211 6.61597,6.74168c3.87803,4.22978 7.6871,8.57765 11.56508,12.80725c3.0505,3.33686 6.07658,6.57917 9.12708,9.91603c3.99562,4.29988 7.9912,8.59958 12.24224,12.73282c0.77882,0.70434 1.74417,1.3605 2.34062,2.51425c-2.74914,0.91123 -5.31176,1.77426 -7.85,2.7317zM355.97798,274.50771c-2.92866,-2.86515 -5.92627,-5.61202 -8.62386,-8.738c-0.42596,-0.49365 -0.94516,-0.96321 -1.30219,-1.57513c-0.49899,-0.77641 -1.13165,-0.91483 -1.971,-0.69804c-1.11914,0.28906 -2.33154,0.60221 -3.51961,1.00955c-0.55957,0.14453 -1.18802,0.40753 -1.7476,0.55206c-6.73501,2.0414 -13.61203,3.91814 -20.32266,6.05392c-5.17394,1.53752 -10.25461,3.05096 -15.30672,5.0602c-3.44652,1.29251 -6.91739,2.49082 -10.38824,3.68913c-0.72176,0.2869 -1.56111,0.5037 -1.99885,1.11995c-0.32019,0.68617 0.08139,1.08543 0.36537,1.41459c1.16437,1.81188 2.90849,3.17218 4.3972,4.69915c2.3162,2.41968 4.72569,4.81546 7.2284,7.18696c2.14989,2.161 4.48631,4.27382 6.86723,6.1738c0.63265,0.13842 1.26111,-0.12458 1.82068,-0.26911c4.70763,-1.41708 9.4396,-2.73997 14.14723,-4.15705c5.08068,-1.51343 10.25462,-3.05096 15.42856,-4.58848c3.96149,-1.22456 7.92303,-2.44893 11.88457,-3.6733c2.65588,-0.88714 5.26719,-1.56162 7.9474,-2.35456c0.81498,-0.31118 1.53674,-0.59808 2.35172,-0.90926c0.46631,-0.12044 0.64868,-0.56986 0.7823,-1.20804c-2.64888,-2.93741 -5.25325,-6.08768 -8.03995,-8.78834zM235.36164,289.36414c-3.67476,-2.67245 -6.98067,-5.84266 -10.51761,-8.75186c-1.03843,-0.93912 -1.95087,-1.00528 -3.11451,-0.50336c-0.97717,0.45355 -2.00305,0.71852 -3.00459,1.07769c-0.90824,0.33526 -1.72321,0.64644 -2.22992,1.38078c-0.01598,0.70847 0.47886,1.08365 0.85606,1.38852c3.60587,2.79091 7.21174,5.58183 10.81762,8.37273c1.24928,0.98513 2.53891,1.35617 4.05129,0.66372c1.23262,-0.62001 2.63154,-0.98133 3.91283,-1.41295c0.27979,-0.07227 0.53519,-0.23891 0.69319,-0.78271c-0.26376,-0.63602 -0.87623,-1.08149 -1.46433,-1.43258zM273.94962,286.23818c-1.53254,0.99951 -1.79562,2.6771 -0.79759,4.23011c1.75662,2.56421 6.87417,2.34905 8.39006,-0.25559c1.17132,-2.01286 0.02297,-4.53302 -2.29674,-5.04052c-0.93681,-0.16054 -1.96684,-0.2968 -2.96835,0.06254c-0.77047,0.09833 -1.56111,0.50369 -2.32739,1.00345zM280.76047,293.73435c-0.99735,0.76059 -1.31334,1.84818 -0.99667,3.0742c0.31667,1.22601 1.6147,2.39991 2.83125,2.488c1.70724,0.06202 3.36577,-0.06452 4.78072,-1.13412c0.16215,-0.14256 0.41754,-0.3092 0.64863,-0.57005c1.36204,-1.65961 0.94377,-3.6642 -1.00705,-4.66928c-1.03422,-0.53769 -2.67257,-0.71819 -4.0715,-0.35686c-0.86369,0.1226 -1.51236,0.69246 -2.18537,1.16813zM248.46344,301.57331c1.46781,-0.47979 2.55427,-1.66571 2.54172,-2.8698c-0.04103,-1.69952 -1.34322,-3.27465 -3.09917,-3.52526c-1.78032,-0.34498 -3.31706,0.25309 -4.54549,1.27453c-1.87706,1.59148 -1.43026,4.09169 0.73147,5.14298c1.00986,0.44331 2.31971,0.50749 3.8119,0.12208c0.18652,-0.04818 0.37304,-0.09635 0.55957,-0.14453zM258.4487,292.8575c-0.62011,1.06566 -0.51849,1.84424 0.30899,2.73696c1.93904,2.11498 6.07522,1.95195 7.78178,-0.29963c1.13097,-1.39877 0.83448,-2.93183 -0.62566,-3.96298c-1.34255,-0.96104 -2.79437,-1.18971 -4.33112,-0.59163c-1.44764,0.17275 -2.4206,1.02773 -3.13401,2.11729zM265.19339,309.72657c-1.7643,-1.05326 -4.4487,-0.66175 -5.97705,0.73918c-1.43513,1.37665 -1.1101,3.40533 0.56093,4.48268c1.57777,1.10144 5.40569,0.51525 6.49211,-0.67086c0.71757,-0.68833 0.89573,-1.53916 0.57908,-2.76518c-0.19488,-0.75448 -0.92494,-1.27006 -1.65506,-1.78582zM250.03355,304.18569c-0.85533,0.92527 -0.91171,2.24763 -0.08419,3.14055c2.50692,2.77292 6.96324,1.92354 8.26823,-0.7273c0.66465,-1.27833 0.03968,-2.9277 -1.2054,-3.5114c-1.12748,-0.5136 -3.16327,-0.69213 -4.74872,-0.28262c-0.65283,0.16862 -1.56107,0.50389 -2.22992,1.38079zM287.62423,301.82052c-0.87556,1.23212 -0.60344,2.6708 0.52819,3.58564c0.49484,0.37518 1.08298,0.72645 1.69126,0.77049c1.33419,0.15838 2.68856,0.00972 4.03878,-0.54018c0.53519,-0.23891 1.02168,-0.6664 1.39057,-1.16399c1.38223,-1.96665 0.32713,-4.5109 -2.10602,-4.68726c-1.03007,-0.13645 -1.96269,0.10443 -3.03728,0.18083c-0.8839,0.42946 -1.83671,0.97739 -2.50551,1.85447zM272.49984,306.43111c-0.7823,1.20803 -0.70086,2.29365 0.3619,3.32696c0.2596,0.23478 0.63681,0.53966 0.9653,0.65597c1.64255,0.58192 3.34979,0.64395 4.93104,-0.16698c0.60412,-0.35719 0.99734,-0.76059 1.36623,-1.25818c0.92006,-1.44497 0.8143,-2.62478 -0.55262,-3.68021c-1.24928,-0.98513 -2.60784,-1.23789 -3.98239,-0.7822c-1.33004,0.24286 -2.30716,0.69659 -3.08945,1.90463zM273.13944,302.7448c1.29731,-1.1399 1.13864,-2.90971 -0.22829,-3.96514c-1.86171,-1.43042 -4.8301,-1.36806 -6.63823,0.10514c-1.73928,1.35453 -1.57641,3.52577 0.30552,4.64933c1.41143,0.84257 2.74562,1.00096 4.21348,0.52136c0.93261,-0.24088 1.72322,-0.64644 2.34752,-1.31067zM358.48145,265.71242c2.33154,-0.60221 4.56982,-1.18033 6.85265,-1.97111c0.81498,-0.31118 1.60982,-0.31512 2.37609,-0.81488c0.60407,-0.35739 0.90408,-0.73651 0.8268,-1.42089c-0.63681,-0.53966 -1.3829,-0.34695 -2.03573,-0.17833c-2.89111,0.74674 -5.66458,1.56377 -8.38939,2.56919c-0.72171,0.28709 -1.44343,0.57418 -1.59728,1.51921c0.56793,0.65813 1.24513,0.58389 1.96684,0.29681zM387.22687,260.29976c-2.89111,0.74674 -5.66458,1.56377 -8.38934,2.56938c-0.72171,0.28709 -1.44347,0.57399 -1.59727,1.51921c0.56793,0.65813 1.24508,0.5837 1.89791,0.41508c2.33154,-0.60221 4.56982,-1.18032 6.85265,-1.97111c0.81498,-0.31118 1.60982,-0.31512 2.37609,-0.81488c0.60412,-0.35719 0.90408,-0.7365 0.8268,-1.42088c-0.63681,-0.53966 -1.31401,-0.46543 -1.96684,-0.29681zM409.3354,259.61947c-2.88691,1.14816 -5.91998,1.73042 -8.66497,3.04288c-0.53519,0.23891 -0.97712,0.45374 -1.01752,1.06764c0.12179,0.47153 0.51922,0.46955 0.94096,0.56178c0.63265,0.13842 1.26111,-0.12458 1.82068,-0.26911c2.46935,-0.83896 5.03197,-1.70201 7.61891,-2.47086c0.55957,-0.14453 1.07043,-0.47764 1.55692,-0.90512c0.32434,-0.28493 0.32019,-0.68617 0.10509,-1.1338c-0.8435,-0.18444 -1.66269,-0.27469 -2.36007,0.10659zM383.28,256.18864c-2.79369,1.12389 -5.73351,1.68205 -8.47845,2.99471c-0.53519,0.23891 -1.09476,0.38345 -1.08647,1.18592c0.23943,0.54182 0.82338,0.49167 1.22076,0.48951c0.77047,-0.09833 1.54095,-0.19666 2.26266,-0.48375c1.97866,-0.8129 4.12368,-1.36693 6.15111,-1.99106c0.81498,-0.31118 1.65434,-0.52797 2.30297,-1.09801c0.32434,-0.28493 0.53105,-0.64015 0.26728,-1.27617c-0.8435,-0.18444 -1.66269,-0.27469 -2.63986,0.17885zM362.20497,268.57361c-0.34872,0.19055 -0.79064,0.40537 -1.09061,0.78468c-0.23108,0.26084 -0.25126,0.56789 -0.08491,0.82675c0.14197,0.16449 0.40158,0.39927 0.5881,0.35109c0.39738,-0.00216 0.88806,-0.02822 1.32999,-0.24305c2.2585,-0.88498 4.4724,-1.55749 6.77956,-2.25407c1.00155,-0.35917 1.97866,-0.8129 2.78949,-1.52532c0.25546,-0.16646 0.3689,-0.49759 0.29581,-0.78054c-0.07309,-0.28295 -0.42595,-0.49365 -0.70574,-0.42138c-0.55957,0.14453 -1.05021,0.17078 -1.70304,0.3394c-2.65588,0.88714 -5.38064,1.89274 -8.19866,2.92244zM412.98236,264.11008c-1.2124,0.31315 -2.33155,0.60221 -3.51962,1.00956c-1.56107,0.50388 -3.21539,1.03185 -4.75213,1.62993c-0.6285,0.26281 -1.16369,0.50172 -1.67456,0.83483c-0.25541,0.16665 -0.48649,0.42749 -0.38902,0.80483c0.09741,0.37715 0.4259,0.49346 0.73007,0.51558c0.39743,-0.00198 0.79481,-0.00413 1.16785,-0.10049c3.0533,-0.88911 6.17543,-1.89687 9.20436,-2.88037c0.55957,-0.14453 1.07043,-0.47763 1.24861,-1.32847c-0.56793,-0.65813 -1.33838,-0.55981 -2.01555,-0.48539zM392.56088,265.15945c-1.2124,0.31315 -2.33155,0.60221 -3.51962,1.00956c-1.65433,0.52797 -3.28433,1.15013 -4.91428,1.77248c-0.53524,0.23872 -1.0461,0.57183 -1.55692,0.90513c-0.06893,0.11828 -0.18237,0.44941 -0.13366,0.63799c0.02438,0.09438 0.28398,0.32916 0.49483,0.37518c0.53939,0.16251 1.00569,0.04207 1.56526,-0.10246c1.2124,-0.31315 2.51806,-0.65039 3.70614,-1.05773c1.58545,-0.40951 3.02887,-0.98368 4.58999,-1.48737c0.81498,-0.31118 1.63,-0.62216 1.97032,-1.61556c-0.70989,-0.82262 -1.36271,-0.654 -2.20207,-0.4372zM401.1208,249.76978c-1.2124,0.31315 -2.33154,0.60221 -3.51961,1.00955c-1.62995,0.62236 -3.28433,1.15014 -4.91429,1.77249c-0.44198,0.21464 -0.95283,0.54774 -1.39478,0.76256c-0.25541,0.16665 -0.48649,0.42749 -0.38907,0.80463c0.09746,0.37734 0.42595,0.49365 0.73011,0.51576c0.49064,-0.02625 1.07458,-0.0764 1.5409,-0.19684c1.58545,-0.40951 3.23978,-0.93747 4.77652,-1.53555c1.16369,-0.50173 2.30716,-0.6966 3.49523,-1.10394c0.93261,-0.24088 0.90824,-0.33526 1.80817,-1.473c-0.68556,-0.72842 -1.33839,-0.55981 -2.13319,-0.55567zM396.4967,259.21349c1.49219,-0.38542 2.98436,-0.77084 4.45217,-1.25062c1.39893,-0.36133 2.8424,-0.93532 4.31021,-1.4151c1.0015,-0.35935 1.0015,-0.35936 1.92576,-1.4029c-0.05286,-0.58981 -0.47461,-0.68203 -0.96529,-0.65597c-0.58395,0.05015 -1.14352,0.19468 -1.60983,0.31512c-2.56256,0.86323 -5.21844,1.75037 -7.78106,2.61342c-0.74609,0.19271 -1.46781,0.47979 -1.95014,1.30852c0.4301,0.89488 1.10732,0.82065 1.61818,0.48754zM371.17822,279.43469c2.65583,-0.88732 5.40496,-1.79855 8.06085,-2.68569c0.72171,-0.28709 1.4191,-0.66837 1.97452,-1.21414c0.32429,-0.28512 0.32014,-0.68636 0.12941,-1.0396c-0.56372,-0.2567 -1.12328,-0.11218 -1.58959,0.00827c-2.8424,0.93532 -5.6848,1.87063 -8.50284,2.90033c-0.53519,0.23891 -0.95279,0.54792 -1.3704,0.85694c-0.51081,0.3333 -0.38902,0.80482 -0.08071,1.22818c0.47046,0.28079 0.96114,0.25474 1.37874,-0.05428zM388.16365,273.9409c2.49369,-0.74476 4.98742,-1.48934 7.4811,-2.23411c0.83935,-0.2168 1.4678,-0.47979 1.99884,-1.11994c0.23108,-0.26084 0.34452,-0.59198 0.08492,-0.82676c-0.14197,-0.16449 -0.40158,-0.39926 -0.5881,-0.35109c-0.39738,0.00216 -0.88806,0.02822 -1.35437,0.14867c-2.49369,0.74476 -5.01175,1.39515 -7.50548,2.13973c-0.74609,0.19271 -1.44348,0.57399 -2.02323,1.02557c-0.25541,0.16665 -0.36884,0.49778 -0.34032,0.9934c0.799,0.39729 1.47617,0.32286 2.24663,0.22454zM367.29603,274.80367c2.42061,-1.02772 5.08068,-1.51344 7.66763,-2.28229c0.72171,-0.28709 1.4678,-0.4798 1.88125,-1.19005c0.06889,-0.11847 0.08907,-0.42551 0.04036,-0.61409c-0.04871,-0.18858 -0.28394,-0.32897 -0.49484,-0.37518c-0.49069,0.02606 -0.88806,0.02822 -1.35437,0.14867c-2.58699,0.76867 -5.10506,1.41906 -7.69201,2.18791c-0.90824,0.33526 -1.90978,0.69443 -2.38791,1.92458c0.94096,0.56178 1.64251,0.58173 2.33989,0.20045z" data-paper-data="{&quot;index&quot;:null}" fill="#216aff"/><path d="M263.425,281.31088c-0.90824,0.33526 -1.63416,0.22093 -2.3886,-0.38902c-1.97934,-1.5007 -3.98306,-3.0958 -5.91791,-4.80936c-1.27365,-1.07951 -2.52294,-2.06465 -3.86549,-3.02569c-0.3772,-0.30488 -0.87203,-0.68006 -1.4316,-0.53553c-1.33004,0.24286 -2.66003,0.48591 -3.8439,1.29466c0.43426,1.29612 0.34099,1.32021 0.83584,1.69538c1.01405,0.84474 1.91046,1.61917 2.90013,2.36952c1.86175,1.4306 3.74789,2.95559 5.63398,4.48039c0.35287,0.21069 0.70574,0.42138 0.66534,1.03528c-0.79059,0.40556 -1.60563,0.71656 -2.30716,0.6966c-2.612,-1.63913 -4.73752,-3.70575 -7.02523,-5.63c-1.15602,-1.00922 -2.47418,-1.87588 -3.69913,-2.76682c-0.3772,-0.30488 -0.75445,-0.60995 -1.22076,-0.48951c-1.42326,0.26714 -2.84655,0.53407 -3.93716,1.31874c-0.08491,0.82675 0.34104,1.3204 0.83588,1.69558c1.13165,0.91484 2.17007,1.85395 3.27738,2.6746c1.62648,1.29001 3.13537,2.50993 4.7619,3.80013c0.35282,0.2105 0.54355,0.56376 0.57208,1.05937c-0.72171,0.28709 -1.46781,0.47979 -2.07193,0.83698c-0.85953,0.52384 -1.51656,0.29103 -2.15336,-0.24863c-1.22495,-0.89094 -2.33222,-1.71139 -3.55717,-2.60233c-3.11104,-2.41573 -6.08426,-5.06822 -9.49521,-7.10447c-0.47051,-0.28098 -0.87207,-0.68025 -1.04257,-1.34035c1.02168,-0.6664 2.32734,-1.00364 3.51541,-1.41098c3.65737,-1.24649 7.33909,-2.39879 10.99652,-3.64509c5.21844,-1.75037 10.3193,-3.57086 15.53779,-5.32104c6.03347,-2.06136 12.0669,-4.12291 18.10036,-6.18427c3.75064,-1.27057 7.43239,-2.42269 11.18304,-3.69327c3.09785,-1.10178 6.31325,-2.13362 9.43544,-3.1412c2.8424,-0.93532 5.66041,-1.965 8.50283,-2.90032c3.37759,-1.17423 6.6863,-2.22998 10.08823,-3.31001c5.59154,-1.84653 11.06544,-3.76337 16.65693,-5.61009c3.40197,-1.07985 6.8972,-2.18378 10.27479,-3.358c5.31176,-1.77427 10.59908,-3.64312 15.91084,-5.41739c3.00455,-1.07787 6.10236,-2.17983 9.13128,-3.16332c2.77347,-0.81703 5.4252,-2.10541 8.36501,-2.66357c4.32412,4.4162 8.62385,8.738 12.85471,13.17829c0.5436,0.56394 1.18039,1.1036 1.42398,2.04666c-1.39473,0.76275 -2.81802,1.0297 -4.0993,1.46131c-2.47003,-1.47465 -4.54685,-3.3527 -6.62365,-5.23074c-1.27365,-1.07951 -2.64053,-2.13475 -4.07633,-3.07171c-0.47051,-0.28098 -0.96534,-0.65616 -1.52491,-0.51163c-1.30566,0.33724 -2.66002,0.4859 -3.70194,1.45916c0.03272,0.89705 0.55189,1.36641 1.0711,1.83597c1.10731,0.82065 2.1457,1.75958 3.25301,2.58022c1.50889,1.21991 3.01778,2.43982 4.52667,3.65974c0.40158,0.39926 0.89641,0.77443 0.78713,1.50681c-0.39323,0.4034 -0.95279,0.54793 -1.46781,0.4798c-2.47003,-1.47465 -4.57116,-3.44689 -6.74124,-5.30084c-1.27365,-1.07951 -2.52294,-2.06464 -3.86548,-3.02568c-0.3772,-0.30488 -0.87208,-0.68025 -1.43165,-0.53572c-1.30566,0.33724 -2.63565,0.58029 -3.81952,1.38905c-0.03621,1.01533 0.69386,1.5309 1.33072,2.07075c2.49856,1.97026 4.90386,3.96463 7.28479,5.86459c0.49484,0.37518 0.87207,0.68025 1.11151,1.22207c0.02433,0.09419 -0.02022,0.30685 -0.06473,0.51971c-0.53524,0.23872 -1.07043,0.47764 -1.67871,0.43359c-2.49441,-1.56902 -4.59554,-3.54127 -6.76562,-5.39522c-1.27365,-1.07951 -2.52294,-2.06465 -3.86549,-3.02569c-0.3772,-0.30488 -0.87203,-0.68006 -1.4316,-0.53553c-1.4233,0.26695 -2.75333,0.5098 -3.84394,1.29448c-0.17817,0.85084 0.24778,1.34449 0.74263,1.71966c1.13169,0.91503 2.17007,1.85395 3.27738,2.6746c1.62648,1.29001 3.22863,2.48584 4.76189,3.80014c0.40158,0.39926 0.98968,0.75035 0.90477,1.5771c-1.77197,0.45768 -3.51961,1.00956 -5.17394,1.53752c-2.49441,-1.56902 -4.57117,-3.44689 -6.64798,-5.32493c-1.27365,-1.07951 -2.64058,-2.13494 -4.07638,-3.07189c-0.3772,-0.30488 -0.87203,-0.68006 -1.24507,-0.5837c-1.44764,0.17275 -2.98857,0.36941 -4.07498,1.55551c0.10161,0.77857 0.52756,1.27222 1.02239,1.6474c1.014,0.84454 1.91047,1.61917 2.90014,2.36953c1.65086,1.38439 3.27733,2.67442 4.90385,3.96462c0.3772,0.30488 0.77882,0.70434 0.92494,1.27006c-0.55537,0.54596 -1.25695,0.52581 -1.84085,0.57615c-2.37677,-1.49873 -4.45358,-3.37678 -6.53038,-5.25482c-1.27361,-1.07933 -2.64054,-2.13476 -4.07633,-3.07171c-0.35287,-0.21069 -0.75445,-0.60995 -1.22076,-0.48951c-1.33004,0.24286 -2.87093,0.43969 -3.88846,1.50733c0.00835,0.80266 0.4343,1.29631 0.92915,1.67148c1.01405,0.84474 1.91047,1.61918 2.90014,2.36954c1.65086,1.38439 3.27738,2.6746 4.90386,3.96462c0.37725,0.30507 0.77882,0.70433 0.9737,1.45882c-2.46935,0.83896 -4.79675,1.84242 -7.27025,2.28013c-2.49441,-1.56902 -4.57117,-3.44688 -6.64798,-5.32493c-1.27365,-1.07951 -2.64058,-2.13494 -4.07637,-3.0719c-0.49484,-0.37518 -1.05856,-0.63188 -1.71139,-0.46326c-1.2124,0.31315 -2.44918,0.53192 -3.47085,1.19832c0.31667,1.22601 0.2234,1.2501 0.86021,1.78976c1.13169,0.91503 2.1457,1.75958 3.27738,2.6746c1.62648,1.29001 3.27734,2.67441 4.90386,3.96462c0.3772,0.30488 0.75445,0.60995 0.50319,1.17784c-0.76627,0.49975 -1.53673,0.59808 -2.29118,-0.01188c-0.49484,-0.37518 -0.98967,-0.75035 -1.48451,-1.12553c-1.41563,-1.244 -2.80687,-2.39362 -4.2225,-3.63762c-1.15602,-1.00922 -2.42968,-2.08873 -3.84111,-2.93132c-0.37725,-0.30507 -0.87208,-0.68024 -1.24513,-0.58389c-1.44764,0.17275 -2.98852,0.36959 -4.23712,1.69806c1.28201,1.88218 3.16389,3.00555 4.8148,4.39013c1.62648,1.29001 3.34627,2.55613 4.88368,4.27166c-0.78649,0.80661 -1.50821,1.0937 -2.47355,0.43754c-0.49484,-0.37518 -0.98967,-0.75035 -1.48451,-1.12553c-1.50889,-1.21991 -3.04211,-2.53402 -4.45774,-3.77802c-1.18039,-1.1036 -2.42968,-2.08873 -3.8411,-2.93131c-0.35287,-0.21069 -0.75445,-0.60995 -1.22076,-0.48951c-1.33004,0.24286 -2.84659,0.53388 -3.88846,1.50733c-0.01602,0.70828 0.38555,1.10755 0.78712,1.50681c0.75445,0.60995 1.53327,1.3143 2.28771,1.92425c1.88609,1.52479 3.88981,3.11989 5.7759,4.64468c0.35287,0.21069 0.61248,0.44547 0.52341,0.87098c-1.46366,0.88103 -5.42519,2.10541 -7.33913,2.3986c-2.37677,-1.49873 -4.45358,-3.37678 -6.53038,-5.25482c-1.62648,-1.29001 -3.18412,-2.69869 -5.11057,-3.6094c-1.39893,0.36133 -2.96418,0.46379 -4.14391,1.6738c0.16634,0.25887 0.14616,0.56591 0.28814,0.7304c0.28398,0.32916 0.56793,0.65813 0.82753,0.89291c1.01405,0.84474 1.91046,1.61917 2.90013,2.36952c1.65086,1.38439 3.27738,2.6746 4.90391,3.9648c0.3772,0.30488 0.77877,0.70414 0.92494,1.27006c-0.55542,0.54577 -1.11499,0.6903 -1.81652,0.67035c-2.37677,-1.49873 -4.45359,-3.37679 -6.53039,-5.25483c-1.27361,-1.07933 -2.64053,-2.13475 -4.07633,-3.07171c-0.35287,-0.21069 -0.75445,-0.60995 -1.22076,-0.48951c-1.33004,0.24286 -2.87092,0.4397 -3.88846,1.50734c0.00835,0.80266 0.4343,1.29631 0.92915,1.67148c1.13165,0.91484 2.26333,1.82986 3.39497,2.74471c1.53327,1.3143 3.13542,2.51011 4.66864,3.82423c0.2596,0.23478 0.73007,0.51556 0.50319,1.17783c-2.02737,0.62432 -4.03042,1.34284 -6.15106,1.99126c-1.55765,-1.40867 -3.09086,-2.72277 -4.53086,-4.06115c-1.72394,-1.66735 -3.54114,-3.31062 -5.56505,-4.59867c-0.47046,-0.28079 -0.89641,-0.77444 -1.48031,-0.7241c-1.44768,0.17256 -2.98857,0.36941 -4.07498,1.55552c0.17465,1.06134 0.90476,1.5771 1.54156,2.11676c2.42968,2.08873 4.97695,4.24758 7.40663,6.33631c0.2596,0.23478 0.61243,0.44528 0.54774,0.96517c-0.74195,0.59394 -1.41914,0.66818 -2.26685,0.08232c-1.95497,-1.40632 -3.77218,-3.04959 -5.56504,-4.59866c-1.18035,-1.10341 -2.54727,-2.15884 -3.98307,-3.0958c-0.47046,-0.28079 -0.96529,-0.65597 -1.52486,-0.51144c-1.30566,0.33724 -2.63571,0.58009 -3.81957,1.38886c-0.03621,1.01533 0.69386,1.5309 1.33072,2.07075c2.49856,1.97026 4.90385,3.96462 7.28479,5.86459c0.49484,0.37518 0.87208,0.68025 1.01825,1.24616c-0.57974,0.45157 -1.25696,0.52582 -2.05176,0.52995c-0.70574,-0.42138 -1.4358,-0.93696 -2.19024,-1.54691c-1.41563,-1.244 -2.83125,-2.48799 -4.2225,-3.63762c-1.24928,-0.98513 -2.49856,-1.97026 -3.8411,-2.93131c-0.40163,-0.39945 -0.94096,-0.56178 -1.50055,-0.41724c-1.28133,0.43143 -2.54244,0.556 -3.63304,1.34068c-0.12947,1.03941 0.69391,1.53109 1.33072,2.07075c2.52294,2.06464 4.92824,4.059 7.4268,6.02927c0.3772,0.30488 0.63681,0.53965 0.71404,1.22385c-1.0015,0.35935 -2.00299,0.71871 -3.87243,0.79905z" data-paper-data="{&quot;index&quot;:null}" fill="#ffffff"/><path d="M374.81633,213.40607c-3.02892,0.9835 -5.96458,1.94289 -8.99351,2.92638c-0.18652,0.04818 -0.27978,0.07226 -0.46631,0.12044c-2.55842,1.26448 -5.47386,1.91702 -8.19866,2.92244c-2.72476,1.00561 -5.5915,1.84673 -8.34064,2.75796c-5.12518,1.72628 -10.13278,3.52268 -15.25801,5.24877c-3.40197,1.07985 -6.89715,2.18396 -10.29912,3.26381c-0.18652,0.04818 -0.49068,0.02606 -0.65283,0.16862c-2.37189,1.2163 -4.93871,1.67792 -7.3837,2.61126c-3.23562,1.33871 -6.6863,2.22998 -10.08828,3.30983c-0.34867,0.19073 -0.65283,0.16862 -0.90824,0.33526c-2.74494,1.31266 -5.77801,1.8949 -8.68935,2.9485c-3.35321,1.2686 -6.61322,2.51293 -10.08822,3.31c-0.39743,0.00198 -0.67721,0.07424 -0.93262,0.24089c-2.37194,1.21611 -4.93871,1.67792 -7.38369,2.61126c-3.44647,1.29269 -7.05935,2.32633 -10.55457,3.43026c-0.18652,0.04818 -0.27978,0.07226 -0.46631,0.12044c-2.98018,1.17225 -5.89145,2.22603 -8.92038,3.20953c-2.12064,0.64841 -4.24132,1.29665 -6.31325,2.13362c-2.79365,1.12407 -5.70913,1.77643 -8.50283,2.90032c-3.44647,1.29269 -7.08368,2.23214 -10.55454,3.43045c-1.8409,0.57596 -3.65738,1.24649 -5.49828,1.82245c-0.44193,0.21482 -0.76626,0.49975 -1.23257,0.62019c-1.09476,0.38344 -1.48383,1.18808 -1.42677,2.17931c0.0167,1.60532 0.10229,3.09218 0.21226,4.67342c0.12598,0.87296 0.15868,1.76981 0.00488,2.71504c-0.72171,0.28709 -1.30151,0.73847 -1.95434,0.90709c-2.12064,0.64841 -4.14802,1.27274 -6.12673,2.08545c-2.16519,0.86108 -4.33039,1.72215 -6.58884,2.60731c-0.90824,0.33526 -1.79214,0.76472 -2.89111,0.74674c-0.58042,-1.86203 -0.36605,-3.72819 -0.64236,-5.56829c-0.25193,-1.74572 -0.22409,-3.56371 -0.47606,-5.30963c-0.183,-1.864 -0.15515,-3.68199 -0.22061,-5.47608c0.4176,-0.30902 0.74195,-0.59394 1.11499,-0.6903c2.91128,-1.05379 5.79824,-2.20176 8.80279,-3.27964c3.07344,-1.19634 6.14691,-2.39249 9.29342,-3.30588c4.24132,-1.29665 8.34069,-2.75777 12.46437,-4.1247c3.86823,-1.20047 7.68781,-2.58934 11.5317,-3.884c2.65588,-0.88714 5.40501,-1.79837 8.03652,-2.77988c2.91128,-1.05379 5.87127,-1.91899 8.80693,-2.8784c0.16215,-0.14256 0.46631,-0.12044 0.62846,-0.263c1.81237,-1.07158 3.98172,-1.53142 5.98476,-2.24993c3.72631,-1.36477 7.43239,-2.42269 11.20741,-3.59889c0.34867,-0.19073 0.62845,-0.263 0.90824,-0.33527c2.65588,-0.88714 5.19411,-1.84456 7.84999,-2.7317c3.49523,-1.10394 7.08368,-2.23214 10.57891,-3.33607c0.18652,-0.04818 0.27979,-0.07227 0.46631,-0.12044c2.81802,-1.0297 5.72931,-2.08348 8.66497,-3.04288c3.49523,-1.10394 7.08373,-2.23195 10.57891,-3.33607c0.18652,-0.04818 0.27978,-0.07226 0.4663,-0.12044c2.74499,-1.31246 5.6848,-1.87063 8.50284,-2.90033c3.75064,-1.27057 7.59453,-2.56524 11.34523,-3.83564c4.03042,-1.34284 8.15411,-2.70977 12.16016,-4.14699c2.16523,-0.86089 4.37913,-1.5334 6.59303,-2.20589c2.8424,-0.93532 5.72936,-2.0833 8.68936,-2.9485c0.74609,-0.19271 1.58544,-0.40951 2.40042,-0.72068c3.81957,-1.38886 7.6391,-2.77791 11.55608,-3.78962c1.05026,-0.17059 1.98288,-0.41148 3.12638,-0.60616c0.17118,2.97371 0.36258,5.64056 0.64724,8.28333c0.37787,2.61849 0.7558,5.23717 0.87826,8.0223c-0.46631,0.12044 -0.74609,0.19271 -1.02587,0.26497c-2.28278,0.79097 -4.56982,1.18033 -6.80389,2.15988c-1.00155,0.35917 -1.95435,0.9071 -3.12633,0.60635c-1.07947,-2.63863 -0.73567,-5.54441 -1.67731,-8.41979c-0.55957,0.14453 -0.93262,0.24089 -0.81497,0.31118z" data-paper-data="{&quot;index&quot;:null}" fill="#216aff"/><path d="M373.64772,224.67337c-2.65588,0.88714 -5.21844,1.75037 -7.87432,2.63751c-6.59304,2.20589 -13.09282,4.38769 -19.68586,6.59359c-3.93716,1.31875 -7.96759,2.6616 -11.99801,4.00444c-3.02892,0.9835 -5.96458,1.94289 -8.99351,2.92638c-5.12518,1.72628 -10.15716,3.4283 -15.28234,5.15458c-3.09781,1.10196 -6.31326,2.13362 -9.43545,3.14121c-6.59304,2.20589 -13.09281,4.3877 -19.68585,6.59359c-5.77801,1.8949 -11.53171,3.884 -17.28539,5.8731c-6.59304,2.20589 -13.25496,4.53025 -19.82363,6.83052c-3.75068,1.27039 -7.5946,2.56506 -11.34523,3.83564c-1.28128,0.43162 -2.56261,0.86305 -4.07913,1.15427c-0.3981,-2.31163 -0.37445,-4.53105 -0.53728,-6.7021c0.25541,-0.16665 0.51081,-0.33329 0.69733,-0.38147c4.84544,-1.65383 9.78412,-3.33195 14.62956,-4.98577c4.84544,-1.65383 9.80849,-3.23756 14.65388,-4.89158c5.56717,-1.94092 11.04107,-3.85775 16.63261,-5.70428c2.56256,-0.86323 5.12518,-1.72628 7.68781,-2.58934c4.93866,-1.67811 9.87738,-3.35603 14.81604,-5.03414c2.8424,-0.93532 5.68479,-1.87063 8.52719,-2.80594c5.66043,-1.96501 11.34518,-3.83581 17.00561,-5.80083c2.65588,-0.88714 5.40501,-1.79836 8.06085,-2.68569c4.84544,-1.65383 9.59759,-3.28376 14.44304,-4.93759c5.03192,-1.70219 10.08828,-3.30983 15.1202,-5.01202c2.91128,-1.05379 5.82257,-2.10756 8.75824,-3.06697c1.81652,-0.67035 3.77502,-1.17621 5.61587,-1.75235c0.67789,2.23937 0.23248,4.36656 1.30775,6.60377c-0.72171,0.28709 -1.32585,0.64429 -1.92997,1.00148z" data-paper-data="{&quot;index&quot;:null}" fill="#d0e9ea"/><path d="M430.37004,261.32917c-6.42525,-6.38843 -12.64381,-13.13208 -18.76915,-19.90001c-6.3849,-7.00252 -12.51439,-14.17168 -19.29252,-20.7708c-1.46434,-1.43257 -2.41366,-2.79701 -2.48326,-4.99234c-0.17538,-3.37514 -0.63054,-6.67801 -0.99244,-10.00497c-0.05286,-0.58981 -0.0125,-1.2039 0.21438,-1.86616c0.37725,0.30507 0.70573,0.42139 0.87208,0.68025c2.10534,2.37366 4.32827,4.81743 6.45799,7.28547c4.99365,5.8529 10.05618,11.58732 15.28091,17.17939c2.03225,2.09071 4.08884,4.27561 5.95895,6.50887c3.48061,4.23175 7.44766,8.03582 10.69719,12.52842c1.06691,1.43455 1.92297,2.82307 2.17495,4.56898c0.3577,2.92553 0.71544,5.85125 1.07314,8.77679c0.02438,0.09438 -0.04455,0.21266 -0.22688,0.66227c-0.37725,-0.30507 -0.73007,-0.51557 -0.96534,-0.65616z" data-paper-data="{&quot;index&quot;:null}" fill="#216aff"/><path d="M363.23563,284.50408c-0.81498,0.31118 -1.51236,0.69246 -2.35172,0.90926c-2.68021,0.79294 -5.26719,1.56162 -7.9474,2.35456c-3.96154,1.22438 -7.92308,2.44874 -11.88457,3.6733c-5.08068,1.51343 -10.25462,3.05096 -15.42856,4.58848c-4.70763,1.41708 -9.4396,2.73997 -14.14723,4.15705c-0.53519,0.23891 -1.16364,0.50192 -1.82068,0.26911c-2.38092,-1.89998 -4.62407,-4.03689 -6.86723,-6.1738c-2.40945,-2.3956 -4.88784,-4.67291 -7.2284,-7.18696c-1.48872,-1.52695 -3.13957,-2.91134 -4.3972,-4.69915c-0.19072,-0.35325 -0.56793,-0.65813 -0.36537,-1.41459c0.34447,-0.59216 1.18382,-0.80896 1.99885,-1.11995c3.47085,-1.19832 6.94172,-2.39662 10.38824,-3.68913c4.98322,-1.89077 10.15716,-3.4283 15.30672,-5.0602c6.71063,-2.13579 13.56328,-4.1069 20.32266,-6.05392c0.55957,-0.14453 1.18802,-0.40753 1.7476,-0.55206c1.11914,-0.28906 2.30721,-0.6964 3.51961,-1.00955c0.81498,-0.31118 1.47201,-0.07837 1.971,0.69804c0.33269,0.51774 0.87623,1.08149 1.30219,1.57513c2.67326,3.03179 5.6952,5.87285 8.62386,8.738c2.81108,2.79504 5.39107,5.85093 8.03995,8.78834c-0.13362,0.63818 -0.34036,0.99321 -0.7823,1.20804zM308.2128,276.38243c-2.37609,0.81488 -4.68326,1.51146 -7.05935,2.32633c-0.18652,0.04818 -0.32433,0.28493 -0.48649,0.42749c-2.49373,0.74458 -5.0605,1.20638 -7.40802,2.51707c1.80118,2.35154 12.5951,12.94351 17.05283,16.72153c1.4233,-0.26695 2.89111,-0.74674 4.33459,-1.32072c0.53519,-0.23891 1.16369,-0.50172 1.72326,-0.64625c5.08068,-1.51343 10.06805,-3.00296 15.05547,-4.49232c0.18652,-0.04818 0.44197,-0.21463 0.6285,-0.26281c2.68021,-0.79294 5.42935,-1.70417 8.10955,-2.49712c1.79635,-0.3633 3.49938,-0.70269 5.19827,-1.44333c2.28283,-0.79079 4.59419,-1.08595 6.73506,-2.04121c2.96414,-0.46397 5.4739,-1.91683 8.4826,-2.59347c-0.57627,-1.46079 -1.68359,-2.28144 -2.51107,-3.17417c-3.78057,-3.85244 -7.4435,-7.63459 -11.22408,-11.48703c-0.66119,-0.63404 -1.39125,-1.14962 -1.98355,-1.90213c-0.64096,-0.9409 -1.64665,-0.98297 -2.46168,-0.67198c-3.53973,1.31678 -7.3433,1.99736 -10.97629,3.33823c-3.07348,1.19615 -6.33763,2.03925 -9.45981,3.04683c-0.55957,0.14453 -1.18802,0.40753 -1.74759,0.55206c-1.88961,0.38739 -3.66158,0.84507 -5.45373,1.60979c-2.09631,0.74261 -4.21694,1.39101 -6.54848,1.99323z" data-paper-data="{&quot;index&quot;:null}" fill="#010201"/><path d="M236.20167,291.46095c-1.28128,0.43162 -2.65583,0.88731 -3.91278,1.41313c-1.51236,0.69246 -2.80205,0.32123 -4.05133,-0.6639c-3.60587,-2.79091 -7.2117,-5.58164 -10.81757,-8.37256c-0.37725,-0.30507 -0.8477,-0.58587 -0.85605,-1.38853c0.50666,-0.73453 1.32164,-1.04571 2.22992,-1.38079c1.0015,-0.35935 2.02738,-0.62433 3.00455,-1.07787c1.16369,-0.50173 2.0072,-0.31729 3.11451,0.50336c3.53694,2.9092 6.84285,6.07942 10.51761,8.75186c0.51922,0.46956 1.03843,0.93912 1.39545,1.55104c-0.158,0.5438 -0.4134,0.71044 -0.62431,0.66424zM228.26888,288.47982c0.16634,0.25887 0.21504,0.44744 0.35707,0.61212c0.96529,0.65597 1.93065,1.31213 2.92032,2.06249c0.70154,0.01996 1.37874,-0.05428 2.00304,-0.71852c-0.94932,-1.36444 -2.38097,-1.90015 -3.46806,-3.02767c-0.673,0.47566 -1.20825,0.71438 -1.81237,1.07158zM226.75516,284.54507c-1.18807,0.40734 -2.25845,0.88516 -3.44652,1.29251c0.5923,0.75251 1.20477,1.19799 2.00372,1.59509c1.00155,-0.35917 1.8854,-0.78881 2.88696,-1.14798c-0.21925,-0.84887 -0.90061,-1.17587 -1.44415,-1.73962zM221.14625,282.47267c0.83168,1.29415 0.83167,1.29414 3.09018,0.40917c-0.9737,-1.45883 -1.99537,-0.79242 -3.09018,-0.40917z" data-paper-data="{&quot;index&quot;:null}" fill="#020202"/><path d="M279.33861,285.1481c2.31971,0.5075 3.46806,3.02766 2.29674,5.04052c-1.51588,2.60464 -6.63344,2.81979 -8.39006,0.25559c-0.99803,-1.55301 -0.73495,-3.2306 0.79759,-4.23011c0.673,-0.47566 1.46366,-0.88103 2.23413,-0.97936c1.0015,-0.35935 2.00721,-0.31729 3.06161,-0.08663zM275.34922,288.19046c-0.48649,0.42749 -0.38488,1.20606 0.20323,1.55715c0.73012,0.51576 3.36997,0.3369 3.99007,-0.72876c0.3689,-0.49759 0.29161,-1.18197 -0.29649,-1.53306c-0.61248,-0.44547 -1.22075,-0.48952 -2.15336,-0.24863c-0.65283,0.16862 -1.25695,0.52581 -1.74344,0.9533z" data-paper-data="{&quot;index&quot;:null}" fill="#030606"/><path d="M287.1106,292.89901c1.85755,1.02917 2.36909,3.00968 1.00705,4.66928c-0.13781,0.23675 -0.39322,0.4034 -0.64863,0.57005c-1.39057,1.16399 -3.07348,1.19615 -4.78072,1.13412c-1.21655,-0.08808 -2.51458,-1.26198 -2.83125,-2.488c-0.31667,-1.22601 -0.00068,-2.31361 0.99667,-3.0742c0.673,-0.47566 1.32169,-1.04552 2.09211,-1.14404c1.30566,-0.33724 3.03728,-0.18083 4.16476,0.33277zM283.06483,297.26374c1.24093,0.18247 2.29118,0.01188 3.14656,-0.9132c0.46211,-0.52187 0.42942,-1.41873 -0.25194,-1.74573c-0.82338,-0.49167 -1.73581,-0.55784 -2.61967,-0.12818c-0.53524,0.23872 -1.0461,0.57182 -1.46366,0.88103c0.10996,1.58124 0.25194,1.74572 1.18871,1.90607z" data-paper-data="{&quot;index&quot;:null}" fill="#040605"/><path d="M243.99872,301.61984c-2.16172,-1.05129 -2.51526,-3.57559 -0.73147,-5.14298c1.32169,-1.04552 2.88276,-1.54941 4.54549,-1.27453c1.75595,0.2506 3.03375,1.73136 3.09916,3.52526c0.10581,1.18 -0.98064,2.36592 -2.54171,2.8698c-0.18652,0.04818 -0.27978,0.07226 -0.46631,0.12044c-1.49219,0.38542 -2.80205,0.32123 -3.90516,-0.09799zM244.41564,298.99721c0.19488,0.75448 1.2291,1.29218 2.27931,1.1214c0.46631,-0.12044 1.00154,-0.35916 1.4191,-0.66837c0.76627,-0.49975 0.61595,-1.4669 -0.18301,-1.864c-0.56377,-0.25689 -1.19642,-0.39533 -1.66274,-0.27488c-1.05021,0.17078 -1.92996,1.00147 -1.85267,1.68586z" data-paper-data="{&quot;index&quot;:null}" fill="#040505"/><path d="M265.93816,291.42605c1.46018,1.03134 1.66341,2.58848 0.62571,3.96316c-1.70656,2.25158 -5.84279,2.41443 -7.78178,0.29963c-0.82753,-0.89291 -0.95347,-1.76568 -0.30899,-2.73696c0.68903,-1.18394 1.662,-2.03891 3.10963,-2.21166c1.44347,-0.57399 2.89531,-0.34532 4.35544,0.68584zM260.71971,293.17642c-0.53524,0.23872 -0.59578,1.15986 -0.10094,1.53503c0.75445,0.60995 1.66689,0.67611 2.5995,0.43523c0.83935,-0.2168 1.39472,-0.76275 1.61744,-1.82626c-1.41563,-1.244 -2.81455,-0.88267 -4.11602,-0.14402z" data-paper-data="{&quot;index&quot;:null}" fill="#030604"/><path d="M266.26937,314.27757c-1.11078,1.09172 -4.93865,1.6781 -6.49211,0.67086c-1.67103,-1.07735 -1.99606,-3.10602 -0.56093,-4.48268c1.43508,-1.37684 4.11949,-1.76835 5.97705,-0.73918c0.82338,0.49167 1.55344,1.00725 1.65506,1.78582c0.2234,1.2501 0.04523,2.10094 -0.57908,2.76518zM262.73242,311.36838c-0.77047,0.09833 -1.65853,0.12655 -2.28283,0.79078c-0.25541,0.16665 -0.25126,0.56789 -0.0849,0.82675c0.14197,0.16449 0.28393,0.32897 0.51922,0.46956c0.68136,0.327 1.28964,0.37104 2.03573,0.17833c0.74609,-0.19271 1.51657,-0.29103 1.76362,-1.26034c-0.40577,-0.80069 -1.08713,-1.12769 -1.95082,-1.00508z" data-paper-data="{&quot;index&quot;:null}" fill="#030506"/><path d="M257.01219,303.08753c1.24508,0.5837 1.87005,2.23308 1.2054,3.5114c-1.30499,2.65084 -5.76131,3.50022 -8.26823,0.7273c-0.82753,-0.89291 -0.74682,-2.12109 0.08419,-3.14055c0.69323,-0.78252 1.57709,-1.21217 2.22992,-1.38079c1.58545,-0.40951 3.62122,-0.23098 4.74872,0.28262zM254.60057,307.23134c1.11914,-0.28906 1.28133,-0.43143 1.73508,-1.75596c-2.16587,-1.45253 -3.33371,-1.35205 -4.85795,0.44993c0.80735,1.19995 1.79287,1.54907 3.12286,1.30603z" data-paper-data="{&quot;index&quot;:null}" fill="#050504"/><path d="M293.19134,299.87941c2.33989,0.20045 3.48829,2.72081 2.10606,4.68746c-0.3689,0.49759 -0.85538,0.92508 -1.39057,1.16399c-1.25695,0.52581 -2.61132,0.67448 -4.03882,0.54c-0.6326,-0.13824 -1.19638,-0.39514 -1.69122,-0.77031c-1.13165,-0.91484 -1.33487,-2.47198 -0.52824,-3.58583c0.55121,-0.94719 1.50402,-1.49512 2.48118,-1.94867c1.07459,-0.0764 2.00719,-0.31728 3.06161,-0.08663zM290.87724,304.40073c0.70154,0.01996 1.47196,-0.07855 2.14502,-0.55403c0.44193,-0.21482 0.71752,-0.68851 0.59573,-1.16004c-0.05286,-0.58981 -0.56792,-0.65813 -0.98967,-0.75035c-1.5451,-0.20459 -2.5466,0.15477 -3.5843,1.52945c0.40572,0.8005 1.13165,0.91483 1.83323,0.93498z" data-paper-data="{&quot;index&quot;:null}" fill="#050304"/><path d="M279.64062,305.1904c1.36687,1.05524 1.49701,2.32942 0.55257,3.68002c-0.36885,0.49778 -0.85538,0.92507 -1.3662,1.25837c-1.67456,0.83483 -3.28853,0.74872 -4.93103,0.16698c-0.3285,-0.11631 -0.70574,-0.42138 -0.96534,-0.65616c-1.06276,-1.03331 -1.1442,-2.11892 -0.3619,-3.32695c0.73774,-0.99537 1.71491,-1.44892 3.02057,-1.78616c1.37455,-0.45571 2.70879,-0.29714 4.05134,0.6639zM275.8419,308.58582c0.70159,0.02015 1.49639,0.01601 2.14502,-0.55403c0.48654,-0.4273 0.47819,-1.22996 -0.17885,-1.46277c-0.65698,-0.23261 -1.45184,-0.22867 -2.19793,-0.03597c-0.72171,0.28709 -0.90824,0.33527 -1.59728,1.51921c0.3814,0.70631 1.15187,0.60799 1.82903,0.53356z" data-paper-data="{&quot;index&quot;:null}" fill="#040405"/><path d="M266.67171,303.51003c-1.88193,-1.12355 -2.04481,-3.29479 -0.30553,-4.64933c1.80812,-1.4732 4.77651,-1.53554 6.63823,-0.10514c1.36692,1.05542 1.52559,2.82524 0.22829,3.96514c-0.71757,0.68833 -1.48383,1.18808 -2.44078,1.33476c-1.49219,0.38542 -2.91969,0.25093 -4.12021,-0.54544zM269.59829,299.43418c-0.7948,0.00413 -1.63416,0.22093 -2.25845,0.88517c-0.46211,0.52187 -0.38488,1.20606 0.20323,1.55715c0.70574,0.42138 1.54924,0.60582 2.3886,0.38902c0.93261,-0.24088 1.11914,-0.28906 2.01907,-1.4268c-0.57213,-1.05956 -1.41562,-1.244 -2.35244,-1.40454z" data-paper-data="{&quot;index&quot;:null}" fill="#040506"/><path d="M358.043,264.01487c2.72476,-1.00561 5.59154,-1.84654 8.38939,-2.56919c0.65283,-0.16862 1.39892,-0.36132 2.03573,0.17834c0.07724,0.68419 -0.22273,1.0635 -0.82685,1.42069c-0.76627,0.49975 -1.56107,0.50389 -2.37605,0.81505c-2.30721,0.6964 -4.54548,1.27453 -6.85265,1.97111c-0.65283,0.16862 -1.33004,0.24285 -1.89796,-0.41528c0.15385,-0.94503 0.87556,-1.23212 1.52839,-1.40074z" data-paper-data="{&quot;index&quot;:null}" fill="#0c1212"/><path d="M388.29798,262.13574c-0.76627,0.49975 -1.56107,0.50389 -2.37604,0.81505c-2.30721,0.6964 -4.54549,1.27453 -6.85265,1.97111c-0.65283,0.16862 -1.33004,0.24285 -1.89795,-0.41528c0.15385,-0.94503 0.87556,-1.23212 1.59732,-1.51902c2.70039,-1.09998 5.59149,-1.84673 8.38934,-2.56938c0.65283,-0.16862 1.39892,-0.36132 2.03573,0.17834c0.17055,0.66029 -0.22268,1.06369 -0.89573,1.53916z" data-paper-data="{&quot;index&quot;:null}" fill="#0d1313"/><path d="M411.56606,260.55248c-0.48649,0.42749 -0.90409,0.7365 -1.55692,0.90512c-2.46935,0.83896 -5.03197,1.70201 -7.61891,2.47086c-0.55957,0.14453 -1.18807,0.40735 -1.82068,0.26911c-0.42181,-0.09241 -0.81917,-0.09025 -0.94096,-0.56178c0.04035,-0.61409 0.48228,-0.82892 1.01752,-1.06764c2.74494,-1.31266 5.77801,-1.8949 8.66497,-3.04288c0.72171,-0.28709 1.63416,-0.22093 2.3844,-0.01239c0.23943,0.54182 0.12599,0.87296 -0.12942,1.03961z" data-paper-data="{&quot;index&quot;:null}" fill="#090c0d"/><path d="M385.7215,257.16767c-0.74195,0.59394 -1.46366,0.88103 -2.30301,1.09782c-2.12064,0.64841 -4.17239,1.17836 -6.1511,1.99107c-0.72171,0.28709 -1.49219,0.38542 -2.26261,0.48392c-0.39743,0.00198 -0.98132,0.05231 -1.22076,-0.48951c-0.10161,-0.77857 0.55121,-0.9472 1.08641,-1.18611c2.74499,-1.31246 5.68479,-1.87063 8.47845,-2.9947c0.81502,-0.31099 1.72748,-0.24483 2.57098,-0.06039c0.26376,0.63602 0.05706,0.99124 -0.19835,1.15789z" data-paper-data="{&quot;index&quot;:null}" fill="#090d0e"/><path d="M372.22431,265.38208c0.27979,-0.07227 0.63265,0.13843 0.70574,0.42138c0.07303,0.28277 -0.06473,0.51971 -0.29581,0.78055c-0.81082,0.71241 -1.788,1.16596 -2.7895,1.52532c-2.30716,0.69659 -4.54543,1.27471 -6.77955,2.25406c-0.34867,0.19073 -0.83935,0.2168 -1.33004,0.24286c-0.18652,0.04818 -0.44607,-0.18641 -0.5881,-0.35109c-0.16634,-0.25887 -0.14613,-0.56572 0.0849,-0.82675c0.18238,-0.44941 0.6243,-0.66424 1.09061,-0.78468c2.72476,-1.00561 5.44957,-2.01103 8.08107,-2.99254c0.65283,-0.16862 1.11914,-0.28907 1.82068,-0.26911z" data-paper-data="{&quot;index&quot;:null}" fill="#080b0b"/><path d="M413.77368,266.01832c-3.02892,0.9835 -6.17543,1.89687 -9.20436,2.88037c-0.37305,0.09635 -0.77048,0.09832 -1.16785,0.10049c-0.30417,-0.02211 -0.65703,-0.23281 -0.73011,-0.51576c-0.09741,-0.37715 0.13366,-0.63798 0.38907,-0.80463c0.60412,-0.35719 1.13932,-0.59611 1.67451,-0.83502c1.56112,-0.5037 3.19111,-1.12587 4.75218,-1.62975c1.18802,-0.40753 2.30717,-0.69659 3.51957,-1.00974c0.65283,-0.16862 1.39892,-0.36132 1.99121,0.39119c-0.17817,0.85084 -0.66466,1.27832 -1.22423,1.42285z" data-paper-data="{&quot;index&quot;:null}" fill="#07090a"/><path d="M393.00349,267.25824c-1.58545,0.40951 -3.02887,0.98367 -4.58999,1.48737c-1.2124,0.31315 -2.49368,0.74477 -3.70609,1.05791c-0.55957,0.14453 -1.02587,0.26497 -1.56526,0.10246c-0.2109,-0.0462 -0.44613,-0.1866 -0.49484,-0.37518c-0.04871,-0.18858 -0.02853,-0.49562 0.13362,-0.63818c0.51086,-0.33311 1.02173,-0.66621 1.55692,-0.90512c1.63,-0.62217 3.25999,-1.24433 4.91433,-1.7723c1.18802,-0.40753 2.30716,-0.6966 3.51956,-1.00974c0.65283,-0.16862 1.30566,-0.33724 1.99122,0.39119c-0.34032,0.9934 -1.15534,1.30439 -1.75946,1.66158z" data-paper-data="{&quot;index&quot;:null}" fill="#07090a"/><path d="M401.56341,251.86856c-1.18802,0.40753 -2.33154,0.60221 -3.49518,1.10412c-1.53674,0.59808 -3.19106,1.12606 -4.77651,1.53555c-0.46631,0.12044 -1.05026,0.17058 -1.54094,0.19665c-0.30412,-0.02192 -0.63265,-0.13843 -0.73007,-0.51558c-0.09741,-0.37715 0.13361,-0.63817 0.38907,-0.80463c0.41755,-0.30921 0.95279,-0.54794 1.39472,-0.76276c1.63,-0.62217 3.26001,-1.24434 4.91434,-1.7723c1.18802,-0.40753 2.30716,-0.69659 3.51956,-1.00973c0.65283,-0.16862 1.33004,-0.24285 2.0156,0.48557c-0.96882,1.25621 -0.96882,1.25621 -1.69058,1.5431z" data-paper-data="{&quot;index&quot;:null}" fill="#060909"/><path d="M396.87736,257.606c2.53823,-0.95743 5.21849,-1.75019 7.78111,-2.61323c0.53519,-0.23891 1.11914,-0.28906 1.60978,-0.31531c0.39743,-0.00198 0.91243,0.06616 0.96534,0.65616c-0.92426,1.04355 -0.92426,1.04355 -1.92581,1.40271c-1.37455,0.45571 -2.84235,0.9355 -4.31021,1.41511c-1.46781,0.47979 -2.95999,0.86521 -4.45217,1.25061c-0.55957,0.14453 -1.23678,0.21877 -1.66689,-0.67612c0.50666,-0.73453 1.22843,-1.02143 1.99885,-1.11994z" data-paper-data="{&quot;index&quot;:null}" fill="#060909"/><path d="M369.90456,278.35517c0.39323,-0.4034 0.90408,-0.7365 1.3704,-0.85695c2.81802,-1.0297 5.66043,-1.96501 8.50284,-2.90033c0.55957,-0.14453 1.11914,-0.28905 1.58959,-0.00826c0.19067,0.35306 0.19488,0.75448 -0.12946,1.03941c-0.53104,0.64015 -1.25276,0.92724 -1.97452,1.21414c-2.65583,0.88732 -5.40496,1.79854 -8.06084,2.68568c-0.46631,0.12044 -0.93262,0.24088 -1.40307,-0.03991c-0.28398,-0.32916 -0.40578,-0.80068 0.10509,-1.13379z" data-paper-data="{&quot;index&quot;:null}" fill="#070909"/><path d="M386.32626,272.60468c0.57974,-0.45157 1.27714,-0.83286 2.02323,-1.02557c2.49369,-0.74476 4.98736,-1.48953 7.50543,-2.13992c0.46631,-0.12044 0.86373,-0.12241 1.35441,-0.14847c0.21085,0.04601 0.44607,0.18641 0.5881,0.35109c0.16634,0.25887 0.05286,0.5898 -0.0849,0.82675c-0.53104,0.64015 -1.25281,0.92705 -1.9989,1.11976c-2.49369,0.74476 -4.98736,1.48953 -7.4811,2.23411c-0.83935,0.2168 -1.51652,0.29122 -2.31552,-0.10607c-0.02853,-0.49562 0.0849,-0.82675 0.40925,-1.11168z" data-paper-data="{&quot;index&quot;:null}" fill="#050606"/><path d="M367.34406,272.67863c2.58695,-0.76885 5.08068,-1.51343 7.69201,-2.18791c0.46631,-0.12044 0.86368,-0.1226 1.35437,-0.14867c0.2109,0.0462 0.44613,0.1866 0.49484,0.37518c0.14197,0.16449 0.02853,0.49562 -0.04036,0.61409c-0.41345,0.71025 -1.13516,0.99734 -1.88125,1.19005c-2.56261,0.86305 -5.12939,1.32486 -7.66763,2.28229c-0.72171,0.28709 -1.51656,0.29104 -2.33989,-0.20045c0.5714,-1.25424 1.47968,-1.58932 2.38791,-1.92458z" data-paper-data="{&quot;index&quot;:null}" fill="#050606"/><path d="M351.45964,285.13122c-7.34468,-2.63004 -14.64483,-5.47274 -21.87602,-8.43373c-2.91201,-1.26001 -5.89287,-2.40137 -8.78049,-3.56699c-0.11764,-0.07029 -0.35286,-0.21069 -0.49484,-0.37518c0.55957,-0.14453 1.18802,-0.40753 1.7476,-0.55206c3.21544,-1.03167 6.36195,-1.94505 9.45981,-3.04683c3.53973,-1.31678 7.3433,-1.99736 10.97629,-3.33823c0.81502,-0.31099 1.72746,-0.24483 2.46168,0.67198c0.47467,0.68222 1.32236,1.26809 1.98355,1.90213c3.78057,3.85244 7.53676,7.6105 11.22408,11.48703c0.85186,0.9871 1.86591,1.83184 2.51106,3.17416c-3.0087,0.67663 -5.61171,2.15359 -8.48259,2.59347c-0.32855,-0.1165 -0.49484,-0.37518 -0.73012,-0.51577z" data-paper-data="{&quot;index&quot;:null}" fill="#00ff00"/><path d="M311.5848,283.66016c6.94727,2.63201 13.8702,5.16984 20.67965,8.0386c-0.18652,0.04818 -0.44192,0.21482 -0.62845,0.263c-5.08068,1.51343 -10.0681,3.00279 -15.05551,4.49213c-0.55957,0.14453 -1.18802,0.40753 -1.72321,0.64644c-1.44347,0.57399 -2.91128,1.05379 -4.33459,1.32072c-4.4334,-3.68382 -15.22733,-14.27578 -17.05288,-16.72171c2.34756,-1.31049 4.91433,-1.7723 7.40801,-2.51706c3.56899,1.49263 7.0691,3.10373 10.70698,4.47788z" data-paper-data="{&quot;index&quot;:null}" fill="#00ff00"/><path d="M301.45763,278.73089c2.37604,-0.81506 4.65887,-1.60584 7.05934,-2.32633c3.68658,1.56274 7.46643,3.10138 11.24633,4.64022c5.21151,2.07437 10.39862,4.05435 15.61012,6.12871c1.64251,0.58173 3.21613,1.28194 4.88301,1.95806c-2.68021,0.79294 -5.42935,1.70417 -8.10955,2.49712c-6.80949,-2.86895 -13.82564,-5.3825 -20.6797,-8.03879c-3.54462,-1.39825 -7.02035,-2.91496 -10.58935,-4.40759c0.16219,-0.14237 0.32434,-0.28493 0.5798,-0.45139z" data-paper-data="{&quot;index&quot;:null}" fill="#87ff87"/><path d="M345.54795,287.66412c-4.43682,-1.77127 -8.94264,-3.42443 -13.31059,-5.31417c-4.57884,-1.93594 -9.18207,-3.96626 -13.71641,-6.11506c-1.22076,-0.48951 -2.69691,-0.81238 -3.66641,-1.86978c1.79214,-0.76472 3.56411,-1.2224 5.45373,-1.60979c0.11759,0.0701 0.28394,0.32897 0.49484,0.37518c3.00522,1.23574 5.89287,2.40137 8.78049,3.56699c7.2312,2.96098 14.53134,5.80369 21.87602,8.43373c0.23528,0.14059 0.49484,0.37518 0.73012,0.51577c-2.23413,0.97936 -4.54549,1.27452 -6.6418,2.01712z" data-paper-data="{&quot;index&quot;:null}" fill="#86ff86"/><path d="M340.21186,289.3442c-1.64251,-0.58173 -3.21612,-1.28193 -4.88296,-1.95787c-5.21151,-2.07437 -10.39866,-4.05454 -15.61017,-6.1289c-3.77984,-1.53865 -7.46648,-3.10157 -11.24633,-4.64022c2.09631,-0.74261 4.21694,-1.39101 6.31325,-2.13362c1.06276,1.03331 2.42127,1.28589 3.66641,1.86979c4.53429,2.14861 9.13751,4.17892 13.71636,6.11486c4.46125,1.86583 8.87376,3.5429 13.31063,5.31436c-1.69888,0.74064 -3.40197,1.07984 -5.2672,1.5616z" data-paper-data="{&quot;index&quot;:null}" fill="#01ff01"/><path d="M233.54931,290.43591c-0.53104,0.64015 -1.30151,0.73848 -2.00304,0.71852c-1.08293,-0.72626 -1.95502,-1.40651 -2.92032,-2.06249c-0.14202,-0.16468 -0.19072,-0.35326 -0.35707,-0.61212c0.60412,-0.35719 1.11499,-0.69029 1.81237,-1.07158c1.11146,1.22188 2.54312,1.7576 3.46806,3.02767z" data-paper-data="{&quot;index&quot;:null}" fill="#589ca0"/><path d="M225.31237,287.43266c-0.77462,-0.30291 -1.3871,-0.74838 -2.00372,-1.59509c1.28133,-0.43143 2.35171,-0.90925 3.44652,-1.29251c0.54355,0.56375 1.20057,0.79656 1.44415,1.73962c-1.07043,0.47764 -1.97866,0.8129 -2.88696,1.14798z" data-paper-data="{&quot;index&quot;:null}" fill="#5ba3a7"/><path d="M221.14625,282.47267c1.09481,-0.38325 2.0921,-1.14404 3.09018,0.40917c-2.2585,0.88498 -2.25849,0.88498 -3.09018,-0.40917z" data-paper-data="{&quot;index&quot;:null}" fill="#56999d"/><path d="M279.24603,287.4858c0.5881,0.35109 0.64101,0.94108 0.29649,1.53306c-0.64448,0.97128 -3.1667,1.22043 -3.99007,0.72876c-0.47046,-0.28079 -0.68972,-1.12966 -0.20323,-1.55715c0.48649,-0.42749 1.09061,-0.78468 1.74344,-0.9533c0.93261,-0.24088 1.54089,-0.19684 2.15336,0.24863z" data-paper-data="{&quot;index&quot;:null}" fill="#01f4f4"/><path d="M283.33979,294.47662c0.88385,-0.42965 1.7963,-0.36349 2.61967,0.12818c0.68136,0.327 0.8073,1.19977 0.25194,1.74573c-0.85538,0.92508 -1.99889,1.11975 -3.14656,0.9132c-0.93676,-0.16035 -1.07875,-0.32485 -1.18871,-1.90607c0.44193,-0.21482 0.92842,-0.64231 1.46366,-0.88103z" data-paper-data="{&quot;index&quot;:null}" fill="#35a76d"/><path d="M247.93104,297.58625c0.79895,0.3971 0.83168,1.29415 0.18301,1.864c-0.41755,0.30921 -0.85953,0.52384 -1.4191,0.66837c-1.05021,0.17078 -2.17769,-0.34282 -2.27931,-1.1214c-0.05291,-0.59 0.8268,-1.42088 1.85267,-1.68586c0.46631,-0.12044 1.07458,-0.07639 1.66274,0.27488z" data-paper-data="{&quot;index&quot;:null}" fill="#da6694"/><path d="M263.21828,295.1467c-0.83935,0.2168 -1.75179,0.15064 -2.5995,-0.43523c-0.56372,-0.2567 -0.50319,-1.17784 0.10094,-1.53503c1.27714,-0.83286 2.67606,-1.19418 4.11602,0.14402c-0.12947,1.03941 -0.66051,1.67956 -1.61744,1.82626z" data-paper-data="{&quot;index&quot;:null}" fill="#01f001"/><path d="M263.01289,313.60972c-0.74609,0.19271 -1.44763,0.17276 -2.03573,-0.17833c-0.23528,-0.14059 -0.37724,-0.30507 -0.51922,-0.46956c-0.16634,-0.25887 -0.14617,-0.56591 0.08492,-0.82676c0.6243,-0.66424 1.51236,-0.69245 2.28283,-0.79078c0.77042,-0.09852 1.47616,0.32287 1.85755,1.02917c-0.36469,0.89902 -1.11078,1.09172 -1.67035,1.23625z" data-paper-data="{&quot;index&quot;:null}" fill="#008bda"/><path d="M256.33565,305.47537c-0.45375,1.32453 -0.61594,1.4669 -1.73508,1.75596c-1.30566,0.33724 -2.31551,-0.10607 -3.12286,-1.30603c1.52423,-1.80198 2.69208,-1.90246 4.85795,-0.44993z" data-paper-data="{&quot;index&quot;:null}" fill="#ebe502"/><path d="M292.6283,301.93631c0.42176,0.09222 0.84355,0.18463 0.98967,0.75035c0.02853,0.49562 -0.17817,0.85083 -0.59573,1.16004c-0.5798,0.45139 -1.35022,0.5499 -2.14502,0.55403c-0.67721,0.07424 -1.30986,-0.06418 -1.83323,-0.93498c1.0377,-1.37468 2.01487,-1.82823 3.5843,-1.52945z" data-paper-data="{&quot;index&quot;:null}" fill="#f30001"/><path d="M275.54126,306.65152c0.72171,-0.28709 1.4233,-0.26695 2.19792,0.03596c0.65698,0.23261 0.7586,1.01119 0.17885,1.46277c-0.57974,0.45157 -1.35022,0.5499 -2.14502,0.55403c-0.58395,0.05015 -1.35436,0.14866 -1.76015,-0.65203c0.7823,-1.20803 0.85119,-1.3265 1.5284,-1.40074z" data-paper-data="{&quot;index&quot;:null}" fill="#de93ad"/><path d="M269.93166,302.26552c-0.83935,0.2168 -1.5896,0.00827 -2.3886,-0.38902c-0.61248,-0.44547 -0.66534,-1.03528 -0.20323,-1.55715c0.6243,-0.66424 1.43928,-0.97541 2.25845,-0.88517c0.91243,0.06616 1.75598,0.2508 2.35244,1.40454c-0.89994,1.13774 -1.06208,1.28029 -2.01907,1.4268z" data-paper-data="{&quot;index&quot;:null}" fill="#865492"/></g><g stroke="#000000"><path d="M275.62334,233.95818c21.77884,25.23887 19.64136,34.64559 13.51542,39.93172c-6.12595,5.28614 -28.74724,-10.88877 -50.52609,-36.12766c-21.77883,-25.23888 50.43563,-24.48982 56.56158,-29.77595c7.03227,-0.93565 5.67186,5.44768 -0.04718,10.83736c-7.05291,6.64674 -21.36529,12.9772 -19.50373,15.13453z" fill="#216aff" stroke-width="2"/><path d="M301.13677,245.02232c9.34803,10.83316 7.91809,27.38828 -3.19387,36.97688c-11.11196,9.5886 -27.69807,8.57969 -37.0461,-2.25348c-9.34803,-10.83316 -7.91808,-27.38829 3.19388,-36.97689c11.11196,-9.5886 27.69806,-8.57968 37.0461,2.25349z" fill="#faddbf" stroke-width="2"/><path d="M263.42779,262.14775c9.34803,10.83316 45.36597,9.35558 34.25401,18.94418c-11.11196,9.5886 -27.69807,8.57969 -37.0461,-2.25349c-9.34803,-10.83316 -6.55596,-27.52387 2.79207,-16.6907z" fill="#ef8b89" stroke-width="0"/></g></g></g></svg>