<svg version="1.1" xmlns="http://www.w3.org/2000/svg" xmlns:xlink="http://www.w3.org/1999/xlink" width="201.02272" height="327.84229" viewBox="0,0,201.02272,327.84229"><g transform="translate(-222.37746,-33.14513)"><g data-paper-data="{&quot;isPaintingLayer&quot;:true}" fill-rule="nonzero" stroke-linejoin="miter" stroke-miterlimit="10" stroke-dasharray="" stroke-dashoffset="0" style="mix-blend-mode: normal"><g data-paper-data="{&quot;index&quot;:null}" stroke="#000000" stroke-linecap="butt"><path d="M367.38499,232.90381c28.20669,-17.76798 37.18904,-14.25049 41.50165,-7.4042c4.31263,6.84629 -15.05736,26.80011 -43.26407,44.56809c-28.20671,17.76797 -16.68797,-53.52583 -21.00059,-60.37214c0.12441,-7.09316 6.23319,-4.79526 10.70894,1.66414c5.51964,7.96594 9.64307,23.06285 12.05407,21.54412z" fill="#216aff" stroke-width="2"/><path d="M382.13313,209.32747c12.10702,-7.62647 28.26329,-3.74168 36.08603,8.67694c7.82273,12.41861 4.34964,28.66836 -7.75739,36.29483c-12.10703,7.62647 -28.26329,3.74167 -36.08604,-8.67694c-7.82273,-12.41861 -4.34963,-28.66835 7.7574,-36.29483z" fill="#faddbf" stroke-width="2"/><path d="M393.43862,249.17008c12.10703,-7.62647 16.02169,-43.46153 23.84444,-31.04292c7.82273,12.41861 4.34962,28.66836 -7.7574,36.29483c-12.10703,7.62647 -28.19408,2.37457 -16.08704,-5.2519z" fill="#ef8b89" stroke-width="0"/></g><g stroke="#000000" stroke-linecap="butt"><path d="M327.76518,340.83536v-95.29492h29.49199v95.29492z" fill="#73fffc" stroke-width="2"/><path d="M327.43943,340.21743l1.32626,-93.78573c0,0 5.20288,68.11227 6.3799,77.52842c0.2602,2.08162 2.52228,2.78987 2.52228,2.78987l18.60659,13.13896z" fill="#59a9e6" stroke-width="0"/></g><g stroke="#000000" stroke-linecap="butt"><path d="M288.4238,338.41281v-95.29492h29.49199v95.29492z" fill="#73fffc" stroke-width="2"/><path d="M288.09805,337.79491l1.32626,-93.78573c0,0 5.20288,68.11227 6.3799,77.52842c0.2602,2.08162 2.52228,2.78987 2.52228,2.78987l18.60659,13.13896z" fill="#59a9e6" stroke-width="0"/></g><g stroke="#000000" stroke-linecap="butt"><path d="M355.03178,235.69589c0,13.80271 10.04743,36.74388 4.95001,46.45977c-6.2338,11.88187 -28.61241,9.09579 -38.9397,9.09579c-13.66287,0 -32.94407,4.17018 -38.34426,-14.83216c-2.01935,-7.10576 4.35457,-32.37264 4.35457,-40.7234c0,-30.68249 15.2177,-55.55556 33.98969,-55.55556c18.77199,0 33.98969,24.87307 33.98969,55.55556z" fill="#216aff" stroke-width="2"/><path d="M303.76815,251.27247c0,13.80271 62.04198,20.54886 56.94455,30.26474c-6.2338,11.88186 -28.61241,9.09579 -38.9397,9.09579c-13.66287,0 -32.94406,4.17018 -38.34425,-14.83215c-2.01936,-7.10576 4.35457,-32.37265 4.35457,-40.7234c0,-9.45244 3.34855,-28.59801 5.51953,-29.96813c5.94391,-16.76415 10.4653,25.13995 10.4653,46.16315z" fill="#3236f4" stroke-width="0"/></g><g data-paper-data="{&quot;index&quot;:null}" stroke="#000000" stroke-linecap="butt"><g><path d="M310.26536,206.32401c-46.79079,0 -84.72222,-37.93143 -84.72222,-84.72222c0,-46.79079 37.93143,-84.72222 84.72222,-84.72222c46.79079,0 84.72222,37.93143 84.72222,84.72222c0,46.79079 -37.93143,84.72222 -84.72222,84.72222z" fill="#faddbf" stroke-width="2"/><path d="M394.75681,120.73229c0,46.79079 -37.93143,84.72222 -84.72222,84.72222c-6.06291,0 -18.49289,-1.96005 -20.86562,-2.76903c-1.48329,-0.50573 27.17997,-6.87938 47.45857,-20.18586c10.88131,-7.14014 17.10673,-21.55104 19.99223,-26.29351c1.61848,-0.43891 6.02298,-20.08018 6.02593,-20.14049c1.23891,-25.28993 -24.25635,-87.57384 -16.28763,-90.14485c0.61077,-0.19706 12.57802,6.61116 21.9255,14.95935c7.52051,6.71653 12.79199,15.25975 13.30693,15.62682c4.50904,3.21417 13.16632,29.17106 13.16632,44.22534z" fill="#ef8b89" stroke-width="0"/><path d="M226.06658,121.1436c0,-36.54015 43.64941,-47.76623 83.64345,-27.16584c41.78276,21.52174 85.0704,-6.80492 85.0704,29.73523c0,18.17183 -8.33746,10.16746 -22.22353,-2.47189c-2.87599,-2.61778 -12.91291,10.30314 -16.24015,7.47909c-4.24103,-3.59963 -8.08154,-8.90935 -11.96095,-14.41734c-3.12381,-4.4352 -13.70857,12.51967 -17.11223,8.61668c-5.23782,-6.00622 -5.43775,-13.01701 -12.7176,-13.01701c-2.73739,0 -10.08616,11.74106 -12.80601,12.06843c-2.10902,0.25385 -9.32614,-11.95827 -11.39182,-11.59592c-3.75121,0.65801 -12.2492,10.90762 -15.73972,12.03156c-1.39954,0.45065 -12.51164,-8.39959 -13.84965,-7.92692c-1.91368,0.67603 -8.85258,10.08015 -10.56583,10.85157c-2.72761,1.22814 -10.78789,-6.21968 -12.93385,-5.04791c-8.8559,4.83563 -8.47938,12.76015 -9.04258,14.64925c-0.55205,1.85172 -2.12992,-2.16465 -2.12992,-13.78899z" fill="#ef8b89" stroke-width="0"/></g><path d="M224.53269,112.83271c0,-36.54015 41.44159,-78.68758 87.36842,-78.68758c45.92684,0 85.78948,44.71682 85.78948,81.25697c0,18.17183 -8.55708,10.16746 -22.80892,-2.47189c-2.95174,-2.61778 -13.25304,10.30314 -16.66792,7.47909c-4.35273,-3.59963 -8.29441,-8.90935 -12.276,-14.41734c-3.2061,-4.4352 -14.06966,12.51967 -17.56298,8.61668c-5.37579,-6.00622 -5.58098,-13.01701 -13.05259,-13.01701c-2.80949,0 -10.35184,11.74106 -13.14333,12.06843c-2.16458,0.25385 -9.5718,-11.95827 -11.69189,-11.59592c-3.85002,0.65801 -12.57185,10.90762 -16.15431,12.03156c-1.4364,0.45065 -12.8412,-8.39959 -14.21446,-7.92692c-1.96409,0.67603 -9.08576,10.08015 -10.84414,10.85157c-2.79946,1.22814 -11.07205,-6.21968 -13.27454,-5.04791c-17.99849,9.57557 -11.46679,24.3436 -11.46679,0.86026z" fill="#724e36" stroke-width="2"/><path d="M224.78045,111.66992c0,-36.54015 44.79917,-47.76623 85.84668,-27.16584c42.88335,21.52174 87.31121,-6.80492 87.31121,29.73523c0,18.17183 -8.55708,10.16746 -22.80892,-2.47189c-2.95174,-2.61778 -13.25304,10.30314 -16.66792,7.47909c-4.35274,-3.59963 -8.29442,-8.90935 -12.27601,-14.41734c-3.2061,-4.4352 -14.06966,12.51967 -17.56298,8.61668c-5.37579,-6.00622 -5.58098,-13.01701 -13.05259,-13.01701c-2.80949,0 -10.35184,11.74106 -13.14333,12.06843c-2.16458,0.25385 -9.5718,-11.95827 -11.69189,-11.59592c-3.85002,0.65801 -12.57185,10.90762 -16.15431,12.03156c-1.4364,0.45065 -12.8412,-8.39959 -14.21446,-7.92692c-1.9641,0.67603 -9.08577,10.08015 -10.84415,10.85157c-2.79946,1.22814 -11.07205,-6.21968 -13.27454,-5.04791c-17.99849,9.57557 -11.46679,24.3436 -11.46679,0.86026z" fill="#623728" stroke-width="0"/></g><g data-paper-data="{&quot;index&quot;:null}" stroke="#000000" stroke-linecap="butt"><path d="M321.43025,92.79362c16.56854,0 30,23.15159 30,51.71053c0,28.55893 -13.69462,43.28947 -30.26316,43.28947c-16.56854,0 -29.73684,-14.73053 -29.73684,-43.28947c0,-28.55894 13.43146,-51.71053 30,-51.71053z" fill="#f0f0f0" stroke-width="2"/><path d="M350.79423,143.67388c0,28.55893 -13.69462,43.28947 -30.26316,43.28947c-16.56854,0 21.9575,-33.80863 17.65491,-62.0416c-6.22027,-40.81653 12.60825,-9.80681 12.60825,18.75213z" fill="#9a99ff" stroke-width="0"/></g><path d="M337.13039,124.08875c5.78406,0 10.47297,12.82644 10.47297,28.64865c0,15.82221 -4.68891,28.64865 -10.47297,28.64865c-5.78406,0 -10.47297,-12.82644 -10.47297,-28.64865c0,-15.82221 4.68891,-28.64865 10.47297,-28.64865z" data-paper-data="{&quot;index&quot;:null}" fill="#000000" stroke="none" stroke-width="0" stroke-linecap="butt"/><g data-paper-data="{&quot;index&quot;:null}" stroke="#000000" stroke-linecap="butt"><path d="M296.43956,114.46946c4.24992,-9.74914 10.03298,-21.55405 25.74324,-21.55405c15.71026,0 18.17568,12.27019 22.5,21.41892c4.54481,9.61522 -30.07104,38.90314 -45.7813,38.90314c-15.71026,0 -6.92141,-28.53819 -2.46195,-38.768z" fill="#a100fe" stroke-width="2"/><path d="M297.36383,114.11521c4.10501,-9.74914 9.69088,0.8269 24.86546,0.8269c15.17458,0 17.55594,-10.11076 21.73281,-0.96203c4.38984,9.61522 -29.83492,38.68882 -45.0095,38.68882c-15.17458,0 -5.89618,-28.32387 -1.58878,-38.55368z" fill="#99008e" stroke-width="0"/></g><g data-paper-data="{&quot;index&quot;:null}" stroke="#000000" stroke-linecap="butt"><path d="M287.70356,143.02551c0,28.55894 -13.1683,43.28947 -29.73684,43.28947c-16.56854,0 -30.26316,-14.73054 -30.26316,-43.28947c0,-28.55894 13.43146,-51.71053 30,-51.71053c16.56854,0 30,23.15159 30,51.71053z" fill="#f0f0f0" stroke-width="2"/><path d="M240.94784,123.44312c-4.30259,28.23297 34.22345,62.0416 17.65491,62.0416c-16.56854,0 -30.26316,-14.73054 -30.26316,-43.28947c0,-28.55894 18.82852,-59.56866 12.60825,-18.75213z" fill="#9a99ff" stroke-width="0"/></g><path d="M282.01644,154.77247c0,15.82221 -4.68891,28.64865 -10.47297,28.64865c-5.78406,0 -10.47297,-12.82644 -10.47297,-28.64865c0,-15.82221 4.68891,-28.64865 10.47297,-28.64865c5.78406,0 10.47297,12.82644 10.47297,28.64865z" data-paper-data="{&quot;index&quot;:null}" fill="#000000" stroke="none" stroke-width="0" stroke-linecap="butt"/><g data-paper-data="{&quot;index&quot;:null}" stroke="#000000" stroke-linecap="butt"><path d="M282.69426,112.99082c4.45946,10.22981 12.17673,39.19663 -3.53353,39.19663c-15.71026,0 -49.25453,-29.71655 -44.70972,-39.33177c4.32432,-9.14873 6.78974,-21.41892 22.5,-21.41892c15.71026,0 21.49332,11.80491 25.74324,21.55405z" fill="#a100fe" stroke-width="2"/><path d="M281.77,112.63658c4.3074,10.22981 12.72854,39.41095 -2.44604,39.41095c-15.17458,0 -48.54208,-29.93087 -44.15224,-39.54609c4.17687,-9.14873 6.55823,0.96203 21.73281,0.96203c15.17458,0 20.76045,-10.57604 24.86546,-0.8269z" fill="#99008e" stroke-width="0"/></g><path d="M391.63632,338.87005c0,11.6628 -14.51982,21.11737 -32.43092,21.11737c-17.9111,0 -32.43092,-9.45457 -32.43092,-21.11737c0,-2.33142 -0.03339,-13.76009 1.08979,-15.13837c4.49546,-5.51647 17.81784,5.26144 32.14847,5.26144c17.9111,0 31.62358,-1.78588 31.62358,9.87692z" fill="#000082" stroke="#000000" stroke-width="2" stroke-linecap="butt"/><path d="M389.75004,336.13775c0,6.30841 -13.89058,10.1901 -31.80169,10.1901c-17.9111,0 -30.16566,-2.95748 -30.16566,-9.26589c0,-1.26107 -0.03338,-12.52602 1.0898,-13.27153c4.49546,-2.98386 15.55258,5.7726 29.88321,5.7726c17.9111,0 30.99434,0.26631 30.99434,6.57472z" fill="#2e0048" stroke="#000000" stroke-width="0" stroke-linecap="butt"/><path d="M348.64938,338.22522c0,11.6628 -14.51982,21.11737 -32.43092,21.11737c-17.9111,0 -32.43092,-9.45457 -32.43092,-21.11737c0,-2.33142 -0.03339,-13.76009 1.08979,-15.13837c4.49546,-5.51647 17.81784,5.26144 32.14847,5.26144c17.9111,0 31.62358,-1.78588 31.62358,9.87692z" fill="#000082" stroke="#000000" stroke-width="2" stroke-linecap="butt"/><path d="M346.7631,335.49289c0,6.30841 -13.89058,10.1901 -31.80169,10.1901c-17.9111,0 -30.16566,-2.95748 -30.16566,-9.26589c0,-1.26107 -0.03338,-12.52602 1.0898,-13.27153c4.49546,-2.98386 15.55258,5.7726 29.88321,5.7726c17.9111,0 30.99434,0.26631 30.99434,6.57472z" fill="#2e0048" stroke="#000000" stroke-width="0" stroke-linecap="butt"/><g><path d="M294.22471,262.28737c-14.15139,-5.23079 -19.78606,-15.40235 -15.2661,-29.63891c3.53508,-11.13456 19.86042,-18.97719 34.01183,-13.74639c14.15147,5.23079 21.05162,18.17496 15.873,32.18535c-0.80984,2.19096 -2.20748,3.97262 -3.46879,5.61181c-6.80432,8.84263 -19.21154,10.00093 -31.14993,5.58814z" fill="#216aff" stroke="#000000" stroke-width="2" stroke-linecap="butt"/><path d="M299.20543,219.23249c0,0 -2.40363,5.23008 -1.31507,6.91188c10.44148,16.13223 23.21731,21.96289 27.59003,23.56889c0.99346,0.36489 1.86787,-0.33957 1.86787,-0.33957c0,0 -0.52059,2.04867 -2.00499,4.35315c-1.57952,2.45216 -4.20534,5.21058 -6.9099,6.67022c-3.08938,1.66728 -11.19872,3.60297 -11.19872,3.60297l-20.54191,-4.1096c0,0 -6.65741,-11.68905 -7.01499,-13.82658c-0.35034,-2.09407 -0.16427,-4.67246 -0.07677,-7.42188c0.13588,-4.26885 1.84715,-8.47342 3.6393,-10.72797c2.28723,-2.87728 6.21055,-5.3991 9.72911,-6.87629c3.27469,-1.3748 6.23598,-1.80508 6.23598,-1.80508z" fill="#3236f4" stroke="none" stroke-width="0" stroke-linecap="butt"/><path d="M292.98593,242.86483c0,0 1.30698,-8.92693 5.00477,-12.51948c4.681,-4.54782 16.13086,-10.63083 16.13086,-10.63083" fill="none" stroke="#000000" stroke-width="1" stroke-linecap="round"/><path d="M329.70253,244.05134c0,0 -3.83737,6.03362 -6.94272,9.00489c-3.135,2.99967 -12.06054,6.80586 -12.06054,6.80586" fill="none" stroke="#000000" stroke-width="1" stroke-linecap="round"/><path d="M282.04129,242.10915c0,0 1.20471,-9.18341 5.38717,-12.89232c6.41784,-5.69118 16.4222,-11.55708 16.4222,-11.55708" fill="none" stroke="#000000" stroke-width="1" stroke-linecap="round"/><path d="M283.22286,226.871c0,0 16.52373,-5.14214 30.36759,5.43573c15.16421,11.5867 8.87889,27.64862 8.87889,27.64862" fill="none" stroke="#000000" stroke-width="1" stroke-linecap="round"/><path d="M278.75861,235.28382c0,0 17.63519,-2.42127 29.87136,6.88655c10.047,7.6426 6.01831,21.66717 6.01831,21.66717" fill="none" stroke="#000000" stroke-width="1" stroke-linecap="round"/><path d="M322.27959,231.16677c-0.74361,-0.94565 -0.73948,-2.18943 0.00911,-2.77807c0.74859,-0.58871 1.25871,0.02263 2.00231,0.96829c0.74361,0.94565 1.43904,1.86746 0.69044,2.45612c-0.74859,0.58871 -1.95831,0.29932 -2.70185,-0.64633z" fill="#8fbbbe" stroke="none" stroke-width="0" stroke-linecap="butt"/><path d="M325.95355,237.44059c-0.56417,-0.20856 -0.76796,-1.0636 -0.45515,-1.90987c0.3128,-0.84627 0.55736,-1.1486 1.12153,-0.94009c0.56417,0.20856 0.93822,1.12655 0.62538,1.9728c-0.3128,0.84627 -0.72763,1.08567 -1.29178,0.87713z" fill="#8fbbbe" stroke="none" stroke-width="0" stroke-linecap="butt"/><path d="M317.95269,225.76846c-0.80814,-0.40123 -1.24641,-1.16313 -0.97896,-1.70189c0.26739,-0.53872 0.95059,-0.1395 1.75871,0.26168c0.80814,0.40123 1.43519,0.65235 1.16776,1.19112c-0.26739,0.53872 -1.13939,0.65026 -1.94752,0.24906z" fill="#8fbbbe" stroke="none" stroke-width="0" stroke-linecap="butt"/><path d="M294.81196,220.1243c0,0 10.22847,0.24059 17.20139,3.20676c3.9533,1.68168 6.85701,4.52856 9.03428,6.7116c1.92549,1.93054 4.37329,8.0325 5.76084,12.89798c1.02158,3.58219 1.28371,6.51447 1.28371,6.51447" fill="none" stroke="#000000" stroke-width="0.5" stroke-linecap="round"/><path d="M327.63806,229.74209c0,0 -4.0441,9.76848 -7.7945,13.66099c-3.15978,3.27954 -12.90064,8.29751 -12.90064,8.29751" fill="none" stroke="#000000" stroke-width="1" stroke-linecap="round"/><path d="M302.23143,248.2174c0,0 3.79673,-8.88892 6.56361,-12.46596c4.85812,-6.28057 14.23148,-10.81017 14.23148,-10.81017" fill="none" stroke="#000000" stroke-width="1" stroke-linecap="round"/></g><g stroke="#000000" stroke-linecap="butt"><path d="M279.92093,239.55021c26.29406,20.49247 26.03742,30.13557 21.06352,36.51762c-4.9739,6.38206 -30.3216,-5.0567 -56.61565,-25.5492c-26.29405,-20.49248 44.67257,-33.88017 49.64647,-40.26223c6.7135,-2.29282 6.62769,4.23331 2.07309,10.63734c-5.61688,7.89767 -18.41494,16.90485 -16.16743,18.65647z" fill="#216aff" stroke-width="2"/><path d="M307.10545,245.4113c11.28607,8.79588 13.12127,25.31099 4.09902,36.88751c-9.02224,11.57651 -25.48541,13.83067 -36.77149,5.03479c-11.28607,-8.79588 -13.12125,-25.311 -4.099,-36.88752c9.02225,-11.57652 25.48541,-13.83067 36.77149,-5.03478z" fill="#faddbf" stroke-width="2"/><path d="M273.47363,269.58046c11.28607,8.79588 46.31961,0.30316 37.29736,11.87967c-9.02224,11.57651 -25.48541,13.83067 -36.77149,5.03478c-11.28607,-8.79588 -11.81194,-25.71034 -0.52588,-16.91445z" fill="#ef8b89" stroke-width="0"/></g><path d="M363.80902,152.18234c-0.1907,-0.37711 -0.1907,-0.75636 -0.1907,-0.75636l0.12128,-1.38046c0.4943,-1.15203 1.06219,-2.27229 1.65067,-3.37917c0.81824,-0.48648 1.52583,-1.25123 2.45471,-1.45944c3.42576,-0.76791 9.00056,2.67496 10.78525,5.42641c1.46622,2.26047 1.41091,4.53726 1.41091,7.10928c0,7.0541 -1.0563,18.1142 -9.71584,19.06624c-2.17823,0.00198 -4.36997,0.26075 -6.46824,-0.46902c-4.00682,-1.39356 -8.4167,-5.45724 -5.79275,-10.21149c1.80552,-3.27135 10.22715,-5.1502 7.66616,-10.32299c-0.46679,-0.94283 -1.19409,-1.73535 -1.71711,-2.64818c0,0 -0.25804,-0.45155 -0.20434,-0.97482z" fill="#000000" stroke="none" stroke-width="0.5" stroke-linecap="butt"/></g></g></svg>