<svg version="1.1" xmlns="http://www.w3.org/2000/svg" xmlns:xlink="http://www.w3.org/1999/xlink" width="175.59026" height="330.03391" viewBox="0,0,175.59026,330.03391"><g transform="translate(-239.64833,-30.9535)"><g data-paper-data="{&quot;isPaintingLayer&quot;:true}" fill-rule="nonzero" stroke-linejoin="miter" stroke-miterlimit="10" stroke-dasharray="" stroke-dashoffset="0" style="mix-blend-mode: normal"><g data-paper-data="{&quot;index&quot;:null}" stroke="#000000" stroke-linecap="butt"><path d="M352.85284,225.26303c32.6704,-6.63054 39.82556,-0.16069 41.43491,7.76901c1.60936,7.92972 -23.5706,19.73313 -56.24102,26.36366c-32.6704,6.63052 3.34374,-55.96716 1.73439,-63.89687c2.62767,-6.58966 7.52722,-2.2778 9.42611,5.34784c2.34177,9.40419 0.85308,24.98312 3.64561,24.41637z" fill="#216aff" stroke-width="2"/><path d="M354.88777,239.63276c-2.91924,-14.38384 6.08212,-28.35138 20.10509,-31.19738c14.02296,-2.846 27.75731,6.50727 30.67656,20.89113c2.91924,14.38385 -6.08211,28.3514 -20.10507,31.1974c-14.02296,2.846 -27.75732,-6.50729 -30.67656,-20.89114z" fill="#faddbf" stroke-width="2"/><path d="M384.6454,260.30727c-14.02296,2.84599 -27.20857,-7.76132 -13.18559,-10.60732c14.02296,-2.846 30.37143,-34.97392 33.29068,-20.59007c2.91924,14.38384 -6.08212,28.35139 -20.10509,31.19738z" fill="#ef8b89" stroke-width="0"/></g><g stroke="#000000" stroke-linecap="butt"><path d="M327.43955,340.83534v-95.29492h29.49199v95.29492z" fill="#73fffc" stroke-width="2"/><path d="M327.1138,340.21741l1.32626,-93.78573c0,0 5.20288,68.11227 6.3799,77.52842c0.2602,2.08162 2.52228,2.78987 2.52228,2.78987l18.60659,13.13896z" fill="#59a9e6" stroke-width="0"/></g><g stroke="#000000" stroke-linecap="butt"><path d="M288.4238,338.41279v-95.29492h29.49199v95.29492z" fill="#73fffc" stroke-width="2"/><path d="M288.09805,337.79491l1.32626,-93.78573c0,0 5.20288,68.11227 6.3799,77.52842c0.2602,2.08162 2.52228,2.78987 2.52228,2.78987l18.60659,13.13896z" fill="#59a9e6" stroke-width="0"/></g><g stroke="#000000" stroke-linecap="butt"><path d="M355.22917,235.69588c0,13.80271 10.04743,36.74388 4.95001,46.45977c-6.2338,11.88187 -28.61241,9.09579 -38.9397,9.09579c-13.66287,0 -32.94407,4.17018 -38.34426,-14.83216c-2.01935,-7.10576 4.35457,-32.37264 4.35457,-40.7234c0,-30.68249 15.2177,-55.55556 33.98969,-55.55556c18.77199,0 33.98969,24.87307 33.98969,55.55556z" fill="#216aff" stroke-width="2"/><path d="M303.96554,251.27245c0,13.80271 62.04198,20.54886 56.94455,30.26474c-6.2338,11.88186 -28.61241,9.09579 -38.9397,9.09579c-13.66287,0 -32.94406,4.17018 -38.34425,-14.83215c-2.01936,-7.10576 4.35457,-32.37265 4.35457,-40.7234c0,-9.45244 3.34855,-28.59801 5.51953,-29.96813c5.94391,-16.76415 10.4653,25.13995 10.4653,46.16315z" fill="#3236f4" stroke-width="0"/></g><g stroke="#000000" stroke-linecap="butt"><g><path d="M243.08511,114.8882c2.53302,-46.72218 42.46225,-82.54456 89.18443,-80.01154c46.72218,2.53302 82.54456,42.46225 80.01154,89.18443c-2.53302,46.72218 -42.46225,82.54456 -89.18443,80.01154c-46.72218,-2.53302 -82.54456,-42.46225 -80.01154,-89.18443z" fill="#faddbf" stroke-width="2"/><path d="M243.36261,114.03246c0.81497,-15.0322 10.86473,-40.48237 15.54116,-43.44773c0.53406,-0.33866 6.26029,-8.58398 14.13338,-14.88353c9.7857,-7.82992 22.10397,-13.98031 22.70317,-13.75047c7.81785,2.99863 -21.01177,63.81102 -21.14375,89.13093c-0.00032,0.06038 3.33444,19.91129 4.92679,20.43717c2.62453,4.89172 8.06069,19.6185 18.53951,27.33724c19.52852,14.38475 47.80471,22.30074 46.29621,22.72543c-2.41304,0.67935 -14.93091,1.96362 -20.98492,1.63541c-46.72218,-2.53302 -82.54456,-42.46225 -80.01154,-89.18443z" fill="#ef8b89" stroke-width="0"/><path d="M411.78321,123.57523c-0.62928,11.60729 -2.42227,15.53236 -2.87327,13.65347c-0.46011,-1.91682 0.34486,-9.80934 -8.23628,-15.11729c-2.07938,-1.28622 -10.53103,5.71433 -13.18815,4.34033c-1.66898,-0.86304 -8.08861,-10.629 -9.96289,-11.40764c-1.31046,-0.54441 -12.88537,7.6913 -14.25847,7.16554c-3.42456,-1.31125 -11.35522,-12.00587 -15.06531,-12.86599c-2.04304,-0.47364 -9.91068,11.32987 -12.00286,10.96222c-2.69814,-0.47413 -9.40053,-12.5958 -12.13391,-12.74399c-7.26917,-0.3941 -7.84834,6.59559 -13.40363,12.30945c-3.60996,3.71301 -13.26134,-13.79001 -16.62067,-9.53042c-4.1719,5.2899 -8.29422,10.38393 -12.72389,13.74869c-3.47524,2.63979 -12.79797,-10.80553 -15.81145,-8.34729c-14.54994,11.86909 -23.30849,19.41038 -22.32476,1.26519c1.9781,-36.48657 43.6688,-5.85807 86.55537,-25.08633c41.0506,-18.4051 84.02828,-4.83252 82.05017,31.65405z" fill="#ef8b89" stroke-width="0"/></g><path d="M413.76474,115.35956c-1.27127,23.4489 6.05032,9.05612 -11.40341,-1.47975c-2.13583,-1.28928 -10.79947,5.69978 -13.52834,4.32189c-1.71404,-0.86548 -8.31617,-10.64134 -10.24079,-11.42271c-1.34566,-0.54632 -13.21284,7.67354 -14.62274,7.14579c-3.51636,-1.31623 -11.67054,-12.02297 -15.47929,-12.88843c-2.09737,-0.47659 -10.15483,11.31663 -12.30249,10.94597c-2.76967,-0.47801 -9.66536,-12.61016 -12.47073,-12.76225c-7.46065,-0.40448 -8.04507,6.58493 -13.73813,12.29132c-3.69949,3.70816 -13.62926,-13.80995 -17.07076,-9.55482c-4.27393,5.28437 -8.49727,10.37292 -13.03848,13.73164c-3.56275,2.63504 -13.14947,-10.82459 -16.2386,-8.37044c-14.91517,11.84929 -23.89302,19.37869 -22.90929,1.2335c1.9781,-36.48657 44.20304,-78.97985 90.06253,-76.49359c45.85948,2.48625 84.95865,46.81532 82.98054,83.30189z" fill="#724e36" stroke-width="2"/><path d="M413.58032,114.18507c-1.27127,23.4489 6.05032,9.05612 -11.40341,-1.47975c-2.13583,-1.28928 -10.79947,5.69978 -13.52834,4.32189c-1.71404,-0.86548 -8.31617,-10.64134 -10.2408,-11.42271c-1.34566,-0.54632 -13.21284,7.67354 -14.62274,7.14579c-3.51636,-1.31623 -11.67054,-12.02297 -15.47929,-12.88843c-2.09737,-0.47659 -10.15483,11.31663 -12.30249,10.94597c-2.76967,-0.47801 -9.66536,-12.61016 -12.47073,-12.76225c-7.46065,-0.40448 -8.04507,6.58493 -13.73813,12.29132c-3.69949,3.70816 -13.62926,-13.80995 -17.07076,-9.55482c-4.27393,5.28437 -8.49727,10.37292 -13.03849,13.73164c-3.56275,2.63504 -13.14947,-10.82459 -16.2386,-8.37044c-14.91517,11.84929 -23.89302,19.37869 -22.90929,1.2335c1.9781,-36.48657 44.80735,-5.79634 88.7929,-24.96503c42.10252,-18.34807 86.22828,-4.71324 84.25017,31.77332z" fill="#623728" stroke-width="0"/></g><g stroke="#000000" stroke-linecap="butt"><path d="M345.25077,143.36307c-1.54604,28.51706 -15.49247,42.51312 -32.03671,41.61618c-16.54424,-0.89694 -29.42134,-16.34724 -27.8753,-44.86429c1.54604,-28.51706 16.21112,-50.90759 32.75536,-50.01065c16.54424,0.89694 28.70269,24.74169 27.15665,53.25876z" fill="#f0f0f0" stroke-width="2"/><path d="M299.6237,121.27825c-5.82468,27.95865 30.81464,63.80331 14.27039,62.90637c-16.54424,-0.89694 -29.42134,-16.34724 -27.8753,-44.86429c1.54604,-28.51706 22.02567,-58.46203 13.60491,-18.04208z" fill="#9a99ff" stroke-width="0"/></g><path d="M340.91634,151.37342c-0.85654,15.79901 -6.23293,28.35281 -12.00851,28.03968c-5.77558,-0.31312 -9.76325,-13.37459 -8.90672,-29.1736c0.85654,-15.79901 6.23293,-28.35281 12.00851,-28.03968c5.77558,0.31312 9.76325,13.37459 8.90672,29.1736z" fill="#000000" stroke="none" stroke-width="0" stroke-linecap="butt"/><g stroke="#000000" stroke-linecap="butt"><path d="M341.87475,113.10125c3.89913,10.45622 8.7783,42.25228 -6.90892,41.40181c-15.68722,-0.85048 -46.31494,-34.79331 -41.25627,-44.1484c4.81325,-8.90122 7.9393,-21.01995 23.62652,-20.16947c15.68722,0.85048 20.82274,12.95114 24.53866,22.91606z" fill="#a100fe" stroke-width="2"/><path d="M341.14109,112.7067c3.74729,10.44799 9.4739,41.94883 -5.67843,41.12736c-15.15233,-0.82148 -45.74813,-34.42142 -40.8442,-43.7849c4.66601,-8.9092 6.49653,1.31565 21.64886,2.13713c15.15233,0.82148 21.30254,-9.43666 24.87376,0.52041z" fill="#99008e" stroke-width="0"/></g><g data-paper-data="{&quot;index&quot;:null}" stroke="#000000" stroke-linecap="butt"><path d="M381.80739,92.0777c16.54424,0.89694 28.70269,24.74169 27.15665,53.25876c-1.54604,28.51705 -16.01802,42.48463 -32.56226,41.58769c-16.54424,-0.89694 -28.8958,-16.31874 -27.34975,-44.8358c1.54604,-28.51706 16.21112,-50.90759 32.75536,-50.01065z" fill="#f0f0f0" stroke-width="2"/><path d="M408.37391,144.47296c-1.54604,28.51705 -16.01802,42.48463 -32.56226,41.58769c-16.54424,-0.89694 23.75554,-32.57038 20.98765,-60.99487c-4.00154,-41.09341 13.12065,-9.10988 11.57461,19.40718z" fill="#9a99ff" stroke-width="0"/></g><path d="M395.74702,125.48363c5.77558,0.31312 9.76325,13.37459 8.90672,29.1736c-0.85654,15.79901 -6.23293,28.35281 -12.00851,28.03968c-5.77558,-0.31312 -9.76325,-13.37459 -8.90672,-29.1736c0.85654,-15.79901 6.23293,-28.35281 12.00851,-28.03968z" data-paper-data="{&quot;index&quot;:null}" fill="#000000" stroke="none" stroke-width="0" stroke-linecap="butt"/><g data-paper-data="{&quot;index&quot;:null}" stroke="#000000" stroke-linecap="butt"><path d="M355.67993,112.36886c4.77146,-9.50477 11.1851,-20.97931 26.87232,-20.12883c15.68722,0.85048 17.48478,13.23614 21.30749,22.60555c4.01762,9.84715 -7.68652,13.86098 -23.37374,13.0105c-15.68722,-0.85048 -29.8128,-5.51381 -24.80608,-15.48721z" fill="#a100fe" stroke-width="2"/><path d="M356.62202,112.06517c4.62676,-9.51262 9.63191,1.3503 24.78423,2.17178c15.15233,0.82148 18.07754,-9.14554 21.75302,0.21589c3.86288,9.83876 -7.45074,13.87376 -22.60307,13.05228c-15.15233,-0.82148 -28.78907,-5.45831 -23.93419,-15.43994z" fill="#99008e" stroke-width="0"/></g><path d="M391.63632,338.87005c0,11.6628 -14.51982,21.11737 -32.43092,21.11737c-17.9111,0 -32.43092,-9.45457 -32.43092,-21.11737c0,-2.33142 -0.03339,-13.76009 1.08979,-15.13837c4.49546,-5.51647 17.81784,5.26144 32.14847,5.26144c17.9111,0 31.62358,-1.78588 31.62358,9.87692z" fill="#000082" stroke="#000000" stroke-width="2" stroke-linecap="butt"/><path d="M389.75004,336.13775c0,6.30841 -13.89058,10.1901 -31.80169,10.1901c-17.9111,0 -30.16566,-2.95748 -30.16566,-9.26589c0,-1.26107 -0.03338,-12.52602 1.0898,-13.27153c4.49546,-2.98386 15.55258,5.7726 29.88321,5.7726c17.9111,0 30.99434,0.26631 30.99434,6.57472z" fill="#2e0048" stroke="#000000" stroke-width="0" stroke-linecap="butt"/><path d="M348.64938,338.2252c0,11.6628 -14.51982,21.11737 -32.43092,21.11737c-17.9111,0 -32.43092,-9.45457 -32.43092,-21.11737c0,-2.33142 -0.03339,-13.76009 1.08979,-15.13837c4.49546,-5.51647 17.81784,5.26144 32.14847,5.26144c17.9111,0 31.62358,-1.78588 31.62358,9.87692z" fill="#000082" stroke="#000000" stroke-width="2" stroke-linecap="butt"/><path d="M346.7631,335.49289c0,6.30841 -13.89058,10.1901 -31.80169,10.1901c-17.9111,0 -30.16566,-2.95748 -30.16566,-9.26589c0,-1.26107 -0.03338,-12.52602 1.0898,-13.27153c4.49546,-2.98386 15.55258,5.7726 29.88321,5.7726c17.9111,0 30.99434,0.26631 30.99434,6.57472z" fill="#2e0048" stroke="#000000" stroke-width="0" stroke-linecap="butt"/><g><path d="M321.00331,249.05558c-14.66277,3.55335 -25.01351,-1.74496 -29.2043,-16.08188c-3.27769,-11.21303 5.89612,-26.8292 20.55891,-30.38256c14.66284,-3.5534 27.61058,3.34006 31.12856,17.8567c0.55015,2.27012 0.38413,4.52848 0.25177,6.59254c-0.71414,11.13467 -10.36511,19.01752 -22.73491,22.0152z" fill="#485e84" stroke="#000000" stroke-width="2" stroke-linecap="butt"/><path d="M301.11821,210.5444c0,0 0.92283,5.68149 2.76446,6.47001c17.66532,7.56374 31.5211,5.27561 36.04608,4.16909c1.02807,-0.25139 1.36079,-1.32385 1.36079,-1.32385c0,0 0.71083,1.99068 0.76447,4.73133c0.05708,2.91628 -0.58335,6.67045 -2.01366,9.39061c-1.63386,3.10718 -7.28422,9.23759 -7.28422,9.23759l-19.34099,8.0489c0,0 -12.0461,-5.9872 -13.53532,-7.56173c-1.45896,-1.5425 -2.74292,-3.78619 -4.20412,-6.11683c-2.26868,-3.61865 -3.19401,-8.06282 -2.96437,-10.93372c0.29312,-3.66392 2.14237,-7.94553 4.23847,-11.13438c1.95082,-2.96783 4.16845,-4.97691 4.16845,-4.97691z" fill="#343545" stroke="none" stroke-width="0" stroke-linecap="butt"/><path d="M309.14007,233.62726c0,0 -3.89531,-8.13786 -2.83055,-13.1823c1.34785,-6.38574 7.45697,-17.82169 7.45697,-17.82169" fill="none" stroke="#000000" stroke-width="1" stroke-linecap="round"/><path d="M340.27428,214.12913c0,0 0.18119,7.14822 -0.7385,11.34654c-0.92842,4.23842 -6.21269,12.37654 -6.21269,12.37654" fill="none" stroke="#000000" stroke-width="1" stroke-linecap="round"/><path d="M299.63518,239.10572c0,0 -4.12326,-8.29366 -2.72117,-13.70506c2.15147,-8.30357 7.18203,-18.75294 7.18203,-18.75294" fill="none" stroke="#000000" stroke-width="1" stroke-linecap="round"/><path d="M292.11499,225.79993c0,0 10.84497,-13.48562 28.23545,-12.42971c19.04907,1.15662 22.79305,17.99328 22.79305,17.99328" fill="none" stroke="#000000" stroke-width="1" stroke-linecap="round"/><path d="M293.10319,235.27245c0,0 13.28527,-11.84754 28.63297,-10.94878c12.60186,0.73799 17.08213,14.62489 17.08213,14.62489" fill="none" stroke="#000000" stroke-width="1" stroke-linecap="round"/><path d="M326.9259,207.57679c-1.14468,-0.36999 -1.83513,-1.40455 -1.54223,-2.31069c0.29285,-0.90621 1.05728,-0.68341 2.20196,-0.3134c1.14468,0.36999 2.2361,0.74708 1.94321,1.65325c-0.29285,0.90621 -1.4583,1.34087 -2.60293,0.97085z" fill="#8fbbbe" stroke="none" stroke-width="0" stroke-linecap="butt"/><path d="M333.47498,210.73407c-0.58457,0.14164 -1.2307,-0.45431 -1.4432,-1.33114c-0.2125,-0.87684 -0.17819,-1.26419 0.40636,-1.40586c0.58457,-0.14164 1.40713,0.41156 1.61959,1.2884c0.2125,0.87684 0.00177,1.30696 -0.58278,1.44861z" fill="#8fbbbe" stroke="none" stroke-width="0" stroke-linecap="butt"/><path d="M320.32335,205.51039c-0.89453,0.11784 -1.6833,-0.27001 -1.76188,-0.86632c-0.0786,-0.59628 0.7111,-0.64606 1.60559,-0.76394c0.89453,-0.11784 1.55504,-0.25924 1.63365,0.33708c0.0786,0.59628 -0.58287,1.17531 -1.47736,1.29316z" fill="#8fbbbe" stroke="none" stroke-width="0" stroke-linecap="butt"/><path d="M297.96944,213.73549c0,0 8.62315,-5.50643 16.06493,-6.93465c4.21911,-0.80971 8.21719,-0.06688 11.24201,0.53027c2.675,0.52806 8.11058,4.22673 11.97644,7.4907c2.84622,2.40307 4.69958,4.69043 4.69958,4.69043" fill="none" stroke="#000000" stroke-width="0.5" stroke-linecap="round"/><path d="M330.5783,203.40511c0,0 2.09316,10.36324 1.15206,15.68597c-0.79288,4.48453 -6.07778,14.08317 -6.07778,14.08317" fill="none" stroke="#000000" stroke-width="1" stroke-linecap="round"/><path d="M319.79921,232.91182c0,0 -1.80779,-9.49526 -1.50695,-14.0075c0.52821,-7.92263 5.78056,-16.91093 5.78056,-16.91093" fill="none" stroke="#000000" stroke-width="1" stroke-linecap="round"/></g><g stroke="#000000" stroke-linecap="butt"><path d="M296.6436,238.13905c33.25429,2.33886 38.42085,10.48514 37.85317,18.55658c-0.56769,8.07145 -27.98583,12.7186 -61.24013,10.37973c-33.25429,-2.33888 18.17468,-53.03947 18.74237,-61.11091c4.29268,-5.64811 7.86215,-0.18399 7.65471,7.67177c-0.25581,9.68799 -5.85255,24.30291 -3.0101,24.50284z" fill="#216aff" stroke-width="2"/><path d="M322.47461,227.8381c14.27358,1.0039 25.00986,13.68653 23.98012,28.32745c-1.02974,14.64093 -13.43554,25.69592 -27.70913,24.69202c-14.27358,-1.0039 -25.00985,-13.68656 -23.98012,-28.32746c1.02974,-14.64093 13.43554,-25.69591 27.70912,-24.69201z" fill="#faddbf" stroke-width="2"/><path d="M308.04557,266.65884c14.27358,1.0039 38.61126,-25.58845 37.58153,-10.94752c-1.02974,14.64093 -13.43554,25.69592 -27.70912,24.69201c-14.27358,-1.0039 -24.146,-14.74839 -9.87241,-13.74448z" fill="#ef8b89" stroke-width="0"/></g><path d="M294.9773,182.53014c0,1.42243 -5.6083,2.57554 -12.52648,2.57554c-6.91819,0 -12.52648,-1.15311 -12.52648,-2.57554c0,-1.42243 5.6083,-2.57554 12.52648,-2.57554c6.91819,0 12.52648,1.15311 12.52648,2.57554z" fill="#000000" stroke="#000000" stroke-width="2.5" stroke-linecap="butt"/></g></g></svg>