<svg version="1.1" xmlns="http://www.w3.org/2000/svg" xmlns:xlink="http://www.w3.org/1999/xlink" width="191.34597" height="341.96363" viewBox="0,0,191.34597,341.96363"><g transform="translate(-227.79353,-19.02378)"><g data-paper-data="{&quot;isPaintingLayer&quot;:true}" fill-rule="nonzero" stroke-linejoin="miter" stroke-miterlimit="10" stroke-dasharray="" stroke-dashoffset="0" style="mix-blend-mode: normal"><g data-paper-data="{&quot;index&quot;:null}" stroke="#000000" stroke-linecap="butt"><path d="M363.98438,213.86197c23.42737,-23.71659 32.97426,-22.3338 38.73071,-16.64754c5.75647,5.68627 -8.56865,29.52199 -31.99603,53.23859c-23.42738,23.71658 -28.42235,-48.3288 -34.17881,-54.01507c-1.49181,-6.93562 4.97949,-6.08705 10.80681,-0.81463c7.18646,6.50212 14.63484,20.26587 16.63733,18.23866z" fill="#216aff" stroke-width="2"/><path d="M372.98499,187.54961c10.05562,-10.17977 26.67201,-10.07062 37.11375,0.24379c10.44174,10.31441 10.75476,26.92823 0.69913,37.10799c-10.05562,10.17977 -26.67202,10.07061 -37.11376,-0.2438c-10.44174,-10.31441 -10.75475,-26.92821 -0.69913,-37.10798z" fill="#faddbf" stroke-width="2"/><path d="M393.05435,223.7776c10.05562,-10.17977 5.71898,-45.96621 16.16072,-35.6518c10.44174,10.31441 10.75476,26.92823 0.69913,37.10798c-10.05562,10.17977 -26.91549,8.72358 -16.85985,-1.45618z" fill="#ef8b89" stroke-width="0"/></g><g stroke="#000000" stroke-linecap="butt"><path d="M327.76518,340.83535v-95.29492h29.49199v95.29492z" fill="#73fffc" stroke-width="2"/><path d="M327.43943,340.21742l1.32626,-93.78573c0,0 5.20288,68.11227 6.3799,77.52842c0.2602,2.08162 2.52228,2.78987 2.52228,2.78987l18.60659,13.13896z" fill="#59a9e6" stroke-width="0"/></g><g stroke="#000000" stroke-linecap="butt"><path d="M288.4238,338.4128v-95.29492h29.49199v95.29492z" fill="#73fffc" stroke-width="2"/><path d="M288.09805,337.7949l1.32626,-93.78573c0,0 5.20288,68.11227 6.3799,77.52842c0.2602,2.08162 2.52228,2.78987 2.52228,2.78987l18.60659,13.13896z" fill="#59a9e6" stroke-width="0"/></g><g stroke="#000000" stroke-linecap="butt"><path d="M355.22917,235.69588c0,13.80271 10.04743,36.74388 4.95001,46.45977c-6.2338,11.88187 -28.61241,9.09579 -38.9397,9.09579c-13.66287,0 -32.94407,4.17018 -38.34426,-14.83216c-2.01935,-7.10576 4.35457,-32.37264 4.35457,-40.7234c0,-30.68249 15.2177,-55.55556 33.98969,-55.55556c18.77199,0 33.98969,24.87307 33.98969,55.55556z" fill="#216aff" stroke-width="2"/><path d="M303.96554,251.27246c0,13.80271 62.04198,20.54886 56.94455,30.26474c-6.2338,11.88186 -28.61241,9.09579 -38.9397,9.09579c-13.66287,0 -32.94406,4.17018 -38.34425,-14.83215c-2.01936,-7.10576 4.35457,-32.37265 4.35457,-40.7234c0,-9.45244 3.34855,-28.59801 5.51953,-29.96813c5.94391,-16.76415 10.4653,25.13995 10.4653,46.16315z" fill="#3236f4" stroke-width="0"/></g><g stroke="#000000" stroke-linecap="butt"><g><path d="M231.60802,108.96666c-0.84499,-46.78316 36.39526,-85.39339 83.17842,-86.23838c46.78316,-0.84499 85.3934,36.39526 86.23839,83.17842c0.84499,46.78316 -36.39526,85.3934 -83.17842,86.23839c-46.78316,0.84499 -85.3934,-36.39526 -86.23839,-83.17842z" fill="#faddbf" stroke-width="2"/><path d="M231.82305,108.09313c-0.27187,-15.05183 7.91526,-41.16082 12.36552,-44.4559c0.50823,-0.37631 5.62457,-9.01333 13.02256,-15.86458c9.19519,-8.51563 21.03754,-15.53886 21.65177,-15.35286c8.01385,2.42669 -16.35247,65.16086 -14.65707,90.42429c0.00403,0.06024 4.76252,19.61877 6.38866,20.02838c2.97067,4.68959 9.45533,18.98571 20.4638,25.92819c20.51559,12.93811 49.28928,18.79309 47.81537,19.32552c-2.35773,0.8517 -14.7503,3.0359 -20.81222,3.14539c-46.78316,0.84499 -85.3934,-36.39526 -86.23839,-83.17842z" fill="#ef8b89" stroke-width="0"/><path d="M400.4932,105.45802c0.20992,11.62244 -1.29515,15.66665 -1.88055,13.82521c-0.59723,-1.87862 -0.36387,-9.80865 -9.30566,-14.48356c-2.16677,-1.13282 -10.09124,6.45935 -12.84058,5.28066c-1.7269,-0.74035 -8.83449,-10.01763 -10.76007,-10.65899c-1.34632,-0.44843 -12.29679,8.60104 -13.70424,8.17573c-3.51025,-1.06072 -12.19194,-11.1552 -15.95442,-11.74536c-2.07189,-0.32499 -9.06729,12.01548 -11.18056,11.79976c-2.72532,-0.2782 -10.28492,-11.88464 -13.02187,-11.8352c-7.27867,0.13147 -7.35195,7.14473 -12.48045,13.24456c-3.33262,3.96382 -14.22184,-12.79714 -17.26504,-8.30625c-3.77931,5.57714 -7.52331,10.95536 -11.69864,14.63099c-3.2757,2.88367 -13.54431,-9.85388 -16.37256,-7.18459c-13.65556,12.88806 -21.84709,21.04169 -22.17526,2.87281c-0.65988,-36.53419 43.13225,-8.99387 84.51955,-31.26665c39.6155,-21.31928 83.46052,-10.88329 84.12039,25.65091z" fill="#ef8b89" stroke-width="0"/></g><path d="M401.87673,97.12078c0.42408,23.47951 6.68802,8.59594 -11.48045,-0.65305c-2.22329,-1.1318 -10.36003,6.4642 -13.18121,5.28681c-1.77203,-0.73954 -9.06237,-10.01352 -11.03834,-10.65397c-1.38157,-0.44779 -12.62468,8.60696 -14.06898,8.18232c-3.60217,-1.05906 -12.50768,-11.14949 -16.36895,-11.73787c-2.12629,-0.324 -9.31176,12.01989 -11.48057,11.80517c-2.79695,-0.2769 -10.55009,-11.87985 -13.35913,-11.82911c-7.4704,0.13493 -7.54894,7.14827 -12.81539,13.25059c-3.42227,3.96544 -14.59024,-12.79048 -17.71572,-8.29811c-3.88147,5.579 -7.72663,10.95903 -12.01364,14.63668c-3.36332,2.88526 -13.89628,-9.84753 -16.80026,-7.17687c-14.02127,12.89466 -22.43239,21.05226 -22.76056,2.88339c-0.65988,-36.53419 38.38874,-81.96359 84.30809,-82.79298c45.91934,-0.82939 88.1153,40.56279 88.77518,77.09697z" fill="#724e36" stroke-width="2"/><path d="M401.60804,95.96266c0.42408,23.47951 6.68802,8.59594 -11.48046,-0.65304c-2.22329,-1.1318 -10.36003,6.4642 -13.18121,5.28681c-1.77203,-0.73954 -9.06237,-10.01352 -11.03835,-10.65397c-1.38157,-0.44779 -12.62468,8.60696 -14.06898,8.18232c-3.60217,-1.05906 -12.50768,-11.14949 -16.36895,-11.73787c-2.12629,-0.324 -9.31176,12.01989 -11.48057,11.80517c-2.79695,-0.2769 -10.55009,-11.87985 -13.35913,-11.82912c-7.4704,0.13493 -7.54894,7.14828 -12.81539,13.2506c-3.42227,3.96544 -14.59024,-12.79048 -17.71572,-8.29811c-3.88147,5.579 -7.72662,10.95903 -12.01365,14.63668c-3.36332,2.88526 -13.89628,-9.84753 -16.80026,-7.17686c-14.02127,12.89466 -22.43239,21.05225 -22.76056,2.88339c-0.65988,-36.53419 44.27229,-9.01446 86.75999,-31.30712c40.6688,-21.3383 85.66339,-10.92307 86.32327,25.61112z" fill="#623728" stroke-width="0"/></g><g stroke="#000000" stroke-linecap="butt"><path d="M328.3491,113.55784c0.51574,28.55428 -12.3844,43.52022 -28.95023,43.81943c-16.56583,0.29921 -30.52425,-14.18162 -31.03999,-42.73589c-0.51574,-28.55428 12.49544,-51.94465 29.06128,-52.24386c16.56583,-0.29921 30.4132,22.60605 30.92894,51.16033z" fill="#f0f0f0" stroke-width="2"/><path d="M281.24736,94.82298c-3.79203,28.30606 35.33827,61.41345 18.77244,61.71266c-16.56583,0.29921 -30.52425,-14.18162 -31.03999,-42.73589c-0.51574,-28.55428 17.74971,-59.89896 12.26756,-18.97676z" fill="#9a99ff" stroke-width="0"/></g><path d="M327.24648,117.87487c-1.17145,15.77879 -6.79713,28.22287 -12.56531,27.79462c-5.76818,-0.42823 -9.49459,-13.56662 -8.32314,-29.34542c1.17145,-15.77879 6.79713,-28.22287 12.56531,-27.79462c5.76818,0.42823 9.49459,13.56662 8.32314,29.34542z" fill="#000000" stroke="none" stroke-width="0" stroke-linecap="butt"/><g stroke="#000000" stroke-linecap="butt"><path d="M322.50971,83.33c4.64347,10.1476 -9.64121,14.29806 -25.34891,14.58178c-15.7077,0.2837 -27.25934,-4.14994 -22.88891,-13.84567c4.1584,-9.22532 6.40184,-21.53805 22.10954,-21.82175c15.7077,-0.2837 21.703,11.41484 26.12828,21.08564z" fill="#a100fe" stroke-width="2"/><path d="M321.5792,82.99249c4.49144,10.15035 -9.30378,14.29196 -24.47588,14.566c-15.1721,0.27404 -26.33272,-4.16668 -22.11724,-13.85961c4.01097,-9.22267 6.57454,0.84345 21.74664,0.56941c15.1721,-0.27404 20.56607,-10.94922 24.84647,-1.27581z" fill="#99008e" stroke-width="0"/></g><g data-paper-data="{&quot;index&quot;:null}" stroke="#000000" stroke-linecap="butt"><path d="M361.10974,59.76828c16.56583,-0.29921 30.41321,22.60605 30.92895,51.16033c0.51574,28.55427 -12.91063,43.52972 -29.47647,43.82893c-16.56583,0.29921 -29.99802,-14.19112 -30.51376,-42.7454c-0.51574,-28.55428 12.49544,-51.94465 29.06128,-52.24386z" fill="#f0f0f0" stroke-width="2"/><path d="M391.38777,110.10996c0.51574,28.55427 -12.91063,43.52972 -29.47647,43.82893c-16.56583,0.29921 21.34337,-34.19964 16.53163,-62.35031c-6.95635,-40.69754 12.4291,-10.0329 12.94484,18.52139z" fill="#9a99ff" stroke-width="0"/></g><path d="M385.45125,89.96135c5.7473,0.65099 8.9628,13.92368 7.18201,29.64535c-1.78081,15.72168 -7.88355,27.93888 -13.63085,27.28787c-5.7473,-0.65099 -8.9628,-13.92368 -7.182,-29.64535c1.78081,-15.72168 7.88354,-27.93888 13.63085,-27.28787z" data-paper-data="{&quot;index&quot;:null}" fill="#000000" stroke="none" stroke-width="0" stroke-linecap="butt"/><g data-paper-data="{&quot;index&quot;:null}" stroke="#000000" stroke-linecap="butt"><path d="M336.51457,81.89187c4.07317,-9.8243 9.6421,-21.73172 25.3498,-22.01543c15.7077,-0.2837 18.3943,11.93996 22.88313,21.00911c4.7177,9.53158 -6.66628,14.37949 -22.37398,14.6632c-15.7077,0.2837 -30.13295,-3.34819 -25.85895,-13.65687z" fill="#a100fe" stroke-width="2"/><path d="M337.43229,81.521c3.92829,-9.82168 9.70424,0.65176 24.87634,0.37772c15.1721,-0.27404 17.37049,-10.42616 21.71189,-1.35435c4.56276,9.53438 -6.43021,14.37523 -21.60231,14.64926c-15.1721,0.27404 -29.10788,-3.3667 -24.98593,-13.67263z" fill="#99008e" stroke-width="0"/></g><path d="M391.63632,338.87004c0,11.6628 -14.51982,21.11737 -32.43092,21.11737c-17.9111,0 -32.43092,-9.45457 -32.43092,-21.11737c0,-2.33142 -0.03339,-13.76009 1.08979,-15.13837c4.49546,-5.51647 17.81784,5.26144 32.14847,5.26144c17.9111,0 31.62358,-1.78588 31.62358,9.87692z" fill="#000082" stroke="#000000" stroke-width="2" stroke-linecap="butt"/><path d="M389.75004,336.13774c0,6.30841 -13.89058,10.1901 -31.80169,10.1901c-17.9111,0 -30.16566,-2.95748 -30.16566,-9.26589c0,-1.26107 -0.03338,-12.52602 1.0898,-13.27153c4.49546,-2.98386 15.55258,5.7726 29.88321,5.7726c17.9111,0 30.99434,0.26631 30.99434,6.57472z" fill="#2e0048" stroke="#000000" stroke-width="0" stroke-linecap="butt"/><path d="M348.64938,338.22521c0,11.6628 -14.51982,21.11737 -32.43092,21.11737c-17.9111,0 -32.43092,-9.45457 -32.43092,-21.11737c0,-2.33142 -0.03339,-13.76009 1.08979,-15.13837c4.49546,-5.51647 17.81784,5.26144 32.14847,5.26144c17.9111,0 31.62358,-1.78588 31.62358,9.87692z" fill="#000082" stroke="#000000" stroke-width="2" stroke-linecap="butt"/><path d="M346.7631,335.49289c0,6.30841 -13.89058,10.1901 -31.80169,10.1901c-17.9111,0 -30.16566,-2.95748 -30.16566,-9.26589c0,-1.26107 -0.03338,-12.52602 1.0898,-13.27153c4.49546,-2.98386 15.55258,5.7726 29.88321,5.7726c17.9111,0 30.99434,0.26631 30.99434,6.57472z" fill="#2e0048" stroke="#000000" stroke-width="0" stroke-linecap="butt"/><g><path d="M334.44744,243.37375c-12.53898,8.39029 -24.08174,6.98502 -32.95806,-5.02832c-6.94229,-9.39573 -3.71428,-27.21717 8.82471,-35.60748c12.53902,-8.39036 27.06948,-6.38302 35.37621,6.03098c1.29901,1.94131 1.9217,4.11846 2.50901,6.10162c3.16815,10.69829 -3.17372,21.42497 -13.75185,28.50319z" fill="#485e84" stroke="#000000" stroke-width="2" stroke-linecap="butt"/><path d="M302.50513,214.07838c0,0 2.82487,5.01509 4.82544,5.1204c19.18992,1.01023 31.40756,-5.91421 35.27369,-8.51281c0.87838,-0.59039 0.82099,-1.7118 0.82099,-1.7118c0,0 1.35351,1.6236 2.34866,4.17776c1.05893,2.71784 1.75194,6.46264 1.34705,9.50915c-0.46255,3.47995 -3.65318,11.18245 -3.65318,11.18245l-15.38065,14.22301c0,0 -13.37167,-1.46747 -15.3124,-2.4321c-1.90128,-0.94499 -3.88002,-2.60851 -6.05509,-4.29257c-3.37708,-2.61474 -5.77776,-6.46748 -6.55189,-9.24156c-0.98793,-3.54037 -0.72806,-8.19702 0.14024,-11.91299c0.80813,-3.45841 2.19721,-6.10884 2.19721,-6.10884z" fill="#343545" stroke="none" stroke-width="0" stroke-linecap="butt"/><path d="M317.99273,232.98086c0,0 -6.46193,-6.29617 -7.20144,-11.39845c-0.93617,-6.45895 0.8561,-19.29991 0.8561,-19.29991" fill="none" stroke="#000000" stroke-width="1" stroke-linecap="round"/><path d="M340.49672,203.94491c0,0 2.63432,6.64757 3.21833,10.90558c0.58963,4.29866 -1.56522,13.7596 -1.56522,13.7596" fill="none" stroke="#000000" stroke-width="1" stroke-linecap="round"/><path d="M310.95911,241.40016c0,0 -6.72962,-6.36384 -7.27898,-11.92685c-0.84295,-8.53625 0.27698,-20.07928 0.27698,-20.07928" fill="none" stroke="#000000" stroke-width="1" stroke-linecap="round"/><path d="M299.31294,231.50248c0,0 5.53121,-16.39759 22.21966,-21.40151c18.28008,-5.48117 27.59875,9.03273 27.59875,9.03273" fill="none" stroke="#000000" stroke-width="1" stroke-linecap="round"/><path d="M303.50606,240.05366c0,0 8.38663,-15.70118 23.10334,-20.1484c12.08378,-3.65156 21.0767,7.83958 21.0767,7.83958" fill="none" stroke="#000000" stroke-width="1" stroke-linecap="round"/><path d="M325.70778,202.39588c-1.20207,0.0473 -2.20683,-0.68582 -2.24426,-1.63739c-0.0375,-0.95162 0.75688,-1.006 1.95894,-1.05329c1.20207,-0.0473 2.35657,-0.06959 2.39403,0.88201c0.0375,0.95162 -0.90665,1.76141 -2.10868,1.80866z" fill="#8fbbbe" stroke="none" stroke-width="0" stroke-linecap="butt"/><path d="M332.94383,203.10193c-0.49991,0.33449 -1.31188,-0.00219 -1.81362,-0.75203c-0.50175,-0.74984 -0.60309,-1.12527 -0.10321,-1.45977c0.49991,-0.33449 1.46275,-0.09876 1.96446,0.65109c0.50175,0.74984 0.45221,1.22622 -0.04767,1.56071z" fill="#8fbbbe" stroke="none" stroke-width="0" stroke-linecap="butt"/><path d="M318.7976,202.73227c-0.79907,0.41899 -1.67319,0.32684 -1.95253,-0.20583c-0.27934,-0.53263 0.44478,-0.8516 1.2438,-1.27062c0.79907,-0.41899 1.37035,-0.77943 1.6497,-0.24676c0.27934,0.53263 -0.14197,1.30419 -0.941,1.72319z" fill="#8fbbbe" stroke="none" stroke-width="0" stroke-linecap="butt"/><path d="M300.64945,218.15936c0,0 6.1963,-8.14159 12.68953,-12.04771c3.68135,-2.21455 7.69041,-2.89553 10.73568,-3.37775c2.69307,-0.42649 9.0705,1.17163 13.82459,2.90282c3.50016,1.27457 6.02845,2.78281 6.02845,2.78281" fill="none" stroke="#000000" stroke-width="0.5" stroke-linecap="round"/><path d="M327.69816,197.22081c0,0 5.53742,9.00638 6.48895,14.32727c0.8017,4.48296 -0.85025,15.31509 -0.85025,15.31509" fill="none" stroke="#000000" stroke-width="1" stroke-linecap="round"/><path d="M327.75182,228.63469c0,0 -4.97032,-8.29 -6.24344,-12.62935c-2.23537,-7.61906 -0.40358,-17.86706 -0.40358,-17.86706" fill="none" stroke="#000000" stroke-width="1" stroke-linecap="round"/></g><g stroke="#000000" stroke-linecap="butt"><path d="M307.81766,241.52404c32.0221,-9.26843 39.68025,-3.4026 41.92987,4.36975c2.24962,7.77237 -21.88575,21.58665 -53.90786,30.85507c-32.0221,9.26842 -1.22399,-56.05359 -3.4736,-63.82596c2.08244,-6.78171 7.31677,-2.88308 9.8302,4.56264c3.09966,9.18231 2.88427,24.83072 5.6214,24.0385z" fill="#216aff" stroke-width="2"/><path d="M328.51413,222.94969c13.7447,-3.97825 28.19498,4.22578 32.27559,18.3242c4.08062,14.09842 -3.75366,28.75246 -17.49836,32.7307c-13.7447,3.97825 -28.19499,-4.22579 -32.2756,-18.32421c-4.08062,-14.09842 3.75367,-28.75245 17.49836,-32.7307z" fill="#faddbf" stroke-width="2"/><path d="M328.35246,264.36492c13.7447,-3.97825 27.42316,-37.33053 31.50379,-23.23211c4.08062,14.09842 -3.75366,28.75246 -17.49836,32.7307c-13.7447,3.97825 -27.75014,-5.52034 -14.00543,-9.49858z" fill="#ef8b89" stroke-width="0"/></g><path d="M244.6221,135.41456c-0.10135,0.44331 -0.2059,0.88667 -0.13436,1.32736c0.32678,2.01303 3.89421,3.22301 5.36714,3.91265c3.35792,1.57223 7.15862,2.61782 7.75755,6.93729c0.12511,0.90226 0.22935,1.86295 -0.04245,2.73234c-1.56527,5.00683 -9.81536,5.47444 -14.07303,4.13383c-0.79681,-0.25089 -1.48367,-0.76819 -2.22551,-1.15228c-5.9311,-3.85908 -6.80296,-10.0999 -6.63791,-16.69575c0.06075,-2.42756 -0.14297,-4.8699 1.464,-6.90019c1.57663,-1.99197 5.21571,-3.2045 7.43283,-1.22751c1.30813,1.16645 1.22138,3.1858 1.33001,4.70788l0.0032,1.33467c0,0 0,0.45755 -0.24148,0.8897z" fill="#000000" stroke="none" stroke-width="0.5" stroke-linecap="butt"/></g></g></svg>