<svg version="1.1" xmlns="http://www.w3.org/2000/svg" xmlns:xlink="http://www.w3.org/1999/xlink" width="184.52533" height="317.58871" viewBox="0,0,184.52533,317.58871"><g transform="translate(-236.57048,-43.3987)"><g data-paper-data="{&quot;isPaintingLayer&quot;:true}" fill-rule="nonzero" stroke-linejoin="miter" stroke-miterlimit="10" stroke-dasharray="" stroke-dashoffset="0" style="mix-blend-mode: normal"><g data-paper-data="{&quot;index&quot;:null}" stroke="#000000" stroke-linecap="butt"><path d="M337.17953,232.67042c32.75053,6.22266 36.92608,14.91863 35.41572,22.86779c-1.51035,7.94917 -29.2843,9.34878 -62.03484,3.12611c-32.75054,-6.22267 24.26951,-50.54201 25.77987,-58.49117c4.92546,-5.10571 7.82947,0.73933 6.70218,8.51654c-1.39022,9.59115 -8.66231,23.44884 -5.86292,23.98074z" fill="#216aff" stroke-width="2"/><path d="M364.04036,225.46993c14.05736,2.67091 23.23215,16.52514 20.4925,30.94427c-2.73966,14.41913 -16.35634,23.94295 -30.4137,21.27203c-14.05736,-2.67092 -23.23216,-16.52515 -20.49251,-30.94428c2.73966,-14.41913 16.35633,-23.94293 30.4137,-21.27201z" fill="#faddbf" stroke-width="2"/><path d="M345.15812,262.33058c14.05736,2.67092 41.34574,-20.8837 38.60608,-6.46458c-2.73966,14.41913 -16.35635,23.94293 -30.4137,21.27201c-14.05736,-2.67092 -22.24976,-17.47836 -8.19239,-14.80743z" fill="#ef8b89" stroke-width="0"/></g><g stroke="#000000" stroke-linecap="butt"><path d="M327.76518,340.83535v-95.29492h29.49199v95.29492z" fill="#73fffc" stroke-width="2"/><path d="M327.43943,340.21742l1.32626,-93.78573c0,0 5.20288,68.11227 6.3799,77.52842c0.2602,2.08162 2.52228,2.78987 2.52228,2.78987l18.60659,13.13896z" fill="#59a9e6" stroke-width="0"/></g><g stroke="#000000" stroke-linecap="butt"><path d="M288.4238,338.4128v-95.29492h29.49199v95.29492z" fill="#73fffc" stroke-width="2"/><path d="M288.09805,337.7949l1.32626,-93.78573c0,0 5.20288,68.11227 6.3799,77.52842c0.2602,2.08162 2.52228,2.78987 2.52228,2.78987l18.60659,13.13896z" fill="#59a9e6" stroke-width="0"/></g><g stroke="#000000" stroke-linecap="butt"><path d="M355.22917,235.69587c0,13.80271 10.04743,36.74388 4.95001,46.45977c-6.2338,11.88187 -28.61241,9.09579 -38.9397,9.09579c-13.66287,0 -32.94407,4.17018 -38.34426,-14.83216c-2.01935,-7.10576 4.35457,-32.37264 4.35457,-40.7234c0,-30.68249 15.2177,-55.55556 33.98969,-55.55556c18.77199,0 33.98969,24.87307 33.98969,55.55556z" fill="#216aff" stroke-width="2"/><path d="M303.96554,251.27245c0,13.80271 62.04198,20.54886 56.94455,30.26474c-6.2338,11.88186 -28.61241,9.09579 -38.9397,9.09579c-13.66287,0 -32.94406,4.17018 -38.34425,-14.83215c-2.01936,-7.10576 4.35457,-32.37265 4.35457,-40.7234c0,-9.45244 3.34855,-28.59801 5.51953,-29.96813c5.94391,-16.76415 10.4653,25.13995 10.4653,46.16315z" fill="#3236f4" stroke-width="0"/></g><g stroke="#000000" stroke-linecap="butt"><g><path d="M249.35537,123.85452c4.46423,-46.57734 45.8416,-80.71677 92.41893,-76.25254c46.57734,4.46423 80.71677,45.8416 76.25254,92.41893c-4.46423,46.57734 -45.8416,80.71677 -92.41893,76.25254c-46.57734,-4.46423 -80.71677,-45.8416 -76.25254,-92.41893z" fill="#faddbf" stroke-width="2"/><path d="M249.66805,123.01099c1.4363,-14.98561 12.53059,-39.99811 17.32573,-42.76742c0.54761,-0.31627 6.61014,-8.31757 14.73715,-14.28594c10.10133,-7.41828 22.66355,-13.05367 23.25273,-12.79923c7.68708,3.31956 -23.63428,62.88689 -24.81389,88.17966c-0.00282,0.06032 2.50765,20.03221 4.07687,20.62354c2.41986,4.99614 7.24196,19.93525 17.39241,28.08098c18.91654,15.18053 46.84095,24.25981 45.31617,24.62172c-2.43909,0.57892 -14.99937,1.3441 -21.03462,0.76565c-46.57734,-4.46423 -80.71677,-45.8416 -76.25254,-92.41893z" fill="#ef8b89" stroke-width="0"/><path d="M417.54951,139.51487c-1.10906,11.57131 -3.06292,15.41882 -3.43579,13.52287c-0.3804,-1.93421 0.75048,-9.78666 -7.60367,-15.44516c-2.02437,-1.37116 -10.75847,5.27366 -13.35646,3.79088c-1.63183,-0.93136 -7.64185,-10.9546 -9.4823,-11.81014c-1.28681,-0.59818 -13.1926,7.15151 -14.54277,6.56939c-3.36736,-1.45183 -10.84869,-12.46547 -14.52001,-13.47838c-2.02168,-0.55778 -10.37102,10.91006 -12.4462,10.45615c-2.67621,-0.58537 -8.87126,-12.97401 -11.59617,-13.23517c-7.24665,-0.69455 -8.11455,6.26517 -13.90151,11.74427c-3.76051,3.56045 -12.67935,-14.32696 -16.21207,-10.21002c-4.38722,5.11273 -8.7168,10.03182 -13.28191,13.21039c-3.5815,2.49372 -12.33987,-11.32587 -15.4525,-8.99442c-15.02863,11.25684 -24.09174,18.42924 -22.35799,0.34031c3.48624,-36.37346 43.87381,-4.04602 87.51931,-21.48317c41.77704,-16.69065 84.15628,-1.35127 80.67004,35.02219z" fill="#ef8b89" stroke-width="0"/></g><path d="M419.8693,131.38823c-2.2405,23.37622 5.67039,9.29873 -11.3324,-1.95036c-2.08065,-1.37656 -11.02608,5.24801 -13.69559,3.75838c-1.67675,-0.93567 -7.86871,-10.97635 -9.75935,-11.83669c-1.3219,-0.60153 -13.51906,7.12022 -14.90591,6.53459c-3.45889,-1.46061 -11.16303,-12.49559 -14.9327,-13.51792c-2.07584,-0.56297 -10.61441,10.88673 -12.7449,10.42751c-2.74752,-0.5922 -9.13528,-12.99931 -11.93194,-13.26736c-7.43752,-0.71285 -8.31067,6.24637 -14.23497,11.71231c-3.84976,3.55189 -13.04613,-14.3621 -16.66076,-10.25303c-4.48894,5.10298 -8.91923,10.01241 -13.59553,13.18034c-3.66874,2.48536 -12.69029,-11.35944 -15.87832,-9.03523c-15.39272,11.22195 -24.67445,18.37338 -22.94071,0.28446c3.48624,-36.37346 47.43339,-77.08307 93.15072,-72.70127c45.71732,4.3818 82.94866,50.29083 79.46242,86.66429z" fill="#724e36" stroke-width="2"/><path d="M419.73365,130.20711c-2.2405,23.37622 5.67039,9.29873 -11.3324,-1.95036c-2.08065,-1.37656 -11.02608,5.24801 -13.69559,3.75838c-1.67675,-0.93567 -7.86871,-10.97635 -9.75936,-11.83669c-1.3219,-0.60153 -13.51906,7.12022 -14.90591,6.53459c-3.45889,-1.46061 -11.16303,-12.49559 -14.9327,-13.51792c-2.07584,-0.56297 -10.61441,10.88673 -12.7449,10.42751c-2.74752,-0.5922 -9.13528,-12.99931 -11.93194,-13.26736c-7.43752,-0.71285 -8.31067,6.24637 -14.23497,11.71231c-3.84976,3.55189 -13.04613,-14.3621 -16.66076,-10.25303c-4.48894,5.10298 -8.91923,10.01241 -13.59554,13.18034c-3.66874,2.48536 -12.69029,-11.35944 -15.87832,-9.03523c-15.39272,11.22195 -24.67445,18.37338 -22.94071,0.28446c3.48624,-36.37346 45.00882,-3.93724 89.7499,-21.26937c42.82571,-16.59014 86.34945,-1.14106 82.86323,35.2324z" fill="#623728" stroke-width="0"/></g><g stroke="#000000" stroke-linecap="butt"><path d="M350.25523,156.53263c-2.72476,28.42866 -17.2384,41.83563 -33.73136,40.25485c-16.49296,-1.58078 -28.71969,-17.5507 -25.99494,-45.97935c2.72476,-28.42866 18.3038,-50.19316 34.79676,-48.61239c16.49296,1.58078 27.6543,25.90823 24.92954,54.33689z" fill="#f0f0f0" stroke-width="2"/><path d="M305.58111,132.57868c-6.97662,27.69367 28.14805,65.02378 11.6551,63.443c-16.49296,-1.58078 -28.71969,-17.5507 -25.99494,-45.97935c2.72476,-28.42866 24.42597,-57.50052 14.33984,-17.46365z" fill="#9a99ff" stroke-width="0"/></g><path d="M345.59304,164.35676c-1.50957,15.75003 -7.40083,28.0706 -13.15851,27.51875c-5.75768,-0.55185 -9.20145,-13.76714 -7.69188,-29.51717c1.50957,-15.75003 7.40083,-28.0706 13.15851,-27.51875c5.75768,0.55185 9.20145,13.76714 7.69188,29.51717z" fill="#000000" stroke="none" stroke-width="0" stroke-linecap="butt"/><g stroke="#000000" stroke-linecap="butt"><path d="M348.13434,126.15703c3.46311,10.60861 9.48909,39.85515 -6.14951,38.35626c-15.63859,-1.49888 -47.30222,-33.95584 -41.86077,-43.09359c5.17746,-8.69442 8.80231,-20.67342 24.4409,-19.17452c15.63859,1.49888 20.26899,13.8017 23.56937,23.91184z" fill="#a100fe" stroke-width="2"/><path d="M347.24808,125.71622c3.31175,10.5941 9.84549,39.674 -5.25988,38.22622c-15.10535,-1.44778 -46.40013,-33.65408 -41.11295,-42.80661c5.03068,-8.70849 6.43653,1.58335 21.54188,3.03113c15.10535,1.44778 21.67478,-8.54708 24.83092,1.54924z" fill="#99008e" stroke-width="0"/></g><g data-paper-data="{&quot;index&quot;:null}" stroke="#000000" stroke-linecap="butt"><path d="M388.90274,106.80391c16.49296,1.58078 27.6543,25.90823 24.92954,54.33689c-2.72476,28.42865 -17.76232,41.78542 -34.25528,40.20464c-16.49296,-1.58078 -28.19577,-17.50048 -25.47102,-45.92914c2.72476,-28.42866 18.3038,-50.19316 34.79676,-48.61239z" fill="#f0f0f0" stroke-width="2"/><path d="M413.27837,160.25363c-2.72476,28.42865 -17.76232,41.78542 -34.25528,40.20464c-16.49296,-1.58078 25.08296,-31.55948 23.49365,-60.07416c-2.29766,-41.2238 13.48638,-8.55914 10.76163,19.86952z" fill="#9a99ff" stroke-width="0"/></g><path d="M401.44809,140.75805c5.75768,0.55185 9.20145,13.76714 7.69188,29.51717c-1.50957,15.75003 -7.40083,28.0706 -13.15851,27.51875c-5.75768,-0.55185 -9.20145,-13.76714 -7.69188,-29.51717c1.50957,-15.75003 7.40083,-28.0706 13.15851,-27.51875z" data-paper-data="{&quot;index&quot;:null}" fill="#000000" stroke="none" stroke-width="0" stroke-linecap="butt"/><g data-paper-data="{&quot;index&quot;:null}" stroke="#000000" stroke-linecap="butt"><path d="M361.958,125.99653c5.16068,-9.29919 12.04364,-20.4985 27.68223,-18.9996c15.63859,1.49888 16.92209,13.94833 20.35382,23.4679c3.60671,10.00497 -32.61974,36.38556 -48.25834,34.88667c-15.63859,-1.49888 -5.19285,-29.59727 0.22227,-39.35495z" fill="#a100fe" stroke-width="2"/><path d="M362.91185,125.73209c5.01643,-9.31302 9.56778,1.74771 24.67313,3.1955c15.10535,1.44778 18.4405,-8.38966 21.72545,1.11585c3.45244,9.99018 -32.61849,36.60098 -47.72385,35.15321c-15.10535,-1.44778 -3.93851,-29.69235 1.32525,-39.46454z" fill="#99008e" stroke-width="0"/></g><path d="M391.63632,338.87004c0,11.6628 -14.51982,21.11737 -32.43092,21.11737c-17.9111,0 -32.43092,-9.45457 -32.43092,-21.11737c0,-2.33142 -0.03339,-13.76009 1.08979,-15.13837c4.49546,-5.51647 17.81784,5.26144 32.14847,5.26144c17.9111,0 31.62358,-1.78588 31.62358,9.87692z" fill="#000082" stroke="#000000" stroke-width="2" stroke-linecap="butt"/><path d="M389.75004,336.13774c0,6.30841 -13.89058,10.1901 -31.80169,10.1901c-17.9111,0 -30.16566,-2.95748 -30.16566,-9.26589c0,-1.26107 -0.03338,-12.52602 1.0898,-13.27153c4.49546,-2.98386 15.55258,5.7726 29.88321,5.7726c17.9111,0 30.99434,0.26631 30.99434,6.57472z" fill="#2e0048" stroke="#000000" stroke-width="0" stroke-linecap="butt"/><path d="M348.64938,338.22521c0,11.6628 -14.51982,21.11737 -32.43092,21.11737c-17.9111,0 -32.43092,-9.45457 -32.43092,-21.11737c0,-2.33142 -0.03339,-13.76009 1.08979,-15.13837c4.49546,-5.51647 17.81784,5.26144 32.14847,5.26144c17.9111,0 31.62358,-1.78588 31.62358,9.87692z" fill="#000082" stroke="#000000" stroke-width="2" stroke-linecap="butt"/><path d="M346.7631,335.49289c0,6.30841 -13.89058,10.1901 -31.80169,10.1901c-17.9111,0 -30.16566,-2.95748 -30.16566,-9.26589c0,-1.26107 -0.03338,-12.52602 1.0898,-13.27153c4.49546,-2.98386 15.55258,5.7726 29.88321,5.7726c17.9111,0 30.99434,0.26631 30.99434,6.57472z" fill="#2e0048" stroke="#000000" stroke-width="0" stroke-linecap="butt"/><g><path d="M293.03459,261.98079c-14.14138,-5.2578 -19.75662,-15.44009 -15.20948,-29.668c3.55634,-11.1278 19.89662,-18.93924 34.03802,-13.68144c14.14145,5.2578 21.01688,18.21512 15.81152,32.21559c-0.81402,2.18941 -2.21506,3.9684 -3.4795,5.60519c-6.82118,8.82961 -19.23059,9.96424 -31.16054,5.52867z" fill="#216aff" stroke="#000000" stroke-width="2" stroke-linecap="butt"/><path d="M298.09749,218.9355c0,0 -2.41361,5.22548 -1.32826,6.90935c10.41067,16.15213 23.17534,22.00717 27.54498,23.62151c0.99277,0.36678 1.86852,-0.336 1.86852,-0.336c0,0 -0.5245,2.04768 -2.01329,4.34932c-1.5842,2.44914 -4.21528,5.20254 -6.92262,6.65702c-3.09256,1.66138 -11.20558,3.58158 -11.20558,3.58158l-20.53403,-4.14881c0,0 -6.63507,-11.70174 -6.98858,-13.83995c-0.34633,-2.09473 -0.15535,-4.67277 -0.0626,-7.42201c0.14402,-4.26858 1.86332,-8.46988 3.65978,-10.721c2.29272,-2.87291 6.22084,-5.38723 9.74222,-6.8577c3.2773,-1.36854 6.23941,-1.79316 6.23941,-1.79316z" fill="#3236f4" stroke="none" stroke-width="0" stroke-linecap="butt"/><path d="M291.83288,242.55592c0,0 1.32401,-8.92442 5.02866,-12.5099c4.68967,-4.53887 16.15113,-10.60001 16.15113,-10.60001" fill="none" stroke="#000000" stroke-width="1" stroke-linecap="round"/><path d="M328.54714,243.81253c0,0 -3.84887,6.02629 -6.95991,8.99161c-3.14072,2.99369 -12.07352,6.78282 -12.07352,6.78282" fill="none" stroke="#000000" stroke-width="1" stroke-linecap="round"/><path d="M280.8897,241.77935c0,0 1.22223,-9.18108 5.41177,-12.88201c6.42869,-5.67892 16.44423,-11.52571 16.44423,-11.52571" fill="none" stroke="#000000" stroke-width="1" stroke-linecap="round"/><path d="M282.10037,226.54349c0,0 16.53351,-5.11059 30.35716,5.49369c15.14206,11.61563 8.82609,27.66553 8.82609,27.66553" fill="none" stroke="#000000" stroke-width="1" stroke-linecap="round"/><path d="M277.62006,234.94776c0,0 17.63978,-2.3876 29.85815,6.94357c10.03239,7.66176 5.97694,21.67862 5.97694,21.67862" fill="none" stroke="#000000" stroke-width="1" stroke-linecap="round"/><path d="M321.14883,230.91381c-0.7418,-0.94706 -0.7353,-2.19084 0.01441,-2.77805c0.74971,-0.58728 1.25867,0.02504 2.00046,0.97211c0.7418,0.94706 1.43547,1.8702 0.68575,2.45744c-0.74971,0.58728 -1.95888,0.29557 -2.70061,-0.65149z" fill="#8fbbbe" stroke="none" stroke-width="0" stroke-linecap="butt"/><path d="M324.81079,237.19463c-0.56377,-0.20964 -0.76593,-1.06507 -0.45151,-1.91074c0.31441,-0.84567 0.55955,-1.14754 1.12332,-0.93795c0.56377,0.20964 0.93606,1.12834 0.62162,1.97399c-0.31441,0.84567 -0.7297,1.08428 -1.29345,0.87467z" fill="#8fbbbe" stroke="none" stroke-width="0" stroke-linecap="butt"/><path d="M316.83224,225.50725c-0.80737,-0.40277 -1.24419,-1.16552 -0.97571,-1.70375c0.26842,-0.53821 0.95085,-0.13768 1.7582,0.26504c0.80737,0.40277 1.43394,0.65509 1.16548,1.19334c-0.26842,0.53821 -1.14063,0.64808 -1.94799,0.24534z" fill="#8fbbbe" stroke="none" stroke-width="0" stroke-linecap="butt"/><path d="M293.70233,219.81892c0,0 10.22799,0.26012 17.19524,3.23959c3.95008,1.68923 6.84835,4.54164 9.02145,6.72884c1.92181,1.93421 4.35794,8.04083 5.73621,12.90896c1.01474,3.58413 1.27127,6.51691 1.27127,6.51691" fill="none" stroke="#000000" stroke-width="0.5" stroke-linecap="round"/><path d="M326.51001,229.49936c0,0 -4.06274,9.76074 -7.82056,13.64608c-3.16604,3.2735 -12.91646,8.27287 -12.91646,8.27287" fill="none" stroke="#000000" stroke-width="1" stroke-linecap="round"/><path d="M301.06815,247.92613c0,0 3.81368,-8.88166 6.5874,-12.4534c4.87011,-6.27128 14.25208,-10.78298 14.25208,-10.78298" fill="none" stroke="#000000" stroke-width="1" stroke-linecap="round"/></g><g stroke="#000000" stroke-linecap="butt"><path d="M278.95088,239.30447c26.25489,20.54263 25.97984,30.18523 20.99377,36.55777c-4.98608,6.37255 -30.31189,-5.11459 -56.56677,-25.65724c-26.25488,-20.54264 44.73716,-33.79482 49.72325,-40.16737c6.71787,-2.27999 6.6196,4.24596 2.05278,10.64127c-5.63195,7.88693 -18.44718,16.86966 -16.20301,18.62557z" fill="#216aff" stroke-width="2"/><path d="M306.12416,245.21745c11.26927,8.81742 13.07292,25.336 4.02858,36.89527c-9.04433,11.55927 -25.51177,13.78199 -36.78104,4.96458c-11.26927,-8.81742 -13.0729,-25.336 -4.02857,-36.89528c9.04433,-11.55928 25.51177,-13.78199 36.78104,-4.96457z" fill="#faddbf" stroke-width="2"/><path d="M272.44626,269.32236c11.26927,8.81742 46.31895,0.39159 37.27461,11.95086c-9.04433,11.55927 -25.51177,13.78199 -36.78104,4.96457c-11.26927,-8.81742 -11.76284,-25.73285 -0.49358,-16.91543z" fill="#ef8b89" stroke-width="0"/></g><path d="M290.41328,180.96133c0.79553,0.96418 -0.16866,1.75971 -0.16866,1.75971l-0.10784,0.00582c-1.51676,2.42162 -2.92371,5.10102 -5.79985,6.18156c-2.98181,1.12024 -6.71488,-0.24966 -7.07748,-3.64319c-0.48622,-4.5504 4.2232,-8.56541 6.59748,-11.86979c0,0 0.72997,-1.0147 1.74468,-0.28473c1.0147,0.72998 0.28474,1.74469 0.28474,1.74469c-2.0064,2.78577 -6.3551,6.38932 -6.13568,10.20049c0.09806,1.70325 2.39733,2.03964 3.7321,1.50298c2.27161,-0.91333 3.33045,-3.23243 4.53479,-5.15829l0.636,-0.60791c0,0 0.96418,-0.79552 1.7597,0.16866z" fill="#000000" stroke="none" stroke-width="0.5" stroke-linecap="butt"/></g></g></svg>