<svg version="1.1" xmlns="http://www.w3.org/2000/svg" xmlns:xlink="http://www.w3.org/1999/xlink" width="110.55202" height="110.55202" viewBox="0,0,110.55202,110.55202"><g transform="translate(-264.72399,-124.724)"><g data-paper-data="{&quot;isPaintingLayer&quot;:true}" fill-rule="nonzero" stroke-linejoin="miter" stroke-miterlimit="10" stroke-dasharray="" stroke-dashoffset="0" style="mix-blend-mode: normal"><path d="M269.80793,163.73469c8.98309,-27.72031 38.73707,-42.90984 66.45739,-33.92675c27.72032,8.98309 42.90984,38.73708 33.92675,66.45739c-8.98309,27.72032 -38.73707,42.90984 -66.45739,33.92675c-27.72032,-8.98309 -42.90984,-38.73708 -33.92675,-66.45739z" fill="#001aff" stroke="#000000" stroke-width="5" stroke-linecap="butt"/><path d="M372.13259,183.3886l-18.53939,8.9509l-6.22942,-19.24401l-25.38587,5.59898l-10.24232,-18.05131l-22.24847,5.70909l-8.01464,-20.72912" fill="none" stroke="#000000" stroke-width="5" stroke-linecap="round"/><path d="M316.26479,219.57312l11.87903,-25.91954" fill="none" stroke="#000000" stroke-width="7.5" stroke-linecap="round"/><path d="M341.49041,194.8449l-11.88388,25.33804" fill="none" stroke="#000000" stroke-width="7.5" stroke-linecap="round"/><path d="M333.76161,184.61791l-24.053,-11.83748" fill="none" stroke="#000000" stroke-width="5" stroke-linecap="round"/><path d="M341.91552,186.78367l19.65063,-0.19849" fill="none" stroke="#000000" stroke-width="5" stroke-linecap="round"/><path d="M304.8056,223.93779c-2.5,0 -2.5,-2.5 -2.5,-2.5v-1.73792c0,-1.54207 1.19394,-10.64667 -1.68622,-6.22438c-0.47685,0.73218 -0.90903,1.49281 -1.34057,2.25258c-0.50368,0.88678 -0.9764,1.7908 -1.4646,2.68619c0,0 -1.19713,2.19474 -3.39187,0.99761c-2.19474,-1.19713 -0.99761,-3.39187 -0.99761,-3.39187c2.4553,-4.49959 8.60434,-14.64042 13.4306,-5.49763c1.15167,2.1817 0.45027,6.74308 0.45027,9.17749v1.73792c0,0 0,2.5 -2.5,2.5z" fill="#000000" stroke="none" stroke-width="0.5" stroke-linecap="butt"/></g></g></svg>