<svg version="1.1" xmlns="http://www.w3.org/2000/svg" xmlns:xlink="http://www.w3.org/1999/xlink" width="110.52354" height="110.52354" viewBox="0,0,110.52354,110.52354"><g transform="translate(-264.73823,-124.73823)"><g data-paper-data="{&quot;isPaintingLayer&quot;:true}" fill-rule="nonzero" stroke-linejoin="miter" stroke-miterlimit="10" stroke-dasharray="" stroke-dashoffset="0" style="mix-blend-mode: normal"><path d="M267.23823,180c0,-29.13952 23.62225,-52.76177 52.76177,-52.76177c29.13952,0 52.76177,23.62225 52.76177,52.76177c0,29.13952 -23.62225,52.76177 -52.76177,52.76177c-29.13952,0 -52.76177,-23.62225 -52.76177,-52.76177z" fill="#001aff" stroke="#000000" stroke-width="5" stroke-linecap="butt"/><path d="M272.75127,159.17461l14.01464,17.24879l19.40489,-12.28976l15.30831,14.01465l22.42343,-13.15221l11.85854,16.38636l14.87708,-14.23025" fill="none" stroke="#000000" stroke-width="5" stroke-linecap="round"/><path d="M328.06064,183.7547l-3.31004,28.31921" fill="none" stroke="#000000" stroke-width="7.5" stroke-linecap="round"/><path d="M343.32358,183.38692l-3.49392,27.76753" fill="none" stroke="#000000" stroke-width="7.5" stroke-linecap="round"/><path d="M310.51907,211.97792c1.93489,1.58309 0.3518,3.51799 0.3518,3.51799l-2.05962,2.41662c-1.12819,0.52274 -2.16724,1.31485 -3.38457,1.56823c-1.29742,0.27005 -2.72173,0.39293 -3.97553,-0.03629c-5.86156,-2.00665 -5.28906,-9.7159 -2.01993,-13.8809c0.84427,-1.07564 2.10789,-1.74238 3.16184,-2.61358c0,0 1.95217,-1.56173 3.51391,0.39043c1.56174,1.95217 -0.39044,3.51391 -0.39044,3.51391c-0.78496,0.59993 -1.70851,1.05262 -2.35488,1.79981c-0.77832,0.89972 -1.82276,4.57967 -1.43786,5.69419c0.39056,1.13089 3.35787,-0.17522 3.82684,-0.38962l1.25043,-1.62898c0,0 1.58309,-1.93489 3.51799,-0.3518z" fill="#000000" stroke="none" stroke-width="0.5" stroke-linecap="butt"/></g></g></svg>