<svg version="1.1" xmlns="http://www.w3.org/2000/svg" xmlns:xlink="http://www.w3.org/1999/xlink" width="175.33192" height="323.58984" viewBox="0,0,175.33192,323.58984"><g transform="translate(-237.56892,-37.39757)"><g data-paper-data="{&quot;isPaintingLayer&quot;:true}" fill-rule="nonzero" stroke-linejoin="miter" stroke-miterlimit="10" stroke-dasharray="" stroke-dashoffset="0" style="mix-blend-mode: normal"><g data-paper-data="{&quot;index&quot;:null}" stroke="#000000" stroke-linecap="butt"><path d="M339.78978,232.79849c33.12545,-3.74476 39.6867,3.32667 40.59562,11.36683c0.90893,8.04017 -25.20774,17.59374 -58.3332,21.3385c-33.12546,3.74475 8.23086,-55.4595 7.32194,-63.49967c3.19452,-6.33431 7.69773,-1.61003 8.9217,6.15256c1.50944,9.57311 -1.33749,24.96187 1.49395,24.64179z" fill="#216aff" stroke-width="2"/><path d="M363.31807,217.97383c14.21828,-1.60736 27.08101,8.91246 28.72973,23.49666c1.64871,14.5842 -8.54094,27.71005 -22.75922,29.3174c-14.21828,1.60735 -27.08102,-8.91247 -28.72974,-23.49667c-1.64871,-14.5842 8.54094,-27.71003 22.75923,-29.31738z" fill="#faddbf" stroke-width="2"/><path d="M356.18585,258.77062c14.21828,-1.60735 33.3168,-32.18058 34.96551,-17.59639c1.64871,14.5842 -8.54095,27.71004 -22.75923,29.31738c-14.21828,1.60735 -26.42459,-10.11365 -12.20629,-11.72099z" fill="#ef8b89" stroke-width="0"/></g><g stroke="#000000" stroke-linecap="butt"><path d="M327.76518,340.83535v-95.29492h29.49199v95.29492z" fill="#73fffc" stroke-width="2"/><path d="M327.43943,340.21742l1.32626,-93.78573c0,0 5.20288,68.11227 6.3799,77.52842c0.2602,2.08162 2.52228,2.78987 2.52228,2.78987l18.60659,13.13896z" fill="#59a9e6" stroke-width="0"/></g><g stroke="#000000" stroke-linecap="butt"><path d="M288.4238,338.4128v-95.29492h29.49199v95.29492z" fill="#73fffc" stroke-width="2"/><path d="M288.09805,337.7949l1.32626,-93.78573c0,0 5.20288,68.11227 6.3799,77.52842c0.2602,2.08162 2.52228,2.78987 2.52228,2.78987l18.60659,13.13896z" fill="#59a9e6" stroke-width="0"/></g><g stroke="#000000" stroke-linecap="butt"><path d="M355.22917,235.69587c0,13.80271 10.04743,36.74388 4.95001,46.45977c-6.2338,11.88187 -28.61241,9.09579 -38.9397,9.09579c-13.66287,0 -32.94407,4.17018 -38.34426,-14.83216c-2.01935,-7.10576 4.35457,-32.37264 4.35457,-40.7234c0,-30.68249 15.2177,-55.55556 33.98969,-55.55556c18.77199,0 33.98969,24.87307 33.98969,55.55556z" fill="#216aff" stroke-width="2"/><path d="M303.96554,251.27245c0,13.80271 62.04198,20.54886 56.94455,30.26474c-6.2338,11.88186 -28.61241,9.09579 -38.9397,9.09579c-13.66287,0 -32.94406,4.17018 -38.34425,-14.83215c-2.01936,-7.10576 4.35457,-32.37265 4.35457,-40.7234c0,-9.45244 3.34855,-28.59801 5.51953,-29.96813c5.94391,-16.76415 10.4653,25.13995 10.4653,46.16315z" fill="#3236f4" stroke-width="0"/></g><g stroke="#000000" stroke-linecap="butt"><g><path d="M240.95412,120.11849c3.20848,-46.68066 43.65162,-81.92182 90.33227,-78.71334c46.68066,3.20848 81.92182,43.65162 78.71334,90.33227c-3.20848,46.68066 -43.65162,81.92182 -90.33227,78.71334c-46.68066,-3.20848 -81.92182,-43.65162 -78.71334,-90.33227z" fill="#faddbf" stroke-width="2"/><path d="M241.24397,119.26685c1.03228,-15.01885 11.44907,-40.321 16.1679,-43.21842c0.5389,-0.3309 6.38379,-8.49254 14.34715,-14.67757c9.89792,-7.68758 22.30385,-13.65917 22.89967,-13.42069c7.77367,3.11138 -21.93244,63.50046 -22.43059,88.81582c-0.00119,0.06037 3.04612,19.95743 4.6307,20.50629c2.55351,4.92917 7.77611,19.73303 18.14221,27.6025c19.31843,14.66568 47.47718,22.98979 45.9627,23.39262c-2.42262,0.64438 -14.95774,1.74748 -21.00638,1.33174c-46.68066,-3.20848 -81.92182,-43.65162 -78.71334,-90.33227z" fill="#ef8b89" stroke-width="0"/><path d="M409.50894,131.24441c-0.79709,11.59698 -2.64665,15.4957 -3.07043,13.61048c-0.43234,-1.92327 0.48669,-9.80332 -8.01679,-15.23483c-2.06056,-1.31616 -10.61257,5.56143 -13.24955,4.14914c-1.65632,-0.88708 -7.93404,-10.74487 -9.79686,-11.55054c-1.30245,-0.56331 -12.99526,7.50414 -14.36061,6.95858c-3.40523,-1.36064 -11.1804,-12.16884 -14.87766,-13.08253c-2.03597,-0.50314 -10.0735,11.18535 -12.16015,10.78748c-2.691,-0.5131 -9.21738,-12.73044 -11.94833,-12.91814c-7.26272,-0.49918 -7.94291,6.48139 -13.58025,12.11432c-3.66328,3.66041 -13.06052,-13.98036 -16.4811,-9.7698c-4.24797,5.22901 -8.44353,10.26289 -12.9214,13.56323c-3.51306,2.58925 -12.64035,-10.9895 -15.68908,-8.57509c-14.72008,11.65742 -23.58678,19.07125 -22.34072,0.94219c2.50559,-36.45414 43.74896,-5.22589 86.90913,-23.8319c41.31249,-17.80948 84.08938,-3.61675 81.58379,32.83739z" fill="#ef8b89" stroke-width="0"/></g><path d="M411.60908,123.05826c-1.61027,23.42807 5.91871,9.14268 -11.38081,-1.64452c-2.11696,-1.32004 -10.88078,5.54299 -13.58943,4.12578c-1.70134,-0.89018 -8.1614,-10.7605 -10.07452,-11.56962c-1.33762,-0.56572 -13.32244,7.48165 -14.72456,6.93357c-3.49696,-1.36695 -11.49544,-12.19049 -15.29127,-13.11095c-2.09025,-0.50687 -10.31743,11.16858 -12.45951,10.7669c-2.76247,-0.51801 -9.48198,-12.74862 -12.28485,-12.94127c-7.45402,-0.51233 -8.13947,6.46788 -13.91445,12.09135c-3.75273,3.65426 -13.42811,-14.00562 -16.93079,-9.80071c-4.34991,5.222 -8.6464,10.24894 -13.23571,13.54163c-3.60049,2.58324 -12.99155,-11.01363 -16.11584,-8.60442c-15.08498,11.63234 -24.17079,19.0311 -22.92473,0.90205c2.50559,-36.45414 45.34067,-78.3323 91.15941,-75.18306c45.81873,3.14924 84.2727,48.03914 81.76711,84.49329z" fill="#724e36" stroke-width="2"/><path d="M411.44167,121.88122c-1.61027,23.42807 5.91871,9.14268 -11.38081,-1.64452c-2.11696,-1.32004 -10.88078,5.54299 -13.58943,4.12578c-1.70134,-0.89018 -8.1614,-10.7605 -10.07453,-11.56962c-1.33762,-0.56572 -13.32244,7.48165 -14.72456,6.93357c-3.49696,-1.36695 -11.49544,-12.19049 -15.29127,-13.11095c-2.09025,-0.50687 -10.31743,11.16858 -12.45951,10.7669c-2.76247,-0.51801 -9.48198,-12.74862 -12.28485,-12.94127c-7.45402,-0.51233 -8.13947,6.46788 -13.91445,12.09135c-3.75273,3.65426 -13.42811,-14.00562 -16.93079,-9.80071c-4.34991,5.222 -8.6464,10.24894 -13.23572,13.54163c-3.60049,2.58324 -12.99155,-11.01363 -16.11584,-8.60442c-15.08498,11.63234 -24.17079,19.0311 -22.92473,0.90205c2.50559,-36.45414 44.88649,-5.14771 89.14467,-23.67824c42.36348,-17.73724 86.28742,-3.46567 83.78184,32.98847z" fill="#623728" stroke-width="0"/></g><g stroke="#000000" stroke-linecap="butt"><path d="M342.69728,150.06795c-1.95831,28.49172 -16.1057,42.28462 -32.63524,41.1485c-16.52954,-1.13612 -29.18184,-16.77104 -27.22354,-45.26275c1.95831,-28.49172 16.94568,-50.66781 33.47522,-49.53169c16.52954,1.13612 28.34187,25.15422 26.38356,53.64594z" fill="#f0f0f0" stroke-width="2"/><path d="M297.39438,127.32557c-6.22842,27.87148 29.88866,64.2423 13.35912,63.10618c-16.52954,-1.13612 -29.18184,-16.77104 -27.22354,-45.26275c1.95831,-28.49172 22.86887,-58.13736 13.86442,-17.84343z" fill="#9a99ff" stroke-width="0"/></g><path d="M338.24745,158.01478c-1.08494,15.78497 -6.64233,28.2597 -12.41278,27.86308c-5.77045,-0.39662 -9.5688,-13.51439 -8.48386,-29.29936c1.08494,-15.78497 6.64233,-28.2597 12.41278,-27.86308c5.77045,0.39662 9.5688,13.51439 8.48386,29.29936z" fill="#000000" stroke="none" stroke-width="0" stroke-linecap="butt"/><g stroke="#000000" stroke-linecap="butt"><path d="M339.75927,119.76047c3.7475,10.51152 10.55878,39.5852 -5.11451,38.50793c-15.67328,-1.07726 -48.19936,-32.66988 -43.00592,-41.95083c4.94148,-8.83067 8.24247,-20.90293 23.91575,-19.82566c15.67328,1.07726 20.63326,13.25094 24.20467,23.26855z" fill="#a100fe" stroke-width="2"/><path d="M338.86146,119.34368c3.5958,10.50109 10.91017,39.39452 -4.2287,38.35399c-15.13886,-1.04053 -47.28947,-32.39252 -42.25064,-41.68409c4.79437,-8.84079 6.47683,1.40947 21.61569,2.45c15.13886,1.04053 21.43679,-9.12759 24.86363,0.88009z" fill="#99008e" stroke-width="0"/></g><g data-paper-data="{&quot;index&quot;:null}" stroke="#000000" stroke-linecap="butt"><path d="M379.99179,99.31665c16.52954,1.13612 28.34187,25.15422 26.38356,53.64594c-1.95831,28.49171 -16.63078,42.24853 -33.16032,41.11241c-16.52954,-1.13612 -28.65676,-16.73494 -26.69846,-45.22666c1.95831,-28.49172 16.94568,-50.66781 33.47522,-49.53169z" fill="#f0f0f0" stroke-width="2"/><path d="M405.79776,152.09066c-1.95831,28.49171 -16.63078,42.24853 -33.16032,41.11241c-16.52954,-1.13612 24.2241,-32.22341 21.86759,-60.68496c-3.40681,-41.14699 13.25103,-8.91917 11.29273,19.57255z" fill="#9a99ff" stroke-width="0"/></g><path d="M393.44683,132.92069c5.77045,0.39662 9.5688,13.51439 8.48386,29.29936c-1.08494,15.78497 -6.64233,28.2597 -12.41278,27.86308c-5.77045,-0.39662 -9.5688,-13.51439 -8.48386,-29.29936c1.08494,-15.78497 6.64233,-28.2597 12.41278,-27.86308z" data-paper-data="{&quot;index&quot;:null}" fill="#000000" stroke="none" stroke-width="0" stroke-linecap="butt"/><g data-paper-data="{&quot;index&quot;:null}" stroke="#000000" stroke-linecap="butt"><path d="M353.5736,119.22782c4.90842,-9.43477 11.48734,-20.81535 27.16062,-19.73808c15.67328,1.07726 17.29152,13.48763 20.97833,22.91135c3.87479,9.90423 -31.62821,37.25068 -47.30149,36.17341c-15.67328,-1.07726 -5.9879,-29.44672 -0.83747,-39.34667z" fill="#a100fe" stroke-width="2"/><path d="M354.51998,118.93779c4.76385,-9.44471 9.61137,1.48946 24.75023,2.53c15.13886,1.04053 18.20792,-8.88314 21.74762,0.53047c3.72018,9.8936 -31.62116,37.46599 -46.76002,36.42546c-15.13886,-1.04053 -4.73657,-29.57554 0.26216,-39.48591z" fill="#99008e" stroke-width="0"/></g><path d="M391.63632,338.87004c0,11.6628 -14.51982,21.11737 -32.43092,21.11737c-17.9111,0 -32.43092,-9.45457 -32.43092,-21.11737c0,-2.33142 -0.03339,-13.76009 1.08979,-15.13837c4.49546,-5.51647 17.81784,5.26144 32.14847,5.26144c17.9111,0 31.62358,-1.78588 31.62358,9.87692z" fill="#000082" stroke="#000000" stroke-width="2" stroke-linecap="butt"/><path d="M389.75004,336.13774c0,6.30841 -13.89058,10.1901 -31.80169,10.1901c-17.9111,0 -30.16566,-2.95748 -30.16566,-9.26589c0,-1.26107 -0.03338,-12.52602 1.0898,-13.27153c4.49546,-2.98386 15.55258,5.7726 29.88321,5.7726c17.9111,0 30.99434,0.26631 30.99434,6.57472z" fill="#2e0048" stroke="#000000" stroke-width="0" stroke-linecap="butt"/><path d="M348.64938,338.22521c0,11.6628 -14.51982,21.11737 -32.43092,21.11737c-17.9111,0 -32.43092,-9.45457 -32.43092,-21.11737c0,-2.33142 -0.03339,-13.76009 1.08979,-15.13837c4.49546,-5.51647 17.81784,5.26144 32.14847,5.26144c17.9111,0 31.62358,-1.78588 31.62358,9.87692z" fill="#000082" stroke="#000000" stroke-width="2" stroke-linecap="butt"/><path d="M346.7631,335.49289c0,6.30841 -13.89058,10.1901 -31.80169,10.1901c-17.9111,0 -30.16566,-2.95748 -30.16566,-9.26589c0,-1.26107 -0.03338,-12.52602 1.0898,-13.27153c4.49546,-2.98386 15.55258,5.7726 29.88321,5.7726c17.9111,0 30.99434,0.26631 30.99434,6.57472z" fill="#2e0048" stroke="#000000" stroke-width="0" stroke-linecap="butt"/><g><path d="M305.79464,260.97484c-15.01176,-1.50668 -23.02172,-9.93582 -22.22446,-24.85139c0.62352,-11.66562 14.45411,-23.35913 29.46589,-21.85245c15.01183,1.50666 24.94343,12.30143 23.45181,27.1636c-0.23326,2.32416 -1.13832,4.39988 -1.94722,6.30344c-4.3638,10.26878 -16.08178,14.50786 -28.746,13.23681z" fill="#216aff" stroke="#000000" stroke-width="2" stroke-linecap="butt"/><path d="M299.79581,218.04998c0,0 -1.01217,5.66627 0.46409,7.02054c14.16045,12.99058 27.99153,15.42356 32.62751,15.87915c1.05328,0.10352 1.7226,-0.79807 1.7226,-0.79807c0,0 0.01095,2.11376 -0.84669,4.71731c-0.9126,2.7704 -2.76097,6.10017 -5.01192,8.19263c-2.57125,2.39014 -9.93392,6.30159 -9.93392,6.30159l-20.91545,1.18447c0,0 -9.38122,-9.64093 -10.2645,-11.62001c-0.86533,-1.93883 -1.33319,-4.48124 -1.93943,-7.16441c-0.94125,-4.166 -0.3415,-8.66569 0.82657,-11.29826c1.49077,-3.35973 4.65445,-6.78655 7.68888,-9.10055c2.82411,-2.15361 5.58224,-3.31425 5.58224,-3.31425z" fill="#3236f4" stroke="none" stroke-width="0" stroke-linecap="butt"/><path d="M299.71471,242.4869c0,0 -0.97831,-8.9689 1.69801,-13.37542c3.38791,-5.57821 12.94168,-14.34337 12.94168,-14.34337" fill="none" stroke="#000000" stroke-width="1" stroke-linecap="round"/><path d="M335.55121,234.40844c0,0 -2.19796,6.80433 -4.457,10.46062c-2.28057,3.69124 -9.9632,9.61827 -9.9632,9.61827" fill="none" stroke="#000000" stroke-width="1" stroke-linecap="round"/><path d="M288.93139,244.50586c0,0 -1.14175,-9.19144 1.97444,-13.83239c4.78169,-7.12135 12.99089,-15.31311 12.99089,-15.31311" fill="none" stroke="#000000" stroke-width="1" stroke-linecap="round"/><path d="M286.2457,229.45979c0,0 14.70124,-9.12955 30.75907,-2.3701c17.58932,7.4041 15.54207,24.53009 15.54207,24.53009" fill="none" stroke="#000000" stroke-width="1" stroke-linecap="round"/><path d="M284.03885,238.7245c0,0 16.4608,-6.7753 30.64335,-0.84113c11.64517,4.87252 11.27015,19.45945 11.27015,19.45945" fill="none" stroke="#000000" stroke-width="1" stroke-linecap="round"/><path d="M325.12859,223.80273c-0.95739,-0.72843 -1.26596,-1.93334 -0.68932,-2.69121c0.57662,-0.75794 1.22401,-0.29441 2.18139,0.43403c0.95739,0.72843 1.86215,1.4459 1.28551,2.2038c-0.57662,0.75794 -1.82025,0.78183 -2.77757,0.05338z" fill="#8fbbbe" stroke="none" stroke-width="0" stroke-linecap="butt"/><path d="M330.26125,228.95195c-0.59848,-0.06009 -1.0106,-0.83649 -0.9205,-1.7342c0.09009,-0.89772 0.25083,-1.25181 0.84929,-1.19176c0.59848,0.06009 1.19121,0.85463 1.10108,1.75233c-0.09009,0.89772 -0.43145,1.23368 -1.0299,1.17361z" fill="#8fbbbe" stroke="none" stroke-width="0" stroke-linecap="butt"/><path d="M319.58394,219.66501c-0.88303,-0.18527 -1.49871,-0.81259 -1.37523,-1.40126c0.12343,-0.58863 0.88503,-0.3739 1.76803,-0.18868c0.88303,0.18527 1.55307,0.27075 1.42961,0.85943c-0.12343,0.58863 -0.93942,0.91572 -1.82243,0.73048z" fill="#8fbbbe" stroke="none" stroke-width="0" stroke-linecap="butt"/><path d="M295.76744,220.01725c0,0 9.96069,-2.33755 17.45524,-1.21887c4.24904,0.63425 7.77499,2.66006 10.43099,4.2259c2.34885,1.38471 6.25151,6.67572 8.81724,11.03638c1.889,3.21051 2.8796,5.98282 2.8796,5.98282" fill="none" stroke="#000000" stroke-width="0.5" stroke-linecap="round"/><path d="M329.95708,221.07718c0,0 -1.4595,10.47128 -4.11135,15.18135c-2.23423,3.96835 -10.40148,11.27318 -10.40148,11.27318" fill="none" stroke="#000000" stroke-width="1" stroke-linecap="round"/><path d="M310.00862,245.3443c0,0 1.44109,-9.55779 3.22028,-13.71535c3.12392,-7.29987 11.05817,-14.03964 11.05817,-14.03964" fill="none" stroke="#000000" stroke-width="1" stroke-linecap="round"/></g><g stroke="#000000" stroke-linecap="butt"><path d="M286.42921,242.60241c30.60003,13.22714 32.77494,22.62528 29.56447,30.05247c-3.21047,7.4272 -30.61931,2.7254 -61.21933,-10.50176c-30.60002,-13.22715 34.72488,-44.01916 37.93536,-51.44636c5.92188,-3.90634 7.47884,2.43192 4.67973,9.775c-3.45194,9.05575 -13.57579,20.99004 -10.96022,22.12065z" fill="#216aff" stroke-width="2"/><path d="M314.21425,241.44393c13.13431,5.67742 19.06086,21.20136 13.23732,34.67368c-5.82353,13.47231 -21.19191,19.79133 -34.32622,14.11391c-13.13431,-5.67742 -19.06084,-21.20137 -13.23731,-34.67369c5.82353,-13.47232 21.19191,-19.79133 34.32622,-14.1139z" fill="#faddbf" stroke-width="2"/><path d="M287.73542,273.28917c13.13431,5.67742 44.90936,-11.34671 39.08582,2.1256c-5.82353,13.47231 -21.19191,19.79133 -34.32622,14.1139c-13.13431,-5.67742 -17.89391,-21.91693 -4.75961,-16.2395z" fill="#ef8b89" stroke-width="0"/></g><path d="M283.53478,176.09908c0.8212,0.94241 -0.12122,1.76361 -0.12122,1.76361l-0.10764,0.00872c-1.45101,2.46158 -2.7853,5.17789 -5.6313,6.33548c-2.95057,1.20012 -6.71917,-0.06877 -7.17301,-3.4513c-0.60857,-4.53566 3.99104,-8.67602 6.27549,-12.04313c0,0 0.70238,-1.03399 1.73638,-0.3316c1.03399,0.70239 0.33161,1.73639 0.33161,1.73639c-1.93066,2.83878 -6.18076,6.55812 -5.8588,10.362c0.14389,1.69999 2.45138,1.97435 3.77122,1.40195c2.24619,-0.97416 3.24221,-3.32093 4.39426,-5.27852l0.6194,-0.62481c0,0 0.94241,-0.82119 1.7636,0.12122z" fill="#000000" stroke="none" stroke-width="0.5" stroke-linecap="butt"/></g></g></svg>