<svg version="1.1" xmlns="http://www.w3.org/2000/svg" xmlns:xlink="http://www.w3.org/1999/xlink" width="197.87887" height="311.56201" viewBox="0,0,197.87887,311.56201"><g transform="translate(-230.51565,-49.42541)"><g data-paper-data="{&quot;isPaintingLayer&quot;:true}" fill-rule="nonzero" stroke-linejoin="miter" stroke-miterlimit="10" stroke-dasharray="" stroke-dashoffset="0" style="mix-blend-mode: normal"><g data-paper-data="{&quot;index&quot;:null}" stroke="#000000" stroke-linecap="butt"><path d="M332.52893,232.3362c30.57943,13.27468 32.73976,22.67618 29.51775,30.09837c-3.22201,7.4222 -30.62351,2.67783 -61.20294,-10.59687c-30.57944,-13.27469 34.79323,-43.96516 38.01524,-51.38735c5.92796,-3.89714 7.47505,2.44354 4.66454,9.78227c-3.46602,9.05039 -13.60839,20.96892 -10.99458,22.1036z" fill="#216aff" stroke-width="2"/><path d="M360.31575,231.22092c13.12547,5.69782 19.02787,21.23095 13.18342,34.69421c-5.84447,13.46326 -21.22264,19.75839 -34.34811,14.06057c-13.12547,-5.69783 -19.02788,-21.23096 -13.18342,-34.69422c5.84447,-13.46326 21.22263,-19.75838 34.34811,-14.06055z" fill="#faddbf" stroke-width="2"/><path d="M333.78745,263.02494c13.12547,5.69783 44.92694,-11.27692 39.08248,2.18632c-5.84447,13.46326 -21.22265,19.75837 -34.34811,14.06055c-13.12547,-5.69783 -17.85986,-21.94471 -4.73438,-16.24687z" fill="#ef8b89" stroke-width="0"/></g><g stroke="#000000" stroke-linecap="butt"><path d="M327.76518,340.83535v-95.29492h29.49199v95.29492z" fill="#73fffc" stroke-width="2"/><path d="M327.43943,340.21742l1.32626,-93.78573c0,0 5.20288,68.11227 6.3799,77.52842c0.2602,2.08162 2.52228,2.78987 2.52228,2.78987l18.60659,13.13896z" fill="#59a9e6" stroke-width="0"/></g><g stroke="#000000" stroke-linecap="butt"><path d="M288.4238,338.4128v-95.29492h29.49199v95.29492z" fill="#73fffc" stroke-width="2"/><path d="M288.09805,337.7949l1.32626,-93.78573c0,0 5.20288,68.11227 6.3799,77.52842c0.2602,2.08162 2.52228,2.78987 2.52228,2.78987l18.60659,13.13896z" fill="#59a9e6" stroke-width="0"/></g><g stroke="#000000" stroke-linecap="butt"><path d="M355.22917,235.69587c0,13.80271 10.04743,36.74388 4.95001,46.45977c-6.2338,11.88187 -28.61241,9.09579 -38.9397,9.09579c-13.66287,0 -32.94407,4.17018 -38.34426,-14.83216c-2.01935,-7.10576 4.35457,-32.37264 4.35457,-40.7234c0,-30.68249 15.2177,-55.55556 33.98969,-55.55556c18.77199,0 33.98969,24.87307 33.98969,55.55556z" fill="#216aff" stroke-width="2"/><path d="M303.96554,251.27245c0,13.80271 62.04198,20.54886 56.94455,30.26474c-6.2338,11.88186 -28.61241,9.09579 -38.9397,9.09579c-13.66287,0 -32.94406,4.17018 -38.34425,-14.83215c-2.01936,-7.10576 4.35457,-32.37265 4.35457,-40.7234c0,-9.45244 3.34855,-28.59801 5.51953,-29.96813c5.94391,-16.76415 10.4653,25.13995 10.4653,46.16315z" fill="#3236f4" stroke-width="0"/></g><g stroke="#000000" stroke-linecap="butt"><g><path d="M257.00339,125.0427c7.12719,-46.2448 50.39373,-77.95589 96.63851,-70.82871c46.2448,7.12719 77.95589,50.39373 70.82871,96.63851c-7.12719,46.2448 -50.39373,77.95589 -96.63851,70.82871c-46.2448,-7.12719 -77.95589,-50.39373 -70.82871,-96.63851z" fill="#faddbf" stroke-width="2"/><path d="M257.36392,124.21848c2.29307,-14.87862 14.80309,-39.21394 19.74911,-41.70379c0.56484,-0.28436 7.07612,-7.92493 15.53193,-13.41756c10.51001,-6.82697 23.37465,-11.73289 23.94827,-11.44509c7.48413,3.7548 -27.20074,61.42849 -29.82845,86.61204c-0.00627,0.06006 1.35507,20.14303 2.88781,20.82335c2.12945,5.12665 6.08715,20.31765 15.75391,29.03191c18.01512,16.24005 45.37308,26.90532 43.83006,27.17922c-2.46827,0.43813 -15.05176,0.48197 -21.04392,-0.44153c-46.2448,-7.12719 -77.95589,-50.39373 -70.82871,-96.63851z" fill="#ef8b89" stroke-width="0"/><path d="M424.02308,150.31993c-1.77062,11.4887 -3.94185,15.21786 -4.20541,13.30365c-0.26889,-1.95284 1.31032,-9.72754 -6.70569,-15.85568c-1.94243,-1.48496 -11.04312,4.6482 -13.55182,3.01891c-1.57575,-1.02338 -7.00125,-11.37469 -8.78962,-12.33434c-1.2504,-0.67097 -13.5809,6.38341 -14.89548,5.72484c-3.27859,-1.64249 -10.1162,-13.06693 -13.72341,-14.28865c-1.98638,-0.67277 -10.97944,10.29754 -13.02518,9.72541c-2.63825,-0.73784 -8.11286,-13.46126 -10.81832,-13.87821c-7.19491,-1.10886 -8.46039,5.78966 -14.55195,10.92797c-3.95845,3.339 -11.83713,-15.03031 -15.60006,-11.12267c-4.67312,4.8528 -9.27759,9.51558 -14.01742,12.42721c-3.71858,2.28429 -11.67026,-12.01469 -14.91143,-9.86552c-15.64927,10.37673 -25.10867,17.01774 -22.34073,-0.94204c5.56581,-36.11377 44.03361,-1.52406 88.607,-16.43032c42.66521,-14.2681 84.09533,3.47567 78.52952,39.58943z" fill="#ef8b89" stroke-width="0"/></g><path d="M426.80496,142.33965c-3.57698,23.20932 5.12796,9.60852 -11.20195,-2.59684c-1.99831,-1.49358 -11.30882,4.60725 -13.88853,2.96702c-1.62035,-1.03026 -7.22649,-11.40941 -9.0647,-12.37673c-1.28524,-0.67633 -13.90503,6.33346 -15.25602,5.66928c-3.36946,-1.65651 -10.42829,-13.11502 -14.13315,-14.35178c-2.04015,-0.68105 -11.22109,10.2603 -13.32175,9.67969c-2.70905,-0.74874 -8.375,-13.50166 -11.15169,-13.9296c-7.38442,-1.13807 -8.65511,5.75964 -14.88303,10.87695c-4.04706,3.32534 -12.20129,-15.08642 -16.04555,-11.19133c-4.77411,4.83723 -9.47858,9.4846 -14.3288,12.37922c-3.80519,2.27094 -12.01818,-12.0683 -15.33421,-9.93068c-16.01076,10.32102 -25.68722,16.92856 -22.91929,-1.03121c5.56581,-36.11377 51.77458,-74.23691 97.1655,-67.24133c45.39092,6.99559 79.92904,54.96359 74.36323,91.07736z" fill="#724e36" stroke-width="2"/><path d="M426.73725,141.15269c-3.57698,23.20932 5.12796,9.60852 -11.20195,-2.59684c-1.99831,-1.49358 -11.30882,4.60725 -13.88853,2.96702c-1.62035,-1.03026 -7.22649,-11.40941 -9.06471,-12.37673c-1.28524,-0.67633 -13.90503,6.33346 -15.25602,5.66928c-3.36946,-1.65651 -10.42829,-13.11502 -14.13315,-14.35178c-2.04015,-0.68105 -11.22109,10.2603 -13.32175,9.67969c-2.70905,-0.74874 -8.375,-13.50166 -11.15169,-13.9296c-7.38442,-1.13807 -8.65511,5.75964 -14.88303,10.87695c-4.04706,3.32534 -12.20129,-15.08642 -16.04555,-11.19133c-4.77411,4.83723 -9.47858,9.4846 -14.32881,12.37922c-3.80519,2.27094 -12.01818,-12.0683 -15.33421,-9.93068c-16.01076,10.32102 -25.68722,16.92856 -22.91929,-1.03121c5.56581,-36.11377 45.16052,-1.35039 90.82167,-16.08899c43.70639,-14.10764 86.27285,3.81127 80.70705,39.92503z" fill="#623728" stroke-width="0"/></g><g stroke="#000000" stroke-linecap="butt"><path d="M355.86385,163.45169c-4.3501,28.22569 -19.6085,40.77854 -35.98371,38.25481c-16.37521,-2.52373 -27.66626,-19.16834 -23.31617,-47.39403c4.3501,-28.22569 21.15129,-49.06124 37.5265,-46.53752c16.37521,2.52373 26.12349,27.45105 21.77338,55.67674z" fill="#f0f0f0" stroke-width="2"/><path d="M312.6365,136.97595c-8.55283,27.24815 24.37391,66.53057 7.99872,64.00684c-16.37521,-2.52373 -27.66626,-19.16834 -23.31617,-47.39403c4.3501,-28.22569 27.68232,-56.0056 15.31745,-16.61282z" fill="#9a99ff" stroke-width="0"/></g><path d="M350.76077,170.99566c-2.41004,15.63758 -8.99796,27.60014 -14.71453,26.71911c-5.71657,-0.88103 -8.39704,-14.27202 -5.987,-29.9096c2.41004,-15.63758 8.99796,-27.60014 14.71453,-26.71911c5.71657,0.88103 8.39704,14.27202 5.987,29.9096z" fill="#000000" stroke="none" stroke-width="0" stroke-linecap="butt"/><g stroke="#000000" stroke-linecap="butt"><path d="M355.48789,133.00446c2.84922,10.7897 7.18857,40.33361 -8.33838,37.94062c-15.52694,-2.39298 -45.27772,-36.61185 -39.32135,-45.42261c5.6674,-8.38329 9.97305,-20.13478 25.49998,-17.74178c15.52694,2.39298 19.4444,14.94103 22.15973,25.22375z" fill="#a100fe" stroke-width="2"/><path d="M354.62836,132.51356c2.69894,10.76654 7.55477,40.17319 -7.44275,37.8618c-14.9975,-2.31139 -44.39441,-36.25887 -38.59121,-45.09323c5.52167,-8.40576 6.33517,1.94975 21.33267,4.26115c14.9975,2.31139 22.12914,-7.2904 24.70126,2.97026z" fill="#99008e" stroke-width="0"/></g><g data-paper-data="{&quot;index&quot;:null}" stroke="#000000" stroke-linecap="butt"><path d="M397.29876,116.02044c16.37521,2.52373 26.12349,27.45105 21.77338,55.67674c-4.3501,28.22568 -20.12868,40.69837 -36.50389,38.17464c-16.37521,-2.52373 -27.14609,-19.08817 -22.79599,-47.31386c4.3501,-28.22569 21.15129,-49.06124 37.5265,-46.53752z" fill="#f0f0f0" stroke-width="2"/><path d="M418.57001,170.77971c-4.3501,28.22568 -20.12868,40.69837 -36.50389,38.17464c-16.37521,-2.52373 26.85102,-30.06956 26.89908,-58.62845c0.0695,-41.28772 13.9549,-7.77188 9.6048,20.45381z" fill="#9a99ff" stroke-width="0"/></g><path d="M407.87687,150.63796c5.71657,0.88103 8.39704,14.27202 5.987,29.9096c-2.41004,15.63758 -8.99796,27.60014 -14.71453,26.71911c-5.71657,-0.88103 -8.39704,-14.27202 -5.987,-29.9096c2.41004,-15.63758 8.99796,-27.60014 14.71453,-26.71911z" data-paper-data="{&quot;index&quot;:null}" fill="#000000" stroke="none" stroke-width="0" stroke-linecap="butt"/><g data-paper-data="{&quot;index&quot;:null}" stroke="#000000" stroke-linecap="butt"><path d="M369.29802,133.63674c5.68532,-8.98803 13.19902,-19.77432 28.72595,-17.38132c15.52694,2.39298 16.09459,14.89554 18.97492,24.59619c3.02719,10.19529 -34.65209,34.45561 -50.17903,32.06262c-15.52694,-2.39298 -3.48749,-29.8463 2.47814,-39.27748z" fill="#a100fe" stroke-width="2"/><path d="M370.26546,133.42742c5.5421,-9.01011 9.45185,2.29336 24.44935,4.60476c14.9975,2.31139 18.89115,-7.31866 21.62575,2.35954c2.87402,10.17168 -34.66319,34.67075 -49.6607,32.35936c-14.9975,-2.31139 -2.22976,-29.86931 3.58559,-39.32365z" fill="#99008e" stroke-width="0"/></g><path d="M391.63632,338.87004c0,11.6628 -14.51982,21.11737 -32.43092,21.11737c-17.9111,0 -32.43092,-9.45457 -32.43092,-21.11737c0,-2.33142 -0.03339,-13.76009 1.08979,-15.13837c4.49546,-5.51647 17.81784,5.26144 32.14847,5.26144c17.9111,0 31.62358,-1.78588 31.62358,9.87692z" fill="#000082" stroke="#000000" stroke-width="2" stroke-linecap="butt"/><path d="M389.75004,336.13774c0,6.30841 -13.89058,10.1901 -31.80169,10.1901c-17.9111,0 -30.16566,-2.95748 -30.16566,-9.26589c0,-1.26107 -0.03338,-12.52602 1.0898,-13.27153c4.49546,-2.98386 15.55258,5.7726 29.88321,5.7726c17.9111,0 30.99434,0.26631 30.99434,6.57472z" fill="#2e0048" stroke="#000000" stroke-width="0" stroke-linecap="butt"/><path d="M348.64938,338.22521c0,11.6628 -14.51982,21.11737 -32.43092,21.11737c-17.9111,0 -32.43092,-9.45457 -32.43092,-21.11737c0,-2.33142 -0.03339,-13.76009 1.08979,-15.13837c4.49546,-5.51647 17.81784,5.26144 32.14847,5.26144c17.9111,0 31.62358,-1.78588 31.62358,9.87692z" fill="#000082" stroke="#000000" stroke-width="2" stroke-linecap="butt"/><path d="M346.7631,335.49289c0,6.30841 -13.89058,10.1901 -31.80169,10.1901c-17.9111,0 -30.16566,-2.95748 -30.16566,-9.26589c0,-1.26107 -0.03338,-12.52602 1.0898,-13.27153c4.49546,-2.98386 15.55258,5.7726 29.88321,5.7726c17.9111,0 30.99434,0.26631 30.99434,6.57472z" fill="#2e0048" stroke="#000000" stroke-width="0" stroke-linecap="butt"/><g><path d="M280.87137,259.76147c-12.54665,-8.37882 -15.66098,-19.58198 -7.95368,-32.3768c6.02793,-10.00697 23.72967,-13.83739 36.27634,-5.45856c12.54672,8.37883 16.24694,22.57292 7.95166,34.99456c-1.29723,1.94251 -3.07093,3.35023 -4.67892,4.65111c-8.67441,7.01749 -21.01077,5.25823 -31.59538,-1.81029z" fill="#216aff" stroke="#000000" stroke-width="2" stroke-linecap="butt"/><path d="M295.72965,219.04585c0,0 -3.55418,4.52758 -2.88664,6.41644c6.40292,18.11839 17.47221,26.76068 21.35146,29.33968c0.88135,0.58595 1.89563,0.1042 1.89563,0.1042c0,0 -0.98282,1.87141 -2.9625,3.76743c-2.10655,2.01753 -5.30194,4.08955 -8.27182,4.88011c-3.39245,0.90299 -11.72961,0.89944 -11.72961,0.89944l-19.02269,-8.77475c0,0 -3.75605,-12.91692 -3.60667,-15.07901c0.14634,-2.11812 0.92701,-4.58253 1.6516,-7.23619c1.12504,-4.12017 3.76733,-7.81141 6.03472,-9.58728c2.89373,-2.26638 7.296,-3.80651 11.06165,-4.4248c3.50464,-0.57543 6.48479,-0.30513 6.48479,-0.30513z" fill="#3236f4" stroke="none" stroke-width="0" stroke-linecap="butt"/><path d="M284.18406,240.58347c0,0 3.34745,-8.37812 7.77942,-11.01207c5.6104,-3.33433 18.1611,-6.58738 18.1611,-6.58738" fill="none" stroke="#000000" stroke-width="1" stroke-linecap="round"/><path d="M319.61771,250.27738c0,0 -5.13548,4.97562 -8.84678,7.14311c-3.74672,2.18824 -13.31276,3.81403 -13.31276,3.81403" fill="none" stroke="#000000" stroke-width="1" stroke-linecap="round"/><path d="M273.71534,237.30289c0,0 3.30763,-8.65134 8.23805,-11.28574c7.56554,-4.04237 18.65988,-7.42048 18.65988,-7.42048" fill="none" stroke="#000000" stroke-width="1" stroke-linecap="round"/><path d="M278.40876,222.75749c0,0 17.26657,-1.15786 28.27045,12.34987c12.05337,14.79599 2.20457,28.95551 2.20457,28.95551" fill="none" stroke="#000000" stroke-width="1" stroke-linecap="round"/><path d="M272.1102,229.90123c0,0 17.7147,1.74691 27.45037,13.64549c7.99386,9.76983 0.81368,22.47275 0.81368,22.47275" fill="none" stroke="#000000" stroke-width="1" stroke-linecap="round"/><path d="M315.3952,236.01967c-0.50327,-1.09266 -0.20996,-2.30138 0.65501,-2.69976c0.86499,-0.39845 1.21893,0.31478 1.72218,1.40745c0.50327,1.09266 0.96522,2.15095 0.10023,2.54936c-0.86499,0.39845 -1.97422,-0.16438 -2.47742,-1.25703z" fill="#8fbbbe" stroke="none" stroke-width="0" stroke-linecap="butt"/><path d="M317.50915,242.97595c-0.50019,-0.33406 -0.49952,-1.21306 0.00154,-1.96336c0.50105,-0.75031 0.80923,-0.98747 1.30943,-0.65345c0.50019,0.33406 0.65046,1.31387 0.14938,2.06415c-0.50105,0.75031 -0.96019,0.88666 -1.46036,0.55263z" fill="#8fbbbe" stroke="none" stroke-width="0" stroke-linecap="butt"/><path d="M312.44256,229.76301c-0.69265,-0.57819 -0.94169,-1.42115 -0.55627,-1.88291c0.38536,-0.46175 0.95696,0.08543 1.6496,0.66356c0.69265,0.57819 1.2441,0.96827 0.85869,1.43006c-0.38536,0.46175 -1.25939,0.36741 -1.95204,-0.21075z" fill="#8fbbbe" stroke="none" stroke-width="0" stroke-linecap="butt"/><path d="M291.24925,218.89132c0,0 9.89199,2.61304 15.98378,7.11969c3.45373,2.55507 5.61565,5.99924 7.22546,8.62883c1.42367,2.32545 2.38506,8.82939 2.6029,13.88417c0.16038,3.72155 -0.2667,6.63439 -0.2667,6.63439" fill="none" stroke="#000000" stroke-width="0.5" stroke-linecap="round"/><path d="M320.93808,235.88039c0,0 -6.20524,8.55996 -10.75814,11.4734c-3.83592,2.45466 -14.47676,5.06938 -14.47676,5.06938" fill="none" stroke="#000000" stroke-width="1" stroke-linecap="round"/><path d="M291.93104,247.93966c0,0 5.76007,-7.76206 9.28307,-10.59744c6.18569,-4.97836 16.35551,-7.20359 16.35551,-7.20359" fill="none" stroke="#000000" stroke-width="1" stroke-linecap="round"/></g><g stroke="#000000" stroke-linecap="butt"><path d="M272.39987,234.44744c20.80658,26.04621 18.31408,35.36516 11.99219,40.4153c-6.3219,5.05014 -28.31388,-11.97055 -49.12045,-38.01678c-20.80657,-26.04622 51.32761,-22.56058 57.64952,-27.61072c7.06267,-0.66843 5.4613,5.65875 -0.45791,10.82778c-7.29976,6.37464 -21.84181,12.15808 -20.06335,14.38442z" fill="#216aff" stroke-width="2"/><path d="M297.47561,246.47066c8.93072,11.1797 6.87431,27.66872 -4.5931,36.82925c-11.4674,9.16054 -28.00335,7.52369 -36.93407,-3.656c-8.93072,-11.1797 -6.87429,-27.66871 4.59311,-36.82926c11.4674,-9.16055 28.00335,-7.52369 36.93407,3.65601z" fill="#faddbf" stroke-width="2"/><path d="M259.14463,262.15453c8.93072,11.1797 44.97877,11.06835 33.51137,20.22889c-11.4674,9.16054 -28.00335,7.52369 -36.93407,-3.65601c-8.93072,-11.1797 -5.50801,-27.75258 3.42269,-16.57289z" fill="#ef8b89" stroke-width="0"/></g><path d="M294.71982,184.40945c0.73894,1.0082 -0.26927,1.74715 -0.26927,1.74715l-0.108,-0.00037c-1.6531,2.33068 -3.21134,4.92501 -6.1447,5.83889c-3.04113,0.94745 -6.68952,-0.63422 -6.85697,-4.04295c-0.22454,-4.57079 4.70731,-8.3092 7.26713,-11.47203c0,0 0.78694,-0.97118 1.75813,-0.18424c0.97118,0.78695 0.18425,1.75814 0.18425,1.75814c-2.16281,2.66616 -6.71095,6.01447 -6.71039,9.83195c0.00025,1.70607 2.27645,2.17373 3.6398,1.71447c2.32024,-0.7816 3.51029,-3.03618 4.82306,-4.88982l0.66981,-0.57045c0,0 1.0082,-0.73893 1.74714,0.26927z" fill="#000000" stroke="none" stroke-width="0.5" stroke-linecap="butt"/></g></g></svg>