<svg version="1.1" xmlns="http://www.w3.org/2000/svg" xmlns:xlink="http://www.w3.org/1999/xlink" width="175.02006" height="333.52392" viewBox="0,0,175.02006,333.52392"><g transform="translate(-238.60834,-27.4635)"><g data-paper-data="{&quot;isPaintingLayer&quot;:true}" fill-rule="nonzero" stroke-linejoin="miter" stroke-miterlimit="10" stroke-dasharray="" stroke-dashoffset="0" style="mix-blend-mode: normal"><g data-paper-data="{&quot;index&quot;:null}" stroke="#000000" stroke-linecap="butt"><path d="M341.71765,238.50144c33.16014,-3.42399 39.65263,3.71061 40.4837,11.75919c0.83107,8.04859 -25.37683,17.34895 -58.53697,20.77295c-33.16016,3.42398 8.76722,-55.37724 7.93616,-63.42584c3.25566,-6.30309 7.71295,-1.53545 8.86174,6.23863c1.41673,9.58727 -1.579,24.94776 1.2554,24.65509z" fill="#216aff" stroke-width="2"/><path d="M365.38831,223.90518c14.23318,-1.46967 26.99348,9.17414 28.50098,23.77361c1.50749,14.59948 -8.80872,27.62609 -23.04189,29.09576c-14.23317,1.46967 -26.9935,-9.17415 -28.50099,-23.77363c-1.50749,-14.59948 8.80872,-27.62606 23.0419,-29.09573z" fill="#faddbf" stroke-width="2"/><path d="M357.86159,264.63104c14.23317,-1.46967 33.62668,-31.85663 35.13417,-17.25716c1.50749,14.59948 -8.80873,27.62607 -23.04191,29.09574c-14.23317,1.46967 -26.32546,-10.36892 -12.09228,-11.83857z" fill="#ef8b89" stroke-width="0"/></g><g stroke="#000000" stroke-linecap="butt"><path d="M327.76518,340.83536v-95.29492h29.49199v95.29492z" fill="#73fffc" stroke-width="2"/><path d="M327.43943,340.21743l1.32626,-93.78573c0,0 5.20288,68.11227 6.3799,77.52842c0.2602,2.08162 2.52228,2.78987 2.52228,2.78987l18.60659,13.13896z" fill="#59a9e6" stroke-width="0"/></g><g stroke="#000000" stroke-linecap="butt"><path d="M288.4238,338.41281v-95.29492h29.49199v95.29492z" fill="#73fffc" stroke-width="2"/><path d="M288.09805,337.79491l1.32626,-93.78573c0,0 5.20288,68.11227 6.3799,77.52842c0.2602,2.08162 2.52228,2.78987 2.52228,2.78987l18.60659,13.13896z" fill="#59a9e6" stroke-width="0"/></g><g stroke="#000000" stroke-linecap="butt"><path d="M355.22917,235.69588c0,13.80271 10.04743,36.74388 4.95001,46.45977c-6.2338,11.88187 -28.61241,9.09579 -38.9397,9.09579c-13.66287,0 -32.94407,4.17018 -38.34426,-14.83216c-2.01935,-7.10576 4.35457,-32.37264 4.35457,-40.7234c0,-30.68249 15.2177,-55.55556 33.98969,-55.55556c18.77199,0 33.98969,24.87307 33.98969,55.55556z" fill="#216aff" stroke-width="2"/><path d="M303.96554,251.27247c0,13.80271 62.04198,20.54886 56.94455,30.26474c-6.2338,11.88186 -28.61241,9.09579 -38.9397,9.09579c-13.66287,0 -32.94406,4.17018 -38.34425,-14.83215c-2.01936,-7.10576 4.35457,-32.37265 4.35457,-40.7234c0,-9.45244 3.34855,-28.59801 5.51953,-29.96813c5.94391,-16.76415 10.4653,25.13995 10.4653,46.16315z" fill="#3236f4" stroke-width="0"/></g><g stroke="#000000" stroke-linecap="butt"><g><path d="M241.90256,107.51191c4.68945,-46.5552 46.23146,-80.4941 92.78666,-75.80465c46.5552,4.68945 80.4941,46.23146 75.80465,92.78666c-4.68945,46.5552 -46.23146,80.4941 -92.78666,75.80465c-46.5552,-4.68945 -80.4941,-46.23146 -75.80465,-92.78666z" fill="#faddbf" stroke-width="2"/><path d="M242.21932,106.66991c1.50877,-14.97848 12.7239,-39.93704 17.53237,-42.68312c0.54914,-0.31361 6.65029,-8.2855 14.80608,-14.2145c10.13709,-7.36934 22.72641,-12.9439 23.31436,-12.68662c7.67093,3.3567 -23.93817,62.77184 -25.2401,88.05861c-0.00311,0.0603 2.41073,20.04411 3.97708,20.64301c2.39567,5.00778 7.14546,19.97005 17.25639,28.16478c18.8429,15.27184 46.72307,24.48608 45.19656,24.84061c-2.44186,0.56711 -15.0057,1.27153 -21.03808,0.6639c-46.5552,-4.68945 -80.4941,-46.23146 -75.80465,-92.78666z" fill="#ef8b89" stroke-width="0"/><path d="M410.01899,123.98558c-1.16501,11.56581 -3.13746,15.40382 -3.50115,13.5061c-0.37104,-1.93603 0.7978,-9.78292 -7.52888,-15.48176c-2.01772,-1.38094 -10.78385,5.22156 -13.37464,3.72624c-1.62731,-0.93924 -7.58878,-10.99144 -9.42507,-11.85586c-1.2839,-0.60439 -13.22704,7.08762 -14.57437,6.49897c-3.3603,-1.46811 -10.78827,-12.51779 -14.45465,-13.54844c-2.01896,-0.56755 -10.42367,10.85977 -12.49663,10.39583c-2.67335,-0.59831 -8.80841,-13.01676 -11.53201,-13.29111c-7.2432,-0.7296 -8.14475,6.22585 -13.95816,11.67689c-3.77769,3.54222 -12.60991,-14.38811 -16.16249,-10.28831c-4.4119,5.09146 -8.76522,9.98954 -13.34566,13.146c-3.59352,2.47637 -12.28495,-11.38541 -15.40882,-9.06905c-15.08289,11.18403 -24.18059,18.3125 -22.35937,0.23216c3.66212,-36.35617 43.89286,-3.83377 87.6222,-21.05961c41.85728,-16.4884 84.16183,-0.94422 80.49971,35.41196z" fill="#ef8b89" stroke-width="0"/></g><path d="M412.37807,115.87026c-2.35354,23.3651 5.62535,9.32605 -11.32284,-2.00515c-2.07396,-1.38661 -11.05134,5.19462 -13.71361,3.6921c-1.67221,-0.94376 -7.81553,-11.01428 -9.70198,-11.88375c-1.31897,-0.60792 -13.55334,7.05475 -14.93734,6.46241c-3.45178,-1.47732 -11.10246,-12.54944 -14.86715,-13.59c-2.0731,-0.573 -10.66695,10.83526 -12.79519,10.36575c-2.74463,-0.60549 -9.07229,-13.04334 -11.86764,-13.32491c-7.43399,-0.74882 -8.34078,6.20611 -14.29146,11.64332c-3.8669,3.53323 -12.97651,-14.42504 -16.61097,-10.33349c-4.51356,5.08122 -8.96755,9.96916 -13.65912,13.11443c-3.68072,2.46759 -12.63519,-11.42069 -15.83443,-9.11192c-15.44682,11.14737 -24.76303,18.25383 -22.94182,0.17349c3.66212,-36.35617 47.80565,-76.85275 93.50126,-72.24988c45.69559,4.60287 82.70444,50.69144 79.04232,87.04761z" fill="#724e36" stroke-width="2"/><path d="M412.24812,114.68849c-2.35354,23.3651 5.62535,9.32605 -11.32284,-2.00515c-2.07396,-1.38661 -11.05134,5.19462 -13.71361,3.6921c-1.67221,-0.94376 -7.81553,-11.01428 -9.70199,-11.88375c-1.31897,-0.60792 -13.55334,7.05475 -14.93734,6.46241c-3.45178,-1.47732 -11.10246,-12.54944 -14.86715,-13.59c-2.0731,-0.573 -10.66695,10.83526 -12.79519,10.36575c-2.74463,-0.60549 -9.07229,-13.04334 -11.86764,-13.32491c-7.43399,-0.74882 -8.34078,6.20611 -14.29146,11.64332c-3.8669,3.53323 -12.97651,-14.42504 -16.61097,-10.33349c-4.51356,5.08122 -8.96755,9.96916 -13.65913,13.11443c-3.68072,2.46759 -12.63519,-11.42069 -15.83443,-9.11192c-15.44682,11.14737 -24.76303,18.25383 -22.94182,0.17349c3.66212,-36.35617 45.02734,-3.7195 89.85173,-20.83504c42.90545,-16.38282 86.35396,-0.72341 82.69185,35.63277z" fill="#623728" stroke-width="0"/></g><g stroke="#000000" stroke-linecap="butt"><path d="M342.64319,140.67766c-2.86223,28.41515 -17.44055,41.75176 -33.92566,40.09124c-16.48512,-1.66053 -28.63447,-17.6894 -25.77224,-46.10454c2.86223,-28.41515 18.54635,-50.10405 35.03147,-48.44352c16.48512,1.66053 27.52866,26.04168 24.66643,54.45683z" fill="#f0f0f0" stroke-width="2"/><path d="M298.08545,116.50791c-7.11048,27.65961 27.83322,65.15916 11.3481,63.49863c-16.48512,-1.66053 -28.63447,-17.6894 -25.77224,-46.10454c2.86223,-28.41515 24.7038,-57.38171 14.42414,-17.39409z" fill="#9a99ff" stroke-width="0"/></g><path d="M337.94322,148.47915c-1.58573,15.74255 -7.53652,28.03448 -13.29146,27.45479c-5.75494,-0.57969 -9.13475,-13.81148 -7.54902,-29.55403c1.58573,-15.74255 7.53652,-28.03448 13.29146,-27.45479c5.75494,0.57969 9.13475,13.81148 7.54902,29.55403z" fill="#000000" stroke="none" stroke-width="0" stroke-linecap="butt"/><g stroke="#000000" stroke-linecap="butt"><path d="M340.66924,110.29216c3.41176,10.62524 9.29621,39.90058 -6.33495,38.32607c-15.63116,-1.57451 -47.13744,-34.18423 -41.65186,-43.29555c5.21945,-8.66928 8.9022,-20.6306 24.53336,-19.05609c15.63116,1.57451 20.202,13.89957 23.45344,24.02556z" fill="#a100fe" stroke-width="2"/><path d="M339.78513,109.84706c3.26046,10.61 9.65348,39.72116 -5.4447,38.20034c-15.09818,-1.52082 -46.23681,-33.87811 -40.90542,-43.00496c5.07274,-8.68405 6.42879,1.61446 21.52697,3.13529c15.09818,1.52082 21.71587,-8.44214 24.82314,1.66932z" fill="#99008e" stroke-width="0"/></g><g data-paper-data="{&quot;index&quot;:null}" stroke="#000000" stroke-linecap="butt"><path d="M381.53077,91.13645c16.48512,1.66053 27.52866,26.04168 24.66643,54.45683c-2.86223,28.41514 -17.96422,41.69901 -34.44933,40.03849c-16.48512,-1.66053 -28.1108,-17.63664 -25.24857,-46.05179c2.86223,-28.41515 18.54635,-50.10405 35.03147,-48.44352z" fill="#f0f0f0" stroke-width="2"/><path d="M405.6476,144.70343c-2.86223,28.41514 -17.96422,41.69901 -34.44933,40.03849c-16.48512,-1.66053 25.23531,-31.43779 23.78394,-59.95982c-2.09825,-41.23443 13.52762,-8.49381 10.6654,19.92134z" fill="#9a99ff" stroke-width="0"/></g><path d="M393.91175,125.15087c5.75494,0.57969 9.13475,13.81148 7.54902,29.55403c-1.58573,15.74255 -7.53652,28.03448 -13.29146,27.45479c-5.75494,-0.57969 -9.13475,-13.81148 -7.54902,-29.55403c1.58573,-15.74255 7.53652,-28.03448 13.29146,-27.45479z" data-paper-data="{&quot;index&quot;:null}" fill="#000000" stroke="none" stroke-width="0" stroke-linecap="butt"/><g data-paper-data="{&quot;index&quot;:null}" stroke="#000000" stroke-linecap="butt"><path d="M354.49352,110.19852c5.2056,-9.27412 12.14265,-20.44001 27.77381,-18.8655c15.63116,1.57451 16.85443,14.03001 20.24007,23.56607c3.55827,10.0223 -32.79535,36.22736 -48.42651,34.65285c-15.63116,-1.57451 -5.04964,-29.62205 0.41262,-39.35342z" fill="#a100fe" stroke-width="2"/><path d="M355.44864,109.9387c5.06142,-9.28864 9.55921,1.79397 24.65739,3.3148c15.09818,1.52082 18.48087,-8.30037 21.7198,1.22091c3.40408,10.00677 -32.79514,36.44279 -47.89332,34.92197c-15.09818,-1.52082 -3.79485,-29.71106 1.51611,-39.45767z" fill="#99008e" stroke-width="0"/></g><path d="M391.63632,338.87005c0,11.6628 -14.51982,21.11737 -32.43092,21.11737c-17.9111,0 -32.43092,-9.45457 -32.43092,-21.11737c0,-2.33142 -0.03339,-13.76009 1.08979,-15.13837c4.49546,-5.51647 17.81784,5.26144 32.14847,5.26144c17.9111,0 31.62358,-1.78588 31.62358,9.87692z" fill="#000082" stroke="#000000" stroke-width="2" stroke-linecap="butt"/><path d="M389.75004,336.13775c0,6.30841 -13.89058,10.1901 -31.80169,10.1901c-17.9111,0 -30.16566,-2.95748 -30.16566,-9.26589c0,-1.26107 -0.03338,-12.52602 1.0898,-13.27153c4.49546,-2.98386 15.55258,5.7726 29.88321,5.7726c17.9111,0 30.99434,0.26631 30.99434,6.57472z" fill="#2e0048" stroke="#000000" stroke-width="0" stroke-linecap="butt"/><path d="M348.64938,338.22522c0,11.6628 -14.51982,21.11737 -32.43092,21.11737c-17.9111,0 -32.43092,-9.45457 -32.43092,-21.11737c0,-2.33142 -0.03339,-13.76009 1.08979,-15.13837c4.49546,-5.51647 17.81784,5.26144 32.14847,5.26144c17.9111,0 31.62358,-1.78588 31.62358,9.87692z" fill="#000082" stroke="#000000" stroke-width="2" stroke-linecap="butt"/><path d="M346.7631,335.49289c0,6.30841 -13.89058,10.1901 -31.80169,10.1901c-17.9111,0 -30.16566,-2.95748 -30.16566,-9.26589c0,-1.26107 -0.03338,-12.52602 1.0898,-13.27153c4.49546,-2.98386 15.55258,5.7726 29.88321,5.7726c17.9111,0 30.99434,0.26631 30.99434,6.57472z" fill="#2e0048" stroke="#000000" stroke-width="0" stroke-linecap="butt"/><g><path d="M297.46295,264.90422c-14.56857,-3.92169 -21.10523,-13.53846 -17.89916,-28.12718c2.50748,-11.40999 18.05165,-20.70528 32.62024,-16.78358c14.56866,3.92169 22.61776,16.18445 18.7352,30.60787c-0.60716,2.25554 -1.83692,4.15698 -2.94388,5.90412c-5.97166,9.42496 -18.22205,11.70721 -30.51238,8.39879z" fill="#216aff" stroke="#000000" stroke-width="2" stroke-linecap="butt"/><path d="M298.50615,221.57476c0,0 -1.91786,5.42706 -0.68082,7.00285c11.8658,15.11543 25.11908,19.75965 29.61977,20.96118c1.02253,0.273 1.82924,-0.50809 1.82924,-0.50809c0,0 -0.33205,2.08755 -1.60065,4.51751c-1.34989,2.58568 -3.71388,5.57155 -6.27442,7.27118c-2.92488,1.94142 -10.82451,4.60682 -10.82451,4.60682l-20.83059,-2.22379c0,0 -7.6932,-11.03493 -8.24376,-13.13108c-0.53939,-2.05351 -0.58866,-4.63814 -0.75164,-7.38412c-0.25304,-4.26351 1.06863,-8.60633 2.64824,-11.01456c2.01599,-3.07343 5.69362,-5.9417 9.06322,-7.73287c3.13603,-1.667 6.0459,-2.3649 6.0459,-2.3649z" fill="#3236f4" stroke="none" stroke-width="0" stroke-linecap="butt"/><path d="M294.46236,245.67491c0,0 0.48944,-9.00881 3.84508,-12.92287c4.24785,-4.95481 15.09685,-12.05423 15.09685,-12.05423" fill="none" stroke="#000000" stroke-width="1" stroke-linecap="round"/><path d="M331.13465,243.51626c0,0 -3.27255,6.3577 -6.09473,9.59916c-2.84911,3.27244 -11.39138,7.87483 -11.39138,7.87483" fill="none" stroke="#000000" stroke-width="1" stroke-linecap="round"/><path d="M283.49435,245.91804c0,0 0.36426,-9.25492 4.19197,-13.32894c5.87348,-6.25143 15.30271,-13.00314 15.30271,-13.00314" fill="none" stroke="#000000" stroke-width="1" stroke-linecap="round"/><path d="M283.28476,230.63559c0,0 15.9874,-6.62404 30.73618,2.65053c16.15541,10.15911 11.35738,26.72623 11.35738,26.72623" fill="none" stroke="#000000" stroke-width="1" stroke-linecap="round"/><path d="M279.60437,239.41965c0,0 17.34179,-4.01557 30.37399,4.14048c10.70061,6.69689 7.9645,21.02981 7.9645,21.02981" fill="none" stroke="#000000" stroke-width="1" stroke-linecap="round"/><path d="M322.57032,231.36041c-0.82655,-0.87408 -0.9356,-2.11308 -0.24366,-2.76738c0.69192,-0.65437 1.25556,-0.09197 2.0821,0.78211c0.82655,0.87408 1.60296,1.7288 0.91102,2.38313c-0.69192,0.65437 -1.92296,0.47623 -2.74944,-0.39786z" fill="#8fbbbe" stroke="none" stroke-width="0" stroke-linecap="butt"/><path d="M326.7998,237.27398c-0.58081,-0.15637 -0.86153,-0.98933 -0.62701,-1.86054c0.23451,-0.87122 0.45055,-1.19454 1.03136,-1.03822c0.58081,0.15637 1.03681,1.03653 0.80227,1.90772c-0.23451,0.87122 -0.62585,1.14737 -1.20663,0.99102z" fill="#8fbbbe" stroke="none" stroke-width="0" stroke-linecap="butt"/><path d="M317.77028,226.37811c-0.84129,-0.32605 -1.34706,-1.04493 -1.12973,-1.60577c0.21727,-0.56081 0.93395,-0.22538 1.77522,0.10061c0.84129,0.32605 1.48859,0.51907 1.27128,1.07994c-0.21727,0.56081 -1.07551,0.75121 -1.91679,0.4252z" fill="#8fbbbe" stroke="none" stroke-width="0" stroke-linecap="butt"/><path d="M294.21203,222.86256c0,0 10.20794,-0.69093 17.42179,1.62858c4.08989,1.31506 7.24056,3.88597 9.60741,5.86189c2.09314,1.74736 5.08589,7.60134 6.91032,12.32042c1.34323,3.47439 1.87103,6.37066 1.87103,6.37066" fill="none" stroke="#000000" stroke-width="0.5" stroke-linecap="round"/><path d="M327.77698,229.45416c0,0 -3.13865,10.09588 -6.51938,14.31343c-2.84832,3.55339 -12.0923,9.43673 -12.0923,9.43673" fill="none" stroke="#000000" stroke-width="1" stroke-linecap="round"/><path d="M304.15646,250.16419c0,0 2.97233,-9.19746 5.40231,-13.01138c4.26661,-6.69648 13.18902,-12.06004 13.18902,-12.06004" fill="none" stroke="#000000" stroke-width="1" stroke-linecap="round"/></g><g stroke="#000000" stroke-linecap="butt"><path d="M281.33406,243.63393c28.04931,18.01543 28.671,27.64188 24.29832,34.44997c-4.37268,6.80809 -30.65589,-2.27728 -58.70519,-20.29272c-28.04929,-18.01543 41.40511,-37.80371 45.7778,-44.6118c6.47708,-2.89405 6.98533,3.61281 3.03221,10.40463c-4.87511,8.37591 -16.80068,18.51002 -14.40313,20.04992z" fill="#216aff" stroke-width="2"/><path d="M308.93906,246.99764c12.03947,7.73267 15.36949,24.01235 7.4378,36.36165c-7.93168,12.3493 -24.12151,16.09182 -36.16098,8.35915c-12.03947,-7.73267 -15.36947,-24.01236 -7.4378,-36.36166c7.93168,-12.34931 24.12151,-16.09182 36.16097,-8.35913z" fill="#faddbf" stroke-width="2"/><path d="M277.64545,274.12618c12.03947,7.73267 46.15511,-3.91197 38.22343,8.43733c-7.93168,12.3493 -24.12151,16.09182 -36.16097,8.35914c-12.03947,-7.73267 -14.10192,-24.52915 -2.06246,-16.79646z" fill="#ef8b89" stroke-width="0"/></g><path d="M278.58432,152.31853c-0.02864,0.24848 -0.09786,0.42151 -0.09786,0.42151c-0.74996,1.83378 -1.53252,4.96857 -0.7435,6.90719c1.47579,3.62601 6.72447,5.32407 5.18343,10.32942c-1.51065,4.90664 -10.35703,5.71942 -13.78933,2.52986c-0.71833,-0.66753 -1.07885,-1.63781 -1.61828,-2.45672c-2.81316,-7.40049 -5.89207,-19.73098 0.81817,-26.23306c2.62665,-2.54517 8.56899,-3.16249 10.63833,0.35985c1.05332,1.79292 0.7545,4.28676 0.30546,6.17479c-0.12197,0.48786 -0.24393,0.97573 -0.3659,1.46359z" fill="#000000" stroke="none" stroke-width="0.5" stroke-linecap="butt"/></g></g></svg>