<svg version="1.1" xmlns="http://www.w3.org/2000/svg" xmlns:xlink="http://www.w3.org/1999/xlink" width="193.26847" height="319.79546" viewBox="0,0,193.26847,319.79546"><g transform="translate(-231.04474,-41.19195)"><g data-paper-data="{&quot;isPaintingLayer&quot;:true}" fill-rule="nonzero" stroke-linejoin="miter" stroke-miterlimit="10" stroke-dasharray="" stroke-dashoffset="0" style="mix-blend-mode: normal"><g data-paper-data="{&quot;index&quot;:null}" stroke="#000000" stroke-linecap="butt"><path d="M349.66143,240.29304c1.7149,-2.27565 -12.98461,-7.64627 -20.46143,-13.8123c-6.06277,-4.99988 -7.84213,-11.27934 -0.76339,-10.81055c6.46195,4.86966 78.46897,-0.65092 58.40598,25.97229c-20.063,26.62321 -41.56572,44.25795 -48.02767,39.38828c-6.46195,-4.86966 -9.2165,-14.11453 10.8465,-40.73773z" fill="#216aff" stroke-width="2"/><path d="M361.75122,248.32216c11.72144,8.83317 14.24251,25.25757 5.63096,36.68492c-8.61155,11.42735 -25.0947,13.53035 -36.81614,4.69718c-11.72144,-8.83317 -14.2425,-25.25756 -5.63095,-36.68491c8.61155,-11.42735 25.09469,-13.53036 36.81613,-4.69719z" fill="#faddbf" stroke-width="2"/><path d="M367.58272,284.0845c-8.61154,11.42736 -25.09469,13.53036 -36.81613,4.69719c-11.72144,-8.83317 24.31541,-9.73949 32.92696,-21.16684c8.61155,-11.42737 12.50072,5.0423 3.88917,16.46965z" fill="#ef8b89" stroke-width="0"/></g><g stroke="#000000" stroke-linecap="butt"><path d="M327.76518,340.83534v-95.29492h29.49199v95.29492z" fill="#73fffc" stroke-width="2"/><path d="M327.43943,340.21741l1.32626,-93.78573c0,0 5.20288,68.11227 6.3799,77.52842c0.2602,2.08162 2.52228,2.78987 2.52228,2.78987l18.60659,13.13896z" fill="#59a9e6" stroke-width="0"/></g><g stroke="#000000" stroke-linecap="butt"><path d="M288.4238,338.41279v-95.29492h29.49199v95.29492z" fill="#73fffc" stroke-width="2"/><path d="M288.09805,337.7949l1.32626,-93.78573c0,0 5.20288,68.11227 6.3799,77.52842c0.2602,2.08162 2.52228,2.78987 2.52228,2.78987l18.60659,13.13896z" fill="#59a9e6" stroke-width="0"/></g><g stroke="#000000" stroke-linecap="butt"><path d="M355.22917,235.69588c0,13.80271 10.04743,36.74388 4.95001,46.45977c-6.2338,11.88187 -28.61241,9.09579 -38.9397,9.09579c-13.66287,0 -32.94407,4.17018 -38.34426,-14.83216c-2.01935,-7.10576 4.35457,-32.37264 4.35457,-40.7234c0,-30.68249 15.2177,-55.55556 33.98969,-55.55556c18.77199,0 33.98969,24.87307 33.98969,55.55556z" fill="#216aff" stroke-width="2"/><path d="M303.96554,251.27245c0,13.80271 62.04198,20.54886 56.94455,30.26474c-6.2338,11.88186 -28.61241,9.09579 -38.9397,9.09579c-13.66287,0 -32.94406,4.17018 -38.34425,-14.83215c-2.01936,-7.10576 4.35457,-32.37265 4.35457,-40.7234c0,-9.45244 3.34855,-28.59801 5.51953,-29.96813c5.94391,-16.76415 10.4653,25.13995 10.4653,46.16315z" fill="#3236f4" stroke-width="0"/></g><g stroke="#000000" stroke-linecap="butt"><g><path d="M253.21289,114.56461c8.35424,-46.03895 52.44862,-76.58845 98.48756,-68.2342c46.03895,8.35424 76.58845,52.44862 68.2342,98.48756c-8.35424,46.03895 -52.44862,76.58845 -98.48756,68.2342c-46.03895,-8.35424 -76.58845,-52.44862 -68.2342,-98.48756z" fill="#faddbf" stroke-width="2"/><path d="M253.59521,113.75028c2.68786,-14.81239 15.84049,-38.80648 20.85095,-41.16395c0.57221,-0.26924 7.28433,-7.73399 15.88319,-12.99984c10.6878,-6.54511 23.67834,-11.10725 24.2441,-10.8043c7.38164,3.95247 -28.82441,60.68355 -32.12078,85.78832c-0.00787,0.05987 0.81902,20.17193 2.33313,20.89277c1.99239,5.18146 5.54479,20.47232 14.97643,29.44052c17.57697,16.7133 44.64167,28.1022 43.09192,28.33497c-2.47905,0.37234 -15.05925,0.08159 -21.02475,-1.0009c-46.03895,-8.35424 -76.58845,-52.44862 -68.2342,-98.48756z" fill="#ef8b89" stroke-width="0"/><path d="M419.50147,144.27368c-2.07546,11.43755 -4.34508,15.10768 -4.55765,13.18714c-0.21687,-1.9593 1.56849,-9.68926 -6.28175,-16.02836c-1.90227,-1.53609 -11.1628,4.35294 -13.6273,2.65754c-1.54799,-1.06492 -6.69634,-11.55684 -8.45857,-12.56367c-1.23212,-0.70397 -13.74583,6.02006 -15.04242,5.32677c-3.23376,-1.72909 -9.76519,-13.33128 -13.33865,-14.64848c-1.96779,-0.72534 -11.24935,10.00197 -13.27916,9.37565c-2.6177,-0.80772 -7.75209,-13.67221 -10.44549,-14.16096c-7.16287,-1.29978 -8.61133,5.56266 -14.83736,10.53719c-4.04583,3.23257 -11.43332,-15.33971 -15.29882,-11.53351c-4.80049,4.72683 -9.52732,9.26554 -14.3429,12.05012c-3.778,2.18461 -11.34668,-12.32073 -14.64385,-10.2585c-15.91963,9.95698 -25.55226,16.34412 -22.30778,-1.53571c6.52404,-35.95302 44.05856,-0.35276 89.01254,-14.06859c43.02949,-13.12867 83.97319,5.71039 77.44914,41.6634z" fill="#ef8b89" stroke-width="0"/></g><path d="M422.49454,136.3702c-4.19283,23.10601 4.87068,9.74147 -11.12894,-2.89377c-1.95789,-1.54618 -11.42731,4.30493 -13.96252,2.5967c-1.59239,-1.07298 -6.92058,-11.59752 -8.73241,-12.61336c-1.26679,-0.71026 -14.06851,5.96151 -15.40137,5.26164c-3.32422,-1.74552 -10.07589,-13.38766 -13.74657,-14.72249c-2.02133,-0.73506 -11.48993,9.95831 -13.57442,9.32207c-2.68819,-0.82052 -8.01304,-13.71956 -10.77738,-14.22118c-7.35156,-1.33401 -8.80519,5.52749 -15.16697,10.47739c-4.13404,3.21656 -11.79585,-15.40549 -15.74232,-11.61399c-4.90103,4.7086 -9.7274,9.22924 -14.65288,11.99387c-3.86423,2.16896 -11.69304,-12.38358 -15.06475,-10.33488c-16.27952,9.89167 -26.12824,16.2396 -22.88376,-1.64024c6.52404,-35.95302 53.73009,-72.83407 98.91898,-64.63409c45.18887,8.19999 78.43939,57.06934 71.91534,93.02236z" fill="#724e36" stroke-width="2"/><path d="M422.45841,135.18186c-4.19283,23.10601 4.87068,9.74147 -11.12894,-2.89377c-1.95789,-1.54618 -11.42731,4.30493 -13.96252,2.5967c-1.59239,-1.07298 -6.92058,-11.59752 -8.73242,-12.61336c-1.26679,-0.71026 -14.06851,5.96151 -15.40137,5.26164c-3.32422,-1.74552 -10.07589,-13.38766 -13.74657,-14.72249c-2.02133,-0.73506 -11.48993,9.95831 -13.57442,9.32207c-2.68819,-0.82052 -8.01304,-13.71956 -10.77738,-14.22118c-7.35156,-1.33401 -8.80519,5.52749 -15.16697,10.47739c-4.13404,3.21656 -11.79585,-15.40549 -15.74232,-11.61399c-4.90103,4.7086 -9.7274,9.22924 -14.65289,11.99386c-3.86423,2.16896 -11.69304,-12.38358 -15.06475,-10.33488c-16.27952,9.89167 -26.12824,16.2396 -22.88376,-1.64024c6.52404,-35.95302 45.18046,-0.14916 91.21733,-13.6685c44.06604,-12.94058 86.14101,6.10377 79.61697,42.05678z" fill="#623728" stroke-width="0"/></g><g stroke="#000000" stroke-linecap="butt"><path d="M351.01718,155.58856c-5.09904,28.10005 -20.6858,40.24277 -36.98811,37.28454c-16.30231,-2.95822 -27.14683,-19.89716 -22.04779,-47.9972c5.09904,-28.10005 22.44827,-48.48152 38.75058,-45.5233c16.30231,2.95822 25.38437,28.13591 20.28533,56.23597z" fill="#f0f0f0" stroke-width="2"/><path d="M308.50905,127.97284c-9.27429,27.01111 22.59636,67.15511 6.29405,64.19689c-16.30231,-2.95822 -27.14683,-19.89716 -22.04779,-47.9972c5.09904,-28.10005 29.16163,-55.24978 15.75375,-16.19968z" fill="#9a99ff" stroke-width="0"/></g><path d="M345.71532,162.99418c-2.82497,15.56798 -9.72863,27.35114 -15.41974,26.31843c-5.69111,-1.03271 -8.0146,-14.49023 -5.18964,-30.05821c2.82497,-15.56798 9.72863,-27.35114 15.41974,-26.31843c5.69111,1.03271 8.0146,14.49023 5.18964,30.05821z" fill="#000000" stroke="none" stroke-width="0" stroke-linecap="butt"/><g stroke="#000000" stroke-linecap="butt"><path d="M351.45089,125.1421c2.56133,10.86164 -12.26015,12.12751 -27.71798,9.32253c-15.45783,-2.80498 -25.91449,-9.41979 -19.72597,-18.06906c5.88829,-8.22964 10.50487,-19.86248 25.9627,-17.05751c15.45783,2.80498 19.04026,15.45274 21.48124,25.80404z" fill="#a100fe" stroke-width="2"/><path d="M350.60472,124.62853c2.41171,10.8345 -11.92807,12.18776 -26.85884,9.47843c-14.93076,-2.70933 -25.00261,-9.25432 -18.96658,-17.93125c5.74321,-8.25597 6.28109,2.11751 21.21184,4.82684c14.93076,2.70933 22.31516,-6.69943 24.61355,3.62598z" fill="#99008e" stroke-width="0"/></g><g data-paper-data="{&quot;index&quot;:null}" stroke="#000000" stroke-linecap="butt"><path d="M393.69855,109.27576c16.30231,2.95822 25.38437,28.13591 20.28533,56.23597c-5.09904,28.10004 -21.20367,40.14879 -37.50599,37.19056c-16.30231,-2.95822 -26.62898,-19.80319 -21.52993,-47.90324c5.09904,-28.10005 22.44827,-48.48152 38.75058,-45.5233z" fill="#f0f0f0" stroke-width="2"/><path d="M413.50633,164.58125c-5.09904,28.10004 -21.20367,40.14879 -37.50599,37.19056c-16.30231,-2.95822 27.64103,-29.34499 28.44841,-57.89252c1.16723,-41.27127 14.1566,-7.3981 9.05757,20.70195z" fill="#9a99ff" stroke-width="0"/></g><path d="M403.3525,144.16231c5.69111,1.03271 8.0146,14.49023 5.18964,30.05821c-2.82497,15.56798 -9.72863,27.35114 -15.41974,26.31843c-5.69111,-1.03271 -8.0146,-14.49023 -5.18964,-30.05821c2.82497,-15.56798 9.72863,-27.35114 15.41974,-26.31843z" data-paper-data="{&quot;index&quot;:null}" fill="#000000" stroke="none" stroke-width="0" stroke-linecap="butt"/><g data-paper-data="{&quot;index&quot;:null}" stroke="#000000" stroke-linecap="butt"><path d="M365.23933,126.14134c5.92228,-8.83369 13.72012,-19.41638 29.17795,-16.6114c15.45783,2.80498 15.69285,15.3182 18.31424,25.092c2.75504,10.27217 -9.35907,12.79129 -24.8169,9.9863c-15.45783,-2.80498 -28.88958,-9.19767 -22.67529,-18.4669z" fill="#a100fe" stroke-width="2"/><path d="M366.21199,125.95782c5.7797,-8.85957 9.38752,2.54387 24.31829,5.2532c14.93076,2.70933 19.07907,-6.81379 21.55536,2.93369c2.60256,10.24451 -9.12675,12.83344 -24.0575,10.1241c-14.93076,-2.70933 -27.88082,-9.01463 -21.81616,-18.31099z" fill="#99008e" stroke-width="0"/></g><path d="M391.63632,338.87004c0,11.6628 -14.51982,21.11737 -32.43092,21.11737c-17.9111,0 -32.43092,-9.45457 -32.43092,-21.11737c0,-2.33142 -0.03339,-13.76009 1.08979,-15.13837c4.49546,-5.51647 17.81784,5.26144 32.14847,5.26144c17.9111,0 31.62358,-1.78588 31.62358,9.87692z" fill="#000082" stroke="#000000" stroke-width="2" stroke-linecap="butt"/><path d="M389.75004,336.13774c0,6.30841 -13.89058,10.1901 -31.80169,10.1901c-17.9111,0 -30.16566,-2.95748 -30.16566,-9.26589c0,-1.26107 -0.03338,-12.52602 1.0898,-13.27153c4.49546,-2.98386 15.55258,5.7726 29.88321,5.7726c17.9111,0 30.99434,0.26631 30.99434,6.57472z" fill="#2e0048" stroke="#000000" stroke-width="0" stroke-linecap="butt"/><path d="M348.64938,338.2252c0,11.6628 -14.51982,21.11737 -32.43092,21.11737c-17.9111,0 -32.43092,-9.45457 -32.43092,-21.11737c0,-2.33142 -0.03339,-13.76009 1.08979,-15.13837c4.49546,-5.51647 17.81784,5.26144 32.14847,5.26144c17.9111,0 31.62358,-1.78588 31.62358,9.87692z" fill="#000082" stroke="#000000" stroke-width="2" stroke-linecap="butt"/><path d="M346.7631,335.49289c0,6.30841 -13.89058,10.1901 -31.80169,10.1901c-17.9111,0 -30.16566,-2.95748 -30.16566,-9.26589c0,-1.26107 -0.03338,-12.52602 1.0898,-13.27153c4.49546,-2.98386 15.55258,5.7726 29.88321,5.7726c17.9111,0 30.99434,0.26631 30.99434,6.57472z" fill="#2e0048" stroke="#000000" stroke-width="0" stroke-linecap="butt"/><g><path d="M275.06584,255.75542c-10.83114,-10.50282 -11.87541,-22.08382 -1.98838,-33.28009c7.73272,-8.75673 25.83494,-9.33416 36.6661,1.16868c10.83122,10.50285 11.91273,25.13139 1.5146,35.85464c-1.62606,1.67691 -3.62444,2.74192 -5.44054,3.73169c-9.7971,5.33925 -21.61439,1.3855 -30.75177,-7.47489z" fill="#485e84" stroke="#000000" stroke-width="2" stroke-linecap="butt"/><path d="M297.01874,218.38432c0,0 -4.31194,3.8129 -3.99577,5.79113c3.03271,18.97568 12.3632,29.4714 15.71413,32.7073c0.76132,0.73519 1.84582,0.44413 1.84582,0.44413c0,0 -1.30399,1.66364 -3.59297,3.17182c-2.43566,1.60484 -5.95216,3.06706 -9.01588,3.30942c-3.49963,0.27681 -11.69965,-1.22925 -11.69965,-1.22925l-17.12978,-12.05941c0,0 -1.36662,-13.38235 -0.83001,-15.48211c0.52568,-2.05707 1.73771,-4.34042 2.92869,-6.82004c1.84917,-3.84995 5.11344,-7.00454 7.66376,-8.34269c3.25481,-1.70775 7.86256,-2.42927 11.67798,-2.35878c3.55097,0.06561 6.4336,0.86858 6.4336,0.86858z" fill="#343545" stroke="none" stroke-width="0" stroke-linecap="butt"/><path d="M281.78062,237.48847c0,0 4.80258,-7.63763 9.63668,-9.42972c6.11946,-2.26862 19.05092,-3.20646 19.05092,-3.20646" fill="none" stroke="#000000" stroke-width="1" stroke-linecap="round"/><path d="M314.887,253.40965c0,0 -5.94811,3.9686 -9.98927,5.43174c-4.07973,1.47716 -13.78215,1.35231 -13.78215,1.35231" fill="none" stroke="#000000" stroke-width="1" stroke-linecap="round"/><path d="M272.07455,232.3749c0,0 4.81266,-7.91356 10.13712,-9.61625c8.1702,-2.61268 19.69168,-3.93602 19.69168,-3.93602" fill="none" stroke="#000000" stroke-width="1" stroke-linecap="round"/><path d="M279.31256,218.91352c0,0 17.19252,1.97296 25.58181,17.24265c9.18941,16.72601 -3.05,28.87869 -3.05,28.87869" fill="none" stroke="#000000" stroke-width="1" stroke-linecap="round"/><path d="M271.82966,224.80517c0,0 17.10981,4.91092 24.54165,18.36926c6.10221,11.05055 -3.24977,22.25141 -3.24977,22.25141" fill="none" stroke="#000000" stroke-width="1" stroke-linecap="round"/><path d="M313.3032,238.62439c-0.2981,-1.16548 0.20824,-2.30154 1.13085,-2.53751c0.92264,-0.23604 1.14224,0.52931 1.44033,1.69479c0.2981,1.16548 0.56177,2.28969 -0.36086,2.52568c-0.92264,0.23604 -1.91227,-0.5175 -2.21031,-1.68295z" fill="#8fbbbe" stroke="none" stroke-width="0" stroke-linecap="butt"/><path d="M314.12885,245.84776c-0.4318,-0.41874 -0.27271,-1.28322 0.35536,-1.93093c0.62808,-0.64772 0.97394,-0.82546 1.40575,-0.40676c0.4318,0.41874 0.40303,1.40959 -0.22507,2.05728c-0.62808,0.64772 -1.10427,0.69908 -1.53606,0.28038z" fill="#8fbbbe" stroke="none" stroke-width="0" stroke-linecap="butt"/><path d="M311.5265,231.93805c-0.57711,-0.69355 -0.67014,-1.56758 -0.20782,-1.95232c0.46227,-0.38474 0.92589,0.25649 1.50301,0.94999c0.57711,0.69355 1.04924,1.17663 0.58691,1.56139c-0.46227,0.38474 -1.305,0.13443 -1.8821,-0.55909z" fill="#8fbbbe" stroke="none" stroke-width="0" stroke-linecap="butt"/><path d="M292.63955,217.42484c0,0 9.2591,4.35302 14.43892,9.88376c2.93669,3.13567 4.4425,6.91308 5.55203,9.78973c0.98125,2.54394 0.75475,9.11467 0.05802,14.12594c-0.51295,3.68952 -1.45801,6.47768 -1.45801,6.47768" fill="none" stroke="#000000" stroke-width="0.5" stroke-linecap="round"/><path d="M318.78041,239.48636c0,0 -7.64635,7.30147 -12.64978,9.34666c-4.2155,1.72314 -15.15333,2.37731 -15.15333,2.37731" fill="none" stroke="#000000" stroke-width="1" stroke-linecap="round"/><path d="M288.07498,246.1204c0,0 7.06467,-6.59686 11.04098,-8.75088c6.98163,-3.78204 17.38596,-4.13798 17.38596,-4.13798" fill="none" stroke="#000000" stroke-width="1" stroke-linecap="round"/></g><g stroke="#000000" stroke-linecap="butt"><path d="M271.29525,229.32913c15.77173,29.36956 11.64056,38.08671 4.51203,41.9148c-7.12855,3.8281 -25.69288,-16.87737 -41.46461,-46.24694c-15.77172,-29.36957 54.55311,-12.94071 61.68165,-16.7688c7.0675,0.61537 4.35204,6.55034 -2.40184,10.56796c-8.3291,4.95467 -23.67534,8.02259 -22.32724,10.53298z" fill="#216aff" stroke-width="2"/><path d="M293.79351,245.67472c6.76963,12.60616 1.77519,28.45457 -11.1554,35.39841c-12.93058,6.94384 -28.90077,2.35363 -35.67039,-10.25253c-6.76963,-12.60616 -1.77518,-28.45458 11.15541,-35.39842c12.93058,-6.94384 28.90076,-2.35362 35.67039,10.25254z" fill="#faddbf" stroke-width="2"/><path d="M253.26358,254.19361c6.76963,12.60616 42.2475,18.99336 29.31691,25.9372c-12.93058,6.94384 -28.90077,2.35363 -35.67039,-10.25254c-6.76963,-12.60616 -0.41616,-28.29083 6.35347,-15.68466z" fill="#ef8b89" stroke-width="0"/></g><path d="M289.33752,174.9132c0.71188,1.0275 -0.31562,1.73936 -0.31562,1.73936l-0.10794,-0.00324c-1.71449,2.28589 -3.34115,4.83788 -6.29777,5.67344c-3.06525,0.86626 -6.67029,-0.81186 -6.74706,-4.22383c-0.10295,-4.57515 4.92657,-8.18111 7.56958,-11.27476c0,0 0.81249,-0.94992 1.76241,-0.13742c0.94992,0.8125 0.13743,1.76241 0.13743,1.76241c-2.23294,2.60771 -6.8685,5.83391 -6.96943,9.65006c-0.04511,1.70547 2.21784,2.23348 3.59294,1.81065c2.34019,-0.71963 3.58977,-2.94176 4.95138,-4.75985l0.68474,-0.55243c0,0 1.02749,-0.71188 1.73935,0.31562z" fill="#000000" stroke="none" stroke-width="0.5" stroke-linecap="butt"/></g></g></svg>