<svg version="1.1" xmlns="http://www.w3.org/2000/svg" xmlns:xlink="http://www.w3.org/1999/xlink" width="191.02797" height="332.98802" viewBox="0,0,191.02797,332.98802"><g transform="translate(-234.39036,-27.99941)"><g data-paper-data="{&quot;isPaintingLayer&quot;:true}" fill-rule="nonzero" stroke-linejoin="miter" stroke-miterlimit="10" stroke-dasharray="" stroke-dashoffset="0" style="mix-blend-mode: normal"><g data-paper-data="{&quot;index&quot;:null}" stroke="#000000" stroke-linecap="butt"><path d="M343.55283,236.58582c32.35465,8.0309 36.04107,16.94523 34.09183,24.7983c-1.94925,7.85308 -29.75806,7.70893 -62.11271,-0.32197c-32.35466,-8.03092 27.03745,-49.117 28.98671,-56.97008c5.20125,-4.82445 7.77636,1.17277 6.21913,8.87543c-1.92043,9.4992 -9.95049,22.93189 -7.18494,23.61834z" fill="#216aff" stroke-width="2"/><path d="M370.77191,230.88735c13.88744,3.44706 22.2791,17.78917 18.74333,32.03401c-3.53578,14.24484 -17.66009,22.99817 -31.54752,19.55111c-13.88743,-3.44706 -22.27911,-17.78919 -18.74334,-32.03403c3.53578,-14.24484 17.66008,-22.99814 31.54752,-19.55108z" fill="#faddbf" stroke-width="2"/><path d="M349.87281,266.64311c13.88743,3.44706 42.44115,-18.5566 38.90537,-4.31176c-3.53578,14.24484 -17.66009,22.99815 -31.54753,19.55109c-13.88743,-3.44706 -21.2453,-18.6864 -7.35786,-15.23932z" fill="#ef8b89" stroke-width="0"/></g><g stroke="#000000" stroke-linecap="butt"><path d="M327.76518,340.83536v-95.29492h29.49199v95.29492z" fill="#73fffc" stroke-width="2"/><path d="M327.43943,340.21743l1.32626,-93.78573c0,0 5.20288,68.11227 6.3799,77.52842c0.2602,2.08162 2.52228,2.78987 2.52228,2.78987l18.60659,13.13896z" fill="#59a9e6" stroke-width="0"/></g><g stroke="#000000" stroke-linecap="butt"><path d="M288.4238,338.41281v-95.29492h29.49199v95.29492z" fill="#73fffc" stroke-width="2"/><path d="M288.09805,337.79491l1.32626,-93.78573c0,0 5.20288,68.11227 6.3799,77.52842c0.2602,2.08162 2.52228,2.78987 2.52228,2.78987l18.60659,13.13896z" fill="#59a9e6" stroke-width="0"/></g><g stroke="#000000" stroke-linecap="butt"><path d="M355.22917,235.69588c0,13.80271 10.04743,36.74388 4.95001,46.45977c-6.2338,11.88187 -28.61241,9.09579 -38.9397,9.09579c-13.66287,0 -32.94407,4.17018 -38.34426,-14.83216c-2.01935,-7.10576 4.35457,-32.37264 4.35457,-40.7234c0,-30.68249 15.2177,-55.55556 33.98969,-55.55556c18.77199,0 33.98969,24.87307 33.98969,55.55556z" fill="#216aff" stroke-width="2"/><path d="M303.96554,251.27247c0,13.80271 62.04198,20.54886 56.94455,30.26474c-6.2338,11.88186 -28.61241,9.09579 -38.9397,9.09579c-13.66287,0 -32.94406,4.17018 -38.34425,-14.83215c-2.01936,-7.10576 4.35457,-32.37265 4.35457,-40.7234c0,-9.45244 3.34855,-28.59801 5.51953,-29.96813c5.94391,-16.76415 10.4653,25.13995 10.4653,46.16315z" fill="#3236f4" stroke-width="0"/></g><g stroke="#000000" stroke-linecap="butt"><g><path d="M253.69248,108.04782c4.68945,-46.5552 46.23146,-80.4941 92.78666,-75.80465c46.5552,4.68945 80.4941,46.23146 75.80465,92.78666c-4.68945,46.5552 -46.23146,80.4941 -92.78666,75.80465c-46.5552,-4.68945 -80.4941,-46.23146 -75.80465,-92.78666z" fill="#faddbf" stroke-width="2"/><path d="M254.00924,107.20582c1.50877,-14.97848 12.7239,-39.93704 17.53237,-42.68312c0.54914,-0.31361 6.65029,-8.2855 14.80608,-14.2145c10.13709,-7.36934 22.72641,-12.9439 23.31436,-12.68662c7.67093,3.3567 -23.93817,62.77184 -25.2401,88.05861c-0.00311,0.0603 2.41073,20.04411 3.97708,20.64301c2.39567,5.00778 7.14546,19.97005 17.25639,28.16478c18.8429,15.27184 46.72307,24.48608 45.19656,24.84061c-2.44186,0.56711 -15.0057,1.27153 -21.03808,0.6639c-46.5552,-4.68945 -80.4941,-46.23146 -75.80465,-92.78666z" fill="#ef8b89" stroke-width="0"/><path d="M421.80891,124.52149c-1.16501,11.56581 -3.13746,15.40382 -3.50115,13.5061c-0.37104,-1.93603 0.7978,-9.78292 -7.52888,-15.48176c-2.01772,-1.38094 -10.78385,5.22156 -13.37464,3.72624c-1.62731,-0.93924 -7.58878,-10.99144 -9.42507,-11.85586c-1.2839,-0.60439 -13.22704,7.08762 -14.57437,6.49897c-3.3603,-1.46811 -10.78827,-12.51779 -14.45465,-13.54844c-2.01896,-0.56755 -10.42367,10.85977 -12.49663,10.39583c-2.67335,-0.59831 -8.80841,-13.01676 -11.53201,-13.29111c-7.2432,-0.7296 -8.14475,6.22585 -13.95816,11.67689c-3.77769,3.54222 -12.60991,-14.38811 -16.16249,-10.28831c-4.4119,5.09146 -8.76522,9.98954 -13.34566,13.146c-3.59352,2.47637 -12.28495,-11.38541 -15.40882,-9.06905c-15.08289,11.18403 -24.18059,18.3125 -22.35937,0.23216c3.66212,-36.35617 43.89286,-3.83377 87.6222,-21.05961c41.85728,-16.4884 84.16183,-0.94422 80.49971,35.41196z" fill="#ef8b89" stroke-width="0"/></g><path d="M424.16799,116.40617c-2.35354,23.3651 5.62535,9.32605 -11.32284,-2.00515c-2.07396,-1.38661 -11.05134,5.19462 -13.71361,3.6921c-1.67221,-0.94376 -7.81553,-11.01428 -9.70198,-11.88375c-1.31897,-0.60792 -13.55334,7.05475 -14.93734,6.46241c-3.45178,-1.47732 -11.10246,-12.54944 -14.86715,-13.59c-2.0731,-0.573 -10.66695,10.83526 -12.79519,10.36575c-2.74463,-0.60549 -9.07229,-13.04334 -11.86764,-13.32491c-7.43399,-0.74882 -8.34078,6.20611 -14.29146,11.64332c-3.8669,3.53323 -12.97651,-14.42504 -16.61097,-10.33349c-4.51356,5.08122 -8.96755,9.96916 -13.65912,13.11443c-3.68072,2.46759 -12.63519,-11.42069 -15.83443,-9.11192c-15.44682,11.14737 -24.76303,18.25383 -22.94182,0.17349c3.66212,-36.35617 47.80565,-76.85275 93.50126,-72.24988c45.69559,4.60287 82.70444,50.69144 79.04232,87.04761z" fill="#724e36" stroke-width="2"/><path d="M424.03804,115.2244c-2.35354,23.3651 5.62535,9.32605 -11.32284,-2.00515c-2.07396,-1.38661 -11.05134,5.19462 -13.71361,3.6921c-1.67221,-0.94376 -7.81553,-11.01428 -9.70199,-11.88375c-1.31897,-0.60792 -13.55334,7.05475 -14.93734,6.46241c-3.45178,-1.47732 -11.10246,-12.54944 -14.86715,-13.59c-2.0731,-0.573 -10.66695,10.83526 -12.79519,10.36575c-2.74463,-0.60549 -9.07229,-13.04334 -11.86764,-13.32491c-7.43399,-0.74882 -8.34078,6.20611 -14.29146,11.64332c-3.8669,3.53323 -12.97651,-14.42504 -16.61097,-10.33349c-4.51356,5.08122 -8.96755,9.96916 -13.65913,13.11443c-3.68072,2.46759 -12.63519,-11.42069 -15.83443,-9.11192c-15.44682,11.14737 -24.76303,18.25383 -22.94182,0.17349c3.66212,-36.35617 45.02734,-3.7195 89.85173,-20.83504c42.90545,-16.38282 86.35396,-0.72341 82.69185,35.63277z" fill="#623728" stroke-width="0"/></g><g stroke="#000000" stroke-linecap="butt"><path d="M354.43311,141.21357c-2.86223,28.41515 -17.44055,41.75176 -33.92566,40.09124c-16.48512,-1.66053 -28.63447,-17.6894 -25.77224,-46.10454c2.86223,-28.41515 18.54635,-50.10405 35.03147,-48.44352c16.48512,1.66053 27.52866,26.04168 24.66643,54.45683z" fill="#f0f0f0" stroke-width="2"/><path d="M309.87537,117.04382c-7.11048,27.65961 27.83322,65.15916 11.3481,63.49863c-16.48512,-1.66053 -28.63447,-17.6894 -25.77224,-46.10454c2.86223,-28.41515 24.7038,-57.38171 14.42414,-17.39409z" fill="#9a99ff" stroke-width="0"/></g><path d="M349.73314,149.01506c-1.58573,15.74255 -7.53652,28.03448 -13.29146,27.45479c-5.75494,-0.57969 -9.13475,-13.81148 -7.54902,-29.55403c1.58573,-15.74255 7.53652,-28.03448 13.29146,-27.45479c5.75494,0.57969 9.13475,13.81148 7.54902,29.55403z" fill="#000000" stroke="none" stroke-width="0" stroke-linecap="butt"/><g stroke="#000000" stroke-linecap="butt"><path d="M352.45916,110.82807c3.41176,10.62524 9.29621,39.90058 -6.33495,38.32607c-15.63116,-1.57451 -47.13744,-34.18423 -41.65186,-43.29555c5.21945,-8.66928 8.9022,-20.6306 24.53336,-19.05609c15.63116,1.57451 20.202,13.89957 23.45344,24.02556z" fill="#a100fe" stroke-width="2"/><path d="M351.57505,110.38297c3.26046,10.61 9.65348,39.72116 -5.4447,38.20034c-15.09818,-1.52082 -46.23681,-33.87811 -40.90542,-43.00496c5.07274,-8.68405 6.42879,1.61446 21.52697,3.13529c15.09818,1.52082 21.71587,-8.44214 24.82314,1.66932z" fill="#99008e" stroke-width="0"/></g><g data-paper-data="{&quot;index&quot;:null}" stroke="#000000" stroke-linecap="butt"><path d="M393.32069,91.67236c16.48512,1.66053 27.52866,26.04168 24.66643,54.45683c-2.86223,28.41514 -17.96422,41.69901 -34.44933,40.03849c-16.48512,-1.66053 -28.1108,-17.63664 -25.24857,-46.05179c2.86223,-28.41515 18.54635,-50.10405 35.03147,-48.44352z" fill="#f0f0f0" stroke-width="2"/><path d="M417.43752,145.23934c-2.86223,28.41514 -17.96422,41.69901 -34.44933,40.03849c-16.48512,-1.66053 25.23531,-31.43779 23.78394,-59.95982c-2.09825,-41.23443 13.52762,-8.49381 10.6654,19.92134z" fill="#9a99ff" stroke-width="0"/></g><path d="M405.70167,125.68678c5.75494,0.57969 9.13475,13.81148 7.54902,29.55403c-1.58573,15.74255 -7.53652,28.03448 -13.29146,27.45479c-5.75494,-0.57969 -9.13475,-13.81148 -7.54902,-29.55403c1.58573,-15.74255 7.53652,-28.03448 13.29146,-27.45479z" data-paper-data="{&quot;index&quot;:null}" fill="#000000" stroke="none" stroke-width="0" stroke-linecap="butt"/><g data-paper-data="{&quot;index&quot;:null}" stroke="#000000" stroke-linecap="butt"><path d="M366.28344,110.73443c5.2056,-9.27412 12.14265,-20.44001 27.77381,-18.8655c15.63116,1.57451 16.85443,14.03001 20.24007,23.56607c3.55827,10.0223 -32.79535,36.22736 -48.42651,34.65285c-15.63116,-1.57451 -5.04964,-29.62205 0.41262,-39.35342z" fill="#a100fe" stroke-width="2"/><path d="M367.23856,110.47461c5.06142,-9.28864 9.55921,1.79397 24.65739,3.3148c15.09818,1.52082 18.48087,-8.30037 21.7198,1.22091c3.40408,10.00677 -32.79514,36.44279 -47.89332,34.92197c-15.09818,-1.52082 -3.79485,-29.71106 1.51611,-39.45767z" fill="#99008e" stroke-width="0"/></g><path d="M391.63632,338.87005c0,11.6628 -14.51982,21.11737 -32.43092,21.11737c-17.9111,0 -32.43092,-9.45457 -32.43092,-21.11737c0,-2.33142 -0.03339,-13.76009 1.08979,-15.13837c4.49546,-5.51647 17.81784,5.26144 32.14847,5.26144c17.9111,0 31.62358,-1.78588 31.62358,9.87692z" fill="#000082" stroke="#000000" stroke-width="2" stroke-linecap="butt"/><path d="M389.75004,336.13775c0,6.30841 -13.89058,10.1901 -31.80169,10.1901c-17.9111,0 -30.16566,-2.95748 -30.16566,-9.26589c0,-1.26107 -0.03338,-12.52602 1.0898,-13.27153c4.49546,-2.98386 15.55258,5.7726 29.88321,5.7726c17.9111,0 30.99434,0.26631 30.99434,6.57472z" fill="#2e0048" stroke="#000000" stroke-width="0" stroke-linecap="butt"/><path d="M348.64938,338.22522c0,11.6628 -14.51982,21.11737 -32.43092,21.11737c-17.9111,0 -32.43092,-9.45457 -32.43092,-21.11737c0,-2.33142 -0.03339,-13.76009 1.08979,-15.13837c4.49546,-5.51647 17.81784,5.26144 32.14847,5.26144c17.9111,0 31.62358,-1.78588 31.62358,9.87692z" fill="#000082" stroke="#000000" stroke-width="2" stroke-linecap="butt"/><path d="M346.7631,335.49289c0,6.30841 -13.89058,10.1901 -31.80169,10.1901c-17.9111,0 -30.16566,-2.95748 -30.16566,-9.26589c0,-1.26107 -0.03338,-12.52602 1.0898,-13.27153c4.49546,-2.98386 15.55258,5.7726 29.88321,5.7726c17.9111,0 30.99434,0.26631 30.99434,6.57472z" fill="#2e0048" stroke="#000000" stroke-width="0" stroke-linecap="butt"/><g><path d="M288.54072,264.91755c-13.54751,-6.63986 -18.1209,-17.33071 -12.17955,-31.03509c4.64677,-10.71834 21.6837,-16.8638 35.23123,-10.22393c13.5476,6.63987 19.09855,20.21744 12.5249,33.62999c-1.02799,2.09746 -2.59922,3.72811 -4.02037,5.23084c-7.66654,8.10647 -20.12725,7.99973 -31.5562,2.39821z" fill="#216aff" stroke="#000000" stroke-width="2" stroke-linecap="butt"/><path d="M297.86491,222.59037c0,0 -2.92196,4.95916 -2.0097,6.74274c8.7505,17.10854 20.86867,24.20559 25.05584,26.24703c0.9513,0.46382 1.8927,-0.14827 1.8927,-0.14827c0,0 -0.7258,1.98528 -2.43639,4.12722c-1.82021,2.27921 -4.7124,4.75693 -7.55111,5.93457c-3.24262,1.34517 -11.50654,2.44793 -11.50654,2.44793l-20.01882,-6.17297c0,0 -5.43684,-12.3043 -5.57566,-14.46709c-0.13602,-2.11881 0.31074,-4.66501 0.6768,-7.39136c0.56838,-4.23302 2.69749,-8.24223 4.70918,-10.30327c2.56741,-2.63032 6.72639,-4.74098 10.3767,-5.85349c3.39729,-1.03538 6.38696,-1.16293 6.38696,-1.16293z" fill="#3236f4" stroke="none" stroke-width="0" stroke-linecap="butt"/><path d="M289.27932,245.46956c0,0 2.20613,-8.74821 6.24941,-11.94697c5.11834,-4.04932 17.1264,-8.939 17.1264,-8.939" fill="none" stroke="#000000" stroke-width="1" stroke-linecap="round"/><path d="M325.68597,250.37593c0,0 -4.42984,5.61306 -7.8207,8.25386c-3.42322,2.66605 -12.68894,5.54683 -12.68894,5.54683" fill="none" stroke="#000000" stroke-width="1" stroke-linecap="round"/><path d="M278.46786,243.60712c0,0 2.13041,-9.01374 6.66767,-12.27907c6.96225,-5.01052 17.51023,-9.8309 17.51023,-9.8309" fill="none" stroke="#000000" stroke-width="1" stroke-linecap="round"/><path d="M281.1897,228.56755c0,0 16.96024,-3.43877 29.65921,8.48935c13.91011,13.06574 6.02729,28.40692 6.02729,28.40692" fill="none" stroke="#000000" stroke-width="1" stroke-linecap="round"/><path d="M275.89477,236.48391c0,0 17.78986,-0.61916 29.01831,9.88233c9.21956,8.6227 3.78847,22.16605 3.78847,22.16605" fill="none" stroke="#000000" stroke-width="1" stroke-linecap="round"/><path d="M319.60886,236.8046c-0.6438,-1.01623 -0.51349,-2.25317 0.29098,-2.76281c0.80446,-0.5097 1.24993,0.15025 1.89372,1.16648c0.6438,1.01623 1.2421,2.00385 0.43763,2.51351c-0.80446,0.5097 -1.97857,0.09904 -2.62231,-0.91718z" fill="#8fbbbe" stroke="none" stroke-width="0" stroke-linecap="butt"/><path d="M322.62719,243.41886c-0.5401,-0.26474 -0.65606,-1.13605 -0.25899,-1.9462c0.39706,-0.81016 0.67104,-1.08611 1.21114,-0.82142c0.5401,0.26474 0.81905,1.21595 0.42196,2.02607c-0.39706,0.81016 -0.83405,1.00623 -1.37413,0.74152z" fill="#8fbbbe" stroke="none" stroke-width="0" stroke-linecap="butt"/><path d="M315.85213,230.99506c-0.76325,-0.48117 -1.12194,-1.28362 -0.8012,-1.79245c0.32068,-0.5088 0.95983,-0.0423 1.72307,0.43881c0.76325,0.48117 1.36159,0.79462 1.04086,1.30347c-0.32068,0.5088 -1.1995,0.53127 -1.96274,0.05014z" fill="#8fbbbe" stroke="none" stroke-width="0" stroke-linecap="butt"/><path d="M293.40362,223.03173c0,0 10.15125,1.27733 16.78717,4.93579c3.76223,2.07418 6.36206,5.20102 8.30656,7.59375c1.71965,2.11597 3.53557,8.43483 4.42221,13.41601c0.65279,3.66736 0.616,6.6111 0.616,6.6111" fill="none" stroke="#000000" stroke-width="0.5" stroke-linecap="round"/><path d="M325.08426,235.93105c0,0 -5.01452,9.30766 -9.14056,12.79948c-3.47627,2.94195 -13.67608,6.94553 -13.67608,6.94553" fill="none" stroke="#000000" stroke-width="1" stroke-linecap="round"/><path d="M297.93391,251.73273c0,0 4.67917,-8.45774 7.79476,-11.73553c5.47039,-5.75514 15.25502,-9.31017 15.25502,-9.31017" fill="none" stroke="#000000" stroke-width="1" stroke-linecap="round"/></g><g stroke="#000000" stroke-linecap="butt"><path d="M276.78513,240.95148c24.07876,23.05499 22.84487,32.62226 17.24899,38.46662c-5.59588,5.84436 -29.65191,-8.10763 -53.73066,-31.16263c-24.07874,-23.05499 47.88009,-29.17192 53.47597,-35.01628c6.91152,-1.59969 6.16388,4.88403 0.98291,10.7928c-6.38934,7.2869 -20.03537,14.94884 -17.97721,16.9195z" fill="#216aff" stroke-width="2"/><path d="M303.23453,249.54099c10.33521,9.89578 10.48498,26.51187 0.33452,37.11305c-10.15045,10.60118 -26.75738,11.17302 -37.09259,1.27724c-10.33521,-9.89578 -10.48496,-26.51188 -0.33451,-37.11306c10.15046,-10.60119 26.75738,-11.17302 37.09258,-1.27723z" fill="#faddbf" stroke-width="2"/><path d="M267.32365,270.17243c10.33521,9.89578 46.04972,5.00208 35.89927,15.60326c-10.15045,10.60118 -26.75738,11.17302 -37.09258,1.27724c-10.33521,-9.89578 -9.14189,-26.77628 1.19331,-16.88049z" fill="#ef8b89" stroke-width="0"/></g><path d="M290.37425,152.85444c-0.02864,0.24848 -0.09786,0.42151 -0.09786,0.42151c-0.74996,1.83378 -1.53252,4.96857 -0.7435,6.90719c1.47579,3.62601 6.72447,5.32407 5.18343,10.32942c-1.51065,4.90664 -10.35703,5.71942 -13.78933,2.52986c-0.71833,-0.66753 -1.07885,-1.63781 -1.61828,-2.45672c-2.81316,-7.40049 -5.89207,-19.73098 0.81817,-26.23306c2.62665,-2.54517 8.56899,-3.16249 10.63833,0.35985c1.05332,1.79292 0.7545,4.28676 0.30546,6.17479c-0.12197,0.48786 -0.24393,0.97573 -0.3659,1.46359z" fill="#000000" stroke="none" stroke-width="0.5" stroke-linecap="butt"/></g></g></svg>