<svg version="1.1" xmlns="http://www.w3.org/2000/svg" xmlns:xlink="http://www.w3.org/1999/xlink" width="231.81964" height="326.89349" viewBox="0,0,231.81964,326.89349"><g transform="translate(-236.96237,-34.09392)"><g data-paper-data="{&quot;isPaintingLayer&quot;:true}" fill-rule="nonzero" stroke-linecap="butt" stroke-linejoin="miter" stroke-miterlimit="10" stroke-dasharray="" stroke-dashoffset="0" style="mix-blend-mode: normal"><g data-paper-data="{&quot;index&quot;:null}" stroke="#000000"><path d="M351.00914,219.48669c-1.71799,-2.27332 -10.91457,10.38931 -18.89493,15.88809c-6.47108,4.45882 -12.99776,4.44754 -10.60532,-2.23112c6.45534,-4.87841 20.89733,-75.63798 40.99637,-49.04198c20.09904,26.59601 31.15944,52.11108 24.70409,56.98949c-6.45534,4.87841 -16.10119,4.99154 -36.20022,-21.60447z" fill="#216aff" stroke-width="2"/><path d="M362.04643,210.06289c11.70947,-8.84903 28.19545,-6.76836 36.82246,4.64733c8.62701,11.41568 6.12818,27.84349 -5.58129,36.69252c-11.70947,8.84903 -28.19544,6.76835 -36.82245,-4.64733c-8.62701,-11.41568 -6.1282,-27.84348 5.58127,-36.69251z" fill="#faddbf" stroke-width="2"/><path d="M398.0367,214.26431c8.62702,11.41568 6.1282,27.84348 -5.58127,36.69251c-11.70947,8.84903 -2.69647,-26.05429 -11.32348,-37.46997c-8.62703,-11.41569 8.27774,-10.63822 16.90475,0.77746z" fill="#ef8b89" stroke-width="0"/></g><g stroke="#000000"><path d="M327.76518,340.83535v-95.29492h29.49199v95.29492z" fill="#73fffc" stroke-width="2"/><path d="M327.43943,340.21742l1.32626,-93.78573c0,0 5.20288,68.11227 6.3799,77.52842c0.2602,2.08162 2.52228,2.78987 2.52228,2.78987l18.60659,13.13896z" fill="#59a9e6" stroke-width="0"/></g><g stroke="#000000"><path d="M288.4238,338.4128v-95.29492h29.49199v95.29492z" fill="#73fffc" stroke-width="2"/><path d="M288.09805,337.7949l1.32626,-93.78573c0,0 5.20288,68.11227 6.3799,77.52842c0.2602,2.08162 2.52228,2.78987 2.52228,2.78987l18.60659,13.13896z" fill="#59a9e6" stroke-width="0"/></g><g stroke="#000000"><path d="M355.22917,235.69587c0,13.80271 10.04743,36.74388 4.95001,46.45977c-6.2338,11.88187 -28.61241,9.09579 -38.9397,9.09579c-13.66287,0 -32.94407,4.17018 -38.34426,-14.83216c-2.01935,-7.10576 4.35457,-32.37264 4.35457,-40.7234c0,-30.68249 15.2177,-55.55556 33.98969,-55.55556c18.77199,0 33.98969,24.87307 33.98969,55.55556z" fill="#216aff" stroke-width="2"/><path d="M303.96554,251.27245c0,13.80271 62.04198,20.54886 56.94455,30.26474c-6.2338,11.88186 -28.61241,9.09579 -38.9397,9.09579c-13.66287,0 -32.94406,4.17018 -38.34425,-14.83215c-2.01936,-7.10576 4.35457,-32.37265 4.35457,-40.7234c0,-9.45244 3.34855,-28.59801 5.51953,-29.96813c5.94391,-16.76415 10.4653,25.13995 10.4653,46.16315z" fill="#3236f4" stroke-width="0"/></g><g stroke="#000000"><g><path d="M263.13131,122.55058c0,-46.79079 37.93143,-84.72222 84.72222,-84.72222c46.79079,0 84.72222,37.93143 84.72222,84.72222c0,46.79079 -37.93143,84.72222 -84.72222,84.72222c-46.79079,0 -84.72222,-37.93143 -84.72222,-84.72222z" fill="#faddbf" stroke-width="2"/><path d="M263.36208,121.68107c0,-15.05428 8.65728,-41.01117 13.16632,-44.22534c0.51494,-0.36707 5.78642,-8.91029 13.30693,-15.62682c9.34748,-8.34819 21.31473,-15.15641 21.9255,-14.95935c7.96872,2.57101 -17.52654,64.85492 -16.28763,90.14485c0.00295,0.06031 4.40745,19.70158 6.02593,20.14049c2.8855,4.74247 9.11092,19.15337 19.99223,26.29351c20.2786,13.30648 48.94186,19.68013 47.45857,20.18586c-2.37273,0.80898 -14.80271,2.76903 -20.86562,2.76903c-46.79079,0 -84.72222,-37.93143 -84.72222,-84.72222z" fill="#ef8b89" stroke-width="0"/><path d="M432.05231,122.09238c0,11.62434 -1.57787,15.64071 -2.12992,13.78899c-0.5632,-1.8891 -0.18668,-9.81362 -9.04258,-14.64925c-2.14596,-1.17177 -10.20624,6.27605 -12.93385,5.04791c-1.71325,-0.77142 -8.65215,-10.17554 -10.56583,-10.85157c-1.33801,-0.47267 -12.45011,8.37757 -13.84965,7.92692c-3.49052,-1.12394 -11.98851,-11.37355 -15.73972,-12.03156c-2.06568,-0.36235 -9.2828,11.84977 -11.39182,11.59592c-2.71985,-0.32737 -10.06862,-12.06843 -12.80601,-12.06843c-7.27985,0 -7.47978,7.01079 -12.7176,13.01701c-3.40366,3.90299 -13.98842,-13.05188 -17.11223,-8.61668c-3.87941,5.50799 -7.71992,10.81771 -11.96095,14.41734c-3.32724,2.82405 -13.36416,-10.09687 -16.24015,-7.47909c-13.88607,12.63935 -22.22353,20.64372 -22.22353,2.47189c0,-36.54015 43.28764,-8.21349 85.0704,-29.73523c39.99404,-20.60039 83.64345,-9.37431 83.64345,27.16584z" fill="#ef8b89" stroke-width="0"/></g><path d="M433.58618,113.78149c0,23.48334 6.5317,8.71531 -11.46679,-0.86026c-2.20249,-1.17177 -10.47508,6.27605 -13.27454,5.04791c-1.75838,-0.77142 -8.88005,-10.17554 -10.84414,-10.85157c-1.37326,-0.47267 -12.77806,8.37757 -14.21446,7.92692c-3.58246,-1.12394 -12.30429,-11.37355 -16.15431,-12.03156c-2.12009,-0.36235 -9.52731,11.84977 -11.69189,11.59592c-2.79149,-0.32737 -10.33384,-12.06843 -13.14333,-12.06843c-7.47161,0 -7.6768,7.01079 -13.05259,13.01701c-3.49332,3.90299 -14.35688,-13.05188 -17.56298,-8.61668c-3.98159,5.50799 -7.92327,10.81771 -12.276,14.41734c-3.41488,2.82405 -13.71618,-10.09687 -16.66792,-7.47909c-14.25184,12.63935 -22.80892,20.64372 -22.80892,2.47189c0,-36.54015 39.86264,-81.25697 85.78948,-81.25697c45.92683,0 87.36842,42.14743 87.36842,78.68758z" fill="#724e36" stroke-width="2"/><path d="M433.33845,112.6187c0,23.48334 6.5317,8.71531 -11.46679,-0.86026c-2.20249,-1.17177 -10.47508,6.27605 -13.27454,5.04791c-1.75838,-0.77142 -8.88005,-10.17554 -10.84415,-10.85157c-1.37326,-0.47267 -12.77806,8.37757 -14.21446,7.92692c-3.58246,-1.12394 -12.30429,-11.37355 -16.15431,-12.03156c-2.12009,-0.36235 -9.52731,11.84977 -11.69189,11.59592c-2.79149,-0.32737 -10.33384,-12.06843 -13.14333,-12.06843c-7.47161,0 -7.6768,7.01079 -13.05259,13.01701c-3.49332,3.90299 -14.35688,-13.05188 -17.56298,-8.61668c-3.98159,5.50799 -7.92327,10.81771 -12.27601,14.41734c-3.41488,2.82405 -13.71618,-10.09687 -16.66792,-7.47909c-14.25184,12.63935 -22.80892,20.64372 -22.80892,2.47189c0,-36.54015 44.42786,-8.21349 87.31121,-29.73523c41.04751,-20.60039 85.84668,-9.37431 85.84668,27.16584z" fill="#623728" stroke-width="0"/></g><g stroke="#000000"><path d="M366.68865,145.45294c0,28.55894 -13.1683,43.28947 -29.73684,43.28947c-16.56854,0 -30.26316,-14.73054 -30.26316,-43.28947c0,-28.55894 13.43146,-51.71053 30,-51.71053c16.56854,0 30,23.15159 30,51.71053z" fill="#f0f0f0" stroke-width="2"/><path d="M319.93292,125.87054c-4.30259,28.23297 34.22345,62.0416 17.65491,62.0416c-16.56854,0 -30.26316,-14.73054 -30.26316,-43.28947c0,-28.55894 18.82852,-59.56866 12.60825,-18.75213z" fill="#9a99ff" stroke-width="0"/></g><path d="M362.79422,153.68619c0,15.82221 -4.68891,28.64865 -10.47297,28.64865c-5.78406,0 -10.47297,-12.82644 -10.47297,-28.64865c0,-15.82221 4.68891,-28.64865 10.47297,-28.64865c5.78406,0 10.47297,12.82644 10.47297,28.64865z" fill="#000000" stroke="none" stroke-width="0"/><g stroke="#000000"><path d="M361.67935,115.41826c4.45946,10.22981 -9.89785,14.12162 -25.60811,14.12162c-15.71026,0 -27.17995,-4.64154 -22.63514,-14.25676c4.32432,-9.14873 6.78974,-21.41892 22.5,-21.41892c15.71026,0 21.49332,11.80491 25.74324,21.55405z" fill="#a100fe" stroke-width="2"/><path d="M360.75508,115.06401c4.3074,10.22981 -9.56036,14.12162 -24.73494,14.12162c-15.17458,0 -26.25318,-4.64154 -21.86334,-14.25676c4.17687,-9.14873 6.55823,0.96203 21.73281,0.96203c15.17458,0 20.76045,-10.57604 24.86546,-0.8269z" fill="#99008e" stroke-width="0"/></g><g data-paper-data="{&quot;index&quot;:null}" stroke="#000000"><path d="M400.41533,92.26378c16.56854,0 30,23.15159 30,51.71053c0,28.55893 -13.69462,43.28947 -30.26316,43.28947c-16.56854,0 -29.73684,-14.73053 -29.73684,-43.28947c0,-28.55894 13.43146,-51.71053 30,-51.71053z" fill="#f0f0f0" stroke-width="2"/><path d="M429.77931,143.14404c0,28.55893 -13.69462,43.28947 -30.26316,43.28947c-16.56854,0 21.9575,-33.80863 17.65491,-62.0416c-6.22027,-40.81653 12.60825,-9.80681 12.60825,18.75213z" fill="#9a99ff" stroke-width="0"/></g><path d="M416.14295,124.8661c5.78406,0 10.47297,12.82644 10.47297,28.64865c0,15.82221 -4.68891,28.64865 -10.47297,28.64865c-5.78406,0 -10.47297,-12.82644 -10.47297,-28.64865c0,-15.82221 4.68891,-28.64865 10.47297,-28.64865z" data-paper-data="{&quot;index&quot;:null}" fill="#000000" stroke="none" stroke-width="0"/><g data-paper-data="{&quot;index&quot;:null}" stroke="#000000"><path d="M375.42464,113.9396c4.24992,-9.74914 10.03298,-21.55405 25.74324,-21.55405c15.71026,0 18.17568,12.27019 22.5,21.41892c4.54481,9.61522 -6.92488,14.25676 -22.63514,14.25676c-15.71026,0 -30.06757,-3.89181 -25.60811,-14.12162z" fill="#a100fe" stroke-width="2"/><path d="M376.34891,113.58536c4.10501,-9.74914 9.69088,0.8269 24.86546,0.8269c15.17458,0 17.55594,-10.11076 21.73281,-0.96203c4.38984,9.61522 -6.68876,14.25676 -21.86334,14.25676c-15.17458,0 -29.04234,-3.89181 -24.73494,-14.12162z" fill="#99008e" stroke-width="0"/></g><path d="M391.63632,338.87004c0,11.6628 -14.51982,21.11737 -32.43092,21.11737c-17.9111,0 -32.43092,-9.45457 -32.43092,-21.11737c0,-2.33142 -0.03339,-13.76009 1.08979,-15.13837c4.49546,-5.51647 17.81784,5.26144 32.14847,5.26144c17.9111,0 31.62358,-1.78588 31.62358,9.87692z" fill="#000082" stroke="#000000" stroke-width="2"/><path d="M389.75004,336.13774c0,6.30841 -13.89058,10.1901 -31.80169,10.1901c-17.9111,0 -30.16566,-2.95748 -30.16566,-9.26589c0,-1.26107 -0.03338,-12.52602 1.0898,-13.27153c4.49546,-2.98386 15.55258,5.7726 29.88321,5.7726c17.9111,0 30.99434,0.26631 30.99434,6.57472z" fill="#2e0048" stroke="#000000" stroke-width="0"/><path d="M348.64938,338.22521c0,11.6628 -14.51982,21.11737 -32.43092,21.11737c-17.9111,0 -32.43092,-9.45457 -32.43092,-21.11737c0,-2.33142 -0.03339,-13.76009 1.08979,-15.13837c4.49546,-5.51647 17.81784,5.26144 32.14847,5.26144c17.9111,0 31.62358,-1.78588 31.62358,9.87692z" fill="#000082" stroke="#000000" stroke-width="2"/><path d="M346.7631,335.49289c0,6.30841 -13.89058,10.1901 -31.80169,10.1901c-17.9111,0 -30.16566,-2.95748 -30.16566,-9.26589c0,-1.26107 -0.03338,-12.52602 1.0898,-13.27153c4.49546,-2.98386 15.55258,5.7726 29.88321,5.7726c17.9111,0 30.99434,0.26631 30.99434,6.57472z" fill="#2e0048" stroke="#000000" stroke-width="0"/><path d="M309.45038,175.47962c0.88389,0.88388 0,1.76777 0,1.76777l-0.10679,0.01608c-1.2788,2.55528 -2.42369,5.35669 -5.18362,6.70671c-2.86133,1.39962 -6.70807,0.39213 -7.39279,-2.95132c-0.91815,-4.48325 3.38672,-8.92927 5.43491,-12.4451c0,0 0.62983,-1.07972 1.70956,-0.44988c1.07972,0.62984 0.44989,1.70956 0.44989,1.70956c-1.73146,2.96449 -5.71652,6.9665 -5.13448,10.73935c0.26012,1.68612 2.58099,1.80161 3.85848,1.14005c2.1741,-1.12589 3.00686,-3.53543 4.02197,-5.56741l0.5751,-0.66581c0,0 0.88388,-0.88388 1.76776,0z" fill="#000000" stroke="none" stroke-width="0.5"/><g stroke="none" stroke-width="1"><path d="M463.35726,291.80208c-2.87044,0.34671 -5.84527,0.60465 -8.70732,1.04829c-6.97158,0.99564 -14.03913,1.9994 -21.01073,2.99485c-5.54057,0.77372 -11.17708,1.55577 -16.71765,2.32949c-9.36223,1.30056 -18.72446,2.60113 -28.07826,3.9988c-7.35544,1.02873 -14.6065,2.14625 -21.9535,3.27228c-6.20389,0.92889 -12.51215,1.76917 -18.71605,2.69806c-9.84204,1.34216 -19.67566,2.78145 -29.51769,4.12361c-8.12312,1.09548 -16.35063,2.10216 -24.48218,3.10034c-2.67853,0.33008 -5.46142,0.57137 -8.23591,0.90976c-0.95961,0.0832 -1.75256,-0.14138 -2.49161,-0.85948c-0.31314,-0.26619 -0.53029,-0.5407 -0.84343,-0.80689c-2.52185,-2.32336 -4.76421,-4.76858 -7.09415,-7.10877c-6.15476,-6.31021 -12.39706,-12.51498 -18.55184,-18.82538c-2.45112,-2.62282 -4.9898,-5.14021 -7.34496,-7.77135c-3.31979,-3.72067 -6.63116,-7.3444 -10.0385,-10.95983c-0.95619,-0.9924 -1.61612,-1.91304 -1.06217,-3.32973c0.15826,-0.40491 0.02023,-0.88177 0.07413,-1.37528c0.0928,-4.50537 0.47345,-9.03591 0.95849,-13.47765c0.37726,-3.45454 0.48164,-3.36594 3.8942,-4.15065c4.73922,-1.09523 9.50368,-1.89931 14.26812,-2.70358c7.43456,-1.23127 14.77318,-2.45403 22.11177,-3.67699c7.3386,-1.22296 14.77318,-2.45404 22.11179,-3.677c4.66848,-0.79595 9.44136,-1.50292 14.10985,-2.29887c2.09434,-0.37708 4.09273,-0.74585 6.19547,-1.026c3.43781,-0.49357 6.88404,-0.89021 10.30502,-1.5778c4.56412,-0.88456 9.0491,-1.56675 13.62162,-2.35439c6.00355,-1.00935 12.10306,-2.02704 18.21099,-2.94759c7.05912,-1.10107 14.11825,-2.20196 21.17738,-3.30283c4.38901,-0.67387 8.88242,-1.25897 13.27144,-1.93284c4.485,-0.68201 8.95313,-1.55843 13.43813,-2.24044c5.06075,-0.73211 10.21747,-1.47257 15.27822,-2.20469c1.05559,-0.09152 2.11116,-0.18305 3.16675,-0.27457c1.73574,-0.05265 3.03372,0.4213 4.04883,2.09312c1.93427,3.35216 4.15639,6.67916 6.28256,10.01448c1.80463,2.97221 3.88874,5.82234 5.69338,8.79456c2.93253,4.82975 5.76068,9.5709 8.78075,14.29521c4.14797,6.58205 8.11243,13.27765 12.16444,19.86801c0.56395,0.92877 0.92756,1.77726 0.92416,2.85306c0.05207,2.83082 0.09573,5.56454 0.1478,8.39537c0.06731,0.77633 0.03866,1.56099 -0.08596,2.35396c-0.24083,1.68287 0.015,3.51837 -1.10631,5.08209c-1.51856,0.32735 -2.94958,0.54907 -4.19709,0.65723zM463.18239,286.4399c-3.5083,-4.77983 -6.73713,-9.68173 -9.96595,-14.58345c-2.54368,-3.69031 -4.90384,-7.49417 -7.35998,-11.28991c-3.13287,-4.91023 -6.16137,-9.73165 -9.28582,-14.54477c-1.77097,-2.58395 -3.63791,-5.15958 -5.4089,-7.74372c-1.6566,-0.1497 -8.25275,0.71554 -10.99358,1.44201c-0.16668,0.30779 -0.04547,0.59062 0.17169,0.86513c2.63964,3.68199 4.8163,7.59961 7.27242,11.39515c1.11948,1.76061 2.60598,3.29373 3.54197,5.16809c0.24239,0.56546 0.58076,1.1228 0.82317,1.68846c0.3552,0.75137 0.11778,1.35843 -0.52029,1.80494c-0.45457,0.33275 -1.01352,0.5767 -1.68525,0.63495c-5.13989,0.93448 -10.27977,1.86895 -15.43649,2.60939c-6.39582,0.94552 -12.68725,1.97984 -19.00392,2.72321c-4.30989,0.47133 -8.49856,1.22568 -12.79162,1.89124c-4.86884,0.71529 -9.73768,1.43076 -14.6149,2.04932c-5.45302,0.66829 -10.81008,1.32826 -16.25469,2.09366c-3.2543,0.38 -6.58774,0.96216 -9.83362,1.43928c-4.30147,0.56845 -8.49856,1.22568 -12.80004,1.79413c-6.40422,0.8486 -12.80845,1.69721 -19.21269,2.54561c-5.92441,0.807 -11.96159,1.42828 -17.88602,2.23529c-4.29305,0.66556 -8.68207,1.33943 -12.97514,2.0048c-0.37543,0.13039 -0.75928,0.16369 -1.14313,0.19696c-1.61454,0.33548 -2.729,-0.25222 -3.89397,-1.42222c-4.42585,-4.21144 -8.50152,-8.84442 -12.74385,-13.16943c-2.75586,-2.79209 -2.75586,-2.79209 -6.46472,-2.07934c-3.99677,0.73752 -7.99351,1.47524 -11.98185,2.30986c-0.38385,0.03328 -0.75928,0.16367 -1.0051,0.67383c1.28617,1.45283 2.58074,3.00257 3.96287,4.44708c7.15304,7.78799 14.48119,15.36531 21.98442,22.73195c5.19014,5.22068 10.46782,10.33593 15.48287,15.76729c0.74745,0.81502 1.58246,1.52479 2.32151,2.24289c2.13641,0.1081 4.02201,-0.44637 6.02879,-0.71821c5.74091,-0.69325 11.47338,-1.48362 17.20588,-2.27397c5.4446,-0.7654 10.80166,-1.42537 16.24626,-2.19077c4.68532,-0.60173 9.28309,-1.09821 13.95999,-1.79705c8.58613,-1.33093 17.17223,-2.66204 25.76676,-3.89604c4.20551,-0.56013 8.41102,-1.12026 12.60811,-1.77749c6.77965,-0.979 13.64686,-2.06324 20.52249,-3.05036c3.91761,-0.53536 7.74769,-0.96508 11.65689,-1.59737c9.25784,-1.38937 18.41973,-2.77039 27.70283,-3.86842c6.60455,-0.76832 13.10475,-1.62505 19.70089,-2.4903c2.67853,-0.33008 5.34865,-0.75708 8.21068,-1.20071c-0.39727,-1.23656 -1.23228,-1.94633 -1.90902,-3.06101zM301.04773,276.44606c-2.1464,-2.45355 -4.18846,-4.8187 -6.32645,-7.17534c-0.62624,-0.53218 -1.26093,-1.16167 -0.96961,-2.26225c1.20543,-0.59354 2.55732,-0.61291 3.80483,-0.72107c0.57577,-0.04992 0.99328,0.30506 1.41078,0.65985c1.06899,1.17831 2.23396,2.34832 3.30296,3.52664c1.18179,1.36404 2.38041,2.92228 3.5622,4.28632c0.63466,0.6293 1.26934,1.25879 1.90401,1.88809c0.79294,0.22459 1.46467,0.16635 2.11116,-0.18305c-0.05049,-0.5823 -0.4764,-1.0342 -0.79794,-1.39731c-2.138,-2.35663 -4.17163,-4.62467 -6.21367,-6.98962c-0.5387,-0.63762 -1.16497,-1.16999 -0.96963,-2.26243c1.19704,-0.69027 2.65329,-0.62104 3.99676,-0.73753c0.67173,-0.05824 1.00169,0.40198 1.41921,0.75697c1.16497,1.17 2.32992,2.33999 3.41575,3.71235c1.51174,1.82426 3.03189,3.74563 4.72716,5.45633c0.73062,0.62098 1.4192,0.75697 2.2492,0.29382c0.24583,-0.51015 -0.16327,-0.76802 -0.38044,-1.04253c-2.05044,-2.46187 -4.20527,-5.01273 -6.25571,-7.4746c-0.53872,-0.63781 -1.17339,-1.26711 -1.16998,-2.34292c1.26775,-0.98973 2.72402,-0.92052 4.27623,-0.8596c0.58419,0.04719 0.92254,0.60434 1.34006,0.95932c1.79123,1.70237 3.207,3.53495 4.72716,5.45633c1.19861,1.55807 2.49319,3.108 3.79618,4.75487c2.19871,-0.28847 4.29306,-0.66556 6.39582,-0.94553c0.34177,-0.51865 -0.08415,-0.97056 -0.3013,-1.24488c-1.29459,-1.54995 -2.67672,-2.99444 -3.97129,-4.54419c-0.96463,-1.08972 -1.92925,-2.17923 -2.89389,-3.26895c-0.42592,-0.45191 -0.76427,-1.00905 -0.63965,-1.80203c1.1802,-0.8845 2.63645,-0.81527 4.08431,-0.84296c0.47981,-0.0416 0.80976,0.41863 1.12289,0.68482c1.26093,1.16167 2.43429,2.4286 3.51171,3.70402c1.73732,2.19588 3.37869,4.40007 5.57056,6.26301c0.68016,0.03887 1.26435,0.08606 1.90242,-0.36045c-0.05047,-0.5821 -0.37201,-0.94541 -0.70197,-1.40563c-1.39895,-1.63854 -2.7895,-3.18015 -4.18004,-4.72159c-0.85183,-0.90381 -1.71209,-1.90474 -2.46796,-2.81686c-0.32156,-0.3633 -0.53871,-0.63781 -0.66832,-1.01756c-0.11278,-0.18572 -0.13803,-0.47686 -0.16327,-0.76801c1.26774,-0.98994 2.82838,-0.83191 4.36377,-0.96503c1.74916,1.21719 3.13969,2.75862 4.44269,4.40567c1.7373,2.19568 3.47464,4.39156 5.57057,6.26301c1.93606,0.02764 6.03721,-0.62109 7.63491,-1.15079c0.15827,-0.40471 -0.15486,-0.67091 -0.37202,-0.94542c-1.60771,-1.81594 -3.31978,-3.72067 -4.9275,-5.53679c-0.64309,-0.72641 -1.28617,-1.45284 -1.93766,-2.27616c-0.42592,-0.45191 -0.65991,-0.92045 -0.52689,-1.6165c1.1802,-0.8845 2.63647,-0.81507 4.08431,-0.84295c0.47981,-0.0416 0.80976,0.41862 1.1229,0.68481c1.15656,1.07308 2.22557,2.25139 3.30296,3.52664c1.29459,1.54995 2.48479,3.01108 3.77094,4.46372c0.32998,0.46041 0.85185,0.904 1.27777,1.35591c0.74745,0.81502 1.6027,0.64321 2.51184,-0.02229c-1.12788,-1.85754 -2.71037,-3.38252 -4.10932,-5.02105c-1.39895,-1.63854 -3.06897,-3.05809 -4.02177,-5.12649c1.45127,-1.1035 2.90752,-1.03426 4.45976,-0.97315c0.39225,0.06364 0.81816,0.51555 1.13129,0.78173c1.15656,1.07308 2.22556,2.25139 3.30296,3.52663c1.19021,1.46115 2.37198,2.82518 3.5622,4.28632c0.42592,0.45191 0.85184,0.90401 1.27777,1.35591c0.65149,0.82333 1.42761,0.85389 2.2576,0.39074c0.24583,-0.51015 0.02025,-0.88158 -0.3013,-1.24488c-1.39895,-1.63854 -2.78949,-3.17996 -4.18004,-4.72159c-0.96462,-1.08953 -1.92083,-2.08213 -2.78948,-3.17997c-0.5303,-0.5407 -0.5303,-0.5407 -0.55213,-1.90764c1.1179,-0.48791 2.38222,-0.40205 3.62132,-0.60732c0.67173,-0.05824 1.18521,0.28842 1.61113,0.74033c1.26093,1.16167 2.43431,2.42878 3.51171,3.70402c1.73732,2.19588 3.47466,4.39175 5.67497,6.352c2.51184,-0.02228 5.06916,-0.63519 7.54735,-1.04556c0.02866,-0.78465 -0.38884,-1.13944 -0.71879,-1.59966c-1.39897,-1.63874 -2.78951,-3.18015 -4.18005,-4.72178c-0.85183,-0.90381 -1.71208,-1.90473 -2.46795,-2.81686c-0.32996,-0.46022 -0.7643,-1.00924 -0.63968,-1.80221c1.18022,-0.88431 2.63647,-0.81507 4.08431,-0.84295c0.47981,-0.0416 0.80976,0.41862 1.1229,0.68481c1.26093,1.16167 2.42588,2.33168 3.51172,3.70421c1.7289,2.09876 3.37868,4.39988 5.57057,6.26302c0.58419,0.04719 1.27275,0.18298 1.91084,-0.26333c-0.05049,-0.5823 -0.37202,-0.9454 -0.70199,-1.40583c-1.39895,-1.63854 -2.78948,-3.17997 -4.18003,-4.7216c-0.85183,-0.90381 -1.71208,-1.90472 -2.46795,-2.81685c-0.42592,-0.45191 -0.7643,-1.00924 -0.73564,-1.7939c1.26775,-0.98973 2.72402,-0.92051 4.27624,-0.85959c0.39228,0.06383 0.81818,0.51573 1.13132,0.78192c1.34847,1.05624 2.42589,2.33168 3.51171,3.70402c1.73732,2.19588 3.47466,4.39175 5.67495,6.35181c1.72732,-0.14976 3.54219,-0.40478 5.35706,-0.65997c0.22058,-0.80129 -0.20534,-1.25319 -0.63125,-1.7051c-1.39053,-1.54142 -2.77266,-2.98593 -4.06725,-4.53588c-0.96462,-1.08953 -1.92083,-2.08212 -2.78948,-3.17997c-0.32998,-0.46041 -0.76429,-1.00924 -0.44775,-1.81885c1.20544,-0.59335 2.66169,-0.52411 4.00517,-0.6406c0.57577,-0.04992 1.00168,0.40198 1.32324,0.76528c1.16497,1.17 2.23396,2.34831 3.31136,3.62356c1.92925,2.17923 3.57904,4.48055 5.77933,6.44061c0.5926,0.14411 1.15997,-0.00273 1.72732,-0.14976c0.07914,-0.20235 0.15828,-0.40472 0.14985,-0.50183c-0.14645,-0.57397 -0.56395,-0.92877 -0.8939,-1.38899c-2.138,-2.35663 -4.17162,-4.62466 -6.21367,-6.98962c-0.5387,-0.63762 -1.16497,-1.17 -0.96963,-2.26244c1.19704,-0.69027 2.6533,-0.62103 3.99677,-0.73752c0.57577,-0.04992 1.00168,0.40199 1.32322,0.7651c1.16497,1.17 2.23398,2.3485 3.31137,3.62375c1.92083,2.08212 3.57902,4.48035 5.77091,6.34349c0.49665,0.15263 1.07242,0.1027 1.527,-0.23005c0.2374,-0.60726 -0.10098,-1.16459 -0.52689,-1.6165c-1.28617,-1.45283 -2.57232,-2.90546 -3.85848,-4.35828c-0.95621,-0.9926 -1.82489,-2.09064 -2.78108,-3.08305c-0.5303,-0.5407 -0.86867,-1.09804 -0.75246,-1.98793c1.09264,-0.77925 2.54891,-0.70983 3.89239,-0.82631c0.67173,-0.05824 1.00168,0.40199 1.41918,0.75677c1.26093,1.16167 2.42589,2.33168 3.51171,3.70402c1.72892,2.09896 3.47466,4.39175 5.66655,6.25489c1.33505,-0.2136 2.77449,-0.3384 4.28465,-0.76248c-0.07573,-0.87345 -0.62285,-1.60818 -1.06559,-2.25412c-3.43758,-5.0793 -6.96272,-10.05335 -10.49627,-15.12432c-2.99165,0.06389 -5.82845,0.79868 -8.69048,1.24251c-3.14993,0.46861 -6.3874,1.04263 -9.52892,1.60816c-5.53215,0.87083 -11.05589,1.8386 -16.58802,2.70944c-3.53378,0.50189 -7.16351,1.01208 -10.68887,1.61108c-5.82005,0.8956 -11.53571,1.88 -17.35574,2.7758c-3.52536,0.599 -6.96317,1.09256 -10.49695,1.59445c-2.95801,0.45196 -5.90759,1.00103 -8.86557,1.45319c-3.23749,0.57385 -6.57933,1.05928 -9.82522,1.5362c-3.91763,0.53516 -7.73087,1.15913 -11.64008,1.7914c-6.29144,1.03432 -12.58287,2.06864 -18.87431,3.10296c-5.42777,0.95943 -10.76799,1.81364 -16.20419,2.67596c-3.81324,0.62395 -7.63491,1.1508 -11.44816,1.77475c-1.23909,0.20527 -2.48659,0.31344 -3.70045,0.80967c0.05889,0.67923 0.38887,1.13964 0.80636,1.49442c3.02691,2.5729 5.43256,5.78635 8.18839,8.57824c1.05217,0.98428 2.11276,2.06548 3.07737,3.155c0.63468,0.62949 1.2441,0.96764 2.08251,0.60161c0.75087,-0.2606 1.51857,-0.32716 2.18189,-0.48251c0.05389,-0.49351 -0.17167,-0.86494 -0.38884,-1.13944c-1.39053,-1.54142 -2.77266,-2.98593 -4.06725,-4.53587c-0.96462,-1.08953 -1.92083,-2.08212 -2.78948,-3.17997c-0.32998,-0.46041 -0.75589,-0.91232 -0.54372,-1.81053c1.20544,-0.59335 2.65328,-0.62122 4.10113,-0.64892c0.47981,-0.0416 0.80134,0.32151 1.1229,0.68481c1.06057,1.0812 2.21714,2.15428 3.19017,3.34091c1.8417,2.28448 3.6834,4.56915 5.99648,6.71492c0.68857,0.13599 1.54381,-0.03602 2.39065,-0.30493c0.04547,-0.59062 -0.26765,-0.85681 -0.48483,-1.13132c-1.59929,-1.71882 -3.20699,-3.53495 -4.8147,-5.35089c-0.85183,-0.90381 -1.71209,-1.90473 -2.46796,-2.81685c-0.42592,-0.45191 -0.43433,-0.54902 -0.54371,-1.81054c1.20544,-0.59335 2.6617,-0.52411 4.00517,-0.6406c0.57577,-0.04992 1.00168,0.40199 1.32324,0.76529c1.16497,1.17 2.32992,2.33999 3.31136,3.62354c1.52858,2.01848 3.32821,3.81778 5.04028,5.72251c0.64309,0.72641 1.34006,0.95932 2.29128,0.7792c1.04716,-0.18863 2.1987,-0.28848 3.24588,-0.47712c0.03707,-0.68754 -0.1801,-0.96205 0.20376,-0.99532zM418.71034,237.40231c1.10607,0.49078 2.24078,0.19671 3.18357,-0.08053c2.36541,-0.59608 4.68532,-0.60173 7.06755,-1.00376c0.28789,-0.02496 0.57576,-0.04992 1.05558,-0.09152c0.34859,-2.67007 0.30495,-5.40379 0.46162,-8.05722c0.14827,-2.75035 0.49686,-5.42043 0.73268,-8.27621c-1.25593,0.01105 -2.22396,-0.00267 -3.18357,0.08054c-4.03041,0.34945 -8.02718,1.08697 -12.02392,1.82468c-0.75929,0.16348 -1.62295,0.23836 -2.48661,0.31325c-2.96641,0.35504 -6.00356,1.00935 -9.0575,1.46983c-2.28627,0.39372 -4.58093,0.69052 -6.8672,1.08424c-4.18869,0.75416 -8.38578,1.4114 -12.67884,2.07696c-3.91763,0.53516 -7.92279,1.17577 -11.82358,1.90515c-2.95801,0.45196 -5.94965,0.51585 -8.86559,1.453c-0.19192,0.01664 -0.28788,0.02496 -0.47981,0.0416c-3.7257,0.51853 -7.35545,1.02872 -10.98516,1.53911c-2.95801,0.45196 -6.00355,1.00935 -9.04909,1.56675c-0.19192,0.01664 -0.28788,0.02496 -0.47981,0.0416c-3.62974,0.51021 -7.36387,0.93162 -10.98519,1.53893c-2.76608,0.43532 -5.42777,0.95943 -8.19384,1.39495c-0.37545,0.13021 -0.66333,0.15516 -0.95122,0.18013c-3.91763,0.53516 -7.84366,0.9734 -11.64848,1.69448c-2.08594,0.474 -4.21393,0.46301 -6.27461,1.22835c-0.18352,0.11356 -0.47141,0.13852 -0.66333,0.15516c-3.05395,0.46048 -6.11633,0.82364 -9.16188,1.38104c-2.75766,0.53243 -5.61971,0.97608 -8.38579,1.4114c-4.01357,0.54368 -8.01034,1.2812 -12.0155,1.9218c-4.29305,0.66556 -8.66524,1.53348 -12.97512,2.005c-3.25431,0.37981 -6.47496,1.14788 -9.71243,1.72193c-3.04554,0.5574 -6.18706,1.12311 -9.2242,1.77743c-0.37543,0.13039 -0.75085,0.26079 -1.21384,0.49643c-0.23241,1.77998 -0.65673,3.5766 -0.68879,5.43707c-0.04048,1.76334 -0.36884,3.55165 -0.40932,5.31499c-0.03206,1.86045 -0.45639,3.65708 -0.28812,5.59782c1.08083,0.19963 2.02362,-0.07762 2.97483,-0.25792c2.27786,-0.49065 4.66009,-0.89288 6.92953,-1.48063c2.08592,-0.47419 4.28463,-0.76267 6.38739,-1.04264c0.67173,-0.05824 1.32664,-0.31051 2.07751,-0.5713c0.31654,-0.80961 0.32837,-1.78831 0.44459,-2.67821c0.15327,-1.57763 0.30653,-3.15525 0.56418,-4.64409c0.20374,-0.99553 0.72062,-1.72466 1.76779,-1.9133c0.47141,-0.13853 0.83843,-0.36584 1.31824,-0.40744c1.91924,-0.16641 3.82164,-0.52703 5.72407,-0.88748c3.71728,-0.61563 7.36384,-0.93181 10.97675,-1.63605c2.94116,-0.64619 5.92441,-0.807 8.86557,-1.45319c2.18191,-0.48232 4.38903,-0.67368 6.57932,-1.05927c3.14993,-0.46861 6.29144,-1.03432 9.32858,-1.68864c0.19192,-0.01664 0.28788,-0.02496 0.47981,-0.0416c3.7257,-0.51853 7.36385,-0.9318 10.97675,-1.63624c2.56575,-0.51561 5.17355,-0.54621 7.71404,-1.35316c0.38385,-0.03328 0.67173,-0.05824 0.95963,-0.08321c3.55902,-0.21073 7.06755,-1.00376 10.49695,-1.59444c2.94958,-0.54908 6.14158,-0.53249 9.0575,-1.46983c0.37545,-0.13021 0.66333,-0.15517 0.95122,-0.18013c3.53378,-0.50189 7.07596,-0.90684 10.49695,-1.59444c2.56574,-0.51579 5.18196,-0.44929 7.71403,-1.35335c0.19192,-0.01664 0.4798,-0.0416 0.67173,-0.05824c3.53378,-0.50189 7.17192,-0.91517 10.6973,-1.51398c5.34022,-0.85419 10.57607,-1.79699 15.91629,-2.65118c2.95801,-0.45196 5.82847,-0.7985 8.68209,-1.33924c2.8452,-0.63787 5.74091,-0.69324 8.56928,-1.52516c0.19192,-0.01664 0.28788,-0.02496 0.47981,-0.0416c3.14993,-0.46861 6.20387,-0.92908 9.35381,-1.39768c0.38385,-0.03328 0.7677,-0.06656 1.24751,-0.10816c0.45275,2.99158 -0.4632,5.80869 -0.13166,8.51744zM416.8334,232.48103c-1.91084,0.26332 -3.91763,0.53516 -5.82846,0.79868c-3.04556,0.55721 -6.09111,1.1146 -9.14505,1.57508c-5.24427,0.84568 -10.49695,1.59444 -15.74122,2.44011c-5.05234,0.82924 -10.00872,1.64996 -15.06104,2.4792c-2.76608,0.43532 -5.62811,0.87896 -8.3942,1.31429c-5.90758,1.00122 -11.81516,2.00227 -17.73117,2.9062c-2.95801,0.45196 -5.91599,0.90411 -8.87399,1.35608c-5.14831,0.83736 -10.29661,1.67491 -15.44492,2.51228c-2.67011,0.427 -5.34023,0.85419 -8.01034,1.28119c-5.81163,0.99272 -11.52729,1.97712 -17.34732,2.87291c-5.05234,0.82904 -10.20906,1.56949 -15.2614,2.39853c-5.05234,0.82924 -10.20065,1.66659 -15.25297,2.49583c-0.19192,0.01664 -0.37544,0.13021 -0.75087,0.2606c-0.19874,2.16825 -0.58942,4.35294 -0.57941,6.69858c1.54381,-0.03602 2.87887,-0.2496 4.21391,-0.4632c3.90922,-0.63208 7.9144,-1.27269 11.8236,-1.90496c6.86721,-1.08424 13.82196,-2.27391 20.68075,-3.45526c6.00355,-1.00935 12.01553,-1.9216 18.01907,-2.93096c6.86721,-1.08424 13.63845,-2.16016 20.50564,-3.24459c3.23749,-0.57385 6.57933,-1.05928 9.82522,-1.5362c5.34023,-0.854 10.58449,-1.69987 15.92473,-2.55388c3.14992,-0.4688 6.20387,-0.92908 9.35381,-1.39768c4.10113,-0.64892 8.29822,-1.30616 12.49531,-1.96339c6.86721,-1.08424 13.63846,-2.16016 20.50567,-3.2444c2.76608,-0.43532 5.4362,-0.86232 8.20226,-1.29784c0.66333,-0.15516 1.31824,-0.40745 2.07753,-0.57112c-0.59419,-2.39264 0.1012,-4.40845 -0.20511,-6.82606zM466.00238,285.51107c0.13143,-2.94458 0.26287,-5.88898 0.39431,-8.83355c0.13645,-1.77166 -0.57396,-3.27441 -1.38872,-4.86577c-2.54867,-4.86303 -5.74387,-9.37686 -8.47605,-14.12614c-1.47469,-2.51199 -3.13287,-4.91023 -4.79948,-7.40557c-4.22709,-6.37949 -8.27071,-12.87294 -12.22674,-19.47143c-1.69185,-2.7865 -3.47125,-5.46756 -5.16308,-8.25386c-0.20876,-0.17759 -0.42591,-0.45191 -0.74747,-0.81521c-0.32496,0.7125 -0.47481,1.21432 -0.5203,1.80494c-0.19375,3.34097 -0.18715,6.76242 -0.6772,10.03124c-0.2947,2.17657 0.4241,3.77623 1.62271,5.3345c5.68837,7.62164 10.45077,15.71476 15.58861,23.67748c4.92066,7.68821 9.83293,15.2795 15.21658,22.73206c0.21716,0.27451 0.5303,0.5407 0.86025,1.00092c0.26265,-0.31611 0.35019,-0.42154 0.31654,-0.80961z" data-paper-data="{&quot;index&quot;:null}" fill="#000000"/><path d="M456.89756,290.89566c-6.59614,0.86524 -13.09633,1.72217 -19.7009,2.4903c-9.28308,1.09821 -18.44499,2.47905 -27.70283,3.86842c-3.91763,0.53516 -7.73927,1.0622 -11.6569,1.59736c-6.77966,0.97881 -13.64688,2.06305 -20.52249,3.05036c-4.20551,0.56013 -8.41102,1.12026 -12.60811,1.77749c-8.58611,1.33112 -17.17222,2.66223 -25.76675,3.89623c-4.68532,0.60173 -9.27469,1.19513 -13.96,1.79686c-5.4446,0.7654 -10.80165,1.42556 -16.24626,2.19077c-5.73249,0.79036 -11.46497,1.58072 -17.20588,2.27397c-2.00678,0.27184 -3.98835,0.83464 -6.02878,0.7184c-0.73904,-0.7181 -1.57405,-1.42786 -2.32152,-2.24307c-5.01504,-5.43136 -10.19676,-10.55493 -15.48287,-15.76729c-7.50324,-7.36664 -14.83979,-15.04088 -21.98443,-22.73195c-1.38213,-1.4445 -2.6767,-2.99425 -3.96287,-4.44708c0.24583,-0.51015 0.62126,-0.64054 1.0051,-0.67383c3.99677,-0.73752 7.9851,-1.57215 11.98185,-2.30986c3.70888,-0.71256 3.70889,-0.71256 6.46471,2.07934c4.33831,4.31688 8.318,8.95799 12.74385,13.16943c1.26093,1.16167 2.27943,1.7577 3.89397,1.42222c0.37545,-0.13021 0.75929,-0.16348 1.14314,-0.19676c4.29305,-0.66556 8.67365,-1.43655 12.97512,-2.005c5.92441,-0.807 11.96161,-1.42809 17.88603,-2.23509c6.40422,-0.8486 12.80845,-1.69722 19.21267,-2.54582c4.30147,-0.56845 8.50698,-1.12857 12.80004,-1.79413c3.24589,-0.47692 6.58772,-0.96236 9.83362,-1.43927c5.45302,-0.66829 10.81008,-1.32826 16.25469,-2.09366c4.87725,-0.61837 9.74608,-1.33385 14.6149,-2.04932c4.30147,-0.56845 8.48174,-1.41972 12.79162,-1.89124c6.41264,-0.75149 12.70407,-1.78581 19.00392,-2.72321c5.14831,-0.83736 10.2882,-1.77184 15.43649,-2.60939c0.56735,-0.14703 1.13472,-0.29388 1.68525,-0.63495c0.63809,-0.44632 0.87548,-1.05358 0.52029,-1.80495c-0.24241,-0.56566 -0.58078,-1.12299 -0.82317,-1.68846c-0.93598,-1.87437 -2.42249,-3.40747 -3.54197,-5.16809c-2.45612,-3.79555 -4.63278,-7.71316 -7.27242,-11.39515c-0.21716,-0.27451 -0.33837,-0.55733 -0.17167,-0.86494c2.74082,-0.72666 9.33698,-1.59172 10.99356,-1.44221c1.76257,2.48703 3.62951,5.06266 5.4089,7.74372c3.12447,4.81331 6.16137,9.73165 9.28582,14.54477c2.45614,3.79573 4.90384,7.49417 7.35998,11.28991c3.22883,4.9019 6.45765,9.80362 9.96595,14.58345c0.6515,0.82353 1.49493,1.63042 1.8922,2.86698c-2.86204,0.44364 -5.53216,0.87063 -8.19386,1.39475zM389.29517,286.19779c-2.41405,-3.31037 -4.91567,-6.51549 -7.05867,-10.04484c-0.33838,-0.55734 -0.7727,-1.10636 -1.02352,-1.76893c-0.36361,-0.84829 -0.96462,-1.08952 -1.82828,-1.01464c-1.15155,0.09984 -2.39905,0.208 -3.63816,0.41309c-0.57577,0.04992 -1.23909,0.20527 -1.81487,0.25519c-6.98,0.89852 -14.07279,1.61115 -21.04436,2.60678c-5.35706,0.65997 -10.61815,1.31162 -15.93313,2.45696c-3.61291,0.70424 -7.23424,1.31156 -10.85556,1.91887c-0.75929,0.16348 -1.62295,0.23837 -2.15665,0.77367c-0.42934,0.62371 -0.09938,1.08393 0.1262,1.45555c0.84842,1.97961 2.34334,3.60982 3.55879,5.36212c1.88376,2.76966 3.86349,5.5312 5.93918,8.28423c1.76257,2.48703 3.71706,4.95742 5.75068,7.22526c0.60102,0.24122 1.26433,0.08587 1.8401,0.03595c4.87725,-0.61837 9.7629,-1.13981 14.64015,-1.75818c5.2611,-0.65165 10.61816,-1.31161 15.97521,-1.97158c4.10953,-0.552 8.21908,-1.10379 12.32863,-1.6556c2.76608,-0.43532 5.45301,-0.66829 8.2275,-1.00669c0.85524,-0.172 1.61454,-0.33548 2.46978,-0.50748c0.47981,-0.0416 0.73405,-0.45464 0.97145,-1.0619c-2.12617,-3.33532 -4.17322,-6.87319 -6.47448,-9.99784zM267.88348,280.88585c-3.18176,-3.24381 -5.91736,-6.91746 -8.92401,-10.37194c-0.86867,-1.09804 -1.75758,-1.31431 -2.98825,-1.01191c-1.03876,0.28556 -2.09435,0.37708 -3.14152,0.56553c-0.9512,0.18031 -1.80644,0.35231 -2.4277,0.99265c-0.13302,0.69605 0.2929,1.14796 0.61444,1.51106c3.09421,3.34924 6.18842,6.69847 9.28263,10.0477c1.06899,1.17831 2.27943,1.75769 3.88556,1.3251c1.31824,-0.40745 2.75767,-0.53224 4.09273,-0.74584c0.28789,-0.02496 0.56735,-0.14703 0.81318,-0.65718c-0.15485,-0.6709 -0.68514,-1.2116 -1.20702,-1.65519zM306.45663,284.18978c-1.67683,0.73207 -2.21395,2.34298 -1.48672,4.03976c1.30799,2.81959 6.39057,3.45441 8.31665,1.13659c1.48832,-1.79123 0.77292,-4.4667 -1.43079,-5.35114c-0.89732,-0.31338 -1.89059,-0.61825 -2.93776,-0.42962c-0.77612,-0.03055 -1.62295,0.23836 -2.46137,0.6044zM311.93283,292.70984c-1.10948,0.58503 -1.60112,1.60532 -1.49174,2.86684c0.10938,1.26151 1.19521,2.63406 2.38041,2.92229c1.67343,0.34374 3.33003,0.49345 4.9025,-0.32721c0.18351,-0.11375 0.46296,-0.23582 0.73403,-0.45483c1.61794,-1.41128 1.53722,-3.45746 -0.22034,-4.77156c-0.93097,-0.70145 -2.51684,-1.15063 -3.95628,-1.02582c-0.87207,-0.02205 -1.60612,0.43259 -2.34857,0.79031zM278.78381,295.09513c1.52698,-0.23023 2.79473,-1.21997 2.98165,-2.40953c0.24083,-1.68287 -0.7827,-3.45181 -2.47295,-3.98959c-1.69867,-0.63489 -3.3132,-0.29942 -4.69375,0.50461c-2.11458,1.25885 -2.08775,3.79853 -0.12984,5.19312c0.92255,0.60434 2.20372,0.88443 3.73912,0.75132c0.19192,-0.01664 0.38384,-0.03328 0.57577,-0.04992zM290.07393,288.15222c-0.78793,0.94832 -0.81658,1.73298 -0.14827,2.75035c1.56224,2.40674 5.66836,2.93055 7.72405,0.99248c1.34688,-1.19229 1.30822,-2.75328 0.0389,-4.01188c-1.16497,-1.17 -2.55892,-1.63581 -4.17346,-1.30033c-1.45626,-0.06924 -2.55731,0.61291 -3.44122,1.56937zM293.93355,305.90495c-1.56564,-1.33075 -4.27782,-1.38893 -6.01696,-0.26029c-1.64319,1.12013 -1.65842,3.17463 -0.18875,4.5137c1.37371,1.34739 5.24586,1.40285 6.5136,0.41291c0.8216,-0.56007 1.13813,-1.36968 1.02876,-2.6312c-0.06731,-0.77633 -0.70197,-1.40563 -1.33666,-2.03512zM279.89988,297.93136c-0.99668,0.77094 -1.27115,2.06573 -0.60282,3.0833c2.01339,3.1496 6.54883,3.04951 8.27457,0.65123c0.86706,-1.15069 0.5237,-2.88075 -0.6076,-3.66248c-1.02693,-0.69313 -3.00509,-1.20615 -4.63645,-1.0647c-0.67173,0.05824 -1.62294,0.23856 -2.4277,0.99266zM317.36357,301.82052c-1.06741,1.07021 -1.03717,2.53409 -0.07256,3.62361c0.42592,0.45191 0.94781,0.89568 1.54041,1.03979c1.28957,0.37702 2.64986,0.45458 4.07248,0.13573c0.56735,-0.14703 1.11788,-0.48811 1.56405,-0.91778c1.68867,-1.71075 1.06923,-4.39454 -1.30117,-4.97119c-0.99328,-0.30506 -1.95291,-0.22186 -3.02532,-0.32437c-0.94279,0.27724 -1.97314,0.65991 -2.77789,1.41421zM301.68467,303.86425c-0.97145,1.06189 -1.07082,2.14601 -0.19375,3.34097c0.21716,0.27451 0.5387,0.63762 0.84342,0.8067c1.52358,0.84576 3.19701,1.1895 4.89067,0.65147c0.65491,-0.25227 1.10947,-0.58503 1.55564,-1.0147c1.14653,-1.27276 1.2375,-2.4538 0.06412,-3.72092c-1.06899,-1.17831 -2.36699,-1.65245 -3.79801,-1.43054c-1.35189,0.01937 -2.39063,0.30512 -3.36208,1.36702zM302.92558,300.33465c1.46809,-0.90945 1.60452,-2.68112 0.43114,-3.94824c-1.59929,-1.71882 -4.53705,-2.14863 -6.56407,-0.99502c-1.93949,1.04798 -2.13823,3.21623 -0.46822,4.63577c1.2525,1.06456 2.54208,1.44158 4.06907,1.21155c0.95961,-0.0832 1.80645,-0.35231 2.53208,-0.90405zM393.21984,277.93816c2.39905,-0.208 4.70215,-0.40769 7.08438,-0.80973c0.85524,-0.172 1.63977,-0.04433 2.47819,-0.41037c0.65489,-0.25248 1.01351,-0.57672 1.05057,-1.26444c-0.5387,-0.63762 -1.3064,-0.57105 -1.97813,-0.51281c-2.97483,0.25792 -5.84527,0.60465 -8.69891,1.14521c-0.75927,0.16368 -1.51856,0.32735 -1.8267,1.23388c0.45116,0.74305 1.13132,0.78192 1.89059,0.61826zM422.46465,277.35787c-2.97483,0.25792 -5.84527,0.60465 -8.6989,1.1454c-0.75927,0.16368 -1.51857,0.32716 -1.82669,1.23389c0.45116,0.74305 1.1313,0.78173 1.80304,0.72349c2.39905,-0.208 4.70215,-0.40768 7.08438,-0.80973c0.85524,-0.172 1.63977,-0.04433 2.47819,-0.41037c0.65491,-0.25227 1.01351,-0.57671 1.05057,-1.26443c-0.5387,-0.63762 -1.21886,-0.6765 -1.89059,-0.61826zM444.38086,280.34619c-3.03712,0.65451 -6.12474,0.72673 -9.04909,1.56675c-0.56735,0.14703 -1.03875,0.28575 -1.1802,0.8845c0.04207,0.48518 0.43434,0.54901 0.83501,0.70977c0.60102,0.24122 1.26433,0.08587 1.8401,0.03595c2.57415,-0.41868 5.24427,-0.84568 7.92279,-1.17576c0.57577,-0.04992 1.13472,-0.29388 1.68525,-0.63495c0.36703,-0.22732 0.42934,-0.62371 0.2913,-1.10077c-0.80134,-0.32151 -1.59429,-0.5461 -2.34516,-0.2855zM419.25266,272.6502c-2.94118,0.646 -5.93283,0.70989 -8.85717,1.55012c-0.56735,0.14703 -1.14313,0.19696 -1.26776,0.98974c0.14645,0.57397 0.73064,0.62117 1.1229,0.68481c0.77612,0.03055 1.55224,0.0611 2.31152,-0.10258c2.08592,-0.47419 4.29305,-0.66556 6.39582,-0.94552c0.85524,-0.172 1.71891,-0.24687 2.45294,-0.7017c0.36703,-0.22732 0.62968,-0.54342 0.47482,-1.21433c-0.80134,-0.32151 -1.59429,-0.5461 -2.63305,-0.26055zM396.41844,281.37618c-0.37545,0.13021 -0.84683,0.26892 -1.20544,0.59335c-0.27107,0.219 -0.34179,0.51847 -0.22058,0.80129c0.11278,0.18572 0.32996,0.46023 0.52188,0.44359c0.39225,0.06364 0.88048,0.11915 1.35187,-0.01957c2.37383,-0.49896 4.6685,-0.79577 7.05914,-1.10088c1.04718,-0.18845 2.08592,-0.47419 3.00348,-1.04258c0.27949,-0.12188 0.44617,-0.42967 0.42092,-0.72081c-0.02525,-0.29114 -0.33837,-0.55734 -0.62626,-0.53238c-0.57577,0.04992 -1.06399,-0.0054 -1.73572,0.05284c-2.76608,0.43532 -5.6197,0.97608 -8.56928,1.52516zM447.23427,285.37849c-1.24751,0.10816 -2.39906,0.208 -3.63817,0.41309c-1.62294,0.23855 -3.34183,0.48544 -4.95637,0.82092c-0.66333,0.15516 -1.23068,0.30219 -1.78963,0.54616c-0.27947,0.12208 -0.55053,0.34107 -0.51687,0.72934c0.03365,0.38807 0.33835,0.55715 0.63466,0.62931c0.39228,0.06383 0.78453,0.12748 1.16837,0.09419c3.15835,-0.37149 6.40421,-0.8486 9.55415,-1.31721c0.57577,-0.04992 1.13472,-0.29387 1.45126,-1.10349c-0.45116,-0.74305 -1.22727,-0.77361 -1.90741,-0.8123zM426.92076,283.03338c-1.24751,0.10816 -2.39906,0.208 -3.63817,0.41309c-1.7189,0.24687 -3.42939,0.59067 -5.13987,0.93466c-0.56737,0.14684 -1.12632,0.3908 -1.68525,0.63496c-0.08756,0.10524 -0.25423,0.41303 -0.23741,0.60707c0.00842,0.09711 0.22559,0.37162 0.42591,0.45191c0.50506,0.24955 0.98486,0.20794 1.56063,0.15802c1.24751,-0.10816 2.59098,-0.22465 3.83009,-0.42973c1.63136,-0.14145 3.14991,-0.4688 4.77286,-0.70716c0.85524,-0.172 1.7105,-0.34379 2.21054,-1.26716c-0.56395,-0.92877 -1.23567,-0.87053 -2.09934,-0.79564zM437.90979,269.27274c-1.24751,0.10816 -2.39905,0.208 -3.63816,0.41309c-1.71048,0.34399 -3.4294,0.59068 -5.13988,0.93467c-0.47141,0.13853 -1.03035,0.38248 -1.50175,0.52119c-0.27947,0.12208 -0.55053,0.34107 -0.51688,0.72914c0.03366,0.38827 0.33837,0.55734 0.63467,0.62949c0.48822,0.05532 1.0724,0.10251 1.55222,0.06091c1.63136,-0.14145 3.35026,-0.38832 4.9648,-0.7238c1.23069,-0.3022 2.39064,-0.30512 3.62974,-0.51021c0.95961,-0.0832 0.9512,-0.18031 2.02703,-1.15341c-0.55555,-0.83184 -1.22728,-0.77361 -2.0118,-0.90108zM431.78642,277.82085c1.5354,-0.13313 3.07078,-0.26626 4.59776,-0.49649c1.43944,-0.1248 2.95801,-0.45196 4.48498,-0.68219c1.04716,-0.18863 1.04717,-0.18864 2.1314,-1.06481c0.04549,-0.59043 -0.35517,-0.75118 -0.84341,-0.80669c-0.58419,-0.04719 -1.15997,0.00273 -1.63978,0.04433c-2.67009,0.42719 -5.43618,0.86251 -8.1063,1.28951c-0.7677,0.06656 -1.52698,0.23023 -2.13982,0.9677c0.27606,0.95373 0.95622,0.99261 1.51517,0.74865zM403.47029,293.57264c2.76606,-0.43551 5.6281,-0.87916 8.39418,-1.31448c0.75927,-0.16368 1.51015,-0.42427 2.14824,-0.87059c0.36701,-0.22751 0.42933,-0.6239 0.29969,-1.00384c-0.51346,-0.34647 -1.08922,-0.29655 -1.56904,-0.25494c-2.95801,0.45196 -5.91601,0.90393 -8.8656,1.453c-0.56735,0.14703 -1.03034,0.38266 -1.49333,0.6183c-0.55893,0.24415 -0.51686,0.72933 -0.28288,1.19788c0.4175,0.35479 0.90572,0.41031 1.36871,0.17467zM421.13074,290.96592c2.58256,-0.32176 5.16514,-0.64332 7.74769,-0.96508c0.86366,-0.07489 1.52697,-0.23023 2.15663,-0.77366c0.27107,-0.219 0.43775,-0.52679 0.22058,-0.8013c-0.11278,-0.18572 -0.32996,-0.46022 -0.52188,-0.44359c-0.39225,-0.06364 -0.88048,-0.11915 -1.36029,-0.07755c-2.58256,0.32176 -5.17354,0.5464 -7.75611,0.86797c-0.7677,0.06656 -1.51858,0.32716 -2.16507,0.67655c-0.27947,0.12208 -0.44614,0.42987 -0.50004,0.92337c0.72222,0.52405 1.40237,0.56273 2.17848,0.59329zM400.40814,288.36295c2.55732,-0.61291 5.2611,-0.65166 7.93962,-0.98173c0.75927,-0.16368 1.52697,-0.23024 2.05227,-0.86227c0.08755,-0.10543 0.15826,-0.4049 0.14144,-0.59894c-0.01682,-0.19404 -0.22558,-0.37143 -0.42592,-0.45191c-0.48823,-0.05551 -0.88048,-0.11915 -1.36029,-0.07755c-2.67853,0.32989 -5.26952,0.55453 -7.94804,0.88461c-0.9512,0.18031 -1.99838,0.36876 -2.67352,1.50281c0.83501,0.70977 1.52357,0.84557 2.27444,0.58497z" data-paper-data="{&quot;index&quot;:null}" fill="#216aff"/><path d="M296.8927,277.58848c-0.9512,0.18031 -1.64818,-0.05259 -2.29127,-0.779c-1.70366,-1.80761 -3.41574,-3.71234 -5.04028,-5.72251c-1.07742,-1.27543 -2.14642,-2.45375 -3.31138,-3.62375c-0.32154,-0.36311 -0.74745,-0.81502 -1.32322,-0.7651c-1.35189,0.01937 -2.70376,0.03894 -4.00517,0.6406c0.21375,1.35012 0.11778,1.35844 0.5437,1.81034c0.86025,1.00093 1.61612,1.91304 2.46795,2.81685c1.59929,1.71901 3.20701,3.53515 4.81472,5.35108c0.31314,0.26619 0.62626,0.53238 0.48481,1.13113c-0.84681,0.26911 -1.70208,0.44092 -2.39064,0.30512c-2.30467,-2.04884 -4.05883,-4.43875 -5.99651,-6.71511c-0.97303,-1.18664 -2.12958,-2.25952 -3.19017,-3.34091c-0.32154,-0.36311 -0.64309,-0.72641 -1.1229,-0.68481c-1.44784,0.02788 -2.89569,0.05556 -4.10113,0.64891c-0.22058,0.80129 0.1178,1.35864 0.54372,1.81054c0.96462,1.08953 1.83328,2.18755 2.7895,3.18016c1.39053,1.54142 2.6767,2.99425 4.06725,4.53587c0.31312,0.266 0.44274,0.64595 0.38885,1.13945c-0.75927,0.16368 -1.52698,0.23023 -2.18189,0.4825c-0.93438,0.37435 -1.54381,0.03601 -2.08251,-0.60161c-1.06059,-1.08139 -2.01679,-2.0738 -3.07739,-3.1552c-2.6683,-2.89733 -5.16149,-6.00533 -8.18838,-8.57805c-0.41752,-0.35498 -0.74746,-0.81521 -0.80635,-1.49442c1.11788,-0.48811 2.46135,-0.60459 3.70045,-0.80967c3.81324,-0.62395 7.6349,-1.15099 11.44816,-1.77475c5.43618,-0.86251 10.76799,-1.81364 16.20419,-2.67596c6.29144,-1.03432 12.58286,-2.06883 18.87429,-3.10315c3.90921,-0.63227 7.73087,-1.15913 11.64008,-1.7914c3.23749,-0.57385 6.57932,-1.05927 9.82522,-1.53619c2.95801,-0.45196 5.90758,-1.00104 8.86559,-1.453c3.52536,-0.599 6.96317,-1.09256 10.49693,-1.59464c5.82005,-0.8956 11.5357,-1.88 17.35573,-2.77579c3.53378,-0.50189 7.16352,-1.01209 10.68887,-1.61108c5.53217,-0.87064 11.05587,-1.83859 16.58804,-2.70923c3.14152,-0.56572 6.37898,-1.13975 9.5289,-1.60835c2.87044,-0.34671 5.69885,-1.17844 8.69049,-1.24232c3.53354,5.07098 7.05866,10.04484 10.49624,15.12414c0.44276,0.64613 0.98145,1.28375 1.06559,2.25412c-1.50173,0.52138 -2.94958,0.54908 -4.28463,0.76267c-2.19189,-1.86313 -3.92922,-4.05901 -5.66655,-6.25489c-1.07742,-1.27543 -2.25078,-2.54235 -3.51171,-3.70402c-0.41752,-0.35498 -0.84343,-0.80689 -1.4192,-0.75697c-1.34347,0.11648 -2.70376,0.03893 -3.89239,0.82631c-0.1162,0.89009 0.31812,1.43891 0.75245,1.98793c0.95621,0.9926 1.82487,2.09045 2.78108,3.08305c1.28617,1.45283 2.57234,2.90565 3.85851,4.35848c0.32996,0.46022 0.75587,0.91212 0.52688,1.61631c-0.45457,0.33275 -1.03034,0.38267 -1.52698,0.23024c-2.19189,-1.86313 -3.93762,-4.15593 -5.77091,-6.34349c-1.07742,-1.27543 -2.14642,-2.45374 -3.31138,-3.62374c-0.32154,-0.36311 -0.74747,-0.81521 -1.32324,-0.76529c-1.34347,0.11648 -2.69534,0.13605 -3.99674,0.73772c-0.20376,0.99533 0.43091,1.62463 0.96963,2.26244c2.138,2.35663 4.18003,4.7216 6.21365,6.98943c0.42592,0.45191 0.74746,0.81521 0.89391,1.38918c0.0084,0.09692 -0.07073,0.29927 -0.14985,0.50183c-0.56737,0.14684 -1.13472,0.29388 -1.72732,0.14976c-2.20031,-1.96024 -3.94604,-4.25304 -5.77933,-6.4406c-1.07742,-1.27543 -2.14642,-2.45375 -3.31138,-3.62375c-0.32154,-0.36311 -0.74745,-0.81502 -1.32322,-0.7651c-1.44785,0.02769 -2.79974,0.04706 -4.00518,0.64041c-0.31654,0.80961 0.02184,1.36696 0.44776,1.81886c0.96463,1.08972 1.83328,2.18755 2.7895,3.18016c1.39053,1.54142 2.77266,2.98593 4.06724,4.53587c0.32996,0.46022 0.85184,0.90381 0.63126,1.7051c-1.82328,0.15808 -3.63816,0.4131 -5.35706,0.65997c-2.20031,-1.96024 -3.93763,-4.15593 -5.67495,-6.35181c-1.07742,-1.27543 -2.2508,-2.54254 -3.51173,-3.70422c-0.32154,-0.36311 -0.74745,-0.81502 -1.13129,-0.78173c-1.45626,-0.06924 -3.00849,-0.13033 -4.27623,0.85959c-0.02866,0.78465 0.30972,1.34199 0.73563,1.7939c0.86023,1.00073 1.61613,1.91305 2.46796,2.81685c1.39895,1.63854 2.78948,3.17997 4.18003,4.72158c0.32154,0.36311 0.6515,0.82353 0.70197,1.40563c-0.63807,0.44651 -1.32664,0.31052 -1.91082,0.26352c-2.09593,-1.87145 -3.83325,-4.06732 -5.57058,-6.2632c-1.0774,-1.27525 -2.25079,-2.54235 -3.51171,-3.70402c-0.31314,-0.26619 -0.64309,-0.72641 -1.1229,-0.68481c-1.35189,0.01937 -2.90411,-0.04155 -4.08431,0.84295c-0.12462,0.79297 0.21376,1.35031 0.63968,1.80221c0.86025,1.00093 1.61613,1.91306 2.46796,2.81686c1.39895,1.63854 2.7895,3.18016 4.18004,4.72159c0.32156,0.3633 0.65151,0.82352 0.71882,1.59986c-2.57415,0.41868 -5.03553,1.02308 -7.54737,1.04537c-2.20031,-1.96024 -3.93762,-4.15592 -5.67495,-6.35181c-1.07742,-1.27543 -2.2508,-2.54254 -3.51171,-3.70422c-0.42592,-0.45191 -0.93938,-0.79837 -1.61111,-0.74013c-1.24751,0.10816 -2.50344,0.11921 -3.62132,0.60732c0.10938,1.26151 0.01341,1.26983 0.55212,1.90745c0.96463,1.08972 1.82487,2.09045 2.7895,3.18016c1.39053,1.54142 2.78949,3.17996 4.18004,4.72159c0.32154,0.36311 0.64309,0.72641 0.3013,1.24488c-0.83842,0.36603 -1.61453,0.33548 -2.25761,-0.39094c-0.42592,-0.45191 -0.85183,-0.90381 -1.27775,-1.35571c-1.19021,-1.46115 -2.37198,-2.82518 -3.5622,-4.28632c-0.97303,-1.18664 -2.05046,-2.46207 -3.30296,-3.52664c-0.32156,-0.3633 -0.74747,-0.8152 -1.13132,-0.78192c-1.45626,-0.06924 -3.00848,-0.13014 -4.45973,0.97335c0.9528,2.06841 2.6228,3.48775 4.02177,5.12649c1.39053,1.54142 2.87704,3.07473 4.10931,5.02105c-0.90915,0.66531 -1.66843,0.82899 -2.51186,0.0221c-0.42592,-0.45191 -0.85183,-0.90381 -1.27775,-1.35571c-1.28617,-1.45283 -2.58074,-3.00257 -3.77095,-4.46372c-0.98145,-1.28375 -2.05046,-2.46207 -3.30295,-3.52663c-0.31314,-0.26619 -0.64309,-0.72641 -1.1229,-0.68481c-1.35189,0.01937 -2.8957,0.05537 -4.08431,0.84295c-0.13303,0.69586 0.19692,1.15609 0.52687,1.61631c0.64309,0.72641 1.29459,1.54995 1.93767,2.27636c1.60771,1.81594 3.31979,3.72067 4.92748,5.5366c0.31314,0.26619 0.5303,0.5407 0.37204,0.9456c-1.58929,0.62662 -5.69883,1.17843 -7.63491,1.1508c-2.09593,-1.87145 -3.83325,-4.06732 -5.57058,-6.2632c-1.39053,-1.54142 -2.69354,-3.18848 -4.44268,-4.40548c-1.43944,0.1248 -3.00006,-0.03322 -4.36379,0.96484c0.1212,0.28283 0.05048,0.58229 0.16327,0.76802c0.22559,0.37162 0.45116,0.74305 0.66833,1.01756c0.86025,1.00093 1.61612,1.91304 2.46795,2.81685c1.39895,1.63854 2.7895,3.18016 4.18005,4.72178c0.32154,0.36311 0.65149,0.82333 0.70197,1.40563c-0.63809,0.44632 -1.21386,0.49624 -1.90242,0.36045c-2.09593,-1.87145 -3.83326,-4.06734 -5.57058,-6.26321c-1.0774,-1.27525 -2.25078,-2.54235 -3.51171,-3.70402c-0.31314,-0.26619 -0.64309,-0.72641 -1.1229,-0.68481c-1.35189,0.01937 -2.9041,-0.04154 -4.08431,0.84296c-0.12462,0.79297 0.21376,1.35031 0.63968,1.80221c0.96462,1.08953 1.92925,2.17923 2.89387,3.26876c1.29459,1.54995 2.67672,2.99444 3.97129,4.5442c0.21716,0.27451 0.63467,0.62929 0.3013,1.24487c-2.10274,0.28015 -4.19709,0.65724 -6.3958,0.94572c-1.30301,-1.64705 -2.59757,-3.19679 -3.7962,-4.75505c-1.4242,-1.92969 -2.94435,-3.85107 -4.72716,-5.45633c-0.4175,-0.35479 -0.75587,-0.91213 -1.34004,-0.95913c-1.45628,-0.06943 -3.00849,-0.13033 -4.27623,0.8596c-0.00342,1.07561 0.63125,1.7051 1.16995,2.34272c2.05046,2.46207 4.20528,5.01274 6.25574,7.4748c0.21716,0.27451 0.53028,0.54051 0.38044,1.04252c-0.83002,0.46295 -1.51016,0.42408 -2.24921,-0.29401c-1.69524,-1.7105 -3.21541,-3.63187 -4.72715,-5.45631c-0.98145,-1.28356 -2.15482,-2.55067 -3.41575,-3.71235c-0.4175,-0.35479 -0.84341,-0.80669 -1.41918,-0.75677c-1.34347,0.11648 -2.69536,0.13585 -3.99677,0.73752c-0.20376,0.99533 0.43091,1.62463 0.96963,2.26244c2.138,2.35663 4.18003,4.72158 6.21365,6.98943c0.42592,0.45191 0.74747,0.81521 0.79795,1.3975c-0.64649,0.34939 -1.32666,0.31052 -2.11117,0.18305c-0.62626,-0.53238 -1.26091,-1.16168 -1.904,-1.88809c-1.19021,-1.46115 -2.38041,-2.92228 -3.5622,-4.28632c-1.06899,-1.17831 -2.138,-2.35663 -3.30295,-3.52663c-0.32998,-0.46041 -0.83501,-0.70977 -1.41079,-0.65985c-1.33507,0.2134 -2.59939,0.12753 -3.80483,0.72087c-0.29972,1.00365 0.43092,1.62482 0.96963,2.26244c2.14642,2.45374 4.18846,4.8187 6.32645,7.17534c0.32154,0.36311 0.53871,0.63761 0.50163,1.32516c-1.04716,0.18863 -2.09432,0.37727 -3.95128,0.1471z" data-paper-data="{&quot;index&quot;:null}" fill="#ffffff"/><path d="M417.98676,229.05686c-3.14993,0.46861 -6.20389,0.92889 -9.35382,1.39748c-0.19192,0.01664 -0.28788,0.02496 -0.47981,0.0416c-2.73242,0.82359 -5.71565,0.98459 -8.56928,1.52516c-2.85362,0.54075 -5.82004,0.8958 -8.68207,1.33944c-5.34022,0.85419 -10.57607,1.79699 -15.9163,2.65099c-3.53378,0.50189 -7.1635,1.01228 -10.69727,1.51416c-0.19192,0.01664 -0.48822,-0.05551 -0.67173,0.05824c-2.54049,0.80694 -5.14831,0.83737 -7.71405,1.35315c-3.41256,0.78471 -6.96317,1.09256 -10.49695,1.59445c-0.37543,0.13039 -0.67173,0.05824 -0.9512,0.18031c-2.92434,0.84023 -6.01195,0.91243 -9.05751,1.46964c-3.51694,0.69611 -6.93793,1.3837 -10.49693,1.59463c-0.39228,-0.06383 -0.68016,-0.03887 -0.95963,0.08321c-2.54051,0.80675 -5.14831,0.83737 -7.71404,1.35316c-3.6129,0.70443 -7.34703,1.12584 -10.97675,1.63604c-0.19192,0.01664 -0.28788,0.02496 -0.47981,0.0416c-3.13309,0.66283 -6.17863,1.22022 -9.32856,1.68883c-2.19871,0.28847 -4.39743,0.57677 -6.57932,1.05927c-2.94116,0.64619 -5.92441,0.807 -8.86559,1.453c-3.6129,0.70443 -7.35543,1.02892 -10.97675,1.63624c-1.91084,0.26332 -3.81325,0.62396 -5.72409,0.88729c-0.47139,0.13871 -0.83841,0.36603 -1.31822,0.40763c-1.14313,0.19695 -1.66001,0.9261 -1.76779,1.9131c-0.24923,1.58594 -0.41091,3.06646 -0.56418,4.64409c-0.02024,0.88177 -0.13644,1.77166 -0.44456,2.6784c-0.75927,0.16368 -1.40578,0.51287 -2.07751,0.57111c-2.19871,0.28847 -4.30146,0.56864 -6.3874,1.04264c-2.27785,0.49083 -4.5557,0.98167 -6.92951,1.48082c-0.9512,0.18031 -1.894,0.45755 -2.97483,0.25792c-0.26423,-1.93242 0.25606,-3.73736 0.28812,-5.59781c0.04048,-1.76334 0.36884,-3.55165 0.40931,-5.31519c0.12804,-1.86858 0.4564,-3.65689 0.68879,-5.43707c0.46299,-0.23564 0.83002,-0.46295 1.21386,-0.49624c3.04554,-0.5574 6.08269,-1.21172 9.2242,-1.77744c3.22906,-0.67115 6.45812,-1.34211 9.7124,-1.72211c4.39743,-0.57677 8.68209,-1.33925 12.97514,-2.0048c4.01357,-0.54368 8.01034,-1.2812 12.0155,-1.9218c2.76608,-0.43532 5.62812,-0.87897 8.38578,-1.4114c3.04554,-0.5574 6.10791,-0.92076 9.16188,-1.38104c0.18351,-0.11375 0.47981,-0.0416 0.66332,-0.15535c1.96473,-0.75683 4.18027,-0.85127 6.27461,-1.22835c3.9008,-0.72919 7.73087,-1.15913 11.6485,-1.69429c0.37543,-0.13039 0.66331,-0.15535 0.95121,-0.18032c2.76608,-0.43532 5.42777,-0.95943 8.19385,-1.39476c3.62974,-0.51021 7.35543,-1.02892 10.98516,-1.53911c0.19192,-0.01664 0.28789,-0.02496 0.47981,-0.0416c2.94958,-0.54908 5.99513,-1.10648 9.04909,-1.56675c3.62974,-0.51021 7.35545,-1.02872 10.98516,-1.53911c0.19192,-0.01664 0.28788,-0.02496 0.4798,-0.0416c2.92436,-0.84003 5.91601,-0.90393 8.8656,-1.453c3.90921,-0.63227 7.91437,-1.27287 11.8236,-1.90496c4.19709,-0.65724 8.49015,-1.32279 12.67882,-2.07714c2.27786,-0.49065 4.57253,-0.78745 6.8672,-1.08424c2.95801,-0.45196 5.99515,-1.10628 9.05752,-1.46964c0.7677,-0.06656 1.63135,-0.14145 2.48659,-0.31344c3.99677,-0.73752 7.99352,-1.47523 12.02392,-1.82468c1.06401,0.00559 2.02363,-0.07761 3.18359,-0.08034c-0.32337,2.96103 -0.576,5.62278 -0.73268,8.27621c-0.06073,2.64492 -0.12144,5.29004 -0.46164,8.05702c-0.47981,0.0416 -0.7677,0.06656 -1.05558,0.09152c-2.38221,0.40224 -4.70215,0.40769 -7.06754,1.00396c-1.04718,0.18845 -2.07753,0.57112 -3.18357,0.08054c-0.62785,-2.7809 0.19215,-5.5897 -0.2606,-8.58128c-0.57577,0.04992 -0.95963,0.08321 -0.85524,0.172z" data-paper-data="{&quot;index&quot;:null}" fill="#216aff"/><path d="M414.96939,239.97533c-2.76608,0.43532 -5.43618,0.86251 -8.20226,1.29784c-6.86721,1.08424 -13.63846,2.16016 -20.50567,3.2444c-4.10113,0.64892 -8.29822,1.30616 -12.49531,1.9634c-3.14993,0.46861 -6.20389,0.92889 -9.35382,1.39748c-5.34022,0.85419 -10.58449,1.69988 -15.92471,2.55407c-3.23747,0.57403 -6.57933,1.05927 -9.82522,1.5362c-6.86721,1.08424 -13.63845,2.16016 -20.50566,3.2444c-6.01195,0.91243 -12.01551,1.9218 -18.01906,2.93115c-6.86721,1.08424 -13.82196,2.27391 -20.68075,3.45526c-3.90922,0.63208 -7.9144,1.27269 -11.8236,1.90496c-1.33505,0.2136 -2.67011,0.427 -4.21392,0.46321c-0.01,-2.34564 0.38066,-4.53053 0.57941,-6.69859c0.27947,-0.12208 0.55893,-0.24414 0.75085,-0.26079c5.05234,-0.82904 10.20065,-1.6666 15.25299,-2.49564c5.05234,-0.82904 10.20906,-1.56948 15.26139,-2.39872c5.81163,-0.99272 11.52729,-1.97711 17.34734,-2.87271c2.67009,-0.42719 5.34022,-0.85419 8.01034,-1.2812c5.1483,-0.83756 10.29661,-1.67491 15.44491,-2.51247c2.95801,-0.45196 5.916,-0.90392 8.874,-1.35589c5.90759,-1.00104 11.82358,-1.90514 17.73117,-2.90618c2.76608,-0.43532 5.62811,-0.87896 8.39418,-1.31448c5.05234,-0.82904 10.00872,-1.64995 15.06107,-2.47899c5.24426,-0.84587 10.49695,-1.59445 15.74121,-2.44032c3.04554,-0.5574 6.09109,-1.11479 9.14506,-1.57507c1.90242,-0.36045 3.91763,-0.53517 5.82845,-0.79869c0.29789,2.32068 -0.49344,4.34481 0.1967,6.72914c-0.75927,0.16368 -1.4142,0.41596 -2.06911,0.66823z" data-paper-data="{&quot;index&quot;:null}" fill="#d0e9ea"/><path d="M464.8424,285.5138c-5.27927,-7.36378 -10.2959,-15.04366 -15.21658,-22.73206c-5.13784,-7.96272 -9.99621,-16.0475 -15.58861,-23.67747c-1.20703,-1.65518 -1.91743,-3.15793 -1.62271,-5.3345c0.38567,-3.35762 0.48345,-6.69027 0.6772,-10.03124c0.04549,-0.59043 0.18693,-1.18937 0.5203,-1.80494c0.32156,0.3633 0.62625,0.53238 0.74747,0.81521c1.68343,2.68938 3.47123,5.46737 5.16308,8.25386c3.95605,6.59868 7.99964,13.09193 12.22676,19.47163c1.65818,2.39824 3.32478,4.89339 4.79947,7.40538c2.73219,4.74947 6.01491,9.15767 8.47605,14.12614c0.81476,1.59135 1.42919,3.10241 1.38873,4.86595c-0.13145,2.94439 -0.26288,5.88896 -0.39433,8.83336c0.00842,0.09711 -0.07914,0.20235 -0.33337,0.61558c-0.32156,-0.3633 -0.63466,-0.6293 -0.84343,-0.80689z" data-paper-data="{&quot;index&quot;:null}" fill="#216aff"/><path d="M394.7982,297.25752c-0.85524,0.172 -1.60612,0.43259 -2.46978,0.50748c-2.77449,0.3384 -5.45301,0.66829 -8.2275,1.00669c-4.10955,0.55181 -8.2191,1.1036 -12.32863,1.6556c-5.2611,0.65165 -10.61816,1.31161 -15.97521,1.97158c-4.87725,0.61837 -9.7629,1.13981 -14.64015,1.75818c-0.56735,0.14703 -1.23067,0.3024 -1.8401,-0.03595c-2.03362,-2.26784 -3.89214,-4.74655 -5.75068,-7.22526c-1.97972,-2.76135 -4.047,-5.41746 -5.93918,-8.28423c-1.21545,-1.75229 -2.61441,-3.39083 -3.55879,-5.36212c-0.12963,-0.37994 -0.45116,-0.74305 -0.1262,-1.45555c0.43773,-0.52698 1.30138,-0.60186 2.15665,-0.77367c3.62132,-0.60732 7.24264,-1.21463 10.85556,-1.91887c5.22743,-1.03991 10.58449,-1.69988 15.93313,-2.45696c6.97158,-0.99564 14.05596,-1.80537 21.04436,-2.60678c0.57577,-0.04992 1.23909,-0.20527 1.81487,-0.25519c1.15155,-0.09984 2.39065,-0.30492 3.63816,-0.41309c0.85524,-0.172 1.46468,0.16635 1.82828,1.01464c0.24241,0.56566 0.68514,1.2116 1.02352,1.76893c2.13459,3.43244 4.64462,6.73447 7.05867,10.04484c2.30969,3.22176 4.34831,6.66252 6.47448,9.99784c-0.2374,0.60726 -0.50005,0.92318 -0.97145,1.0619zM341.87849,280.14094c-2.47819,0.41037 -4.86883,0.71548 -7.34703,1.12584c-0.19192,0.01664 -0.36702,0.22732 -0.55053,0.34107c-2.58257,0.32157 -5.19038,0.35217 -7.72245,1.25624c1.38713,2.61723 10.27908,14.84963 14.05002,19.31335c1.44785,-0.02769 2.97483,-0.25792 4.4934,-0.58508c0.56735,-0.14703 1.23068,-0.30219 1.80646,-0.35211c5.2611,-0.65165 10.42622,-1.29516 15.59136,-1.9385c0.19192,-0.01664 0.4714,-0.13852 0.66333,-0.15516c2.77449,-0.3384 5.63653,-0.78204 8.41101,-1.12045c1.8317,-0.06097 3.56742,-0.11381 5.36546,-0.56305c2.38223,-0.40204 4.71057,-0.31057 6.98001,-0.89833c3.00005,0.03303 5.71566,-0.9844 8.79486,-1.15372c-0.32654,-1.53602 -1.28276,-2.52863 -1.95107,-3.546c-3.0908,-4.42504 -6.07722,-8.76128 -9.16803,-13.18632c-0.54712,-0.73473 -1.18179,-1.36404 -1.64136,-2.2042c-0.47639,-1.03401 -1.46125,-1.24196 -2.3165,-1.07015c-3.70886,0.71275 -7.5726,0.75441 -11.37742,1.47548c-3.22907,0.67095 -6.58774,0.96217 -9.83363,1.43909c-0.57577,0.04992 -1.23909,0.20527 -1.81486,0.2552c-1.92766,0.06929 -3.75094,0.22738 -5.64495,0.68493c-2.19031,0.3854 -4.38901,0.67387 -6.78807,0.88189z" data-paper-data="{&quot;index&quot;:null}" fill="#010201"/><path d="M268.36487,283.09278c-1.33505,0.2136 -2.76606,0.4355 -4.09271,0.74603c-1.60612,0.43259 -2.81657,-0.14698 -3.88557,-1.32529c-3.09421,-3.34924 -6.18841,-6.69828 -9.28261,-10.04752c-0.32156,-0.3633 -0.73904,-0.7181 -0.61443,-1.51107c0.62125,-0.64054 1.47649,-0.81254 2.4277,-0.99266c1.04716,-0.18863 2.10275,-0.28016 3.14152,-0.56572c1.23069,-0.3022 2.03203,0.0193 2.98825,1.01191c3.00665,3.45448 5.74226,7.12815 8.92401,10.37194c0.43434,0.54902 0.86867,1.09804 1.11948,1.76061c-0.24583,0.51015 -0.52528,0.63222 -0.72564,0.55175zM261.03491,278.83979c0.1212,0.28283 0.13802,0.47686 0.25083,0.66277c0.84341,0.80669 1.68684,1.61358 2.53867,2.51739c0.68856,0.1358 1.36871,0.17467 2.09434,-0.37708c-0.7104,-1.50275 -2.03364,-2.26802 -2.91911,-3.55991c-0.74245,0.35771 -1.30982,0.50455 -1.96473,0.75683zM260.19332,274.70876c-1.2391,0.20508 -2.37381,0.49915 -3.61291,0.70424c0.45958,0.84016 0.98987,1.38087 1.71208,1.90473c1.04718,-0.18845 1.98996,-0.46587 3.03714,-0.65432c-0.07573,-0.87345 -0.69357,-1.30871 -1.1363,-1.95465zM255.00477,271.73661c0.60601,1.41396 0.60601,1.41394 2.97983,0.91499c-0.71881,-1.59987 -1.83669,-1.11175 -2.97983,-0.91499z" data-paper-data="{&quot;index&quot;:null}" fill="#020202"/><path d="M311.95171,284.00668c2.20372,0.88444 2.91911,3.5599 1.43079,5.35114c-1.92607,2.31782 -7.00866,1.68299 -8.31665,-1.13659c-0.72722,-1.69678 -0.19011,-3.30769 1.48672,-4.03976c0.74245,-0.35771 1.58929,-0.62662 2.36541,-0.59608c1.04716,-0.18863 2.03204,0.01931 3.03372,0.42129zM307.5138,286.34679c-0.55053,0.34107 -0.57919,1.12572 -0.0573,1.56931c0.63468,0.62949 3.26773,0.89003 4.05566,-0.0583c0.44617,-0.42967 0.48322,-1.1174 -0.03866,-1.56099c-0.5303,-0.5407 -1.1229,-0.68482 -2.08251,-0.60161c-0.67173,0.05824 -1.32664,0.31052 -1.87717,0.65159z" data-paper-data="{&quot;index&quot;:null}" fill="#030606"/><path d="M318.33364,292.93704c1.66159,1.32243 1.83828,3.36029 0.22034,4.77156c-0.1751,0.21068 -0.45456,0.33275 -0.73403,0.45483c-1.56405,0.91778 -3.22907,0.67095 -4.9025,0.32721c-1.18519,-0.28822 -2.27103,-1.66077 -2.38041,-2.92229c-0.10938,-1.26151 0.38226,-2.28181 1.49174,-2.86684c0.74245,-0.35771 1.47651,-0.81234 2.25261,-0.78199c1.34347,-0.11648 3.02532,0.32437 4.05224,1.0175zM313.62126,296.57195c1.19361,0.38534 2.25761,0.39094 3.25431,-0.37981c0.54211,-0.43819 0.65832,-1.32809 0.04048,-1.76335c-0.73064,-0.62117 -1.61954,-0.83744 -2.56233,-0.56c-0.56737,0.14684 -1.12632,0.39079 -1.58929,0.62662c-0.15327,1.57763 -0.04048,1.76334 0.85684,2.07653z" data-paper-data="{&quot;index&quot;:null}" fill="#040605"/><path d="M274.37297,294.40206c-1.9579,-1.39458 -1.88877,-3.94258 0.12984,-5.19312c1.47651,-0.81234 3.09945,-1.0509 4.69375,-0.50461c1.69025,0.53778 2.70535,2.2096 2.47294,3.98958c-0.09095,1.18124 -1.3587,2.17098 -2.98164,2.40953c-0.19192,0.01664 -0.28788,0.02496 -0.47981,0.0416c-1.5354,0.13313 -2.81657,-0.14698 -3.83508,-0.74299zM275.21821,291.8846c0.06731,0.77633 0.99828,1.47779 2.06226,1.48319c0.47981,-0.0416 1.04717,-0.18844 1.51015,-0.42427c0.83842,-0.36603 0.85025,-1.34472 0.12803,-1.86858c-0.51348,-0.34666 -1.11448,-0.5879 -1.59431,-0.54629c-1.06399,-0.0054 -2.06909,0.66822 -2.10615,1.35597z" data-paper-data="{&quot;index&quot;:null}" fill="#040505"/><path d="M297.69701,287.98011c1.26934,1.25879 1.21204,2.82809 -0.03887,4.01206c-2.05569,1.93807 -6.16182,1.41407 -7.72405,-0.99248c-0.66833,-1.01756 -0.64808,-1.89914 0.14827,-2.75035c0.87548,-1.05357 1.97654,-1.73571 3.4328,-1.66647c1.51857,-0.32716 2.91253,0.13865 4.18186,1.39726zM292.26082,288.84262c-0.56737,0.14684 -0.77953,1.04525 -0.35361,1.49715c0.64309,0.72641 1.53199,0.94268 2.49161,0.85948c0.86366,-0.07489 1.50172,-0.52138 1.8974,-1.53336c-1.19021,-1.46115 -2.62964,-1.33634 -4.03541,-0.82328z" data-paper-data="{&quot;index&quot;:null}" fill="#030604"/><path d="M294.24145,310.57127c-1.27616,0.89281 -5.14828,0.83755 -6.5136,-0.41291c-1.46967,-1.33907 -1.45444,-3.39356 0.18875,-4.5137c1.64317,-1.12032 4.35536,-1.06214 6.01696,0.26029c0.73064,0.62117 1.36531,1.25047 1.33666,2.03512c0.01341,1.26983 -0.30312,2.07945 -1.02876,2.6312zM291.23479,307.11679c-0.77612,-0.03055 -1.6566,-0.1497 -2.38223,0.40204c-0.27947,0.12208 -0.34179,0.51847 -0.22057,0.80129c0.11278,0.18572 0.22557,0.37143 0.43434,0.54902c0.61784,0.43526 1.21044,0.57938 1.97813,0.51281c0.7677,-0.06656 1.54382,-0.036 1.9479,-0.95105c-0.26765,-0.85681 -0.88549,-1.29207 -1.75756,-1.31411z" data-paper-data="{&quot;index&quot;:null}" fill="#030506"/><path d="M286.96403,298.00339c1.1313,0.78173 1.47466,2.5118 0.6076,3.66248c-1.72574,2.39829 -6.26118,2.49838 -8.27457,-0.65123c-0.66833,-1.01756 -0.38545,-2.21544 0.60282,-3.0833c0.81319,-0.65699 1.75597,-0.93442 2.4277,-0.99266c1.63136,-0.14145 3.60951,0.37156 4.63645,1.0647zM283.89982,301.69089c1.15155,-0.09984 1.33507,-0.2134 2.00178,-1.44456c-1.89559,-1.79098 -3.06395,-1.88517 -4.86542,-0.36032c0.59761,1.31703 1.51176,1.82445 2.86362,1.80489z" data-paper-data="{&quot;index&quot;:null}" fill="#050504"/><path d="M323.17518,300.82761c2.27444,0.58497 2.98985,3.26064 1.30119,4.97139c-0.44617,0.42967 -0.9967,0.77074 -1.56405,0.91778c-1.32664,0.31052 -2.68694,0.23297 -4.07249,-0.13592c-0.601,-0.24104 -1.11447,-0.58771 -1.54039,-1.03961c-0.96462,-1.08953 -0.90732,-2.65883 0.07254,-3.6238c0.70038,-0.84289 1.73073,-1.22556 2.76949,-1.51112c1.07241,0.10251 2.03202,0.01931 3.03372,0.42129zM320.14465,304.90356c0.68856,0.1358 1.46466,0.16616 2.20713,-0.19136c0.47139,-0.13871 0.82158,-0.56025 0.77951,-1.04544c0.04549,-0.59043 -0.45115,-0.74305 -0.85183,-0.90381c-1.48992,-0.4575 -2.53709,-0.26886 -3.78801,0.91511c0.26764,0.85661 0.96462,1.08952 1.6532,1.22551z" data-paper-data="{&quot;index&quot;:null}" fill="#050304"/><path d="M308.93232,303.82254c1.17337,1.26692 1.09082,2.54507 -0.06414,3.72072c-0.44615,0.42986 -0.99669,0.77074 -1.55563,1.01489c-1.78963,0.54616 -3.36709,0.1941 -4.89065,-0.65147c-0.30471,-0.16908 -0.62626,-0.53238 -0.84343,-0.80689c-0.87707,-1.19496 -0.77771,-2.27908 0.19374,-3.34096c0.89231,-0.85953 1.93107,-1.1451 3.27454,-1.26158c1.43102,-0.22192 2.72061,0.1553 3.88558,1.32529zM304.62401,306.54239c0.68857,0.13599 1.4731,0.26346 2.20713,-0.19136c0.55055,-0.34088 0.67517,-1.13385 0.06572,-1.4722c-0.60942,-0.33814 -1.39397,-0.46581 -2.16166,-0.39926c-0.75927,0.16368 -0.95121,0.18032 -1.8267,1.23388c0.25923,0.75969 1.03536,0.79025 1.71549,0.82893z" data-paper-data="{&quot;index&quot;:null}" fill="#040405"/><path d="M296.4204,300.01883c-1.67001,-1.41954 -1.47128,-3.58779 0.46821,-4.63578c2.02701,-1.15361 4.96478,-0.72379 6.56407,0.99502c1.17339,1.26711 1.03694,3.03878 -0.43114,3.94824c-0.8216,0.56007 -1.66001,0.9261 -2.62804,0.91238c-1.5354,0.13313 -2.92095,-0.23578 -3.9731,-1.21987zM299.98121,296.48358c-0.78452,-0.12748 -1.64818,-0.05259 -2.37381,0.49916c-0.54211,0.43819 -0.57919,1.12572 -0.0573,1.56931c0.62626,0.53238 1.4276,0.85389 2.29127,0.779c0.95961,-0.0832 1.15155,-0.09984 2.22738,-1.07294c-0.38887,-1.13964 -1.1902,-1.46115 -2.08753,-1.77453z" data-paper-data="{&quot;index&quot;:null}" fill="#040506"/><path d="M393.0684,276.19145c2.85362,-0.54075 5.82005,-0.89561 8.69891,-1.14521c0.67173,-0.05824 1.43943,-0.1248 1.97813,0.51282c-0.03707,0.68754 -0.39568,1.01197 -1.05059,1.26424c-0.83842,0.36603 -1.62294,0.23856 -2.47818,0.41055c-2.39065,0.30492 -4.69374,0.50462 -7.08438,0.80973c-0.67173,0.05824 -1.35189,0.01936 -1.80305,-0.72369c0.30814,-0.90653 1.06741,-1.07021 1.73915,-1.12845z" data-paper-data="{&quot;index&quot;:null}" fill="#0c1212"/><path d="M423.21711,279.34581c-0.83842,0.36603 -1.62294,0.23856 -2.47817,0.41055c-2.39065,0.30492 -4.69375,0.50461 -7.08438,0.80973c-0.67173,0.05824 -1.35189,0.01936 -1.80304,-0.72369c0.30814,-0.90653 1.06741,-1.07021 1.8267,-1.23369c2.8452,-0.63787 5.82003,-0.8958 8.6989,-1.1454c0.67173,-0.05824 1.43943,-0.1248 1.97813,0.51282c0.05891,0.67941 -0.39566,1.01216 -1.13813,1.36968z" data-paper-data="{&quot;index&quot;:null}" fill="#0d1313"/><path d="M446.42633,281.63554c-0.55053,0.34107 -1.01352,0.5767 -1.68525,0.63495c-2.57415,0.41868 -5.24427,0.84568 -7.92279,1.17576c-0.57577,0.04992 -1.23911,0.20509 -1.8401,-0.03595c-0.40069,-0.16095 -0.79294,-0.22459 -0.83501,-0.70977c0.14143,-0.59894 0.61283,-0.73766 1.1802,-0.8845c2.92434,-0.84023 6.01195,-0.91243 9.04909,-1.56675c0.75927,-0.16368 1.64818,0.05259 2.35356,0.38242c0.14645,0.57397 -0.02023,0.88177 -0.2997,1.00385z" data-paper-data="{&quot;index&quot;:null}" fill="#090c0d"/><path d="M421.49845,274.01983c-0.83002,0.46295 -1.58929,0.62662 -2.45294,0.7015c-2.19871,0.28847 -4.30988,0.47153 -6.39581,0.94553c-0.75927,0.16368 -1.5354,0.13313 -2.3115,0.10276c-0.39228,-0.06383 -0.97644,-0.11083 -1.1229,-0.68481c0.02866,-0.78465 0.70039,-0.8429 1.26774,-0.98994c2.92436,-0.84003 5.916,-0.90392 8.85717,-1.55011c0.85525,-0.17181 1.74417,0.04447 2.54551,0.36597c0.15485,0.6709 -0.10779,0.98701 -0.38726,1.10909z" data-paper-data="{&quot;index&quot;:null}" fill="#090d0e"/><path d="M406.82782,279.88699c0.28789,-0.02496 0.60102,0.24123 0.62626,0.53238c0.02522,0.29096 -0.14985,0.50183 -0.42092,0.72082c-0.91755,0.56838 -1.95632,0.85394 -3.00349,1.04258c-2.39063,0.30512 -4.69372,0.50481 -7.05912,1.10088c-0.37543,0.13039 -0.86366,0.07489 -1.35189,0.01937c-0.19192,0.01664 -0.40907,-0.25767 -0.52188,-0.44359c-0.1212,-0.28283 -0.05048,-0.58211 0.22057,-0.80129c0.25424,-0.41303 0.72563,-0.55175 1.20544,-0.59335c2.85362,-0.54075 5.70725,-1.08132 8.46492,-1.61375c0.67173,-0.05824 1.15155,-0.09985 1.8401,0.03595z" data-paper-data="{&quot;index&quot;:null}" fill="#080b0b"/><path d="M447.69884,287.39138c-3.14993,0.46861 -6.40421,0.8486 -9.55415,1.31721c-0.38385,0.03328 -0.77612,-0.03056 -1.16837,-0.09419c-0.29631,-0.07215 -0.60944,-0.33834 -0.63467,-0.62949c-0.03365,-0.38807 0.23741,-0.60706 0.51688,-0.72914c0.65491,-0.25227 1.22226,-0.39932 1.78962,-0.54635c1.62296,-0.23837 3.33345,-0.58217 4.95638,-0.82072c1.23909,-0.20527 2.39064,-0.30512 3.63815,-0.41328c0.67173,-0.05824 1.43943,-0.1248 1.899,0.71536c-0.31654,0.80961 -0.86707,1.15068 -1.44284,1.2006z" data-paper-data="{&quot;index&quot;:null}" fill="#07090a"/><path d="M427.00989,285.17648c-1.63136,0.14145 -3.14991,0.46879 -4.77286,0.70716c-1.24751,0.10816 -2.58255,0.32176 -3.83007,0.42992c-0.57577,0.04992 -1.05558,0.09152 -1.56063,-0.15802c-0.20034,-0.08047 -0.4091,-0.25787 -0.42592,-0.45191c-0.01682,-0.19404 0.05389,-0.49351 0.2374,-0.60726c0.55895,-0.24396 1.1179,-0.48791 1.68525,-0.63495c1.7105,-0.3438 3.42098,-0.6876 5.13988,-0.93448c1.23909,-0.20527 2.39064,-0.30512 3.63814,-0.41329c0.67173,-0.05824 1.34347,-0.11648 1.89901,0.71537c-0.50004,0.92337 -1.3553,1.09518 -2.0102,1.34745z" data-paper-data="{&quot;index&quot;:null}" fill="#07090a"/><path d="M437.99893,271.41583c-1.23909,0.20527 -2.39905,0.208 -3.62972,0.5104c-1.61454,0.33548 -3.33343,0.58237 -4.96479,0.7238c-0.47981,0.0416 -1.064,-0.0056 -1.55224,-0.06111c-0.2963,-0.07196 -0.60102,-0.24123 -0.63466,-0.62931c-0.03365,-0.38807 0.23739,-0.60725 0.51688,-0.72914c0.46297,-0.23583 1.03034,-0.38268 1.50173,-0.52139c1.7105,-0.3438 3.421,-0.6876 5.13989,-0.93448c1.23909,-0.20527 2.39063,-0.30512 3.63814,-0.41328c0.67173,-0.05824 1.35189,-0.01936 1.90743,0.81248c-1.16337,1.07853 -1.16337,1.07853 -1.92266,1.24201z" data-paper-data="{&quot;index&quot;:null}" fill="#060909"/><path d="M432.4279,276.29854c2.66169,-0.52411 5.4362,-0.86232 8.10632,-1.28932c0.56735,-0.14703 1.15155,-0.09984 1.63976,-0.04452c0.39228,0.06383 0.8889,0.21627 0.84343,0.80689c-1.08424,0.87618 -1.08424,0.87618 -2.13142,1.06462c-1.43102,0.22192 -2.95799,0.45216 -4.48498,0.6822c-1.52698,0.23023 -3.06237,0.36336 -4.59775,0.49648c-0.57577,0.04992 -1.25593,0.01105 -1.53199,-0.94269c0.62125,-0.64054 1.38055,-0.80402 2.15664,-0.77366z" data-paper-data="{&quot;index&quot;:null}" fill="#060909"/><path d="M402.39287,292.2972c0.45457,-0.33275 1.01351,-0.57671 1.49333,-0.61831c2.94958,-0.54908 5.90759,-1.00104 8.8656,-1.453c0.57577,-0.04992 1.15154,-0.09983 1.56903,0.25495c0.12961,0.37975 0.06731,0.77633 -0.29971,1.00365c-0.62967,0.54343 -1.38895,0.7071 -2.14824,0.87059c-2.76606,0.43551 -5.6281,0.87915 -8.39418,1.31447c-0.47981,0.0416 -0.95962,0.0832 -1.37711,-0.27159c-0.22559,-0.37162 -0.26767,-0.8568 0.2913,-1.10076z" data-paper-data="{&quot;index&quot;:null}" fill="#070909"/><path d="M419.53986,289.34401c0.64649,-0.34939 1.39737,-0.60999 2.16507,-0.67655c2.58256,-0.32176 5.16511,-0.64352 7.75609,-0.86816c0.47981,-0.0416 0.87207,0.02223 1.36031,0.07775c0.20033,0.08028 0.40907,0.25767 0.52188,0.44359c0.1212,0.28283 -0.04549,0.59042 -0.22057,0.80129c-0.62967,0.54343 -1.38897,0.70691 -2.15666,0.77347c-2.58256,0.32176 -5.16511,0.64352 -7.74769,0.96508c-0.86366,0.07489 -1.5438,0.0362 -2.26602,-0.48786c0.05389,-0.49351 0.22057,-0.80129 0.5876,-1.02861z" data-paper-data="{&quot;index&quot;:null}" fill="#050606"/><path d="M400.80722,286.27517c2.67853,-0.33008 5.2611,-0.65165 7.94804,-0.88461c0.47981,-0.0416 0.87206,0.02204 1.36029,0.07755c0.20034,0.08047 0.4091,0.25787 0.42592,0.45191c0.11278,0.18572 -0.05389,0.49351 -0.14144,0.59894c-0.5253,0.63202 -1.28458,0.7957 -2.05227,0.86227c-2.67011,0.427 -5.27792,0.45761 -7.93962,0.98173c-0.75927,0.16368 -1.54381,0.03602 -2.27444,-0.58497c0.77111,-1.14237 1.72232,-1.32249 2.67352,-1.50281z" data-paper-data="{&quot;index&quot;:null}" fill="#050606"/><path d="M383.08082,295.92694c-6.80808,-3.8094 -13.53703,-7.82115 -20.17842,-11.93816c-2.6633,-1.72461 -5.41413,-3.34359 -8.06901,-4.97107c-0.10438,-0.08879 -0.31313,-0.26619 -0.42592,-0.45191c0.57577,-0.04992 1.23909,-0.20527 1.81487,-0.25519c3.34185,-0.48524 6.59613,-0.86525 9.83363,-1.43909c3.70886,-0.71275 7.5726,-0.75441 11.37742,-1.47548c0.85525,-0.17181 1.74415,0.04446 2.31651,1.07015c0.3552,0.75137 1.09424,1.46947 1.64136,2.2042c3.0908,4.42504 6.17319,8.75296 9.16803,13.18632c0.67673,1.11448 1.53698,2.11541 1.95106,3.546c-3.07919,0.16933 -5.89075,1.19508 -8.79485,1.15373c-0.30473,-0.16927 -0.42592,-0.45191 -0.63468,-0.6295z" data-paper-data="{&quot;index&quot;:null}" fill="#00ff00"/><path d="M343.99943,287.8764c6.41582,3.74557 12.82323,7.39422 19.06394,11.35046c-0.19192,0.01664 -0.47138,0.13871 -0.66331,0.15535c-5.2611,0.65165 -10.42624,1.29498 -15.59136,1.93831c-0.57577,0.04992 -1.23909,0.20527 -1.80644,0.35231c-1.51857,0.32716 -3.04554,0.5574 -4.4934,0.58508c-3.76254,-4.3668 -12.65449,-16.59919 -14.05004,-19.31354c2.53208,-0.90386 5.13988,-0.93448 7.72245,-1.25623c3.27272,2.06276 6.45789,4.23094 9.81817,6.18826z" data-paper-data="{&quot;index&quot;:null}" fill="#00ff00"/><path d="M334.82779,281.33894c2.47817,-0.41056 4.8604,-0.81259 7.34702,-1.12584c3.37708,2.15136 6.85013,4.29439 10.3232,6.43762c4.79629,2.90833 9.58416,5.71953 14.38044,8.62785c1.52357,0.84557 2.95959,1.79657 4.49158,2.73925c-2.77449,0.3384 -5.63653,0.78204 -8.41101,1.12045c-6.24073,-3.95643 -12.74408,-7.59657 -19.06396,-11.35065c-3.2643,-1.96564 -6.44106,-4.03671 -9.71378,-6.09947c0.18352,-0.11356 0.36703,-0.22732 0.64651,-0.3492z" data-paper-data="{&quot;index&quot;:null}" fill="#87ff87"/><path d="M376.83145,297.44645c-4.08246,-2.48119 -8.25252,-4.85732 -12.24744,-7.44394c-4.19527,-2.66709 -8.39896,-5.4313 -12.51511,-8.30095c-1.1229,-0.68481 -2.52525,-1.24755 -3.30637,-2.45082c1.894,-0.45755 3.71728,-0.61563 5.64495,-0.68493c0.10436,0.0886 0.22558,0.37143 0.42592,0.45191c2.75924,1.71609 5.41413,3.34359 8.06901,4.97107c6.64139,4.11699 13.37034,8.12876 20.17842,11.93816c0.20876,0.17759 0.42592,0.45191 0.63468,0.6295c-2.36541,0.59608 -4.69374,0.5046 -6.88405,0.89z" data-paper-data="{&quot;index&quot;:null}" fill="#86ff86"/><path d="M371.29088,298.22017c-1.52357,-0.84557 -2.95959,-1.79656 -4.49156,-2.73906c-4.79629,-2.90833 -9.58416,-5.71973 -14.38046,-8.62804c-3.47305,-2.14303 -6.85015,-4.29458 -10.3232,-6.43762c2.19031,-0.3854 4.38901,-0.67387 6.57932,-1.05927c0.87707,1.19496 2.17505,1.6689 3.30637,2.45083c4.11613,2.86945 8.31982,5.63365 12.5151,8.30075c4.0909,2.57849 8.16498,4.96275 12.24746,7.44413c-1.79804,0.44924 -3.53378,0.50188 -5.45302,0.66828z" data-paper-data="{&quot;index&quot;:null}" fill="#01ff01"/><path d="M265.91875,281.64287c-0.62967,0.54343 -1.40578,0.51288 -2.09434,0.37708c-0.94779,-0.89548 -1.69527,-1.71069 -2.53867,-2.51739c-0.1128,-0.18591 -0.12962,-0.37995 -0.25083,-0.66277c0.65491,-0.25227 1.21386,-0.49623 1.96473,-0.75683c0.8939,1.38899 2.21714,2.15428 2.91911,3.55991z" data-paper-data="{&quot;index&quot;:null}" fill="#589ca0"/><path d="M258.29249,277.31773c-0.7138,-0.42694 -1.2441,-0.96764 -1.71208,-1.90473c1.33507,-0.2134 2.46977,-0.50747 3.61291,-0.70424c0.44274,0.64594 1.05217,0.98428 1.1363,1.95465c-1.13472,0.29388 -2.08592,0.47419 -3.03714,0.65432z" data-paper-data="{&quot;index&quot;:null}" fill="#5ba3a7"/><path d="M255.00477,271.73661c1.14314,-0.19676 2.2526,-0.78199 2.97983,0.91499c-2.37383,0.49896 -2.37382,0.49897 -2.97983,-0.91499z" data-paper-data="{&quot;index&quot;:null}" fill="#56999d"/><path d="M311.47349,286.29681c0.52188,0.44359 0.47641,1.0342 0.03866,1.56099c-0.79635,0.85121 -3.32502,0.67947 -4.05566,0.0583c-0.4175,-0.35479 -0.49323,-1.22824 0.0573,-1.56931c0.55053,-0.34107 1.20544,-0.59335 1.87717,-0.65159c0.95961,-0.0832 1.55221,0.06091 2.08251,0.60161z" data-paper-data="{&quot;index&quot;:null}" fill="#01f4f4"/><path d="M314.35373,293.86879c0.94277,-0.27743 1.83168,-0.06116 2.56233,0.56c0.61784,0.43526 0.59759,1.31684 -0.04048,1.76335c-0.9967,0.77074 -2.15665,0.77347 -3.25431,0.37981c-0.8973,-0.31319 -1.0101,-0.49891 -0.85684,-2.07653c0.47139,-0.13871 1.02192,-0.47978 1.58929,-0.62662z" data-paper-data="{&quot;index&quot;:null}" fill="#35a76d"/><path d="M278.91867,291.07494c0.7222,0.52386 0.60601,1.41396 -0.12803,1.86858c-0.46297,0.23583 -0.93438,0.37435 -1.51015,0.42427c-1.06399,-0.0054 -2.09092,-0.69853 -2.06226,-1.48319c0.04547,-0.59062 1.05057,-1.26443 2.10615,-1.35597c0.47981,-0.0416 1.07241,0.10252 1.59431,0.54629z" data-paper-data="{&quot;index&quot;:null}" fill="#da6694"/><path d="M294.39883,291.19926c-0.86366,0.07489 -1.75256,-0.14138 -2.49161,-0.85948c-0.51346,-0.34647 -0.3013,-1.24488 0.35361,-1.49715c1.39737,-0.60999 2.8368,-0.73479 4.03541,0.82328c-0.29972,1.00365 -0.92938,1.54707 -1.8974,1.53336z" data-paper-data="{&quot;index&quot;:null}" fill="#01f001"/><path d="M291.14042,309.37364c-0.7677,0.06656 -1.45625,-0.06922 -1.97813,-0.51281c-0.20876,-0.17759 -0.32155,-0.3633 -0.43434,-0.54902c-0.1212,-0.28283 -0.05049,-0.5823 0.22058,-0.8013c0.72563,-0.55175 1.60611,-0.43258 2.38223,-0.40204c0.7761,0.03036 1.40236,0.56274 1.66159,1.32243c-0.50846,0.82626 -1.27616,0.89281 -1.85193,0.94273z" data-paper-data="{&quot;index&quot;:null}" fill="#008bda"/><path d="M285.90161,300.24632c-0.66672,1.23116 -0.85024,1.34472 -2.00178,1.44456c-1.34347,0.11648 -2.26601,-0.48785 -2.86362,-1.80489c1.80146,-1.52485 2.96983,-1.43065 4.86542,0.36032z" data-paper-data="{&quot;index&quot;:null}" fill="#ebe502"/><path d="M322.27946,302.76295c0.40068,0.16076 0.80136,0.3217 0.85183,0.90381c-0.05389,0.49351 -0.31654,0.8096 -0.77951,1.04544c-0.64651,0.3492 -1.42261,0.31884 -2.20713,0.19136c-0.68016,-0.03887 -1.28117,-0.28009 -1.6532,-1.22551c1.25091,-1.18397 2.28968,-1.46953 3.78801,-0.91511z" data-paper-data="{&quot;index&quot;:null}" fill="#f30001"/><path d="M304.64766,304.58501c0.75927,-0.16368 1.44785,-0.02769 2.16165,0.39925c0.60942,0.33814 0.58077,1.1228 -0.06572,1.4722c-0.64649,0.34939 -1.42261,0.31884 -2.20713,0.19136c-0.58419,-0.04719 -1.36029,-0.07756 -1.62795,-0.93437c0.97145,-1.06189 1.059,-1.16732 1.73916,-1.12845z" data-paper-data="{&quot;index&quot;:null}" fill="#de93ad"/><path d="M299.84136,299.33104c-0.86366,0.07489 -1.56905,-0.25495 -2.29127,-0.779c-0.5303,-0.5407 -0.48481,-1.13113 0.0573,-1.56931c0.72563,-0.55175 1.58087,-0.72374 2.37381,-0.49916c0.8889,0.21627 1.69026,0.53798 2.08753,1.77453c-1.07583,0.9731 -1.25933,1.08685 -2.22738,1.07294z" data-paper-data="{&quot;index&quot;:null}" fill="#865492"/></g><g stroke="#000000"><path d="M279.32285,237.22052c26.45522,20.28399 26.27482,29.92881 21.35152,36.34998c-4.92331,6.42118 -30.36062,-4.81686 -56.81584,-25.10086c-26.45521,-20.284 44.40335,-34.23223 49.32666,-40.65341c6.69518,-2.34582 6.66095,4.18078 2.15711,10.62062c-5.55428,7.94182 -18.28073,17.04987 -16.01945,18.78368z" fill="#216aff" stroke-width="2"/><path d="M306.55284,242.86655c11.35525,8.7064 13.32093,25.20648 4.39047,36.85396c-8.93047,11.64748 -25.3753,14.0317 -36.73054,5.32529c-11.35525,-8.7064 -13.32092,-25.20649 -4.39045,-36.85397c8.93047,-11.64748 25.37529,-14.03169 36.73054,-5.32529z" fill="#faddbf" stroke-width="2"/><path d="M273.11312,267.3008c11.35525,8.7064 46.32056,-0.063 37.3901,11.58448c-8.93047,11.64748 -25.3753,14.0317 -36.73054,5.32529c-11.35525,-8.7064 -12.01481,-25.61617 -0.65957,-16.90976z" fill="#ef8b89" stroke-width="0"/></g></g></g></svg>