<svg version="1.1" xmlns="http://www.w3.org/2000/svg" xmlns:xlink="http://www.w3.org/1999/xlink" width="224.16409" height="224.16409" viewBox="0,0,224.16409,224.16409"><g transform="translate(-127.91796,-67.91796)"><g data-paper-data="{&quot;isPaintingLayer&quot;:true}" fill-rule="nonzero" stroke-linecap="butt" stroke-linejoin="miter" stroke-miterlimit="10" stroke-dasharray="" stroke-dashoffset="0" style="mix-blend-mode: normal"><path d="M150.92321,292.08204l-23.00525,-201.15884l201.15884,-23.00525l23.00525,201.15884z" data-paper-data="{&quot;index&quot;:null}" fill="none" stroke="none" stroke-width="0"/><path d="M200.4584,190.69659c-2.24806,-19.65712 2.60737,-37.60373 38.44085,-41.47066c51.92407,-5.60332 45.61757,42.23747 45.61757,42.23747c0,0 5.97207,1.58523 4.80394,8.02545c-1.43079,7.8885 -20.10063,19.40179 -42.16575,21.92522c-23.54173,2.69232 -44.44849,-11.06038 -46.69655,-30.7175z" data-paper-data="{&quot;index&quot;:null}" fill="#0088c2" stroke="#000000" stroke-width="2"/><path d="M264.43484,205.62667c-2.23484,0.60432 -2.3623,-3.13279 -3.17315,-7.13166c-0.53044,-2.61597 -0.86952,-5.06803 -0.86952,-5.06803c0,0 -2.81375,2.93411 -3.99844,2.19291c-0.7477,-0.46779 22.11859,-26.72199 22.11859,-26.72199l-12.15722,18.62221c0,0 -0.20421,17.64255 -1.92024,18.10658z" data-paper-data="{&quot;index&quot;:null}" fill="#000000" stroke="none" stroke-width="0.5"/><path d="M246.61011,209.55759c-5.4182,-0.39489 -3.72426,-8.4839 -4.67498,-10.79063c-0.95072,-2.30675 -1.86483,-5.07691 -1.86483,-5.07691l-39.40417,-14.11292l51.58982,14.02449c0,0 -8.56526,-7.08135 -3.94689,-5.57456c4.61834,1.50676 7.24747,8.38037 7.24747,8.38037l-3.75058,-0.84356c0,0 -0.98955,14.30025 -5.19585,13.99368z" data-paper-data="{&quot;index&quot;:null}" fill="#000000" stroke="none" stroke-width="0.5"/><path d="M198.67766,189.03835c-2.32254,-20.30841 2.69378,-38.84965 39.7145,-42.84469c53.64446,-5.78898 47.12899,43.63692 47.12899,43.63692c0,0 6.16994,1.63776 4.96312,8.29135c-1.4782,8.14986 -20.76665,20.04461 -43.56282,22.65167c-24.32174,2.78153 -45.92119,-11.42684 -48.24373,-31.73526z" data-paper-data="{&quot;index&quot;:null}" fill="#1a54c9" stroke="#000000" stroke-width="2"/><path d="M283.08945,174.50601c0.66636,5.8267 0.94065,7.61718 0.55778,6.72065c-0.39059,-0.91461 0.01308,-4.76722 -4.70315,-6.68342c-1.14286,-0.46434 -4.75612,3.73093 -6.19374,3.2717c-0.903,-0.28846 -4.92021,-4.60451 -5.91821,-4.83367c-0.69777,-0.16024 -5.76038,4.91296 -6.48774,4.7673c-1.81406,-0.36327 -6.66123,-5.01378 -8.57926,-5.12856c-1.0562,-0.06319 -3.97373,6.47187 -5.04543,6.46552c-1.3821,-0.00816 -5.73873,-5.47213 -7.11084,-5.31521c-3.64903,0.4173 -3.34735,3.94294 -5.6285,7.25383c-1.48234,2.15148 -7.75989,-5.7404 -9.07147,-3.33817c-1.62883,2.98326 -3.24951,5.86493 -5.16898,7.91237c-1.5059,1.60628 -7.2776,-4.29499 -8.56914,-2.81794c-6.23583,7.13152 -10.15694,12.08809 -11.19862,2.97945c-2.09466,-18.31581 21.4279,-7.06493 41.13785,-20.24792c18.86615,-12.61864 39.66993,-9.29714 41.7646,9.01866z" data-paper-data="{&quot;index&quot;:null}" fill="#133c8f" stroke="#000000" stroke-width="0"/><path d="M284.88605,170.0802c1.34619,11.77104 3.77364,3.99413 -5.79705,0.22612c-1.17119,-0.46108 -4.89088,3.74637 -6.36451,3.29124c-0.92562,-0.28588 -5.03445,-4.59145 -6.0577,-4.81773c-0.71546,-0.1582 -5.92477,4.93178 -6.67061,4.78822c-1.86014,-0.35804 -6.81954,-4.99567 -8.78709,-5.1048c-1.08348,-0.06009 -4.09629,6.48585 -5.19584,6.4827c-1.41801,-0.00406 -5.87166,-5.45691 -7.27993,-5.29586c-3.74514,0.4283 -3.44612,3.95424 -5.79642,7.27304c-1.52729,2.15662 -7.9446,-5.71928 -9.2974,-3.31233c-1.68002,2.98911 -3.35143,5.87658 -5.32689,7.93043c-1.54984,1.6113 -7.45405,-4.2748 -8.78357,-2.79342c-6.41921,7.15248 -10.24961,11.6552 -11.2913,2.54656c-2.09466,-18.3158 15.32316,-43.01528 38.34404,-45.64803c23.02089,-2.63275 46.20964,16.11805 48.3043,34.43386z" data-paper-data="{&quot;index&quot;:null}" fill="#1a54c9" stroke="#000000" stroke-width="2"/><path d="M284.69526,169.51155c1.34619,11.77104 3.77364,3.99413 -5.79705,0.22612c-1.17119,-0.46108 -4.89088,3.74637 -6.36451,3.29124c-0.92561,-0.28588 -5.03445,-4.59145 -6.0577,-4.81773c-0.71544,-0.1582 -5.92477,4.93178 -6.67061,4.78822c-1.86016,-0.35804 -6.81954,-4.99567 -8.78709,-5.1048c-1.08347,-0.06009 -4.09631,6.48585 -5.19585,6.4827c-1.41801,-0.00408 -5.87166,-5.45694 -7.27993,-5.29588c-3.74515,0.42832 -3.44612,3.95424 -5.79642,7.27304c-1.52729,2.15662 -7.9446,-5.71928 -9.2974,-3.31233c-1.68003,2.98911 -3.35145,5.87658 -5.3269,7.93043c-1.54984,1.6113 -7.45405,-4.2748 -8.78357,-2.79342c-6.41921,7.15248 -10.24961,11.6552 -11.2913,2.54656c-2.09468,-18.31581 21.79868,-6.66386 42.06028,-19.90993c19.39421,-12.67902 42.49338,-9.62004 44.58803,8.69576z" data-paper-data="{&quot;index&quot;:null}" fill="#174bb2" stroke="#000000" stroke-width="0"/><path d="M144.60549,281.23501v-202.47005h202.47005v202.47005z" data-paper-data="{&quot;index&quot;:null}" fill="none" stroke="none" stroke-width="0"/><g data-paper-data="{&quot;index&quot;:null}" stroke="none" stroke-width="0.5"><path d="M252.91528,190.29272c0,0 -0.19256,-0.585 0.24665,-0.92444c-0.32073,-0.34828 -0.14832,-0.8485 -0.14832,-0.8485c0.84129,-2.3141 2.83558,-4.19819 3.81842,-6.58551c0.15951,-0.38743 0.93524,-2.38511 1.26527,-2.49068c0.51127,-0.16356 2.05369,0.70521 2.67181,0.97357c2.68882,1.16739 5.42456,3.43653 7.60352,5.43201c0.01791,-0.71973 0.10511,-2.37412 0.18821,-2.75633c0.50435,-2.31983 1.25506,-4.1321 2.23462,-6.27104c0.256,-0.55899 0.46585,-1.84959 1.03835,-2.15533c1.98633,-1.06079 5.89265,1.89358 7.5108,2.78905c0.59637,0.33003 1.91299,0.86291 2.05136,1.68206c0.08949,0.52979 -0.37612,1.00662 -0.56419,1.50994c-1.21835,3.00908 -2.25662,6.10631 -3.49851,9.10841c-0.31864,0.77025 -1.53415,1.44126 -1.18891,2.19995c0.22982,0.50504 1.082,0.34811 1.50939,0.70198c1.98084,1.64007 7.25769,5.37175 2.86018,7.00671c-1.91827,0.80269 -5.06996,4.32566 -6.93306,3.31244c-1.31101,-0.71297 -2.77632,-2.5476 -3.85833,-3.58541c-0.40557,-0.389 -0.78757,-0.80367 -1.14589,-1.23659c-0.18535,-0.22395 -0.39309,-0.96159 -0.52003,-0.70007c-1.18181,2.43483 -2.7608,4.82285 -4.14066,7.18612c-0.27698,0.46059 -1.54456,3.01823 -1.99473,3.10398c-0.6004,0.11437 -1.12668,-0.49482 -1.62631,-0.84684c-0.78918,-0.55603 -4.6615,-3.74395 -4.70769,-4.61793c-0.1111,-2.10219 4.40131,-3.92398 4.27674,-6.16704c-0.0122,-0.21978 -3.23568,-2.51216 -3.53584,-2.76326c-1.08034,-0.83355 -2.16979,-1.53976 -3.13889,-2.51305l-0.27395,-0.54424zM254.62648,189.07562c0,0 -0.07465,0.2166 -0.25885,0.38661c0.11929,0.14881 0.16809,0.29709 0.16809,0.29709l-0.13568,-0.12416c0.91844,0.92862 1.96587,1.59149 2.99625,2.38468c0.88679,0.74179 3.9298,2.61199 4.15133,3.81848c0.47423,2.58267 -3.34727,4.61019 -4.26145,6.28756c-0.23423,0.42978 0.92462,0.36752 1.30167,0.67964c0.77103,0.63826 1.39414,1.29196 2.07894,2.00756c0.15986,0.16704 0.45231,0.44334 0.67646,0.69635c0.24293,-0.53285 0.8436,-1.30315 1.1051,-1.73808c1.06777,-1.82793 2.78454,-6.72177 4.70664,-7.76463c1.83683,-0.99662 4.57041,2.74992 5.74393,3.94377c0.18015,0.18329 1.57527,1.82746 1.73853,1.71943c1.81583,-1.20159 3.16643,-2.7076 5.27798,-3.60289c2.34867,-0.60851 -4.89689,-4.10473 -5.39016,-5.57362c-0.26775,-0.79735 0.92559,-2.65017 1.22968,-3.38499c1.25041,-3.02147 2.29929,-6.13567 3.52323,-9.16561c0.53663,-0.5874 -5.401,-4.3029 -6.64898,-3.76712c-0.83446,0.35825 -0.52208,1.75063 -0.93883,2.55748c-1.09641,2.1227 -1.38005,4.45146 -1.76161,6.77451c-0.09899,0.60264 -0.58363,2.39385 -1.09557,2.53779c-0.58379,0.16413 -1.05174,-0.60403 -1.5776,-0.90604c-2.20904,-2.02677 -5.71301,-5.25895 -8.51763,-6.11474c-0.14359,-0.04383 0.172,0.28082 0.14106,0.42772c-0.16294,0.77353 -0.5793,1.4717 -0.90333,2.19276c-0.85662,1.90627 -2.75146,3.54845 -3.3492,5.43046z" data-paper-data="{&quot;index&quot;:null}" fill="#000000"/><path d="M254.31102,189.45711c0.18419,-0.17 0.25903,-0.3883 0.25903,-0.3883c0.59775,-1.88203 2.50231,-3.54976 3.35893,-5.45602c0.32401,-0.72104 0.74682,-1.42695 0.90976,-2.2005c0.03095,-0.14689 -0.28404,-0.47213 -0.14046,-0.42832c2.80462,0.85579 6.33403,4.07363 8.54308,6.10042c0.52587,0.30202 1.02156,1.07 1.60534,0.90587c0.51194,-0.14395 0.96496,-1.82601 1.06395,-2.42865c0.38157,-2.32305 0.6993,-4.76028 1.79571,-6.88298c0.41675,-0.80685 0.10503,-2.19904 0.93949,-2.55729c1.24798,-0.53579 7.20977,3.19448 6.67314,3.78188c-1.22392,3.02995 -2.258,6.17194 -3.5084,9.19341c-0.30411,0.73482 -1.49831,2.61477 -1.23055,3.41213c0.49326,1.4689 7.73224,4.97995 5.38357,5.58848c-2.11154,0.89529 -3.48146,2.42012 -5.29729,3.62169c-0.16325,0.10803 -1.56138,-1.53452 -1.74152,-1.71778c-1.17353,-1.19385 -3.94379,-4.9352 -5.78063,-3.93859c-1.92212,1.04287 -3.65092,5.93296 -4.71868,7.76089c-0.2615,0.43493 -0.86316,1.20478 -1.10609,1.73763c-0.22414,-0.253 -0.5195,-0.53076 -0.67935,-0.69779c-0.6848,-0.71561 -1.3165,-1.37494 -2.08754,-2.0132c-0.37704,-0.3121 -1.53981,-0.25327 -1.30559,-0.68306c0.91416,-1.67739 4.72993,-3.71125 4.25572,-6.29394c-0.22154,-1.20649 -3.276,-3.10463 -4.16277,-3.84642c-1.03038,-0.79318 -2.07806,-1.46733 -2.9965,-2.39594l0.13564,0.12462c0,0 -0.0487,-0.14943 -0.16799,-0.29824z" data-paper-data="{&quot;noHover&quot;:false,&quot;origItem&quot;:[&quot;Path&quot;,{&quot;applyMatrix&quot;:true,&quot;segments&quot;:[[[295.93786,364.06695],[0.40114,-0.1827],[0.11743,0.31415]],[296.05529,364.6556],[[295.89692,364.3736],[0,0],[1.02358,2.05611]],[[299.59064,370.00433],[-1.285,-1.89145],[1.0734,1.72663]],[[304.42542,378.66513],[0.29331,-2.13708],[-0.62789,4.57478]],[[293.85015,386.82469],[2.44926,-2.29923],[-0.62756,0.58912]],[[295.65073,388.67563],[-0.4582,-0.72866],[0.93699,1.49006]],[[298.01953,393.17205],[-0.75042,-1.57185],[0.17517,0.36691]],[[298.7666,394.70715],[-0.23531,-0.54585],[0.69877,-0.7565]],[[301.56817,392.41152],[-0.67594,0.58272],[2.78861,-2.46623]],[[313.6992,382.02948],[-3.78403,0.68516],[3.61619,-0.65477]],[[321.12535,391.77523],[-1.30381,-2.63943],[0.20015,0.40518]],[[323.08395,395.60321],[-0.33209,0.09069],[3.69378,-1.00871]],[[333.88111,392.48699],[-4.01932,0.33451],[4.25774,0.2749]],[[327.94204,380.2133],[0.0163,2.72483],[-0.00885,-1.4791]],[[331.85722,375.23521],[-0.91198,1.06023],[3.74992,-4.3595]],[[342.7818,361.86233],[-3.71034,4.38821],[1.21936,-0.68613]],[[333.74676,351.91405],[2.37919,-0.20879],[-1.59085,0.13961]],[[330.77239,355.66982],[1.13975,-1.1186],[-2.99853,2.94289]],[[324.10505,366.01721],[1.91462,-3.67058],[-0.49669,0.95222]],[[320.8797,369.65391],[0.93428,0.04105],[-1.06539,-0.04681]],[[318.74268,367.27308],[0.71234,0.79361],[-2.57556,-4.60008]],[[307.87708,352.37596],[4.21423,2.97154],[-0.21576,-0.15214]],[[307.87754,353.16798],[0.13246,-0.22837],[-0.69747,1.20251]],[[305.16303,356.33405],[0.93769,-1.02628],[-2.47899,2.71319]],[[296.58279,363.56348],[2.03325,-2.81502],[0,0]]],&quot;closed&quot;:true}],&quot;index&quot;:null}" fill="#ffffff"/></g><g data-paper-data="{&quot;index&quot;:null}" stroke="none" stroke-width="0.5"><path d="M221.98732,198.40036c0,0 -0.19255,-0.58499 0.24666,-0.92444c-0.32073,-0.34829 -0.14833,-0.8485 -0.14833,-0.8485c0.84129,-2.3141 2.83561,-4.19819 3.81844,-6.58551c0.1595,-0.38743 0.93523,-2.38508 1.26525,-2.49068c0.51124,-0.16355 2.05367,0.70522 2.67179,0.97358c2.68881,1.1674 5.42456,3.43653 7.60352,5.43201c0.01791,-0.71973 0.10511,-2.37412 0.18821,-2.75633c0.50435,-2.31983 1.25506,-4.1321 2.23462,-6.27104c0.25599,-0.55898 0.46585,-1.84956 1.03835,-2.1553c1.98631,-1.06079 5.89263,1.89355 7.5108,2.78905c0.59638,0.33003 1.91297,0.86289 2.05136,1.68206c0.08949,0.52979 -0.37612,1.00662 -0.56419,1.50994c-1.21837,3.00908 -2.25661,6.10631 -3.49851,9.10841c-0.31863,0.77025 -1.53416,1.44126 -1.18891,2.19995c0.22982,0.50504 1.082,0.34811 1.50939,0.70198c1.98083,1.64006 7.25768,5.37173 2.86016,7.00671c-1.91827,0.80269 -5.06995,4.32566 -6.93304,3.31244c-1.31101,-0.71297 -2.77632,-2.54758 -3.85833,-3.5854c-0.40557,-0.389 -0.78759,-0.80368 -1.14589,-1.2366c-0.18535,-0.22395 -0.39309,-0.96159 -0.52003,-0.70007c-1.18181,2.43484 -2.7608,4.82286 -4.14066,7.18615c-0.27698,0.46059 -1.54456,3.01822 -1.99473,3.10397c-0.6004,0.11437 -1.12666,-0.4948 -1.6263,-0.84683c-0.78918,-0.55603 -4.66151,-3.74395 -4.7077,-4.61793c-0.11111,-2.10222 4.40131,-3.92398 4.27674,-6.16704c-0.01221,-0.21978 -3.23568,-2.51215 -3.53585,-2.76326c-1.08033,-0.83355 -2.16977,-1.53979 -3.13887,-2.51306zM223.43963,197.56991c0.11929,0.14881 0.16809,0.29709 0.16809,0.29709l-0.13567,-0.12416c0.91846,0.9286 1.96587,1.5915 2.99625,2.38468c0.88679,0.74179 3.9298,2.61199 4.15133,3.81848c0.47423,2.58268 -3.34727,4.61019 -4.26145,6.28756c-0.23423,0.42978 0.92462,0.36753 1.30167,0.67964c0.77103,0.63826 1.39413,1.29196 2.07892,2.00756c0.15986,0.16705 0.4523,0.44334 0.67646,0.69635c0.24293,-0.53285 0.8436,-1.30315 1.1051,-1.73808c1.06776,-1.82793 2.78452,-6.72177 4.70664,-7.76463c1.83685,-0.9966 4.5704,2.74992 5.74393,3.94379c0.18013,0.18326 1.57526,1.82745 1.73851,1.71942c1.81583,-1.20159 3.16643,-2.7076 5.27798,-3.60289c2.34866,-0.60851 -4.8969,-4.10473 -5.39016,-5.57362c-0.26775,-0.79735 0.92559,-2.65015 1.22968,-3.38498c1.25041,-3.02147 2.29929,-6.13567 3.52323,-9.16561c0.53663,-0.5874 -5.401,-4.3029 -6.64898,-3.76712c-0.83446,0.35825 -0.52208,1.75063 -0.93883,2.55748c-1.09641,2.1227 -1.38005,4.45146 -1.76161,6.77451c-0.09899,0.60264 -0.58363,2.39384 -1.09557,2.53779c-0.58379,0.16414 -1.05174,-0.60403 -1.5776,-0.90604c-2.20904,-2.02679 -5.713,-5.25895 -8.51761,-6.11475c-0.14361,-0.04383 0.172,0.28082 0.14106,0.42772c-0.16293,0.77353 -0.57929,1.47171 -0.9033,2.19276c-0.85662,1.90627 -2.75146,3.54845 -3.3492,5.43046c0,0 -0.07465,0.2166 -0.25885,0.38661z" data-paper-data="{&quot;index&quot;:null}" fill="#000000"/><path d="M223.38302,197.56477c0.18419,-0.17 0.25903,-0.3883 0.25903,-0.3883c0.59776,-1.88203 2.50231,-3.54976 3.35893,-5.45602c0.32401,-0.72104 0.74683,-1.42695 0.90976,-2.2005c0.03093,-0.14691 -0.28404,-0.47216 -0.14046,-0.42834c2.80462,0.8558 6.33403,4.07363 8.54308,6.10042c0.52586,0.30201 1.02154,1.07002 1.60533,0.90587c0.51194,-0.14395 0.96496,-1.82601 1.06395,-2.42865c0.38157,-2.32305 0.6993,-4.76028 1.79571,-6.88298c0.41675,-0.80683 0.105,-2.19903 0.93947,-2.55728c1.24798,-0.53579 7.20979,3.19447 6.67315,3.78188c-1.22392,3.02995 -2.258,6.17194 -3.5084,9.19341c-0.30411,0.73482 -1.49831,2.61477 -1.23055,3.41213c0.49326,1.4689 7.73224,4.97997 5.38357,5.58849c-2.11154,0.89531 -3.48145,2.42012 -5.29728,3.62169c-0.16325,0.10804 -1.56138,-1.53452 -1.74152,-1.71778c-1.17352,-1.19388 -3.94377,-4.93518 -5.78062,-3.93859c-1.92212,1.04287 -3.65091,5.93294 -4.71868,7.76086c-0.2615,0.43493 -0.86317,1.20479 -1.1061,1.73764c-0.22416,-0.25299 -0.5195,-0.53074 -0.67935,-0.69779c-0.6848,-0.71561 -1.31649,-1.37494 -2.08753,-2.0132c-0.37704,-0.31213 -1.53981,-0.25328 -1.30559,-0.68307c0.91416,-1.67739 4.72993,-3.71125 4.25572,-6.29394c-0.22154,-1.20647 -3.276,-3.10462 -4.16277,-3.84641c-1.03037,-0.79319 -2.07804,-1.46736 -2.9965,-2.39596l0.13564,0.12462c0,0 -0.0487,-0.14943 -0.16799,-0.29824z" data-paper-data="{&quot;noHover&quot;:false,&quot;origItem&quot;:[&quot;Path&quot;,{&quot;applyMatrix&quot;:true,&quot;segments&quot;:[[[295.93786,364.06695],[0.40114,-0.1827],[0.11743,0.31415]],[296.05529,364.6556],[[295.89692,364.3736],[0,0],[1.02358,2.05611]],[[299.59064,370.00433],[-1.285,-1.89145],[1.0734,1.72663]],[[304.42542,378.66513],[0.29331,-2.13708],[-0.62789,4.57478]],[[293.85015,386.82469],[2.44926,-2.29923],[-0.62756,0.58912]],[[295.65073,388.67563],[-0.4582,-0.72866],[0.93699,1.49006]],[[298.01953,393.17205],[-0.75042,-1.57185],[0.17517,0.36691]],[[298.7666,394.70715],[-0.23531,-0.54585],[0.69877,-0.7565]],[[301.56817,392.41152],[-0.67594,0.58272],[2.78861,-2.46623]],[[313.6992,382.02948],[-3.78403,0.68516],[3.61619,-0.65477]],[[321.12535,391.77523],[-1.30381,-2.63943],[0.20015,0.40518]],[[323.08395,395.60321],[-0.33209,0.09069],[3.69378,-1.00871]],[[333.88111,392.48699],[-4.01932,0.33451],[4.25774,0.2749]],[[327.94204,380.2133],[0.0163,2.72483],[-0.00885,-1.4791]],[[331.85722,375.23521],[-0.91198,1.06023],[3.74992,-4.3595]],[[342.7818,361.86233],[-3.71034,4.38821],[1.21936,-0.68613]],[[333.74676,351.91405],[2.37919,-0.20879],[-1.59085,0.13961]],[[330.77239,355.66982],[1.13975,-1.1186],[-2.99853,2.94289]],[[324.10505,366.01721],[1.91462,-3.67058],[-0.49669,0.95222]],[[320.8797,369.65391],[0.93428,0.04105],[-1.06539,-0.04681]],[[318.74268,367.27308],[0.71234,0.79361],[-2.57556,-4.60008]],[[307.87708,352.37596],[4.21423,2.97154],[-0.21576,-0.15214]],[[307.87754,353.16798],[0.13246,-0.22837],[-0.69747,1.20251]],[[305.16303,356.33405],[0.93769,-1.02628],[-2.47899,2.71319]],[[296.58279,363.56348],[2.03325,-2.81502],[0,0]]],&quot;closed&quot;:true}],&quot;index&quot;:null}" fill="#ffffff"/></g></g></g></svg>