<svg version="1.1" xmlns="http://www.w3.org/2000/svg" xmlns:xlink="http://www.w3.org/1999/xlink" width="259.31017" height="279.2091" viewBox="0,0,259.31017,279.2091"><g transform="translate(-184.08973,-81.77831)"><g data-paper-data="{&quot;isPaintingLayer&quot;:true}" fill-rule="nonzero" stroke-linecap="butt" stroke-linejoin="miter" stroke-miterlimit="10" stroke-dasharray="" stroke-dashoffset="0" style="mix-blend-mode: normal"><g data-paper-data="{&quot;index&quot;:null}" stroke="#000000"><path d="M350.23846,228.75236c1.7149,-2.27565 -12.98461,-7.64627 -20.46143,-13.8123c-6.06277,-4.99988 -7.84213,-11.27934 -0.76339,-10.81055c6.46195,4.86966 78.46897,-0.65092 58.40598,25.97229c-20.063,26.62321 -41.56572,44.25795 -48.02767,39.38828c-6.46195,-4.86966 -9.2165,-14.11453 10.8465,-40.73773z" fill="#216aff" stroke-width="2"/><path d="M362.32825,236.78149c11.72144,8.83317 14.24251,25.25757 5.63096,36.68492c-8.61155,11.42735 -25.0947,13.53035 -36.81614,4.69718c-11.72144,-8.83317 -14.2425,-25.25756 -5.63095,-36.68491c8.61155,-11.42735 25.09469,-13.53036 36.81613,-4.69719z" fill="#faddbf" stroke-width="2"/><path d="M368.15975,272.54383c-8.61154,11.42736 -25.09469,13.53036 -36.81613,4.69719c-11.72144,-8.83317 24.31541,-9.73949 32.92696,-21.16684c8.61155,-11.42737 12.50072,5.0423 3.88917,16.46965z" fill="#ef8b89" stroke-width="0"/></g><g stroke="#000000"><path d="M327.76518,340.83535v-95.29492h29.49199v95.29492z" fill="#73fffc" stroke-width="2"/><path d="M327.43943,340.21742l1.32626,-93.78573c0,0 5.20288,68.11227 6.3799,77.52842c0.2602,2.08162 2.52228,2.78987 2.52228,2.78987l18.60659,13.13896z" fill="#59a9e6" stroke-width="0"/></g><g stroke="#000000"><path d="M288.4238,338.4128v-95.29492h29.49199v95.29492z" fill="#73fffc" stroke-width="2"/><path d="M288.09805,337.7949l1.32626,-93.78573c0,0 5.20288,68.11227 6.3799,77.52842c0.2602,2.08162 2.52228,2.78987 2.52228,2.78987l18.60659,13.13896z" fill="#59a9e6" stroke-width="0"/></g><g stroke="#000000"><path d="M355.22917,235.69588c0,13.80271 10.04743,36.74388 4.95001,46.45977c-6.2338,11.88187 -28.61241,9.09579 -38.9397,9.09579c-13.66287,0 -32.94407,4.17018 -38.34426,-14.83216c-2.01935,-7.10576 4.35457,-32.37264 4.35457,-40.7234c0,-30.68249 15.2177,-55.55556 33.98969,-55.55556c18.77199,0 33.98969,24.87307 33.98969,55.55556z" fill="#216aff" stroke-width="2"/><path d="M303.96554,251.27246c0,13.80271 62.04198,20.54886 56.94455,30.26474c-6.2338,11.88186 -28.61241,9.09579 -38.9397,9.09579c-13.66287,0 -32.94406,4.17018 -38.34425,-14.83215c-2.01936,-7.10576 4.35457,-32.37265 4.35457,-40.7234c0,-9.45244 3.34855,-28.59801 5.51953,-29.96813c5.94391,-16.76415 10.4653,25.13995 10.4653,46.16315z" fill="#3236f4" stroke-width="0"/></g><g stroke="#000000"><g><path d="M271.77146,160.02468c5.68342,-46.44434 47.94131,-79.4876 94.38565,-73.80418c46.44434,5.68342 79.4876,47.94131 73.80418,94.38565c-5.68342,46.44434 -47.94131,79.4876 -94.38565,73.80418c-46.44434,-5.68342 -79.4876,-47.94131 -73.80418,-94.38565z" fill="#faddbf" stroke-width="2"/><path d="M272.10613,159.18964c1.82856,-14.94281 13.57458,-39.65596 18.44064,-42.29865c0.55571,-0.30181 6.82586,-8.14147 15.10651,-13.8948c10.29228,-7.15099 22.99788,-12.45521 23.58019,-12.18542c7.59743,3.51989 -25.27433,62.24587 -27.11642,87.49903c-0.0044,0.06022 1.98178,20.09105 3.53496,20.7233c2.28809,5.05784 6.71701,20.11821 16.65048,28.52717c18.51219,15.67108 46.18905,25.47911 44.65531,25.80093c-2.45342,0.51479 -15.02945,0.95053 -21.04747,0.2141c-46.44434,-5.68342 -79.4876,-47.94131 -73.80418,-94.38565z" fill="#ef8b89" stroke-width="0"/><path d="M439.49739,180.08776c-1.41194,11.53827 -3.46598,15.33325 -3.78902,13.42818c-0.32957,-1.94352 1.00671,-9.76363 -7.19626,-15.63914c-1.98774,-1.42375 -10.89299,4.98989 -13.45123,3.43953c-1.60686,-0.97381 -7.35212,-11.15113 -9.16952,-12.05459c-1.27069,-0.63169 -13.3755,6.8033 -14.70994,6.18599c-3.32816,-1.53959 -10.51826,-12.74552 -14.16177,-13.85429c-2.00637,-0.61057 -10.65339,10.6345 -12.71596,10.12636c-2.65995,-0.65531 -8.52819,-13.20205 -11.24531,-13.53455c-7.22595,-0.88424 -8.27596,6.05035 -14.20454,11.37589c-3.85253,3.46067 -12.29951,-14.65434 -15.93891,-10.63141c-4.51971,4.996 -8.97673,9.79992 -13.62358,12.85776c-3.64563,2.399 -12.0388,-11.64538 -15.21146,-9.39631c-15.31849,10.8591 -24.56646,17.7915 -22.35923,-0.24578c4.43833,-36.2696 43.96478,-2.89477 88.05229,-19.18204c42.20013,-15.59001 84.16278,0.8548 79.72445,37.1244z" fill="#ef8b89" stroke-width="0"/></g><path d="M442.02938,172.02471c-2.85239,23.30946 5.42474,9.44415 -11.2774,-2.2467c-2.04385,-1.43062 -11.15984,4.95723 -13.78939,3.39815c-1.65166,-0.97929 -7.57833,-11.17881 -9.44577,-12.0884c-1.30568,-0.63597 -13.70103,6.76346 -15.07205,6.14168c-3.41942,-1.55076 -10.8317,-12.78387 -14.57329,-13.90465c-2.06038,-0.61718 -10.89609,10.6048 -13.01381,10.08991c-2.73106,-0.66401 -8.79144,-13.23427 -11.58013,-13.57552c-7.41629,-0.90753 -8.47152,6.02642 -14.53705,11.3352c-3.94153,3.44978 -12.66524,-14.69909 -16.38632,-10.68616c-4.62113,4.98359 -9.17857,9.77522 -13.9363,12.81949c-3.73262,2.38835 -12.38821,-11.68814 -15.63606,-9.44827c-15.68155,10.81467 -25.14752,17.7204 -22.94028,-0.31688c4.43833,-36.2696 49.43732,-75.81343 95.02411,-70.23496c45.58678,5.57848 81.60211,52.44751 77.16379,88.71711z" fill="#724e36" stroke-width="2"/><path d="M441.92472,170.84044c-2.85239,23.30946 5.42474,9.44415 -11.2774,-2.2467c-2.04385,-1.43062 -11.15984,4.95723 -13.78939,3.39815c-1.65166,-0.97929 -7.57833,-11.17881 -9.44578,-12.0884c-1.30568,-0.63597 -13.70103,6.76346 -15.07205,6.14168c-3.41942,-1.55076 -10.8317,-12.78387 -14.57329,-13.90465c-2.06038,-0.61718 -10.89609,10.6048 -13.01381,10.08991c-2.73106,-0.66401 -8.79144,-13.23427 -11.58013,-13.57552c-7.41629,-0.90753 -8.47152,6.02642 -14.53705,11.3352c-3.94153,3.44978 -12.66524,-14.69909 -16.38632,-10.68616c-4.62113,4.98359 -9.17857,9.77522 -13.93631,12.81949c-3.73262,2.38835 -12.38821,-11.68814 -15.63606,-9.44827c-15.68155,10.81467 -25.14752,17.7204 -22.94028,-0.31688c4.43833,-36.2696 45.09655,-2.75627 90.27651,-18.90986c43.2458,-15.46205 86.3497,1.12242 81.91137,37.39201z" fill="#623728" stroke-width="0"/></g><g stroke="#000000"><path d="M371.78022,195.33599c-3.46889,28.34748 -18.32893,41.36947 -34.77479,39.35698c-16.44586,-2.01249 -28.24985,-18.29737 -24.78096,-46.64484c3.46889,-28.34748 19.613,-49.69621 36.05886,-47.68372c16.44586,2.01249 26.96578,26.6241 23.49688,54.97159z" fill="#f0f0f0" stroke-width="2"/><path d="M327.74924,170.21943c-7.70003,27.50132 26.43421,65.73916 9.98834,63.72667c-16.44586,-2.01249 -28.24985,-18.29737 -24.78096,-46.64484c3.46889,-28.34748 25.92458,-56.84061 14.79261,-17.08183z" fill="#9a99ff" stroke-width="0"/></g><path d="M351.14534,213.16204c-1.92184,12.52204 -8.13398,22.21906 -13.87522,21.6589c-5.74123,-0.56017 -8.83747,-11.1654 -6.91563,-23.68744c1.92184,-12.52204 8.13398,-22.21906 13.87522,-21.6589c5.74123,0.56017 8.83747,11.1654 6.91563,23.68744z" fill="#000000" stroke="none" stroke-width="0"/><g stroke="#000000"><path d="M370.45615,164.91525c3.18388,10.69573 -11.53984,12.81482 -27.13378,10.90659c-15.59394,-1.90824 -26.41492,-7.90857 -20.73586,-16.90056c5.40355,-8.55574 9.3411,-20.43562 24.93504,-18.52738c15.59394,1.90824 19.9003,14.32818 22.93458,24.52135z" fill="#a100fe" stroke-width="2"/><path d="M369.58175,164.45135c3.03295,10.67726 -11.20485,12.85582 -26.26707,11.01265c-15.06222,-1.84317 -25.49501,-7.796 -19.96977,-16.80682c5.25719,-8.57365 6.39282,1.7515 21.45504,3.59467c15.06222,1.84317 21.89135,-7.97608 24.78179,2.19949z" fill="#99008e" stroke-width="0"/></g><g data-paper-data="{&quot;index&quot;:null}" stroke="#000000"><path d="M411.71777,146.63725c16.44586,2.01249 26.96578,26.6241 23.49688,54.97159c-3.46889,28.34747 -18.85135,41.30554 -35.29722,39.29305c-16.44586,-2.01249 -27.72743,-18.23343 -24.25853,-46.58091c3.46889,-28.34748 19.613,-49.69621 36.05886,-47.68372z" fill="#f0f0f0" stroke-width="2"/><path d="M434.68419,200.70746c-3.46889,28.34747 -18.85135,41.30554 -35.29722,39.29305c-16.44586,-2.01249 25.90147,-30.89125 25.06004,-59.43779c-1.21646,-41.26986 13.70607,-8.20274 10.23718,20.14474z" fill="#9a99ff" stroke-width="0"/></g><path d="M398.36891,191.67247c5.74123,0.57441 8.83747,11.44921 6.91563,24.28956c-1.92184,12.84035 -8.13398,22.78386 -13.87522,22.20945c-5.74123,-0.57441 -8.83747,-11.44921 -6.91563,-24.28956c1.92184,-12.84035 8.13398,-22.78386 13.87522,-22.20945z" data-paper-data="{&quot;index&quot;:null}" fill="#000000" stroke="none" stroke-width="0"/><g data-paper-data="{&quot;index&quot;:null}" stroke="#000000"><path d="M384.27927,165.1171c5.40263,-9.16074 12.57674,-20.17581 28.17068,-18.26757c15.59394,1.90824 16.55071,14.38704 19.73177,23.99328c3.34325,10.09606 -8.6053,13.31007 -24.19923,11.40184c-15.59394,-1.90824 -29.37223,-7.51513 -23.70323,-17.12753z" fill="#a100fe" stroke-width="2"/><path d="M385.23973,164.87775c5.25879,-9.17834 9.51869,1.99787 24.58091,3.84105c15.06222,1.84317 18.65405,-7.90348 21.68875,1.68486c3.18943,10.07724 -8.37092,13.33875 -23.43315,11.49558c-15.06222,-1.84317 -28.35459,-7.3906 -22.83652,-17.02148z" fill="#99008e" stroke-width="0"/></g><path d="M391.63632,338.87004c0,11.6628 -14.51982,21.11737 -32.43092,21.11737c-17.9111,0 -32.43092,-9.45457 -32.43092,-21.11737c0,-2.33142 -0.03339,-13.76009 1.08979,-15.13837c4.49546,-5.51647 17.81784,5.26144 32.14847,5.26144c17.9111,0 31.62358,-1.78588 31.62358,9.87692z" fill="#000082" stroke="#000000" stroke-width="2"/><path d="M389.75004,336.13774c0,6.30841 -13.89058,10.1901 -31.80169,10.1901c-17.9111,0 -30.16566,-2.95748 -30.16566,-9.26589c0,-1.26107 -0.03338,-12.52602 1.0898,-13.27153c4.49546,-2.98386 15.55258,5.7726 29.88321,5.7726c17.9111,0 30.99434,0.26631 30.99434,6.57472z" fill="#2e0048" stroke="#000000" stroke-width="0"/><path d="M348.64938,338.22521c0,11.6628 -14.51982,21.11737 -32.43092,21.11737c-17.9111,0 -32.43092,-9.45457 -32.43092,-21.11737c0,-2.33142 -0.03339,-13.76009 1.08979,-15.13837c4.49546,-5.51647 17.81784,5.26144 32.14847,5.26144c17.9111,0 31.62358,-1.78588 31.62358,9.87692z" fill="#000082" stroke="#000000" stroke-width="2"/><path d="M346.7631,335.49289c0,6.30841 -13.89058,10.1901 -31.80169,10.1901c-17.9111,0 -30.16566,-2.95748 -30.16566,-9.26589c0,-1.26107 -0.03338,-12.52602 1.0898,-13.27153c4.49546,-2.98386 15.55258,5.7726 29.88321,5.7726c17.9111,0 30.99434,0.26631 30.99434,6.57472z" fill="#2e0048" stroke="#000000" stroke-width="0"/><path d="M311.31858,218.18794c0.76999,0.9847 -0.21472,1.75468 -0.21472,1.75468l-0.10795,0.00299c-1.57971,2.38103 -3.05639,5.02264 -5.95987,6.02743c-3.01015,1.04171 -6.70603,-0.42557 -6.97957,-3.82743c-0.3668,-4.56158 4.44623,-8.45179 6.90631,-11.69281c0,0 0.75631,-0.99522 1.75155,-0.2389c0.99522,0.75632 0.23891,1.75155 0.23891,1.75155c-2.07872,2.73223 -6.52038,6.22056 -6.40091,10.03618c0.05339,1.70523 2.34305,2.10177 3.69144,1.60028c2.29476,-0.85348 3.41403,-3.14403 4.66843,-5.03766l0.65171,-0.59103c0,0 0.9847,-0.76998 1.75467,0.21472z" fill="#000000" stroke="none" stroke-width="0.5"/><g stroke="none" stroke-width="1"><path d="M398.33239,339.25416c-2.87631,-0.29411 -5.83488,-0.69781 -8.72436,-0.89551c-7.01965,-0.56452 -14.13471,-1.14226 -21.15434,-1.70697c-5.57491,-0.46576 -11.24524,-0.94454 -16.82015,-1.4103c-9.41875,-0.7937 -18.8375,-1.5874 -28.26942,-2.28452c-7.40137,-0.6168 -14.72049,-1.124 -22.13506,-1.64403c-6.25612,-0.46053 -12.59453,-1.03047 -18.85064,-1.491c-9.89594,-0.85882 -19.80506,-1.62104 -29.70099,-2.47985c-8.16491,-0.7208 -16.41206,-1.5512 -24.56376,-2.36876c-2.68544,-0.26806 -5.45313,-0.64571 -8.23401,-0.9268c-0.95437,-0.13023 -1.67837,-0.52396 -2.24108,-1.38722c-0.2468,-0.32863 -0.39817,-0.64423 -0.64497,-0.97286c-1.94812,-2.8218 -3.59676,-5.70092 -5.35397,-8.49687c-4.61356,-7.51099 -9.33574,-14.9384 -13.94927,-22.44957c-1.81316,-3.09833 -3.73494,-6.1131 -5.45266,-9.19841c-2.41865,-4.36056 -4.85044,-8.62471 -7.37768,-12.9019c-0.7141,-1.17865 -1.15502,-2.22206 -0.3026,-3.48192c0.24356,-0.3601 0.21397,-0.85566 0.37526,-1.32517c1.08297,-4.37426 2.45225,-8.70967 3.90381,-12.93545c1.12896,-3.28658 1.21126,-3.17716 4.71285,-3.19088c4.86407,-0.02437 9.68862,0.24082 14.51319,0.50582c7.52317,0.43667 14.95087,0.8605 22.3786,1.28413c7.42773,0.42363 14.95087,0.86049 22.37861,1.28412c4.72914,0.25198 9.54052,0.61375 14.26966,0.86573c2.12596,0.09352 4.15649,0.17402 6.26929,0.36395c3.46209,0.27584 6.91104,0.64808 10.39946,0.73095c4.64686,0.14256 9.17195,0.46508 13.80565,0.70402c6.07842,0.33791 12.25228,0.68882 18.41297,1.13634c7.12826,0.48096 14.25651,0.96211 21.38474,1.44327c4.42964,0.3095 8.94156,0.72859 13.37121,1.03808c4.52507,0.3227 9.0765,0.45205 13.60157,0.77475c5.09771,0.40065 10.29088,0.81432 15.38859,1.21497c1.04982,0.14326 2.09963,0.2865 3.14945,0.42975c1.7047,0.33099 2.86639,1.07923 3.4883,2.93358c1.14834,3.6959 2.583,7.43067 3.92224,11.15242c1.10559,3.29673 2.51067,6.53594 3.61626,9.83267c1.7966,5.35709 3.5109,10.60477 5.41611,15.8783c2.59618,7.33409 4.98835,14.73852 7.4891,22.05958c0.34551,1.03019 0.51328,1.93792 0.27299,2.98655c-0.57279,2.77276 -1.13238,5.44895 -1.70517,8.2217c-0.10535,0.77209 -0.30614,1.53116 -0.60238,2.2772c-0.60562,1.58848 -0.7604,3.43525 -2.19862,4.71356c-1.55336,-0.0152 -2.99808,-0.11416 -4.23877,-0.28345zM399.343,333.98518c-2.36922,-5.43523 -4.43895,-10.92798 -6.50871,-16.42054c-1.66829,-4.15999 -3.13256,-8.39031 -4.69224,-12.63385c-1.97429,-5.47972 -3.86633,-10.84984 -5.8538,-16.23298c-1.15828,-2.91059 -2.41199,-5.8342 -3.57024,-8.74498c-1.58294,-0.51094 -8.20765,-1.11996 -11.04118,-1.01509c-0.23038,0.26351 -0.17445,0.5661 -0.02309,0.8817c1.76373,4.173 3.02394,8.47388 4.58365,12.71722c0.70416,1.96396 1.81643,3.78686 2.31653,5.82137c0.11188,0.60496 0.31916,1.22316 0.43101,1.82832c0.18097,0.81117 -0.18435,1.35101 -0.9051,1.64599c-0.5167,0.22445 -1.11566,0.33928 -1.78372,0.24812c-5.21949,-0.22069 -10.43896,-0.44139 -15.63212,-0.85507c-6.447,-0.48658 -12.81173,-0.86354 -19.13698,-1.52988c-4.30785,-0.48964 -8.5598,-0.67649 -12.89402,-0.97296c-4.90681,-0.37479 -9.81365,-0.74941 -14.70733,-1.22039c-5.46629,-0.54932 -10.83714,-1.08562 -16.31661,-1.53836c-3.25807,-0.3462 -6.63787,-0.51262 -9.90912,-0.76223c-4.32103,-0.39304 -8.5598,-0.6765 -12.88083,-1.06954c-6.43384,-0.58297 -12.86769,-1.16593 -19.30151,-1.7491c-5.95666,-0.51785 -11.9824,-1.24171 -17.93906,-1.75956c-4.33421,-0.29647 -8.76386,-0.60596 -13.09804,-0.90261c-0.39493,0.04449 -0.77669,-0.00759 -1.15844,-0.05969c-1.64878,-0.02841 -2.6064,-0.84717 -3.48503,-2.24505c-3.38943,-5.08292 -6.34444,-10.49989 -9.52985,-15.65317c-2.07312,-3.33056 -2.07312,-3.33056 -5.84789,-3.45231c-4.06105,-0.16101 -8.12213,-0.32182 -12.19636,-0.38625c-0.38175,-0.0521 -0.77668,-0.00761 -1.12884,0.43586c0.93455,1.70046 1.85594,3.49731 2.88593,5.21079c5.26179,9.17237 10.74079,18.17782 16.43699,27.01632c3.91263,6.23573 7.93389,12.3879 11.62932,18.79057c0.54955,0.95965 1.2077,1.83593 1.77041,2.69918c2.06011,0.57606 4.02155,0.45056 6.03892,0.62745c5.7526,0.58839 11.51836,1.08019 17.28415,1.57201c5.47947,0.45274 10.85032,0.98904 16.32979,1.44178c4.70279,0.44514 9.29698,0.97365 14.01294,1.32221c8.66841,0.59312 17.33682,1.18606 25.99206,1.87558c4.22559,0.38002 8.45119,0.76005 12.68996,1.0435c6.82877,0.53848 13.76614,0.99358 20.69033,1.54527c3.93932,0.34076 7.76997,0.76529 11.72243,1.00965c9.33648,0.68408 18.57755,1.35517 27.87449,2.32901c6.61156,0.7054 13.14082,1.30159 19.76554,1.9106c2.68544,0.26806 5.38403,0.43973 8.27349,0.63743c-0.11512,-1.2937 -0.77327,-2.16997 -1.18785,-3.40634zM243.39238,288.52169c-1.55321,-2.86609 -3.02411,-5.62296 -4.59046,-8.39268c-0.49363,-0.65706 -0.97405,-1.4109 -0.44746,-2.42027c1.30657,-0.31342 2.62951,-0.03452 3.8702,0.13477c0.57262,0.07814 0.90169,0.51637 1.23077,0.95441c0.78318,1.38485 1.66179,2.78273 2.44497,4.16759c0.85228,1.59085 1.67822,3.37487 2.53051,4.96572c0.48046,0.75365 0.96087,1.50749 1.44133,2.26113c0.72399,0.39374 1.39205,0.4849 2.09963,0.2865c0.07902,-0.57912 -0.23688,-1.11374 -0.47054,-1.53876c-1.56636,-2.7697 -3.05043,-5.43 -4.52136,-8.18668c-0.38502,-0.74062 -0.87863,-1.39787 -0.44745,-2.42045c1.31968,-0.40963 2.72492,-0.02132 4.06105,0.161c0.66807,0.09116 0.88854,0.61276 1.2176,1.051c0.87862,1.39787 1.75724,2.79575 2.51409,4.37358c1.07276,2.11245 2.13232,4.32149 3.40911,6.3636c0.57589,0.76667 1.2176,1.051 2.12923,0.78206c0.35217,-0.44347 0.00992,-0.78512 -0.14144,-1.10072c-1.45777,-2.85307 -2.99777,-5.81593 -4.45554,-8.66901c-0.38499,-0.74081 -0.86544,-1.49446 -0.62514,-2.54309c1.45463,-0.68616 2.85988,-0.29786 4.36054,0.10348c0.55945,0.17472 0.76677,0.79272 1.09583,1.23095c1.37223,2.05513 2.34954,4.15456 3.40911,6.3636c0.82596,1.78382 1.74732,3.58086 2.65553,5.4743c2.20824,0.20295 4.33422,0.29647 6.447,0.48658c0.44762,-0.43063 0.13171,-0.96526 -0.01968,-1.28067c-0.92136,-1.79705 -1.95135,-3.51051 -2.87275,-5.30737c-0.70089,-1.27544 -1.40182,-2.55068 -2.10271,-3.82612c-0.31591,-0.53463 -0.52323,-1.15261 -0.22699,-1.89866c1.34605,-0.6028 2.75128,-0.21448 4.16967,0.07744c0.47719,0.06511 0.69765,0.58672 0.94445,0.91535c0.97406,1.41089 1.83953,2.90517 2.60953,4.3866c1.21094,2.52463 2.32644,5.03625 4.0541,7.33625c0.65488,0.18774 1.21434,0.36246 1.93509,0.06748c0.079,-0.57893 -0.15462,-1.00414 -0.37509,-1.52574c-1.00365,-1.90645 -2.02045,-3.7165 -3.03728,-5.52639c-0.63182,-1.06925 -1.25046,-2.23509 -1.78684,-3.29131c-0.23363,-0.42521 -0.38498,-0.74081 -0.42775,-1.13979c-0.0691,-0.206 -0.02959,-0.49555 0.00992,-0.7851c1.45466,-0.68636 2.94216,-0.18844 4.46916,0.01993c1.43807,1.57259 2.45489,3.38247 3.36308,5.27609c1.21096,2.52445 2.42191,5.04908 4.05412,7.33625c1.88242,0.45344 6.02573,0.72405 7.70086,0.5593c0.24354,-0.3599 -0.00327,-0.68854 -0.15463,-1.00414c-1.1682,-2.12547 -2.41864,-4.36055 -3.58682,-6.48622c-0.46727,-0.85023 -0.93454,-1.70047 -1.38867,-2.64708c-0.31591,-0.53463 -0.44094,-1.04321 -0.15787,-1.69286c1.34605,-0.6028 2.75125,-0.21429 4.16966,0.07745c0.47719,0.06511 0.69766,0.58671 0.94447,0.91534c0.89177,1.30149 1.67496,2.68634 2.44498,4.16759c0.92136,1.79705 1.76047,3.48447 2.69504,5.18473c0.22045,0.52179 0.63179,1.06944 0.9477,1.60407c0.54955,0.95965 1.42164,0.98046 2.45505,0.53157c-0.691,-2.06036 -1.89869,-3.89647 -2.90234,-5.80292c-1.00365,-1.90645 -2.31995,-3.65901 -2.79371,-5.88649c1.6587,-0.75671 3.06392,-0.36839 4.56457,0.03315c0.3686,0.14848 0.6845,0.68311 0.93131,1.01173c0.89177,1.30149 1.67495,2.68633 2.44498,4.16758c0.83911,1.68743 1.69139,3.27829 2.53051,4.96572c0.31591,0.53463 0.63178,1.06944 0.9477,1.60406c0.45412,0.94662 1.20444,1.14739 2.11607,0.87844c0.35217,-0.44347 0.21395,-0.85546 -0.01967,-1.28067c-1.00365,-1.90645 -2.02049,-3.71632 -3.03729,-5.52639c-0.70092,-1.27525 -1.41499,-2.45411 -2.02048,-3.71633c-0.39817,-0.64423 -0.39817,-0.64423 -0.11835,-1.98241c1.19792,-0.22967 2.41227,0.13258 3.66615,0.2053c0.66807,0.09116 1.09257,0.54242 1.40848,1.07705c0.97406,1.41089 1.8395,2.90535 2.60952,4.3866c1.21094,2.52463 2.42189,5.04928 4.13635,7.44606c2.45504,0.53157 5.08456,0.49705 7.59228,0.64265c0.2008,-0.75906 -0.12829,-1.19711 -0.34876,-1.7187c-1.00362,-1.90665 -2.02046,-3.71651 -3.03726,-5.52658c-0.63182,-1.06925 -1.25045,-2.23509 -1.78683,-3.29131c-0.22048,-0.5216 -0.52321,-1.15281 -0.22697,-1.89885c1.34602,-0.60261 2.75126,-0.21429 4.16967,0.07745c0.47719,0.06511 0.69766,0.58671 0.94447,0.91534c0.97406,1.41089 1.85266,2.80878 2.60948,4.38679c1.22411,2.42805 2.32648,5.03606 4.05412,7.33626c0.55945,0.17472 1.20118,0.45885 1.92191,0.16406c0.07902,-0.57912 -0.15462,-1.00413 -0.37507,-1.52593c-1.00365,-1.90645 -2.02049,-3.71632 -3.03728,-5.52639c-0.63182,-1.06925 -1.25045,-2.23507 -1.78683,-3.2913c-0.31591,-0.53463 -0.52321,-1.15282 -0.32241,-1.91189c1.45463,-0.68616 2.85987,-0.29785 4.36055,0.1035c0.36858,0.14867 0.68448,0.6833 0.93129,1.01193c1.08267,1.32734 1.85268,2.80878 2.60952,4.3866c1.21094,2.52463 2.42188,5.04928 4.13637,7.44587c1.71788,0.23442 3.54435,0.38545 5.37085,0.5363c0.39167,-0.73302 0.07576,-1.26764 -0.24014,-1.80227c-1.01683,-1.80987 -2.04682,-3.52335 -2.96818,-5.3204c-0.70092,-1.27525 -1.41499,-2.4541 -2.02047,-3.71632c-0.22045,-0.52179 -0.5232,-1.15281 -0.03609,-1.87281c1.30653,-0.31324 2.71176,0.07509 4.0479,0.25741c0.57263,0.07814 0.88853,0.61275 1.12216,1.03796c0.87862,1.39787 1.66181,2.78273 2.43183,4.26398c1.40182,2.55068 2.50414,5.15889 4.21863,7.55548c0.54629,0.27111 1.13207,0.25286 1.71788,0.23442c0.12176,-0.17995 0.24354,-0.35992 0.25671,-0.4565c-0.01641,-0.59213 -0.3455,-1.03019 -0.56597,-1.55178c-1.56636,-2.7697 -3.05043,-5.42999 -4.52137,-8.18668c-0.38502,-0.74062 -0.87862,-1.39788 -0.44743,-2.42046c1.31968,-0.40963 2.72492,-0.0213 4.06105,0.16101c0.57263,0.07814 0.88853,0.61276 1.12218,1.03778c0.87862,1.39787 1.66178,2.78292 2.4318,4.26416c1.415,2.4541 2.50417,5.15869 4.23181,7.45889c0.45083,0.25828 1.02346,0.33641 1.54017,0.11197c0.36534,-0.54005 0.15804,-1.15823 -0.15787,-1.69286c-0.93455,-1.70046 -1.86911,-3.40073 -2.80365,-5.10118c-0.71407,-1.17885 -1.31954,-2.44127 -2.03363,-3.61993c-0.39817,-0.64423 -0.60546,-1.26242 -0.29608,-2.10485c1.23745,-0.51942 2.64266,-0.13092 3.9788,0.0514c0.66807,0.09116 0.88853,0.61276 1.21762,1.0508c0.97406,1.41089 1.85268,2.80879 2.60952,4.3866c1.22409,2.42825 2.42189,5.04927 4.14952,7.34947c1.34931,0.08573 2.78088,0.28108 4.34737,0.20008c0.11854,-0.86867 -0.2533,-1.70588 -0.54288,-2.43348c-2.23427,-5.71177 -4.57712,-11.34015 -6.90684,-17.06494c-2.93224,-0.59668 -5.86122,-0.50484 -8.75071,-0.70235c-3.17578,-0.23677 -6.46017,-0.39 -9.6491,-0.53038c-5.58808,-0.36918 -11.18932,-0.64196 -16.7774,-1.01114c-3.55753,-0.28886 -7.21049,-0.59076 -10.7812,-0.78305c-5.87437,-0.40844 -11.66649,-0.70728 -17.54089,-1.11552c-3.57071,-0.19229 -7.03281,-0.46813 -10.59034,-0.75699c-2.98491,-0.21073 -5.98298,-0.32489 -8.96791,-0.53542c-3.28437,-0.1534 -6.65107,-0.41603 -9.92228,-0.66583c-3.93928,-0.34096 -7.79631,-0.57231 -11.74876,-0.81669c-6.36474,-0.37697 -12.72948,-0.75394 -19.09422,-1.13091c-5.5058,-0.25977 -10.903,-0.60289 -16.39562,-0.95924c-3.85701,-0.23136 -7.70087,-0.55929 -11.55789,-0.79065c-1.25387,-0.07272 -2.49456,-0.24201 -3.78791,-0.02535c-0.09218,0.67552 0.12827,1.19731 0.45736,1.63534c2.3858,3.17647 4.02449,6.8409 6.09763,10.17127c0.80951,1.19188 1.60587,2.48014 2.30679,3.75539c0.48043,0.75383 1.00039,1.21792 1.89884,1.04557c0.78983,-0.0888 1.55333,0.01539 2.23458,0.00997c0.16128,-0.46952 0.02307,-0.88151 -0.12829,-1.19711c-1.01683,-1.80987 -2.04682,-3.52335 -2.96819,-5.32038c-0.70093,-1.27525 -1.415,-2.45411 -2.02048,-3.71633c-0.22045,-0.52179 -0.53635,-1.05642 -0.13154,-1.88583c1.30653,-0.31324 2.72495,-0.0215 4.14334,0.27042c0.47719,0.06511 0.71084,0.49013 0.94447,0.91534c0.79636,1.28827 1.68813,2.58976 2.37587,3.96159c1.29323,2.63405 2.58643,5.2683 4.37002,7.87088c0.64171,0.28433 1.51382,0.30494 2.3991,0.22917c0.17446,-0.5661 -0.07234,-0.89472 -0.22371,-1.21033c-1.18138,-2.02889 -2.34954,-4.15456 -3.51773,-6.28004c-0.63181,-1.06925 -1.25046,-2.23508 -1.78684,-3.2913c-0.31591,-0.53463 -0.30272,-0.63121 -0.13152,-1.88584c1.30653,-0.31324 2.71177,0.07509 4.0479,0.2574c0.57262,0.07814 0.88853,0.61277 1.12216,1.03798c0.87862,1.39787 1.75723,2.79575 2.43182,4.26396c1.0464,2.30561 2.40547,4.45714 3.65592,6.69223c0.46728,0.85023 1.09582,1.23095 2.06336,1.26479c1.063,0.04667 2.20824,0.20293 3.27125,0.2496c0.18761,-0.66249 0.03626,-0.97809 0.41801,-0.92599zM366.76537,276.35579c0.9708,0.72237 2.14241,0.68548 3.12311,0.62273c2.43861,-0.06038 4.70278,0.44514 7.11506,0.57774c0.28632,0.03906 0.57261,0.07813 1.0498,0.14325c0.9282,-2.52769 1.48781,-5.20388 2.22514,-7.75762c0.75048,-2.65013 1.67866,-5.17784 2.53777,-7.91153c-1.22751,-0.26588 -2.16873,-0.4925 -3.12311,-0.62272c-4.00839,-0.54696 -8.06944,-0.70797 -12.13051,-0.86878c-0.77666,-0.00779 -1.63559,-0.125 -2.49454,-0.2422c-2.97175,-0.30712 -6.07843,-0.33792 -9.15879,-0.56147c-2.31684,-0.11957 -4.62052,-0.33553 -6.93736,-0.45511c-4.25192,-0.18705 -8.4907,-0.47049 -12.82492,-0.76696c-3.93928,-0.34096 -7.98717,-0.59835 -11.95281,-0.74615c-2.98491,-0.21073 -5.91714,-0.80741 -8.96789,-0.53561c-0.19088,-0.02604 -0.28631,-0.03907 -0.47719,-0.06512c-3.7484,-0.31491 -7.40138,-0.6168 -11.05437,-0.91851c-2.98491,-0.21073 -6.07842,-0.33791 -9.17194,-0.46507c-0.19088,-0.02604 -0.28631,-0.03907 -0.47719,-0.06512c-3.65297,-0.30188 -7.38821,-0.71338 -11.05435,-0.91869c-2.79403,-0.18469 -5.50579,-0.25977 -8.29985,-0.44427c-0.39491,0.04431 -0.68122,0.00523 -0.96754,-0.03383c-3.93928,-0.34096 -7.86541,-0.77832 -11.73561,-0.91308c-2.13911,0.00287 -4.21242,-0.47662 -6.39106,-0.184c-0.20403,0.07035 -0.49034,0.03128 -0.68121,0.00524c-3.08037,-0.22356 -6.14753,-0.5439 -9.24105,-0.67107c-2.80721,-0.08811 -5.69668,-0.28581 -8.49071,-0.4705c-4.03474,-0.35379 -8.0958,-0.51479 -12.14369,-0.77219c-4.33421,-0.29647 -8.79019,-0.41297 -13.09807,-0.90242c-3.25804,-0.34638 -6.56877,-0.30662 -9.85316,-0.45983c-3.09352,-0.12716 -6.28248,-0.26737 -9.38915,-0.29815c-0.39493,0.04449 -0.78986,0.08898 -1.29338,0.21685c-0.6188,1.68507 -1.42846,3.34409 -1.86955,5.15179c-0.42792,1.71111 -1.14214,3.38315 -1.57005,5.09427c-0.4411,1.80769 -1.25077,3.46671 -1.51414,5.39685c1.01031,0.43281 1.99102,0.37006 2.95857,0.40371c2.32998,0.02317 4.7423,0.15558 7.08547,0.08218c2.13914,-0.00306 4.34739,0.19988 6.46017,0.38998c0.66807,0.09116 1.36245,-0.01064 2.15232,-0.09963c0.48711,-0.72 0.71424,-1.67204 1.02363,-2.51448c0.49703,-1.50511 0.99404,-3.01023 1.57332,-4.40574c0.41803,-0.92619 1.08283,-1.52357 2.14583,-1.4769c0.49034,-0.03128 0.89842,-0.17216 1.37561,-0.10704c1.90876,0.26045 3.84386,0.32774 5.77896,0.39522c3.76158,0.21834 7.38822,0.71319 11.06752,0.82211c3.01126,0.01756 5.95665,0.51785 8.96791,0.53542c2.23456,0.01016 4.42962,0.30968 6.65105,0.41604c3.17578,0.23677 6.36474,0.37698 9.47141,0.40775c0.19088,0.02604 0.2863,0.03907 0.47719,0.06511c3.7484,0.31491 7.38822,0.71319 11.06755,0.82192c2.61631,0.06224 5.1668,0.60684 7.82264,0.37934c0.38175,0.0521 0.66806,0.09116 0.95438,0.13022c3.51802,0.57843 7.11507,0.57774 10.59034,0.757c2.99809,0.11415 6.10801,0.83346 9.15878,0.56146c0.39491,-0.04431 0.68122,-0.00524 0.96753,0.03384c3.55753,0.28886 7.10191,0.67413 10.59034,0.757c2.61633,0.06207 5.15364,0.70323 7.82266,0.37914c0.19088,0.02604 0.47717,0.06511 0.66806,0.09116c3.55753,0.28886 7.19735,0.68714 10.76803,0.87962c5.3972,0.34314 10.71213,0.57685 16.10934,0.91999c2.98491,0.21073 5.86119,0.50502 8.76383,0.60615c2.91582,0.00455 5.7526,0.58839 8.69475,0.39995c0.19088,0.02604 0.28631,0.03908 0.47719,0.06512c3.17578,0.23677 6.25614,0.46033 9.43192,0.69711c0.38175,0.0521 0.7635,0.10418 1.24069,0.1693c-0.21736,3.01783 -1.73137,5.56397 -2.00466,8.27922zM366.01859,271.14194c-1.9219,-0.16406 -3.93928,-0.34096 -5.86122,-0.50484c-3.0935,-0.12736 -6.18701,-0.25454 -9.26738,-0.47809c-5.30174,-0.33031 -10.59034,-0.757 -15.89208,-1.08731c-5.1109,-0.30406 -10.12633,-0.5953 -15.23721,-0.89936c-2.79403,-0.18469 -5.68348,-0.38239 -8.47752,-0.56707c-5.98302,-0.3247 -11.966,-0.64957 -17.93581,-1.07102c-2.98491,-0.21073 -5.96983,-0.42127 -8.95474,-0.632c-5.2063,-0.31729 -10.41264,-0.63437 -15.61895,-0.95165c-2.69858,-0.17166 -5.39722,-0.34314 -8.0958,-0.5148c-5.88755,-0.31185 -11.67966,-0.61069 -17.55406,-1.01894c-5.11086,-0.30426 -10.30402,-0.71792 -15.41488,-1.02218c-5.11089,-0.30406 -10.3172,-0.62135 -15.42809,-0.92541c-0.19088,-0.02604 -0.3949,0.04431 -0.78983,0.08879c-0.67148,2.07121 -1.53381,4.11618 -2.04074,6.40641c1.51382,0.30494 2.86314,0.39069 4.21244,0.47642c3.95243,0.24457 8.00034,0.50196 11.95279,0.74634c6.93737,0.45511 13.98334,0.82666 20.93389,1.18518c6.07842,0.3379 12.14368,0.77239 18.2221,1.11029c6.93737,0.45511 13.77928,0.89719 20.71667,1.3521c3.28437,0.1534 6.65106,0.41604 9.92227,0.66584c5.39718,0.34333 10.69895,0.67344 16.09613,1.01676c3.17582,0.23658 6.25614,0.46033 9.43192,0.69712c4.14333,0.27042 8.38211,0.55387 12.62088,0.83732c6.93737,0.45511 13.77929,0.89719 20.71666,1.3523c2.79403,0.18469 5.49262,0.35635 8.28668,0.54085c0.68122,-0.00523 1.37562,-0.10705 2.1523,-0.09945c-0.05254,-2.46476 1.06981,-4.27787 1.30358,-6.70357zM402.29832,333.70036c0.77684,-2.8433 1.55364,-5.68642 2.33049,-8.52972c0.52335,-1.69809 0.16143,-3.32041 -0.28277,-5.05215c-1.41484,-5.305 -3.53724,-10.41179 -5.15613,-15.64626c-0.88512,-2.77513 -1.97429,-5.47972 -3.05029,-8.28089c-2.71798,-7.15393 -5.23188,-14.37862 -7.63723,-21.68646c-1.03648,-3.09073 -2.18159,-6.09791 -3.2181,-9.18845c-0.16451,-0.21922 -0.3159,-0.53463 -0.54953,-0.95983c-0.47393,0.62342 -0.73065,1.0799 -0.90511,1.64599c-0.92494,3.21623 -1.67219,6.55509 -2.87025,9.63567c-0.76692,2.05819 -0.41815,3.77688 0.40777,5.56091c3.86974,8.68747 6.7324,17.63085 9.99,26.52975c3.10623,8.58328 6.22562,17.07019 9.83538,25.52561c0.15136,0.31561 0.39817,0.64423 0.61863,1.16582c0.32583,-0.25049 0.43445,-0.33405 0.48711,-0.71999z" data-paper-data="{&quot;index&quot;:null}" fill="#000000"/><path d="M392.23103,336.94706c-6.62471,-0.60901 -13.154,-1.205 -19.76554,-1.9106c-9.29697,-0.97364 -18.538,-1.64492 -27.87449,-2.329c-3.93928,-0.34096 -7.78315,-0.66871 -11.72243,-1.00967c-6.82875,-0.53866 -13.76611,-0.99377 -20.69032,-1.54527c-4.22559,-0.38002 -8.45119,-0.76005 -12.68996,-1.0435c-8.66843,-0.59293 -17.33685,-1.18587 -25.99209,-1.87539c-4.70279,-0.44514 -9.31014,-0.87726 -14.01291,-1.3224c-5.47947,-0.45274 -10.85034,-0.98886 -16.32978,-1.44178c-5.76578,-0.49181 -11.53155,-0.98362 -17.28415,-1.57201c-2.01737,-0.1769 -4.07424,-0.06442 -6.03895,-0.62727c-0.56271,-0.86325 -1.22086,-1.73952 -1.77039,-2.69936c-3.69543,-6.40267 -7.62124,-12.54181 -11.62932,-18.79057c-5.69621,-8.83851 -11.16206,-17.94035 -16.43701,-27.01632c-1.02999,-1.71348 -1.95138,-3.51032 -2.88593,-5.21078c0.35217,-0.44347 0.7471,-0.48795 1.12885,-0.43587c4.06105,0.16101 8.13528,0.22542 12.19635,0.38624c3.77473,0.12194 3.77475,0.12194 5.84788,3.45231c3.28082,5.16649 6.14042,10.57025 9.52985,15.65317c0.97406,1.41089 1.83625,2.21664 3.48503,2.24505c0.39491,-0.04431 0.77666,0.00779 1.15841,0.05989c4.33421,0.29647 8.77704,0.50938 13.09807,0.90242c5.95666,0.51785 11.98238,1.2419 17.93904,1.75976c6.43384,0.58297 12.8677,1.16593 19.30154,1.7489c4.32103,0.39304 8.54662,0.77308 12.88083,1.06955c3.27121,0.2498 6.63789,0.51243 9.90911,0.76223c5.46629,0.54932 10.83714,1.08562 16.31661,1.53836c4.89366,0.47118 9.8005,0.84579 14.70734,1.2204c4.32103,0.39304 8.58614,0.48352 12.89402,0.97296c6.42066,0.67955 12.78539,1.05652 19.13698,1.52988c5.2063,0.31729 10.42578,0.53798 15.63212,0.85507c0.5858,-0.01844 1.17158,-0.0367 1.78372,-0.24812c0.72073,-0.2948 1.08606,-0.83485 0.9051,-1.64601c-0.11185,-0.60516 -0.31914,-1.22334 -0.43101,-1.82832c-0.50011,-2.03451 -1.61238,-3.85739 -2.31653,-5.82137c-1.5597,-4.24336 -2.81992,-8.54422 -4.58365,-12.71722c-0.15136,-0.31561 -0.20729,-0.61818 0.02307,-0.88151c2.83357,-0.10506 9.45825,0.50413 11.04121,1.01489c1.17142,2.8142 2.42515,5.73781 3.57025,8.74498c1.98744,5.38333 3.86633,10.84984 5.85379,16.23298c1.55968,4.24354 3.13256,8.39031 4.69224,12.63385c2.06973,5.49275 4.13949,10.98531 6.50871,16.42054c0.45409,0.94682 1.09906,1.91967 1.21418,3.21337c-2.88947,-0.19771 -5.58805,-0.36938 -8.29982,-0.44445zM327.32403,317.47309c-1.62554,-3.76082 -3.35969,-7.43827 -4.6726,-11.353c-0.20729,-0.61819 -0.51001,-1.24939 -0.60872,-1.95094c-0.16781,-0.90756 -0.70093,-1.27524 -1.55987,-1.39245c-1.14526,-0.15627 -2.38594,-0.32557 -3.63978,-0.39848c-0.57263,-0.07814 -1.25387,-0.07272 -1.8265,-0.15086c-7.00647,-0.66111 -14.08202,-1.52839 -21.10166,-2.09292c-5.37085,-0.5363 -10.64625,-1.05957 -16.08298,-1.11315c-3.6793,-0.10892 -7.34546,-0.31423 -11.01159,-0.51954c-0.77666,-0.00779 -1.63559,-0.12499 -2.2741,0.27959c-0.55619,0.51382 -0.33571,1.03542 -0.19753,1.4476c0.39152,2.11788 1.4906,4.03735 2.2902,6.01435c1.22739,3.11658 2.55018,6.24639 3.96844,9.38902c1.17142,2.8142 2.53373,5.65445 4.01783,8.31455c0.53312,0.36769 1.21436,0.36226 1.78698,0.4404c4.89366,0.47118 9.77417,1.03877 14.66783,1.50995c5.27541,0.52328 10.64626,1.05957 16.01711,1.59587c4.13018,0.36681 8.26033,0.73383 12.39049,1.10083c2.79403,0.18469 5.46627,0.54931 8.24716,0.83039c0.87212,0.02062 1.64878,0.02841 2.5209,0.04904c0.47719,0.06511 0.81617,-0.28177 1.18151,-0.82182c-1.33924,-3.72175 -2.55667,-7.62364 -4.11311,-11.17846zM210.06476,285.54697c-2.38906,-3.865 -4.24823,-8.05102 -6.42007,-12.08295c-0.60546,-1.26242 -1.42488,-1.66918 -2.69194,-1.64531c-1.07615,0.04973 -2.12597,-0.09353 -3.18894,-0.14038c-0.96756,-0.03365 -1.83967,-0.05427 -2.58673,0.4335c-0.28308,0.64965 0.03283,1.18428 0.26648,1.60929c2.28043,3.94856 4.56087,7.89713 6.84131,11.84569c0.78318,1.38485 1.83625,2.21663 3.49822,2.14846c1.37562,-0.10706 2.80717,0.08829 4.15649,0.17403c0.28632,0.03906 0.5858,-0.01844 0.93797,-0.46191c-0.00326,-0.68854 -0.40142,-1.33277 -0.81277,-1.88042zM246.96262,297.26667c-1.79691,0.34471 -2.67567,1.79774 -2.34008,3.61303c0.65476,3.03845 5.47265,4.77727 7.86199,2.94067c1.84633,-1.41938 1.73786,-4.18671 -0.21689,-5.53487c-0.80625,-0.50335 -1.70797,-1.01952 -2.77096,-1.0662c-0.75033,-0.20076 -1.63558,-0.125 -2.53404,0.04736zM250.42751,306.78375c-1.2111,0.32626 -1.9154,1.21319 -2.0866,2.46782c-0.1712,1.25462 0.58562,2.83265 1.67821,3.37487c1.5566,0.70391 3.13953,1.21487 4.85415,0.76075c0.20406,-0.07054 0.50353,-0.12805 0.81619,-0.28197c1.88908,-1.02022 2.26107,-3.0339 0.83615,-4.70289c-0.75358,-0.8893 -2.20155,-1.67678 -3.63313,-1.87212c-0.84579,-0.2136 -1.66196,0.06816 -2.46497,0.25355zM217.56731,301.80836c1.54019,0.11179 2.99482,-0.57437 3.43918,-1.69354c0.60562,-1.58848 -0.00311,-3.53944 -1.53338,-4.43634c-1.51709,-0.99348 -3.16585,-1.02189 -4.6896,-0.54172c-2.33994,0.76213 -2.87322,3.24533 -1.2706,5.03695c0.76677,0.79272 1.95477,1.34815 3.48177,1.55652c0.19088,0.02604 0.38174,0.05209 0.57262,0.07813zM230.10949,297.52298c-0.97747,0.75146 -1.17827,1.51054 -0.75048,2.65013c0.99371,2.69176 4.88359,4.10719 7.3157,2.66956c1.57644,-0.86631 1.88258,-2.39747 0.92168,-3.90476c-0.87862,-1.39787 -2.13573,-2.15931 -3.78451,-2.18772c-1.40524,-0.38832 -2.6295,0.03454 -3.70239,0.77278zM229.96372,315.68984c-1.23405,-1.64294 -3.86678,-2.29714 -5.81182,-1.57932c-1.84957,0.73066 -2.31699,2.73133 -1.17839,4.36125c1.04316,1.61689 4.80797,2.52395 6.26264,1.8376c0.92479,-0.36533 1.41189,-1.08533 1.5831,-2.33995c0.10535,-0.77209 -0.3751,-1.52574 -0.85553,-2.27958zM218.0312,304.82077c-1.14202,0.53245 -1.69497,1.73498 -1.26721,2.87477c1.27014,3.51575 5.71622,4.41719 7.92786,2.45796c1.09924,-0.93143 1.14542,-2.69463 0.21411,-3.70636c-0.84902,-0.90231 -2.66558,-1.83848 -4.28803,-2.05987c-0.66807,-0.09116 -1.63563,-0.12481 -2.58674,0.4335zM253.71794,316.86692c-1.27694,0.80879 -1.56991,2.24337 -0.86899,3.51862c0.31591,0.53463 0.72723,1.08246 1.27353,1.35357c1.17485,0.65183 2.48464,1.02713 3.94255,1.02949c0.5858,-0.01844 1.19794,-0.22987 1.7278,-0.5507c2.02403,-1.29674 2.01099,-4.05106 -0.17415,-5.1357c-0.90168,-0.51637 -1.85607,-0.6466 -2.87955,-0.98282c-0.98071,0.06275 -2.07005,0.20905 -3.02118,0.76755zM237.97397,315.40669c-1.1815,0.82182 -1.51724,1.85742 -0.92494,3.21623c0.15136,0.31561 0.38502,0.74062 0.645,0.97267c1.29986,1.1606 2.85645,1.86453 4.62703,1.71278c0.69439,-0.10181 1.21109,-0.32627 1.74094,-0.6471c1.39873,-0.98894 1.74764,-2.12093 0.88219,-3.61539c-0.78317,-1.38485 -1.94485,-2.13326 -3.3896,-2.23203c-1.32295,-0.2789 -2.39912,-0.22898 -3.58062,0.59284zM239.9619,312.23714c1.63236,-0.56372 2.15571,-2.26182 1.29027,-3.75628c-1.18138,-2.02889 -3.95231,-3.09528 -6.18366,-2.41652c-2.12269,0.595 -2.79417,2.66621 -1.47788,4.41876c0.98723,1.31432 2.16208,1.96614 3.70224,2.07813c0.95437,0.13023 1.83969,0.05427 2.66903,-0.32408zM332.97174,310.28087c2.38594,0.32557 4.67645,0.63811 7.08873,0.77071c0.87212,0.02062 1.60925,0.31797 2.50771,0.14561c0.69443,-0.10201 1.11566,-0.3393 1.3033,-1.00197c-0.38502,-0.74062 -1.14852,-0.8448 -1.81658,-0.93596c-2.95857,-0.40371 -5.83488,-0.6978 -8.7375,-0.79912c-0.77668,-0.00759 -1.55337,-0.0152 -2.05363,0.80119c0.2764,0.82419 0.93129,1.01192 1.70797,1.01953zM361.62602,316.1569c-2.95857,-0.40371 -5.83488,-0.6978 -8.73753,-0.79893c-0.77668,-0.00759 -1.55333,-0.01539 -2.05361,0.80119c0.2764,0.82419 0.93131,1.01173 1.59938,1.10289c2.38594,0.32557 4.67645,0.63812 7.08873,0.77071c0.87212,0.02062 1.60925,0.31797 2.50771,0.14561c0.69439,-0.10181 1.11565,-0.33929 1.30329,-1.00196c-0.38502,-0.74062 -1.0399,-0.92836 -1.70796,-1.01952zM382.34562,323.89954c-3.1067,-0.03058 -6.13438,-0.64029 -9.17194,-0.46507c-0.5858,0.01844 -1.07617,0.04992 -1.34605,0.6028c-0.06585,0.48253 0.30273,0.63121 0.65814,0.87628c0.53312,0.36769 1.21436,0.36226 1.78699,0.4404c2.60315,0.15864 5.30174,0.33031 7.98717,0.59836c0.57263,0.07814 1.17159,-0.03671 1.78373,-0.24813c0.40809,-0.14089 0.55619,-0.51382 0.52662,-1.00956c-0.71083,-0.49013 -1.43483,-0.88388 -2.22466,-0.79508zM359.52994,310.85733c-3.01123,-0.01776 -5.94348,-0.61444 -8.98108,-0.43903c-0.5858,0.01844 -1.15843,-0.05969 -1.45464,0.68617c0.01641,0.59213 0.57586,0.76686 0.94446,0.91535c0.75032,0.20076 1.50065,0.40153 2.27733,0.40912c2.13914,-0.00306 4.33421,0.29647 6.447,0.48658c0.87212,0.02062 1.73107,0.13783 2.54726,-0.14413c0.40809,-0.14089 0.73392,-0.39137 0.73065,-1.07991c-0.71083,-0.49013 -1.43483,-0.88387 -2.51098,-0.83416zM335.33444,314.33904c-0.39491,0.04431 -0.88526,0.07577 -1.30653,0.31323c-0.31265,0.15391 -0.44761,0.43045 -0.39168,0.73302c0.0691,0.206 0.22048,0.52161 0.41135,0.54765c0.3686,0.14848 0.83261,0.31019 1.32297,0.27871c2.42543,0.0362 4.72912,0.25216 7.12824,0.48115c1.06297,0.04685 2.13914,-0.00306 3.15936,-0.35537c0.29947,-0.05732 0.52985,-0.32083 0.56937,-0.61039c0.03951,-0.28956 -0.20729,-0.61819 -0.49361,-0.65725c-0.57263,-0.07814 -1.03666,-0.23964 -1.70473,-0.3308c-2.79403,-0.18469 -5.69667,-0.28581 -8.69475,-0.39995zM384.02042,329.43677c-1.24069,-0.16929 -2.38595,-0.32558 -3.6398,-0.39847c-1.63562,-0.12481 -3.36667,-0.26263 -5.01545,-0.29104c-0.68122,0.00523 -1.26702,0.02367 -1.86598,0.13852c-0.2995,0.05752 -0.61214,0.21142 -0.66483,0.59757c-0.05266,0.38595 0.20731,0.618 0.48045,0.75365c0.36858,0.14867 0.73718,0.29717 1.11893,0.34925c3.1626,0.33336 6.43383,0.58296 9.60962,0.81974c0.57263,0.07814 1.17158,-0.03669 1.65869,-0.75669c-0.2764,-0.82418 -1.02671,-1.02495 -1.68162,-1.21251zM364.72247,322.6746c-1.24069,-0.16929 -2.38595,-0.32558 -3.6398,-0.39848c-1.73106,-0.13783 -3.47527,-0.17927 -5.21951,-0.22051c-0.58578,0.01825 -1.18474,0.13309 -1.78373,0.24813c-0.10859,0.08337 -0.33897,0.34689 -0.3653,0.53987c-0.01318,0.09658 0.13819,0.41218 0.3159,0.53462c0.43768,0.35467 0.91486,0.41978 1.48749,0.49792c1.24069,0.16929 2.57682,0.35161 3.83067,0.42452c1.62245,0.22138 3.1758,0.23658 4.8114,0.36158c0.87212,0.02062 1.74421,0.04145 2.43537,-0.74909c-0.34551,-1.03019 -1.01356,-1.12134 -1.87251,-1.23855zM378.47278,311.67264c-1.24069,-0.16929 -2.38594,-0.32558 -3.63979,-0.39848c-1.74424,-0.04124 -3.47528,-0.17926 -5.21952,-0.22051c-0.49034,0.03128 -1.0893,0.14612 -1.57967,0.17758c-0.2995,0.05752 -0.61214,0.21142 -0.6648,0.59737c-0.05269,0.38614 0.20728,0.61818 0.48042,0.75383c0.46404,0.1615 1.02348,0.33623 1.50068,0.40135c1.62245,0.22138 3.35351,0.35921 5.00229,0.38762c1.26702,-0.02369 2.39912,0.22898 3.65296,0.30189c0.95437,0.13023 0.96755,0.03366 2.23131,-0.67856c-0.35866,-0.93379 -1.02672,-1.02496 -1.76389,-1.32211zM370.61683,318.66192c1.52701,0.20837 3.054,0.41672 4.59418,0.5285c1.43158,0.19534 2.98491,0.21073 4.52509,0.32252c1.063,0.04667 1.063,0.04666 2.3136,-0.56915c0.17444,-0.5659 -0.18098,-0.81097 -0.64499,-0.97267c-0.55945,-0.17472 -1.13207,-0.25285 -1.60926,-0.31797c-2.69861,-0.17147 -5.49264,-0.35616 -8.19124,-0.52783c-0.7635,-0.10418 -1.54019,-0.11179 -2.30043,0.47256c0.05919,0.99111 0.71408,1.17887 1.31304,1.06402zM339.52643,327.78929c2.79406,0.1845 5.68352,0.3822 8.47755,0.56689c0.77668,0.00759 1.56651,-0.08119 2.28724,-0.37598c0.40811,-0.14108 0.55621,-0.51401 0.51345,-0.91317c-0.42453,-0.45106 -0.99714,-0.5292 -1.47433,-0.59431c-2.98491,-0.21073 -5.96981,-0.42146 -8.9679,-0.53561c-0.5858,0.01844 -1.08932,0.1463 -1.59285,0.27417c-0.59899,0.11503 -0.66483,0.59756 -0.5398,1.10614c0.32909,0.43804 0.79309,0.59974 1.29662,0.47188zM357.32729,329.13685c2.59001,0.25504 5.17998,0.51026 7.76997,0.76529c0.85894,0.1172 1.54017,0.11178 2.27408,-0.27959c0.31265,-0.15391 0.54304,-0.41742 0.39168,-0.73303c-0.0691,-0.206 -0.22047,-0.5216 -0.41134,-0.54765c-0.3686,-0.14848 -0.83261,-0.31017 -1.3098,-0.37528c-2.59001,-0.25504 -5.16682,-0.60665 -7.75679,-0.86187c-0.7635,-0.10418 -1.55334,-0.01539 -2.26092,0.18302c-0.2995,0.05752 -0.52987,0.32103 -0.69116,0.79054c0.58904,0.67028 1.24397,0.85783 1.99428,1.0586zM337.68709,322.03303c2.62952,-0.03452 5.27542,0.52327 7.96085,0.79134c0.77668,0.00759 1.54019,0.11178 2.1918,-0.38901c0.10863,-0.08355 0.24357,-0.36009 0.2699,-0.55307c0.02634,-0.19298 -0.13822,-0.412 -0.31591,-0.53463c-0.46401,-0.1617 -0.83261,-0.31017 -1.3098,-0.37528c-2.68541,-0.26824 -5.26223,-0.61987 -7.94767,-0.88792c-0.96756,-0.03365 -2.03052,-0.0805 -2.93889,0.87697c0.65814,0.87628 1.29989,1.16041 2.08972,1.07162z" data-paper-data="{&quot;index&quot;:null}" fill="#216aff"/><path d="M239.08775,288.72077c-0.96756,-0.03365 -1.59611,-0.41436 -2.06339,-1.26459c-1.26363,-2.13849 -2.51408,-4.37358 -3.65592,-6.69223c-0.77,-1.48143 -1.55318,-2.86629 -2.4318,-4.26417c-0.23365,-0.42502 -0.54955,-0.95965 -1.12218,-1.03779c-1.32295,-0.2789 -2.64593,-0.5576 -4.0479,-0.2574c-0.08891,1.36404 -0.18436,1.35102 0.13156,1.88564c0.61863,1.16584 1.15502,2.22206 1.78683,3.2913c1.18134,2.02908 2.34951,4.15476 3.51771,6.28024c0.2468,0.32863 0.49361,0.65725 0.22374,1.21013c-0.8853,0.07596 -1.7574,0.05516 -2.39912,-0.22898c-1.79674,-2.50619 -2.98136,-5.22381 -4.37,-7.87108c-0.68774,-1.37183 -1.57954,-2.67313 -2.37587,-3.96159c-0.23365,-0.42502 -0.46728,-0.85023 -0.94447,-0.91534c-1.41842,-0.29173 -2.83679,-0.58367 -4.14333,-0.27043c-0.39167,0.73302 -0.18438,1.35121 0.13153,1.88584c0.70093,1.27525 1.30638,2.53766 2.02045,3.71652c1.01683,1.80987 1.95138,3.51032 2.96818,5.32038c0.24683,0.32844 0.28957,0.72761 0.1283,1.19711c-0.77668,-0.00759 -1.54018,-0.11179 -2.23458,-0.00997c-0.99389,0.15933 -1.51382,-0.30495 -1.89883,-1.04557c-0.79633,-1.28846 -1.51044,-2.46712 -2.30677,-3.75558c-1.96453,-3.41393 -3.71185,-6.9948 -6.09766,-10.17109c-0.32907,-0.43823 -0.54952,-0.95983 -0.45735,-1.63533c1.19795,-0.22987 2.53407,-0.04755 3.78791,0.02536c3.85701,0.23136 7.70091,0.5591 11.5579,0.79064c5.49264,0.35616 10.903,0.60289 16.39561,0.95925c6.36474,0.37697 12.72951,0.75375 19.09424,1.13072c3.95246,0.24438 7.79631,0.57231 11.74876,0.81669c3.28437,0.1534 6.65105,0.41604 9.92227,0.66584c2.98491,0.21073 5.98297,0.32488 8.96788,0.53562c3.57071,0.19229 7.03281,0.46812 10.59037,0.7568c5.87437,0.40844 11.66647,0.70727 17.54086,1.11553c3.55753,0.28886 7.2105,0.59075 10.78121,0.78305c5.58806,0.36937 11.18931,0.64196 16.77737,1.01134c3.18896,0.1402 6.47335,0.29341 9.64913,0.53019c2.87631,0.29411 5.81845,0.10585 8.75069,0.70254c2.32971,5.72479 4.6726,11.35299 6.90686,17.06476c0.28956,0.7278 0.67456,1.46841 0.54287,2.43347c-1.5797,0.17777 -2.99808,-0.11415 -4.34738,-0.19988c-1.72764,-2.3002 -2.93858,-4.82484 -4.14952,-7.34948c-0.77,-1.48143 -1.63547,-2.97571 -2.60953,-4.3866c-0.32907,-0.43823 -0.64497,-0.97285 -1.2176,-1.051c-1.33612,-0.18232 -2.64592,-0.55761 -3.97879,-0.0514c-0.30942,0.84263 -0.00666,1.47364 0.29607,2.10485c0.71407,1.17885 1.31956,2.44109 2.03363,3.61994c0.93455,1.70046 1.8691,3.40091 2.80364,5.10137c0.22048,0.5216 0.53638,1.05622 0.15789,1.69267c-0.5167,0.22445 -1.08933,0.14631 -1.54019,-0.11178c-1.72764,-2.3002 -2.92543,-4.92123 -4.23181,-7.45889c-0.77,-1.48143 -1.55318,-2.86629 -2.4318,-4.26416c-0.23365,-0.42502 -0.54953,-0.95983 -1.12216,-1.03797c-1.33612,-0.18232 -2.6591,-0.46103 -4.06107,-0.16081c-0.418,0.926 0.06245,1.67964 0.44744,2.42046c1.56636,2.7697 3.03728,5.52639 4.52139,8.18649c0.31591,0.53463 0.54952,0.95983 0.56595,1.55197c-0.01315,0.09639 -0.13492,0.27634 -0.25672,0.45649c-0.58578,0.01825 -1.17159,0.03671 -1.71788,-0.23441c-1.71447,-2.39677 -2.91224,-5.01781 -4.21863,-7.55547c-0.77,-1.48143 -1.55318,-2.86629 -2.4318,-4.26417c-0.23365,-0.42502 -0.54956,-0.95964 -1.12219,-1.03778c-1.41839,-0.29192 -2.74133,-0.57083 -4.04787,-0.25759c-0.48711,0.72 -0.27981,1.33819 0.0361,1.87281c0.70089,1.27544 1.30637,2.53766 2.02045,3.71652c1.01683,1.80987 2.04681,3.52335 2.96817,5.3204c0.22048,0.5216 0.63182,1.06925 0.24016,1.80227c-1.81331,-0.24743 -3.63979,-0.39847 -5.37085,-0.5363c-1.71447,-2.39677 -2.92543,-4.92124 -4.13637,-7.44587c-0.77,-1.48143 -1.63544,-2.97589 -2.6095,-4.38679c-0.23365,-0.42502 -0.54955,-0.95965 -0.9313,-1.01173c-1.40524,-0.38832 -2.90589,-0.78984 -4.36054,-0.10349c-0.2008,0.75906 0.0065,1.37725 0.3224,1.91188c0.61866,1.16564 1.15502,2.22206 1.78684,3.29131c1.00365,1.90645 2.02047,3.71632 3.03728,5.52638c0.23365,0.42502 0.45409,0.94682 0.3751,1.52574c-0.72075,0.29498 -1.36246,0.01066 -1.92194,-0.16387c-1.6322,-2.28717 -2.84314,-4.81181 -4.05408,-7.33644c-0.77002,-1.48125 -1.63547,-2.97572 -2.60952,-4.38661c-0.2468,-0.32863 -0.46728,-0.85023 -0.94447,-0.91534c-1.32295,-0.2789 -2.82362,-0.68025 -4.16967,-0.07745c-0.29624,0.74604 -0.08894,1.36424 0.22698,1.89886c0.61863,1.16584 1.15502,2.22206 1.78683,3.29131c1.00365,1.90645 2.02045,3.71652 3.03728,5.52639c0.23363,0.42521 0.45409,0.94681 0.34874,1.71891c-2.60315,-0.15864 -5.13721,-0.11128 -7.59225,-0.64285c-1.71447,-2.39677 -2.92543,-4.92122 -4.13637,-7.44587c-0.77,-1.48143 -1.63544,-2.97589 -2.60948,-4.3868c-0.31591,-0.53463 -0.74044,-0.98569 -1.4085,-1.07685c-1.24069,-0.16929 -2.4682,-0.43518 -3.66614,-0.20531c-0.1712,1.25462 -0.26664,1.2416 0.11838,1.98223c0.70089,1.27544 1.31956,2.44108 2.02045,3.71651c1.01683,1.80987 2.02049,3.71632 3.03728,5.52639c0.23365,0.42502 0.46728,0.85022 0.01968,1.28067c-0.89846,0.17235 -1.64877,-0.02841 -2.11604,-0.87864c-0.31591,-0.53463 -0.63182,-1.06925 -0.94772,-1.60388c-0.83911,-1.68743 -1.69139,-3.27828 -2.5305,-4.96571c-0.68774,-1.37183 -1.45775,-2.85326 -2.44498,-4.16759c-0.23363,-0.42521 -0.54953,-0.95983 -0.93129,-1.01193c-1.40524,-0.38832 -2.90591,-0.78965 -4.56459,-0.03295c0.47377,2.22749 1.79009,3.97983 2.79372,5.88648c1.01683,1.80987 2.12907,3.63296 2.90233,5.80292c-1.03337,0.44871 -1.81006,0.4411 -2.45503,-0.53176c-0.31591,-0.53463 -0.63182,-1.06924 -0.94772,-1.60387c-0.93455,-1.70046 -1.85594,-3.49731 -2.69505,-5.18475c-0.67456,-1.46841 -1.45774,-2.85326 -2.44497,-4.16758c-0.2468,-0.32863 -0.46727,-0.85023 -0.94446,-0.91535c-1.32295,-0.2789 -2.83677,-0.58385 -4.16967,-0.07745c-0.28305,0.64947 -0.06259,1.17107 0.15788,1.69266c0.46727,0.85023 0.92137,1.79705 1.38864,2.64728c1.1682,2.12547 2.41865,4.36056 3.58684,6.48603c0.2468,0.32863 0.39817,0.64423 0.1546,1.00432c-1.68829,0.26114 -5.81844,-0.10585 -7.70087,-0.55928c-1.6322,-2.28717 -2.84314,-4.81181 -4.05408,-7.33645c-1.01683,-1.80987 -1.92502,-3.70349 -3.36311,-5.2759c-1.43158,-0.19534 -2.91906,-0.69326 -4.46913,-0.02012c0.05593,0.30259 -0.07903,0.57911 -0.00992,0.78512c0.13819,0.41219 0.27641,0.82419 0.42777,1.13979c0.61863,1.16584 1.15501,2.22205 1.78683,3.2913c1.00365,1.90645 2.02046,3.71652 3.03726,5.52658c0.23365,0.42502 0.45412,0.94661 0.37509,1.52573c-0.72073,0.2948 -1.29336,0.21666 -1.93509,-0.06747c-1.6322,-2.28717 -2.84314,-4.81182 -4.05408,-7.33646c-0.77002,-1.48125 -1.63546,-2.97571 -2.60952,-4.3866c-0.2468,-0.32863 -0.46727,-0.85023 -0.94446,-0.91534c-1.32295,-0.2789 -2.82362,-0.68024 -4.16967,-0.07745c-0.29624,0.74604 -0.08894,1.36424 0.22697,1.89886c0.70092,1.27525 1.40181,2.55068 2.10274,3.82593c0.92136,1.79705 1.95135,3.51052 2.87274,5.30738c0.15136,0.31561 0.48046,0.75363 0.01968,1.28066c-2.1128,-0.18993 -4.23877,-0.28344 -6.44702,-0.48638c-0.90819,-1.89362 -1.82958,-3.69046 -2.65551,-5.47448c-0.96414,-2.19601 -2.02371,-4.40506 -3.40912,-6.3636c-0.32909,-0.43804 -0.53638,-1.05622 -1.09585,-1.23075c-1.40521,-0.38851 -2.90588,-0.78984 -4.36054,-0.10348c-0.24027,1.04843 0.24014,1.80227 0.62516,2.54289c1.45775,2.85327 2.99777,5.81595 4.45552,8.66921c0.15136,0.31561 0.39819,0.64404 0.14145,1.10071c-0.91161,0.26874 -1.56648,0.08101 -2.12919,-0.78224c-1.2768,-2.04191 -2.3364,-4.25095 -3.40912,-6.36359c-0.6746,-1.46823 -1.54002,-2.96268 -2.51408,-4.37358c-0.32909,-0.43804 -0.64499,-0.97266 -1.21761,-1.0508c-1.33613,-0.18232 -2.65909,-0.46123 -4.06106,-0.16101c-0.418,0.926 0.06245,1.67964 0.44744,2.42046c1.56636,2.7697 3.03728,5.52639 4.52139,8.18649c0.31591,0.53463 0.54953,0.95983 0.47051,1.53895c-0.70757,0.1984 -1.36247,0.01066 -2.09964,-0.2865c-0.49361,-0.65726 -0.97404,-1.4109 -1.44132,-2.26112c-0.83911,-1.68743 -1.67822,-3.37486 -2.53051,-4.96572c-0.78317,-1.38485 -1.56636,-2.7697 -2.44497,-4.16758c-0.22045,-0.52179 -0.65814,-0.87628 -1.23078,-0.95441c-1.34928,-0.08592 -2.56364,-0.44821 -3.87017,-0.13497c-0.51344,0.91297 0.06242,1.67984 0.44744,2.42046c1.55319,2.86629 3.02411,5.62297 4.59047,8.39269c0.23365,0.42502 0.38502,0.74061 0.1974,1.4031c-1.063,-0.04667 -2.12598,-0.09333 -3.88662,-0.7269z" data-paper-data="{&quot;index&quot;:null}" fill="#ffffff"/><path d="M367.8979,268.05593c-3.17578,-0.23677 -6.25611,-0.46052 -9.4319,-0.69731c-0.19088,-0.02604 -0.28631,-0.03907 -0.47719,-0.06511c-2.84672,0.20146 -5.79215,-0.29864 -8.69475,-0.39996c-2.90265,-0.10113 -5.87441,-0.40825 -8.76387,-0.60595c-5.3972,-0.34314 -10.71213,-0.57686 -16.10931,-0.92019c-3.55753,-0.28886 -7.21053,-0.59057 -10.76806,-0.87944c-0.19088,-0.02604 -0.464,-0.16169 -0.66807,-0.09115c-2.65584,0.22751 -5.2063,-0.31728 -7.82264,-0.37935c-3.5016,0.01371 -7.03281,-0.46813 -10.59034,-0.757c-0.39493,0.04449 -0.66806,-0.09116 -0.96756,-0.03365c-3.0376,0.17541 -6.06527,-0.43429 -9.15876,-0.56165c-3.58389,-0.09571 -7.07231,-0.17858 -10.59035,-0.75681c-0.36858,-0.14867 -0.65488,-0.18774 -0.95439,-0.13022c-2.65582,0.22731 -5.20631,-0.31728 -7.82264,-0.37934c-3.67933,-0.10872 -7.41455,-0.52023 -11.06751,-0.82212c-0.19088,-0.02604 -0.2863,-0.03907 -0.47719,-0.06511c-3.20215,-0.04361 -6.29565,-0.17078 -9.47144,-0.40756c-2.20825,-0.20295 -4.41647,-0.40607 -6.65104,-0.41604c-3.01126,-0.01756 -5.95666,-0.51786 -8.96789,-0.53562c-3.67933,-0.10872 -7.40141,-0.61661 -11.06755,-0.82192c-1.92191,-0.16406 -3.85703,-0.23135 -5.77893,-0.39542c-0.49036,0.03147 -0.89844,0.17235 -1.37563,0.10724c-1.15843,-0.05969 -1.82324,0.53769 -2.14579,1.4767c-0.59246,1.49208 -1.0763,2.90062 -1.57333,4.40574c-0.21398,0.85565 -0.52335,1.69809 -1.02364,2.51468c-0.77668,-0.00759 -1.48422,0.19061 -2.15229,0.09945c-2.20825,-0.20295 -4.32107,-0.39285 -6.46018,-0.38999c-2.33002,-0.02299 -4.66004,-0.04597 -7.08549,-0.082c-0.96756,-0.03365 -1.94826,0.0291 -2.95857,-0.40371c0.16793,-1.94315 1.07304,-3.58915 1.51414,-5.39684c0.42792,-1.71111 1.14214,-3.38316 1.57009,-5.09447c0.53651,-1.79448 1.25073,-3.46652 1.86955,-5.15178c0.50352,-0.12787 0.91161,-0.26874 1.29336,-0.21666c3.09352,0.12716 6.2002,0.15794 9.38916,0.29814c3.29758,0.05663 6.59512,0.11346 9.85318,0.45965c4.41647,0.40607 8.76384,0.60614 13.09805,0.90261c4.03474,0.35379 8.09581,0.51479 12.1437,0.77219c2.79403,0.18469 5.68349,0.38239 8.4907,0.47049c3.09352,0.12716 6.16071,0.44731 9.24105,0.67106c0.20406,-0.07054 0.47719,0.06512 0.68125,-0.00541c2.08319,-0.30545 4.2651,0.09047 6.39106,0.18399c3.96562,0.14799 7.79631,0.57231 11.73559,0.91327c0.39493,-0.04449 0.68124,-0.00543 0.96756,0.03364c2.79403,0.18469 5.50579,0.25977 8.29981,0.44445c3.65297,0.30188 7.40141,0.61661 11.05437,0.91851c0.19088,0.02604 0.28632,0.03907 0.47719,0.06512c2.99809,0.11415 6.0916,0.24131 9.17194,0.46507c3.65297,0.30189 7.40137,0.6168 11.05436,0.91851c0.19088,0.02604 0.28631,0.03907 0.47718,0.06511c3.03756,-0.17521 5.96981,0.42146 8.9679,0.53561c3.95246,0.24438 8.00036,0.50178 11.9528,0.74635c4.23877,0.28344 8.57298,0.57992 12.82493,0.76678c2.32999,0.02317 4.63368,0.23913 6.93736,0.4551c2.98491,0.21073 6.09157,0.2415 9.15877,0.56166c0.7635,0.10418 1.62244,0.22138 2.49456,0.24201c4.06105,0.16101 8.12214,0.32182 12.13051,0.86878c1.03664,0.23984 1.99102,0.37006 3.12309,0.62291c-0.96769,2.81707 -1.80045,5.35778 -2.53778,7.91153c-0.64186,2.56658 -1.28375,5.13334 -2.2251,7.75742c-0.47719,-0.06511 -0.7635,-0.10418 -1.0498,-0.14325c-2.41231,-0.1324 -4.67646,-0.63811 -7.11509,-0.57754c-1.06297,-0.04685 -2.15231,0.09945 -3.12311,-0.62272c0.00015,-2.8509 1.41873,-5.41008 1.63609,-8.4279c-0.57263,-0.07814 -0.95438,-0.13022 -0.87211,-0.02061z" data-paper-data="{&quot;index&quot;:null}" fill="#216aff"/><path d="M362.54953,278.04155c-2.79403,-0.18469 -5.49264,-0.35616 -8.28667,-0.54084c-6.93736,-0.45511 -13.77929,-0.8972 -20.71666,-1.35231c-4.14333,-0.27042 -8.38211,-0.55386 -12.62088,-0.8373c-3.17578,-0.23677 -6.25611,-0.46053 -9.4319,-0.69731c-5.3972,-0.34314 -10.69895,-0.67343 -16.09616,-1.01657c-3.2844,-0.15322 -6.65106,-0.41605 -9.92227,-0.66584c-6.93736,-0.45511 -13.77929,-0.89719 -20.71665,-1.3523c-6.06527,-0.4343 -12.1437,-0.7722 -18.22212,-1.1101c-6.93736,-0.45511 -13.98334,-0.82665 -20.93388,-1.18518c-3.95243,-0.24457 -8.00034,-0.50197 -11.9528,-0.74634c-1.3493,-0.08573 -2.69858,-0.17165 -4.21244,-0.47641c0.50694,-2.29023 1.3693,-4.3354 2.04075,-6.40642c0.2995,-0.05752 0.59898,-0.11503 0.78986,-0.08898c5.11086,0.30426 10.31721,0.62134 15.42807,0.9256c5.11086,0.30426 10.30401,0.71793 15.4149,1.02199c5.88755,0.31185 11.67966,0.6107 17.55403,1.01914c2.69861,0.17147 5.3972,0.34314 8.0958,0.51479c5.20634,0.31709 10.41264,0.63437 15.61897,0.95146c2.98491,0.21073 5.96979,0.42146 8.9547,0.63219c5.98299,0.32488 11.95282,0.74616 17.93581,1.07104c2.79403,0.18469 5.68349,0.3824 8.47755,0.56689c5.11086,0.30426 10.12631,0.5953 15.23719,0.89956c5.30176,0.33011 10.59034,0.757 15.89211,1.08712c3.09352,0.12716 6.18703,0.25434 9.26738,0.47809c1.93509,0.06748 3.93929,0.34095 5.86122,0.50482c-0.22062,2.3293 -1.4384,4.1294 -1.29043,6.60718c-0.77668,-0.00759 -1.47109,0.09421 -2.16548,0.19603z" data-paper-data="{&quot;index&quot;:null}" fill="#d0e9ea"/><path d="M401.16624,333.44749c-3.52749,-8.34582 -6.72917,-16.94213 -9.83538,-25.52561c-3.2576,-8.89889 -6.2157,-17.85529 -9.99001,-26.52973c-0.81278,-1.88041 -1.1747,-3.50273 -0.40777,-5.56092c1.11581,-3.19019 1.94531,-6.41944 2.87025,-9.63567c0.17444,-0.5659 0.44434,-1.11897 0.90511,-1.64599c0.23363,0.42521 0.49359,0.65726 0.54953,0.95983c1.04966,2.99415 2.18162,6.09771 3.2181,9.18845c2.40531,7.30804 4.91924,14.53251 7.6372,21.68665c1.08916,2.70459 2.16519,5.50558 3.05031,8.28071c1.61887,5.23465 3.84991,10.2577 5.15614,15.64626c0.4442,1.73174 0.71069,3.34103 0.28274,5.05233c-0.77681,2.8431 -1.55364,5.6864 -2.33046,8.52952c-0.01318,0.09658 -0.12177,0.17995 -0.46078,0.52702c-0.23363,-0.42521 -0.48045,-0.75364 -0.64497,-0.97285z" data-paper-data="{&quot;index&quot;:null}" fill="#216aff"/><path d="M330.25565,329.47336c-0.87212,-0.02062 -1.66196,0.06817 -2.52091,-0.04904c-2.78088,-0.28107 -5.46627,-0.54932 -8.24715,-0.8304c-4.13016,-0.36701 -8.26031,-0.73401 -12.39049,-1.10082c-5.27541,-0.52328 -10.64626,-1.05958 -16.01711,-1.59588c-4.89366,-0.47118 -9.77417,-1.03877 -14.66783,-1.50995c-0.5858,0.01844 -1.26705,0.02387 -1.78698,-0.4404c-1.4841,-2.6601 -2.75097,-5.48732 -4.01784,-8.31455c-1.32282,-3.12962 -2.75423,-6.17586 -3.96844,-9.38903c-0.7996,-1.97699 -1.80325,-3.88344 -2.2902,-6.01434c-0.04275,-0.39916 -0.2764,-0.82418 0.19753,-1.4476c0.54305,-0.41761 1.40199,-0.30041 2.27409,-0.2796c3.66614,0.20531 7.33229,0.41062 11.0116,0.51954c5.3281,0.13714 10.69896,0.67343 16.08298,1.11315c7.01965,0.56452 14.10837,1.33524 21.10166,2.09292c0.57263,0.07814 1.25387,0.07271 1.8265,0.15085c1.14526,0.15627 2.3991,0.22919 3.63979,0.39848c0.87212,0.02062 1.39206,0.4849 1.55987,1.39245c0.11185,0.60516 0.40142,1.33276 0.60872,1.95094c1.32606,3.81833 3.04706,7.59217 4.6726,11.353c1.54327,3.65141 2.77387,7.45671 4.11311,11.17846c-0.36534,0.54005 -0.69112,0.79035 -1.1815,0.82182zM282.40628,301.12003c-2.50772,-0.14561 -4.90685,-0.3746 -7.41456,-0.52022c-0.19088,-0.02604 -0.40807,0.14089 -0.61213,0.21142c-2.58997,-0.25522 -5.14047,-0.79982 -7.80948,-0.47573c0.77653,2.8585 6.7555,16.74916 9.45054,21.9339c1.41839,0.29192 2.95857,0.40371 4.51191,0.4191c0.5858,-0.01844 1.26702,-0.02367 1.83965,0.05447c5.27541,0.52328 10.45541,1.03334 15.63539,1.54359c0.19088,0.02604 0.49034,-0.03128 0.68122,-0.00523c2.78088,0.28107 5.67034,0.47879 8.45121,0.75986c1.80014,0.34402 3.50487,0.67482 5.3577,0.63269c2.41228,0.13259 4.66327,0.7347 7.00644,0.6613c2.91908,0.69307 5.7921,0.29883 8.83297,0.81195c0.01983,-1.57022 -0.69424,-2.74909 -1.12203,-3.88868c-2.04013,-4.99719 -3.99801,-9.88477 -6.03814,-14.88196c-0.37184,-0.8372 -0.85229,-1.59086 -1.1155,-2.51162c-0.23692,-1.11356 -1.15177,-1.53334 -2.02387,-1.55415c-3.77476,-0.12174 -7.55277,-0.93222 -11.42297,-1.06699c-3.29755,-0.05683 -6.63788,-0.51262 -9.90909,-0.76242c-0.57263,-0.07814 -1.25386,-0.07271 -1.82649,-0.15085c-1.89558,-0.35703 -3.70889,-0.60447 -5.65717,-0.57537c-2.22141,-0.10655 -4.42964,-0.3095 -6.81559,-0.63506z" data-paper-data="{&quot;index&quot;:null}" fill="#010201"/><path d="M210.04818,287.80573c-1.3493,-0.08573 -2.79405,-0.18451 -4.15652,-0.17384c-1.66196,0.06817 -2.71501,-0.76381 -3.49818,-2.14866c-2.28043,-3.94856 -4.5609,-7.89693 -6.84133,-11.84549c-0.23363,-0.42521 -0.56271,-0.86326 -0.26647,-1.6093c0.74708,-0.48795 1.6192,-0.46733 2.58673,-0.4335c1.063,0.04667 2.11282,0.18992 3.18897,0.14019c1.26702,-0.02369 1.97786,0.46645 2.69194,1.64531c2.17184,4.03193 4.03101,8.21796 6.42006,12.08295c0.30273,0.63121 0.60546,1.26242 0.70416,1.96397c-0.35217,0.44347 -0.65165,0.50098 -0.82935,0.37835zM203.83512,282.04257c0.05593,0.30259 0.02958,0.49555 0.09867,0.70174c0.64499,0.97267 1.28997,1.94552 1.92179,3.01477c0.64173,0.28414 1.29661,0.47188 2.12596,0.09352c-0.36192,-1.62232 -1.48408,-2.66028 -2.06322,-4.11549c-0.80301,0.18538 -1.38879,0.20363 -2.08319,0.30545zM203.92418,277.82763c-1.25385,-0.0729 -2.42545,-0.03602 -3.6793,-0.10892c0.26323,0.92077 0.66138,1.565 1.25045,2.23508c1.06297,0.04685 2.0437,-0.01608 3.10667,0.03078c0.11854,-0.86867 -0.38825,-1.42935 -0.67782,-2.15695zM199.51779,273.78554c0.27966,1.51272 0.27966,1.51271 2.70508,1.54892c-0.34874,-1.71891 -1.54668,-1.48903 -2.70508,-1.54892z" data-paper-data="{&quot;index&quot;:null}" fill="#020202"/><path d="M252.36306,298.29853c1.95476,1.34816 2.06323,4.11548 0.2169,5.53487c-2.38933,1.83661 -7.20724,0.09778 -7.86199,-2.94067c-0.33559,-1.81529 0.54318,-3.26831 2.34009,-3.61302c0.80301,-0.18538 1.68828,-0.26114 2.43861,-0.06038c1.063,0.04667 1.97787,0.46645 2.8664,1.07922zM247.51867,299.60357c-0.61214,0.21143 -0.81293,0.97048 -0.40158,1.51814c0.48043,0.75383 2.99141,1.58799 3.96888,0.83652c0.52985,-0.32083 0.71749,-0.98352 0.30614,-1.53117c-0.39817,-0.64423 -0.94446,-0.91535 -1.89883,-1.04557c-0.66807,-0.09116 -1.36246,0.01065 -1.9746,0.22208z" data-paper-data="{&quot;index&quot;:null}" fill="#030606"/><path d="M256.62104,308.41535c1.32948,1.65596 1.05292,3.68268 -0.83615,4.70289c-0.21721,0.16693 -0.51669,0.22445 -0.81619,0.28196c-1.7278,0.5507 -3.29755,-0.05683 -4.85416,-0.76075c-1.09259,-0.54222 -1.84941,-2.12024 -1.67821,-3.37487c0.1712,-1.25462 0.87551,-2.14156 2.08661,-2.46782c0.80301,-0.18538 1.61918,-0.46715 2.36953,-0.26657c1.33613,0.18232 2.87955,0.98282 3.72857,1.88514zM251.22371,310.92292c1.07941,0.63881 2.11604,0.87864 3.25803,0.34638c0.62532,-0.308 0.9347,-1.15045 0.42792,-1.71112c-0.57586,-0.76686 -1.39529,-1.17363 -2.37603,-1.11068c-0.58578,0.01825 -1.18473,0.13308 -1.68828,0.26114c-0.49703,1.50511 -0.42791,1.71112 0.37837,2.21427z" data-paper-data="{&quot;index&quot;:null}" fill="#040605"/><path d="M213.41748,300.16069c-1.60261,-1.79161 -0.9739,-4.2618 1.27059,-5.03695c1.61918,-0.46715 3.25481,-0.34235 4.68961,0.54172c1.53027,0.8969 2.15216,2.75126 1.53337,4.43633c-0.34893,1.13218 -1.80356,1.81835 -3.43918,1.69354c-0.19088,-0.02604 -0.2863,-0.03907 -0.47718,-0.06511c-1.52701,-0.20837 -2.71501,-0.7638 -3.57721,-1.56953zM214.79651,297.89126c-0.10535,0.77209 0.64822,1.66139 1.68489,1.90104c0.47719,0.06511 1.06295,0.04686 1.56651,-0.08119c0.89846,-0.17235 1.12558,-1.1244 0.5365,-1.79448c-0.42451,-0.45125 -0.9576,-0.81895 -1.43481,-0.88407c-1.03666,-0.23964 -2.16547,0.19603 -2.3531,0.85872z" data-paper-data="{&quot;index&quot;:null}" fill="#040505"/><path d="M237.58323,299.03432c0.96087,1.50748 0.55929,3.02561 -0.9217,3.90494c-2.43211,1.43764 -6.32196,0.02201 -7.3157,-2.66956c-0.42776,-1.13979 -0.21382,-1.99525 0.75048,-2.65013c1.08605,-0.83484 2.31033,-1.25768 3.71556,-0.86936c1.55333,0.01538 2.81045,0.77683 3.77135,2.28412zM232.09058,298.67816c-0.58578,0.01825 -0.99063,0.84786 -0.67471,1.38248c0.46728,0.85023 1.28671,1.25699 2.24108,1.38722c0.85894,0.1172 1.57968,-0.17778 2.18856,-1.07774c-0.83911,-1.68743 -2.27067,-1.88277 -3.75493,-1.69198z" data-paper-data="{&quot;index&quot;:null}" fill="#030604"/><path d="M229.23616,320.30937c-1.44148,0.58977 -5.20631,-0.31709 -6.26264,-1.8376c-1.1386,-1.62992 -0.67118,-3.63058 1.17839,-4.36125c1.84959,-0.73084 4.48234,-0.07664 5.81182,1.57932c0.57586,0.76686 1.05632,1.52051 0.85553,2.27958c-0.26664,1.2416 -0.75374,1.9616 -1.5831,2.33995zM227.0643,316.27744c-0.75033,-0.20076 -1.58293,-0.51095 -2.41227,-0.1326c-0.2995,0.05752 -0.4476,0.43045 -0.39166,0.73302c0.0691,0.206 0.13821,0.41199 0.30273,0.63121c0.50679,0.56067 1.05308,0.83177 1.81658,0.93595c0.7635,0.10418 1.51382,0.30496 2.10955,-0.4986c-0.07234,-0.89472 -0.57912,-1.45539 -1.42492,-1.66898z" data-paper-data="{&quot;index&quot;:null}" fill="#030506"/><path d="M224.90596,306.44713c0.93131,1.01173 0.88513,2.77494 -0.2141,3.70636c-2.21165,1.95923 -6.65773,1.05779 -7.92786,-2.45796c-0.42776,-1.13979 0.11204,-2.24593 1.26721,-2.87477c0.93794,-0.46173 1.91867,-0.52467 2.58673,-0.43351c1.62245,0.22138 3.439,1.15755 4.28803,2.05987zM221.10473,309.36906c1.14525,0.15627 1.34928,0.08593 2.27082,-0.96812c-1.45451,-2.16455 -2.57342,-2.51379 -4.66654,-1.42323c0.29282,1.41632 1.07273,2.11265 2.3957,2.39136z" data-paper-data="{&quot;index&quot;:null}" fill="#050504"/><path d="M259.60551,317.17859c2.08972,1.07162 2.19815,3.83916 0.17413,5.1359c-0.52985,0.32083 -1.142,0.53226 -1.7278,0.5507c-1.36246,0.01065 -2.67225,-0.36464 -3.94251,-1.02967c-0.53314,-0.36751 -0.95764,-0.81877 -1.27355,-1.35339c-0.70093,-1.27525 -0.29934,-2.79339 0.86901,-3.51882c0.86885,-0.66791 1.9582,-0.81421 3.03434,-0.86394c1.02348,0.33623 1.97785,0.46645 2.86639,1.07921zM255.75157,320.48685c0.64173,0.28414 1.39209,0.48471 2.19507,0.29953c0.49036,-0.03147 0.92481,-0.36551 0.99066,-0.84805c0.17444,-0.5659 -0.2764,-0.82417 -0.63182,-1.06924c-1.35255,-0.77447 -2.41555,-0.82113 -3.89654,0.05821c0.07236,0.89452 0.70093,1.27524 1.34263,1.55957z" data-paper-data="{&quot;index&quot;:null}" fill="#050304"/><path d="M245.05278,316.96252c0.86547,1.49428 0.50339,2.72285 -0.88217,3.61521c-0.52988,0.32103 -1.14199,0.53225 -1.74098,0.64729c-1.86598,0.13852 -3.32714,-0.55237 -4.62701,-1.71279c-0.25999,-0.23205 -0.4936,-0.65725 -0.64496,-0.97286c-0.5923,-1.35881 -0.25657,-2.3944 0.92493,-3.21622c1.05973,-0.64186 2.13588,-0.69159 3.472,-0.50928c1.44475,0.09876 2.61957,0.75078 3.4982,2.14866zM240.25117,318.66653c0.64171,0.28433 1.37889,0.58148 2.19507,0.29952c0.61211,-0.21123 0.90835,-0.95727 0.38841,-1.42155c-0.51997,-0.46408 -1.25712,-0.76144 -2.02062,-0.86563c-0.77668,-0.00759 -0.96756,-0.03364 -2.05362,0.80119c0.08552,0.79814 0.83585,0.99891 1.49076,1.18646z" data-paper-data="{&quot;index&quot;:null}" fill="#040405"/><path d="M233.68608,310.49611c-1.31629,-1.75254 -0.64482,-3.82375 1.47788,-4.41876c2.23134,-0.67876 5.00226,0.38763 6.18365,2.41652c0.86544,1.49446 0.34208,3.19255 -1.29027,3.75628c-0.92479,0.36533 -1.82324,0.53768 -2.76446,0.31105c-1.52701,-0.20837 -2.79727,-0.87341 -3.6068,-2.0651zM237.93818,307.83207c-0.73717,-0.29716 -1.59611,-0.41436 -2.42546,-0.036c-0.62532,0.308 -0.81293,0.97048 -0.40158,1.51814c0.49361,0.65726 1.20444,1.14738 2.06339,1.26459c0.95437,0.13023 1.14525,0.15627 2.40901,-0.55594c-0.12828,-1.1973 -0.8391,-1.68743 -1.64536,-2.19078z" data-paper-data="{&quot;index&quot;:null}" fill="#040506"/><path d="M333.20878,308.54371c2.90265,0.10113 5.87437,0.40843 8.7375,0.79913c0.66807,0.09116 1.43156,0.19535 1.81658,0.93597c-0.18761,0.66249 -0.60888,0.89995 -1.30327,1.00177c-0.89846,0.17235 -1.63563,-0.12481 -2.50774,-0.14544c-2.39909,-0.22918 -4.68959,-0.54172 -7.08873,-0.77071c-0.66807,-0.09116 -1.32295,-0.27891 -1.59935,-1.10309c0.50026,-0.81639 1.27694,-0.80879 1.945,-0.71763z" data-paper-data="{&quot;index&quot;:null}" fill="#0c1212"/><path d="M361.9221,318.26177c-0.89846,0.17235 -1.63563,-0.12481 -2.50774,-0.14543c-2.39909,-0.22918 -4.68961,-0.54172 -7.08873,-0.77071c-0.66807,-0.09116 -1.32295,-0.2789 -1.59934,-1.10308c0.50026,-0.81639 1.27694,-0.8088 2.05359,-0.80101c2.91582,0.00455 5.8744,0.40824 8.73753,0.79893c0.66807,0.09116 1.43156,0.19535 1.81657,0.93597c-0.0922,0.6757 -0.6089,0.90014 -1.41188,1.08532z" data-paper-data="{&quot;index&quot;:null}" fill="#0d1313"/><path d="M384.05683,325.60779c-0.61214,0.21143 -1.11566,0.33928 -1.78372,0.24812c-2.60315,-0.15864 -5.30174,-0.33031 -7.98717,-0.59836c-0.57263,-0.07814 -1.25385,-0.0729 -1.78699,-0.4404c-0.35539,-0.24526 -0.72399,-0.39374 -0.65814,-0.87627c0.2699,-0.55307 0.76027,-0.58455 1.34605,-0.6028c3.0376,-0.17541 6.06527,0.43429 9.17194,0.46507c0.77668,0.00759 1.59611,0.41437 2.21151,0.89148c0.01641,0.59213 -0.21397,0.85566 -0.51347,0.91318z" data-paper-data="{&quot;index&quot;:null}" fill="#090c0d"/><path d="M361.41886,312.68802c-0.91161,0.26874 -1.68829,0.26114 -2.54722,0.14393c-2.20824,-0.20295 -4.30788,-0.48944 -6.44699,-0.48657c-0.77668,-0.00759 -1.52701,-0.20836 -2.27735,-0.40894c-0.36858,-0.14867 -0.92804,-0.3232 -0.94446,-0.91534c0.2008,-0.75906 0.86885,-0.66792 1.45466,-0.68636c3.03756,-0.17521 5.96979,0.42147 8.98107,0.43903c0.87209,0.02081 1.69154,0.42758 2.40237,0.91771c0.00326,0.68854 -0.32256,0.93902 -0.62206,0.99654z" data-paper-data="{&quot;index&quot;:null}" fill="#090d0e"/><path d="M345.81618,315.1794c0.28632,0.03906 0.53312,0.3677 0.49361,0.65726c-0.03949,0.28937 -0.25672,0.45649 -0.56937,0.61039c-1.02022,0.35231 -2.09637,0.40203 -3.15937,0.35537c-2.39912,-0.22899 -4.68962,-0.54152 -7.12823,-0.48116c-0.39493,0.04449 -0.85894,-0.1172 -1.32295,-0.2789c-0.19088,-0.02604 -0.34226,-0.34145 -0.41135,-0.54765c-0.05593,-0.30259 0.07899,-0.57893 0.39166,-0.73302c0.33898,-0.34688 0.82934,-0.37835 1.30653,-0.31324c2.90265,0.10113 5.80526,0.20244 8.61247,0.29054c0.66807,0.09116 1.14526,0.15627 1.78699,0.4404z" data-paper-data="{&quot;index&quot;:null}" fill="#080b0b"/><path d="M384.03018,331.50256c-3.17578,-0.23677 -6.43383,-0.58297 -9.60962,-0.81975c-0.38175,-0.0521 -0.75032,-0.20077 -1.11892,-0.34924c-0.27314,-0.13565 -0.51993,-0.46428 -0.48042,-0.75383c0.05266,-0.38595 0.3653,-0.53985 0.6648,-0.59737c0.69439,-0.10181 1.2802,-0.12027 1.866,-0.13871c1.6356,0.125 3.3798,0.16642 5.01542,0.29123c1.25387,0.07272 2.39914,0.22899 3.63983,0.39828c0.66807,0.09116 1.43156,0.19534 1.69477,1.1161c-0.48711,0.72 -1.09924,0.93142 -1.67187,0.85328z" data-paper-data="{&quot;index&quot;:null}" fill="#07090a"/><path d="M364.33733,324.78469c-1.62245,-0.22138 -3.1758,-0.23658 -4.8114,-0.36158c-1.24069,-0.16929 -2.58999,-0.25503 -3.83069,-0.42433c-0.57263,-0.07814 -1.0498,-0.14325 -1.48748,-0.49792c-0.1777,-0.12263 -0.34224,-0.34165 -0.31591,-0.53463c0.02634,-0.19298 0.16128,-0.46952 0.36534,-0.54005c0.59896,-0.11485 1.19791,-0.22968 1.78372,-0.24812c1.74421,0.04143 3.48842,0.08287 5.21948,0.22069c1.25387,0.07272 2.39913,0.22898 3.63981,0.39827c0.66807,0.09116 1.33613,0.18232 1.69478,1.11611c-0.69116,0.79054 -1.56325,0.76973 -2.25764,0.87154z" data-paper-data="{&quot;index&quot;:null}" fill="#07090a"/><path d="M378.08764,313.78272c-1.25387,-0.07272 -2.38595,-0.32557 -3.653,-0.30169c-1.64878,-0.02841 -3.37982,-0.16623 -5.00227,-0.38762c-0.47719,-0.06511 -1.03664,-0.23984 -1.50065,-0.40153c-0.27317,-0.13545 -0.53311,-0.36771 -0.48044,-0.75365c0.05266,-0.38595 0.36533,-0.54004 0.6648,-0.59737c0.50355,-0.12806 1.08932,-0.14632 1.57969,-0.17779c1.74421,0.04143 3.48843,0.08287 5.21949,0.2207c1.25387,0.07272 2.39912,0.22899 3.63981,0.39828c0.66807,0.09116 1.32295,0.27891 1.6816,1.21269c-1.37237,0.79577 -1.37237,0.79577 -2.14902,0.78798z" data-paper-data="{&quot;index&quot;:null}" fill="#060909"/><path d="M371.57789,317.3183c2.71177,0.07508 5.49262,0.35635 8.19121,0.52801c0.5858,-0.01844 1.14525,0.15628 1.60929,0.31779c0.36858,0.14867 0.81943,0.40676 0.64497,0.97285c-1.25061,0.61582 -1.25061,0.61582 -2.31358,0.56896c-1.44475,-0.09876 -2.98493,-0.21054 -4.52509,-0.32251c-1.54019,-0.11179 -3.06718,-0.32015 -4.59418,-0.52851c-0.57263,-0.07814 -1.22752,-0.26588 -1.28671,-1.257c0.74709,-0.48795 1.52375,-0.48016 2.27409,-0.27958z" data-paper-data="{&quot;index&quot;:null}" fill="#060909"/><path d="M338.75643,326.30784c0.5167,-0.22445 1.11564,-0.33929 1.59285,-0.27417c2.99809,0.11415 5.98299,0.32488 8.96791,0.53561c0.57263,0.07814 1.14524,0.15628 1.47433,0.59432c0.04277,0.39898 -0.10535,0.77209 -0.51343,0.91298c-0.7339,0.39137 -1.51059,0.38378 -2.28724,0.37599c-2.79406,-0.1845 -5.68351,-0.38221 -8.47755,-0.56689c-0.47719,-0.06511 -0.95437,-0.13024 -1.28346,-0.56827c-0.13819,-0.41219 -0.07236,-0.89471 0.52661,-1.00955z" data-paper-data="{&quot;index&quot;:null}" fill="#070909"/><path d="M356.13275,327.20435c0.70757,-0.1984 1.49742,-0.28719 2.26092,-0.18301c2.59001,0.25504 5.17999,0.51006 7.75682,0.86168c0.47719,0.06511 0.84576,0.21379 1.30977,0.37549c0.17772,0.12243 0.34226,0.34145 0.41134,0.54765c0.05593,0.30259 -0.17442,0.5659 -0.39166,0.73302c-0.7339,0.39137 -1.51057,0.38358 -2.27407,0.2794c-2.59001,-0.25504 -5.17999,-0.51006 -7.76997,-0.76529c-0.85894,-0.1172 -1.51385,-0.30476 -2.1029,-0.97503c0.16128,-0.46952 0.39166,-0.73302 0.79975,-0.87391z" data-paper-data="{&quot;index&quot;:null}" fill="#050606"/><path d="M338.53627,320.08445c2.68544,0.26806 5.27541,0.52327 7.94768,0.88791c0.47719,0.06511 0.84578,0.2136 1.3098,0.37529c0.1777,0.12263 0.34224,0.34165 0.3159,0.53463c0.0691,0.206 -0.16127,0.46951 -0.2699,0.55307c-0.65162,0.50079 -1.4283,0.49319 -2.1918,0.38901c-2.69858,-0.17166 -5.24908,-0.71625 -7.96085,-0.79134c-0.77668,-0.00759 -1.51382,-0.30494 -2.08972,-1.07162c1.00381,-0.94444 1.97133,-0.91061 2.93888,-0.87697z" data-paper-data="{&quot;index&quot;:null}" fill="#050606"/><path d="M319.11919,325.59436c-5.80172,-5.21551 -11.48167,-10.61099 -17.05302,-16.08983c-2.21798,-2.26892 -4.54462,-4.45409 -6.77577,-6.62641c-0.08226,-0.1096 -0.2468,-0.32862 -0.31591,-0.53463c0.57263,0.07814 1.25387,0.07271 1.8265,0.15085c3.36665,0.26282 6.62471,0.60901 9.90909,0.76242c3.77476,0.12174 7.55277,0.93222 11.42297,1.06699c0.87209,0.02081 1.69152,0.42757 2.02388,1.55415c0.18097,0.81117 0.74366,1.67441 1.1155,2.51162c2.04013,4.99719 4.09344,9.89779 6.03814,14.88196c0.41461,1.23618 1.03325,2.40202 1.12203,3.88868c-3.04086,-0.51312 -6.00931,-0.1319 -8.83296,-0.81195c-0.25996,-0.23224 -0.31591,-0.53463 -0.48043,-0.75384z" data-paper-data="{&quot;index&quot;:null}" fill="#00ff00"/><path d="M282.77115,309.13268c5.43315,5.06685 10.87945,10.0373 16.09538,15.27107c-0.19088,-0.02604 -0.49036,0.03147 -0.68124,0.00543c-5.27541,-0.52328 -10.4554,-1.03352 -15.63536,-1.54378c-0.57263,-0.07814 -1.25387,-0.07272 -1.83967,-0.05427c-1.55333,-0.01538 -3.09352,-0.12717 -4.51191,-0.4191c-2.70819,-5.08835 -8.68717,-18.979 -9.45052,-21.93409c2.66899,-0.32389 5.21948,0.22069 7.80948,0.47573c2.73795,2.73301 5.36727,5.54956 8.21384,8.19901z" data-paper-data="{&quot;index&quot;:null}" fill="#00ff00"/><path d="M275.26487,300.73547c2.50774,0.14542 4.92001,0.27802 7.41455,0.52022c2.82023,2.84242 5.73589,5.69786 8.65154,8.55349c4.03783,3.89342 8.08884,7.69023 12.12667,11.58365c1.29989,1.16041 2.49115,2.40439 3.77785,3.66138c-2.78088,-0.28107 -5.67035,-0.47879 -8.45122,-0.75986c-5.21591,-5.23396 -10.75767,-10.21725 -16.09535,-15.27127c-2.75113,-2.63642 -5.39364,-5.3564 -8.13158,-8.0894c0.20403,-0.07035 0.40809,-0.14088 0.70755,-0.19821z" data-paper-data="{&quot;index&quot;:null}" fill="#87ff87"/><path d="M312.68861,325.69992c-3.43563,-3.31953 -6.97983,-6.55588 -10.30685,-9.95897c-3.50471,-3.52571 -6.99625,-7.14802 -10.37916,-10.85388c-0.94446,-0.91534 -2.18841,-1.77317 -2.68528,-3.11895c1.94826,-0.0291 3.76158,0.21833 5.65717,0.57536c0.08229,0.10941 0.13822,0.412 0.31591,0.53463c2.31345,2.28175 4.54462,4.45409 6.77577,6.62641c5.57135,5.47884 11.25131,10.87432 17.05302,16.08983c0.16451,0.21922 0.31591,0.53463 0.48042,0.75385c-2.43861,0.06038 -4.6896,-0.54173 -6.911,-0.64828z" data-paper-data="{&quot;index&quot;:null}" fill="#86ff86"/><path d="M307.1137,325.23416c-1.29989,-1.16041 -2.49115,-2.40437 -3.77787,-3.66118c-4.03783,-3.89342 -8.0888,-7.69043 -12.12664,-11.58384c-2.91566,-2.85544 -5.73587,-5.69805 -8.65154,-8.55349c2.22141,0.10655 4.42964,0.30949 6.65105,0.41604c0.5923,1.35881 1.75399,2.10703 2.68528,3.11896c3.38293,3.70567 6.87447,7.32797 10.37919,10.85368c3.42242,3.4163 6.87122,6.63944 10.30682,9.95916c-1.85283,0.04213 -3.55752,-0.28888 -5.46628,-0.54933z" data-paper-data="{&quot;index&quot;:null}" fill="#01ff01"/><path d="M207.98153,285.85261c-0.7339,0.39137 -1.48423,0.19061 -2.12596,-0.09352c-0.72725,-1.08227 -1.27679,-2.0421 -1.92178,-3.01477c-0.06907,-0.20619 -0.04274,-0.39917 -0.09867,-0.70174c0.69439,-0.10181 1.29335,-0.21665 2.08319,-0.30545c0.56597,1.55178 1.68813,2.58975 2.06322,4.11549z" data-paper-data="{&quot;index&quot;:null}" fill="#589ca0"/><path d="M201.49535,279.95379c-0.60222,-0.57369 -1.00039,-1.21792 -1.25045,-2.23508c1.34928,0.08592 2.52089,0.04904 3.6793,0.10892c0.28958,0.7276 0.80951,1.19188 0.67782,2.15694c-1.17159,0.0367 -2.13914,0.00306 -3.10667,-0.03078z" data-paper-data="{&quot;index&quot;:null}" fill="#5ba3a7"/><path d="M199.51779,273.78554c1.1584,0.05989 2.36953,-0.26657 2.70508,1.54892c-2.42543,-0.0362 -2.42542,-0.0362 -2.70508,-1.54892z" data-paper-data="{&quot;index&quot;:null}" fill="#56999d"/><path d="M251.39212,300.42706c0.41135,0.54765 0.23689,1.11374 -0.30614,1.53117c-0.9643,0.65488 -3.39302,-0.06966 -3.96888,-0.83652c-0.32909,-0.43804 -0.21056,-1.30671 0.40158,-1.51814c0.61214,-0.21143 1.30653,-0.31324 1.9746,-0.22208c0.95437,0.13023 1.50066,0.40134 1.89883,1.04557z" data-paper-data="{&quot;index&quot;:null}" fill="#01f4f4"/><path d="M252.53364,308.4475c0.98073,-0.06295 1.80017,0.34382 2.37603,1.11068c0.50679,0.56067 0.29284,1.41613 -0.42792,1.71112c-1.142,0.53226 -2.27406,0.2794 -3.25804,-0.34638c-0.80627,-0.50315 -0.87539,-0.70916 -0.37837,-2.21427c0.49036,-0.03147 1.10251,-0.24289 1.68829,-0.26114z" data-paper-data="{&quot;index&quot;:null}" fill="#35a76d"/><path d="M218.58442,297.91662c0.58907,0.67008 0.27966,1.51272 -0.5365,1.79448c-0.50355,0.12806 -0.99389,0.15933 -1.56651,0.08119c-1.03666,-0.23964 -1.88568,-1.14196 -1.68489,-1.90104c0.17446,-0.5661 1.30329,-1.00195 2.3531,-0.85871c0.47719,0.06511 1.02348,0.33623 1.4348,0.88407z" data-paper-data="{&quot;index&quot;:null}" fill="#da6694"/><path d="M233.65695,301.44787c-0.85894,-0.1172 -1.67837,-0.52397 -2.24108,-1.38722c-0.42453,-0.45106 -0.01967,-1.28067 0.67472,-1.38249c1.49741,-0.28719 2.92898,-0.09184 3.75493,1.69199c-0.51344,0.91297 -1.24735,1.30434 -2.18857,1.07773z" data-paper-data="{&quot;index&quot;:null}" fill="#01f001"/><path d="M226.47511,318.45806c-0.7635,-0.10418 -1.40523,-0.38831 -1.81658,-0.93596c-0.16451,-0.21922 -0.23362,-0.42521 -0.30273,-0.63121c-0.05593,-0.30259 0.07902,-0.57912 0.39168,-0.73303c0.82934,-0.37835 1.66195,-0.06816 2.41227,0.1326c0.75035,0.20057 1.24394,0.85783 1.32947,1.65596c-0.67798,0.69396 -1.44148,0.58978 -2.01411,0.51164z" data-paper-data="{&quot;index&quot;:null}" fill="#008bda"/><path d="M223.37556,308.40093c-0.92154,1.05405 -1.12556,1.1244 -2.27082,0.96812c-1.33613,-0.18232 -2.10289,-0.97503 -2.3957,-2.39136c2.09311,-1.09057 3.21203,-0.74131 4.66654,1.42323z" data-paper-data="{&quot;index&quot;:null}" fill="#ebe502"/><path d="M258.30548,318.86908c0.35542,0.24507 0.71081,0.49032 0.63182,1.06924c-0.16128,0.46952 -0.4871,0.71999 -0.99065,0.84805c-0.70755,0.19821 -1.45791,-0.00237 -2.19507,-0.29953c-0.65489,-0.18774 -1.188,-0.55543 -1.34263,-1.55957c1.48099,-0.87934 2.55714,-0.92906 3.89654,-0.05821z" data-paper-data="{&quot;index&quot;:null}" fill="#f30001"/><path d="M240.70541,316.76244c0.77668,0.00759 1.41839,0.29192 2.02061,0.86561c0.51997,0.46408 0.31917,1.22316 -0.38841,1.42156c-0.70757,0.1984 -1.4579,-0.00237 -2.19507,-0.29953c-0.55945,-0.17472 -1.30979,-0.37529 -1.38214,-1.27002c1.1815,-0.82182 1.29012,-0.90537 1.94501,-0.71763z" data-paper-data="{&quot;index&quot;:null}" fill="#de93ad"/><path d="M237.17452,310.5788c-0.85894,-0.1172 -1.47434,-0.59431 -2.06339,-1.26459c-0.39817,-0.64423 -0.22373,-1.21014 0.40158,-1.51814c0.82934,-0.37835 1.70146,-0.35773 2.42546,0.036c0.81942,0.40676 1.53023,0.89709 1.64535,2.19079c-1.26376,0.71221 -1.46781,0.78274 -2.40902,0.55594z" data-paper-data="{&quot;index&quot;:null}" fill="#865492"/></g><g stroke="#000000"><path d="M283.47058,265.46894c30.32901,13.83728 32.31529,23.27707 28.95672,30.63849c-3.35857,7.36142 -30.66774,2.11168 -60.99675,-11.7256c-30.329,-13.83728 35.59943,-43.31495 38.95799,-50.67636c5.99892,-3.78697 7.42864,2.58119 4.48304,9.86676c-3.63261,8.98481 -13.9934,20.71396 -11.40101,21.89672z" fill="#216aff" stroke-width="2"/><path d="M311.27325,264.86711c13.01797,5.93931 18.63246,21.57882 12.5403,34.93181c-6.09216,13.35299 -21.58399,19.36298 -34.60197,13.42368c-13.01798,-5.9393 -18.63246,-21.57882 -12.5403,-34.93181c6.09216,-13.35299 21.58399,-19.36297 34.60198,-13.42367z" fill="#faddbf" stroke-width="2"/><path d="M284.16201,296.17571c13.01798,5.9393 45.12758,-10.44511 39.03541,2.90788c-6.09216,13.35299 -21.58399,19.36298 -34.60196,13.42367c-13.01798,-5.9393 -17.45144,-22.27088 -4.43345,-16.33156z" fill="#ef8b89" stroke-width="0"/></g></g></g></svg>