<svg version="1.1" xmlns="http://www.w3.org/2000/svg" xmlns:xlink="http://www.w3.org/1999/xlink" width="176.56392" height="336.98225" viewBox="0,0,176.56392,336.98225"><g transform="translate(-236.9759,-24.00517)"><g data-paper-data="{&quot;isPaintingLayer&quot;:true}" fill-rule="nonzero" stroke-linejoin="miter" stroke-miterlimit="10" stroke-dasharray="" stroke-dashoffset="0" style="mix-blend-mode: normal"><g data-paper-data="{&quot;index&quot;:null}" stroke="#000000" stroke-linecap="butt"><path d="M357.66599,220.87405c30.12577,-14.27436 38.62407,-9.70992 42.08871,-2.39784c3.46466,7.31209 -18.14846,24.81135 -48.27424,39.0857c-30.12577,14.27434 -10.18009,-55.13501 -13.64474,-62.44709c0.97012,-7.0276 6.76099,-4.01702 10.43377,2.93041c4.5294,8.5678 6.82147,24.04894 9.3965,22.82883z" fill="#216aff" stroke-width="2"/><path d="M363.08872,234.336c-6.28459,-13.26351 -0.89681,-28.98256 12.03393,-35.10948c12.93074,-6.12692 28.50783,-0.34156 34.79243,12.92196c6.2846,13.26352 0.89683,28.98257 -12.03391,35.10949c-12.93074,6.12692 -28.50784,0.34155 -34.79244,-12.92197z" fill="#faddbf" stroke-width="2"/><path d="M396.93709,247.26812c-12.93074,6.12691 -28.27595,-1.00751 -15.34519,-7.13443c12.93074,-6.12692 21.09452,-41.23858 27.37912,-27.97506c6.28459,13.26351 0.89682,28.98257 -12.03393,35.10948z" fill="#ef8b89" stroke-width="0"/></g><g stroke="#000000" stroke-linecap="butt"><path d="M327.43955,340.83534v-95.29492h29.49199v95.29492z" fill="#73fffc" stroke-width="2"/><path d="M327.1138,340.21741l1.32626,-93.78573c0,0 5.20288,68.11227 6.3799,77.52842c0.2602,2.08162 2.52228,2.78987 2.52228,2.78987l18.60659,13.13896z" fill="#59a9e6" stroke-width="0"/></g><g stroke="#000000" stroke-linecap="butt"><path d="M288.4238,338.41279v-95.29492h29.49199v95.29492z" fill="#73fffc" stroke-width="2"/><path d="M288.09805,337.79491l1.32626,-93.78573c0,0 5.20288,68.11227 6.3799,77.52842c0.2602,2.08162 2.52228,2.78987 2.52228,2.78987l18.60659,13.13896z" fill="#59a9e6" stroke-width="0"/></g><g stroke="#000000" stroke-linecap="butt"><path d="M355.22917,235.69588c0,13.80271 10.04743,36.74388 4.95001,46.45977c-6.2338,11.88187 -28.61241,9.09579 -38.9397,9.09579c-13.66287,0 -32.94407,4.17018 -38.34426,-14.83216c-2.01935,-7.10576 4.35457,-32.37264 4.35457,-40.7234c0,-30.68249 15.2177,-55.55556 33.98969,-55.55556c18.77199,0 33.98969,24.87307 33.98969,55.55556z" fill="#216aff" stroke-width="2"/><path d="M303.96554,251.27245c0,13.80271 62.04198,20.54886 56.94455,30.26474c-6.2338,11.88186 -28.61241,9.09579 -38.9397,9.09579c-13.66287,0 -32.94406,4.17018 -38.34425,-14.83215c-2.01936,-7.10576 4.35457,-32.37265 4.35457,-40.7234c0,-9.45244 3.34855,-28.59801 5.51953,-29.96813c5.94391,-16.76415 10.4653,25.13995 10.4653,46.16315z" fill="#3236f4" stroke-width="0"/></g><g stroke="#000000" stroke-linecap="butt"><g><path d="M240.41267,107.93986c2.53302,-46.72218 42.46225,-82.54456 89.18443,-80.01154c46.72218,2.53302 82.54456,42.46225 80.01154,89.18443c-2.53302,46.72218 -42.46225,82.54456 -89.18443,80.01154c-46.72218,-2.53302 -82.54456,-42.46225 -80.01154,-89.18443z" fill="#faddbf" stroke-width="2"/><path d="M240.69017,107.08412c0.81497,-15.0322 10.86473,-40.48237 15.54116,-43.44773c0.53406,-0.33866 6.26029,-8.58398 14.13338,-14.88353c9.7857,-7.82992 22.10397,-13.98031 22.70317,-13.75047c7.81785,2.99863 -21.01177,63.81102 -21.14375,89.13093c-0.00032,0.06038 3.33444,19.91129 4.92679,20.43717c2.62453,4.89172 8.06069,19.6185 18.53951,27.33724c19.52852,14.38475 47.80471,22.30074 46.29621,22.72543c-2.41304,0.67935 -14.93091,1.96362 -20.98492,1.63541c-46.72218,-2.53302 -82.54456,-42.46225 -80.01154,-89.18443z" fill="#ef8b89" stroke-width="0"/><path d="M409.11077,116.62689c-0.62928,11.60729 -2.42227,15.53236 -2.87327,13.65347c-0.46011,-1.91682 0.34486,-9.80934 -8.23628,-15.11729c-2.07938,-1.28622 -10.53103,5.71433 -13.18815,4.34033c-1.66898,-0.86304 -8.08861,-10.629 -9.96289,-11.40764c-1.31046,-0.54441 -12.88537,7.6913 -14.25847,7.16554c-3.42456,-1.31125 -11.35522,-12.00587 -15.06531,-12.86599c-2.04304,-0.47364 -9.91068,11.32987 -12.00286,10.96222c-2.69814,-0.47413 -9.40053,-12.5958 -12.13391,-12.74399c-7.26917,-0.3941 -7.84834,6.59559 -13.40363,12.30945c-3.60996,3.71301 -13.26134,-13.79001 -16.62067,-9.53042c-4.1719,5.2899 -8.29422,10.38393 -12.72389,13.74869c-3.47524,2.63979 -12.79797,-10.80553 -15.81145,-8.34729c-14.54994,11.86909 -23.30849,19.41038 -22.32476,1.26519c1.9781,-36.48657 43.6688,-5.85807 86.55537,-25.08633c41.0506,-18.4051 84.02828,-4.83252 82.05017,31.65405z" fill="#ef8b89" stroke-width="0"/></g><path d="M411.0923,108.41122c-1.27127,23.4489 6.05032,9.05612 -11.40341,-1.47975c-2.13583,-1.28928 -10.79947,5.69978 -13.52834,4.32189c-1.71404,-0.86548 -8.31617,-10.64134 -10.24079,-11.42271c-1.34566,-0.54632 -13.21284,7.67354 -14.62274,7.14579c-3.51636,-1.31623 -11.67054,-12.02297 -15.47929,-12.88843c-2.09737,-0.47659 -10.15483,11.31663 -12.30249,10.94597c-2.76967,-0.47801 -9.66536,-12.61016 -12.47073,-12.76225c-7.46065,-0.40448 -8.04507,6.58493 -13.73813,12.29132c-3.69949,3.70816 -13.62926,-13.80995 -17.07076,-9.55482c-4.27393,5.28437 -8.49727,10.37292 -13.03848,13.73164c-3.56275,2.63504 -13.14947,-10.82459 -16.2386,-8.37044c-14.91517,11.84929 -23.89302,19.37869 -22.90929,1.2335c1.9781,-36.48657 44.20304,-78.97985 90.06253,-76.49359c45.85948,2.48625 84.95865,46.81532 82.98054,83.30189z" fill="#724e36" stroke-width="2"/><path d="M410.90788,107.23673c-1.27127,23.4489 6.05032,9.05612 -11.40341,-1.47975c-2.13583,-1.28928 -10.79947,5.69978 -13.52834,4.32189c-1.71404,-0.86548 -8.31617,-10.64134 -10.2408,-11.42271c-1.34566,-0.54632 -13.21284,7.67354 -14.62274,7.14579c-3.51636,-1.31623 -11.67054,-12.02297 -15.47929,-12.88843c-2.09737,-0.47659 -10.15483,11.31663 -12.30249,10.94597c-2.76967,-0.47801 -9.66536,-12.61016 -12.47073,-12.76225c-7.46065,-0.40448 -8.04507,6.58493 -13.73813,12.29132c-3.69949,3.70816 -13.62926,-13.80995 -17.07076,-9.55482c-4.27393,5.28437 -8.49727,10.37292 -13.03849,13.73164c-3.56275,2.63504 -13.14947,-10.82459 -16.2386,-8.37044c-14.91517,11.84929 -23.89302,19.37869 -22.90929,1.2335c1.9781,-36.48657 44.80735,-5.79634 88.7929,-24.96503c42.10252,-18.34807 86.22828,-4.71324 84.25017,31.77332z" fill="#623728" stroke-width="0"/></g><g stroke="#000000" stroke-linecap="butt"><path d="M342.57833,136.41473c-1.54604,28.51706 -15.49247,42.51312 -32.03671,41.61618c-16.54424,-0.89694 -29.42134,-16.34724 -27.8753,-44.86429c1.54604,-28.51706 16.21112,-50.90759 32.75536,-50.01065c16.54424,0.89694 28.70269,24.74169 27.15665,53.25876z" fill="#f0f0f0" stroke-width="2"/><path d="M296.95126,114.32991c-5.82468,27.95865 30.81464,63.80331 14.27039,62.90637c-16.54424,-0.89694 -29.42134,-16.34724 -27.8753,-44.86429c1.54604,-28.51706 22.02567,-58.46203 13.60491,-18.04208z" fill="#9a99ff" stroke-width="0"/></g><path d="M338.2439,144.42508c-0.85654,15.79901 -6.23293,28.35281 -12.00851,28.03968c-5.77558,-0.31312 -9.76325,-13.37459 -8.90672,-29.1736c0.85654,-15.79901 6.23293,-28.35281 12.00851,-28.03968c5.77558,0.31312 9.76325,13.37459 8.90672,29.1736z" fill="#000000" stroke="none" stroke-width="0" stroke-linecap="butt"/><g stroke="#000000" stroke-linecap="butt"><path d="M339.20231,106.15291c3.89913,10.45622 8.7783,42.25228 -6.90892,41.40181c-15.68722,-0.85048 -46.31494,-34.79331 -41.25627,-44.1484c4.81325,-8.90122 7.9393,-21.01995 23.62652,-20.16947c15.68722,0.85048 20.82274,12.95114 24.53866,22.91606z" fill="#a100fe" stroke-width="2"/><path d="M338.46865,105.75836c3.74729,10.44799 9.4739,41.94883 -5.67843,41.12736c-15.15233,-0.82148 -45.74813,-34.42142 -40.8442,-43.7849c4.66601,-8.9092 6.49653,1.31565 21.64886,2.13713c15.15233,0.82148 21.30254,-9.43666 24.87376,0.52041z" fill="#99008e" stroke-width="0"/></g><g data-paper-data="{&quot;index&quot;:null}" stroke="#000000" stroke-linecap="butt"><path d="M379.13495,85.12936c16.54424,0.89694 28.70269,24.74169 27.15665,53.25876c-1.54604,28.51705 -16.01802,42.48463 -32.56226,41.58769c-16.54424,-0.89694 -28.8958,-16.31874 -27.34975,-44.8358c1.54604,-28.51706 16.21112,-50.90759 32.75536,-50.01065z" fill="#f0f0f0" stroke-width="2"/><path d="M405.70147,137.52463c-1.54604,28.51705 -16.01802,42.48463 -32.56226,41.58769c-16.54424,-0.89694 23.75554,-32.57038 20.98765,-60.99487c-4.00154,-41.09341 13.12065,-9.10988 11.57461,19.40718z" fill="#9a99ff" stroke-width="0"/></g><path d="M393.07458,118.53529c5.77558,0.31312 9.76325,13.37459 8.90672,29.1736c-0.85654,15.79901 -6.23293,28.35281 -12.00851,28.03968c-5.77558,-0.31312 -9.76325,-13.37459 -8.90672,-29.1736c0.85654,-15.79901 6.23293,-28.35281 12.00851,-28.03968z" data-paper-data="{&quot;index&quot;:null}" fill="#000000" stroke="none" stroke-width="0" stroke-linecap="butt"/><g data-paper-data="{&quot;index&quot;:null}" stroke="#000000" stroke-linecap="butt"><path d="M353.00749,105.42052c4.77146,-9.50477 11.1851,-20.97931 26.87232,-20.12883c15.68722,0.85048 17.48478,13.23614 21.30749,22.60555c4.01762,9.84715 -7.68652,13.86098 -23.37374,13.0105c-15.68722,-0.85048 -29.8128,-5.51381 -24.80608,-15.48721z" fill="#a100fe" stroke-width="2"/><path d="M353.94958,105.11683c4.62676,-9.51262 9.63191,1.3503 24.78423,2.17178c15.15233,0.82148 18.07754,-9.14554 21.75302,0.21589c3.86288,9.83876 -7.45074,13.87376 -22.60307,13.05228c-15.15233,-0.82148 -28.78907,-5.45831 -23.93419,-15.43994z" fill="#99008e" stroke-width="0"/></g><path d="M391.63632,338.87005c0,11.6628 -14.51982,21.11737 -32.43092,21.11737c-17.9111,0 -32.43092,-9.45457 -32.43092,-21.11737c0,-2.33142 -0.03339,-13.76009 1.08979,-15.13837c4.49546,-5.51647 17.81784,5.26144 32.14847,5.26144c17.9111,0 31.62358,-1.78588 31.62358,9.87692z" fill="#000082" stroke="#000000" stroke-width="2" stroke-linecap="butt"/><path d="M389.75004,336.13775c0,6.30841 -13.89058,10.1901 -31.80169,10.1901c-17.9111,0 -30.16566,-2.95748 -30.16566,-9.26589c0,-1.26107 -0.03338,-12.52602 1.0898,-13.27153c4.49546,-2.98386 15.55258,5.7726 29.88321,5.7726c17.9111,0 30.99434,0.26631 30.99434,6.57472z" fill="#2e0048" stroke="#000000" stroke-width="0" stroke-linecap="butt"/><path d="M348.64938,338.2252c0,11.6628 -14.51982,21.11737 -32.43092,21.11737c-17.9111,0 -32.43092,-9.45457 -32.43092,-21.11737c0,-2.33142 -0.03339,-13.76009 1.08979,-15.13837c4.49546,-5.51647 17.81784,5.26144 32.14847,5.26144c17.9111,0 31.62358,-1.78588 31.62358,9.87692z" fill="#000082" stroke="#000000" stroke-width="2" stroke-linecap="butt"/><path d="M346.7631,335.49289c0,6.30841 -13.89058,10.1901 -31.80169,10.1901c-17.9111,0 -30.16566,-2.95748 -30.16566,-9.26589c0,-1.26107 -0.03338,-12.52602 1.0898,-13.27153c4.49546,-2.98386 15.55258,5.7726 29.88321,5.7726c17.9111,0 30.99434,0.26631 30.99434,6.57472z" fill="#2e0048" stroke="#000000" stroke-width="0" stroke-linecap="butt"/><g><path d="M328.72833,242.91876c-13.73273,6.24781 -24.89528,2.9909 -31.70787,-10.3019c-5.32822,-10.39641 0.74466,-27.45935 14.47741,-33.70717c13.73279,-6.24787 27.74602,-1.91275 33.9316,11.68312c0.96731,2.12613 1.22902,4.37541 1.48725,6.42752c1.39289,11.07026 -6.60316,20.62765 -18.18837,25.89843z" fill="#485e84" stroke="#000000" stroke-width="2" stroke-linecap="butt"/><path d="M301.95467,208.83504c0,0 1.97498,5.40652 3.93205,5.83458c18.77268,4.10612 31.9508,-0.74726 36.18689,-2.68512c0.96244,-0.44027 1.0875,-1.55617 1.0875,-1.55617c0,0 1.07256,1.82145 1.64073,4.5031c0.60458,2.85349 0.68169,6.66112 -0.21147,9.60175c-1.02028,3.35903 -5.41674,10.44279 -5.41674,10.44279l-17.4819,11.54304c0,0 -12.95722,-3.61463 -14.71601,-4.88095c-1.72305,-1.24056 -3.4061,-3.20271 -5.27958,-5.21692c-2.90881,-3.12736 -4.65352,-7.31816 -4.96796,-10.18102c-0.40125,-3.65366 0.60968,-8.20667 2.06859,-11.73286c1.35779,-3.28178 3.15796,-5.67212 3.15796,-5.67212z" fill="#343545" stroke="none" stroke-width="0" stroke-linecap="butt"/><path d="M314.17495,229.99712c0,0 -5.35641,-7.25996 -5.25945,-12.41464c0.12272,-6.52528 3.97185,-18.90618 3.97185,-18.90618" fill="none" stroke="#000000" stroke-width="1" stroke-linecap="round"/><path d="M341.08614,204.99104c0,0 1.52244,6.98656 1.40882,11.28293c-0.11466,4.3374 -3.77394,13.32418 -3.77394,13.32418" fill="none" stroke="#000000" stroke-width="1" stroke-linecap="round"/><path d="M305.87013,237.16555c0,0 -5.6096,-7.37011 -5.25035,-12.94864c0.55128,-8.56004 3.52666,-19.76909 3.52666,-19.76909" fill="none" stroke="#000000" stroke-width="1" stroke-linecap="round"/><path d="M295.98151,225.51169c0,0 8.11494,-15.28473 25.39364,-17.51859c18.92663,-2.44691 25.77055,13.38506 25.77055,13.38506" fill="none" stroke="#000000" stroke-width="1" stroke-linecap="round"/><path d="M298.73373,234.62928c0,0 10.81979,-14.13488 26.06261,-16.13886c12.51575,-1.64543 19.52801,11.15094 19.52801,11.15094" fill="none" stroke="#000000" stroke-width="1" stroke-linecap="round"/><path d="M326.74358,201.0663c-1.19384,-0.14809 -2.06656,-1.03432 -1.94932,-1.97938c0.11718,-0.94512 0.90987,-0.87007 2.10371,-0.72197c1.19384,0.14809 2.33671,0.31316 2.21948,1.25825c-0.11718,0.94512 -1.18007,1.59123 -2.37387,1.4431z" fill="#8fbbbe" stroke="none" stroke-width="0" stroke-linecap="butt"/><path d="M333.76962,202.93544c-0.5475,0.24906 -1.29418,-0.21472 -1.66781,-1.03594c-0.37363,-0.82122 -0.41279,-1.20811 0.13468,-1.4572c0.5475,-0.24906 1.45942,0.13955 1.83302,0.96078c0.37363,0.82122 0.24756,1.2833 -0.29991,1.53237z" fill="#8fbbbe" stroke="none" stroke-width="0" stroke-linecap="butt"/><path d="M319.87021,200.27864c-0.8564,0.28399 -1.70404,0.05142 -1.89338,-0.51947c-0.18935,-0.57085 0.57689,-0.76828 1.43325,-1.0523c0.8564,-0.28399 1.47853,-0.5471 1.66789,0.0238c0.18935,0.57085 -0.35141,1.26396 -1.20777,1.54795z" fill="#8fbbbe" stroke="none" stroke-width="0" stroke-linecap="butt"/><path d="M299.4623,212.56143c0,0 7.43356,-7.03006 14.47389,-9.83249c3.99151,-1.58882 8.05795,-1.61123 11.1411,-1.59367c2.72658,0.0155 8.76082,2.6258 13.17159,5.10439c3.24741,1.82484 5.49791,3.72279 5.49791,3.72279" fill="none" stroke="#000000" stroke-width="0.5" stroke-linecap="round"/><path d="M329.54616,196.28211c0,0 4.00499,9.78458 4.08183,15.18932c0.06475,4.55362 -3.32044,14.97497 -3.32044,14.97497" fill="none" stroke="#000000" stroke-width="1" stroke-linecap="round"/><path d="M324.50928,227.2896c0,0 -3.56146,-8.98577 -4.11469,-13.47406c-0.97136,-7.88058 2.49666,-17.69636 2.49666,-17.69636" fill="none" stroke="#000000" stroke-width="1" stroke-linecap="round"/></g><g stroke="#000000" stroke-linecap="butt"><path d="M302.75012,236.77881c33.10069,-3.95759 39.70725,3.07154 40.66783,11.10569c0.96058,8.03417 -25.09414,17.75538 -58.19484,21.71296c-33.10069,3.95757 7.87426,-55.51126 6.91368,-63.54542c3.15373,-6.3547 7.68722,-1.65948 8.96105,6.09509c1.57094,9.5632 -1.17703,24.96995 1.65229,24.63168z" fill="#216aff" stroke-width="2"/><path d="M326.18263,221.80323c14.20765,-1.69869 27.13775,8.73822 28.88016,23.31152c1.74241,14.5733 -8.36267,27.76436 -22.57033,29.46306c-14.20765,1.69869 -27.13775,-8.73825 -28.88016,-23.31153c-1.74241,-14.5733 8.36268,-27.76435 22.57033,-29.46305z" fill="#faddbf" stroke-width="2"/><path d="M319.3128,262.64503c14.20765,-1.69869 33.10928,-32.39404 34.8517,-17.82074c1.74241,14.5733 -8.36267,27.76436 -22.57033,29.46305c-14.20765,1.69869 -26.48903,-9.94361 -12.28137,-11.6423z" fill="#ef8b89" stroke-width="0"/></g><path d="M292.30486,175.5818c0,1.42243 -5.6083,2.57554 -12.52648,2.57554c-6.91819,0 -12.52648,-1.15311 -12.52648,-2.57554c0,-1.42243 5.6083,-2.57554 12.52648,-2.57554c6.91819,0 12.52648,1.15311 12.52648,2.57554z" fill="#000000" stroke="#000000" stroke-width="2.5" stroke-linecap="butt"/></g></g></svg>