<svg version="1.1" xmlns="http://www.w3.org/2000/svg" xmlns:xlink="http://www.w3.org/1999/xlink" width="196.30521" height="326.25191" viewBox="0,0,196.30521,326.25191"><g transform="translate(-196.33111,-34.7355)"><g data-paper-data="{&quot;isPaintingLayer&quot;:true}" fill-rule="nonzero" stroke-linecap="butt" stroke-linejoin="miter" stroke-miterlimit="10" stroke-dasharray="" stroke-dashoffset="0" style="mix-blend-mode: normal"><g stroke="#000000"><path d="M327.76518,340.83535v-95.29492h29.49199v95.29492z" fill="#73fffc" stroke-width="2"/><path d="M327.43943,340.21742l1.32626,-93.78573c0,0 5.20288,68.11227 6.3799,77.52842c0.2602,2.08162 2.52228,2.78987 2.52228,2.78987l18.60659,13.13896z" fill="#59a9e6" stroke-width="0"/></g><g stroke="#000000"><path d="M288.4238,338.4128v-95.29492h29.49199v95.29492z" fill="#73fffc" stroke-width="2"/><path d="M288.09805,337.7949l1.32626,-93.78573c0,0 5.20288,68.11227 6.3799,77.52842c0.2602,2.08162 2.52228,2.78987 2.52228,2.78987l18.60659,13.13896z" fill="#59a9e6" stroke-width="0"/></g><g stroke="#000000"><path d="M355.22917,235.69588c0,13.80271 10.04743,36.74388 4.95001,46.45977c-6.2338,11.88187 -28.61241,9.09579 -38.9397,9.09579c-13.66287,0 -32.94407,4.17018 -38.34426,-14.83216c-2.01935,-7.10576 4.35457,-32.37264 4.35457,-40.7234c0,-30.68249 15.2177,-55.55556 33.98969,-55.55556c18.77199,0 33.98969,24.87307 33.98969,55.55556z" fill="#216aff" stroke-width="2"/><path d="M303.96554,251.27246c0,13.80271 62.04198,20.54886 56.94455,30.26474c-6.2338,11.88186 -28.61241,9.09579 -38.9397,9.09579c-13.66287,0 -32.94406,4.17018 -38.34425,-14.83215c-2.01936,-7.10576 4.35457,-32.37265 4.35457,-40.7234c0,-9.45244 3.34855,-28.59801 5.51953,-29.96813c5.94391,-16.76415 10.4653,25.13995 10.4653,46.16315z" fill="#3236f4" stroke-width="0"/></g><g stroke="#000000"><g><path d="M208.17287,129.95582c-3.83115,-46.63368 30.86715,-87.54351 77.50083,-91.37467c46.63368,-3.83115 87.54351,30.86715 91.37467,77.50083c3.83115,46.63368 -30.86715,87.54351 -77.50083,91.37467c-46.63368,3.83115 -87.54351,-30.86715 -91.37467,-77.50083z" fill="#faddbf" stroke-width="2"/><path d="M208.33167,129.07033c-1.23262,-15.00373 5.27028,-41.58231 9.50101,-45.15488c0.48316,-0.408 5.03743,-9.35415 11.98275,-16.6639c8.63256,-9.08552 20.00218,-16.85073 20.62703,-16.70435c8.15247,1.90991 -12.15748,66.0722 -8.85203,91.17578c0.00788,0.05987 6.00578,19.27455 7.65477,19.57947c3.26412,4.49029 10.64857,18.34307 22.07797,24.56829c21.30002,11.60142 50.38891,15.60677 48.952,16.23225c-2.29853,1.00054 -14.52628,3.97175 -20.56884,4.46818c-46.63368,3.83115 -87.54351,-30.86715 -91.37467,-77.50083z" fill="#ef8b89" stroke-width="0"/><path d="M376.48917,115.66818c0.95178,11.58531 -0.29194,15.71739 -0.99375,13.91709c-0.71599,-1.83664 -0.98958,-9.76538 -10.21167,-13.85967c-2.2347,-0.99213 -9.6581,7.09065 -12.47711,6.08996c-1.77066,-0.62855 -9.45626,-9.43295 -11.41886,-9.95002c-1.37222,-0.36153 -11.72237,9.36884 -13.1541,9.03429c-3.57083,-0.83437 -12.8795,-10.35376 -16.672,-10.70242c-2.08841,-0.192 -8.28139,12.57004 -10.40412,12.48973c-2.73752,-0.10357 -11.02296,-11.20351 -13.75115,-10.97937c-7.25541,0.59606 -6.88063,7.59968 -11.60909,14.0146c-3.07266,4.16857 -15.01012,-11.86271 -17.76029,-7.18663c-3.4154,5.80714 -6.80826,11.41348 -10.74032,15.34827c-3.08484,3.087 -14.146,-8.96873 -16.798,-6.12426c-12.80456,13.73388 -20.45864,22.39403 -21.94652,4.28322c-2.99185,-36.41746 42.46979,-11.73023 82.35009,-36.60081c38.17303,-23.80587 82.59505,-16.19142 85.5869,20.22604z" fill="#ef8b89" stroke-width="0"/></g><path d="M377.33741,107.25961c1.92278,23.40449 7.22336,8.15124 -11.49872,0.08151c-2.29104,-0.9875 -9.92604,7.11266 -12.81665,6.11786c-1.81564,-0.62486 -9.68339,-9.41429 -11.69624,-9.92723c-1.40735,-0.35864 -12.04921,9.39569 -13.51769,9.06416c-3.66246,-0.82684 -13.19422,-10.32791 -17.08519,-10.66847c-2.14264,-0.18754 -8.52508,12.59006 -10.70318,12.5143c-2.80892,-0.09771 -11.28729,-11.18179 -14.08734,-10.95175c-7.44652,0.61176 -7.07699,7.61581 -11.94295,14.04203c-3.16202,4.17591 -15.37734,-11.83254 -18.20953,-7.14972c-3.51724,5.8155 -7.01093,11.43013 -11.05431,15.37407c-3.17219,3.09417 -14.49684,-8.93991 -17.22433,-6.08924c-13.1691,13.76383 -21.04206,22.44196 -22.52994,4.33115c-2.99185,-36.41746 33.07561,-84.24802 78.84824,-88.00844c45.77262,-3.76041 90.52603,34.85233 93.51788,71.26979z" fill="#724e36" stroke-width="2"/><path d="M376.99531,106.12101c1.92278,23.40449 7.22336,8.15124 -11.49872,0.08151c-2.29104,-0.9875 -9.92604,7.11266 -12.81665,6.11786c-1.81564,-0.62486 -9.68339,-9.41429 -11.69625,-9.92723c-1.40735,-0.35864 -12.04921,9.39569 -13.51769,9.06416c-3.66246,-0.82684 -13.19422,-10.32791 -17.08519,-10.66847c-2.14264,-0.18754 -8.52508,12.59006 -10.70318,12.5143c-2.80892,-0.09771 -11.28729,-11.18179 -14.08734,-10.95175c-7.44652,0.61176 -7.07699,7.61581 -11.94295,14.04203c-3.16202,4.17591 -15.37734,-11.83254 -18.20953,-7.14972c-3.51724,5.8155 -7.01093,11.43013 -11.05432,15.37407c-3.17219,3.09417 -14.49684,-8.93991 -17.22433,-6.08924c-13.1691,13.76383 -21.04206,22.44196 -22.52994,4.33115c-2.99185,-36.41746 43.60618,-11.82359 84.58338,-36.78429c39.22296,-23.89212 84.79088,-16.37182 87.78273,20.04564z" fill="#623728" stroke-width="0"/></g><g stroke="#000000"><path d="M313.25771,144.30218c2.33836,28.46305 -9.57961,44.22232 -26.09252,45.57892c-16.51291,1.3566 -31.36766,-12.20318 -33.70602,-40.66622c-2.33836,-28.46305 9.15239,-52.63665 25.6653,-53.99325c16.51291,-1.3566 31.79488,20.6175 34.13324,49.08055z" fill="#f0f0f0" stroke-width="2"/><path d="M265.05559,128.61381c-1.97647,28.49046 39.1884,59.03113 22.67549,60.38773c-16.51291,1.3566 -31.36766,-12.20318 -33.70602,-40.66622c-2.33836,-28.46305 13.88792,-60.9103 11.03052,-19.72151z" fill="#9a99ff" stroke-width="0"/></g><path d="M296.38381,161.15998c1.2955,15.76908 -2.32746,28.93638 -8.0921,29.40997c-5.76464,0.47359 -11.48801,-11.92586 -12.78351,-27.69495c-1.2955,-15.76908 2.32746,-28.93638 8.0921,-29.40997c5.76464,-0.47359 11.48801,11.92586 12.78351,27.69495z" fill="#000000" stroke="none" stroke-width="0"/><g stroke="#000000"><path d="M305.80604,114.7785c5.28209,9.83033 -8.70836,14.88462 -24.36587,16.17095c-15.65751,1.28633 -27.46873,-2.40051 -23.72646,-12.35556c3.56072,-9.47208 5.0132,-21.90294 20.67071,-23.18927c15.65751,-1.28633 22.38772,10.00544 27.42161,19.37386z" fill="#a100fe" stroke-width="2"/><path d="M304.85587,114.50111c5.13054,9.84278 -8.372,14.85699 -23.49563,16.09946c-15.12363,1.24247 -26.54507,-2.47639 -22.95725,-12.41876c3.41376,-9.46001 6.61498,0.42182 21.73861,-0.82065c15.12363,-1.24247 19.82479,-12.24036 24.71426,-2.86007z" fill="#99008e" stroke-width="0"/></g><g data-paper-data="{&quot;index&quot;:null}" stroke="#000000"><path d="M342.5161,88.53012c16.51291,-1.3566 31.79488,20.6175 34.13324,49.08055c2.33836,28.46304 -10.10417,44.26541 -26.61708,45.62202c-16.51291,1.3566 -30.84311,-12.24627 -33.18146,-40.70931c-2.33836,-28.46305 9.15239,-52.63665 25.6653,-53.99325z" fill="#f0f0f0" stroke-width="2"/><path d="M375.94748,136.83527c2.33836,28.46304 -10.10417,44.26541 -26.61708,45.62202c-16.51291,1.3566 19.11558,-35.49296 12.51577,-63.27884c-9.54137,-40.17018 11.76295,-10.80622 14.10131,17.65682z" fill="#9a99ff" stroke-width="0"/></g><path d="M339.19367,125.73522c5.76464,-0.47359 11.48801,11.92586 12.78351,27.69495c1.2955,15.76908 -2.32746,28.93638 -8.0921,29.40997c-5.76464,0.47359 -11.48801,-11.92586 -12.78351,-27.69495c-1.2955,-15.76908 2.32746,-28.93638 8.0921,-29.40997z" data-paper-data="{&quot;index&quot;:null}" fill="#000000" stroke="none" stroke-width="0"/><g data-paper-data="{&quot;index&quot;:null}" stroke="#000000"><path d="M319.38411,112.17936c3.43741,-10.06438 8.23448,-22.30316 23.89199,-23.58949c15.65751,-1.28633 19.11932,10.7408 24.1782,19.50474c5.31683,9.21081 -5.73431,14.77589 -21.39182,16.06222c-15.65751,1.28633 -30.28527,-1.41686 -26.67838,-11.97745z" fill="#a100fe" stroke-width="2"/><path d="M320.27627,111.75063c3.29298,-10.05252 9.72605,0.03065 24.84968,-1.21182c15.12363,-1.24247 16.66914,-11.51426 21.58107,-2.73825c5.16238,9.2235 -5.49898,14.75656 -20.62261,15.99902c-15.12363,1.24247 -29.26348,-1.5008 -25.80814,-12.04895z" fill="#99008e" stroke-width="0"/></g><path d="M391.63632,338.87004c0,11.6628 -14.51982,21.11737 -32.43092,21.11737c-17.9111,0 -32.43092,-9.45457 -32.43092,-21.11737c0,-2.33142 -0.03339,-13.76009 1.08979,-15.13837c4.49546,-5.51647 17.81784,5.26144 32.14847,5.26144c17.9111,0 31.62358,-1.78588 31.62358,9.87692z" fill="#000082" stroke="#000000" stroke-width="2"/><path d="M389.75004,336.13774c0,6.30841 -13.89058,10.1901 -31.80169,10.1901c-17.9111,0 -30.16566,-2.95748 -30.16566,-9.26589c0,-1.26107 -0.03338,-12.52602 1.0898,-13.27153c4.49546,-2.98386 15.55258,5.7726 29.88321,5.7726c17.9111,0 30.99434,0.26631 30.99434,6.57472z" fill="#2e0048" stroke="#000000" stroke-width="0"/><path d="M348.64938,338.22521c0,11.6628 -14.51982,21.11737 -32.43092,21.11737c-17.9111,0 -32.43092,-9.45457 -32.43092,-21.11737c0,-2.33142 -0.03339,-13.76009 1.08979,-15.13837c4.49546,-5.51647 17.81784,5.26144 32.14847,5.26144c17.9111,0 31.62358,-1.78588 31.62358,9.87692z" fill="#000082" stroke="#000000" stroke-width="2"/><path d="M346.7631,335.49289c0,6.30841 -13.89058,10.1901 -31.80169,10.1901c-17.9111,0 -30.16566,-2.95748 -30.16566,-9.26589c0,-1.26107 -0.03338,-12.52602 1.0898,-13.27153c4.49546,-2.98386 15.55258,5.7726 29.88321,5.7726c17.9111,0 30.99434,0.26631 30.99434,6.57472z" fill="#2e0048" stroke="#000000" stroke-width="0"/><path d="M258.67016,178.91461c0.95329,0.80854 0.14474,1.76183 0.14474,1.76183l-0.10511,0.02477c-1.06528,2.65141 -1.97696,5.53715 -4.61708,7.10862c-2.73712,1.6292 -6.65344,0.94006 -7.60962,-2.3361c-1.28215,-4.39302 2.64423,-9.17659 4.39768,-12.84831c0,0 0.53931,-1.12766 1.66698,-0.58835c1.12766,0.53932 0.58836,1.66698 0.58836,1.66698c-1.48292,3.09631 -5.12692,7.41117 -4.23792,11.12369c0.3973,1.65916 2.71984,1.58423 3.93887,0.8203c2.07461,-1.30012 2.70729,-3.76976 3.55262,-5.87803l0.51865,-0.71066c0,0 0.80854,-0.95328 1.76182,-0.14474z" fill="#000000" stroke="none" stroke-width="0.5"/><g stroke="#000000"><path d="M287.65691,239.57851c1.11781,33.3177 -6.44957,39.30016 -14.5364,39.57148c-8.08684,0.27132 -15.54865,-26.51809 -16.66646,-59.83579c-1.1178,-33.3177 54.63656,12.58373 62.72339,12.31242c6.06232,3.68463 0.99727,7.80081 -6.83773,8.4081c-9.66239,0.74893 -24.77835,-3.30406 -24.68281,-0.4562z" fill="#216aff" stroke-width="2"/><path d="M300.57773,264.20375c0.47979,14.3008 -11.0227,26.29285 -25.69153,26.78499c-14.66883,0.49213 -26.94923,-10.702 -27.42902,-25.0028c-0.47979,-14.3008 11.02271,-26.29285 25.69155,-26.78499c14.66883,-0.49213 26.94922,10.70201 27.42902,25.00281z" fill="#faddbf" stroke-width="2"/><path d="M260.47136,253.87291c0.47979,14.3008 29.44975,35.75347 14.78091,36.24561c-14.66883,0.49213 -26.94923,-10.702 -27.42902,-25.00281c-0.47979,-14.3008 12.16831,-25.54362 12.6481,-11.24281z" fill="#ef8b89" stroke-width="0"/></g><g stroke="none" stroke-width="1"><path d="M356.97967,336.16951c-2.45331,-1.53001 -4.93225,-3.19465 -7.4398,-4.6439c-6.05475,-3.59641 -12.18936,-7.24667 -18.24401,-10.84324c-4.80093,-2.87187 -9.68181,-5.79742 -14.48274,-8.66929c-8.10812,-4.85809 -16.21625,-9.71618 -24.37872,-14.49336c-6.3745,-3.81135 -12.72339,-7.4881 -19.15234,-11.21837c-5.41492,-3.16698 -10.85557,-6.46843 -16.27049,-9.63541c-8.50796,-5.12658 -17.07025,-10.17224 -25.5782,-15.29882c-7.01434,-4.24079 -14.0543,-8.6162 -21.01419,-12.93805c-2.29338,-1.42262 -4.61238,-2.97986 -6.98572,-4.45618c-0.79965,-0.53698 -1.27647,-1.20918 -1.4018,-2.23199c-0.07698,-0.40372 -0.07399,-0.75371 -0.15097,-1.15743c-0.50735,-3.39121 -0.72056,-6.70208 -1.06787,-9.98605c-0.83694,-8.77493 -1.80819,-17.52262 -2.64503,-26.29771c-0.26446,-3.58012 -0.66324,-7.13302 -0.84774,-10.65944c-0.25261,-4.98002 -0.55947,-9.87924 -0.94628,-14.83219c-0.12247,-1.37265 -0.05916,-2.50361 1.26075,-3.25973c0.3772,-0.21615 0.56872,-0.67416 0.92019,-1.02475c2.89765,-3.45118 6.03529,-6.74144 9.19856,-9.89708c2.46024,-2.45426 2.48597,-2.31979 5.63622,-0.79098c4.37835,2.1189 8.59378,4.48042 12.80933,6.84177c6.56315,3.70321 13.04623,7.35288 19.52943,11.00238c6.48319,3.6495 13.04624,7.35288 19.52944,11.00239c4.13558,2.30766 8.29666,4.7501 12.43224,7.05776c1.86782,1.01966 3.65569,1.98562 5.46926,3.08605c2.98733,1.77143 5.92044,3.62364 9.01635,5.23338c4.10985,2.17319 8.03115,4.45439 12.08676,6.70834c5.30933,2.97867 10.69862,6.01102 16.03357,9.12432c6.18906,3.56918 12.37802,7.13852 18.56696,10.70786c3.84133,2.22749 7.7083,4.58961 11.54963,6.8171c3.9212,2.28135 7.95118,4.40068 11.87238,6.68203c4.40109,2.60338 8.88217,5.26045 13.28326,7.86382c0.87962,0.59068 1.75924,1.18135 2.63886,1.77203c1.38504,1.04749 2.09885,2.23064 1.84114,4.16945c-0.59551,3.8241 -0.95102,7.80912 -1.38649,11.74045c-0.45822,3.44686 -0.62219,6.97387 -1.0804,10.42073c-0.74455,5.60106 -1.51483,11.06765 -2.12507,16.64148c-0.89668,7.7282 -2.00752,15.42976 -2.98415,23.10425c-0.14317,1.07711 -0.39203,1.96605 -1.06933,2.80189c-1.73467,2.23767 -3.41501,4.39443 -5.14969,6.63209c-0.43441,0.64692 -0.9488,1.24015 -1.54315,1.77967c-1.24293,1.15981 -2.19473,2.74998 -4.04877,3.26482c-1.38813,-0.69732 -2.64184,-1.42203 -3.6814,-2.1201zM360.20613,331.88308c0.26475,-5.92325 0.82375,-11.76633 1.38263,-17.60925c0.33288,-4.46966 0.87992,-8.91269 1.3471,-13.40957c0.63896,-5.78938 1.30353,-11.44414 1.88815,-17.1526c0.24095,-3.12331 0.40194,-6.30032 0.64301,-9.42379c-1.1965,-1.15548 -6.87704,-4.61802 -9.46753,-5.77096c-0.32284,0.13522 -0.4058,0.43153 -0.40879,0.78154c-0.25291,4.52335 -1.01423,8.93991 -1.48129,13.43664c-0.2321,2.07344 -0.03565,4.19982 -0.48202,6.24679c-0.1658,0.59246 -0.25174,1.23879 -0.41766,1.83142c-0.19452,0.80802 -0.76014,1.13198 -1.53716,1.07964c-0.56275,-0.02587 -1.15112,-0.18637 -1.71088,-0.56225c-4.58964,-2.49538 -9.17927,-4.99077 -13.66034,-7.64783c-5.57484,-3.27438 -11.12407,-6.41414 -16.51049,-9.79635c-3.65269,-2.33564 -7.38843,-4.37481 -11.1498,-6.54861c-4.24106,-2.49613 -8.48223,-4.99213 -12.66916,-7.56887c-4.66661,-2.89909 -9.25326,-5.74448 -13.97423,-8.56265c-2.77317,-1.74481 -5.73478,-3.38178 -8.5623,-5.04566c-3.70703,-2.25471 -7.38843,-4.37481 -11.09546,-6.62952c-5.52061,-3.35515 -11.04123,-6.7103 -16.56173,-10.06561c-5.12079,-3.08666 -10.21295,-6.3887 -15.33375,-9.47536c-3.76137,-2.17379 -7.6027,-4.40128 -11.36397,-6.57523c-0.3742,-0.13387 -0.69407,-0.34865 -1.01394,-0.56345c-1.468,-0.75117 -1.96753,-1.90785 -2.14124,-3.54975c-0.8064,-6.05591 -1.07568,-12.22058 -1.66791,-18.24988c-0.39568,-3.90307 -0.39567,-3.90306 -3.7316,-5.67375c-3.57571,-1.93194 -7.15152,-3.8637 -10.78158,-5.71471c-0.31986,-0.2148 -0.69407,-0.34867 -1.20547,-0.10545c0.09076,1.93822 0.12728,3.9572 0.298,5.94912c0.6878,10.55205 1.64411,21.0498 2.86892,31.49326c0.76882,7.32134 1.67195,14.61545 2.17227,21.99109c0.0711,1.10357 0.27642,2.18008 0.40176,3.20289c1.59632,1.42397 3.4128,2.17455 5.14641,3.22128c4.90652,3.06018 9.86737,6.03943 14.82823,9.01871c4.72096,2.81816 9.3076,5.66356 14.02857,8.48173c4.02689,2.46951 7.91959,4.96609 12.00082,7.35467c7.52265,4.34774 15.04538,8.69533 22.51377,13.12383c3.62707,2.20101 7.25413,4.40203 10.93553,6.52213c5.89481,3.48901 11.92384,6.95096 17.89852,10.49383c3.38728,2.03976 6.64013,4.10692 10.08164,6.06591c8.0825,4.72346 16.08504,9.39324 24.00452,14.35948c5.62631,3.5433 11.22678,6.95231 16.90732,10.41485c2.29338,1.42262 4.64099,2.76448 7.14853,4.21372c0.46602,-1.21233 0.26071,-2.28883 0.43259,-3.58148zM240.18164,222.42236c-0.13325,-3.25717 -0.24067,-6.38005 -0.42815,-9.55648c-0.15406,-0.80726 -0.25367,-1.6956 0.66342,-2.37018c1.31116,0.29361 2.37634,1.12631 3.41589,1.82438c0.47979,0.32219 0.5824,0.86051 0.6851,1.39869c0.09374,1.5882 0.26744,3.23011 0.36119,4.81832c0.06513,1.8036 0.02158,3.76904 0.08671,5.57264c0.09972,0.88818 0.19934,1.77653 0.29906,2.66471c0.4768,0.6722 1.03656,1.04809 1.75924,1.18135c0.32584,-0.48523 0.27747,-1.10433 0.25473,-1.58881c-0.18749,-3.17641 -0.34924,-6.21836 -0.45676,-9.34108c-0.01976,-0.83449 -0.17372,-1.64191 0.66351,-2.37035c1.36529,0.21301 2.45619,1.18016 3.57571,1.93193c0.55976,0.37589 0.52817,0.94128 0.63076,1.47962c0.17371,1.64191 0.34742,3.2838 0.33258,5.03371c0.03353,2.369 0.01271,4.81892 0.26041,7.21455c0.17968,0.94189 0.63076,1.47962 1.56772,1.63936c0.5114,-0.24321 0.35445,-0.70062 0.35744,-1.05063c-0.05328,-3.20348 -0.13209,-6.54173 -0.18537,-9.74522c-0.01965,-0.83465 -0.11937,-1.72284 0.55794,-2.55868c1.60816,0.02409 2.69909,0.99124 3.86996,2.0121c0.42545,0.40312 0.33961,1.04927 0.44222,1.58761c0.32767,2.44932 0.28124,4.76462 0.26042,7.21455c-0.04345,1.96529 -0.00703,3.98442 -0.02486,6.08434c1.89355,1.15413 3.76138,2.1738 5.57485,3.27438c0.59147,-0.18967 0.5431,-0.80877 0.54598,-1.15862c-0.03641,-2.01915 -0.20713,-4.01106 -0.24365,-6.03005c-0.06801,-1.45374 -0.13614,-2.90733 -0.20415,-4.36107c-0.04836,-0.6191 0.03747,-1.26526 0.63183,-1.80478c1.47397,0.05115 2.56487,1.01831 3.71002,1.9047c0.39983,0.2685 0.36822,0.83389 0.44519,1.23759c0.25368,1.6956 0.37315,3.41828 0.41255,5.08741c-0.0238,2.79993 -0.12757,5.54617 0.41149,8.3718c0.50542,0.45681 0.93087,0.85992 1.70789,0.91226c0.32573,-0.48507 0.30311,-0.96971 0.3347,-1.53511c-0.06214,-2.1536 -0.17853,-4.22643 -0.29501,-6.29913c-0.09673,-1.23819 -0.13912,-2.55733 -0.15588,-3.74183c-0.02264,-0.48464 -0.01964,-0.83463 0.11755,-1.21171c0.02862,-0.21539 0.19153,-0.458 0.35444,-0.70061c1.60828,0.02392 2.72481,1.12571 4.00426,1.98487c0.59917,2.04502 0.71564,4.11771 0.69771,6.21777c-0.02369,2.79977 -0.04749,5.5997 0.4115,8.37181c1.49073,1.23565 5.09206,3.30221 6.66874,3.89154c0.37708,-0.21598 0.30011,-0.61971 0.3031,-0.96972c-0.1135,-2.4227 -0.25261,-4.98 -0.366,-7.40286c-0.04538,-0.96911 -0.09075,-1.93823 -0.0819,-2.9881c-0.04836,-0.6191 0.0632,-1.1308 0.60331,-1.58957c1.47397,0.05115 2.56477,1.01847 3.71001,1.90471c0.39983,0.2685 0.36823,0.83389 0.44521,1.2376c0.22794,1.56115 0.32169,3.14935 0.36119,4.81832c0.03641,2.01915 0.0472,3.90366 0.13806,5.84172c-0.0317,0.56556 0.09663,1.23835 0.14499,1.85746c0.0711,1.10357 0.84503,1.50608 1.97053,1.55783c0.28634,-2.1542 0.01002,-4.33444 -0.05212,-6.48804c-0.06214,-2.1536 -0.47277,-4.30662 0.08219,-6.51528c1.82245,0.05056 2.91336,1.01771 4.08412,2.03874c0.26563,0.29556 0.31399,0.91466 0.39097,1.31835c0.22794,1.56115 0.32168,3.14935 0.3612,4.81832c0.01079,1.88452 0.07591,3.68812 0.08671,5.57264c0.04836,0.6191 0.09661,1.23836 0.14499,1.85745c-0.00885,1.04987 0.57653,1.56039 1.51348,1.72013c0.5114,-0.24321 0.56862,-0.674 0.54598,-1.15863c-0.06214,-2.1536 -0.17863,-4.22628 -0.29501,-6.29913c-0.06812,-1.45359 -0.19047,-2.82641 -0.17863,-4.22629c-0.07399,-0.75373 -0.07399,-0.75373 0.76623,-1.83217c1.17674,0.321 2.10771,1.18075 3.20162,1.7979c0.55976,0.37589 0.74232,0.96792 0.79068,1.58703c0.25368,1.6956 0.37305,3.41843 0.41255,5.0874c-0.0238,2.79993 -0.0476,5.59986 0.437,8.5066c1.97052,1.55784 4.34687,2.68415 6.53455,3.91859c0.51439,-0.59321 0.41167,-1.13139 0.44327,-1.69679c-0.06203,-2.15377 -0.17852,-4.22645 -0.2949,-6.29929c-0.09673,-1.2382 -0.13912,-2.55732 -0.15588,-3.74181c0.03159,-0.5654 0.03756,-1.26543 0.63191,-1.80495c1.47386,0.05131 2.56477,1.01847 3.71001,1.90471c0.39983,0.2685 0.36823,0.83389 0.44521,1.2376c0.25368,1.6956 0.42738,3.33751 0.41244,5.08756c0.03054,2.719 -0.12745,5.546 0.41149,8.37181c0.42545,0.40312 0.87664,0.94069 1.65355,0.99319c0.32583,-0.48523 0.3031,-0.9697 0.33481,-1.53527c-0.06214,-2.15361 -0.17863,-4.22629 -0.295,-6.29913c-0.09673,-1.2382 -0.13912,-2.55731 -0.15588,-3.7418c-0.04836,-0.6191 0.03757,-1.26543 0.55196,-1.85865c1.60816,0.02409 2.69907,0.99124 3.86995,2.01211c0.26553,0.29571 0.31389,0.91481 0.39087,1.31852c0.38799,1.66838 0.42738,3.33751 0.41255,5.0874c-0.0238,2.79993 -0.0476,5.59987 0.43712,8.50644c1.43938,0.96657 3.01296,1.90605 4.58665,2.84539c0.67431,-0.48582 0.62595,-1.10492 0.57758,-1.72402c-0.11649,-2.07268 -0.28721,-4.06459 -0.32362,-6.08374c-0.06812,-1.45359 -0.19048,-2.82641 -0.17863,-4.22629c0.0317,-0.56556 0.03758,-1.26542 0.79186,-1.69755c1.31105,0.29377 2.40194,1.26092 3.52147,2.0127c0.4798,0.32219 0.52816,0.94128 0.5508,1.42592c0.17371,1.64191 0.26745,3.23011 0.30696,4.89909c0.13614,2.90733 -0.02198,5.73449 0.46273,8.64106c0.37122,0.48388 0.90525,0.7253 1.43938,0.96657c0.18854,-0.10799 0.37709,-0.21599 0.43143,-0.29691c0.24587,-0.53893 0.14316,-1.07711 0.17476,-1.6425c-0.18748,-3.17642 -0.34924,-6.21836 -0.45676,-9.34108c-0.01975,-0.83448 -0.17371,-1.64191 0.66352,-2.37035c1.36528,0.21301 2.45619,1.18016 3.57571,1.93194c0.4798,0.32219 0.52815,0.94129 0.55089,1.42576c0.17371,1.64191 0.26735,3.23027 0.30685,4.89924c0.19048,2.82641 -0.02186,5.73432 0.51708,8.56013c0.29114,0.43034 0.77094,0.75253 1.33369,0.77841c0.56574,-0.32414 0.65167,-0.97046 0.60331,-1.58956c-0.09076,-1.93822 -0.18162,-3.87628 -0.27237,-5.8145c-0.12235,-1.37282 -0.11041,-2.77286 -0.23286,-4.14552c-0.07399,-0.75372 0.01196,-1.40005 0.66053,-2.02034c1.33977,0.07822 2.43057,1.04554 3.55009,1.79731c0.55976,0.37588 0.52815,0.94128 0.63087,1.47946c0.25368,1.6956 0.42739,3.33752 0.41255,5.08741c0.03044,2.71916 -0.0476,5.59986 0.49134,8.42567c1.17386,0.67084 2.37335,1.47631 3.81561,2.09303c0.48876,-0.72785 0.52335,-1.64326 0.58356,-2.42405c0.50764,-6.11217 0.88108,-12.19725 1.30875,-18.36311c-2.37036,-1.82632 -5.04082,-3.03296 -7.54847,-4.48204c-2.74745,-1.61034 -5.62919,-3.19347 -8.43087,-4.72303c-4.85527,-2.79095 -9.76477,-5.50111 -14.62004,-8.29205c-3.0673,-1.82513 -6.21457,-3.70396 -9.33622,-5.44817c-5.09506,-2.9522 -10.16449,-5.76977 -15.25966,-8.7218c-3.12165,-1.74421 -6.10899,-3.51565 -9.17629,-5.34078c-2.58751,-1.50295 -5.22936,-2.92497 -7.81698,-4.42775c-2.88164,-1.58327 -5.78913,-3.30086 -8.61653,-4.96489c-3.38717,-2.03993 -6.74871,-3.94523 -10.19022,-5.90423c-5.54923,-3.13976 -11.09845,-6.27951 -16.64768,-9.41927c-4.82953,-2.65648 -9.52487,-5.34001 -14.30006,-8.07742c-3.36154,-1.9053 -6.66875,-3.89153 -10.03029,-5.79684c-1.09389,-0.61715 -2.13344,-1.31522 -3.39015,-1.68991c-0.38008,0.566 -0.41178,1.13156 -0.30908,1.66973c0.74426,3.90231 0.60292,7.91398 0.99869,11.81688c0.20231,1.42651 0.35041,2.9338 0.41852,4.38737c0.09962,0.88834 0.36226,1.53392 1.24486,1.77458c0.7483,0.26789 1.38802,0.69746 2.00213,0.99244c0.35146,-0.35061 0.40869,-0.78138 0.41168,-1.13139c-0.11649,-2.07268 -0.28721,-4.06459 -0.32362,-6.08374c-0.06812,-1.45359 -0.19048,-2.8264 -0.17863,-4.22629c0.0317,-0.56556 -0.01666,-1.18466 0.71188,-1.75125c1.31105,0.29377 2.45629,1.18 3.60144,2.0664c0.39982,0.2685 0.42257,0.75296 0.44521,1.2376c0.14808,1.50728 0.37603,3.06843 0.3898,4.60293c0.00194,2.93439 0.00376,5.86895 0.45986,8.9909c0.45107,0.53774 1.22511,0.94008 2.05338,1.26168c0.4058,-0.43153 0.32882,-0.83524 0.33181,-1.18526c-0.16784,-2.34178 -0.28123,-4.76461 -0.39472,-7.18732c-0.09673,-1.23819 -0.13913,-2.55732 -0.15589,-3.74182c-0.04836,-0.6191 0.00598,-0.70002 0.7119,-1.75125c1.31105,0.29377 2.40195,1.26093 3.52147,2.0127c0.47979,0.32219 0.52816,0.94128 0.5508,1.42592c0.17371,1.64191 0.34742,3.2838 0.30696,4.89907c-0.07515,2.53084 0.19827,5.06094 0.33739,7.61825c0.04538,0.96911 0.44221,1.58761 1.2961,2.04383c0.93396,0.50976 1.89355,1.15412 2.82753,1.66388c0.46004,-0.5123 0.46303,-0.86231 0.78289,-0.64751zM356.31741,265.79732c0.55379,1.07591 1.62205,1.55844 2.53028,1.93372c2.2163,1.01907 4.0269,2.46951 6.13461,3.65027c0.23991,0.16109 0.47979,0.32218 0.87962,0.59067c1.94596,-1.8612 3.6263,-4.01794 5.41233,-5.98653c1.84027,-2.04935 3.78621,-3.91055 5.76079,-5.98713c-0.98521,-0.779 -1.73063,-1.39675 -2.53028,-1.93372c-3.35856,-2.25531 -6.93426,-4.18725 -10.51007,-6.11902c-0.69396,-0.34882 -1.41365,-0.8321 -2.13334,-1.31538c-2.53327,-1.58372 -5.30933,-2.97867 -7.97691,-4.53515c-2.02776,-1.12706 -4.00126,-2.33488 -6.02902,-3.46194c-3.73564,-2.03933 -7.41705,-4.15942 -11.17842,-6.33322c-3.38717,-2.03993 -6.90864,-4.05262 -10.40449,-5.9307c-2.58751,-1.50295 -4.95786,-3.32927 -7.81687,-4.42791c-0.15993,-0.10739 -0.23989,-0.16109 -0.39983,-0.2685c-3.22724,-1.93252 -6.3745,-3.81136 -9.52188,-5.69003c-2.58751,-1.50295 -5.30933,-2.97867 -8.03114,-4.45438c-0.15993,-0.10739 -0.23989,-0.16109 -0.39983,-0.26849c-3.14727,-1.87883 -6.32018,-3.89228 -9.52178,-5.69019c-2.42758,-1.39555 -4.82953,-2.65648 -7.25722,-4.05187c-0.3741,-0.13403 -0.61399,-0.29512 -0.85389,-0.45622c-3.38717,-2.03993 -6.7201,-4.16063 -10.13599,-5.98499c-1.92205,-0.9389 -3.57272,-2.28195 -5.6578,-2.97806c-0.21416,-0.02663 -0.45406,-0.18773 -0.61399,-0.29512c-2.66758,-1.55648 -5.28072,-3.19405 -8.00254,-4.66976c-2.48192,-1.31463 -4.98947,-2.76388 -7.41705,-4.15943c-3.46724,-2.09347 -7.04296,-4.0254 -10.56442,-6.03808c-3.76137,-2.17379 -7.71128,-4.23959 -11.36408,-6.57507c-2.77307,-1.74496 -5.7634,-3.16639 -8.64515,-4.74949c-2.72182,-1.47572 -5.5236,-3.00514 -8.29966,-4.40009c-0.3742,-0.13387 -0.7484,-0.26773 -1.25681,-0.37453c-1.29728,1.24074 -2.75447,2.37409 -3.94616,3.80316c-1.13734,1.34813 -2.51458,2.53518 -3.65192,3.88332c-1.19169,1.42906 -2.64889,2.56241 -3.73487,4.17963c0.7167,0.83329 1.62493,1.20858 2.47893,1.66464c2.08199,1.04629 4.18982,2.2269 6.32614,3.19226c1.92216,0.93874 3.81571,2.09287 5.62919,3.19345c0.55976,0.37589 1.22808,0.59009 1.97651,0.85782c0.75428,-0.43213 1.37724,-1.18705 2.02583,-1.80734c1.10873,-1.13275 2.21745,-2.26549 3.35181,-3.26362c0.78301,-0.64768 1.64287,-0.89148 2.57684,-0.38173c0.45407,0.18773 0.8825,0.24082 1.28233,0.50931c1.59931,1.07396 3.3073,1.98606 5.0152,2.89834c3.28157,1.85161 6.32027,3.89212 9.57612,5.60926c2.69619,1.34109 5.12079,3.08666 7.81698,4.42775c2.00202,0.9926 3.84123,2.22764 5.78912,3.30085c2.74744,1.61033 5.54922,3.13977 8.32528,4.53472c0.15993,0.10739 0.23989,0.16109 0.39983,0.26849c3.22724,1.93252 6.32027,3.89213 9.57623,5.60911c2.32189,1.20738 4.37237,2.81892 6.85728,3.78354c0.31986,0.2148 0.55976,0.37589 0.79967,0.53698c2.90438,2.06775 6.13461,3.65027 9.17629,5.34078c2.64186,1.42202 5.1178,3.43667 7.97691,4.53515c0.3741,0.13403 0.614,0.29512 0.8539,0.45622c3.0673,1.82513 6.08037,3.73103 9.17629,5.34078c2.32199,1.20723 4.31815,2.89969 6.85739,3.78337c0.15993,0.10739 0.39982,0.26848 0.55976,0.37588c3.0673,1.82513 6.16035,3.78473 9.28188,5.5291c4.69533,2.68355 9.36494,5.23262 14.06027,7.91617c2.58751,1.50295 5.04073,3.03312 7.60261,4.40144c2.61623,1.2874 4.90651,3.06019 7.63131,4.18589c0.15993,0.10739 0.23989,0.16109 0.39983,0.26849c2.74745,1.61033 5.41502,3.16682 8.16247,4.77717c0.31986,0.21479 0.63972,0.42958 1.03955,0.69807c-1.52339,2.61415 -4.00349,4.23409 -5.44393,6.55194zM357.94158,260.78694c-1.65355,-0.9932 -3.38717,-2.03993 -5.04082,-3.03297c-2.72172,-1.47587 -5.44353,-2.95159 -8.11111,-4.50807c-4.61526,-2.63001 -9.17629,-5.34078 -13.79154,-7.97079c-4.45544,-2.52245 -8.83081,-4.99135 -13.28625,-7.5138c-2.42758,-1.39555 -4.93511,-2.8448 -7.36271,-4.24035c-5.22947,-2.92481 -10.45884,-5.84977 -15.63386,-8.85566c-2.58751,-1.50295 -5.17512,-3.00573 -7.76264,-4.50867c-4.5353,-2.57631 -9.0707,-5.15246 -13.606,-7.72877c-2.34761,-1.34185 -4.69534,-2.68355 -7.04295,-4.0254c-5.1494,-2.87126 -10.21884,-5.68884 -15.314,-8.64087c-4.45532,-2.52261 -8.9364,-5.17968 -13.39172,-7.70228c-4.45544,-2.52245 -8.99074,-5.09876 -13.44617,-7.62121c-0.15993,-0.10739 -0.3741,-0.13403 -0.7483,-0.2679c-1.51453,1.56429 -3.18889,3.02101 -4.65207,4.85438c1.22511,0.94009 2.39897,1.61094 3.57283,2.28178c3.4414,1.95916 6.96289,3.97187 10.40438,5.93086c6.02902,3.46195 12.19234,6.89666 18.2757,10.27768c5.30932,2.97867 10.56433,6.03826 15.87365,9.01693c6.02902,3.46195 11.97806,6.87018 18.00719,10.33197c2.88164,1.58327 5.78913,3.30085 8.61653,4.96489c4.69522,2.68371 9.31059,5.31356 14.00583,7.99725c2.74756,1.61018 5.41502,3.16682 8.16246,4.77717c3.60144,2.0664 7.28285,4.18649 10.96425,6.30659c6.02902,3.46195 11.97807,6.87019 18.00709,10.33214c2.42758,1.39555 4.77519,2.7374 7.20288,4.13279c0.61399,0.29512 1.28233,0.50931 1.9764,0.85798c1.03762,-2.23633 2.84341,-3.37041 4.12093,-5.44565zM362.98518,332.92803c1.94895,-2.2112 3.89779,-4.42226 5.84674,-6.63345c1.21731,-1.29444 1.60634,-2.91048 1.96965,-4.66097c1.06441,-5.38626 1.40624,-10.90596 2.25638,-16.3187c0.42661,-2.88146 0.63896,-5.78938 0.90564,-8.77823c0.70803,-7.62003 1.63044,-15.21377 2.68694,-22.83441c0.4296,-3.23147 0.7249,-6.43571 1.15439,-9.66701c-0.05124,-0.26925 -0.04836,-0.61909 -0.071,-1.10373c-0.69994,0.3512 -1.13136,0.64811 -1.53717,1.07964c-2.24607,2.48089 -4.38656,5.1501 -6.81818,7.38897c-1.59451,1.51059 -2.03776,3.20738 -2.08133,5.17283c-0.34876,9.50396 -1.71445,18.79449 -2.70592,28.21889c-0.98849,9.07437 -1.92275,18.068 -2.40283,27.24917c-0.00299,0.35001 0.07399,0.75372 0.04239,1.31912c0.40282,-0.08152 0.53713,-0.10874 0.75428,-0.43212z" data-paper-data="{&quot;index&quot;:null}" fill="#000000"/><path d="M352.51643,331.41253c-5.68054,-3.46254 -11.28113,-6.87138 -16.90733,-10.41485c-7.91958,-4.96607 -15.92202,-9.63603 -24.00452,-14.35949c-3.38717,-2.03993 -6.69447,-4.02599 -10.08164,-6.06592c-5.89471,-3.48917 -11.92373,-6.95112 -17.89852,-10.49383c-3.62707,-2.20101 -7.25413,-4.40203 -10.93553,-6.52213c-7.52275,-4.34758 -15.04549,-8.69516 -22.51389,-13.12368c-4.02689,-2.46951 -7.97382,-4.88532 -12.0007,-7.35482c-4.72096,-2.81817 -9.30773,-5.66341 -14.02858,-8.48173c-4.96086,-2.97926 -9.9217,-5.95852 -14.82822,-9.0187c-1.73361,-1.04673 -3.63006,-1.851 -5.14652,-3.22113c-0.12534,-1.02281 -0.33065,-2.09931 -0.40165,-3.20304c-0.50032,-7.37563 -1.32348,-14.61605 -2.17227,-21.99109c-1.22482,-10.44347 -2.1269,-21.02198 -2.86893,-31.49327c-0.17072,-1.99192 -0.20725,-4.0109 -0.298,-5.94912c0.5114,-0.24321 0.8856,-0.10934 1.20547,0.10545c3.57571,1.93194 7.20576,3.78294 10.78158,5.71471c3.33581,1.77084 3.33582,1.77085 3.73159,5.67374c0.67209,6.08315 0.86151,12.19396 1.6679,18.24987c0.25368,1.6956 0.67325,2.79858 2.14124,3.54975c0.3741,0.13403 0.69396,0.34882 1.01382,0.56362c3.76137,2.17379 7.65705,4.32036 11.36408,6.57507c5.12079,3.08666 10.21284,6.38886 15.33363,9.47553c5.52061,3.35515 11.04124,6.71028 16.56185,10.06544c3.70703,2.25471 7.33409,4.45573 11.09546,6.62952c2.8274,1.66404 5.73488,3.38162 8.56229,5.04567c4.66661,2.89909 9.25327,5.74448 13.97423,8.56265c4.18682,2.5769 8.428,5.07289 12.66915,7.56887c3.70703,2.25471 7.49701,4.21312 11.14981,6.54861c5.46627,3.43608 11.01549,6.57583 16.51049,9.79635c4.5353,2.57632 9.12493,5.07169 13.66034,7.64783c0.53413,0.24126 1.06817,0.48268 1.71088,0.56225c0.77691,0.0525 1.34265,-0.27164 1.53717,-1.07965c0.16591,-0.59263 0.25185,-1.23895 0.41766,-1.83142c0.44637,-2.04696 0.24991,-4.17335 0.48202,-6.24679c0.46708,-4.49673 1.22838,-8.91329 1.48129,-13.43664c0.00299,-0.35001 0.08594,-0.64632 0.40868,-0.78139c2.5906,1.15278 8.27105,4.61547 9.46765,5.77079c-0.18673,3.04255 -0.34771,6.21956 -0.64301,9.42379c-0.58472,5.70862 -1.30354,11.44414 -1.88815,17.1526c-0.46718,4.49689 -0.87992,8.91269 -1.3471,13.40957c-0.55899,5.84307 -1.11787,11.68599 -1.38262,17.60924c-0.00896,1.05004 0.142,2.20747 -0.32402,3.4198c-2.50755,-1.44925 -4.85516,-2.79111 -7.25711,-4.05203zM302.80491,285.3591c0.19558,-4.09242 0.25696,-8.15778 0.801,-12.2508c0.08594,-0.64633 0.09193,-1.34634 0.31207,-2.01973c0.24875,-0.88878 -0.06813,-1.45359 -0.78782,-1.93687c-0.95959,-0.64438 -1.99913,-1.34245 -3.09292,-1.95976c-0.4798,-0.32219 -1.09389,-0.61715 -1.57369,-0.93935c-6.00041,-3.67734 -11.9721,-7.5702 -18.02684,-11.16662c-4.58665,-2.84539 -9.09334,-5.63708 -13.95159,-8.07801c-3.25585,-1.71714 -6.45747,-3.51505 -9.65907,-5.31296c-0.69396,-0.34882 -1.41365,-0.83209 -2.16505,-0.74982c-0.72556,0.21659 -0.75716,0.78198 -0.81449,1.21292c-0.58057,2.07404 -0.43846,4.28133 -0.59059,6.40848c-0.26956,3.3387 -0.45927,6.73125 -0.56891,10.17735c-0.18672,3.04255 -0.21351,6.19249 -0.05165,9.23429c0.31688,0.5648 0.93098,0.85976 1.41078,1.18195c4.18683,2.5769 8.31941,5.23458 12.50624,7.81148c4.50669,2.7917 9.09334,5.63708 13.67999,8.48248c3.54721,2.14716 7.09429,4.29449 10.64139,6.44181c2.42758,1.39555 4.66661,2.89908 7.03996,4.37539c0.77404,0.40236 1.468,0.75118 2.24203,1.15354c0.39983,0.26849 0.85688,0.1062 1.42262,-0.21794c0.43547,-3.93133 1.0596,-7.9708 1.22657,-11.84784zM211.56475,205.08303c-0.44415,-4.52201 -0.27121,-9.09905 -0.44684,-13.67535c0.01196,-1.40005 -0.54482,-2.12595 -1.69306,-2.66217c-0.9882,-0.42899 -1.86782,-1.01967 -2.80167,-1.52957c-0.85399,-0.45606 -1.62803,-0.85841 -2.51352,-0.74922c-0.54011,0.45875 -0.49175,1.07786 -0.46899,1.56233c0.30983,4.54923 0.61967,9.09846 0.92952,13.64769c0.09374,1.5882 0.67325,2.79857 2.19559,3.46884c1.28233,0.50931 2.48181,1.31478 3.65568,1.98563c0.2399,0.16109 0.53413,0.24127 1.04554,-0.00194c0.30012,-0.6197 0.22612,-1.37341 0.09779,-2.04621zM239.53864,231.84616c-1.76522,-0.48133 -3.19382,0.43663 -3.69143,2.21435c-0.74936,3.01652 2.81152,6.69833 5.76533,6.10077c2.28259,-0.46191 3.40316,-2.99454 2.24126,-5.06543c-0.50243,-0.80682 -1.08494,-1.66718 -2.0189,-2.17694c-0.58539,-0.5105 -1.41364,-0.8321 -2.29626,-1.07277zM238.46122,241.91688c-1.23109,-0.24007 -2.25387,0.24635 -2.95979,1.29758c-0.70591,1.05122 -0.72086,2.80128 0.02157,3.76904c1.08793,1.31717 2.28442,2.47266 4.02391,2.81953c0.21428,0.02648 0.5085,0.10663 0.85699,0.10603c2.1453,-0.08467 3.36559,-1.72911 2.82066,-3.85489c-0.28527,-1.1302 -1.23888,-2.4746 -2.43837,-3.28007c-0.66546,-0.56405 -1.52234,-0.67025 -2.32498,-0.85721zM211.14458,222.98678c1.33379,0.77825 2.94195,0.80233 3.83353,-0.00704c1.24293,-1.15982 1.55499,-3.17956 0.57565,-4.65843c-0.925,-1.55979 -2.39299,-2.31096 -3.97255,-2.55043c-2.43655,-0.34552 -4.00831,1.64954 -3.35779,3.96366c0.33962,1.04928 1.16191,2.07089 2.44136,2.93006c0.15993,0.10739 0.31985,0.21478 0.47979,0.32218zM224.29276,224.65887c-1.20845,0.24456 -1.72283,0.83779 -1.84026,2.04935c-0.29242,2.85439 2.57748,5.83738 5.3941,5.6169c1.79683,-0.08407 2.74562,-1.32421 2.54619,-3.10058c-0.17371,-1.64191 -0.9674,-2.87891 -2.43539,-3.63008c-1.0909,-0.96716 -2.37633,-1.1263 -3.66464,-0.9356zM216.16624,240.90743c-0.385,-2.01839 -2.46111,-3.76455 -4.52356,-3.97604c-1.98237,-0.15795 -3.28263,1.43281 -2.97761,3.39749c0.22506,1.91099 3.20642,4.38245 4.81471,4.40637c0.9912,0.07898 1.74546,-0.35315 2.45138,-1.40437c0.43441,-0.64692 0.3347,-1.53511 0.23508,-2.42345zM210.23529,225.8959c-1.2598,-0.02452 -2.28557,0.81191 -2.40312,2.02364c-0.40686,3.71594 3.18871,6.4822 6.03693,5.69632c1.39699,-0.35256 2.21448,-1.91549 1.8235,-3.23385c-0.36524,-1.1839 -1.58437,-2.82402 -2.94379,-3.73689c-0.55976,-0.37589 -1.41377,-0.83194 -2.51353,-0.74922zM236.97799,252.41913c-1.50258,0.16423 -2.39703,1.32346 -2.32892,2.77704c0.04836,0.6191 0.17659,1.29205 0.54781,1.77593c0.76806,1.10238 1.779,2.01584 3.08706,2.65962c0.53413,0.24126 1.17684,0.32083 1.79383,0.26594c2.38818,-0.27357 3.58872,-2.75252 2.10396,-4.68819c-0.58239,-0.86051 -1.38205,-1.39749 -2.15309,-2.14987c-0.90823,-0.37528 -1.95078,-0.72335 -3.05065,-0.64048zM223.48356,244.17867c-1.42262,0.21793 -2.17988,1.00008 -2.24607,2.48089c-0.00299,0.35001 0.01976,0.83449 0.15108,1.15727c0.65639,1.61424 1.7443,2.93141 3.40095,3.57443c0.66834,0.21419 1.23108,0.24007 1.84806,0.18518c1.69123,-0.27239 2.50273,-1.1353 2.38336,-2.85813c-0.09374,-1.5882 -0.80746,-2.7715 -2.06128,-3.49606c-1.06518,-0.8327 -2.05348,-1.26152 -3.47609,-1.04357zM226.66359,242.20754c1.71386,0.21225 2.93117,-1.0822 2.8118,-2.80504c-0.16784,-2.34178 -2.18662,-4.51887 -4.48897,-4.89145c-2.16792,-0.39997 -3.68246,1.16432 -3.27185,3.31733c0.30802,1.61468 1.07608,2.71705 2.40975,3.49546c0.79965,0.53698 1.62804,0.85841 2.53926,0.88369zM311.04165,281.38662c1.99914,1.34245 3.91832,2.6312 6.02603,3.81196c0.77404,0.40236 1.30507,0.99379 2.18769,1.23445c0.66845,0.21403 1.15112,0.18636 1.61127,-0.32609c-0.01975,-0.83448 -0.65948,-1.26407 -1.21924,-1.63995c-2.47893,-1.66464 -4.93224,-3.19464 -7.49402,-4.56313c-0.69407,-0.34866 -1.38814,-0.69732 -2.19665,-0.18443c-0.11455,0.86172 0.39087,1.31853 1.08492,1.66719zM334.18525,299.27432c-2.47893,-1.66464 -4.93225,-3.19465 -7.49414,-4.56297c-0.69407,-0.34866 -1.38802,-0.69747 -2.19664,-0.18442c-0.11455,0.86172 0.39098,1.31836 0.95074,1.69425c1.99914,1.34245 3.91831,2.63121 6.02603,3.81196c0.77404,0.40236 1.30507,0.99379 2.18769,1.23445c0.66834,0.2142 1.15111,0.18636 1.61126,-0.32609c-0.01975,-0.83448 -0.52517,-1.2913 -1.08492,-1.66718zM349.38245,315.34587c-2.77616,-1.39479 -5.22648,-3.27481 -8.03114,-4.45438c-0.53413,-0.24126 -0.98831,-0.42882 -1.47397,-0.05114c-0.2715,0.40431 -0.00597,0.70002 0.20531,1.0765c0.31688,0.5648 0.93097,0.85976 1.41077,1.18195c2.26765,1.28816 4.61526,2.63001 6.90864,4.05262c0.4798,0.32219 1.06817,0.48269 1.71087,0.56226c0.42845,0.05311 0.72557,-0.21659 0.91721,-0.67475c-0.42257,-0.75296 -0.89938,-1.42517 -1.64767,-1.69306zM334.63555,293.5931c-2.69609,-1.34125 -5.06645,-3.16759 -7.87122,-4.34699c-0.53413,-0.24126 -1.01394,-0.56345 -1.60818,-0.02409c-0.24587,0.53893 0.17958,0.94204 0.44521,1.2376c0.58538,0.51051 1.17077,1.02101 1.86484,1.36967c1.92215,0.93874 3.76137,2.17379 5.57484,3.27438c0.77404,0.40236 1.49372,0.88565 2.35071,0.99169c0.42845,0.05311 0.83127,-0.02841 1.13137,-0.64812c-0.42257,-0.75296 -0.89937,-1.42516 -1.88757,-1.85416zM311.37712,286.07048c-0.3741,-0.13403 -0.82826,-0.32159 -1.31104,-0.29377c-0.34848,0.00059 -0.59137,0.18951 -0.67432,0.48582c-0.02862,0.21539 -0.0316,0.56541 0.12833,0.6728c0.26563,0.29556 0.61111,0.64497 1.06528,0.83253c2.16195,1.09999 4.13547,2.30782 6.18895,3.56934c0.93386,0.50991 1.92215,0.93874 2.99331,1.07141c0.29413,0.08033 0.61699,-0.05489 0.7799,-0.2975c0.16291,-0.24262 0.08595,-0.64632 -0.15396,-0.80742c-0.4798,-0.32219 -0.82538,-0.67145 -1.38514,-1.04733c-2.42758,-1.39555 -4.98946,-2.76387 -7.63132,-4.18588zM348.44926,321.05509c-1.03955,-0.69807 -1.99914,-1.34246 -3.09294,-1.95977c-1.41375,-0.83195 -2.90748,-1.71757 -4.37547,-2.46875c-0.61399,-0.29512 -1.14812,-0.53638 -1.7365,-0.69688c-0.29424,-0.08017 -0.64272,-0.07957 -0.85998,0.24398c-0.21715,0.32338 -0.08584,0.64616 0.09972,0.88819c0.26553,0.29571 0.53115,0.59128 0.85101,0.80606c2.6931,1.69126 5.52061,3.35514 8.26806,4.96548c0.4798,0.32219 1.06816,0.48269 1.82244,0.05056c0.11455,-0.86172 -0.47082,-1.37222 -0.97634,-1.82888zM334.09708,306.48962c-1.03955,-0.69807 -1.99914,-1.34246 -3.09294,-1.95976c-1.49372,-0.88564 -3.04167,-1.69052 -4.58974,-2.49523c-0.53402,-0.24142 -1.1224,-0.40192 -1.71088,-0.56225c-0.1342,0.02707 -0.45705,0.16228 -0.56563,0.32398c-0.05434,0.08092 -0.05733,0.43094 0.04836,0.6191c0.23692,0.5111 0.63673,0.77959 1.11653,1.10178c1.03955,0.69807 2.15907,1.44984 3.25286,2.06716c1.35942,0.91287 2.74756,1.61017 4.1612,2.44228c0.77404,0.40236 1.54795,0.80488 2.5165,0.39922c0.14317,-1.07711 -0.41658,-1.45298 -1.13628,-1.93626zM351.28621,302.66236c-1.03955,-0.69807 -1.99913,-1.34245 -3.09292,-1.95976c-1.54807,-0.80471 -3.04168,-1.69051 -4.58975,-2.49522c-0.45407,-0.18773 -1.04243,-0.34822 -1.49661,-0.5358c-0.29424,-0.08017 -0.64271,-0.07957 -0.85986,0.24381c-0.21726,0.32355 -0.08595,0.64633 0.09961,0.88834c0.3456,0.34926 0.77104,0.75236 1.17088,1.02086c1.35942,0.91287 2.85314,1.7985 4.32113,2.54968c1.14814,0.53638 2.05349,1.26152 3.14727,1.87883c0.79965,0.53697 0.85399,0.45607 2.30223,0.37275c0.08893,-0.99633 -0.47082,-1.37223 -1.00198,-1.9635zM341.15592,305.48071c1.27945,0.85917 2.5589,1.71832 3.89269,2.49657c1.19949,0.80547 2.58751,1.50294 3.9213,2.28119c0.93396,0.50975 0.93397,0.50975 2.32797,0.50721c0.40569,-0.43138 0.19441,-0.80786 -0.15107,-1.15727c-0.42545,-0.40312 -0.90524,-0.7253 -1.30507,-0.99379c-2.34771,-1.34168 -4.7753,-2.73724 -7.12291,-4.07909c-0.63972,-0.42958 -1.33378,-0.77825 -2.27362,-0.58813c-0.38306,0.916 0.12235,1.37282 0.71073,1.53332zM309.22151,299.99296c2.42769,1.39539 4.93523,2.84463 7.36281,4.24018c0.69407,0.34866 1.44237,0.61656 2.21929,0.66906c0.42855,0.05294 0.72567,-0.21675 0.86295,-0.59399c-0.18268,-0.59187 -0.66246,-0.91405 -1.06229,-1.18254c-2.58751,-1.50295 -5.17503,-3.0059 -7.81689,-4.42792c-0.53413,-0.24126 -1.04253,-0.34806 -1.55094,-0.45486c-0.58848,-0.16033 -0.85997,0.24397 -0.97154,0.75567c0.10271,0.53818 0.44818,0.88758 0.95659,0.99438zM324.61248,309.03754c2.21341,1.36892 4.42672,2.738 6.64013,4.10692c0.71969,0.48327 1.33378,0.77824 2.16504,0.74982c0.34848,-0.00059 0.67133,-0.13582 0.67432,-0.48583c0.02862,-0.21539 0.03159,-0.5654 -0.12833,-0.6728c-0.26562,-0.29556 -0.61111,-0.64497 -1.01094,-0.91345c-2.21341,-1.36892 -4.37249,-2.81876 -6.58579,-4.18784c-0.63972,-0.42958 -1.38803,-0.69748 -2.11071,-0.83074c-0.29424,-0.08017 -0.61708,0.05506 -0.96855,0.40566c0.23392,0.86111 0.73945,1.31777 1.32482,1.82828zM310.10335,294.01466c2.37634,1.12631 4.50669,2.7917 6.80007,4.21432c0.69407,0.34866 1.33379,0.77823 2.13931,0.61536c0.13431,-0.02722 0.37719,-0.21614 0.48577,-0.37784c0.10858,-0.1617 0.05722,-0.43078 -0.04836,-0.6191c-0.34548,-0.34942 -0.61111,-0.64497 -1.01094,-0.91346c-2.29327,-1.42278 -4.45235,-2.87262 -6.74573,-4.29524c-0.85399,-0.45606 -1.78785,-0.96596 -3.02491,-0.506c0.20531,1.0765 0.6565,1.61408 1.4048,1.88197z" data-paper-data="{&quot;index&quot;:null}" fill="#216aff"/><path d="M236.22874,220.70657c-0.85399,-0.45606 -1.25084,-1.07456 -1.29622,-2.04367c-0.19347,-2.47638 -0.33258,-5.0337 -0.33739,-7.61825c-0.0394,-1.66913 -0.13314,-3.25734 -0.30685,-4.89925c-0.02274,-0.48448 -0.0711,-1.10357 -0.5509,-1.42576c-1.06518,-0.8327 -2.13046,-1.66522 -3.52147,-2.0127c-0.68018,1.1857 -0.76015,1.132 -0.71178,1.75109c0.04238,1.31913 0.05916,2.50361 0.15589,3.7418c0.16773,2.34193 0.28111,4.76478 0.39461,7.18748c0.07698,0.40372 0.15395,0.80742 -0.3317,1.1851c-0.82837,-0.32143 -1.60231,-0.72394 -2.05349,-1.26152c-0.51033,-3.04119 -0.37796,-6.00281 -0.45975,-8.99107c-0.01378,-1.5345 -0.24183,-3.09548 -0.3898,-4.60292c-0.02274,-0.48448 -0.04538,-0.9691 -0.4452,-1.2376c-1.14525,-0.88623 -2.29039,-1.77264 -3.60144,-2.0664c-0.67432,0.48583 -0.76026,1.13215 -0.71189,1.75126c0.06812,1.45359 0.05617,2.85362 0.17852,4.22645c0.11649,2.07268 0.20725,4.0109 0.32362,6.08374c0.07709,0.40356 -0.06022,0.7808 -0.41168,1.1314c-0.69406,-0.34866 -1.33378,-0.77825 -2.00212,-0.99245c-0.96257,-0.29436 -1.2251,-0.9401 -1.24486,-1.77458c-0.14798,-1.50744 -0.27044,-2.88009 -0.41842,-4.38753c-0.26147,-3.93014 -0.25444,-7.91456 -0.9988,-11.81672c-0.10261,-0.53833 -0.07099,-1.10373 0.30908,-1.66972c1.17685,0.32083 2.29637,1.0726 3.39015,1.68991c3.36154,1.9053 6.66886,3.89138 10.03029,5.79684c4.7753,2.73724 9.52487,5.34001 14.30006,8.07742c5.54923,3.13976 11.09856,6.27937 16.64779,9.41912c3.44151,1.959 6.74872,3.94522 10.19022,5.90422c2.88164,1.58327 5.78912,3.30086 8.61653,4.9649c2.58751,1.50295 5.22935,2.92496 7.81687,4.42791c3.12165,1.74421 6.10899,3.51564 9.1764,5.34061c5.09506,2.9522 10.16448,5.76977 15.25964,8.7218c3.0673,1.82513 6.21457,3.70396 9.33621,5.44817c4.85516,2.7911 9.76476,5.50111 14.61993,8.29221c2.80179,1.52942 5.68354,3.11253 8.43097,4.72287c2.45331,1.53001 5.17802,2.65587 7.54836,4.4822c-0.42768,6.16586 -0.801,12.25079 -1.30864,18.36296c-0.06032,0.78095 -0.04057,1.61543 -0.58356,2.42404c-1.49671,-0.53563 -2.64185,-1.42202 -3.81571,-2.09287c-0.53894,-2.82581 -0.51515,-5.62574 -0.49135,-8.42567c-0.0394,-1.66913 -0.15887,-3.3918 -0.41255,-5.0874c-0.1026,-0.53834 -0.15096,-1.15743 -0.63076,-1.47962c-1.11952,-0.75177 -2.13045,-1.66524 -3.55009,-1.79732c-0.64869,0.62045 -0.65456,1.32031 -0.66054,2.02033c0.12235,1.37282 0.1105,2.77272 0.23286,4.14553c0.09076,1.93822 0.18151,3.87644 0.27227,5.81466c-0.03159,0.5654 0.01677,1.18449 -0.60321,1.5894c-0.56275,-0.02587 -1.04254,-0.34806 -1.3338,-0.77824c-0.53894,-2.82581 -0.46091,-5.7065 -0.51708,-8.56013c-0.0394,-1.66913 -0.13315,-3.25733 -0.30685,-4.89923c-0.02274,-0.48447 -0.07099,-1.10374 -0.55079,-1.42593c-1.11952,-0.75177 -2.1848,-1.5843 -3.57581,-1.93176c-0.78289,0.64751 -0.68318,1.5357 -0.66352,2.37035c0.18748,3.17642 0.29499,6.29913 0.45686,9.34092c0.04836,0.6191 0.07099,1.10373 -0.17487,1.64266c-0.05424,0.08076 -0.24278,0.18876 -0.43143,0.29692c-0.53402,-0.24142 -1.06816,-0.48269 -1.43937,-0.96657c-0.48461,-2.90672 -0.40657,-5.78743 -0.46274,-8.64106c-0.0394,-1.66913 -0.13314,-3.25734 -0.30685,-4.89925c-0.02274,-0.48447 -0.0711,-1.10357 -0.5509,-1.42576c-1.14515,-0.88639 -2.21031,-1.71909 -3.52136,-2.01286c-0.75428,0.43213 -0.84023,1.07846 -0.79185,1.69756c0.06801,1.45375 0.05616,2.85363 0.17852,4.22645c0.11649,2.07268 0.28721,4.06459 0.32361,6.08373c-0.03159,0.5654 0.09674,1.2382 -0.57758,1.72402c-1.51934,-1.02026 -3.09293,-1.95975 -4.58665,-2.84539c-0.48461,-2.90672 -0.46091,-5.70651 -0.43712,-8.50644c-0.0394,-1.66913 -0.15876,-3.39196 -0.41244,-5.08756c-0.02274,-0.48447 -0.0711,-1.10357 -0.39097,-1.31835c-1.09091,-0.96717 -2.26168,-1.98818 -3.86995,-2.0121c-0.51439,0.59322 -0.60032,1.23955 -0.55196,1.85864c0.0425,1.31896 0.05916,2.50362 0.15589,3.74182c0.06214,2.15361 0.17863,4.22628 0.29501,6.29912c0.02274,0.48447 -0.00897,1.05004 -0.3347,1.53511c-0.77702,-0.05234 -1.22809,-0.59009 -1.65365,-0.99304c-0.45898,-2.77211 -0.43518,-5.57203 -0.41138,-8.37196c-0.03951,-1.66898 -0.15888,-3.39181 -0.41255,-5.0874c-0.07698,-0.40372 -0.04539,-0.96911 -0.44521,-1.2376c-1.06518,-0.8327 -2.23604,-1.85356 -3.71001,-1.90471c-0.59435,0.53952 -0.68029,1.18586 -0.63191,1.80495c0.04239,1.31913 0.05916,2.50362 0.15589,3.74182c0.06214,2.15361 0.17852,4.22645 0.29501,6.29913c0.02264,0.48464 -0.00896,1.05003 -0.44338,1.69695c-2.26765,-1.28816 -4.56392,-2.36091 -6.53444,-3.91875c-0.48461,-2.90672 -0.46092,-5.70649 -0.43711,-8.50643c-0.0394,-1.66913 -0.15877,-3.39196 -0.41243,-5.08757c-0.04836,-0.6191 -0.23104,-1.21097 -0.7908,-1.58686c-1.03955,-0.69807 -2.02477,-1.47707 -3.20162,-1.7979c-0.70591,1.05122 -0.78588,0.99752 -0.76612,1.83202c0.06801,1.45374 0.1105,2.77272 0.17852,4.22645c0.11649,2.07268 0.17863,4.22629 0.29501,6.29913c0.02274,0.48447 0.04538,0.96911 -0.54598,1.15862c-0.88261,-0.24067 -1.46799,-0.75117 -1.51337,-1.72028c-0.04836,-0.6191 -0.09673,-1.23819 -0.14509,-1.85729c-0.01079,-1.88452 -0.07591,-3.68812 -0.08671,-5.57264c-0.01378,-1.5345 -0.05318,-3.20364 -0.3612,-4.81832c-0.02264,-0.48464 -0.07101,-1.10373 -0.39087,-1.31852c-1.09091,-0.96716 -2.26179,-1.98801 -4.08422,-2.03857c-0.55495,2.20866 -0.14423,4.3615 -0.08219,6.51527c0.11649,2.07268 0.31283,4.19923 0.05212,6.48804c-1.12538,-0.0519 -1.81946,-0.40057 -1.97043,-1.558c-0.04836,-0.6191 -0.09673,-1.23819 -0.14509,-1.85729c-0.09076,-1.93822 -0.12728,-3.95721 -0.13807,-5.84173c0.04057,-1.61543 -0.05318,-3.20364 -0.36118,-4.81831c-0.07698,-0.40372 -0.04538,-0.96911 -0.44521,-1.2376c-1.06518,-0.8327 -2.29027,-1.77279 -3.71001,-1.90471c-0.54001,0.45861 -0.57161,1.02401 -0.60321,1.5894c0.04538,0.96911 0.03641,2.01915 0.08179,2.98825c0.1135,2.4227 0.25262,4.98002 0.36612,7.4027c0.07698,0.40372 0.07398,0.75372 -0.30321,0.96986c-1.63091,-0.50857 -5.178,-2.65587 -6.66875,-3.89153c-0.45898,-2.77211 -0.43518,-5.57203 -0.41138,-8.37196c-0.11649,-2.07268 -0.09855,-4.17276 -0.69782,-6.21762c-1.19949,-0.80547 -2.31601,-1.90724 -4.00416,-1.98502c-0.08296,0.29631 -0.32584,0.48522 -0.35445,0.70062c-0.05733,0.43094 -0.11455,0.86172 -0.11754,1.21173c0.04239,1.31913 0.05916,2.50361 0.15589,3.7418c0.06214,2.1536 0.17852,4.22645 0.2949,6.2993c0.02274,0.48448 -0.00885,1.04987 -0.33469,1.53511c-0.77691,-0.0525 -1.25671,-0.37469 -1.7079,-0.91226c-0.45898,-2.77211 -0.43518,-5.57205 -0.41138,-8.37198c-0.03951,-1.66898 -0.15887,-3.3918 -0.41255,-5.0874c-0.07698,-0.40372 -0.04538,-0.96911 -0.4452,-1.2376c-1.06518,-0.8327 -2.23605,-1.85354 -3.71003,-1.9047c-0.59435,0.53952 -0.68029,1.18586 -0.63191,1.80495c0.06812,1.45359 0.13613,2.90732 0.20425,4.36091c0.03641,2.01915 0.20713,4.01106 0.24365,6.03005c-0.00299,0.35001 0.09973,0.88817 -0.54597,1.15861c-1.81358,-1.10043 -3.6814,-2.12009 -5.57496,-3.27422c0.01792,-2.10007 -0.01859,-4.11904 0.02496,-6.08449c0.10077,-2.39622 0.1216,-4.84615 -0.26041,-7.21455c-0.10271,-0.53817 -0.01677,-1.1845 -0.44233,-1.58745c-1.0908,-0.96732 -2.26167,-1.98817 -3.86995,-2.01209c-0.6772,0.83568 -0.57758,1.72402 -0.55783,2.5585c0.05318,3.20364 0.13209,6.54175 0.18527,9.74539c-0.00299,0.35001 0.07409,0.75357 -0.35744,1.05062c-0.93685,-0.15991 -1.44226,-0.6167 -1.56761,-1.63951c-0.2478,-2.39546 -0.22699,-4.84539 -0.26041,-7.21453c0.04046,-1.61528 -0.0789,-3.33811 -0.33258,-5.03371c-0.10271,-0.53817 -0.15107,-1.15726 -0.63086,-1.47946c-1.11952,-0.75177 -2.18469,-1.58447 -3.5757,-1.93194c-0.78289,0.64751 -0.68318,1.5357 -0.66353,2.37035c0.18749,3.17641 0.29501,6.29913 0.45687,9.34092c0.04836,0.6191 0.071,1.10374 -0.25484,1.58897c-0.72268,-0.13327 -1.2281,-0.59008 -1.75925,-1.18135c-0.15395,-0.80742 -0.25367,-1.69561 -0.29905,-2.66471c-0.01079,-1.88452 -0.02158,-3.76904 -0.08671,-5.57263c-0.09374,-1.5882 -0.18749,-3.17641 -0.36119,-4.81832c0.0317,-0.56556 -0.20531,-1.0765 -0.68511,-1.39869c-1.17375,-0.67101 -2.10472,-1.53078 -3.41577,-1.82454c-0.86285,0.59382 -0.68328,1.53587 -0.66353,2.37035c0.13315,3.25734 0.24067,6.38005 0.42815,9.55648c0.02274,0.48448 0.01977,0.83448 -0.44028,1.34678c-0.93396,-0.50976 -1.86792,-1.0195 -3.17002,-2.3633z" data-paper-data="{&quot;index&quot;:null}" fill="#ffffff"/><path d="M360.9873,258.84303c-2.74745,-1.61034 -5.41491,-3.16698 -8.16236,-4.77733c-0.15993,-0.10739 -0.23989,-0.16109 -0.39983,-0.26849c-2.64484,-1.07201 -5.06955,-2.81742 -7.63132,-4.18589c-2.56189,-1.36832 -5.09517,-2.95203 -7.60271,-4.40127c-4.69533,-2.68355 -9.36494,-5.23262 -14.06016,-7.91633c-3.0673,-1.82513 -6.21468,-3.70381 -9.28199,-5.52894c-0.15993,-0.10739 -0.34548,-0.34941 -0.55976,-0.37588c-2.48491,-0.96461 -4.5353,-2.57631 -6.85729,-3.78355c-3.15025,-1.52882 -6.10899,-3.51565 -9.17629,-5.34078c-0.3742,-0.13387 -0.55976,-0.37588 -0.85399,-0.45606c-2.80478,-1.1794 -5.25509,-3.05943 -7.97681,-4.53531c-3.17599,-1.66329 -6.2719,-3.27303 -9.17639,-5.34062c-0.26553,-0.29572 -0.50542,-0.45681 -0.79967,-0.53698c-2.4848,-0.96477 -4.5353,-2.57631 -6.85728,-3.78354c-3.25595,-1.71698 -6.42885,-3.73044 -9.57611,-5.60926c-0.15993,-0.10739 -0.23989,-0.16109 -0.39983,-0.26849c-2.85613,-1.4485 -5.57793,-2.92421 -8.32538,-4.53455c-1.89354,-1.15413 -3.787,-2.3084 -5.78912,-3.30085c-2.69619,-1.34109 -5.12078,-3.08666 -7.81687,-4.42792c-3.25595,-1.71698 -6.37461,-3.8112 -9.57623,-5.6091c-1.65355,-0.99319 -3.36155,-1.9053 -5.0151,-2.89849c-0.45416,-0.18757 -0.88261,-0.24067 -1.28243,-0.50916c-1.01393,-0.56345 -1.8738,-0.31964 -2.57672,0.38157c-1.18869,1.07905 -2.24308,2.13088 -3.35181,3.26363c-0.56873,0.67415 -1.2173,1.29444 -2.02593,1.8075c-0.69406,-0.34866 -1.41663,-0.48208 -1.97639,-0.85797c-1.89354,-1.15413 -3.70714,-2.25456 -5.6292,-3.19345c-2.0821,-1.04613 -4.16418,-2.09228 -6.32624,-3.19211c-0.85399,-0.45606 -1.76223,-0.83134 -2.47893,-1.66464c1.00602,-1.67092 2.54318,-2.75057 3.73487,-4.17962c1.13734,-1.34813 2.51458,-2.53519 3.65204,-3.88349c1.27154,-1.3752 2.64877,-2.56225 3.94615,-3.80316c0.50841,0.1068 0.93685,0.15991 1.25671,0.37469c2.72182,1.47572 5.49787,2.87067 8.29967,4.40008c2.9361,1.50219 5.87207,3.00454 8.64524,4.74934c3.78699,2.30841 7.60261,4.40144 11.36398,6.57524c3.46724,2.09347 7.04296,4.0254 10.56443,6.03808c2.42758,1.39555 4.93512,2.84479 7.41704,4.15942c2.72182,1.47572 5.33506,3.11313 8.00254,4.66977c0.21428,0.02648 0.39983,0.26849 0.6141,0.29496c2.005,0.64258 3.78998,1.95841 5.6578,2.97807c3.49574,1.87824 6.74871,3.94522 10.13588,5.98515c0.3742,0.13387 0.6141,0.29496 0.854,0.45605c2.42758,1.39555 4.82954,2.65648 7.25711,4.05202c3.14727,1.87883 6.37461,3.81121 9.52188,5.69004c0.15993,0.10739 0.23991,0.1611 0.39983,0.26849c2.64186,1.42202 5.36368,2.89773 8.03114,4.45438c3.14727,1.87883 6.37451,3.81137 9.52188,5.69004c0.15993,0.10739 0.23989,0.16109 0.39982,0.26848c2.80466,1.17957 5.17503,3.00589 7.81689,4.42791c3.44151,1.959 6.96297,3.9717 10.40438,5.93086c3.6814,2.12009 7.44278,4.29389 11.17853,6.33306c2.08198,1.04629 4.0555,2.25411 6.02901,3.46194c2.58751,1.50295 5.36356,2.8979 7.97681,4.53531c0.63972,0.42958 1.35942,0.91286 2.13344,1.31522c3.57571,1.93194 7.15153,3.86371 10.51008,6.11902c0.82528,0.6716 1.62494,1.20858 2.53018,1.93388c-2.10877,2.10365 -3.97476,4.01853 -5.7608,5.98712c-1.70596,2.02213 -3.41203,4.04442 -5.41222,5.98637c-0.39983,-0.26849 -0.63972,-0.42958 -0.87961,-0.59067c-2.10782,-1.18059 -3.91832,-2.6312 -6.13472,-3.6501c-0.93386,-0.50991 -1.9764,-0.85797 -2.53029,-1.93372c1.25488,-2.55987 3.65502,-4.2335 5.17841,-6.84765c-0.4798,-0.32219 -0.79966,-0.53698 -0.77403,-0.40235z" data-paper-data="{&quot;index&quot;:null}" fill="#216aff"/><path d="M351.78991,265.45554c-2.42758,-1.39555 -4.7753,-2.73724 -7.20288,-4.13279c-6.02902,-3.46195 -11.97807,-6.87019 -18.00709,-10.33214c-3.60144,-2.06639 -7.28285,-4.18649 -10.96425,-6.30658c-2.74745,-1.61033 -5.41491,-3.16698 -8.16236,-4.77733c-4.69533,-2.68355 -9.3106,-5.31354 -14.00593,-7.99709c-2.88175,-1.58312 -5.78913,-3.30087 -8.61653,-4.9649c-6.02902,-3.46195 -11.97807,-6.87018 -18.00709,-10.33213c-5.25509,-3.05943 -10.56443,-6.03809 -15.87375,-9.01675c-6.02902,-3.46195 -12.19234,-6.89666 -18.2757,-10.27769c-3.44139,-1.95916 -6.96288,-3.97186 -10.40438,-5.93085c-1.17386,-0.67085 -2.34761,-1.34185 -3.57283,-2.28178c1.46318,-1.83336 3.13765,-3.29026 4.65207,-4.85439c0.29424,0.08017 0.58848,0.16035 0.74841,0.26774c4.45532,2.52261 8.99075,5.09876 13.44607,7.62136c4.45532,2.52261 8.93639,5.17968 13.39183,7.70212c5.1494,2.87126 10.21883,5.68885 15.31389,8.64105c2.34771,1.34169 4.69533,2.68354 7.04296,4.02539c4.53541,2.57614 9.0707,5.15246 13.60611,7.72861c2.58751,1.50295 5.17501,3.00588 7.76252,4.50883c5.22936,2.92496 10.40449,5.9307 15.63386,8.85567c2.42758,1.39555 4.93511,2.8448 7.36281,4.24018c4.45532,2.52261 8.8308,4.99137 13.28614,7.51398c4.61536,2.62985 9.1763,5.34077 13.79166,7.97062c2.72182,1.47572 5.44363,2.95144 8.11111,4.50809c1.7079,0.91226 3.38718,2.03992 5.04083,3.03295c-1.22328,1.99446 -3.10904,3.07486 -4.06669,5.36489c-0.69407,-0.34866 -1.36241,-0.56285 -2.03074,-0.77705z" data-paper-data="{&quot;index&quot;:null}" fill="#d0e9ea"/><path d="M362.07993,332.20272c0.50571,-9.04656 1.41422,-18.17464 2.40283,-27.24918c0.99147,-9.4244 2.27719,-18.76862 2.70592,-28.21888c0.09778,-2.04622 0.48682,-3.66224 2.08133,-5.17282c2.406,-2.37349 4.57211,-4.90808 6.81818,-7.38897c0.40569,-0.43138 0.89146,-0.80921 1.53716,-1.07964c0.02264,0.48464 0.15395,0.80742 0.071,1.10374c-0.37527,3.15054 -0.72479,6.43554 -1.15439,9.66701c-1.0566,7.62079 -1.97891,15.21436 -2.68704,22.83457c-0.21235,2.90792 -0.47892,5.89662 -0.90553,8.77808c-0.85025,5.41289 -1.05766,10.9052 -2.25638,16.31869c-0.36332,1.7505 -0.83231,3.31282 -1.96976,4.66112c-1.94884,2.21104 -3.89779,4.42225 -5.84664,6.63329c-0.05434,0.08092 -0.18854,0.10799 -0.6457,0.27044c-0.02264,-0.48464 -0.09972,-0.88818 -0.15097,-1.15743z" data-paper-data="{&quot;index&quot;:null}" fill="#216aff"/><path d="M300.15573,297.42487c-0.77404,-0.40236 -1.52234,-0.67025 -2.24203,-1.15353c-2.37335,-1.47631 -4.66661,-2.89908 -7.03996,-4.3754c-3.5471,-2.14732 -7.09419,-4.29465 -10.6414,-6.4418c-4.50669,-2.7917 -9.09334,-5.63709 -13.67999,-8.48248c-4.18682,-2.5769 -8.31941,-5.23458 -12.50624,-7.81148c-0.53413,-0.24126 -1.14824,-0.53622 -1.41077,-1.18195c-0.16186,-3.04179 -0.0551,-6.13804 0.05165,-9.23428c0.1896,-3.3924 0.245,-6.75774 0.56891,-10.17736c0.15213,-2.12714 0.08998,-4.28074 0.59059,-6.40847c0.13729,-0.37724 0.11455,-0.86172 0.81449,-1.21292c0.67143,-0.13598 1.39112,0.3473 2.16505,0.74982c3.20162,1.7979 6.40322,3.59582 9.65907,5.31296c4.72395,2.46815 9.3106,5.31355 13.95159,8.07801c6.05476,3.59641 12.08078,7.40836 18.02684,11.16662c0.4798,0.32219 1.09389,0.61715 1.57369,0.93935c0.95959,0.64438 2.05338,1.26169 3.09293,1.95976c0.77404,0.40236 1.03656,1.04809 0.78781,1.93687c-0.16591,0.59263 -0.22613,1.37341 -0.31207,2.01973c-0.48982,4.01225 -0.60541,8.15838 -0.801,12.2508c-0.2213,3.95796 -0.79109,7.91651 -1.22656,11.84784c-0.56574,0.32414 -0.96844,0.4055 -1.42262,0.21793zM269.66889,250.90578c-2.18768,-1.23445 -4.24116,-2.49599 -6.42884,-3.73044c-0.15993,-0.10739 -0.42844,-0.05309 -0.64272,-0.07957c-2.2133,-1.36908 -4.2638,-2.98062 -6.80305,-3.8643c-0.56081,2.90852 -1.30565,18.01295 -1.16759,23.85467c1.14515,0.88639 2.47893,1.66464 3.86696,2.36212c0.53413,0.24126 1.14812,0.53638 1.62792,0.85857c4.50669,2.7917 8.93351,5.52954 13.36024,8.26754c0.15993,0.10739 0.45405,0.18772 0.61399,0.29512c2.37335,1.47631 4.8809,2.92556 7.25424,4.40187c1.46501,1.10118 2.85014,2.14852 4.53242,2.92616c2.10772,1.18075 3.86397,2.71213 6.0003,3.6775c2.31612,1.90709 5.06943,2.81756 7.5741,4.61667c0.7089,-1.40123 0.58654,-2.77406 0.70398,-3.98562c0.36746,-5.38507 0.76055,-10.63552 1.12801,-16.0206c0.03458,-0.91541 -0.06513,-1.8036 0.10377,-2.74623c0.27736,-1.10417 -0.35936,-1.88376 -1.13329,-2.28627c-3.33592,-1.77067 -6.37163,-4.16123 -9.78752,-5.98559c-2.93599,-1.50236 -5.73478,-3.38177 -8.56219,-5.0458c-0.4798,-0.32219 -1.09389,-0.61715 -1.57369,-0.93934c-1.54497,-1.15488 -3.06431,-2.17514 -4.82655,-3.00648c-1.94779,-1.07336 -3.84133,-2.22749 -5.84048,-3.56994z" data-paper-data="{&quot;index&quot;:null}" fill="#010201"/><path d="M210.55573,207.10396c-1.17386,-0.67085 -2.42768,-1.3954 -3.65578,-1.98547c-1.52233,-0.67025 -2.10174,-1.88079 -2.19548,-3.46899c-0.30983,-4.54923 -0.61979,-9.09831 -0.92962,-13.64754c-0.02264,-0.48464 -0.12534,-1.02281 0.46901,-1.56233c0.88559,-0.10934 1.65964,0.29301 2.51353,0.74922c0.93396,0.50976 1.81359,1.10043 2.80179,1.52942c1.14813,0.53638 1.57071,1.28934 1.69306,2.66217c0.17563,4.5763 0.00269,9.15336 0.44684,13.67536c-0.00598,0.70003 -0.01196,1.40005 -0.2321,2.07343c-0.5114,0.24321 -0.80563,0.16305 -0.91123,-0.02528zM207.51329,199.19449c-0.08295,0.29631 -0.19153,0.458 -0.22025,0.67356c0.15107,1.15727 0.30204,2.3147 0.39877,3.55289c0.45118,0.53758 0.9566,0.99439 1.86782,1.01966c0.38904,-1.61603 -0.16177,-3.04194 -0.04133,-4.60352c-0.80264,-0.18696 -1.33667,-0.4284 -2.00501,-0.64259zM209.44835,195.44893c-1.09378,-0.61731 -2.16206,-1.09984 -3.25585,-1.71714c-0.16889,0.94264 -0.09491,1.69636 0.13912,2.55732c0.93386,0.50991 1.8422,0.88504 2.77606,1.39495c0.48876,-0.72785 0.28046,-1.45434 0.34068,-2.23513zM207.2707,189.88004c-0.41467,1.48141 -0.41466,1.4814 1.74729,2.5814c0.44339,-1.69696 -0.73346,-2.01779 -1.74729,-2.5814z" data-paper-data="{&quot;index&quot;:null}" fill="#020202"/><path d="M243.93376,235.14955c1.1619,2.07089 0.04134,4.60353 -2.24126,5.06544c-2.9538,0.59757 -6.51469,-3.08427 -5.76533,-6.10077c0.49761,-1.77772 1.9262,-2.69569 3.69143,-2.21436c0.80264,0.18696 1.63091,0.50857 2.2163,1.01907c0.93396,0.50976 1.57071,1.28934 2.09886,2.23063zM239.00942,234.18928c-0.64272,-0.07957 -1.1571,0.51364 -1.02876,1.18645c0.09962,0.88834 1.98719,2.7425 3.19564,2.49794c0.61698,-0.05489 1.07712,-0.56735 0.94879,-1.24015c-0.07399,-0.75373 -0.4452,-1.23761 -1.24486,-1.77457c-0.55976,-0.37589 -1.22809,-0.59008 -1.87081,-0.66965z" data-paper-data="{&quot;index&quot;:null}" fill="#030606"/><path d="M243.30452,246.10786c0.46496,2.07208 -0.67538,3.77023 -2.82066,3.85489c-0.26851,0.05429 -0.56274,-0.02586 -0.85699,-0.10603c-1.79384,-0.26594 -2.93598,-1.50235 -4.02391,-2.81952c-0.74244,-0.96776 -0.72749,-2.71782 -0.02157,-3.76905c0.70591,-1.05122 1.7287,-1.53766 2.95979,-1.29758c0.80264,0.18696 1.65953,0.29317 2.24501,0.80352c1.11952,0.75177 2.1531,2.14987 2.51834,3.33376zM237.35442,245.98402c0.68809,1.04869 1.51336,1.72028 2.77307,1.74496c0.69706,-0.00135 1.34564,-0.62165 1.13735,-1.34815c-0.17958,-0.94204 -0.73634,-1.66794 -1.6447,-2.04306c-0.53403,-0.24142 -1.1224,-0.40193 -1.63091,-0.50857c-1.10873,1.13275 -1.13734,1.34814 -0.63479,2.15481z" data-paper-data="{&quot;index&quot;:null}" fill="#040605"/><path d="M208.14347,219.68085c-0.65052,-2.31411 1.00122,-4.25547 3.35779,-3.96366c1.65953,0.29317 3.07328,1.12512 3.97255,2.55044c0.97934,1.47887 0.72162,3.41768 -0.57566,4.65841c-0.81161,0.86306 -2.41977,0.83899 -3.83353,0.00705c-0.15993,-0.10739 -0.23988,-0.16109 -0.39982,-0.26849c-1.27946,-0.85917 -2.10174,-1.88079 -2.52132,-2.98376zM210.38057,218.24998c-0.43441,0.64692 -0.14915,1.77713 0.67624,2.44857c0.39982,0.2685 0.93385,0.50991 1.44237,0.61655c0.88261,0.24067 1.50557,-0.51424 1.27154,-1.3752c-0.18257,-0.59203 -0.49943,-1.15684 -0.89927,-1.42533c-0.82539,-0.67145 -2.03073,-0.77705 -2.49088,-0.26458z" data-paper-data="{&quot;index&quot;:null}" fill="#040505"/><path d="M230.33855,229.30532c0.19933,1.77653 -0.82944,2.96297 -2.54629,3.10074c-2.81662,0.22048 -5.68641,-2.76268 -5.3941,-5.6169c0.11754,-1.21173 0.68616,-1.88572 1.84027,-2.04935c1.34264,-0.27164 2.62807,-0.11249 3.71897,0.85468c1.38802,0.69747 2.18171,1.93448 2.38115,3.71085zM225.56325,226.56807c-0.53403,-0.24142 -1.26269,0.32534 -1.21431,0.94443c0.04538,0.96911 0.60215,1.69501 1.4018,2.23199c0.71969,0.48327 1.49671,0.53562 2.43954,-0.00451c-0.01079,-1.88452 -1.21027,-2.68999 -2.62701,-3.17192z" data-paper-data="{&quot;index&quot;:null}" fill="#030604"/><path d="M213.47978,244.73526c-1.55393,-0.10485 -4.53539,-2.57614 -4.81471,-4.40637c-0.30503,-1.96469 0.99523,-3.55544 2.97761,-3.39749c1.98248,0.15779 4.0586,1.90396 4.52356,3.97604c0.17958,0.94204 0.27929,1.83023 -0.23508,2.42345c-0.78588,0.99752 -1.54015,1.42965 -2.45138,1.40437zM213.30413,240.15896c-0.58539,-0.5105 -1.1965,-1.15548 -2.10772,-1.18076c-0.29424,-0.08017 -0.59136,0.18952 -0.6743,0.48583c-0.02862,0.21539 -0.05723,0.43077 -0.00598,0.70003c0.20829,0.72649 0.57951,1.21037 1.21924,1.63995c0.63972,0.42958 1.22511,0.94009 2.11369,0.48074c0.32883,-0.83524 0.12053,-1.56174 -0.54493,-2.12578z" data-paper-data="{&quot;index&quot;:null}" fill="#030506"/><path d="M215.69261,230.38201c0.39097,1.31837 -0.42652,2.88129 -1.8235,3.23385c-2.84822,0.78588 -6.44378,-1.98039 -6.03692,-5.69633c0.11754,-1.21173 1.08908,-1.9674 2.40312,-2.02364c1.04542,-0.00179 1.95376,0.37333 2.51352,0.74922c1.35942,0.91287 2.57855,2.55298 2.94379,3.73689zM210.99333,231.33273c0.95959,0.64437 1.17375,0.671 2.46515,0.13012c-0.35339,-2.58379 -1.2044,-3.38984 -3.56386,-3.33181c-0.36042,1.40064 0.03342,2.36915 1.0987,3.20169z" data-paper-data="{&quot;index&quot;:null}" fill="#050504"/><path d="M242.1275,255.29024c1.4048,1.88198 0.28411,4.41478 -2.10407,4.68836c-0.61698,0.05489 -1.2597,-0.02468 -1.79384,-0.26594c-1.22809,-0.59008 -2.23904,-1.50354 -3.08695,-2.65977c-0.31698,-0.56464 -0.49954,-1.15668 -0.54791,-1.77578c-0.06812,-1.45359 0.96064,-2.64003 2.32903,-2.77721c1.07414,-0.21734 2.11669,0.13074 3.10488,0.55972c0.77104,0.75237 1.5707,1.28934 2.09886,2.23063zM237.21086,256.56465c0.45118,0.53758 1.03667,1.04793 1.8392,1.23506c0.45416,0.18757 0.9913,0.07882 1.26279,-0.32548c0.4057,-0.43138 0.11455,-0.86171 -0.09673,-1.23819c-0.87365,-1.29071 -1.80761,-1.80046 -3.52447,-1.66269c-0.32872,0.83508 0.06813,1.45359 0.5192,1.99132z" data-paper-data="{&quot;index&quot;:null}" fill="#050304"/><path d="M229.15514,248.69125c0.11947,1.72268 -0.74637,2.66649 -2.38326,2.85796c-0.61709,0.05505 -1.25969,-0.02468 -1.84817,-0.18502c-1.7365,-0.69688 -2.74446,-1.96035 -3.40094,-3.57443c-0.13132,-0.32279 -0.15396,-0.80741 -0.15097,-1.15742c0.06619,-1.48081 0.82344,-2.26296 2.24606,-2.48089c1.23407,-0.10994 2.22227,0.31904 3.34179,1.07081c1.25383,0.72455 2.02178,1.82708 2.19549,3.46899zM224.09362,248.10804c0.45107,0.53774 0.98223,1.12902 1.83921,1.23506c0.64261,0.07973 1.23695,-0.45979 0.97442,-1.10553c-0.26264,-0.64557 -0.79369,-1.23701 -1.4334,-1.6666c-0.69406,-0.34866 -0.854,-0.45605 -2.19665,-0.18443c-0.27449,0.75431 0.3109,1.26483 0.81642,1.72148z" data-paper-data="{&quot;index&quot;:null}" fill="#040405"/><path d="M221.79456,237.88208c-0.41062,-2.15301 1.10391,-3.7173 3.27184,-3.31733c2.30235,0.37258 4.32112,2.54968 4.48897,4.89145c0.11937,1.72283 -1.09795,3.01728 -2.81181,2.80504c-0.9912,-0.07898 -1.8738,-0.31964 -2.61922,-0.93739c-1.27946,-0.85917 -2.12736,-2.01541 -2.32978,-3.44177zM226.78518,237.36138c-0.53115,-0.59127 -1.25084,-1.07456 -2.16206,-1.09983c-0.69706,0.00135 -1.1571,0.51364 -1.02876,1.18645c0.15395,0.80742 0.57653,1.56038 1.29622,2.04367c0.79965,0.53698 0.95958,0.64437 2.40782,0.56106c0.41178,-1.13156 -0.01078,-1.88452 -0.51321,-2.69134z" data-paper-data="{&quot;index&quot;:null}" fill="#040506"/><path d="M312.01906,279.93108c2.56189,1.36833 5.09506,2.95219 7.49402,4.56313c0.55976,0.37588 1.19948,0.80548 1.21923,1.63996c-0.46004,0.5123 -0.94281,0.54012 -1.61115,0.32592c-0.88261,-0.24067 -1.41376,-0.83194 -2.18779,-1.2343c-2.05337,-1.26168 -3.97255,-2.55043 -6.02604,-3.81196c-0.55976,-0.37588 -1.06516,-0.8327 -0.95061,-1.69441c0.80851,-0.51289 1.50258,-0.16424 2.06234,0.21165z" data-paper-data="{&quot;index&quot;:null}" fill="#0c1212"/><path d="M333.5247,301.29466c-0.88261,-0.24067 -1.41376,-0.83195 -2.18779,-1.2343c-2.05337,-1.26168 -3.97255,-2.55043 -6.02603,-3.81196c-0.55976,-0.37588 -1.06516,-0.8327 -0.95061,-1.69441c0.80851,-0.51289 1.50257,-0.16423 2.19653,0.18458c2.61623,1.2874 5.09517,2.95203 7.49414,4.56297c0.55976,0.37588 1.19948,0.80548 1.21923,1.63996c-0.38018,0.56615 -0.94293,0.54028 -1.74546,0.35315z" data-paper-data="{&quot;index&quot;:null}" fill="#0d1313"/><path d="M350.16717,317.63292c-0.64272,-0.07957 -1.15112,-0.18637 -1.71087,-0.56226c-2.26765,-1.28816 -4.61526,-2.63001 -6.90864,-4.05262c-0.4798,-0.32219 -1.0938,-0.6173 -1.41078,-1.18194c-0.21118,-0.37664 -0.4768,-0.6722 -0.20531,-1.0765c0.48577,-0.37784 0.93995,-0.19028 1.47397,0.05114c2.80478,1.1794 5.25509,3.05943 8.03114,4.45438c0.69407,0.34866 1.25084,1.07456 1.59344,1.77382c-0.24587,0.53893 -0.56873,0.67415 -0.86297,0.59398z" data-paper-data="{&quot;index&quot;:null}" fill="#090c0d"/><path d="M335.52596,296.06829c-0.93685,-0.15991 -1.63091,-0.50857 -2.35059,-0.99185c-1.89355,-1.15413 -3.6528,-2.33547 -5.57485,-3.27437c-0.69407,-0.34866 -1.27945,-0.85916 -1.86494,-1.36951c-0.26553,-0.29571 -0.69107,-0.69867 -0.44521,-1.2376c0.51439,-0.59321 1.07414,-0.21735 1.60828,0.02392c2.80466,1.17957 5.17501,3.00588 7.87121,4.34699c0.77393,0.40251 1.3307,1.12843 1.75327,1.88139c-0.30012,0.61969 -0.70292,0.70122 -0.99717,0.62105z" data-paper-data="{&quot;index&quot;:null}" fill="#090d0e"/><path d="M320.4192,291.43832c0.23991,0.16109 0.31687,0.56481 0.15396,0.80742c-0.16282,0.24246 -0.43143,0.29691 -0.77991,0.29751c-1.07115,-0.13267 -2.05935,-0.56167 -2.99332,-1.07142c-2.05348,-1.26153 -3.97265,-2.55026 -6.18894,-3.56934c-0.3742,-0.13387 -0.7197,-0.48328 -1.06518,-0.8327c-0.15993,-0.10739 -0.15704,-0.45724 -0.12833,-0.6728c0.08296,-0.29631 0.32572,-0.48507 0.67431,-0.48583c0.45705,-0.16228 0.91123,0.02527 1.31105,0.29377c2.56189,1.36833 5.12366,2.7368 7.60558,4.05143c0.55976,0.37588 0.9596,0.64437 1.41077,1.18195z" data-paper-data="{&quot;index&quot;:null}" fill="#080b0b"/><path d="M347.54882,322.91433c-2.74745,-1.61034 -5.5206,-3.35514 -8.26806,-4.96549c-0.31986,-0.21479 -0.58538,-0.51052 -0.85101,-0.80607c-0.18556,-0.24202 -0.26253,-0.64573 -0.09961,-0.88833c0.21715,-0.32338 0.56562,-0.32398 0.85987,-0.24381c0.66834,0.2142 1.20248,0.45546 1.73661,0.69672c1.41366,0.8321 2.96161,1.63696 4.37536,2.46891c1.09389,0.61715 2.05349,1.26153 3.09304,1.9596c0.55976,0.37588 1.19948,0.80548 1.03058,1.74811c-0.75428,0.43213 -1.39699,0.35255 -1.87679,0.03036z" data-paper-data="{&quot;index&quot;:null}" fill="#07090a"/><path d="M332.82255,308.21484c-1.35942,-0.91287 -2.74754,-1.61018 -4.1612,-2.44228c-1.03955,-0.69807 -2.21341,-1.36892 -3.25297,-2.067c-0.4798,-0.32219 -0.87961,-0.59067 -1.11653,-1.10178c-0.10559,-0.18831 -0.15695,-0.45741 -0.04836,-0.6191c0.10858,-0.1617 0.35146,-0.35061 0.56574,-0.32413c0.58837,0.1605 1.17674,0.32099 1.71087,0.56226c1.54796,0.80487 3.09591,1.60974 4.58964,2.49537c1.09389,0.61715 2.05349,1.26152 3.09304,1.95959c0.55976,0.37588 1.11952,0.75177 1.03059,1.74811c-0.96855,0.40566 -1.74248,0.00315 -2.41081,-0.21105z" data-paper-data="{&quot;index&quot;:null}" fill="#07090a"/><path d="M350.01169,304.38757c-1.09389,-0.61715 -1.99914,-1.34244 -3.14738,-1.87867c-1.46799,-0.75117 -2.96171,-1.6368 -4.32113,-2.54967c-0.39983,-0.26849 -0.82527,-0.67161 -1.17077,-1.02102c-0.18567,-0.24186 -0.31687,-0.56481 -0.09971,-0.88819c0.21715,-0.32338 0.56573,-0.32413 0.85986,-0.2438c0.50851,0.10664 1.04255,0.34804 1.49671,0.53561c1.54796,0.80487 3.09592,1.60975 4.58964,2.49539c1.09389,0.61715 2.05348,1.26153 3.09303,1.95959c0.55976,0.37588 1.06517,0.8327 0.97625,1.82903c-1.58254,0.11054 -1.58255,0.11054 -2.2765,-0.23828z" data-paper-data="{&quot;index&quot;:null}" fill="#060909"/><path d="M342.61024,304.69722c2.40195,1.26092 4.77519,2.7374 7.12281,4.07925c0.53413,0.24126 0.95958,0.64438 1.30518,0.99363c0.26553,0.29571 0.55677,0.72589 0.15096,1.15743c-1.394,0.00255 -1.394,0.00255 -2.32785,-0.50737c-1.25383,-0.72455 -2.58762,-1.50278 -3.92131,-2.28119c-1.33379,-0.77825 -2.61324,-1.63741 -3.89268,-2.49658c-0.4798,-0.32219 -0.98521,-0.779 -0.60215,-1.69502c0.8856,-0.10935 1.57956,0.23948 2.16504,0.74983z" data-paper-data="{&quot;index&quot;:null}" fill="#060909"/><path d="M309.18211,298.32381c0.56275,0.02587 1.15112,0.18637 1.55095,0.45487c2.64186,1.42202 5.22937,2.92496 7.81689,4.42791c0.4798,0.32219 0.95958,0.64438 1.06228,1.18255c-0.13719,0.37708 -0.43441,0.64692 -0.86285,0.59382c-0.83125,0.02842 -1.52533,-0.32024 -2.21929,-0.66906c-2.42769,-1.39539 -4.93523,-2.84463 -7.3628,-4.24018c-0.39983,-0.26849 -0.79966,-0.53699 -0.90236,-1.07515c0.05733,-0.43093 0.32882,-0.83524 0.91719,-0.67474z" data-paper-data="{&quot;index&quot;:null}" fill="#070909"/><path d="M324.39041,306.77653c0.72267,0.13327 1.47099,0.40117 2.11071,0.83075c2.21341,1.36892 4.42682,2.73783 6.58589,4.18768c0.39983,0.26849 0.66535,0.56421 1.01083,0.91363c0.1057,0.18815 0.15704,0.45724 0.12833,0.6728c-0.08296,0.29631 -0.40569,0.43137 -0.67431,0.48583c-0.83125,0.02842 -1.52522,-0.3204 -2.16494,-0.74998c-2.21341,-1.36892 -4.42682,-2.73784 -6.64013,-4.10692c-0.71969,-0.48327 -1.22521,-0.93994 -1.45914,-1.80105c0.35147,-0.35061 0.67431,-0.48584 1.10276,-0.43273z" data-paper-data="{&quot;index&quot;:null}" fill="#050606"/><path d="M311.72348,292.63869c2.29338,1.42262 4.50669,2.7917 6.74572,4.29524c0.39983,0.26849 0.66545,0.56405 1.01094,0.91346c0.10559,0.18831 0.15695,0.4574 0.04837,0.6191c-0.02862,0.21539 -0.35147,0.35061 -0.48578,0.37783c-0.80552,0.16288 -1.49959,-0.18577 -2.13931,-0.61535c-2.34761,-1.34185 -4.39811,-2.95339 -6.80007,-4.21432c-0.69407,-0.34866 -1.22511,-0.94009 -1.4048,-1.88198c1.31703,-0.40625 2.17092,0.04995 3.02491,0.50601z" data-paper-data="{&quot;index&quot;:null}" fill="#050606"/><path d="M291.86312,289.04036c-2.91411,-7.23667 -5.6397,-14.58134 -8.23107,-21.95308c-0.99301,-3.01353 -2.12043,-5.99968 -3.16779,-8.93228c-0.02562,-0.13462 -0.07698,-0.40371 -0.04837,-0.6191c0.4798,0.32219 1.09389,0.61715 1.57369,0.93934c2.90737,1.71774 5.68054,3.46254 8.56219,5.04581c3.33592,1.77067 6.37163,4.16123 9.78751,5.98559c0.77393,0.40251 1.33069,1.12841 1.1333,2.28628c-0.19452,0.80802 -0.06919,1.83083 -0.10377,2.74624c-0.36746,5.38507 -0.68058,10.68921 -1.12801,16.02059c-0.17178,1.29249 -0.12939,2.61161 -0.70398,3.98562c-2.50466,-1.7991 -5.33794,-2.76326 -7.57409,-4.61666c-0.13121,-0.32295 -0.04836,-0.6191 -0.09961,-0.88835z" data-paper-data="{&quot;index&quot;:null}" fill="#00ff00"/><path d="M266.46998,258.26123c2.6486,6.94096 5.35143,13.80116 7.73152,20.7964c-0.15993,-0.10739 -0.45416,-0.18756 -0.6141,-0.29496c-4.50669,-2.7917 -8.93342,-5.52969 -13.36013,-8.26769c-0.4798,-0.32219 -1.09389,-0.61714 -1.62802,-0.85841c-1.38803,-0.69747 -2.72182,-1.47572 -3.86696,-2.36212c-0.1923,-5.76096 0.55254,-20.86538 1.1677,-23.85483c2.53914,0.88385 4.58964,2.49537 6.80305,3.86431c1.25565,3.6591 2.37699,7.34542 3.76695,10.97729z" data-paper-data="{&quot;index&quot;:null}" fill="#00ff00"/><path d="M263.42561,247.41737c2.18779,1.23429 4.2955,2.41505 6.42884,3.73044c1.28138,3.79356 2.64272,7.64082 4.00397,11.48824c1.91215,5.27319 3.87864,10.46543 5.79077,15.73861c0.6565,1.61408 1.17867,3.2554 1.78082,4.9504c-2.37335,-1.47631 -4.8809,-2.92556 -7.25424,-4.40187c-2.37998,-6.99541 -5.16288,-13.90914 -7.7314,-20.79657c-1.31,-3.57817 -2.48568,-7.18357 -3.74133,-10.84267c0.21416,0.02663 0.42845,0.0531 0.72258,0.13343z" data-paper-data="{&quot;index&quot;:null}" fill="#87ff87"/><path d="M286.04239,286.30491c-1.62398,-4.49282 -3.38208,-8.95875 -4.87175,-13.47881c-1.59526,-4.70837 -3.13619,-9.49768 -4.5428,-14.31421c-0.44521,-1.2376 -1.18465,-2.55536 -1.0385,-3.98247c1.76223,0.83134 3.28157,1.8516 4.82655,3.00649c0.02573,0.13446 -0.05722,0.43079 0.04837,0.6191c1.07308,3.06707 2.12043,5.99968 3.16779,8.93228c2.59138,7.37173 5.31695,14.71641 8.23107,21.95308c0.05124,0.26925 0.04836,0.6191 0.0996,0.88835c-2.2163,-1.01907 -3.97254,-2.55043 -5.92033,-3.6238z" data-paper-data="{&quot;index&quot;:null}" fill="#86ff86"/><path d="M281.24146,283.43304c-0.6565,-1.61408 -1.17867,-3.25538 -1.78093,-4.95024c-1.91215,-5.27319 -3.87851,-10.46559 -5.79066,-15.73877c-1.36134,-3.84726 -2.64262,-7.64098 -4.00397,-11.48825c1.94779,1.07336 3.84133,2.22749 5.78912,3.30085c-0.06619,1.48081 0.64763,2.66396 1.03849,3.98249c1.40672,4.81637 2.94764,9.60566 4.54292,14.31404c1.56953,4.57391 3.24777,8.98597 4.87164,13.47897c-1.68227,-0.77765 -3.0673,-1.82514 -4.66661,-2.89909z" data-paper-data="{&quot;index&quot;:null}" fill="#01ff01"/><path d="M209.55963,204.4406c-0.83125,0.02842 -1.41665,-0.48208 -1.86782,-1.01966c-0.17669,-1.29189 -0.2477,-2.39562 -0.39877,-3.55289c0.02873,-0.21555 0.1373,-0.37725 0.22025,-0.67356c0.66834,0.21419 1.25671,0.3747 2.00501,0.64259c-0.17477,1.6425 0.37603,3.06842 0.04133,4.60352z" data-paper-data="{&quot;index&quot;:null}" fill="#589ca0"/><path d="M206.33163,196.28911c-0.28826,-0.78019 -0.36226,-1.53392 -0.13912,-2.55732c1.17375,0.67101 2.24202,1.15353 3.25585,1.71714c-0.06021,0.78079 0.20232,1.42651 -0.34068,2.23513c-1.06817,-0.48269 -1.92216,-0.93874 -2.77606,-1.39495z" data-paper-data="{&quot;index&quot;:null}" fill="#5ba3a7"/><path d="M207.2707,189.88004c1.01382,0.56361 2.24501,0.80352 1.74729,2.5814c-2.16196,-1.09999 -2.16195,-1.09999 -1.74729,-2.5814z" data-paper-data="{&quot;index&quot;:null}" fill="#56999d"/><path d="M242.12509,236.63351c0.12833,0.6728 -0.27746,1.10433 -0.94879,1.24015c-1.15411,0.16363 -3.01606,-1.55589 -3.19564,-2.49794c-0.10271,-0.53817 0.38605,-1.26602 1.02876,-1.18645c0.64272,0.07957 1.31104,0.29376 1.8708,0.66965c0.79965,0.53698 1.17087,1.02085 1.24486,1.77457z" data-paper-data="{&quot;index&quot;:null}" fill="#01f4f4"/><path d="M239.62014,244.33778c0.90833,0.37512 1.46511,1.10102 1.64469,2.04306c0.20829,0.72649 -0.36032,1.40049 -1.13734,1.34815c-1.2597,-0.02468 -2.16493,-0.74999 -2.77306,-1.74497c-0.50253,-0.80666 -0.47393,-1.02206 0.63479,-2.15481c0.45416,0.18757 1.09688,0.26714 1.63091,0.50857z" data-paper-data="{&quot;index&quot;:null}" fill="#35a76d"/><path d="M213.77072,219.9399c0.23403,0.86095 -0.41466,1.48141 -1.27154,1.3752c-0.50851,-0.10664 -0.96257,-0.29436 -1.44237,-0.61655c-0.82539,-0.67145 -1.19063,-1.85534 -0.67624,-2.44857c0.4058,-0.43153 1.61126,-0.32608 2.49088,0.26459c0.39982,0.2685 0.77104,0.75237 0.89927,1.42532z" data-paper-data="{&quot;index&quot;:null}" fill="#da6694"/><path d="M225.75073,229.7445c-0.71969,-0.48327 -1.27647,-1.20918 -1.4018,-2.23199c-0.18268,-0.59187 0.54598,-1.15862 1.21432,-0.94443c1.47099,0.40116 2.67046,1.20663 2.62702,3.17192c-0.86285,0.59382 -1.6941,0.62224 -2.43953,0.0045z" data-paper-data="{&quot;index&quot;:null}" fill="#01f001"/><path d="M211.81533,241.85771c-0.63972,-0.42958 -1.09091,-0.96715 -1.21924,-1.63995c-0.05124,-0.26925 -0.02263,-0.48463 0.00598,-0.70003c0.08295,-0.29631 0.32584,-0.48523 0.67433,-0.48583c0.91122,0.02527 1.52232,0.67026 2.10771,1.18076c0.58549,0.51035 0.73944,1.31777 0.46496,2.07208c-0.91421,0.32474 -1.55392,-0.10485 -2.03372,-0.42704z" data-paper-data="{&quot;index&quot;:null}" fill="#008bda"/><path d="M213.45849,231.46284c-1.2914,0.54088 -1.50556,0.51425 -2.46515,-0.13012c-1.11952,-0.75177 -1.45913,-1.80104 -1.0987,-3.2017c2.35946,-0.05804 3.21046,0.74803 3.56386,3.33182z" data-paper-data="{&quot;index&quot;:null}" fill="#ebe502"/><path d="M240.21612,256.23602c0.21129,0.37649 0.42247,0.75313 0.09674,1.2382c-0.35146,0.35061 -0.75428,0.43212 -1.26279,0.32548c-0.72258,-0.13342 -1.30806,-0.64378 -1.8392,-1.23506c-0.50542,-0.45681 -0.8223,-1.02161 -0.5192,-1.99133c1.71685,-0.13777 2.70505,0.29122 3.52447,1.66269z" data-paper-data="{&quot;index&quot;:null}" fill="#f30001"/><path d="M225.33954,246.59821c0.69406,0.34866 1.14514,0.88639 1.4334,1.66658c0.26264,0.64557 -0.25174,1.2388 -0.97442,1.10553c-0.72268,-0.13327 -1.30806,-0.64379 -1.8392,-1.23506c-0.42545,-0.40312 -1.01094,-0.91346 -0.68212,-1.74871c1.42262,-0.21793 1.55693,-0.24516 2.06234,0.21165z" data-paper-data="{&quot;index&quot;:null}" fill="#de93ad"/><path d="M224.89057,239.49166c-0.71969,-0.48327 -1.0623,-1.18255 -1.29622,-2.04367c-0.07399,-0.75373 0.33171,-1.1851 1.02877,-1.18645c0.91122,0.02527 1.68525,0.42764 2.16206,1.09983c0.55677,0.7259 0.97922,1.47903 0.51322,2.69135c-1.44824,0.08331 -1.66251,0.05684 -2.40783,-0.56107z" data-paper-data="{&quot;index&quot;:null}" fill="#865492"/></g><g data-paper-data="{&quot;index&quot;:null}" stroke="#000000"><path d="M348.31538,236.06005c1.7149,-2.27565 -12.98461,-7.64627 -20.46143,-13.8123c-6.06277,-4.99988 -7.84213,-11.27934 -0.76339,-10.81055c6.46195,4.86966 78.46897,-0.65092 58.40598,25.97229c-20.063,26.62321 -41.56572,44.25795 -48.02767,39.38828c-6.46195,-4.86966 -9.2165,-14.11453 10.8465,-40.73773z" fill="#216aff" stroke-width="2"/><path d="M360.40517,244.08918c11.72144,8.83317 14.24251,25.25757 5.63096,36.68492c-8.61155,11.42735 -25.0947,13.53035 -36.81614,4.69718c-11.72144,-8.83317 -14.2425,-25.25756 -5.63095,-36.68491c8.61155,-11.42735 25.09469,-13.53036 36.81613,-4.69719z" fill="#faddbf" stroke-width="2"/><path d="M366.23667,279.85152c-8.61154,11.42736 -25.09469,13.53036 -36.81613,4.69719c-11.72144,-8.83317 24.31541,-9.73949 32.92696,-21.16684c8.61155,-11.42737 12.50072,5.0423 3.88917,16.46965z" fill="#ef8b89" stroke-width="0"/></g></g></g></svg>