<svg version="1.1" xmlns="http://www.w3.org/2000/svg" xmlns:xlink="http://www.w3.org/1999/xlink" width="250.53852" height="54.64891" viewBox="0,0,250.53852,54.64891"><g transform="translate(-314.09768,-150.50871)"><g data-paper-data="{&quot;isPaintingLayer&quot;:true}" fill-rule="nonzero" stroke-linejoin="miter" stroke-miterlimit="10" stroke-dasharray="" stroke-dashoffset="0" style="mix-blend-mode: normal"><text transform="translate(316.27943,191.08926) scale(0.8727,0.8727)" font-size="40" xml:space="preserve" fill="#000000" fill-rule="nonzero" stroke="#000000" stroke-width="5" stroke-linecap="butt" stroke-linejoin="miter" stroke-miterlimit="10" stroke-dasharray="" stroke-dashoffset="0" font-family="&quot;Comic Sans MS&quot;, Sans Serif" font-weight="normal" text-anchor="start" style="mix-blend-mode: normal"><tspan x="0" dy="0">Polygonized</tspan></text><text transform="translate(315.68643,190.89688) scale(0.8727,0.8727)" font-size="40" xml:space="preserve" fill="#ffffff" fill-rule="nonzero" stroke="#000000" stroke-width="0" stroke-linecap="butt" stroke-linejoin="miter" stroke-miterlimit="10" stroke-dasharray="" stroke-dashoffset="0" font-family="&quot;Comic Sans MS&quot;, Sans Serif" font-weight="normal" text-anchor="start" style="mix-blend-mode: normal"><tspan x="0" dy="0">Polygonized</tspan></text><path d="M512.70257,184.1846c-3.29925,-13.79982 5.21315,-27.66136 19.01297,-30.96061c13.79983,-3.29925 27.66136,5.21315 30.96061,19.01297c3.29925,13.79983 -5.21315,27.66136 -19.01297,30.96061c-13.79983,3.29925 -27.66136,-5.21315 -30.96061,-19.01297z" fill="#ffb3b3" stroke="#000000" stroke-width="2.5" stroke-linecap="butt"/><path d="M560.2158,166.39296l-5.43427,8.42355l-7.47124,-6.41756l-9.13011,8.76743l-8.83644,-4.90378l-7.79824,8.01722l-8.58997,-6.58187" fill="none" stroke="#000000" stroke-width="2.5" stroke-linecap="round"/><path d="M531.75029,177.52382l14.9363,11.60435l-11.60435,-8.6171" fill="none" stroke="#000000" stroke-width="2.5" stroke-linecap="round"/><path d="M537.49502,188.55371l8.04262,-10.91499" fill="none" stroke="#000000" stroke-width="2.5" stroke-linecap="round"/><path d="M552.08664,179.36214l9.42136,8.6171" fill="none" stroke="#000000" stroke-width="2.5" stroke-linecap="round"/><path d="M553.81006,187.51966l6.20431,-9.99583" fill="none" stroke="#000000" stroke-width="2.5" stroke-linecap="round"/><path d="M535.95127,194.09018c0.09336,1.21373 -1.12036,1.30709 -1.12036,1.30709l-1.54028,0.11758c-2.2427,0.00113 -4.39832,0.20274 -6.63467,0.34321c0,0 -1.21494,0.07594 -1.29087,-1.13901c-0.07594,-1.21494 1.13901,-1.29087 1.13901,-1.29087c2.25346,-0.14011 4.43262,-0.34737 6.69311,-0.34616l1.44698,-0.11221c0,0 1.21373,-0.09336 1.30709,1.12036z" fill="#000000" stroke="none" stroke-width="2.5" stroke-linecap="butt"/></g></g></svg>