<svg version="1.1" xmlns="http://www.w3.org/2000/svg" xmlns:xlink="http://www.w3.org/1999/xlink" width="176.31314" height="329.16621" viewBox="0,0,176.31314,329.16621"><g transform="translate(-228.51922,-31.82119)"><g data-paper-data="{&quot;isPaintingLayer&quot;:true}" fill-rule="nonzero" stroke-linejoin="miter" stroke-miterlimit="10" stroke-dasharray="" stroke-dashoffset="0" style="mix-blend-mode: normal"><g data-paper-data="{&quot;index&quot;:null}" stroke="#000000" stroke-linecap="butt"><path d="M350.23846,228.75236c1.7149,-2.27565 -12.98461,-7.64627 -20.46143,-13.8123c-6.06277,-4.99988 -7.84213,-11.27934 -0.76339,-10.81055c6.46195,4.86966 78.46897,-0.65092 58.40598,25.97229c-20.063,26.62321 -41.56572,44.25795 -48.02767,39.38828c-6.46195,-4.86966 -9.2165,-14.11453 10.8465,-40.73773z" fill="#216aff" stroke-width="2"/><path d="M362.32825,236.78148c11.72144,8.83317 14.24251,25.25757 5.63096,36.68492c-8.61155,11.42735 -25.0947,13.53035 -36.81614,4.69718c-11.72144,-8.83317 -14.2425,-25.25756 -5.63095,-36.68491c8.61155,-11.42735 25.09469,-13.53036 36.81613,-4.69719z" fill="#faddbf" stroke-width="2"/><path d="M368.15975,272.54382c-8.61154,11.42736 -25.09469,13.53036 -36.81613,4.69719c-11.72144,-8.83317 24.31541,-9.73949 32.92696,-21.16684c8.61155,-11.42737 12.50072,5.0423 3.88917,16.46965z" fill="#ef8b89" stroke-width="0"/></g><g stroke="#000000" stroke-linecap="butt"><path d="M327.76518,340.83534v-95.29492h29.49199v95.29492z" fill="#73fffc" stroke-width="2"/><path d="M327.43943,340.21741l1.32626,-93.78573c0,0 5.20288,68.11227 6.3799,77.52842c0.2602,2.08162 2.52228,2.78987 2.52228,2.78987l18.60659,13.13896z" fill="#59a9e6" stroke-width="0"/></g><g stroke="#000000" stroke-linecap="butt"><path d="M288.4238,338.41279v-95.29492h29.49199v95.29492z" fill="#73fffc" stroke-width="2"/><path d="M288.09805,337.7949l1.32626,-93.78573c0,0 5.20288,68.11227 6.3799,77.52842c0.2602,2.08162 2.52228,2.78987 2.52228,2.78987l18.60659,13.13896z" fill="#59a9e6" stroke-width="0"/></g><g stroke="#000000" stroke-linecap="butt"><path d="M355.22917,235.69588c0,13.80271 10.04743,36.74388 4.95001,46.45977c-6.2338,11.88187 -28.61241,9.09579 -38.9397,9.09579c-13.66287,0 -32.94407,4.17018 -38.34426,-14.83216c-2.01935,-7.10576 4.35457,-32.37264 4.35457,-40.7234c0,-30.68249 15.2177,-55.55556 33.98969,-55.55556c18.77199,0 33.98969,24.87307 33.98969,55.55556z" fill="#216aff" stroke-width="2"/><path d="M303.96554,251.27245c0,13.80271 62.04198,20.54886 56.94455,30.26474c-6.2338,11.88186 -28.61241,9.09579 -38.9397,9.09579c-13.66287,0 -32.94406,4.17018 -38.34425,-14.83215c-2.01936,-7.10576 4.35457,-32.37265 4.35457,-40.7234c0,-9.45244 3.34855,-28.59801 5.51953,-29.96813c5.94391,-16.76415 10.4653,25.13995 10.4653,46.16315z" fill="#3236f4" stroke-width="0"/></g><g stroke="#000000" stroke-linecap="butt"><g><path d="M232.22222,120.27785c0,-46.79079 37.93143,-84.72222 84.72222,-84.72222c46.79079,0 84.72222,37.93143 84.72222,84.72222c0,46.79079 -37.93143,84.72222 -84.72222,84.72222c-46.79079,0 -84.72222,-37.93143 -84.72222,-84.72222z" fill="#faddbf" stroke-width="2"/><path d="M232.45299,119.40834c0,-15.05428 8.65728,-41.01117 13.16632,-44.22534c0.51494,-0.36707 5.78642,-8.91029 13.30693,-15.62682c9.34748,-8.34819 21.31473,-15.15641 21.9255,-14.95935c7.96872,2.57101 -17.52654,64.85492 -16.28763,90.14485c0.00295,0.06031 4.40745,19.70158 6.02593,20.14049c2.8855,4.74247 9.11092,19.15337 19.99223,26.29351c20.2786,13.30648 48.94186,19.68013 47.45857,20.18586c-2.37273,0.80898 -14.80271,2.76903 -20.86562,2.76903c-46.79079,0 -84.72222,-37.93143 -84.72222,-84.72222z" fill="#ef8b89" stroke-width="0"/><path d="M401.14322,119.81965c0,11.62434 -1.57787,15.64071 -2.12992,13.78899c-0.5632,-1.8891 -0.18668,-9.81362 -9.04258,-14.64925c-2.14596,-1.17177 -10.20624,6.27605 -12.93385,5.04791c-1.71325,-0.77142 -8.65215,-10.17554 -10.56583,-10.85157c-1.33801,-0.47267 -12.45011,8.37757 -13.84965,7.92692c-3.49052,-1.12394 -11.98851,-11.37355 -15.73972,-12.03156c-2.06568,-0.36235 -9.2828,11.84977 -11.39182,11.59592c-2.71985,-0.32737 -10.06862,-12.06843 -12.80601,-12.06843c-7.27985,0 -7.47978,7.01079 -12.7176,13.01701c-3.40366,3.90299 -13.98842,-13.05188 -17.11223,-8.61668c-3.87941,5.50799 -7.71992,10.81771 -11.96095,14.41734c-3.32724,2.82405 -13.36416,-10.09687 -16.24015,-7.47909c-13.88607,12.63935 -22.22353,20.64372 -22.22353,2.47189c0,-36.54015 43.28764,-8.21349 85.0704,-29.73523c39.99404,-20.60039 83.64345,-9.37431 83.64345,27.16584z" fill="#ef8b89" stroke-width="0"/></g><path d="M402.67709,111.50876c0,23.48334 6.5317,8.71531 -11.46679,-0.86026c-2.20249,-1.17177 -10.47508,6.27605 -13.27454,5.04791c-1.75838,-0.77142 -8.88005,-10.17554 -10.84414,-10.85157c-1.37326,-0.47267 -12.77806,8.37757 -14.21446,7.92692c-3.58246,-1.12394 -12.30429,-11.37355 -16.15431,-12.03156c-2.12009,-0.36235 -9.52731,11.84977 -11.69189,11.59592c-2.79149,-0.32737 -10.33384,-12.06843 -13.14333,-12.06843c-7.47161,0 -7.6768,7.01079 -13.05259,13.01701c-3.49332,3.90299 -14.35688,-13.05188 -17.56298,-8.61668c-3.98159,5.50799 -7.92327,10.81771 -12.276,14.41734c-3.41488,2.82405 -13.71618,-10.09687 -16.66792,-7.47909c-14.25184,12.63935 -22.80892,20.64372 -22.80892,2.47189c0,-36.54015 39.86264,-81.25697 85.78948,-81.25697c45.92683,0 87.36842,42.14743 87.36842,78.68758z" fill="#724e36" stroke-width="2"/><path d="M402.42936,110.34597c0,23.48334 6.5317,8.71531 -11.46679,-0.86026c-2.20249,-1.17177 -10.47508,6.27605 -13.27454,5.04791c-1.75838,-0.77142 -8.88005,-10.17554 -10.84415,-10.85157c-1.37326,-0.47267 -12.77806,8.37757 -14.21446,7.92692c-3.58246,-1.12394 -12.30429,-11.37355 -16.15431,-12.03156c-2.12009,-0.36235 -9.52731,11.84977 -11.69189,11.59592c-2.79149,-0.32737 -10.33384,-12.06843 -13.14333,-12.06843c-7.47161,0 -7.6768,7.01079 -13.05259,13.01701c-3.49332,3.90299 -14.35688,-13.05188 -17.56298,-8.61668c-3.98159,5.50799 -7.92327,10.81771 -12.27601,14.41734c-3.41488,2.82405 -13.71618,-10.09687 -16.66792,-7.47909c-14.25184,12.63935 -22.80892,20.64372 -22.80892,2.47189c0,-36.54015 44.42786,-8.21349 87.31121,-29.73523c41.04751,-20.60039 85.84668,-9.37431 85.84668,27.16584z" fill="#623728" stroke-width="0"/></g><g stroke="#000000" stroke-linecap="butt"><path d="M335.77956,143.18021c0,28.55894 -13.1683,43.28947 -29.73684,43.28947c-16.56854,0 -30.26316,-14.73054 -30.26316,-43.28947c0,-28.55894 13.43146,-51.71053 30,-51.71053c16.56854,0 30,23.15159 30,51.71053z" fill="#f0f0f0" stroke-width="2"/><path d="M289.02383,123.59781c-4.30259,28.23297 34.22345,62.0416 17.65491,62.0416c-16.56854,0 -30.26316,-14.73054 -30.26316,-43.28947c0,-28.55894 18.82852,-59.56866 12.60825,-18.75213z" fill="#9a99ff" stroke-width="0"/></g><path d="M331.88513,151.41346c0,15.82221 -4.68891,28.64865 -10.47297,28.64865c-5.78406,0 -10.47297,-12.82644 -10.47297,-28.64865c0,-15.82221 4.68891,-28.64865 10.47297,-28.64865c5.78406,0 10.47297,12.82644 10.47297,28.64865z" fill="#000000" stroke="none" stroke-width="0" stroke-linecap="butt"/><g stroke="#000000" stroke-linecap="butt"><path d="M330.77026,113.14553c4.45946,10.22981 11.05276,41.71511 -4.6575,41.71511c-15.71026,0 -48.13056,-32.23503 -43.58575,-41.85025c4.32432,-9.14873 6.78974,-21.41892 22.5,-21.41892c15.71026,0 21.49332,11.80491 25.74324,21.55405z" fill="#a100fe" stroke-width="2"/><path d="M330.01632,112.79128c4.3074,10.22981 11.73091,41.37445 -3.44367,41.37445c-15.17458,0 -47.54445,-31.89437 -43.15461,-41.50959c4.17687,-9.14873 6.55823,0.96203 21.73281,0.96203c15.17458,0 20.76045,-10.57604 24.86546,-0.8269z" fill="#99008e" stroke-width="0"/></g><g data-paper-data="{&quot;index&quot;:null}" stroke="#000000" stroke-linecap="butt"><path d="M369.50624,89.99105c16.56854,0 30,23.15159 30,51.71053c0,28.55893 -13.69462,43.28947 -30.26316,43.28947c-16.56854,0 -29.73684,-14.73053 -29.73684,-43.28947c0,-28.55894 13.43146,-51.71053 30,-51.71053z" fill="#f0f0f0" stroke-width="2"/><path d="M398.87022,140.87131c0,28.55893 -13.69462,43.28947 -30.26316,43.28947c-16.56854,0 21.9575,-33.80863 17.65491,-62.0416c-6.22027,-40.81653 12.60825,-9.80681 12.60825,18.75213z" fill="#9a99ff" stroke-width="0"/></g><path d="M385.23386,122.59337c5.78406,0 10.47297,12.82644 10.47297,28.64865c0,15.82221 -4.68891,28.64865 -10.47297,28.64865c-5.78406,0 -10.47297,-12.82644 -10.47297,-28.64865c0,-15.82221 4.68891,-28.64865 10.47297,-28.64865z" data-paper-data="{&quot;index&quot;:null}" fill="#000000" stroke="none" stroke-width="0" stroke-linecap="butt"/><g data-paper-data="{&quot;index&quot;:null}" stroke="#000000" stroke-linecap="butt"><path d="M344.51555,111.66687c4.24992,-9.74914 10.03298,-21.55405 25.74324,-21.55405c15.71026,0 18.17568,12.27019 22.5,21.41892c4.54481,9.61522 -6.92488,14.25676 -22.63514,14.25676c-15.71026,0 -30.06757,-3.89181 -25.60811,-14.12162z" fill="#a100fe" stroke-width="2"/><path d="M345.43982,111.31263c4.10501,-9.74914 9.69088,0.8269 24.86546,0.8269c15.17458,0 17.55594,-10.11076 21.73281,-0.96203c4.38984,9.61522 -6.68876,14.25676 -21.86334,14.25676c-15.17458,0 -29.04234,-3.89181 -24.73494,-14.12162z" fill="#99008e" stroke-width="0"/></g><path d="M391.63632,338.87004c0,11.6628 -14.51982,21.11737 -32.43092,21.11737c-17.9111,0 -32.43092,-9.45457 -32.43092,-21.11737c0,-2.33142 -0.03339,-13.76009 1.08979,-15.13837c4.49546,-5.51647 17.81784,5.26144 32.14847,5.26144c17.9111,0 31.62358,-1.78588 31.62358,9.87692z" fill="#000082" stroke="#000000" stroke-width="2" stroke-linecap="butt"/><path d="M389.75004,336.13774c0,6.30841 -13.89058,10.1901 -31.80169,10.1901c-17.9111,0 -30.16566,-2.95748 -30.16566,-9.26589c0,-1.26107 -0.03338,-12.52602 1.0898,-13.27153c4.49546,-2.98386 15.55258,5.7726 29.88321,5.7726c17.9111,0 30.99434,0.26631 30.99434,6.57472z" fill="#2e0048" stroke="#000000" stroke-width="0" stroke-linecap="butt"/><path d="M348.64938,338.2252c0,11.6628 -14.51982,21.11737 -32.43092,21.11737c-17.9111,0 -32.43092,-9.45457 -32.43092,-21.11737c0,-2.33142 -0.03339,-13.76009 1.08979,-15.13837c4.49546,-5.51647 17.81784,5.26144 32.14847,5.26144c17.9111,0 31.62358,-1.78588 31.62358,9.87692z" fill="#000082" stroke="#000000" stroke-width="2" stroke-linecap="butt"/><path d="M346.7631,335.49289c0,6.30841 -13.89058,10.1901 -31.80169,10.1901c-17.9111,0 -30.16566,-2.95748 -30.16566,-9.26589c0,-1.26107 -0.03338,-12.52602 1.0898,-13.27153c4.49546,-2.98386 15.55258,5.7726 29.88321,5.7726c17.9111,0 30.99434,0.26631 30.99434,6.57472z" fill="#2e0048" stroke="#000000" stroke-width="0" stroke-linecap="butt"/><g><path d="M290.12151,259.49796c-13.64858,-6.42956 -18.38675,-17.0484 -12.65804,-30.84302c4.48045,-10.78892 21.42031,-17.19712 35.06891,-10.76755c13.64866,6.42956 19.40893,19.91967 13.04348,33.43227c-0.99543,2.11311 -2.54126,3.76785 -3.93899,5.29238c-7.54025,8.22407 -20.00112,8.31004 -31.51534,2.88594z" fill="#485e84" stroke="#000000" stroke-width="2" stroke-linecap="butt"/><path d="M298.79,217.03166c0,0 -2.84491,5.00375 -1.90518,6.77301c9.01403,16.97118 21.24051,23.87997 25.45874,25.85641c0.95837,0.44905 1.89018,-0.17752 1.89018,-0.17752c0,0 -0.69501,1.99626 -2.37227,4.1644c-1.78474,2.30709 -4.63827,4.82924 -7.45843,6.05064c-3.22143,1.39515 -11.46731,2.62558 -11.46731,2.62558l-20.11189,-5.86264c0,0 -5.62647,-12.21875 -5.79872,-14.37913c-0.16877,-2.11646 0.23856,-4.66926 0.56241,-7.40094c0.50284,-4.24131 2.5697,-8.28296 4.54928,-10.37486c2.52643,-2.66971 6.65226,-4.84444 10.28493,-6.01326c3.38088,-1.0878 6.36821,-1.26156 6.36821,-1.26156z" fill="#343545" stroke="none" stroke-width="0" stroke-linecap="butt"/><path d="M290.55926,240.04088c0,0 2.07058,-8.78128 6.0639,-12.04219c5.05511,-4.12799 16.98611,-9.20278 16.98611,-9.20278" fill="none" stroke="#000000" stroke-width="1" stroke-linecap="round"/><path d="M327.03743,244.38365c0,0 -4.3425,5.68089 -7.69212,8.37381c-3.38157,2.71867 -12.60164,5.7424 -12.60164,5.7424" fill="none" stroke="#000000" stroke-width="1" stroke-linecap="round"/><path d="M279.72029,238.34586c0,0 1.99077,-9.04561 6.47697,-12.38072c6.88393,-5.11759 17.35609,-10.10052 17.35609,-10.10052" fill="none" stroke="#000000" stroke-width="1" stroke-linecap="round"/><path d="M282.20922,223.26599c0,0 16.90504,-3.70065 29.78695,8.02966c14.1105,12.84906 6.46587,28.31031 6.46587,28.31031" fill="none" stroke="#000000" stroke-width="1" stroke-linecap="round"/><path d="M277.03735,231.2633c0,0 17.77816,-0.89421 29.16766,9.43239c9.35181,8.4791 4.13081,22.10481 4.13081,22.10481" fill="none" stroke="#000000" stroke-width="1" stroke-linecap="round"/><path d="M320.75118,230.90791c-0.65944,-1.00615 -0.54827,-2.24496 0.24822,-2.76698c0.79649,-0.52209 1.2521,0.13091 1.91153,1.13706c0.65944,1.00615 1.27295,1.98441 0.47645,2.50645c-0.79649,0.52209 -1.97681,0.12962 -2.63619,-0.87652z" fill="#8fbbbe" stroke="none" stroke-width="0" stroke-linecap="butt"/><path d="M323.87143,237.47471c-0.54413,-0.25635 -0.67355,-1.12577 -0.28906,-1.94196c0.38449,-0.8162 0.65416,-1.09636 1.19829,-0.84005c0.54413,0.25635 0.83777,1.20313 0.45325,2.01931c-0.38449,0.8162 -0.81839,1.019 -1.3625,0.76268z" fill="#8fbbbe" stroke="none" stroke-width="0" stroke-linecap="butt"/><path d="M316.90504,225.15718c-0.7706,-0.4693 -1.14165,-1.26611 -0.82882,-1.77983c0.31278,-0.5137 0.95906,-0.05715 1.72965,0.4121c0.7706,0.4693 1.37372,0.77347 1.0609,1.28721c-0.31278,0.5137 -1.19115,0.54977 -1.96173,0.0805z" fill="#8fbbbe" stroke="none" stroke-width="0" stroke-linecap="butt"/><path d="M294.33607,217.54196c0,0 10.1698,1.12018 16.8615,4.67558c3.79385,2.01575 6.44173,5.10202 8.423,7.46438c1.75216,2.08912 3.6656,8.37915 4.62917,13.34602c0.70943,3.65683 0.71816,6.60079 0.71816,6.60079" fill="none" stroke="#000000" stroke-width="0.5" stroke-linecap="round"/><path d="M326.2124,229.9498c0,0 -4.86998,9.3841 -8.94154,12.93931c-3.43037,2.99536 -13.56702,7.15619 -13.56702,7.15619" fill="none" stroke="#000000" stroke-width="1" stroke-linecap="round"/><path d="M299.30967,246.16946c0,0 4.54781,-8.5291 7.61235,-11.85467c5.38074,-5.83906 15.10921,-9.54496 15.10921,-9.54496" fill="none" stroke="#000000" stroke-width="1" stroke-linecap="round"/></g><g stroke="#000000" stroke-linecap="butt"><path d="M277.99669,235.71656c24.43241,22.67986 23.34663,32.26507 17.84181,38.19527c-5.50483,5.93021 -29.77375,-7.64809 -54.20616,-30.32796c-24.4324,-22.67987 47.42322,-29.90889 52.92805,-35.83909c6.88596,-1.70639 6.23868,4.78812 1.14971,10.77631c-6.27589,7.38484 -19.80179,15.25689 -17.71341,17.19548z" fill="#216aff" stroke-width="2"/><path d="M304.57576,243.89601c10.48701,9.73477 10.89373,26.34655 0.90843,37.10344c-9.9853,10.75689 -26.58139,11.58549 -37.0684,1.85072c-10.48701,-9.73477 -10.89372,-26.34656 -0.90842,-37.10345c9.9853,-10.75689 26.58139,-11.58548 37.0684,-1.85071z" fill="#faddbf" stroke-width="2"/><path d="M268.98824,265.08034c10.48701,9.73477 46.12158,4.28933 36.13628,15.04622c-9.9853,10.75689 -26.58139,11.58549 -37.0684,1.85071c-10.48701,-9.73477 -9.5549,-26.63171 0.93211,-16.89693z" fill="#ef8b89" stroke-width="0"/></g><path d="M258.8993,169.03825l17.03302,11.24179" fill="none" stroke="#000000" stroke-width="2.5" stroke-linecap="round"/></g></g></svg>