<svg version="1.1" xmlns="http://www.w3.org/2000/svg" xmlns:xlink="http://www.w3.org/1999/xlink" width="230.88606" height="323.05324" viewBox="0,0,230.88606,323.05324"><g transform="translate(-195.33394,-37.93417)"><g data-paper-data="{&quot;isPaintingLayer&quot;:true}" fill-rule="nonzero" stroke-linecap="butt" stroke-linejoin="miter" stroke-miterlimit="10" stroke-dasharray="" stroke-dashoffset="0" style="mix-blend-mode: normal"><g data-paper-data="{&quot;index&quot;:null}" stroke="#000000"><path d="M350.23846,228.75236c1.7149,-2.27565 -12.98461,-7.64627 -20.46143,-13.8123c-6.06277,-4.99988 -7.84213,-11.27934 -0.76339,-10.81055c6.46195,4.86966 78.46897,-0.65092 58.40598,25.97229c-20.063,26.62321 -41.56572,44.25795 -48.02767,39.38828c-6.46195,-4.86966 -9.2165,-14.11453 10.8465,-40.73773z" fill="#216aff" stroke-width="2"/><path d="M362.32825,236.78149c11.72144,8.83317 14.24251,25.25757 5.63096,36.68492c-8.61155,11.42735 -25.0947,13.53035 -36.81614,4.69718c-11.72144,-8.83317 -14.2425,-25.25756 -5.63095,-36.68491c8.61155,-11.42735 25.09469,-13.53036 36.81613,-4.69719z" fill="#faddbf" stroke-width="2"/><path d="M368.15975,272.54383c-8.61154,11.42736 -25.09469,13.53036 -36.81613,4.69719c-11.72144,-8.83317 24.31541,-9.73949 32.92696,-21.16684c8.61155,-11.42737 12.50072,5.0423 3.88917,16.46965z" fill="#ef8b89" stroke-width="0"/></g><g stroke="#000000"><path d="M327.76518,340.83535v-95.29492h29.49199v95.29492z" fill="#73fffc" stroke-width="2"/><path d="M327.43943,340.21742l1.32626,-93.78573c0,0 5.20288,68.11227 6.3799,77.52842c0.2602,2.08162 2.52228,2.78987 2.52228,2.78987l18.60659,13.13896z" fill="#59a9e6" stroke-width="0"/></g><g stroke="#000000"><path d="M288.4238,338.4128v-95.29492h29.49199v95.29492z" fill="#73fffc" stroke-width="2"/><path d="M288.09805,337.7949l1.32626,-93.78573c0,0 5.20288,68.11227 6.3799,77.52842c0.2602,2.08162 2.52228,2.78987 2.52228,2.78987l18.60659,13.13896z" fill="#59a9e6" stroke-width="0"/></g><g stroke="#000000"><path d="M355.22917,235.69588c0,13.80271 10.04743,36.74388 4.95001,46.45977c-6.2338,11.88187 -28.61241,9.09579 -38.9397,9.09579c-13.66287,0 -32.94407,4.17018 -38.34426,-14.83216c-2.01935,-7.10576 4.35457,-32.37264 4.35457,-40.7234c0,-30.68249 15.2177,-55.55556 33.98969,-55.55556c18.77199,0 33.98969,24.87307 33.98969,55.55556z" fill="#216aff" stroke-width="2"/><path d="M303.96554,251.27246c0,13.80271 62.04198,20.54886 56.94455,30.26474c-6.2338,11.88186 -28.61241,9.09579 -38.9397,9.09579c-13.66287,0 -32.94406,4.17018 -38.34425,-14.83215c-2.01936,-7.10576 4.35457,-32.37265 4.35457,-40.7234c0,-9.45244 3.34855,-28.59801 5.51953,-29.96813c5.94391,-16.76415 10.4653,25.13995 10.4653,46.16315z" fill="#3236f4" stroke-width="0"/></g><g stroke="#000000"><g><path d="M244.55475,122.60328c2.12344,-46.74258 41.73717,-82.91355 88.47975,-80.79011c46.74258,2.12344 82.91355,41.73717 80.79011,88.47975c-2.12344,46.74258 -41.73717,82.91355 -88.47975,80.79011c-46.74258,-2.12344 -82.91355,-41.73717 -80.79011,-88.47975z" fill="#faddbf" stroke-width="2"/><path d="M244.82474,121.74514c0.68319,-15.03877 10.50951,-40.57604 15.15977,-43.58227c0.53107,-0.34332 6.18482,-8.63851 14.00239,-15.00683c9.7167,-7.91539 21.98059,-14.1735 22.58179,-13.94893c7.84383,2.92999 -20.4517,63.99272 -20.36176,89.31282c0.00021,0.06038 3.50882,19.8813 5.10572,20.39321c2.66731,4.86853 8.23233,19.5471 18.77839,27.1737c19.65384,14.21304 47.99832,21.88091 46.49361,22.3188c-2.407,0.70047 -14.91312,2.09441 -20.96979,1.81926c-46.74258,-2.12344 -82.91355,-41.73717 -80.79011,-88.47975z" fill="#ef8b89" stroke-width="0"/><path d="M413.32251,129.81144c-0.52753,11.61236 -2.28604,15.55299 -2.75349,13.67812c-0.47689,-1.91271 0.25887,-9.81198 -8.36846,-15.04452c-2.09057,-1.26795 -10.48054,5.80641 -13.14961,4.45575c-1.67648,-0.84838 -8.18145,-10.5577 -10.06248,-11.31988c-1.31518,-0.5329 -12.81747,7.80393 -14.19512,7.29024c-3.43592,-1.28119 -11.46001,-11.90589 -15.17749,-12.73346c-2.04711,-0.45572 -9.811,11.41629 -11.90632,11.067c-2.70219,-0.45046 -9.51056,-12.51293 -12.24513,-12.63715c-7.27235,-0.33037 -7.79023,6.66412 -13.29523,12.42646c-3.57728,3.74451 -13.38169,-13.67325 -16.70356,-9.38438c-4.12537,5.32626 -8.20289,10.45622 -12.60291,13.85968c-3.45197,2.67015 -12.89218,-10.69295 -15.88401,-8.20839c-14.44536,11.99616 -23.13748,19.61391 -22.31281,1.46081c1.65825,-36.5025 43.61578,-6.24057 86.33218,-25.84397c40.88771,-18.76418 83.98269,-5.56879 82.32445,30.93372z" fill="#ef8b89" stroke-width="0"/></g><path d="M415.23196,121.57872c-1.06571,23.45915 6.12946,9.00275 -11.41594,-1.37975c-2.14704,-1.27052 -10.7491,5.79421 -13.48995,4.44029c-1.72156,-0.85042 -8.40912,-10.56805 -10.34051,-11.33251c-1.35039,-0.5345 -13.14508,7.78905 -14.55955,7.27368c-3.52776,-1.28536 -11.77546,-11.92022 -15.59166,-12.75227c-2.10146,-0.45819 -10.05525,11.4052 -12.20608,11.05338c-2.77376,-0.45371 -9.77551,-12.52496 -12.58211,-12.65246c-7.46391,-0.33907 -7.98705,6.65518 -13.62987,12.41125c-3.66684,3.74044 -13.74977,-13.68997 -17.15385,-9.40484c-4.22745,5.32162 -8.40603,10.447 -12.91763,13.84538c-3.53952,2.66617 -13.24384,-10.70893 -16.31134,-8.2278c-14.81075,11.97956 -23.72226,19.58735 -22.8976,1.43424c1.65825,-36.5025 43.50913,-79.36423 89.38866,-77.28c45.87951,2.08423 85.36569,46.06891 83.70745,82.57142z" fill="#724e36" stroke-width="2"/><path d="M415.03725,120.40589c-1.06571,23.45915 6.12946,9.00275 -11.41594,-1.37975c-2.14704,-1.27052 -10.7491,5.79421 -13.48995,4.44029c-1.72156,-0.85042 -8.40912,-10.56805 -10.34052,-11.33251c-1.35039,-0.5345 -13.14508,7.78905 -14.55955,7.27368c-3.52776,-1.28536 -11.77546,-11.92022 -15.59166,-12.75227c-2.10146,-0.45819 -10.05525,11.4052 -12.20608,11.05338c-2.77376,-0.45371 -9.77551,-12.52496 -12.58211,-12.65246c-7.46391,-0.33907 -7.98705,6.65518 -13.62987,12.41125c-3.66684,3.74044 -13.74977,-13.68997 -17.15385,-9.40484c-4.22745,5.32162 -8.40603,10.447 -12.91764,13.84538c-3.53952,2.66617 -13.24384,-10.70893 -16.31134,-8.2278c-14.81075,11.97956 -23.72226,19.58735 -22.8976,1.43424c1.65825,-36.5025 44.75483,-6.18883 88.57068,-25.74228c41.9401,-18.71637 86.18365,-5.4688 84.52541,31.0337z" fill="#623728" stroke-width="0"/></g><g stroke="#000000"><path d="M346.96605,150.18163c-1.29605,28.52952 -15.11927,42.64727 -31.67074,41.89537c-16.55147,-0.7519 -29.56349,-16.08875 -28.26744,-44.61826c1.29605,-28.52952 15.76432,-51.04771 32.31579,-50.29581c16.55147,0.7519 28.91844,24.48918 27.62239,53.0187z" fill="#f0f0f0" stroke-width="2"/><path d="M301.14717,128.49756c-5.57941,28.00862 31.37265,63.53079 14.82118,62.77889c-16.55147,-0.7519 -29.56349,-16.08875 -28.26744,-44.61826c1.29605,-28.52952 21.51244,-58.65282 13.44626,-18.16063z" fill="#9a99ff" stroke-width="0"/></g><path d="M342.702,158.22967c-0.71804,15.80591 -5.9842,28.40634 -11.7623,28.14386c-5.7781,-0.26249 -9.8801,-13.2885 -9.16206,-29.09441c0.71804,-15.80591 5.9842,-28.40634 11.7623,-28.14386c5.7781,0.26249 9.8801,13.2885 9.16206,29.09441z" fill="#000000" stroke="none" stroke-width="0"/><g stroke="#000000"><path d="M343.32493,119.95057c3.99062,10.42165 -10.52851,13.65789 -26.22259,12.94494c-15.69407,-0.71295 -26.94131,-5.87022 -21.96483,-15.26929c4.73505,-8.94306 7.75477,-21.08872 23.44884,-20.37577c15.69407,0.71295 20.93545,12.76815 24.73856,22.70011z" fill="#a100fe" stroke-width="2"/><path d="M342.41769,119.55474c3.83872,10.41475 -10.19137,13.67321 -25.35032,12.98456c-15.15895,-0.68864 -26.01549,-5.82817 -21.19382,-15.23426c4.58775,-8.94975 6.50781,1.25866 21.66676,1.94731c15.15895,0.68864 21.21902,-9.623 24.87737,0.30238z" fill="#99008e" stroke-width="0"/></g><g data-paper-data="{&quot;index&quot;:null}" stroke="#000000"><path d="M383.07179,98.57784c16.55147,0.7519 28.91844,24.48918 27.62239,53.0187c-1.29605,28.52951 -15.64505,42.62339 -32.19652,41.87148c-16.55147,-0.7519 -29.03771,-16.06486 -27.74166,-44.59437c1.29605,-28.52952 15.76432,-51.04771 32.31579,-50.29581z" fill="#f0f0f0" stroke-width="2"/><path d="M410.09649,150.73826c-1.29605,28.52951 -15.64505,42.62339 -32.19652,41.87148c-16.55147,-0.7519 23.46916,-32.77733 20.45226,-61.17647c-4.36155,-41.05676 13.04031,-9.22453 11.74426,19.30499z" fill="#9a99ff" stroke-width="0"/></g><path d="M397.30366,131.86031c5.7781,0.26249 9.8801,13.2885 9.16206,29.09441c-0.71804,15.80591 -5.9842,28.40634 -11.7623,28.14386c-5.7781,-0.26249 -9.8801,-13.2885 -9.16206,-29.09441c0.71804,-15.80591 5.9842,-28.40634 11.7623,-28.14386z" data-paper-data="{&quot;index&quot;:null}" fill="#000000" stroke="none" stroke-width="0"/><g data-paper-data="{&quot;index&quot;:null}" stroke="#000000"><path d="M357.12316,119.09721c4.68797,-9.54623 11.0008,-21.07653 26.69487,-20.36358c15.69407,0.71295 17.60011,13.08239 21.5048,22.41794c4.10377,9.81156 -7.56474,13.92781 -23.25881,13.21486c-15.69407,-0.71295 -29.85998,-5.25231 -24.94087,-15.2692z" fill="#a100fe" stroke-width="2"/><path d="M358.06256,118.78528c4.54321,-9.5528 9.64337,1.26583 24.80232,1.95448c15.15895,0.68864 17.99669,-9.30363 21.75408,0.02523c3.94896,9.80453 -7.32886,13.93853 -22.48781,13.24988c-15.15895,-0.68864 -28.8358,-5.20578 -24.0686,-15.22958z" fill="#99008e" stroke-width="0"/></g><path d="M391.63632,338.87004c0,11.6628 -14.51982,21.11737 -32.43092,21.11737c-17.9111,0 -32.43092,-9.45457 -32.43092,-21.11737c0,-2.33142 -0.03339,-13.76009 1.08979,-15.13837c4.49546,-5.51647 17.81784,5.26144 32.14847,5.26144c17.9111,0 31.62358,-1.78588 31.62358,9.87692z" fill="#000082" stroke="#000000" stroke-width="2"/><path d="M389.75004,336.13774c0,6.30841 -13.89058,10.1901 -31.80169,10.1901c-17.9111,0 -30.16566,-2.95748 -30.16566,-9.26589c0,-1.26107 -0.03338,-12.52602 1.0898,-13.27153c4.49546,-2.98386 15.55258,5.7726 29.88321,5.7726c17.9111,0 30.99434,0.26631 30.99434,6.57472z" fill="#2e0048" stroke="#000000" stroke-width="0"/><path d="M348.64938,338.22521c0,11.6628 -14.51982,21.11737 -32.43092,21.11737c-17.9111,0 -32.43092,-9.45457 -32.43092,-21.11737c0,-2.33142 -0.03339,-13.76009 1.08979,-15.13837c4.49546,-5.51647 17.81784,5.26144 32.14847,5.26144c17.9111,0 31.62358,-1.78588 31.62358,9.87692z" fill="#000082" stroke="#000000" stroke-width="2"/><path d="M346.7631,335.49289c0,6.30841 -13.89058,10.1901 -31.80169,10.1901c-17.9111,0 -30.16566,-2.95748 -30.16566,-9.26589c0,-1.26107 -0.03338,-12.52602 1.0898,-13.27153c4.49546,-2.98386 15.55258,5.7726 29.88321,5.7726c17.9111,0 30.99434,0.26631 30.99434,6.57472z" fill="#2e0048" stroke="#000000" stroke-width="0"/><path d="M288.4241,177.57982c0.84287,0.92308 -0.08022,1.76595 -0.08022,1.76595l-0.10741,0.01122c-1.39344,2.49461 -2.66429,5.24118 -5.48264,6.46456c-2.9219,1.26833 -6.71895,0.0873 -7.25124,-3.28378c-0.71375,-4.5203 3.78845,-8.76638 5.99409,-12.18563c0,0 0.67818,-1.05002 1.72821,-0.37183c1.05002,0.67819 0.37184,1.72822 0.37184,1.72822c-1.86421,2.88286 -6.02678,6.6999 -5.61656,10.49528c0.18333,1.69619 2.49657,1.91688 3.80277,1.31398c2.22295,-1.02607 3.16421,-3.39533 4.27048,-5.37915l0.60472,-0.63903c0,0 0.92308,-0.84286 1.76594,0.08022z" fill="#000000" stroke="none" stroke-width="0.5"/><g stroke="none" stroke-width="1"><path d="M421.01413,285.11918c-2.8586,0.43371 -5.82422,0.78184 -8.67148,1.31218c-6.93813,1.20686 -13.97195,2.42474 -20.91011,3.6314c-5.51452,0.94159 -11.12469,1.89442 -16.63922,2.83601c-9.31842,1.58422 -18.63684,3.16845 -27.9439,4.84948c-7.32081,1.25158 -14.53461,2.58874 -21.84403,3.93733c-6.17282,1.11682 -12.45267,2.14826 -18.6255,3.26508c-9.79675,1.64037 -19.58214,3.37756 -29.37888,5.01793c-8.08612,1.34162 -16.27926,2.59764 -24.37676,3.84225c-2.66727,0.41125 -5.44156,0.73693 -8.20449,1.15941c-0.95665,0.1123 -1.75605,-0.0881 -2.51656,-0.78343c-0.32107,-0.25656 -0.54646,-0.52435 -0.86753,-0.78091c-2.59123,-2.24571 -4.9068,-4.62173 -7.30671,-6.8901c-6.34352,-6.12043 -12.77133,-12.1328 -19.11487,-18.25342c-2.52963,-2.54719 -5.14356,-4.98634 -7.57753,-7.54475c-3.43122,-3.61816 -6.8511,-7.13968 -10.36665,-10.64999c-0.98588,-0.96291 -1.67346,-1.86309 -1.16278,-3.29594c0.14589,-0.40953 -0.00655,-0.88198 0.03235,-1.37689c-0.04404,-4.50611 0.19888,-9.04611 0.54884,-13.50053c0.2722,-3.4644 0.37922,-3.37901 3.76638,-4.26697c4.70378,-1.23863 9.44163,-2.18699 14.17946,-3.13555c7.39376,-1.45643 14.69186,-2.90144 21.98994,-4.34665c7.29809,-1.44521 14.69186,-2.90145 21.98995,-4.34666c4.64216,-0.93733 9.39138,-1.78889 14.03354,-2.72621c2.08192,-0.4405 4.06819,-0.86977 6.16146,-1.21363c3.42124,-0.59772 6.85383,-1.09881 10.25237,-1.88996c4.53516,-1.02272 8.99736,-1.84078 13.54385,-2.76689c5.97013,-1.19117 12.03593,-2.39359 18.1131,-3.49916c7.02243,-1.3149 14.04489,-2.6296 21.06734,-3.9443c4.36652,-0.80682 8.84009,-1.52808 13.20663,-2.33489c4.46222,-0.81787 8.90169,-1.82955 13.36391,-2.64743c5.03619,-0.88543 10.16805,-1.78212 15.20424,-2.66755c1.05232,-0.12353 2.10463,-0.24707 3.15695,-0.37059c1.73335,-0.10533 3.0451,0.329 4.11051,1.96922c2.03515,3.29188 4.35727,6.54989 6.58373,9.81911c1.89404,2.91605 4.06372,5.70159 5.95779,8.61764c3.07781,4.73849 6.04862,9.39158 9.21074,14.02202c4.3459,6.45307 8.51184,13.02522 12.76208,19.48951c0.59188,0.91122 0.9811,1.74827 1.01036,2.82368c0.138,2.82794 0.26464,5.55907 0.40264,8.38701c0.09086,0.77393 0.08604,1.55909 -0.01444,2.35548c-0.18962,1.68941 0.12181,3.51629 -0.95149,5.11333c-1.50792,0.37331 -2.93155,0.63837 -4.1752,0.78436zM420.67653,279.76479c-3.65181,-4.67111 -7.02799,-9.47271 -10.40415,-14.27413c-2.65456,-3.61137 -5.12912,-7.34183 -7.69937,-11.06124c-3.28051,-4.81284 -6.45401,-9.54009 -9.72315,-14.25613c-1.84861,-2.52898 -3.79289,-5.04675 -5.64151,-7.57592c-1.66038,-0.09934 -8.22721,0.96578 -10.94472,1.77513c-0.15726,0.31271 -0.02752,0.59173 0.19788,0.85952c2.75022,3.60014 5.04482,7.44987 7.61505,11.16909c1.17243,1.72581 2.70478,3.21309 3.69725,5.05817c0.25945,0.55784 0.61459,1.10465 0.87406,1.66269c0.37786,0.74024 0.15898,1.35423 -0.46524,1.81991c-0.44426,0.3464 -0.99554,0.60721 -1.6652,0.68582c-5.10915,1.0901 -10.21829,2.18021 -15.35015,3.07688c-6.36416,1.13927 -12.62129,2.36414 -18.91248,3.29896c-4.2936,0.60197 -8.45743,1.48315 -12.72831,2.27875c-4.84488,0.86279 -9.68974,1.72576 -14.54594,2.49212c-5.43021,0.83354 -10.76477,1.65587 -16.18362,2.58622c-3.24126,0.47863 -6.55549,1.16173 -9.78538,1.7372c-4.28223,0.69879 -8.45743,1.48315 -12.73966,2.18195c-6.3755,1.04265 -12.75101,2.08532 -19.12654,3.12778c-5.89718,0.98651 -11.91271,1.7908 -17.8099,2.77733c-4.27086,0.7956 -8.6374,1.60243 -12.90829,2.39784c-0.3713,0.14173 -0.75395,0.18667 -1.13662,0.23158c-1.6036,0.38435 -2.7354,-0.16925 -3.93535,-1.30334c-4.55168,-4.07513 -8.76614,-8.58222 -13.13783,-12.77642c-2.83936,-2.70713 -2.83936,-2.70713 -6.52488,-1.8821c-3.97253,0.85853 -7.94503,1.71726 -11.90619,2.6726c-0.38266,0.04492 -0.75396,0.18666 -0.98418,0.70403c1.32969,1.4131 2.67072,2.92283 4.09607,4.32471c7.3862,7.56722 14.94103,14.91854 22.66448,22.05397c5.34626,5.06069 10.77682,10.01335 15.95446,15.28993c0.77185,0.79194 1.62803,1.47605 2.38853,2.17137c2.1387,0.04319 4.00661,-0.56829 6.00421,-0.90092c5.71722,-0.86724 11.42304,-1.83129 17.1289,-2.79533c5.41885,-0.93036 10.7534,-1.75268 16.17225,-2.68304c4.66489,-0.7437 9.24547,-1.37956 13.89899,-2.22008c8.54177,-1.59101 17.08349,-3.1822 25.63658,-4.67659c4.18657,-0.68756 8.37313,-1.37512 12.54833,-2.15948c6.74679,-1.18439 13.57793,-2.47663 20.42042,-3.67206c3.89955,-0.65406 7.71482,-1.19988 11.60302,-1.95057c9.21139,-1.66982 18.32713,-3.32838 27.57261,-4.70776c6.57818,-0.9685 13.04937,-2.02219 19.6162,-3.08732c2.66727,-0.41125 5.32319,-0.91912 8.17043,-1.44946c-0.43464,-1.22393 -1.2908,-1.90802 -2.00109,-3.00163zM258.31318,274.69834c-2.21991,-2.38725 -4.33283,-4.68931 -6.54139,-6.97994c-0.64211,-0.51292 -1.29562,-1.12285 -1.03785,-2.23176c1.18686,-0.62986 2.53754,-0.69027 3.78118,-0.83626c0.57399,-0.06738 1.00208,0.27476 1.43016,0.61671c1.10428,1.14531 2.30423,2.2794 3.40852,3.42473c1.22266,1.32752 2.46804,2.84866 3.69069,4.17619c0.65348,0.60973 1.30698,1.21967 1.96046,1.82941c0.79939,0.20041 1.46904,0.1218 2.10463,-0.24707c-0.06815,-0.5805 -0.50758,-1.01926 -0.83999,-1.37244c-2.20856,-2.29063 -4.31012,-4.49588 -6.42303,-6.79774c-0.55782,-0.62097 -1.19996,-1.13407 -1.03788,-2.23195c1.17553,-0.72629 2.63322,-0.70132 3.97252,-0.85854c0.66966,-0.07861 1.01344,0.37138 1.44154,0.71353c1.19996,1.13408 2.39989,2.26816 3.52688,3.60693c1.56643,1.77751 3.14422,3.65185 4.89065,5.31028c0.74914,0.59851 1.44153,0.71353 2.25709,0.22539c0.23022,-0.51738 -0.18652,-0.76271 -0.41191,-1.03049c-2.12424,-2.39849 -4.35553,-4.88274 -6.47978,-7.28121c-0.55784,-0.62116 -1.21131,-1.23089 -1.24057,-2.30632c1.23711,-1.02777 2.69481,-1.0028 4.24816,-0.98905c0.58536,0.02943 0.94047,0.57605 1.36857,0.91819c1.84208,1.6472 3.31285,3.43595 4.89065,5.31028c1.24537,1.52095 2.58641,3.03087 3.9388,4.63742c2.18894,-0.3551 4.27087,-0.7956 6.36416,-1.13928c0.32586,-0.52879 -0.11358,-0.96756 -0.33896,-1.23516c-1.34105,-1.50993 -2.76641,-2.91179 -4.10744,-4.42152c-0.99727,-1.05993 -1.99454,-2.11965 -2.9918,-3.17958c-0.43944,-0.43877 -0.79456,-0.98537 -0.69407,-1.78177c1.15279,-0.91993 2.61048,-0.89494 4.05684,-0.96658c0.47833,-0.05615 0.8221,0.39385 1.14316,0.65041c1.29562,1.12285 2.50691,2.35357 3.62255,3.5957c1.8032,2.14211 3.51072,4.29546 5.75815,6.09098c0.68102,0.0182 1.26638,0.04763 1.8906,-0.41804c-0.06812,-0.5803 -0.40055,-0.93368 -0.74433,-1.38367c-1.44806,-1.5953 -2.88477,-3.09399 -4.32146,-4.5925c-0.87888,-0.87752 -1.76913,-1.85187 -2.55234,-2.74064c-0.33244,-0.35337 -0.55783,-0.62116 -0.69891,-0.9968c-0.11837,-0.18221 -0.15244,-0.47245 -0.18652,-0.7627c1.2371,-1.02797 2.80182,-0.91741 4.33246,-1.09707c1.78531,1.16351 3.222,2.66202 4.57441,4.26874c1.80317,2.14193 3.60637,4.28404 5.75816,6.09098c1.93601,-0.03116 6.01557,-0.8041 7.59644,-1.38208c0.14592,-0.40932 -0.17516,-0.66589 -0.40056,-0.93368c-1.6621,-1.76628 -3.43121,-3.61816 -5.09334,-5.38463c-0.66485,-0.70655 -1.32969,-1.41311 -2.00587,-2.21629c-0.43944,-0.43877 -0.68755,-0.89999 -0.57573,-1.59976c1.15279,-0.91993 2.6105,-0.89475 4.05683,-0.96657c0.47833,-0.05615 0.8221,0.39384 1.14318,0.6504c1.18861,1.03746 2.29289,2.18278 3.40852,3.42473c1.34105,1.50993 2.57507,2.93425 3.90473,4.34717c0.3438,0.45018 0.8789,0.87772 1.31834,1.31649c0.77185,0.79194 1.62149,0.59425 2.51001,-0.09855c-1.18376,-1.82244 -2.81182,-3.29866 -4.25988,-4.89397c-1.44806,-1.5953 -3.16041,-2.9635 -4.17557,-5.00201c1.41709,-1.14705 2.87477,-1.12207 4.42816,-1.10812c0.39401,0.0517 0.83344,0.49047 1.1545,0.74701c1.18861,1.03746 2.29288,2.18278 3.40852,3.42472c1.23402,1.42434 2.45667,2.75186 3.69069,4.17619c0.43944,0.43877 0.8789,0.87773 1.31834,1.31649c0.67618,0.80316 1.45288,0.81014 2.26843,0.32201c0.23022,-0.51738 -0.00652,-0.88179 -0.33896,-1.23516c-1.44806,-1.5953 -2.88476,-3.0938 -4.32146,-4.5925c-0.99726,-1.05973 -1.98317,-2.02285 -2.88474,-3.09381c-0.54647,-0.52435 -0.54647,-0.52435 -0.60979,-1.89c1.10257,-0.52163 2.36891,-0.47419 3.60121,-0.717c0.66966,-0.07861 1.19342,0.25231 1.63286,0.69107c1.29562,1.12285 2.50693,2.35375 3.62255,3.5957c1.8032,2.14211 3.6064,4.28424 5.86521,6.17677c2.51,-0.09854 5.04753,-0.78881 7.51212,-1.27424c0.00482,-0.78516 -0.42326,-1.12711 -0.76703,-1.5771c-1.44808,-1.59551 -2.88478,-3.09399 -4.32149,-4.59268c-0.87888,-0.87752 -1.76912,-1.85187 -2.55233,-2.74062c-0.34378,-0.44999 -0.79459,-0.98557 -0.69411,-1.78196c1.15282,-0.91973 2.6105,-0.89475 4.05683,-0.96657c0.47833,-0.05615 0.8221,0.39384 1.14318,0.6504c1.29562,1.12285 2.49555,2.25694 3.62256,3.59588c1.79183,2.0453 3.51071,4.29527 5.75816,6.09099c0.58536,0.02943 1.27772,0.14425 1.90196,-0.32123c-0.06815,-0.5805 -0.40055,-0.93367 -0.74435,-1.38387c-1.44806,-1.5953 -2.88474,-3.09381 -4.32146,-4.59251c-0.87888,-0.87752 -1.76912,-1.85186 -2.55233,-2.74061c-0.43944,-0.43877 -0.79459,-0.98557 -0.78976,-1.77074c1.23711,-1.02777 2.69481,-1.00279 4.24817,-0.98903c0.39403,0.05189 0.83347,0.49065 1.15454,0.74721c1.37992,1.01481 2.49556,2.25694 3.62255,3.5957c1.8032,2.14211 3.6064,4.28424 5.86519,6.17658c1.72198,-0.20214 3.52827,-0.51214 5.33455,-0.82231c0.19615,-0.80762 -0.2433,-1.24638 -0.68273,-1.68514c-1.43669,-1.49849 -2.86204,-2.90037 -4.2031,-4.4103c-0.99726,-1.05973 -1.98317,-2.02284 -2.88474,-3.09381c-0.3438,-0.45018 -0.79458,-0.98557 -0.50277,-1.80442c1.18687,-0.62967 2.64455,-0.60469 3.98387,-0.7619c0.57399,-0.06738 1.01343,0.37138 1.34586,0.72475c1.19996,1.13408 2.30423,2.27939 3.41986,3.52135c1.99454,2.11965 3.71343,4.36982 5.97222,6.26217c0.5967,0.12605 1.15935,-0.03795 1.72198,-0.20214c0.07295,-0.20466 0.14592,-0.40933 0.13455,-0.50615c-0.16381,-0.56926 -0.59188,-0.91122 -0.93566,-1.36121c-2.20856,-2.29063 -4.31012,-4.49587 -6.42303,-6.79774c-0.55782,-0.62097 -1.19996,-1.13408 -1.03788,-2.23196c1.17553,-0.72629 2.63321,-0.70131 3.97253,-0.85853c0.57399,-0.06738 1.01343,0.37139 1.34584,0.72456c1.19996,1.13408 2.30425,2.27959 3.41988,3.52153c1.98317,2.02284 3.7134,4.36962 5.96085,6.16534c0.50106,0.13748 1.07505,0.0701 1.51931,-0.2763c0.21886,-0.61419 -0.13629,-1.16099 -0.57573,-1.59976c-1.32969,-1.4131 -2.65935,-2.82602 -3.98903,-4.23912c-0.98591,-0.96311 -1.88753,-2.03426 -2.87341,-2.99718c-0.54647,-0.52435 -0.90161,-1.07116 -0.81247,-1.96417c1.06847,-0.81207 2.52618,-0.7869 3.86551,-0.94412c0.66966,-0.07861 1.01343,0.37139 1.4415,0.71333c1.29562,1.12285 2.49556,2.25694 3.62255,3.5957c1.79185,2.0455 3.6064,4.28424 5.85384,6.07996c1.32795,-0.25404 2.76293,-0.42248 4.25952,-0.89223c-0.10221,-0.87075 -0.67139,-1.58853 -1.13354,-2.22072c-3.59022,-4.97259 -7.26475,-9.83731 -10.95064,-14.79866c-2.98833,0.1547 -5.80151,0.97527 -8.64874,1.50581c-3.13425,0.56404 -6.35279,1.23608 -9.4757,1.89674c-5.50315,1.0384 -10.99496,2.17343 -16.49811,3.21184c-3.51691,0.60895 -7.12948,1.22911 -10.63502,1.93488c-5.79017,1.07189 -11.47332,2.22938 -17.26346,3.30148c-3.50554,0.70576 -6.92679,1.30347 -10.44371,1.91242c-2.94292,0.54157 -5.87446,1.17994 -8.81737,1.7217c-3.21857,0.67188 -6.54413,1.25856 -9.77405,1.83381c-3.89957,0.65387 -7.69211,1.39332 -11.58032,2.144c-6.25713,1.22486 -12.51426,2.44973 -18.77139,3.6746c-5.39614,1.12379 -10.70796,2.13975 -16.11547,3.16672c-3.79253,0.73945 -7.59644,1.38209 -11.389,2.12153c-1.23228,0.2428 -2.47593,0.3888 -3.67417,0.92166c0.07949,0.67712 0.42329,1.12731 0.85136,1.46925c3.10363,2.47982 5.60574,5.61874 8.44506,8.32567c1.08157,0.95188 2.1745,2.00037 3.17175,3.06012c0.65351,0.60993 1.27291,0.92942 2.09982,0.5381c0.74261,-0.28327 1.50793,-0.37312 2.16623,-0.54854c0.03889,-0.49492 -0.19785,-0.85932 -0.42326,-1.12711c-1.43669,-1.49849 -2.86204,-2.90037 -4.2031,-4.41029c-0.99726,-1.05973 -1.98317,-2.02284 -2.88474,-3.09381c-0.3438,-0.45018 -0.78324,-0.88895 -0.59845,-1.79319c1.18687,-0.62967 2.63319,-0.70149 4.07953,-0.77313c0.47833,-0.05615 0.81073,0.29703 1.14318,0.6504c1.09291,1.0485 2.28153,2.08597 3.29014,3.24251c1.9102,2.22751 3.82043,4.45521 6.19759,6.52975c0.69239,0.11502 1.54201,-0.08287 2.38029,-0.37738c0.02752,-0.59173 -0.29354,-0.84829 -0.51896,-1.11608c-1.65073,-1.66948 -3.31284,-3.43595 -4.97494,-5.20224c-0.87888,-0.87752 -1.76913,-1.85186 -2.55234,-2.74063c-0.43944,-0.43877 -0.4508,-0.53558 -0.59842,-1.7932c1.18687,-0.62967 2.64456,-0.60469 3.98387,-0.7619c0.57399,-0.06738 1.01343,0.37139 1.34586,0.72476c1.19996,1.13408 2.39989,2.26816 3.41985,3.52134c1.58916,1.97114 3.44259,3.71497 5.21171,5.56684c0.66485,0.70655 1.36857,0.91819 2.31389,0.70927c1.04095,-0.22034 2.18893,-0.35511 3.22989,-0.57545c0.01617,-0.68835 -0.20922,-0.95613 0.17344,-1.00105zM374.73608,232.10008c1.12047,0.45697 2.24572,0.12858 3.17965,-0.17715c2.34622,-0.66762 4.66489,-0.7437 7.03382,-1.21788c0.287,-0.03369 0.57398,-0.06738 1.05231,-0.12353c0.26737,-2.67942 0.14074,-5.41056 0.21678,-8.06752c0.0647,-2.75359 0.33205,-5.43301 0.48106,-8.29464c-1.25502,0.04918 -2.22301,0.06486 -3.17966,0.17716c-4.01795,0.47166 -7.99048,1.33019 -11.96298,2.18891c-0.75398,0.18646 -1.61496,0.28753 -2.47595,0.3886c-2.95426,0.44494 -5.97014,1.19117 -9.00871,1.74416c-2.27326,0.46296 -4.55785,0.82928 -6.83111,1.29224c-4.16386,0.88099 -8.33906,1.66536 -12.60993,2.46095c-3.89957,0.65387 -7.88344,1.41578 -11.76028,2.26326c-2.94292,0.54157 -5.93125,0.69625 -8.81739,1.72151c-0.19133,0.02246 -0.28699,0.03369 -0.47833,0.05615c-3.70824,0.63141 -7.32082,1.25158 -10.93337,1.87194c-2.94292,0.54157 -5.97013,1.19117 -8.99735,1.84078c-0.19133,0.02246 -0.28699,0.03369 -0.47833,0.05615c-3.61257,0.62018 -7.33219,1.15477 -10.93339,1.87176c-2.75159,0.51911 -5.39614,1.12379 -8.14771,1.64309c-0.37132,0.14154 -0.65831,0.17523 -0.94531,0.20892c-3.89957,0.65387 -7.81049,1.21111 -11.59166,2.04737c-2.07058,0.53712 -4.19793,0.59074 -6.23442,1.41829c-0.17998,0.11908 -0.46698,0.15277 -0.65831,0.17523c-3.03856,0.55299 -6.0885,1.00897 -9.11572,1.65859c-2.74022,0.61592 -5.58747,1.14625 -8.33907,1.66536c-3.99521,0.66528 -7.96775,1.52382 -11.95161,2.28573c-4.27086,0.7956 -8.61469,1.79587 -12.90827,2.39802c-3.24128,0.47844 -6.43712,1.34394 -9.65567,2.01602c-3.02721,0.64962 -6.15011,1.31044 -9.16598,2.05668c-0.3713,0.14173 -0.74259,0.28347 -1.19821,0.53306c-0.17825,1.78622 -0.54783,3.59489 -0.52339,5.45547c0.01308,1.76376 -0.26083,3.56121 -0.24776,5.32497c0.02444,1.86057 -0.34515,3.66925 -0.11803,5.60399c1.08639,0.16671 2.02034,-0.13902 2.96563,-0.34813c2.26191,-0.55958 4.63084,-1.03395 6.88138,-1.69034c2.07056,-0.53731 4.25949,-0.89241 6.35278,-1.2361c0.66966,-0.07861 1.3166,-0.35064 2.05921,-0.63412c0.29181,-0.81885 0.27392,-1.79745 0.36307,-2.69047c0.1053,-1.58156 0.21059,-3.16311 0.42291,-4.65908c0.17342,-1.00126 0.66793,-1.74575 1.70888,-1.96609c0.46699,-0.15278 0.82693,-0.39112 1.30526,-0.44727c1.91331,-0.2246 3.80388,-0.64282 5.69448,-1.06086c3.69687,-0.72822 7.33215,-1.15496 10.92202,-1.96857c2.92019,-0.73519 5.89718,-0.98651 8.81737,-1.7217c2.16625,-0.54835 4.36655,-0.80663 6.54412,-1.25855c3.13425,-0.56404 6.25713,-1.22486 9.27301,-1.97109c0.19133,-0.02246 0.28699,-0.03369 0.47833,-0.05615c3.70824,-0.63141 7.33216,-1.15496 10.92201,-1.96876c2.54891,-0.59327 5.15458,-0.70305 7.66941,-1.58675c0.38266,-0.04492 0.66966,-0.07861 0.95666,-0.11231c3.55099,-0.3187 7.03382,-1.21788 10.4437,-1.91242c2.93155,-0.63838 6.12258,-0.71872 9.0087,-1.74416c0.37132,-0.14154 0.65831,-0.17524 0.94531,-0.20892c3.51691,-0.60895 7.04516,-1.12126 10.4437,-1.91242c2.54889,-0.59346 5.16593,-0.60642 7.66938,-1.58694c0.19133,-0.02246 0.47832,-0.05615 0.66966,-0.07861c3.51691,-0.60895 7.14083,-1.13251 10.64639,-1.83808c5.31182,-1.01594 10.51664,-2.11728 15.82845,-3.13322c2.94292,-0.54157 5.80154,-0.9751 8.63742,-1.60223c2.82453,-0.72395 5.71721,-0.86723 8.51902,-1.78463c0.19133,-0.02246 0.28699,-0.03369 0.47833,-0.05615c3.13425,-0.56404 6.1728,-1.11701 9.30705,-1.68104c0.38266,-0.04492 0.76532,-0.08984 1.24365,-0.14599c0.54336,2.97645 -0.28663,5.82007 0.127,8.51751zM372.71059,227.23806c-1.90196,0.32122 -3.89957,0.65387 -5.80152,0.97527c-3.02724,0.64942 -6.05446,1.29903 -9.09302,1.85201c-5.21618,1.00452 -10.4437,1.91242 -15.65988,2.91693c-5.02482,0.98225 -9.95401,1.95309 -14.97883,2.93534c-2.75159,0.51911 -5.59883,1.04944 -8.35042,1.56855c-5.87445,1.18013 -11.74892,2.36008 -17.63475,3.44322c-2.94292,0.54157 -5.88581,1.08332 -8.82873,1.62489c-5.12051,0.99329 -10.24101,1.98677 -15.36152,2.98006c-2.65592,0.50788 -5.31183,1.01594 -7.96774,1.52381c-5.77881,1.16871 -11.46195,2.32621 -17.25209,3.39829c-5.02484,0.98206 -10.15671,1.87874 -15.18154,2.86079c-5.02482,0.98225 -10.14535,1.97554 -15.17016,2.9578c-0.19133,0.02246 -0.37131,0.14155 -0.74261,0.28327c-0.13282,2.17329 -0.45699,4.36883 -0.37576,6.71308c1.54201,-0.08287 2.86996,-0.3369 4.19791,-0.59093c3.88822,-0.75049 7.87211,-1.5124 11.76031,-2.26308c6.83112,-1.29224 13.74654,-2.69253 20.56631,-4.08158c5.97013,-1.19117 11.95165,-2.28554 17.92177,-3.47671c6.83112,-1.29224 13.56657,-2.57326 20.39767,-3.86569c3.21857,-0.67188 6.54413,-1.25856 9.77405,-1.83381c5.31184,-1.01575 10.528,-2.02046 15.83984,-3.03621c3.13423,-0.56422 6.1728,-1.11701 9.30705,-1.68104c4.07953,-0.77313 8.25474,-1.55751 12.42994,-2.34186c6.83112,-1.29224 13.56658,-2.57325 20.39771,-3.8655c2.75159,-0.51911 5.4075,-1.02699 8.15907,-1.54628c0.65831,-0.17523 1.30526,-0.44728 2.05923,-0.63394c-0.66657,-2.37349 -0.0327,-4.40949 -0.41226,-6.81668zM423.46702,278.75077c0.04196,-2.94721 0.08395,-5.89424 0.12592,-8.84145c0.08259,-1.77499 -0.67312,-3.25547 -1.53582,-4.82136c-2.69515,-4.78341 -6.02592,-9.19814 -8.90104,-13.86228c-1.55027,-2.46605 -3.28051,-4.81284 -5.02211,-7.25643c-4.41883,-6.24821 -8.65774,-12.61589 -12.8123,-19.09122c-1.77567,-2.73384 -3.63566,-5.35965 -5.41131,-8.09329c-0.21406,-0.17117 -0.43943,-0.43877 -0.77187,-0.79214c-0.30318,0.72204 -0.43773,1.22818 -0.46525,1.8199c-0.09221,3.34531 0.01826,6.76499 -0.37231,10.04718c-0.22848,2.18452 0.53856,3.76161 1.78394,5.28277c5.91716,7.44542 10.92309,15.39021 16.30033,23.19326c5.15183,7.53526 10.29232,14.9739 15.89977,22.25958c0.2254,0.26779 0.54647,0.52435 0.89024,0.97434c0.25293,-0.32394 0.33723,-0.43198 0.29181,-0.81885z" data-paper-data="{&quot;index&quot;:null}" fill="#000000"/><path d="M414.52988,284.40932c-6.56683,1.06512 -13.038,2.11901 -19.6162,3.08733c-9.24546,1.37956 -18.36122,3.03794 -27.57261,4.70776c-3.89957,0.65387 -7.70345,1.29669 -11.60302,1.95055c-6.74682,1.1842 -13.57795,2.47645 -20.42042,3.67206c-4.18657,0.68756 -8.37313,1.37512 -12.54833,2.15948c-8.54174,1.5912 -17.08347,3.1824 -25.63657,4.67678c-4.66489,0.7437 -9.23412,1.47618 -13.89901,2.21989c-5.41885,0.93036 -10.75338,1.75286 -16.17225,2.68304c-5.70585,0.96404 -11.41169,1.92809 -17.1289,2.79533c-1.9976,0.33265 -3.96117,0.95535 -6.00419,0.90112c-0.7605,-0.69532 -1.61668,-1.37941 -2.38855,-2.17155c-5.17764,-5.27659 -10.51253,-10.24047 -15.95446,-15.28993c-7.72346,-7.13543 -15.28963,-14.58338 -22.66449,-22.05398c-1.42535,-1.40187 -2.76638,-2.9116 -4.09607,-4.32471c0.23022,-0.51738 0.60152,-0.65911 0.98418,-0.70403c3.97253,-0.85853 7.93369,-1.81387 11.90619,-2.6726c3.68553,-0.82485 3.68554,-0.82484 6.52487,1.8821c4.46738,4.18317 8.58616,8.7013 13.13783,12.77642c1.29562,1.12285 2.33175,1.68768 3.93535,1.30334c0.37132,-0.14154 0.75398,-0.18646 1.13664,-0.23138c4.27086,-0.7956 8.62604,-1.69924 12.90827,-2.39802c5.89718,-0.98651 11.91274,-1.79062 17.80992,-2.77712c6.3755,-1.04265 12.75101,-2.08533 19.12651,-3.12798c4.28223,-0.69879 8.46879,-1.38634 12.73966,-2.18195c3.22991,-0.57526 6.55546,-1.16193 9.78538,-1.73719c5.43021,-0.83354 10.76477,-1.65587 16.18362,-2.58622c4.85622,-0.76616 9.70109,-1.62915 14.54594,-2.49212c4.28223,-0.69879 8.43473,-1.67659 12.72831,-2.27875c6.38687,-0.94584 12.64399,-2.17071 18.91248,-3.29896c5.12051,-0.99329 10.22966,-2.08339 15.35015,-3.07688c0.56263,-0.16419 1.12528,-0.3282 1.6652,-0.68582c0.62425,-0.46548 0.84309,-1.07967 0.46524,-1.81992c-0.25947,-0.55804 -0.61461,-1.10484 -0.87406,-1.66269c-0.99246,-1.84508 -2.52483,-3.33234 -3.69725,-5.05817c-2.57022,-3.71923 -4.86484,-7.56895 -7.61505,-11.16909c-0.2254,-0.26779 -0.35514,-0.5468 -0.19785,-0.85932c2.7175,-0.80954 9.28434,-1.87448 10.9447,-1.77533c1.83727,2.43237 3.78155,4.95013 5.64151,7.57592c3.26917,4.71622 6.45401,9.54009 9.72315,14.25613c2.57025,3.71941 5.12912,7.34183 7.69937,11.06124c3.37617,4.8016 6.75233,9.60302 10.40415,14.27413c0.67621,0.80337 1.54375,1.58428 1.97837,2.8082c-2.84725,0.53034 -5.50318,1.0382 -8.14773,1.64289zM346.81602,281.76618c-2.51345,-3.23554 -5.11123,-6.36323 -7.3604,-9.82589c-0.35515,-0.54681 -0.80594,-1.08239 -1.07676,-1.73704c-0.38919,-0.83686 -0.99726,-1.05972 -1.85825,-0.95866c-1.14799,0.13476 -2.39163,0.28075 -3.62394,0.52336c-0.57399,0.06738 -1.23228,0.2428 -1.80628,0.31018c-6.9495,1.11003 -14.01738,2.03768 -20.95551,3.24453c-5.33455,0.82231 -10.57343,1.6334 -15.85119,2.93959c-3.58986,0.81361 -7.19109,1.5306 -10.79229,2.24758c-0.75398,0.18646 -1.61496,0.28754 -2.13216,0.83879c-0.41021,0.63646 -0.06643,1.08645 0.17033,1.45105c0.90814,1.95293 2.45186,3.53701 3.71995,5.2516c1.96699,2.71119 4.02965,5.41135 6.18796,8.10008c1.83727,2.43237 3.86587,4.84227 5.9674,7.04732c0.60806,0.22286 1.26636,0.04744 1.84035,-0.01994c4.85622,-0.76616 9.7238,-1.43571 14.58002,-2.20187c5.23889,-0.81108 10.57344,-1.6334 15.90799,-2.45572c4.09088,-0.67652 8.18178,-1.35284 12.27268,-2.02916c2.75159,-0.51911 5.43021,-0.83356 8.19314,-1.25604c0.84963,-0.19789 1.6036,-0.38435 2.45323,-0.58224c0.47833,-0.05615 0.71991,-0.47671 0.93877,-1.0909c-2.22646,-3.26923 -4.37997,-6.74332 -6.77506,-9.79665zM225.29902,280.14302c-3.27878,-3.14571 -6.12466,-6.73461 -9.23481,-10.09621c-0.90161,-1.07116 -1.79667,-1.26034 -3.01759,-0.92071c-1.02961,0.31697 -2.08193,0.4405 -3.1229,0.66065c-0.94529,0.20911 -1.79491,0.407 -2.39644,1.06591c-0.11182,0.69977 0.32762,1.13854 0.66003,1.49171c3.19447,3.25374 6.38894,6.50749 9.58342,9.76122c1.10428,1.14531 2.33175,1.68767 3.924,1.20652c1.30526,-0.44728 2.74024,-0.61573 4.06819,-0.86976c0.287,-0.03369 0.56263,-0.16419 0.79285,-0.68157c-0.17515,-0.66589 -0.72162,-1.19024 -1.25672,-1.61777zM263.9547,282.27426c-1.65383,0.78265 -2.14179,2.40912 -1.36338,4.08303c1.39299,2.77857 6.4925,3.25879 8.34732,0.88356c1.43325,-1.83559 0.63695,-4.48811 -1.59261,-5.30523c-0.90642,-0.28599 -1.90849,-0.56055 -2.94945,-0.34023c-0.77669,-0.00697 -1.61496,0.28753 -2.44189,0.67885zM269.68707,290.62412c-1.09121,0.61844 -1.55164,1.65319 -1.40401,2.91081c0.14763,1.25761 1.27464,2.59656 2.46804,2.84867c1.68309,0.29277 3.34347,0.39211 4.8903,-0.47591c0.17997,-0.11928 0.45558,-0.24978 0.71989,-0.47691c1.57434,-1.45976 1.43154,-3.50254 -0.36511,-4.76267c-0.95183,-0.67286 -2.55062,-1.07368 -3.9856,-0.90523c-0.87234,0.00445 -1.59224,0.48116 -2.32349,0.86126zM236.62575,294.0148c1.51928,-0.27649 2.75641,-1.30427 2.90712,-2.49895c0.18962,-1.68941 -0.88714,-3.42645 -2.59295,-3.91267c-1.71716,-0.58302 -3.32076,-0.19868 -4.67626,0.6469c-2.07538,1.32248 -1.97146,3.86017 0.02789,5.19466c0.94048,0.57605 2.22956,0.81711 3.76021,0.63744c0.19133,-0.02246 0.38265,-0.04492 0.57399,-0.06738zM247.69986,286.73228c-0.75878,0.97181 -0.76359,1.75698 -0.0647,2.75359c1.6346,2.3582 5.75472,2.7571 7.75062,0.7575c1.31006,-1.23263 1.22403,-2.79173 -0.08294,-4.01121c-1.19996,-1.13408 -2.6074,-1.55735 -4.21102,-1.17301c-1.4577,-0.02499 -2.53753,0.69028 -3.39199,1.67313zM252.09672,304.35965c-1.60532,-1.2826 -4.31801,-1.25841 -6.02209,-0.07748c-1.60842,1.16951 -1.56126,3.22352 -0.05161,4.51734c1.41398,1.30506 5.28603,1.24293 6.52314,0.21496c0.80422,-0.58476 1.09601,-1.4036 0.9484,-2.66122c-0.09086,-0.77393 -0.74433,-1.38367 -1.39783,-1.9936zM237.82743,296.81582c-0.97281,0.80085 -1.20784,2.10337 -0.50893,3.10018c2.10809,3.08702 6.6384,2.84927 8.29053,0.39969c0.83172,-1.17649 0.43599,-2.89533 -0.71852,-3.64234c-1.04749,-0.66163 -3.04032,-1.11435 -4.66664,-0.92343c-0.66966,0.07861 -1.61495,0.28773 -2.39644,1.06592zM275.39192,299.56571c-1.03443,1.10213 -0.95975,2.56441 0.03749,3.62414c0.43944,0.43877 0.97456,0.86649 1.57127,0.99254c1.30043,0.33769 2.66245,0.37391 4.07473,0.01203c0.56263,-0.16419 1.10255,-0.52182 1.53546,-0.96484c1.63595,-1.76123 0.93531,-4.42498 -1.45151,-4.92939c-1.00208,-0.27476 -1.95874,-0.16246 -3.03377,-0.23237c-0.93394,0.30574 -1.9522,0.71952 -2.73367,1.49789zM259.78231,302.08455c-0.93876,1.09089 -1.00517,2.17754 -0.09221,3.34531c0.2254,0.26779 0.55782,0.62097 0.86752,0.78071c1.54856,0.79911 3.23165,1.09188 4.90819,0.50268c0.64695,-0.27204 1.0912,-0.61844 1.5241,-1.06146c1.10736,-1.30698 1.16243,-2.49024 -0.04888,-3.72115c-1.10428,-1.14531 -2.41607,-1.57982 -3.83968,-1.31457c-1.35068,0.06041 -2.38027,0.37756 -3.31902,1.46847zM260.91547,298.51889c1.43979,-0.95361 1.52238,-2.7286 0.31106,-3.95951c-1.65073,-1.66948 -4.6002,-2.00989 -6.59126,-0.79526c-1.90677,1.10638 -2.03959,3.27967 -0.32725,4.64785c1.28425,1.02604 2.58468,1.36374 4.10398,1.08745c0.95665,-0.1123 1.79492,-0.407 2.50346,-0.98051zM350.4881,273.3912c2.39163,-0.28075 4.6876,-0.55027 7.05653,-1.02445c0.84963,-0.19789 1.63767,-0.0941 2.46459,-0.48542c0.64692,-0.27225 0.99553,-0.60722 1.0117,-1.29576c-0.55782,-0.62097 -1.32314,-0.53112 -1.99279,-0.45251c-2.96563,0.34813 -5.82422,0.78184 -8.66013,1.4088c-0.75395,0.18666 -1.50792,0.37331 -1.78839,1.28878c0.47352,0.72901 1.15454,0.74721 1.90849,0.56056zM379.70181,271.92323c-2.96563,0.34813 -5.82422,0.78184 -8.66011,1.409c-0.75395,0.18666 -1.50793,0.37312 -1.78838,1.28878c0.47352,0.72901 1.15451,0.74702 1.82417,0.6684c2.39163,-0.28075 4.6876,-0.55026 7.05653,-1.02445c0.84963,-0.19789 1.63767,-0.0941 2.46459,-0.48542c0.64695,-0.27204 0.99553,-0.60721 1.01169,-1.29575c-0.55782,-0.62097 -1.23883,-0.63918 -1.90849,-0.56056zM401.69864,274.24475c-3.01585,0.74642 -6.09985,0.91235 -8.99735,1.84078c-0.56263,0.16419 -1.02959,0.31716 -1.15279,0.91993c0.05678,0.48368 0.45081,0.53557 0.85617,0.68409c0.60806,0.22286 1.26636,0.04744 1.84035,-0.01994c2.56025,-0.49665 5.21618,-1.00452 7.88343,-1.41577c0.57399,-0.06738 1.12528,-0.3282 1.6652,-0.68582c0.35995,-0.23836 0.41021,-0.63646 0.25774,-1.10911c-0.81073,-0.29703 -1.61014,-0.49744 -2.35275,-0.21416zM376.34836,267.31525c-2.92021,0.735 -5.90854,0.88969 -8.80603,1.81833c-0.56263,0.16419 -1.13662,0.23158 -1.23713,1.02778c0.16381,0.56926 0.74917,0.5987 1.14318,0.6504c0.77669,0.00697 1.55339,0.01394 2.30734,-0.17272c2.07056,-0.53731 4.27086,-0.7956 6.36416,-1.13927c0.84963,-0.19789 1.71062,-0.29895 2.4305,-0.77585c0.35995,-0.23836 0.61289,-0.56229 0.43773,-1.22819c-0.81073,-0.29703 -1.61014,-0.49744 -2.63975,-0.18048zM353.78961,276.73051c-0.37132,0.14154 -0.83827,0.29451 -1.18687,0.62967c-0.26429,0.22713 -0.32589,0.52861 -0.19615,0.80762c0.11837,0.18221 0.34378,0.45 0.53511,0.42754c0.39401,0.0517 0.88369,0.09237 1.35066,-0.06061c2.35758,-0.57081 4.64219,-0.93715 7.02245,-1.31471c1.04098,-0.22016 2.07056,-0.53731 2.97044,-1.1333c0.27566,-0.13031 0.43292,-0.44302 0.39884,-0.73326c-0.03408,-0.29024 -0.35514,-0.54681 -0.64214,-0.51312c-0.57399,0.06738 -1.06366,0.02691 -1.73332,0.10552c-2.75159,0.51911 -5.58747,1.14625 -8.51902,1.78463zM404.70353,279.18809c-1.24365,0.14599 -2.39164,0.28075 -3.62395,0.52337c-1.61495,0.28772 -3.32555,0.58667 -4.92915,0.97102c-0.65831,0.17523 -1.22094,0.33942 -1.77223,0.60024c-0.27563,0.13051 -0.53993,0.35763 -0.49448,0.7447c0.04541,0.38687 0.35511,0.54662 0.65348,0.60974c0.39403,0.05189 0.78804,0.1036 1.1707,0.05867c3.14561,-0.46721 6.37549,-1.04265 9.50975,-1.60669c0.57399,-0.06738 1.12527,-0.32819 1.41709,-1.14704c-0.47352,-0.72901 -1.25019,-0.73599 -1.9312,-0.75401zM384.32818,277.46083c-1.24365,0.14599 -2.39164,0.28075 -3.62395,0.52337c-1.71061,0.29895 -3.40988,0.69452 -5.10912,1.09029c-0.56265,0.164 -1.11393,0.42482 -1.6652,0.68583c-0.08432,0.10785 -0.24158,0.42056 -0.21887,0.614c0.01137,0.09681 0.23676,0.3646 0.43943,0.43877c0.5124,0.23409 0.99072,0.17795 1.56471,0.11057c1.24365,-0.14599 2.58296,-0.30321 3.81528,-0.54582c1.62632,-0.19092 3.13422,-0.56422 4.74919,-0.85175c0.84963,-0.19789 1.69927,-0.39557 2.17105,-1.3337c-0.59188,-0.91122 -1.26153,-0.83261 -2.12253,-0.73153zM394.89435,263.37288c-1.24365,0.14599 -2.39163,0.28075 -3.62394,0.52336c-1.69924,0.39578 -3.40988,0.69453 -5.10913,1.0903c-0.46699,0.15278 -1.01826,0.41359 -1.48524,0.56655c-0.27563,0.13051 -0.53993,0.35763 -0.4945,0.74449c0.04543,0.38707 0.35514,0.54681 0.6535,0.60993c0.48967,0.04047 1.07502,0.0699 1.55336,0.01376c1.62632,-0.19092 3.33692,-0.48986 4.94053,-0.87421c1.22094,-0.33943 2.38027,-0.37757 3.61257,-0.62018c0.95665,-0.1123 0.94529,-0.20911 1.99108,-1.21442c-0.58054,-0.81459 -1.2502,-0.73599 -2.03823,-0.83958zM389.03334,272.10297c1.53065,-0.17969 3.06128,-0.35937 4.58056,-0.63585c1.43499,-0.16845 2.94292,-0.54157 4.4622,-0.81805c1.04095,-0.22034 1.04096,-0.22035 2.09808,-1.12904c0.02754,-0.59153 -0.37782,-0.74005 -0.86751,-0.78071c-0.58536,-0.02943 -1.15935,0.03795 -1.63768,0.09409c-2.65589,0.50806 -5.40748,1.02717 -8.0634,1.53505c-0.76532,0.08984 -1.51928,0.27649 -2.10945,1.03222c0.30488,0.9449 0.98592,0.96312 1.5372,0.7023zM361.20852,288.70724c2.75156,-0.51929 5.59881,-1.04963 8.35041,-1.56874c0.75395,-0.18666 1.49657,-0.46993 2.12082,-0.93541c0.35993,-0.23855 0.41018,-0.63665 0.26907,-1.01248c-0.52374,-0.33071 -1.09772,-0.26334 -1.57605,-0.20718c-2.94292,0.54157 -5.88583,1.08313 -8.8174,1.72151c-0.56263,0.16419 -1.01824,0.41377 -1.47387,0.66336c-0.55126,0.26102 -0.49448,0.74469 -0.24637,1.20592c0.42808,0.34194 0.91776,0.38262 1.37338,0.13303zM378.78168,285.56551c2.5716,-0.40002 5.14322,-0.79985 7.71482,-1.19988c0.86098,-0.10108 1.51927,-0.27649 2.13215,-0.83878c0.26429,-0.22713 0.42155,-0.53984 0.19616,-0.80763c-0.11837,-0.18221 -0.34378,-0.44999 -0.53511,-0.42754c-0.39401,-0.0517 -0.88369,-0.09237 -1.36202,-0.03621c-2.5716,0.40002 -5.15457,0.70323 -7.72618,1.10306c-0.76532,0.08984 -1.50794,0.37312 -2.14353,0.74198c-0.27563,0.13051 -0.43288,0.44321 -0.47178,0.93813c0.7378,0.50188 1.41881,0.51989 2.19549,0.52687zM357.9896,283.59292c2.53754,-0.69027 5.23889,-0.81109 7.90615,-1.22234c0.75395,-0.18666 1.51927,-0.2765 2.02514,-0.92418c0.08431,-0.10804 0.1459,-0.40952 0.12319,-0.60296c-0.02271,-0.19344 -0.23675,-0.36441 -0.43944,-0.43877c-0.4897,-0.04067 -0.88369,-0.09237 -1.36202,-0.03621c-2.66728,0.41106 -5.25025,0.71428 -7.91752,1.12553c-0.94529,0.20911 -1.98626,0.42927 -2.62666,1.58329c0.85617,0.68409 1.54854,0.79891 2.29115,0.51564z" data-paper-data="{&quot;index&quot;:null}" fill="#216aff"/><path d="M254.19475,275.96639c-0.94529,0.20911 -1.64902,-0.00252 -2.31386,-0.70907c-1.75775,-1.75505 -3.52687,-3.60693 -5.21171,-5.56684c-1.11564,-1.24212 -2.21993,-2.38745 -3.41989,-3.52153c-0.33241,-0.35318 -0.77185,-0.79194 -1.34584,-0.72456c-1.35068,0.06041 -2.70134,0.12102 -3.98387,0.7619c0.25464,1.34301 0.15897,1.35424 0.59842,1.793c0.89024,0.97435 1.67346,1.86309 2.55233,2.74061c1.65075,1.66966 3.31287,3.43615 4.97497,5.20243c0.32107,0.25656 0.64214,0.51312 0.51893,1.11588c-0.83825,0.2947 -1.68791,0.4924 -2.38027,0.37757c-2.36582,-1.97792 -4.19173,-4.31347 -6.19762,-6.52995c-1.00862,-1.15655 -2.1972,-2.19381 -3.29014,-3.24251c-0.33241,-0.35318 -0.66485,-0.70655 -1.14318,-0.6504c-1.44633,0.07184 -2.89266,0.14346 -4.07953,0.77312c-0.19615,0.80762 0.15899,1.35443 0.59843,1.7932c0.99726,1.05973 1.89886,2.13088 2.88477,3.094c1.43669,1.49849 2.76638,2.9116 4.2031,4.41029c0.32105,0.25636 0.46215,0.63221 0.42327,1.12711c-0.75395,0.18666 -1.51928,0.27649 -2.16623,0.54853c-0.92258,0.40255 -1.54201,0.08286 -2.09982,-0.5381c-1.09294,-1.0487 -2.07883,-2.01161 -3.17177,-3.0603c-2.75504,-2.81498 -5.34145,-5.84585 -8.44505,-8.32548c-0.4281,-0.34214 -0.77186,-0.79214 -0.85135,-1.46925c1.10255,-0.52182 2.44186,-0.67905 3.67417,-0.92166c3.79253,-0.73945 7.59643,-1.38228 11.389,-2.12153c5.40748,-1.02717 10.70796,-2.13975 16.11547,-3.16672c6.25713,-1.22486 12.51425,-2.44992 18.77137,-3.67478c3.88821,-0.75067 7.69211,-1.39332 11.58032,-2.144c3.21857,-0.67188 6.54412,-1.25855 9.77404,-1.8338c2.94292,-0.54157 5.87445,-1.17994 8.81739,-1.72151c3.50554,-0.70576 6.92679,-1.30347 10.44368,-1.91261c5.79017,-1.07189 11.47331,-2.22938 17.26345,-3.30147c3.51691,-0.60895 7.12948,-1.22912 10.63502,-1.93488c5.50318,-1.03821 10.99495,-2.17343 16.49813,-3.21164c3.12289,-0.66084 6.34144,-1.33291 9.47568,-1.89693c2.8586,-0.43371 5.66044,-1.35092 8.64876,-1.50561c3.68588,4.96136 7.36039,9.82589 10.95061,14.79848c0.46218,0.63239 1.01998,1.25336 1.13354,2.22072c-1.48522,0.56674 -2.93155,0.63838 -4.25949,0.89241c-2.24745,-1.79572 -4.05066,-3.93785 -5.85384,-6.07996c-1.11564,-1.24212 -2.32694,-2.47284 -3.62255,-3.5957c-0.4281,-0.34214 -0.86753,-0.78091 -1.44153,-0.71353c-1.33931,0.15722 -2.70133,0.12101 -3.86551,0.94412c-0.08913,0.89321 0.36166,1.42859 0.81246,1.96417c0.98591,0.96311 1.8875,2.03408 2.87341,2.99718c1.32969,1.4131 2.65937,2.82621 3.98906,4.23932c0.34378,0.44999 0.78321,0.88875 0.57571,1.59956c-0.44426,0.3464 -1.01824,0.41378 -1.51928,0.2765c-2.24745,-1.79572 -4.06198,-4.03446 -5.96085,-6.16534c-1.11564,-1.24212 -2.21993,-2.38744 -3.41988,-3.52152c-0.33241,-0.35318 -0.77187,-0.79214 -1.34586,-0.72476c-1.33931,0.15722 -2.68997,0.21783 -3.9725,0.85873c-0.17345,1.00106 0.48004,1.6108 1.03788,2.23196c2.20856,2.29063 4.32146,4.59251 6.42301,6.79754c0.43944,0.43877 0.77186,0.79214 0.93568,1.3614c0.01134,0.09662 -0.06161,0.30128 -0.13455,0.50615c-0.56265,0.164 -1.12528,0.3282 -1.72198,0.20214c-2.25882,-1.89252 -4.07335,-4.13127 -5.97222,-6.26216c-1.11564,-1.24212 -2.21993,-2.38745 -3.41989,-3.52153c-0.33241,-0.35318 -0.77185,-0.79194 -1.34584,-0.72456c-1.44634,0.07164 -2.79701,0.13204 -3.98388,0.76172c-0.29181,0.81885 0.06333,1.36566 0.50278,1.80442c0.99727,1.05993 1.89886,2.13088 2.88477,3.094c1.43669,1.49849 2.86204,2.90037 4.20309,4.4103c0.34378,0.44999 0.87889,0.87752 0.68274,1.68515c-1.81764,0.21337 -3.62394,0.52337 -5.33455,0.82231c-2.25882,-1.89252 -4.06199,-4.03446 -5.86519,-6.17658c-1.11564,-1.24212 -2.32696,-2.47303 -3.62257,-3.59588c-0.33241,-0.35318 -0.77185,-0.79194 -1.1545,-0.74701c-1.4577,-0.02499 -3.01106,-0.03892 -4.24816,0.98904c-0.00482,0.78516 0.35032,1.33197 0.78975,1.77073c0.89022,0.97414 1.67347,1.86309 2.55234,2.74063c1.44806,1.5953 2.88474,3.09381 4.32145,4.59249c0.33241,0.35318 0.67621,0.80337 0.74433,1.38367c-0.62422,0.46568 -1.3166,0.35065 -1.90194,0.32142c-2.15179,-1.80694 -3.95498,-3.94907 -5.75817,-6.09118c-1.11562,-1.24194 -2.32695,-2.47285 -3.62255,-3.5957c-0.32107,-0.25656 -0.66485,-0.70655 -1.14318,-0.6504c-1.35068,0.06041 -2.90403,0.04665 -4.05683,0.96657c-0.10048,0.79639 0.25466,1.3432 0.69411,1.78196c0.89024,0.97435 1.67347,1.8631 2.55234,2.74064c1.44806,1.5953 2.88477,3.094 4.32146,4.5925c0.33244,0.35337 0.67621,0.80336 0.76706,1.5773c-2.56025,0.49665 -5.00215,1.17551 -7.51215,1.27404c-2.25882,-1.89252 -4.06199,-4.03445 -5.86519,-6.17658c-1.11564,-1.24212 -2.32696,-2.47303 -3.62256,-3.59589c-0.43944,-0.43877 -0.96318,-0.76948 -1.63284,-0.69087c-1.24365,0.14599 -2.49867,0.19517 -3.60121,0.717c0.14763,1.25761 0.05196,1.26884 0.60978,1.88981c0.99727,1.05993 1.8875,2.03408 2.88477,3.094c1.43669,1.49849 2.88476,3.0938 4.32146,4.5925c0.33241,0.35318 0.66485,0.70655 0.33896,1.23516c-0.82692,0.39132 -1.60359,0.38435 -2.26844,-0.32221c-0.43944,-0.43877 -0.87888,-0.87752 -1.31832,-1.31629c-1.23402,-1.42434 -2.45667,-2.75186 -3.69069,-4.17619c-1.00862,-1.15655 -2.12427,-2.39867 -3.40852,-3.42473c-0.33244,-0.35337 -0.77187,-0.79213 -1.15454,-0.74721c-1.4577,-0.02499 -3.01104,-0.03874 -4.42812,1.1083c1.01517,2.03853 2.72748,3.40652 4.17557,5.00201c1.43669,1.49849 2.96908,2.98595 4.25987,4.89397c-0.88853,0.69261 -1.64249,0.87926 -2.51002,0.09836c-0.43944,-0.43877 -0.87888,-0.87752 -1.31832,-1.31629c-1.32969,-1.4131 -2.67072,-2.92283 -3.90474,-4.34717c-1.01998,-1.25336 -2.12427,-2.39867 -3.40851,-3.42472c-0.32107,-0.25656 -0.66485,-0.70655 -1.14318,-0.6504c-1.35068,0.06041 -2.89268,0.14327 -4.05683,0.96657c-0.11184,0.69958 0.23193,1.14958 0.5757,1.59956c0.66485,0.70655 1.34105,1.50993 2.00589,2.21647c1.6621,1.76628 3.43122,3.61816 5.09332,5.38444c0.32107,0.25656 0.54647,0.52435 0.40057,0.93387c-1.56954,0.67459 -5.66043,1.35092 -7.59644,1.38209c-2.15179,-1.80694 -3.95498,-3.94907 -5.75817,-6.09118c-1.43669,-1.49849 -2.78911,-3.10523 -4.5744,-4.26856c-1.43499,0.16845 -2.99969,0.05789 -4.33248,1.0969c0.12973,0.27902 0.06814,0.58049 0.18652,0.76271c0.23676,0.3646 0.47352,0.72901 0.69892,0.9968c0.89024,0.97435 1.67346,1.86309 2.55233,2.74061c1.44806,1.5953 2.88477,3.094 4.32149,4.59268c0.33241,0.35318 0.67618,0.80316 0.74433,1.38367c-0.62425,0.46548 -1.19824,0.53286 -1.8906,0.41804c-2.15179,-1.80694 -3.95499,-3.94908 -5.75818,-6.09119c-1.11562,-1.24194 -2.32694,-2.47284 -3.62255,-3.5957c-0.32107,-0.25656 -0.66485,-0.70655 -1.14318,-0.6504c-1.35068,0.06041 -2.90402,0.04666 -4.05684,0.96658c-0.10048,0.79639 0.25466,1.3432 0.69411,1.78196c0.99726,1.05973 1.99453,2.11965 2.99178,3.17939c1.34105,1.50993 2.76641,2.91179 4.10743,4.42153c0.2254,0.26779 0.65348,0.60972 0.33896,1.23515c-2.09326,0.34387 -4.1752,0.78437 -6.36414,1.13948c-1.35242,-1.60673 -2.69344,-3.11645 -3.93882,-4.6376c-1.48213,-1.88555 -3.05992,-3.75989 -4.89065,-5.31028c-0.42808,-0.34194 -0.78321,-0.88876 -1.36855,-0.91799c-1.45771,-0.02518 -3.01106,-0.03892 -4.24816,0.98905c0.02924,1.07522 0.68273,1.68514 1.24054,2.30611c2.12427,2.39867 4.35554,4.88275 6.47981,7.28142c0.2254,0.26779 0.54645,0.52415 0.41192,1.03048c-0.81558,0.48793 -1.49659,0.46974 -2.2571,-0.22558c-1.7464,-1.65823 -3.3242,-3.53257 -4.89064,-5.31027c-1.01996,-1.25316 -2.23127,-2.48407 -3.52688,-3.60693c-0.42808,-0.34194 -0.86751,-0.78071 -1.4415,-0.71333c-1.33931,0.15722 -2.69,0.21762 -3.97253,0.85853c-0.17345,1.00106 0.48004,1.6108 1.03788,2.23196c2.20856,2.29063 4.32145,4.59249 6.42301,6.79754c0.43944,0.43877 0.77187,0.79214 0.84001,1.37263c-0.63558,0.36886 -1.31661,0.35066 -2.10464,0.24707c-0.64214,-0.51312 -1.29561,-1.12286 -1.96045,-1.82941c-1.23402,-1.42434 -2.46804,-2.84866 -3.69069,-4.17619c-1.10428,-1.14531 -2.20856,-2.29063 -3.40851,-3.42472c-0.3438,-0.45018 -0.85617,-0.68409 -1.43018,-0.61671c-1.32797,0.25384 -2.59433,0.20639 -3.78119,0.83607c-0.26911,1.01228 0.48006,1.61099 1.03788,2.23196c2.21993,2.38744 4.33283,4.68931 6.54139,6.97994c0.33241,0.35318 0.55782,0.62096 0.54163,1.30931c-1.04095,0.22034 -2.0819,0.44069 -3.94499,0.267z" data-paper-data="{&quot;index&quot;:null}" fill="#ffffff"/><path d="M373.75945,223.78045c-3.13425,0.56404 -6.17282,1.11682 -9.30708,1.68084c-0.19133,0.02246 -0.28699,0.03369 -0.47833,0.05615c-2.70615,0.90617 -5.68312,1.15768 -8.51902,1.78463c-2.83589,0.62715 -5.79016,1.07209 -8.63741,1.60243c-5.31182,1.01594 -10.51664,2.11728 -15.82847,3.13302c-3.51691,0.60895 -7.12946,1.22931 -10.64637,1.83826c-0.19133,0.02246 -0.48969,-0.04066 -0.66966,0.07861c-2.51482,0.88371 -5.12051,0.99329 -7.66942,1.58675c-3.38717,0.88796 -6.92679,1.30347 -10.44371,1.91242c-0.3713,0.14173 -0.66966,0.07861 -0.94529,0.20911c-2.89748,0.92864 -5.98147,1.09455 -9.00872,1.74397c-3.49417,0.80257 -6.89272,1.59372 -10.44367,1.9126c-0.39403,-0.05189 -0.68102,-0.0182 -0.95666,0.11231c-2.51484,0.88352 -5.12051,0.99329 -7.66941,1.58675c-3.58984,0.8138 -7.30945,1.34839 -10.92201,1.96856c-0.19133,0.02246 -0.28699,0.03369 -0.47833,0.05615c-3.11153,0.75765 -6.13873,1.40726 -9.27299,1.97129c-2.18894,0.3551 -4.37789,0.71003 -6.54412,1.25855c-2.92019,0.73519 -5.89718,0.98651 -8.81739,1.72151c-3.58984,0.8138 -7.32079,1.25177 -10.92201,1.96876c-1.90196,0.32122 -3.79254,0.73945 -5.69451,1.06067c-0.46696,0.15296 -0.82691,0.39132 -1.30523,0.44747c-1.13662,0.23157 -1.63112,0.97608 -1.70889,1.9659c-0.20096,1.59278 -0.31762,3.07752 -0.42291,4.65908c0.00654,0.88198 -0.08258,1.77499 -0.36303,2.69066c-0.75395,0.18666 -1.38957,0.55532 -2.05922,0.63393c-2.18894,0.3551 -4.28222,0.69898 -6.35279,1.23609c-2.26189,0.55977 -4.52379,1.11953 -6.88135,1.69053c-0.94529,0.20911 -1.87923,0.51485 -2.96563,0.34813c-0.32278,-1.9235 0.14247,-3.74341 0.11802,-5.60398c-0.01308,-1.76376 0.26083,-3.56121 0.24774,-5.32517c0.07125,-1.87161 0.34516,-3.66906 0.52339,-5.45547c0.45562,-0.24959 0.81558,-0.48793 1.19824,-0.53286c3.02721,-0.64962 6.04309,-1.39584 9.16598,-2.05669c3.20719,-0.76888 6.41439,-1.53757 9.65564,-2.01621c4.37789,-0.71003 8.63743,-1.60224 12.90829,-2.39784c3.99521,-0.66528 7.96775,-1.52382 11.95161,-2.28573c2.75159,-0.51911 5.59883,-1.04945 8.33906,-1.66536c3.02721,-0.64962 6.07714,-1.10578 9.11572,-1.65859c0.17997,-0.11928 0.47833,-0.05615 0.6583,-0.17542c1.94085,-0.81614 4.1525,-0.97781 6.23442,-1.41829c3.87686,-0.8473 7.69211,-1.39332 11.59168,-2.04718c0.3713,-0.14173 0.65829,-0.17542 0.94529,-0.20912c2.75159,-0.51911 5.39614,-1.12379 8.14772,-1.6429c3.61257,-0.62018 7.32079,-1.25177 10.93337,-1.87194c0.19133,-0.02246 0.287,-0.03369 0.47833,-0.05615c2.93155,-0.63838 5.95877,-1.28799 8.99735,-1.84078c3.61257,-0.62018 7.32082,-1.25158 10.93337,-1.87194c0.19133,-0.02246 0.28699,-0.03369 0.47832,-0.05615c2.89751,-0.92843 5.88583,-1.08313 8.8174,-1.72151c3.88821,-0.75067 7.87207,-1.51258 11.76031,-2.26308c4.1752,-0.78437 8.44607,-1.57996 12.60991,-2.46114c2.26191,-0.55958 4.54651,-0.92592 6.83111,-1.29224c2.94292,-0.54157 5.9588,-1.2878 9.00873,-1.74397c0.76532,-0.08984 1.62631,-0.19092 2.47593,-0.3888c3.97253,-0.85853 7.94504,-1.71725 11.96298,-2.18891c1.06369,-0.02671 2.02035,-0.13902 3.17968,-0.17697c-0.23331,2.96948 -0.40502,5.63767 -0.48106,8.29464c0.0196,2.64554 0.03923,5.29128 -0.2168,8.06732c-0.47833,0.05615 -0.76532,0.08984 -1.05231,0.12353c-2.3689,0.47438 -4.6876,0.55027 -7.03379,1.21809c-1.04098,0.22016 -2.05923,0.63394 -3.17966,0.17716c-0.712,-2.76056 0.02234,-5.59296 -0.52103,-8.56941c-0.57399,0.06738 -0.95666,0.11231 -0.84962,0.19789z" data-paper-data="{&quot;index&quot;:null}" fill="#216aff"/><path d="M371.07499,234.7855c-2.75159,0.51911 -5.40748,1.02717 -8.15907,1.54628c-6.83112,1.29224 -13.56658,2.57325 -20.39771,3.8655c-4.07953,0.77313 -8.25474,1.55751 -12.42994,2.34187c-3.13425,0.56404 -6.17282,1.11682 -9.30708,1.68084c-5.31182,1.01594 -10.528,2.02047 -15.83982,3.03641c-3.21855,0.67207 -6.54413,1.25855 -9.77405,1.83381c-6.83112,1.29224 -13.56657,2.57326 -20.3977,3.8655c-5.98147,1.09455 -11.95162,2.28573 -17.92175,3.4769c-6.83112,1.29224 -13.74654,2.69253 -20.56631,4.08158c-3.88822,0.75049 -7.87211,1.5124 -11.76031,2.26308c-1.32795,0.25404 -2.65592,0.50788 -4.19791,0.59093c-0.08122,-2.34425 0.24293,-4.54 0.37576,-6.71309c0.27563,-0.13051 0.55126,-0.26101 0.74259,-0.28347c5.02484,-0.98206 10.14535,-1.97555 15.17019,-2.9576c5.02484,-0.98206 10.1567,-1.87873 15.18152,-2.86098c5.77881,-1.16871 11.46195,-2.3262 17.25212,-3.39809c2.65589,-0.50806 5.31182,-1.01594 7.96775,-1.52382c5.12049,-0.99348 10.24101,-1.98677 15.3615,-2.98026c2.94292,-0.54157 5.88582,-1.08313 8.82874,-1.6247c5.87448,-1.17994 11.76028,-2.26325 17.63476,-3.44321c2.75159,-0.51911 5.59883,-1.04944 8.35041,-1.56874c5.02484,-0.98206 9.95401,-1.95308 14.97886,-2.93514c5.21615,-1.00471 10.44371,-1.91242 15.65986,-2.91713c3.02721,-0.64962 6.05443,-1.29921 9.09303,-1.85201c1.8906,-0.41804 3.89958,-0.65388 5.80151,-0.97528c0.36822,2.31057 -0.3613,4.35779 0.40093,6.72006c-0.75395,0.18666 -1.40092,0.45871 -2.04787,0.73075z" data-paper-data="{&quot;index&quot;:null}" fill="#d0e9ea"/><path d="M422.30766,278.78872c-5.50042,-7.20009 -10.74792,-14.72412 -15.89977,-22.25958c-5.37723,-7.80305 -10.47883,-15.7366 -16.30033,-23.19325c-1.25673,-1.61777 -2.01243,-3.09825 -1.78394,-5.28277c0.28354,-3.36778 0.28009,-6.70186 0.37231,-10.04718c0.02754,-0.59153 0.15073,-1.19449 0.46525,-1.8199c0.33244,0.35337 0.64213,0.51313 0.77187,0.79214c1.76431,2.63703 3.63563,5.35945 5.41131,8.09329c4.15458,6.47553 8.39345,12.843 12.81232,19.09141c1.73023,2.34678 3.47182,4.79019 5.0221,7.25624c2.87514,4.66432 6.29019,8.97082 8.90104,13.86228c0.8627,1.56588 1.52273,3.05758 1.53583,4.82154c-0.04199,2.94702 -0.08396,5.89423 -0.12594,8.84126c0.01137,0.09681 -0.07295,0.20466 -0.31452,0.62542c-0.33244,-0.35337 -0.65348,-0.60973 -0.86753,-0.78091z" data-paper-data="{&quot;index&quot;:null}" fill="#216aff"/><path d="M352.65231,292.65372c-0.84963,0.19789 -1.59224,0.48116 -2.45323,0.58224c-2.76293,0.42248 -5.43021,0.83356 -8.19314,1.25604c-4.0909,0.67633 -8.1818,1.35264 -12.27268,2.02916c-5.23889,0.81108 -10.57344,1.6334 -15.90799,2.45572c-4.85622,0.76616 -9.7238,1.43571 -14.58002,2.20187c-0.56263,0.16419 -1.22092,0.33963 -1.84035,0.01994c-2.10153,-2.20506 -4.03446,-4.62619 -5.9674,-7.04732c-2.06265,-2.69997 -4.20962,-5.29208 -6.18796,-8.10008c-1.2681,-1.71458 -2.71615,-3.30988 -3.71995,-5.2516c-0.1411,-0.37583 -0.47352,-0.72901 -0.17033,-1.45105c0.42153,-0.54003 1.28251,-0.6411 2.13216,-0.83879c3.60121,-0.717 7.20243,-1.43397 10.79229,-2.24758c5.19345,-1.19815 10.528,-2.02047 15.85119,-2.93959c6.93813,-1.20686 13.99466,-2.23131 20.95551,-3.24453c0.57399,-0.06738 1.23228,-0.2428 1.80628,-0.31018c1.14799,-0.13476 2.38029,-0.37737 3.62394,-0.52336c0.84963,-0.19789 1.46905,0.1218 1.85825,0.95866c0.25947,0.55804 0.72162,1.19024 1.07676,1.73704c2.23782,3.36604 4.84696,6.59035 7.3604,9.82589c2.40645,3.15015 4.5486,6.52742 6.77506,9.79665c-0.21886,0.61419 -0.47179,0.93793 -0.93877,1.0909zM299.2373,277.1518c-2.46459,0.48542 -4.84486,0.86298 -7.30945,1.34839c-0.19133,0.02246 -0.35994,0.23836 -0.53993,0.35763c-2.57162,0.39983 -5.17729,0.5096 -7.68075,1.49013c1.46595,2.5739 10.72521,14.53069 14.62994,18.87786c1.44634,-0.07164 2.96563,-0.34813 4.47357,-0.72124c0.56263,-0.16419 1.22094,-0.33942 1.79493,-0.4068c5.23889,-0.81108 10.38208,-1.61112 15.52531,-2.41099c0.19133,-0.02246 0.46698,-0.15277 0.65831,-0.17523c2.76293,-0.42248 5.61018,-0.95282 8.37311,-1.37531c1.82901,-0.11656 3.56232,-0.22207 5.34589,-0.72569c2.36892,-0.47419 4.69896,-0.45346 6.94952,-1.10984c2.99967,-0.05807 5.68314,-1.15748 8.75577,-1.42023c-0.37303,-1.5254 -1.35895,-2.48851 -2.05784,-3.48513c-3.22373,-4.32915 -6.34043,-8.57272 -9.56417,-12.90188c-0.56919,-0.71778 -1.22266,-1.32752 -1.70753,-2.15335c-0.50756,-1.01907 -1.49828,-1.19701 -2.34793,-0.99932c-3.6855,0.82503 -7.54621,0.98398 -11.32738,1.82024c-3.20721,0.76869 -6.55549,1.16174 -9.7854,1.737c-0.57399,0.06738 -1.23228,0.2428 -1.80627,0.31018c-1.92467,0.12779 -3.74231,0.34116 -5.62155,0.85601c-2.1776,0.45173 -4.36652,0.80682 -6.75816,1.08758z" data-paper-data="{&quot;index&quot;:null}" fill="#010201"/><path d="M225.8472,282.33431c-1.32795,0.25404 -2.75156,0.51928 -4.06817,0.86995c-1.59224,0.48116 -2.81973,-0.06139 -3.92402,-1.2067c-3.19447,-3.25374 -6.38893,-6.5073 -9.5834,-9.76105c-0.33244,-0.35337 -0.7605,-0.69532 -0.66002,-1.49171c0.60151,-0.65911 1.45114,-0.85699 2.39644,-1.06592c1.04095,-0.22034 2.09328,-0.34388 3.12289,-0.66084c1.22094,-0.33943 2.03168,-0.0424 3.01759,0.92071c3.11015,3.3616 5.95603,6.95051 9.23481,10.09621c0.45081,0.53558 0.90161,1.07116 1.17243,1.72581c-0.23022,0.51738 -0.50585,0.64788 -0.70855,0.57353zM218.39149,278.30584c0.12973,0.27902 0.15243,0.47245 0.27084,0.65486c0.86751,0.78071 1.73506,1.56162 2.61394,2.43915c0.69237,0.11483 1.37338,0.13303 2.08192,-0.4405c-0.75569,-1.48048 -2.10156,-2.20523 -3.02585,-3.46965c-0.73124,0.38009 -1.2939,0.54408 -1.94085,0.81614zM217.42485,274.20228c-1.23231,0.24261 -2.35756,0.57099 -3.58986,0.81361c0.48488,0.82582 1.03134,1.35018 1.76912,1.85187c1.04098,-0.22016 1.97489,-0.52608 3.01588,-0.74623c-0.10221,-0.87075 -0.73298,-1.28705 -1.19513,-1.91925zM212.14846,271.38902c0.64866,1.3949 0.64865,1.39489 3.00624,0.82409c-0.76706,-1.57731 -1.8696,-1.05547 -3.00624,-0.82409z" data-paper-data="{&quot;index&quot;:null}" fill="#020202"/><path d="M269.4417,281.9244c2.22956,0.81712 3.02585,3.46964 1.59261,5.30523c-1.85481,2.37523 -6.95433,1.89501 -8.34732,-0.88356c-0.77841,-1.67391 -0.29045,-3.30039 1.36338,-4.08303c0.73124,-0.38009 1.56954,-0.67459 2.34622,-0.66762c1.04095,-0.22034 2.03169,-0.0424 3.04511,0.32899zM265.07688,284.39817c-0.53993,0.35763 -0.54474,1.14279 -0.00963,1.57033c0.65351,0.60993 3.29325,0.7904 4.05202,-0.18142c0.43292,-0.44302 0.44907,-1.13156 -0.08604,-1.55909c-0.54647,-0.52435 -1.14317,-0.65041 -2.09982,-0.5381c-0.66966,0.07861 -1.3166,0.35065 -1.85653,0.70829z" data-paper-data="{&quot;index&quot;:null}" fill="#030606"/><path d="M276.09183,290.65688c1.70098,1.27136 1.93945,3.30292 0.36511,4.76267c-0.16862,0.21589 -0.44425,0.3464 -0.71989,0.47691c-1.53546,0.96484 -3.20721,0.76869 -4.8903,0.47591c-1.1934,-0.2521 -2.3204,-1.59105 -2.46804,-2.84867c-0.14763,-1.25761 0.3128,-2.29237 1.40401,-2.91081c0.73124,-0.38009 1.45116,-0.8568 2.22783,-0.85003c1.33931,-0.15722 3.03377,0.23237 4.08127,0.89399zM271.49198,294.43319c1.20476,0.34892 2.26844,0.32221 3.24128,-0.47844c0.52856,-0.45445 0.61769,-1.34746 -0.01308,-1.76377c-0.74917,-0.5987 -1.64422,-0.78788 -2.57815,-0.48194c-0.56265,0.164 -1.11393,0.42481 -1.56954,0.67459c-0.1053,1.58156 0.01309,1.76376 0.91949,2.04955z" data-paper-data="{&quot;index&quot;:null}" fill="#040605"/><path d="M232.1959,293.45596c-1.99934,-1.33449 -2.0076,-3.88342 -0.02789,-5.19466c1.45116,-0.8568 3.06611,-1.14453 4.67626,-0.6469c1.7058,0.48621 2.77119,2.12644 2.59294,3.91266c-0.05505,1.18345 -1.29216,2.21123 -2.90711,2.49895c-0.19133,0.02246 -0.28699,0.03369 -0.47833,0.05615c-1.53065,0.17969 -2.81973,-0.06139 -3.85587,-0.62621zM232.96432,290.91401c0.09086,0.77393 1.04269,1.4468 2.10635,1.41989c0.47833,-0.05615 1.04097,-0.22015 1.49657,-0.46993c0.82692,-0.39132 0.80902,-1.36992 0.07124,-1.87161c-0.52376,-0.33091 -1.13182,-0.55379 -1.61016,-0.49763c-1.06366,0.02691 -2.04785,0.73074 -2.06401,1.41929z" data-paper-data="{&quot;index&quot;:null}" fill="#040505"/><path d="M255.3142,286.3288c1.30698,1.21967 1.29735,2.78999 0.08296,4.01139c-1.99589,1.99959 -6.11605,1.60051 -7.75062,-0.7575c-0.69892,-0.9968 -0.70544,-1.87859 0.0647,-2.75359c0.84309,-1.07966 1.92293,-1.79492 3.38062,-1.76993c1.50793,-0.37312 2.9154,0.05016 4.22235,1.26964zM249.90672,287.35597c-0.56265,0.164 -0.74744,1.06844 -0.30799,1.5072c0.66485,0.70655 1.55991,0.89573 2.51656,0.78343c0.86098,-0.10108 1.48521,-0.56674 1.84997,-1.59027c-1.23402,-1.42434 -2.669,-1.25588 -4.05855,-0.70038z" data-paper-data="{&quot;index&quot;:null}" fill="#030604"/><path d="M252.54616,309.01447c-1.24846,0.93115 -5.12048,0.99348 -6.52314,-0.21496c-1.50965,-1.29383 -1.55681,-3.34783 0.05161,-4.51734c1.6084,-1.1697 4.3211,-1.19388 6.02209,0.07748c0.74917,0.5987 1.40264,1.20844 1.39783,1.9936c0.05196,1.26884 -0.23985,2.08769 -0.9484,2.66122zM249.43599,305.65288c-0.77669,-0.00697 -1.66038,-0.09934 -2.36892,0.47418c-0.27563,0.13051 -0.32589,0.52861 -0.19614,0.80762c0.11837,0.18221 0.23674,0.36441 0.45081,0.53558c0.63077,0.4163 1.22747,0.54235 1.99279,0.45251c0.76532,-0.08984 1.54202,-0.08286 1.91812,-1.00976c-0.29354,-0.84829 -0.92431,-1.26459 -1.79665,-1.26013z" data-paper-data="{&quot;index&quot;:null}" fill="#030506"/><path d="M244.89051,296.67334c1.15451,0.74702 1.55024,2.46586 0.71852,3.64234c-1.65212,2.44958 -6.18243,2.68733 -8.29053,-0.39969c-0.69892,-0.9968 -0.45254,-2.20272 0.50893,-3.10018c0.79286,-0.68138 1.72679,-0.98731 2.39644,-1.06592c1.62632,-0.19092 3.61912,0.2618 4.66664,0.92343zM241.93967,300.45218c1.14799,-0.13476 1.32797,-0.25384 1.957,-1.50468c-1.94909,-1.73259 -3.11978,-1.79127 -4.87411,-0.21243c0.63732,1.29827 1.56645,1.77771 2.91711,1.71711z" data-paper-data="{&quot;index&quot;:null}" fill="#050504"/><path d="M281.1707,298.3968c2.29115,0.51564 3.08747,3.16836 1.45152,4.92959c-0.43292,0.44302 -0.97283,0.80065 -1.53546,0.96484c-1.3166,0.35065 -2.67863,0.31445 -4.07474,-0.01221c-0.60804,-0.22268 -1.13181,-0.5536 -1.57125,-0.99235c-0.99726,-1.05973 -0.98763,-2.63005 -0.03752,-3.62434c0.67446,-0.86377 1.69273,-1.27755 2.72233,-1.59452c1.07503,0.0699 2.03167,-0.0424 3.04511,0.32899zM278.26534,302.56289c0.69237,0.11483 1.46903,0.12161 2.20031,-0.25829c0.46696,-0.15296 0.80419,-0.58494 0.74741,-1.06863c0.02754,-0.59153 -0.47351,-0.72901 -0.87888,-0.87752c-1.50313,-0.41205 -2.54409,-0.1917 -3.75848,1.0297c0.29352,0.84809 0.99726,1.05972 1.68964,1.17475z" data-paper-data="{&quot;index&quot;:null}" fill="#050304"/><path d="M267.02534,301.8228c1.21129,1.23071 1.16759,2.51077 0.04886,3.72095c-0.43289,0.44321 -0.97283,0.80064 -1.5241,1.06166c-1.77223,0.60024 -3.35965,0.29625 -4.90818,-0.50268c-0.30971,-0.15975 -0.64214,-0.51312 -0.86753,-0.78091c-0.91295,-1.16778 -0.84655,-2.25441 0.09221,-3.3453c0.8658,-0.88623 1.89541,-1.2032 3.23473,-1.36042c1.42362,-0.26527 2.72407,0.07262 3.92403,1.2067zM262.8016,304.67221c0.69239,0.11502 1.48042,0.21861 2.20031,-0.25829c0.53995,-0.35744 0.64043,-1.15383 0.02099,-1.47351c-0.6194,-0.31948 -1.40747,-0.42327 -2.17279,-0.33344c-0.75395,0.18666 -0.94529,0.20912 -1.78839,1.28878c0.28218,0.75147 1.05887,0.75845 1.73987,0.77646z" data-paper-data="{&quot;index&quot;:null}" fill="#040405"/><path d="M254.4037,298.40074c-1.71234,-1.36818 -1.57953,-3.54146 0.32724,-4.64785c1.99105,-1.21463 4.94052,-0.8742 6.59126,0.79526c1.21131,1.23089 1.12872,3.00589 -0.31106,3.95951c-0.80422,0.58476 -1.63112,0.97608 -2.59912,0.99174c-1.53065,0.17969 -2.92676,-0.14698 -4.00831,-1.09867zM257.85554,294.759c-0.78803,-0.1036 -1.64902,-0.00252 -2.35756,0.571c-0.52856,0.45445 -0.54474,1.14279 -0.00963,1.57033c0.64214,0.51312 1.45287,0.81014 2.31386,0.70907c0.95665,-0.1123 1.14799,-0.13476 2.19377,-1.14007c-0.42329,-1.12731 -1.23401,-1.42433 -2.14044,-1.71033z" data-paper-data="{&quot;index&quot;:null}" fill="#040506"/><path d="M350.28369,271.64989c2.83589,-0.62715 5.79017,-1.0719 8.66013,-1.4088c0.66966,-0.07861 1.43498,-0.16845 1.99279,0.45252c-0.01617,0.68835 -0.36477,1.02351 -1.01172,1.29556c-0.82692,0.39132 -1.61495,0.28773 -2.46457,0.4856c-2.38029,0.37737 -4.67625,0.6469 -7.05653,1.02445c-0.66966,0.07861 -1.35068,0.0604 -1.82419,-0.66861c0.28048,-0.91547 1.03443,-1.10213 1.70409,-1.18074z" data-paper-data="{&quot;index&quot;:null}" fill="#0c1212"/><path d="M380.51428,273.88741c-0.82692,0.39132 -1.61495,0.28773 -2.46456,0.4856c-2.38029,0.37737 -4.67626,0.6469 -7.05653,1.02445c-0.66966,0.07861 -1.35068,0.0604 -1.82418,-0.66861c0.28048,-0.91547 1.03443,-1.10213 1.78841,-1.28859c2.82453,-0.72395 5.79015,-1.0721 8.66011,-1.409c0.66966,-0.07861 1.43498,-0.16845 1.99279,0.45252c0.07951,0.67731 -0.36475,1.02371 -1.09601,1.4036z" data-paper-data="{&quot;index&quot;:null}" fill="#0d1313"/><path d="M403.78231,275.4714c-0.53993,0.35763 -0.99554,0.60721 -1.6652,0.68582c-2.56025,0.49665 -5.21618,1.00452 -7.88343,1.41577c-0.57399,0.06738 -1.23231,0.24262 -1.84035,0.01994c-0.4054,-0.14871 -0.79939,-0.20041 -0.85617,-0.68409c0.12318,-0.60296 0.59014,-0.75593 1.15279,-0.91993c2.89748,-0.92864 5.98147,-1.09455 8.99735,-1.84078c0.75395,-0.18666 1.64902,0.00252 2.36409,0.31079c0.16381,0.56926 0.00655,0.88198 -0.26909,1.01249z" data-paper-data="{&quot;index&quot;:null}" fill="#090c0d"/><path d="M378.6347,268.61606c-0.81558,0.48793 -1.56954,0.67459 -2.43052,0.77566c-2.18894,0.3551 -4.29357,0.60217 -6.36415,1.13928c-0.75395,0.18666 -1.53065,0.17969 -2.30731,0.17289c-0.39403,-0.05189 -0.97936,-0.08113 -1.14318,-0.6504c0.00482,-0.78516 0.67447,-0.86378 1.2371,-1.02797c2.89751,-0.92843 5.88582,-1.08313 8.80602,-1.81832c0.84964,-0.19769 1.74472,-0.00851 2.55545,0.28851c0.17515,0.66589 -0.07777,0.98983 -0.35341,1.12034z" data-paper-data="{&quot;index&quot;:null}" fill="#090d0e"/><path d="M364.14898,274.92595c0.287,-0.03369 0.60806,0.22287 0.64214,0.51312c0.03404,0.29006 -0.13455,0.50615 -0.39884,0.73327c-0.89987,0.59598 -1.92949,0.91295 -2.97045,1.1333c-2.38027,0.37756 -4.67623,0.64708 -7.02244,1.3147c-0.3713,0.14173 -0.86098,0.10108 -1.35068,0.06041c-0.19133,0.02246 -0.4167,-0.24513 -0.53511,-0.42754c-0.12973,-0.27902 -0.06813,-0.5803 0.19614,-0.80762c0.24159,-0.42055 0.70854,-0.57353 1.18687,-0.62967c2.83589,-0.62715 5.6718,-1.25411 8.41202,-1.87002c0.66966,-0.07861 1.14799,-0.13477 1.84035,-0.01994z" data-paper-data="{&quot;index&quot;:null}" fill="#080b0b"/><path d="M405.229,281.18595c-3.13425,0.56404 -6.37549,1.04265 -9.50975,1.60669c-0.38266,0.04492 -0.7767,-0.00698 -1.1707,-0.05867c-0.29837,-0.06312 -0.61943,-0.31969 -0.6535,-0.60993c-0.04541,-0.38687 0.21887,-0.61399 0.4945,-0.74449c0.64695,-0.27204 1.20958,-0.43624 1.77221,-0.60044c1.61497,-0.28754 3.31423,-0.68312 4.92918,-0.97084c1.23228,-0.2428 2.38028,-0.37756 3.62393,-0.52355c0.66966,-0.07861 1.43498,-0.16845 1.91984,0.65738c-0.29181,0.81885 -0.83173,1.17648 -1.40573,1.24386z" data-paper-data="{&quot;index&quot;:null}" fill="#07090a"/><path d="M384.48234,279.60023c-1.62632,0.19092 -3.13422,0.56421 -4.74919,0.85175c-1.24365,0.14599 -2.57159,0.40003 -3.81525,0.54601c-0.57399,0.06738 -1.05231,0.12353 -1.56471,-0.11057c-0.2027,-0.07435 -0.41673,-0.24533 -0.43944,-0.43877c-0.02271,-0.19344 0.03889,-0.49492 0.21886,-0.61419c0.55128,-0.26082 1.10257,-0.52163 1.6652,-0.68582c1.69927,-0.39558 3.39852,-0.79115 5.10915,-1.0901c1.23228,-0.2428 2.38027,-0.37757 3.62392,-0.52356c0.66966,-0.07861 1.33931,-0.15722 1.91985,0.65738c-0.47178,0.93813 -1.32142,1.13582 -1.96837,1.40786z" data-paper-data="{&quot;index&quot;:null}" fill="#07090a"/><path d="M395.04851,265.51227c-1.23228,0.2428 -2.39163,0.28075 -3.61255,0.62037c-1.6036,0.38435 -3.31421,0.68331 -4.94052,0.87421c-0.47833,0.05615 -1.06369,0.0267 -1.55337,-0.01395c-0.29835,-0.06292 -0.60806,-0.22287 -0.65348,-0.60974c-0.04541,-0.38687 0.21885,-0.61418 0.4945,-0.74449c0.4556,-0.24978 1.01825,-0.41379 1.48521,-0.56675c1.69927,-0.39558 3.39855,-0.79116 5.10915,-1.0901c1.23228,-0.2428 2.38027,-0.37756 3.62391,-0.52355c0.66966,-0.07861 1.35068,-0.0604 1.93122,0.75419c-1.13009,1.11336 -1.13009,1.11336 -1.88407,1.29981z" data-paper-data="{&quot;index&quot;:null}" fill="#060909"/><path d="M389.62829,270.56188c2.64455,-0.60469 5.4075,-1.02699 8.06343,-1.53485c0.56263,-0.16419 1.14799,-0.13476 1.63766,-0.09429c0.39403,0.05189 0.89505,0.18918 0.86753,0.78091c-1.05713,0.9087 -1.05713,0.9087 -2.09811,1.12884c-1.42362,0.26527 -2.94289,0.54176 -4.4622,0.81806c-1.51928,0.27649 -3.04992,0.45618 -4.58056,0.63584c-0.57399,0.06738 -1.25502,0.04918 -1.55991,-0.89574c0.60151,-0.65911 1.3555,-0.84557 2.13216,-0.83878z" data-paper-data="{&quot;index&quot;:null}" fill="#060909"/><path d="M360.09287,287.4651c0.44426,-0.3464 0.99553,-0.60721 1.47387,-0.66337c2.93155,-0.63838 5.87448,-1.17994 8.8174,-1.72151c0.57399,-0.06738 1.14798,-0.13475 1.57605,0.20719c0.14107,0.37564 0.09086,0.77393 -0.2691,1.01228c-0.61288,0.56229 -1.36684,0.74895 -2.12082,0.93541c-2.75156,0.51929 -5.59881,1.04962 -8.3504,1.56873c-0.47833,0.05615 -0.95666,0.1123 -1.38472,-0.22965c-0.23676,-0.3646 -0.29355,-0.84828 0.25774,-1.1091z" data-paper-data="{&quot;index&quot;:null}" fill="#070909"/><path d="M377.14228,283.99266c0.63558,-0.36886 1.37821,-0.65214 2.14353,-0.74198c2.5716,-0.40002 5.14319,-0.80005 7.72616,-1.10326c0.47833,-0.05615 0.87235,-0.00425 1.36204,0.03641c0.20267,0.07415 0.4167,0.24513 0.53511,0.42754c0.12973,0.27902 -0.02754,0.59152 -0.19614,0.80762c-0.61288,0.56229 -1.36687,0.74875 -2.13219,0.8386c-2.5716,0.40002 -5.14319,0.80005 -7.71482,1.19988c-0.86098,0.10108 -1.54199,0.08306 -2.2798,-0.41883c0.03889,-0.49492 0.19614,-0.80762 0.5561,-1.04598z" data-paper-data="{&quot;index&quot;:null}" fill="#050606"/><path d="M358.32511,281.49398c2.66727,-0.41125 5.23889,-0.81108 7.91752,-1.12553c0.47833,-0.05615 0.87233,-0.00445 1.36202,0.03621c0.2027,0.07435 0.41673,0.24533 0.43944,0.43877c0.11837,0.18221 -0.03889,0.49492 -0.12319,0.60296c-0.50587,0.64768 -1.25982,0.83434 -2.02514,0.92418c-2.65592,0.50788 -5.2616,0.61765 -7.90615,1.22234c-0.75395,0.18666 -1.54201,0.08287 -2.29115,-0.51564c0.73607,-1.16525 1.68138,-1.37418 2.62666,-1.58329z" data-paper-data="{&quot;index&quot;:null}" fill="#050606"/><path d="M340.89994,291.67952c-6.9206,-3.60093 -13.76827,-7.40653 -20.53158,-11.31999c-2.71443,-1.64295 -5.51316,-3.17766 -8.21622,-4.72379c-0.10703,-0.08558 -0.32106,-0.25656 -0.43944,-0.43877c0.57399,-0.06738 1.23228,-0.2428 1.80628,-0.31018c3.32557,-0.58649 6.56682,-1.06512 9.7854,-1.737c3.6855,-0.82503 7.54621,-0.98398 11.32738,-1.82024c0.84964,-0.19769 1.7447,-0.00851 2.34793,0.99932c0.37786,0.74024 1.13835,1.43557 1.70753,2.15335c3.22373,4.32915 6.43609,8.56149 9.56417,12.90188c0.71026,1.09342 1.6005,2.06776 2.05783,3.48512c-3.07263,0.26273 -5.85176,1.37339 -8.75576,1.42023c-0.30974,-0.15994 -0.43944,-0.43877 -0.6535,-0.60994z" data-paper-data="{&quot;index&quot;:null}" fill="#00ff00"/><path d="M301.59213,284.81929c6.52659,3.54904 13.04182,7.00147 19.39978,10.76641c-0.19133,0.02246 -0.46695,0.15296 -0.65829,0.17542c-5.23889,0.81108 -10.38211,1.61095 -15.52532,2.4108c-0.57399,0.06738 -1.23228,0.2428 -1.79491,0.407c-1.50793,0.37312 -3.02721,0.64962 -4.47357,0.72124c-3.89339,-4.25054 -13.15265,-16.20732 -14.62996,-18.87804c2.50347,-0.98033 5.10915,-1.0901 7.68074,-1.49012c3.33384,1.96244 6.58338,4.03292 10.00153,5.8873z" data-paper-data="{&quot;index&quot;:null}" fill="#00ff00"/><path d="M292.22623,278.56332c2.46456,-0.48561 4.83349,-0.95979 7.30944,-1.34839c3.44084,2.04783 6.97736,4.08442 10.51391,6.12122c4.88239,2.76136 9.75339,5.4259 14.63578,8.18724c1.54854,0.79891 3.01278,1.70588 4.57268,2.60161c-2.76293,0.42248 -5.61018,0.95282 -8.37311,1.37531c-6.35797,-3.76513 -12.96886,-7.20613 -19.39981,-10.7666c-3.32248,-1.86562 -6.56066,-3.83928 -9.8945,-5.80172c0.17998,-0.11908 0.35995,-0.23836 0.63561,-0.36867z" data-paper-data="{&quot;index&quot;:null}" fill="#87ff87"/><path d="M334.69958,293.38808c-4.15591,-2.35609 -8.39619,-4.60451 -12.46782,-7.06865c-4.27431,-2.53849 -8.56,-5.17378 -12.76138,-7.91714c-1.14318,-0.6504 -2.56197,-1.1703 -3.37926,-2.34931c1.87923,-0.51485 3.69687,-0.72822 5.62155,-0.85601c0.10701,0.08539 0.23675,0.36441 0.43944,0.43877c2.81007,1.63153 5.51316,3.17766 8.21622,4.72379c6.76333,3.91345 13.61098,7.71906 20.53158,11.31999c0.21406,0.17117 0.43944,0.43877 0.6535,0.60994c-2.34622,0.66762 -4.67626,0.64689 -6.85386,1.09861z" data-paper-data="{&quot;index&quot;:null}" fill="#86ff86"/><path d="M329.18506,294.32966c-1.54854,-0.79891 -3.01277,-1.70587 -4.57265,-2.60142c-4.88239,-2.76136 -9.75341,-5.42609 -14.6358,-8.18744c-3.53651,-2.0366 -6.97739,-4.08462 -10.51391,-6.12122c2.1776,-0.45173 4.36652,-0.80682 6.54412,-1.25855c0.91295,1.16778 2.22471,1.6021 3.37926,2.34932c4.20136,2.74316 8.48704,5.37845 12.76136,7.91693c4.1673,2.45309 8.31189,4.71256 12.46783,7.06884c-1.78356,0.50362 -3.51691,0.60894 -5.43021,0.83353z" data-paper-data="{&quot;index&quot;:null}" fill="#01ff01"/><path d="M223.35819,280.95935c-0.61288,0.56229 -1.38957,0.55533 -2.08192,0.4405c-0.97454,-0.86629 -1.74642,-1.65843 -2.61394,-2.43915c-0.1184,-0.1824 -0.1411,-0.37584 -0.27084,-0.65486c0.64695,-0.27204 1.19824,-0.53285 1.94085,-0.81614c0.93566,1.36121 2.28153,2.08597 3.02585,3.46965z" data-paper-data="{&quot;index&quot;:null}" fill="#589ca0"/><path d="M215.60412,276.86775c-0.72643,-0.40507 -1.27291,-0.92942 -1.76912,-1.85187c1.32797,-0.25384 2.45322,-0.58223 3.58986,-0.81361c0.46215,0.6322 1.08157,0.95188 1.19513,1.91925c-1.12528,0.3282 -2.07056,0.53731 -3.01588,0.74623z" data-paper-data="{&quot;index&quot;:null}" fill="#5ba3a7"/><path d="M212.14846,271.38902c1.13664,-0.23138 2.22782,-0.85003 3.00624,0.82409c-2.35758,0.57081 -2.35757,0.57081 -3.00624,-0.82409z" data-paper-data="{&quot;index&quot;:null}" fill="#56999d"/><path d="M269.03323,284.228c0.53511,0.42754 0.50759,1.01925 0.08604,1.55909c-0.77014,0.875 -3.30286,0.78011 -4.05202,0.18142c-0.42808,-0.34194 -0.5303,-1.21269 0.00963,-1.57033c0.53993,-0.35763 1.18687,-0.62967 1.85653,-0.70829c0.95665,-0.1123 1.55335,0.01375 2.09982,0.5381z" data-paper-data="{&quot;index&quot;:null}" fill="#01f4f4"/><path d="M272.14204,291.70903c0.93391,-0.30593 1.82899,-0.11675 2.57815,0.48194c0.63077,0.4163 0.6373,1.29809 0.01308,1.76377c-0.97283,0.80065 -2.13217,0.83859 -3.24128,0.47844c-0.9064,-0.2858 -1.02479,-0.46802 -0.91949,-2.04955c0.46696,-0.15296 1.00689,-0.51059 1.56954,-0.67459z" data-paper-data="{&quot;index&quot;:null}" fill="#35a76d"/><path d="M236.63848,289.99237c0.73778,0.50169 0.64866,1.3949 -0.07124,1.87161c-0.4556,0.24978 -0.92258,0.40255 -1.49657,0.46993c-1.06366,0.02691 -2.11116,-0.63472 -2.10635,-1.41989c0.02752,-0.59173 1.01169,-1.29575 2.06401,-1.41929c0.47833,-0.05615 1.07502,0.06991 1.61016,0.49763z" data-paper-data="{&quot;index&quot;:null}" fill="#da6694"/><path d="M252.11529,289.64662c-0.86098,0.10108 -1.75605,-0.0881 -2.51656,-0.78343c-0.52374,-0.33071 -0.33896,-1.23516 0.30799,-1.5072c1.37821,-0.65214 2.81318,-0.82058 4.05855,0.70038c-0.26911,1.01228 -0.88199,1.57458 -1.84997,1.59027z" data-paper-data="{&quot;index&quot;:null}" fill="#01f001"/><path d="M249.41019,307.91155c-0.76532,0.08984 -1.45769,-0.02498 -1.99279,-0.45251c-0.21406,-0.17117 -0.33243,-0.35337 -0.45081,-0.53558c-0.12973,-0.27902 -0.06815,-0.5805 0.19616,-0.80763c0.70854,-0.57353 1.59224,-0.48115 2.36892,-0.47418c0.77666,0.00677 1.4188,0.5199 1.70098,1.27136c-0.48314,0.84132 -1.24846,0.93115 -1.82245,0.99853z" data-paper-data="{&quot;index&quot;:null}" fill="#008bda"/><path d="M243.89667,298.9475c-0.62903,1.25084 -0.80901,1.36992 -1.957,1.50468c-1.33931,0.15722 -2.27979,-0.41883 -2.91711,-1.71711c1.75433,-1.57884 2.92502,-1.52016 4.87411,0.21243z" data-paper-data="{&quot;index&quot;:null}" fill="#ebe502"/><path d="M280.33416,300.35845c0.40538,0.14851 0.81076,0.29722 0.87888,0.87752c-0.03889,0.49492 -0.29181,0.81884 -0.74741,1.06863c-0.63561,0.36867 -1.41228,0.36188 -2.20031,0.25829c-0.68102,-0.0182 -1.28909,-0.24106 -1.68964,-1.17475c1.21439,-1.2214 2.244,-1.53837 3.75848,-1.0297z" data-paper-data="{&quot;index&quot;:null}" fill="#f30001"/><path d="M262.76581,302.71501c0.75395,-0.18666 1.44634,-0.07164 2.17278,0.33343c0.6194,0.31948 0.6146,1.10465 -0.02099,1.47351c-0.63558,0.36886 -1.41228,0.36188 -2.20031,0.25829c-0.58536,-0.02943 -1.36201,-0.03622 -1.65557,-0.8845c0.93876,-1.09089 1.02307,-1.19894 1.7041,-1.18074z" data-paper-data="{&quot;index&quot;:null}" fill="#de93ad"/><path d="M257.80221,297.6094c-0.86098,0.10108 -1.57606,-0.20718 -2.31386,-0.70907c-0.54647,-0.52435 -0.51893,-1.11588 0.00963,-1.57033c0.70854,-0.57353 1.55817,-0.7714 2.35756,-0.571c0.89505,0.18918 1.70581,0.48641 2.14044,1.71033c-1.0458,1.00531 -1.22576,1.12458 -2.19377,1.14007z" data-paper-data="{&quot;index&quot;:null}" fill="#865492"/></g><g stroke="#000000"><path d="M272.69653,230.70314c18.15833,27.95699 14.76602,36.98736 7.98034,41.39472c-6.78569,4.40737 -27.0068,-14.68339 -45.16514,-42.6404c-18.15832,-27.957 53.28872,-17.43034 60.0744,-21.83771c7.09419,0.0258 4.88144,6.16594 -1.51512,10.73103c-7.88845,5.62983 -22.92658,9.9627 -21.37449,12.35236z" fill="#216aff" stroke-width="2"/><path d="M296.47558,245.12213c7.79402,11.99985 4.13417,28.20856 -8.1745,36.20315c-12.30867,7.99459 -28.60513,4.7477 -36.39915,-7.25216c-7.79402,-11.99985 -4.13416,-28.20857 8.17451,-36.20316c12.30867,-7.99459 28.60512,-4.74769 36.39914,7.25217z" fill="#faddbf" stroke-width="2"/><path d="M256.79397,256.98036c7.79402,11.99985 43.68001,15.41605 31.37134,23.41064c-12.30867,7.99459 -28.60513,4.7477 -36.39914,-7.25217c-7.79402,-11.99985 -2.76623,-28.15834 5.02778,-16.15848z" fill="#ef8b89" stroke-width="0"/></g></g></g></svg>