<svg version="1.1" xmlns="http://www.w3.org/2000/svg" xmlns:xlink="http://www.w3.org/1999/xlink" width="110.55202" height="110.55202" viewBox="0,0,110.55202,110.55202"><g transform="translate(-264.72399,-124.72399)"><g data-paper-data="{&quot;isPaintingLayer&quot;:true}" fill-rule="nonzero" stroke-linejoin="miter" stroke-miterlimit="10" stroke-dasharray="" stroke-dashoffset="0" style="mix-blend-mode: normal"><path d="M269.80793,163.73468c8.98309,-27.72031 38.73707,-42.90984 66.45739,-33.92675c27.72032,8.98309 42.90984,38.73708 33.92675,66.45739c-8.98309,27.72032 -38.73707,42.90984 -66.45739,33.92675c-27.72032,-8.98309 -42.90984,-38.73708 -33.92675,-66.45739z" fill="#001aff" stroke="#000000" stroke-width="5" stroke-linecap="butt"/><path d="M372.13259,183.38859l-18.53939,8.9509l-6.22942,-19.24401l-25.38587,5.59898l-10.24232,-18.05131l-22.24847,5.70909l-8.01464,-20.72912" fill="none" stroke="#000000" stroke-width="5" stroke-linecap="round"/><path d="M326.51056,186.05676l-11.87903,25.91954" fill="none" stroke="#000000" stroke-width="7.5" stroke-linecap="round"/><path d="M329.25963,215.75017l11.88388,-25.33804" fill="none" stroke="#000000" stroke-width="7.5" stroke-linecap="round"/><path d="M305.15393,183.04464l26.70351,2.36544" fill="none" stroke="#000000" stroke-width="5" stroke-linecap="round"/><path d="M336.66764,188.59417l19.65063,-0.19849" fill="none" stroke="#000000" stroke-width="5" stroke-linecap="round"/><path d="M303.83408,204.65075c-0.65069,0.36602 -6.50859,2.52115 -5.12072,4.19055c1.48437,1.78548 6.37072,-1.8882 6.37072,2.6608c0,3.74874 -9.17359,3.24353 -10.92351,0.49366c-2.58973,-4.06957 1.68072,-8.55214 4.54668,-10.69769c0.70938,-0.53106 4.31428,-2.44428 5.14567,-0.98936c0.73685,0.43488 1.23117,1.23698 1.23117,2.15454c0,0.81357 -0.38862,1.53638 -0.99036,1.99291c-0.07697,0.07451 -0.16278,0.14011 -0.25964,0.19459z" fill="#000000" stroke="none" stroke-width="0.5" stroke-linecap="butt"/></g></g></svg>