<svg version="1.1" xmlns="http://www.w3.org/2000/svg" xmlns:xlink="http://www.w3.org/1999/xlink" width="187.72188" height="331.07012" viewBox="0,0,187.72188,331.07012"><g transform="translate(-239.63619,-29.91729)"><g data-paper-data="{&quot;isPaintingLayer&quot;:true}" fill-rule="nonzero" stroke-linejoin="miter" stroke-miterlimit="10" stroke-dasharray="" stroke-dashoffset="0" style="mix-blend-mode: normal"><g data-paper-data="{&quot;index&quot;:null}" stroke="#000000" stroke-linecap="butt"><path d="M356.27416,218.78357c28.05169,-18.0117 37.06416,-14.57218 41.43593,-7.76351c4.37178,6.80867 -14.82459,26.92956 -42.87629,44.94127c-28.0517,18.0117 -17.15112,-53.37923 -21.52288,-60.18791c0.06294,-7.09397 6.19142,-4.8491 10.72296,1.57129c5.58845,7.91782 9.84253,22.97843 12.24029,21.43887z" fill="#216aff" stroke-width="2"/><path d="M370.81747,195.08034c12.04049,-7.73109 28.2298,-3.98642 36.15985,8.36394c7.93004,12.35036 4.59787,28.6296 -7.44263,36.36067c-12.04049,7.73109 -28.22981,3.98642 -36.15986,-8.36395c-7.93004,-12.35036 -4.59785,-28.62958 7.44263,-36.36067z" fill="#faddbf" stroke-width="2"/><path d="M382.46775,234.82348c12.04049,-7.73109 15.64453,-43.59872 23.57457,-31.24836c7.93004,12.35036 4.59787,28.6296 -7.44263,36.36067c-12.04049,7.73109 -28.17245,2.61877 -16.13194,-5.11232z" fill="#ef8b89" stroke-width="0"/></g><g stroke="#000000" stroke-linecap="butt"><path d="M327.76518,340.83535v-95.29492h29.49199v95.29492z" fill="#73fffc" stroke-width="2"/><path d="M327.43943,340.21742l1.32626,-93.78573c0,0 5.20288,68.11227 6.3799,77.52842c0.2602,2.08162 2.52228,2.78987 2.52228,2.78987l18.60659,13.13896z" fill="#59a9e6" stroke-width="0"/></g><g stroke="#000000" stroke-linecap="butt"><path d="M288.4238,338.4128v-95.29492h29.49199v95.29492z" fill="#73fffc" stroke-width="2"/><path d="M288.09805,337.7949l1.32626,-93.78573c0,0 5.20288,68.11227 6.3799,77.52842c0.2602,2.08162 2.52228,2.78987 2.52228,2.78987l18.60659,13.13896z" fill="#59a9e6" stroke-width="0"/></g><g stroke="#000000" stroke-linecap="butt"><path d="M355.22917,235.69588c0,13.80271 10.04743,36.74388 4.95001,46.45977c-6.2338,11.88187 -28.61241,9.09579 -38.9397,9.09579c-13.66287,0 -32.94407,4.17018 -38.34426,-14.83216c-2.01935,-7.10576 4.35457,-32.37264 4.35457,-40.7234c0,-30.68249 15.2177,-55.55556 33.98969,-55.55556c18.77199,0 33.98969,24.87307 33.98969,55.55556z" fill="#216aff" stroke-width="2"/><path d="M303.96554,251.27246c0,13.80271 62.04198,20.54886 56.94455,30.26474c-6.2338,11.88186 -28.61241,9.09579 -38.9397,9.09579c-13.66287,0 -32.94406,4.17018 -38.34425,-14.83215c-2.01936,-7.10576 4.35457,-32.37265 4.35457,-40.7234c0,-9.45244 3.34855,-28.59801 5.51953,-29.96813c5.94391,-16.76415 10.4653,25.13995 10.4653,46.16315z" fill="#3236f4" stroke-width="0"/></g><g stroke="#000000" stroke-linecap="butt"><g><path d="M243.04595,113.23764c2.87514,-46.70237 43.06566,-82.23135 89.76803,-79.35622c46.70237,2.87514 82.23136,43.06566 79.35623,89.76803c-2.87514,46.70237 -43.06566,82.23136 -89.76803,79.35623c-46.70237,-2.87514 -82.23136,-43.06566 -79.35623,-89.76803z" fill="#faddbf" stroke-width="2"/><path d="M243.32971,112.38395c0.92503,-15.02584 11.16092,-40.40171 15.85895,-43.33274c0.53653,-0.33474 6.323,-8.53789 14.242,-14.77962c9.84278,-7.75804 22.20576,-13.81805 22.80327,-13.58383c7.79568,3.05581 -21.47854,63.65542 -21.79596,88.97369c-0.00077,0.06037 3.18853,19.93517 4.77698,20.4727c2.58864,4.91081 7.9168,19.67701 18.3388,27.47228c19.42264,14.52739 47.6401,22.65026 46.12854,23.06388c-2.41796,0.66166 -14.9449,1.85422 -20.99635,1.48168c-46.70237,-2.87514 -82.23136,-43.06566 -79.35623,-89.76803z" fill="#ef8b89" stroke-width="0"/><path d="M411.6759,123.15994c-0.71428,11.60237 -2.53595,15.5142 -2.97318,13.63206c-0.44606,-1.92014 0.41669,-9.80655 -8.12535,-15.17721c-2.0699,-1.30141 -10.5726,5.63706 -13.21958,4.24363c-1.66261,-0.87523 -8.01054,-10.68795 -9.87907,-11.4803c-1.30643,-0.55399 -12.94136,7.59672 -14.31056,7.06092c-3.41486,-1.33629 -11.26698,-12.08872 -14.97067,-12.97598c-2.03951,-0.4886 -9.99339,11.25699 -12.08283,10.87402c-2.6946,-0.49388 -9.30803,-12.66431 -12.04025,-12.83251c-7.2661,-0.44732 -7.89643,6.53794 -13.49341,12.21096c-3.63705,3.68647 -13.15999,-13.88676 -16.55042,-9.65189c-4.21053,5.2592 -8.37005,10.3229 -12.82425,13.65513c-3.49448,2.61426 -12.71848,-10.89897 -15.74989,-8.46286c-14.63648,11.76221 -23.45001,19.23915 -22.33342,1.10165c2.24527,-36.4711 43.71053,-5.53809 86.73678,-24.45174c41.18429,-18.10396 84.06142,-4.21698 81.81614,32.25413z" fill="#ef8b89" stroke-width="0"/></g><path d="M413.71755,114.959c-1.44297,23.43897 5.98383,9.10019 -11.39226,-1.56324c-2.12633,-1.30489 -10.84093,5.62053 -13.55963,4.2227c-1.70766,-0.87801 -8.23803,-10.70197 -10.15686,-11.4974c-1.34162,-0.55616 -13.26869,7.57657 -14.67467,7.03851c-3.50663,-1.34194 -11.58218,-12.10811 -15.38449,-13.00146c-2.09382,-0.49193 -10.23743,11.24196 -12.38233,10.85558c-2.7661,-0.49827 -9.57274,-12.68061 -12.37693,-12.85324c-7.4575,-0.4591 -8.09308,6.52582 -13.82777,12.19037c-3.72654,3.68096 -13.52776,-13.9094 -17.00032,-9.67958c-4.31251,5.25293 -8.57302,10.31041 -13.1387,13.63578c-3.58195,2.60888 -13.06984,-10.92061 -16.17685,-8.48915c-15.00156,11.73974 -24.0343,19.20318 -22.91771,1.06569c2.24527,-36.4711 44.78029,-78.65399 90.62035,-75.83194c45.84004,2.82205 84.6135,47.43629 82.36824,83.90739z" fill="#724e36" stroke-width="2"/><path d="M413.54174,113.7832c-1.44297,23.43897 5.98383,9.10019 -11.39227,-1.56323c-2.12633,-1.30489 -10.84093,5.62053 -13.55963,4.2227c-1.70766,-0.87801 -8.23803,-10.70197 -10.15687,-11.4974c-1.34162,-0.55616 -13.26869,7.57657 -14.67467,7.03851c-3.50663,-1.34194 -11.58218,-12.10811 -15.38449,-13.00146c-2.09382,-0.49193 -10.23743,11.24196 -12.38233,10.85558c-2.7661,-0.49827 -9.57274,-12.68061 -12.37693,-12.85325c-7.4575,-0.4591 -8.09309,6.52583 -13.82777,12.19038c-3.72654,3.68096 -13.52776,-13.9094 -17.00032,-9.67958c-4.31251,5.25293 -8.57301,10.31041 -13.13871,13.63578c-3.58195,2.60888 -13.06984,-10.92061 -16.17685,-8.48914c-15.00156,11.73974 -24.0343,19.20317 -22.91771,1.06569c2.24527,-36.4711 44.8486,-5.46802 88.97335,-24.31405c42.23578,-18.03922 86.26048,-4.0816 84.01522,32.3895z" fill="#623728" stroke-width="0"/></g><g stroke="#000000" stroke-linecap="butt"><path d="M362.49035,147.62982c-1.75485,28.50497 -15.80341,42.39853 -32.34064,41.38044c-16.53723,-1.01808 -29.30083,-16.56228 -27.54598,-45.06724c1.75485,-28.50497 16.58353,-50.78749 33.12075,-49.76942c16.53723,1.01808 28.52072,24.95124 26.76587,53.45622z" fill="#f0f0f0" stroke-width="2"/><path d="M317.02625,125.21144c-6.02928,27.91523 30.34653,64.02728 13.8093,63.0092c-16.53723,-1.01808 -29.30083,-16.56228 -27.54598,-45.06724c1.75485,-28.50497 22.45324,-58.29914 13.73669,-17.94196z" fill="#9a99ff" stroke-width="0"/></g><path d="M362.09357,155.60781c-0.97223,15.79232 -6.44042,28.3064 -12.21354,27.95098c-5.77312,-0.35541 -9.66504,-13.44572 -8.69281,-29.23804c0.97223,-15.79232 6.44042,-28.3064 12.21354,-27.95098c5.77312,0.35541 9.66504,13.44572 8.69281,29.23804z" fill="#000000" stroke="none" stroke-width="0" stroke-linecap="butt"/><g stroke="#000000" stroke-linecap="butt"><path d="M359.33605,117.34409c3.82244,10.48449 -10.74687,13.48675 -26.42744,12.52141c-15.68058,-0.96535 -26.84338,-6.30288 -21.71634,-15.62068c4.87831,-8.86572 8.09304,-20.96125 23.77361,-19.9959c15.68058,0.96535 20.72733,13.1033 24.37017,23.09516z" fill="#a100fe" stroke-width="2"/><path d="M358.4353,116.93372c3.67068,10.47515 -10.41002,13.50748 -25.55592,12.57505c-15.1459,-0.93243 -25.91837,-6.24594 -20.946,-15.57326c4.73114,-8.87479 6.48673,1.3632 21.63263,2.29563c15.1459,0.93243 21.37108,-9.28039 24.86928,0.70256z" fill="#99008e" stroke-width="0"/></g><g data-paper-data="{&quot;index&quot;:null}" stroke="#000000" stroke-linecap="butt"><path d="M399.4216,96.61356c16.53723,1.01808 28.52073,24.95124 26.76588,53.45622c-1.75485,28.50496 -16.32874,42.36618 -32.86597,41.3481c-16.53723,-1.01808 -28.77552,-16.52993 -27.02066,-45.0349c1.75485,-28.50497 16.58353,-50.78749 33.12075,-49.76942z" fill="#f0f0f0" stroke-width="2"/><path d="M425.60367,149.20199c-1.75485,28.50496 -16.32874,42.36618 -32.86597,41.3481c-16.53723,-1.01808 23.99343,-32.39553 21.4338,-60.83953c-3.70047,-41.12162 13.18702,-9.01355 11.43217,19.49144z" fill="#9a99ff" stroke-width="0"/></g><path d="M417.16109,129.68168c5.77312,0.35541 9.66504,13.44573 8.69282,29.23804c-0.97223,15.79232 -6.44042,28.3064 -12.21354,27.95098c-5.77312,-0.35541 -9.66504,-13.44573 -8.69281,-29.23804c0.97223,-15.79232 6.44041,-28.3064 12.21354,-27.95098z" data-paper-data="{&quot;index&quot;:null}" fill="#000000" stroke="none" stroke-width="0" stroke-linecap="butt"/><g data-paper-data="{&quot;index&quot;:null}" stroke="#000000" stroke-linecap="butt"><path d="M373.14622,116.71283c4.84094,-9.46958 11.33845,-20.89683 27.01902,-19.93149c15.68058,0.96535 17.38737,13.36384 21.14135,22.761c3.94539,9.87632 -7.78782,13.80431 -23.46839,12.83897c-15.68058,-0.96535 -29.77162,-5.73201 -24.69199,-15.66847z" fill="#a100fe" stroke-width="2"/><path d="M374.09051,116.41605c4.69631,-9.47848 9.62176,1.42081 24.76766,2.35324c15.1459,0.93243 18.14404,-9.01291 21.75085,0.37519c3.79072,9.86679 -7.55215,13.81882 -22.69805,12.88639c-15.1459,-0.93243 -28.74832,-5.66901 -23.82047,-15.61481z" fill="#99008e" stroke-width="0"/></g><path d="M391.63632,338.87004c0,11.6628 -14.51982,21.11737 -32.43092,21.11737c-17.9111,0 -32.43092,-9.45457 -32.43092,-21.11737c0,-2.33142 -0.03339,-13.76009 1.08979,-15.13837c4.49546,-5.51647 17.81784,5.26144 32.14847,5.26144c17.9111,0 31.62358,-1.78588 31.62358,9.87692z" fill="#000082" stroke="#000000" stroke-width="2" stroke-linecap="butt"/><path d="M389.75004,336.13774c0,6.30841 -13.89058,10.1901 -31.80169,10.1901c-17.9111,0 -30.16566,-2.95748 -30.16566,-9.26589c0,-1.26107 -0.03338,-12.52602 1.0898,-13.27153c4.49546,-2.98386 15.55258,5.7726 29.88321,5.7726c17.9111,0 30.99434,0.26631 30.99434,6.57472z" fill="#2e0048" stroke="#000000" stroke-width="0" stroke-linecap="butt"/><path d="M348.64938,338.22521c0,11.6628 -14.51982,21.11737 -32.43092,21.11737c-17.9111,0 -32.43092,-9.45457 -32.43092,-21.11737c0,-2.33142 -0.03339,-13.76009 1.08979,-15.13837c4.49546,-5.51647 17.81784,5.26144 32.14847,5.26144c17.9111,0 31.62358,-1.78588 31.62358,9.87692z" fill="#000082" stroke="#000000" stroke-width="2" stroke-linecap="butt"/><path d="M346.7631,335.49289c0,6.30841 -13.89058,10.1901 -31.80169,10.1901c-17.9111,0 -30.16566,-2.95748 -30.16566,-9.26589c0,-1.26107 -0.03338,-12.52602 1.0898,-13.27153c4.49546,-2.98386 15.55258,5.7726 29.88321,5.7726c17.9111,0 30.99434,0.26631 30.99434,6.57472z" fill="#2e0048" stroke="#000000" stroke-width="0" stroke-linecap="butt"/><g><path d="M310.6701,260.01779c-15.07713,-0.55064 -23.60605,-8.45428 -23.75729,-23.39037c-0.11832,-11.68165 12.94203,-24.22961 28.01919,-23.67898c15.0772,0.55062 25.67405,10.69313 25.12894,25.62001c-0.08524,2.33428 -0.85671,4.46326 -1.54313,6.41434c-3.7031,10.5251 -15.12833,15.49953 -27.84769,15.035z" fill="#485e84" stroke="#000000" stroke-width="2" stroke-linecap="butt"/><path d="M301.95836,217.56034c0,0 -0.65041,5.71909 0.90884,6.97692c14.95658,12.06543 28.91421,13.61546 33.56976,13.77581c1.05773,0.03643 1.66847,-0.90582 1.66847,-0.90582c0,0 0.14512,2.1088 -0.54551,4.76155c-0.73488,2.82275 -2.36813,6.26315 -4.48171,8.49427c-2.41432,2.54855 -9.51385,6.91952 -9.51385,6.91952l-20.79805,2.50986c0,0 -9.97434,-9.02593 -10.98147,-10.94494c-0.98667,-1.87999 -1.61499,-4.38756 -2.39034,-7.02684c-1.20383,-4.09785 -0.89095,-8.62653 0.10766,-11.32793c1.27448,-3.4476 4.21423,-7.06834 7.09564,-9.57031c2.6817,-2.32855 5.36058,-3.66195 5.36058,-3.66195z" fill="#343545" stroke="none" stroke-width="0" stroke-linecap="butt"/><path d="M303.42876,241.95311c0,0 -1.5457,-8.8887 0.84547,-13.45624c3.02695,-5.78204 12.00501,-15.13602 12.00501,-15.13602" fill="none" stroke="#000000" stroke-width="1" stroke-linecap="round"/><path d="M338.68013,231.61593c0,0 -1.76157,6.93013 -3.78393,10.72246c-2.04163,3.82856 -9.3325,10.23138 -9.3325,10.23138" fill="none" stroke="#000000" stroke-width="1" stroke-linecap="round"/><path d="M292.79536,244.65257c0,0 -1.72294,-9.10042 1.09233,-13.92982c4.31996,-7.41054 11.99256,-16.10692 11.99256,-16.10692" fill="none" stroke="#000000" stroke-width="1" stroke-linecap="round"/><path d="M289.1599,229.80734c0,0 14.09202,-10.04441 30.54656,-4.31802c18.02387,6.27254 17.06797,23.49395 17.06797,23.49395" fill="none" stroke="#000000" stroke-width="1" stroke-linecap="round"/><path d="M287.54568,239.19347c0,0 15.99747,-7.80662 30.52815,-2.78477c11.93101,4.12342 12.48277,18.70473 12.48277,18.70473" fill="none" stroke="#000000" stroke-width="1" stroke-linecap="round"/><path d="M327.60524,221.69327c-1.0017,-0.66619 -1.38614,-1.84907 -0.85877,-2.64203c0.52734,-0.79303 1.20286,-0.37151 2.20455,0.29468c1.0017,0.66619 1.9502,1.32476 1.42283,2.11775c-0.52734,0.79303 -1.76695,0.8958 -2.76859,0.22961z" fill="#8fbbbe" stroke="none" stroke-width="0" stroke-linecap="butt"/><path d="M333.05445,226.50628c-0.60109,-0.02197 -1.06167,-0.77065 -1.02873,-1.67227c0.03293,-0.90163 0.17085,-1.2652 0.77193,-1.24328c0.60109,0.02197 1.24308,0.77727 1.21011,1.67889c-0.03293,0.90163 -0.35227,1.25859 -0.95332,1.23663z" fill="#8fbbbe" stroke="none" stroke-width="0" stroke-linecap="butt"/><path d="M321.8091,217.91589c-0.89302,-0.12883 -1.54726,-0.7158 -1.4614,-1.31112c0.08583,-0.59528 0.8595,-0.42933 1.75248,-0.30055c0.89302,0.12883 1.56713,0.1716 1.48129,0.76693c-0.08583,0.59528 -0.87939,0.97353 -1.77239,0.84472z" fill="#8fbbbe" stroke="none" stroke-width="0" stroke-linecap="butt"/><path d="M298.063,219.77937c0,0 9.79221,-2.96518 17.34266,-2.32454c4.28073,0.36323 7.92819,2.16112 10.67823,3.55518c2.43201,1.2328 6.6627,6.26538 9.50009,10.45437c2.08901,3.08411 3.2536,5.78794 3.2536,5.78794" fill="none" stroke="#000000" stroke-width="0.5" stroke-linecap="round"/><path d="M332.25096,218.6667c0,0 -0.79179,10.54282 -3.1393,15.41174c-1.97781,4.10218 -9.66484,11.91074 -9.66484,11.91074" fill="none" stroke="#000000" stroke-width="1" stroke-linecap="round"/><path d="M313.8833,244.15127c0,0 0.83142,-9.63 2.3431,-13.89212c2.65419,-7.48346 10.14459,-14.71333 10.14459,-14.71333" fill="none" stroke="#000000" stroke-width="1" stroke-linecap="round"/></g><g stroke="#000000" stroke-linecap="butt"><path d="M290.17739,242.9118c31.378,11.25787 34.14515,20.49898 31.41267,28.115c-2.7325,7.61604 -30.38452,4.66372 -61.76252,-6.59417c-31.37799,-11.25788 31.86034,-46.13482 34.59285,-53.75085c5.66195,-4.2744 7.61814,1.95222 5.29084,9.4582c-2.87009,9.25663 -12.21589,21.80952 -9.53382,22.77182z" fill="#216aff" stroke-width="2"/><path d="M317.83284,239.99177c13.46824,4.83216 20.36834,19.94855 15.41182,33.76338c-4.95652,13.81484 -19.89274,21.09675 -33.36098,16.26458c-13.46824,-4.83216 -20.36835,-19.94856 -15.41181,-33.7634c4.95652,-13.81484 19.89275,-21.09673 33.36097,-16.26457z" fill="#faddbf" stroke-width="2"/><path d="M293.42907,273.45373c13.46824,4.83216 44.09844,-14.17483 39.14192,-0.35999c-4.95652,13.81484 -19.89274,21.09675 -33.36097,16.26457c-13.46824,-4.83216 -19.24919,-20.73676 -5.78095,-15.90459z" fill="#ef8b89" stroke-width="0"/></g><path d="M288.691,159.5106c-0.00241,0.61208 -0.30835,1.10606 -0.30835,1.10606c-0.3599,0.57339 -1.57181,2.21868 -1.65671,3.15556c-0.15673,1.72958 2.07892,3.24998 2.78897,4.56282c1.04829,1.93824 1.73886,5.92664 0.49729,7.92785c-2.30079,3.70851 -7.98005,3.28879 -10.52236,0.38891c-3.72899,-4.25344 -3.26985,-11.13242 -3.63666,-16.3139c-0.00629,-0.92853 -0.13386,-4.4532 0.32278,-5.23075c1.67714,-2.85577 8.07734,-4.63802 10.85384,-2.32511c1.58023,1.31638 1.48621,3.50142 1.62886,5.25748l0.09918,0.4039c0,0 0.10608,0.51939 -0.06685,1.06718z" fill="#000000" stroke="none" stroke-width="0.5" stroke-linecap="butt"/></g></g></svg>