<svg version="1.1" xmlns="http://www.w3.org/2000/svg" xmlns:xlink="http://www.w3.org/1999/xlink" width="176.18865" height="309.66796" viewBox="0,0,176.18865,309.66796"><g transform="translate(-241.84955,-36.83802)"><g data-paper-data="{&quot;isPaintingLayer&quot;:true}" fill-rule="nonzero" stroke-linecap="butt" stroke-linejoin="miter" stroke-miterlimit="10" stroke-dasharray="" stroke-dashoffset="0" style="mix-blend-mode: normal"><g data-paper-data="{&quot;index&quot;:null}" stroke="#000000"><path d="M295.24995,260.53409c5.50389,-32.87897 16.43501,-58.44969 24.41535,-57.11379c7.98034,1.3359 9.98788,29.07253 4.48399,61.95149c-5.5039,32.87896 -16.43501,58.44968 -24.41535,57.11378c-7.98034,-1.3359 -9.98789,-29.07253 -4.48399,-61.95149z" fill="#0d69be" stroke-width="2"/><path d="M274.48871,304.04736c2.36242,-14.11248 16.01237,-23.58853 30.48805,-21.16531c14.47568,2.42322 24.29542,15.82803 21.93301,29.94052c-2.3624,14.11249 -16.01237,23.58851 -30.48804,21.16531c-14.47568,-2.42322 -24.29542,-15.82804 -21.93301,-29.94052z" fill="#faddbf" stroke-width="2"/><path d="M326.6617,311.91167c-2.36241,14.11248 -16.01237,23.5885 -30.48804,21.1653c-14.47568,-2.42321 17.07145,-19.86611 19.43386,-33.9786c2.36241,-14.11249 13.41659,-1.29919 11.05418,12.8133z" fill="#ef8b89" stroke-width="0"/></g><g data-paper-data="{&quot;index&quot;:null}" stroke="#000000"><path d="M333.41825,185.14028c18.77199,0 33.98969,24.87307 33.98969,55.55556c0,8.35076 6.37392,33.61764 4.35457,40.7234c-5.40019,19.00234 -24.68139,14.83216 -38.34426,14.83216c-10.32729,0 -32.7059,2.78608 -38.9397,-9.09579c-5.09742,-9.71589 4.95001,-32.65706 4.95001,-46.45977c0,-30.68249 15.2177,-55.55556 33.98969,-55.55556z" fill="#216aff" stroke-width="2"/><path d="M361.15749,210.10931c2.17098,1.37012 5.51953,20.51569 5.51953,29.96813c0,8.35075 6.37393,33.61764 4.35457,40.7234c-5.40019,19.00233 -24.68138,14.83215 -38.34425,14.83215c-10.32729,0 -32.7059,2.78607 -38.9397,-9.09579c-5.09743,-9.71588 56.94455,-16.46203 56.94455,-30.26474c0,-21.0232 4.52139,-62.9273 10.4653,-46.16315z" fill="#3236f4" stroke-width="0"/></g><g stroke="#000000"><g><path d="M414.40565,124.347c0.53052,46.78778 -36.9684,85.14685 -83.75618,85.67737c-46.78778,0.53052 -85.14685,-36.9684 -85.67737,-83.75618c-0.53052,-46.78778 36.9684,-85.14685 83.75618,-85.67738c46.78778,-0.53052 85.14686,36.9684 85.67738,83.75618z" fill="#faddbf" stroke-width="2"/><path d="M414.16503,123.48018c0.53052,46.78778 -36.9684,85.14685 -83.75618,85.67737c-6.06252,0.06874 -18.51392,-1.75025 -20.89568,-2.53227c-1.48893,-0.48889 27.10022,-7.18712 47.22664,-20.72266c10.79966,-7.26306 16.86128,-21.74362 19.69283,-26.5185c1.61341,-0.45724 5.79492,-20.14718 5.79719,-20.20752c0.95209,-25.30235 -25.24772,-87.29319 -17.30866,-89.95438c0.6085,-0.20397 12.65217,6.46812 22.0937,14.70979c7.59619,6.63082 12.96419,15.11373 13.48326,15.47494c4.54519,3.16284 13.49623,29.0199 13.66692,44.07322z" fill="#ef8b89" stroke-width="0"/><path d="M245.49031,125.80407c-0.41431,-36.5378 43.10503,-48.25806 83.33006,-28.11245c42.0241,21.04662 84.98778,-7.76903 85.40207,28.76877c0.20603,18.17067 -8.22163,10.26135 -22.25012,-2.21975c-2.90549,-2.585 -12.79526,10.4489 -16.15431,7.66275c-4.28158,-3.55132 -8.18203,-8.81715 -12.12365,-14.2808c-3.1739,-4.3995 -13.56574,12.6743 -17.01343,8.81016c-5.30559,-5.94644 -5.58499,-12.95452 -12.86437,-12.87198c-2.73722,0.03104 -9.95239,11.85466 -12.66835,12.21285c-2.10601,0.27775 -9.46112,-11.85176 -11.52257,-11.46601c-3.74351,0.70051 -12.12474,11.0458 -15.60229,12.20925c-1.39434,0.46649 -12.60607,-8.25719 -13.93863,-7.76938c-1.90589,0.69768 -8.73772,10.17987 -10.44211,10.97067c-2.7135,1.25899 -10.85771,-6.09696 -12.99025,-4.90093c-8.80051,4.93572 -8.33416,12.85547 -8.87591,14.75083c-0.53102,1.85786 -2.15433,-2.14036 -2.28612,-13.76395z" fill="#ef8b89" stroke-width="0"/></g><path d="M243.86229,117.51114c-0.41431,-36.5378 40.54675,-79.1524 86.47063,-79.67312c45.92389,-0.52073 86.29098,43.74125 86.70528,80.27905c0.20603,18.17066 -8.44125,10.26383 -22.83549,-2.21312c-2.98123,-2.58415 -13.13537,10.45273 -16.58205,7.66759c-4.39327,-3.55004 -8.39489,-8.81472 -12.43868,-14.27722c-3.25618,-4.39856 -13.92681,12.67838 -17.46416,8.81525c-5.44355,-5.94488 -5.72822,-12.95289 -13.19934,-12.86818c-2.80931,0.03186 -10.21805,11.85769 -13.00565,12.21668c-2.16157,0.27838 -9.70678,-11.84898 -11.82262,-11.46262c-3.84231,0.70161 -12.44737,11.04946 -16.01685,12.21395c-1.4312,0.4669 -12.93562,-8.25346 -14.30342,-7.76525c-1.95629,0.69826 -8.97088,10.18252 -10.7204,10.97382c-2.78535,1.25981 -11.14186,-6.09375 -13.33093,-4.89708c-17.88876,9.77903 -11.19003,24.47204 -11.45629,0.99022z" fill="#724e36" stroke-width="2"/><path d="M244.09684,116.3456c-0.41431,-36.5378 44.25471,-48.2711 85.53315,-28.13744c43.12461,21.03415 87.22845,-7.79443 87.64274,28.74337c0.20603,18.17066 -8.44124,10.26383 -22.83548,-2.21312c-2.98123,-2.58415 -13.13537,10.45273 -16.58205,7.66759c-4.39327,-3.55004 -8.3949,-8.81472 -12.43869,-14.27722c-3.25618,-4.39856 -13.9268,12.67838 -17.46415,8.81525c-5.44355,-5.94488 -5.72822,-12.95289 -13.19934,-12.86818c-2.80931,0.03185 -10.21805,11.85768 -13.00565,12.21667c-2.16157,0.27838 -9.70677,-11.84896 -11.82261,-11.46261c-3.84232,0.70161 -12.44737,11.04945 -16.01686,12.21394c-1.4312,0.4669 -12.93562,-8.25346 -14.30342,-7.76525c-1.9563,0.69825 -8.97089,10.18252 -10.72041,10.97382c-2.78535,1.25981 -11.14186,-6.09374 -13.33093,-4.89707c-17.88877,9.77903 -11.19004,24.47204 -11.4563,0.99022z" fill="#623728" stroke-width="0"/></g><g data-paper-data="{&quot;index&quot;:null}" stroke="#000000"><path d="M320.05369,154.15941c-0.32382,-28.55711 12.84428,-51.8595 29.41176,-52.04736c16.56748,-0.18786 30.26057,22.80995 30.58438,51.36706c0.32382,28.5571 -13.20291,43.44196 -29.77039,43.62981c-16.56748,0.18785 -29.90194,-14.39242 -30.22575,-42.94952z" fill="#f0f0f0" stroke-width="2"/><path d="M379.40445,152.65612c0.32381,28.5571 -13.20291,43.44197 -29.77039,43.62982c-16.56748,0.18786 21.57275,-34.05541 16.95033,-62.23779c-6.68266,-40.74338 12.49624,-9.94914 12.82005,18.60797z" fill="#9a99ff" stroke-width="0"/></g><path d="M324.04123,162.34798c-0.17939,-15.8212 4.36378,-28.69998 10.14747,-28.76556c5.78369,-0.06557 10.61772,12.70687 10.79712,28.52806c0.17939,15.82119 -4.36378,28.69997 -10.14747,28.76555c-5.78369,0.06557 -10.61772,-12.70687 -10.79712,-28.52806z" data-paper-data="{&quot;index&quot;:null}" fill="#000000" stroke="none" stroke-width="0"/><g data-paper-data="{&quot;index&quot;:null}" stroke="#000000"><path d="M324.72215,124.06986c4.13912,-9.7967 9.78795,-21.66642 25.4972,-21.84456c15.70924,-0.17812 18.31363,12.06332 22.7414,21.16244c4.65353,9.56307 -28.83737,47.12476 -44.54662,47.30288c-15.70926,0.17813 -8.03518,-36.34104 -3.692,-46.62075z" fill="#a100fe" stroke-width="2"/><path d="M325.64235,123.70515c3.99421,-9.79506 9.69963,0.71696 24.87324,0.54491c15.1736,-0.17205 17.44018,-10.30915 21.7205,-1.20837c4.49857,9.56483 -28.37926,47.27363 -43.55287,47.44568c-15.1736,0.17205 -7.23203,-36.50422 -3.0409,-46.78221z" fill="#99008e" stroke-width="0"/></g><g data-paper-data="{&quot;index&quot;:null}" stroke="#000000"><path d="M285.73112,101.79736c16.56747,-0.18785 30.26057,22.80995 30.58438,51.36706c0.32381,28.55711 -12.67662,43.436 -29.2441,43.62386c-16.56747,0.18786 -30.42823,-14.38646 -30.75204,-42.94356c-0.32382,-28.55711 12.84428,-51.85949 29.41176,-52.04735z" fill="#f0f0f0" stroke-width="2"/><path d="M269.34074,134.11341c-3.9822,28.27993 34.92469,61.64958 18.35721,61.83743c-16.56747,0.18785 -30.42823,-14.38646 -30.75204,-42.94356c-0.32381,-28.5571 18.15191,-59.77831 12.39482,-18.89388z" fill="#9a99ff" stroke-width="0"/></g><path d="M271.50389,134.10909c5.78369,-0.06557 10.61772,12.70687 10.79712,28.52806c0.1794,15.82119 -4.36378,28.69997 -10.14747,28.76555c-5.78369,0.06557 -10.61773,-12.70687 -10.79713,-28.52806c-0.17939,-15.8212 4.36379,-28.69998 10.14748,-28.76556z" data-paper-data="{&quot;index&quot;:null}" fill="#000000" stroke="none" stroke-width="0"/><g data-paper-data="{&quot;index&quot;:null}" stroke="#000000"><path d="M310.96599,123.18846c4.57516,10.17858 11.46316,50.43646 -4.24609,50.61458c-15.70925,0.17812 -48.43109,-40.5366 -43.99559,-50.20272c4.22031,-9.19717 6.54644,-21.49452 22.25569,-21.67265c15.70926,-0.17813 21.62579,11.56045 25.98597,21.26078z" fill="#a100fe" stroke-width="2"/><path d="M310.03774,122.84471c4.42311,10.18032 12.1268,50.43263 -3.04681,50.60468c-15.1736,0.17205 -47.83054,-40.5471 -43.55,-50.21148c4.07288,-9.19551 6.56872,0.8876 21.74232,0.71555c15.1736,-0.17205 20.6392,-10.81074 24.85449,-1.10877z" fill="#99008e" stroke-width="0"/></g><path d="M384.90893,160.8951c0.99993,-0.01134 1.01127,0.9886 1.01127,0.9886l-0.00284,0.11222c0.42442,4.14696 0.47412,8.63468 3.12241,12.08024c2.27061,3.98013 3.03309,0.59482 3.0011,-2.22676c-0.0474,-4.18007 -0.82847,-8.0566 -2.0243,-12.0688c0,0 -0.28561,-0.95835 0.67274,-1.24396c0.95835,-0.28561 1.24396,0.67274 1.24396,0.67274c1.31737,4.42083 3.58647,11.63213 1.99684,16.27825c-1.41046,4.12243 -4.93094,2.54412 -6.55597,-0.30435c-2.85915,-3.72705 -2.9875,-8.50071 -3.4464,-12.98373l-0.00744,-0.29319c0,0 -0.01132,-0.99993 0.98861,-1.01127z" data-paper-data="{&quot;index&quot;:null}" fill="#000000" stroke="none" stroke-width="0.5"/><g data-paper-data="{&quot;index&quot;:null}" stroke="#000000"><path d="M340.90381,274.02358c-1.69708,-33.29323 3.478,-60.61666 11.55889,-61.02857c8.08088,-0.41191 16.00749,26.24366 17.70457,59.53689c1.69708,33.29323 -3.47801,60.61665 -11.5589,61.02857c-8.08088,0.41191 -16.00749,-26.24367 -17.70457,-59.5369z" fill="#216aff" stroke-width="2"/><path d="M355.20991,293.75624c14.65806,-0.74717 27.13127,10.23169 27.8597,24.52199c0.72843,14.2903 -10.56377,26.48057 -25.22183,27.22775c-14.65806,0.74717 -27.13127,-10.2317 -27.8597,-24.52199c-0.72843,-14.29029 10.56376,-26.48058 25.22183,-27.22775z" fill="#faddbf" stroke-width="2"/><path d="M369.0799,307.30635c-0.72844,-14.2903 12.82309,-4.15464 13.55152,10.13566c0.72842,14.2903 -10.56377,26.48057 -25.22183,27.22775c-14.65807,0.74717 12.39873,-23.07311 11.6703,-37.36341z" fill="#ef8b89" stroke-width="0"/></g></g></g></svg>