<svg version="1.1" xmlns="http://www.w3.org/2000/svg" xmlns:xlink="http://www.w3.org/1999/xlink" width="213.74872" height="330.46103" viewBox="0,0,213.74872,330.46103"><g transform="translate(-226.20136,-15.119)"><g data-paper-data="{&quot;isPaintingLayer&quot;:true}" fill-rule="nonzero" stroke-linecap="butt" stroke-linejoin="miter" stroke-miterlimit="10" stroke-dasharray="" stroke-dashoffset="0" style="mix-blend-mode: normal"><g data-paper-data="{&quot;index&quot;:null}" stroke="#000000"><path d="M438.6637,50.43819l-16.79279,45.03115l-47.78305,-17.81902l16.79279,-45.03115z" fill="#ffcaa0" stroke-width="2"/><g><path d="M422.40016,95.47429l-23.15542,62.09302l-48.40585,-18.05127l23.15542,-62.09302z" fill="#0000c0" stroke-width="2"/><path d="M374.76527,77.48374c0,0 15.88643,5.92429 23.76644,8.86286c7.79662,2.90748 23.2661,8.67628 23.2661,8.67628l-12.12813,32.5225c0,0 -11.8598,-19.81073 -19.47912,-22.65209c-8.036,-2.99674 -27.55341,5.11295 -27.55341,5.11295l12.12812,-32.52249z" fill="#56006b" stroke-width="0"/></g><path d="M439.21436,51.22448l-40.93559,1.26239l-23.64025,25.94974l16.79279,-45.03115z" fill="#ff6e5b" stroke-width="0"/></g><g data-paper-data="{&quot;index&quot;:null}" stroke="#000000"><path d="M249.63811,35.75934c14.58386,-1.48971 29.05943,23.27503 32.33209,55.31359c3.27266,32.03856 -5.89687,59.21858 -20.48074,60.70829c-14.58386,1.48971 -29.05943,-23.27503 -32.33209,-55.31359c-3.27266,-32.03856 5.89687,-59.21858 20.48074,-60.70829z" fill="#01930e" stroke-width="2"/><path d="M281.5263,90.68185c3.27266,32.03856 -5.89688,59.21858 -20.48074,60.70829c-14.58385,1.48971 14.04358,-37.34223 10.77092,-69.38078c-3.27266,-32.03856 6.43716,-23.36606 9.70982,8.67249z" fill="#31525b" stroke-width="0"/></g><g data-paper-data="{&quot;index&quot;:null}" stroke="#000000"><path d="M316.44531,344.13567v-90.27109h61.17899v90.27109z" fill="#273750" stroke-width="2"/><path d="M317.23265,343.37909v-90.27109l18.42709,49.31565l42.75189,40.95544z" fill="#1f1e2e" stroke-width="0"/></g><path d="M264.46059,253.45329v-113.80147h113.80147v113.80147z" data-paper-data="{&quot;index&quot;:null}" fill="#0000c0" stroke="#000000" stroke-width="2"/><g data-paper-data="{&quot;index&quot;:null}" stroke="#000000"><path d="M263.83936,344.58003v-90.27109h61.17899v90.27109z" fill="#273750" stroke-width="2"/><path d="M264.62674,343.82344v-90.27109l18.42709,49.31565l42.75189,40.95544z" fill="#1f1e2e" stroke-width="0"/></g><g data-paper-data="{&quot;index&quot;:null}" stroke="#000000"><path d="M291.35367,252.98407v-111.68333h61.17899v111.68333z" fill="#ffffff" stroke-width="2"/><path d="M292.14105,252.04804v-111.68333l18.42709,61.01328l42.75189,50.67005z" fill="#8ebbfc" stroke-width="0"/></g><g data-paper-data="{&quot;index&quot;:null}" stroke="#000000"><path d="M277.45568,265.33061l-16.36853,-45.18709l47.94852,-17.36883l16.36853,45.18709z" fill="#ffcaa0" stroke-width="2"/><g><path d="M260.99146,220.36993l-22.57041,-62.30805l48.57348,-17.59521l22.57041,62.30805z" fill="#0000c0" stroke-width="2"/><path d="M261.76295,220.31645l-11.82171,-32.63511c0,0 19.44028,8.2929 27.5041,5.37186c7.64571,-2.76958 19.69131,-22.46788 19.69131,-22.46788l11.82171,32.63512c0,0 -15.52305,5.62305 -23.34667,8.45707c-7.9073,2.86433 -23.84874,8.63894 -23.84874,8.63894z" fill="#56006b" stroke-width="0"/></g><path d="M278.0137,264.54954l-16.36853,-45.18709l23.39515,26.17093l40.9219,1.64734z" fill="#ff6e5b" stroke-width="0"/></g><g data-paper-data="{&quot;index&quot;:null}" stroke="#000000"><path d="M405.50774,76.87644c1.12826,11.04536 2.30432,36.57129 -2.68534,46.29005c-11.26012,21.93222 -39.7247,23.85346 -70.14178,26.96049c-28.76811,2.93859 -60.84661,9.38201 -76.71402,-7.9514c-8.34381,-9.11469 -8.15294,-36.66509 -9.41922,-49.06172c-0.35427,-3.4682 -3.72636,-26.05536 -3.42851,-29.44199c2.79142,-31.7386 36.59218,-39.75702 76.25563,-43.80854c42.22469,-4.31315 76.18074,-5.28277 82.22918,28.52693c0.23936,1.33798 3.76419,27.11686 3.90406,28.4862z" fill="#ffcaa0" stroke-width="2"/><path d="M407.33263,76.70026c1.12826,11.04536 2.30432,36.57129 -2.68534,46.29005c-11.26012,21.93222 -39.7247,23.85346 -70.14178,26.96049c-28.7681,2.93859 -61.50701,9.34011 -77.37441,-7.99329c-3.35461,-3.66455 64.80267,14.7628 100.31177,-6.13567c45.31138,-26.66748 42.54928,-106.8168 45.98572,-87.60774c0.23936,1.33798 3.76419,27.11686 3.90406,28.4862z" fill="#ff6e5b" stroke-width="0"/></g><g data-paper-data="{&quot;index&quot;:null}" stroke="#000000"><path d="M380.81959,20.27477c14.58386,-1.48971 29.05943,23.27503 32.33209,55.31359c3.27266,32.03856 -5.89687,59.21858 -20.48074,60.70829c-14.58386,1.48971 -29.05943,-23.27503 -32.33209,-55.31359c-3.27266,-32.03856 5.89687,-59.21858 20.48074,-60.70829z" fill="#01930e" stroke-width="2"/><path d="M412.70778,75.19727c3.27266,32.03856 -5.89688,59.21858 -20.48074,60.70829c-14.58385,1.48971 14.04358,-37.34223 10.77092,-69.38078c-3.27266,-32.03856 6.43716,-23.36606 9.70982,8.67249z" fill="#31525b" stroke-width="0"/></g><path d="M343.13886,88.87766c-1.5972,-15.63616 -0.00195,-28.60698 3.5631,-28.97114c3.56504,-0.36416 7.74986,12.01623 9.34706,27.65239c1.59719,15.63615 0.00195,28.60697 -3.5631,28.97113c-3.56505,0.36416 -7.74986,-12.01624 -9.34706,-27.6524z" data-paper-data="{&quot;index&quot;:null}" fill="#000000" stroke="none" stroke-width="0"/><path d="M324.62787,68.17746c3.37741,-0.34499 7.40494,12.00024 8.99575,27.57385c1.59081,15.57361 0.14249,28.47819 -3.23493,28.82319c-3.37741,0.34499 -7.40494,-12.00024 -8.99575,-27.57385c-1.59081,-15.57361 -0.14249,-28.47819 3.23493,-28.82319z" data-paper-data="{&quot;index&quot;:null}" fill="#000000" stroke="none" stroke-width="0"/><g data-paper-data="{&quot;index&quot;:null}"><path d="M226.44004,57.68396c-1.79469,-17.56954 37.89665,-36.01544 88.65308,-41.20008c50.75643,-5.18465 93.35751,4.85528 95.1522,22.42481c1.79468,17.56953 -37.89664,36.01544 -88.65307,41.20008c-50.75643,5.18465 -93.35752,-4.85529 -95.15221,-22.42482z" fill="#000000" stroke="none" stroke-width="NaN"/><path d="M318.57811,57.5134c50.75643,-5.18465 90.63384,-35.90593 92.42852,-18.33639c1.79468,17.56953 -37.89664,36.01544 -88.65307,41.20008c-50.75643,5.18465 -93.35752,-4.85529 -95.15221,-22.42482c-1.79469,-17.56954 40.62032,4.74578 91.37675,-0.43887z" fill="#ff0000" stroke="#000000" stroke-width="2"/><path d="M320.57751,73.42658c50.75643,-5.18465 83.68607,-29.76035 86.50683,-25.80255c2.73112,3.83204 -11.96731,13.96064 -36.77314,22.00688c-13.36154,4.33407 -29.95104,7.66902 -47.66178,9.98204c-50.61086,6.60976 -88.66166,-8.22366 -89.15554,-13.05864c-0.49388,-4.83498 36.32721,12.05692 87.08364,6.87227z" fill="#900056" stroke="#000000" stroke-width="0"/></g><path d="M344.32434,135.57817c-5.30438,-6.24156 3.27395,-6.13816 9.51551,-11.44254c6.24156,-5.30438 7.78281,-14.00787 13.08718,-7.76631c5.30438,6.24156 4.54464,15.60139 -1.69692,20.90577c-6.24156,5.30438 -15.60139,4.54464 -20.90577,-1.69692z" fill="#000000" stroke="none" stroke-width="0"/></g></g></svg>