<svg version="1.1" xmlns="http://www.w3.org/2000/svg" xmlns:xlink="http://www.w3.org/1999/xlink" width="265.66217" height="274.2091" viewBox="0,0,265.66217,274.2091"><g transform="translate(-181.37411,-86.77831)"><g data-paper-data="{&quot;isPaintingLayer&quot;:true}" fill-rule="nonzero" stroke-linecap="butt" stroke-linejoin="miter" stroke-miterlimit="10" stroke-dasharray="" stroke-dashoffset="0" style="mix-blend-mode: normal"><g data-paper-data="{&quot;index&quot;:null}" stroke="#000000"><path d="M350.23846,228.75236c1.7149,-2.27565 -12.98461,-7.64627 -20.46143,-13.8123c-6.06277,-4.99988 -7.84213,-11.27934 -0.76339,-10.81055c6.46195,4.86966 78.46897,-0.65092 58.40598,25.97229c-20.063,26.62321 -41.56572,44.25795 -48.02767,39.38828c-6.46195,-4.86966 -9.2165,-14.11453 10.8465,-40.73773z" fill="#216aff" stroke-width="2"/><path d="M362.32825,236.78149c11.72144,8.83317 14.24251,25.25757 5.63096,36.68492c-8.61155,11.42735 -25.0947,13.53035 -36.81614,4.69718c-11.72144,-8.83317 -14.2425,-25.25756 -5.63095,-36.68491c8.61155,-11.42735 25.09469,-13.53036 36.81613,-4.69719z" fill="#faddbf" stroke-width="2"/><path d="M368.15975,272.54383c-8.61154,11.42736 -25.09469,13.53036 -36.81613,4.69719c-11.72144,-8.83317 24.31541,-9.73949 32.92696,-21.16684c8.61155,-11.42737 12.50072,5.0423 3.88917,16.46965z" fill="#ef8b89" stroke-width="0"/></g><g stroke="#000000"><path d="M327.76518,340.83535v-95.29492h29.49199v95.29492z" fill="#73fffc" stroke-width="2"/><path d="M327.43943,340.21742l1.32626,-93.78573c0,0 5.20288,68.11227 6.3799,77.52842c0.2602,2.08162 2.52228,2.78987 2.52228,2.78987l18.60659,13.13896z" fill="#59a9e6" stroke-width="0"/></g><g stroke="#000000"><path d="M288.4238,338.4128v-95.29492h29.49199v95.29492z" fill="#73fffc" stroke-width="2"/><path d="M288.09805,337.7949l1.32626,-93.78573c0,0 5.20288,68.11227 6.3799,77.52842c0.2602,2.08162 2.52228,2.78987 2.52228,2.78987l18.60659,13.13896z" fill="#59a9e6" stroke-width="0"/></g><g stroke="#000000"><path d="M355.22917,235.69588c0,13.80271 10.04743,36.74388 4.95001,46.45977c-6.2338,11.88187 -28.61241,9.09579 -38.9397,9.09579c-13.66287,0 -32.94407,4.17018 -38.34426,-14.83216c-2.01935,-7.10576 4.35457,-32.37264 4.35457,-40.7234c0,-30.68249 15.2177,-55.55556 33.98969,-55.55556c18.77199,0 33.98969,24.87307 33.98969,55.55556z" fill="#216aff" stroke-width="2"/><path d="M303.96554,251.27246c0,13.80271 62.04198,20.54886 56.94455,30.26474c-6.2338,11.88186 -28.61241,9.09579 -38.9397,9.09579c-13.66287,0 -32.94406,4.17018 -38.34425,-14.83215c-2.01936,-7.10576 4.35457,-32.37265 4.35457,-40.7234c0,-9.45244 3.34855,-28.59801 5.51953,-29.96813c5.94391,-16.76415 10.4653,25.13995 10.4653,46.16315z" fill="#3236f4" stroke-width="0"/></g><g stroke="#000000"><g><path d="M275.40783,165.02468c5.68342,-46.44434 47.94131,-79.4876 94.38565,-73.80418c46.44434,5.68342 79.4876,47.94131 73.80418,94.38565c-5.68342,46.44434 -47.94131,79.4876 -94.38565,73.80418c-46.44434,-5.68342 -79.4876,-47.94131 -73.80418,-94.38565z" fill="#faddbf" stroke-width="2"/><path d="M275.7425,164.18964c1.82856,-14.94281 13.57458,-39.65596 18.44064,-42.29865c0.55571,-0.30181 6.82586,-8.14147 15.10651,-13.8948c10.29228,-7.15099 22.99788,-12.45521 23.58019,-12.18542c7.59743,3.51989 -25.27433,62.24587 -27.11642,87.49903c-0.0044,0.06022 1.98178,20.09105 3.53496,20.7233c2.28809,5.05784 6.71701,20.11821 16.65048,28.52717c18.51219,15.67108 46.18905,25.47911 44.65531,25.80093c-2.45342,0.51479 -15.02945,0.95053 -21.04747,0.2141c-46.44434,-5.68342 -79.4876,-47.94131 -73.80418,-94.38565z" fill="#ef8b89" stroke-width="0"/><path d="M443.13376,185.08776c-1.41194,11.53827 -3.46598,15.33325 -3.78902,13.42818c-0.32957,-1.94352 1.00671,-9.76363 -7.19626,-15.63914c-1.98774,-1.42375 -10.89299,4.98989 -13.45123,3.43953c-1.60686,-0.97381 -7.35212,-11.15113 -9.16952,-12.05459c-1.27069,-0.63169 -13.3755,6.8033 -14.70994,6.18599c-3.32816,-1.53959 -10.51826,-12.74552 -14.16177,-13.85429c-2.00637,-0.61057 -10.65339,10.6345 -12.71596,10.12636c-2.65995,-0.65531 -8.52819,-13.20205 -11.24531,-13.53455c-7.22595,-0.88424 -8.27596,6.05035 -14.20454,11.37589c-3.85253,3.46067 -12.29951,-14.65434 -15.93891,-10.63141c-4.51971,4.996 -8.97673,9.79992 -13.62358,12.85776c-3.64563,2.399 -12.0388,-11.64538 -15.21146,-9.39631c-15.31849,10.8591 -24.56646,17.7915 -22.35923,-0.24578c4.43833,-36.2696 43.96478,-2.89477 88.05229,-19.18204c42.20013,-15.59001 84.16278,0.8548 79.72445,37.1244z" fill="#ef8b89" stroke-width="0"/></g><path d="M445.66575,177.02471c-2.85239,23.30946 5.42474,9.44415 -11.2774,-2.2467c-2.04385,-1.43062 -11.15984,4.95723 -13.78939,3.39815c-1.65166,-0.97929 -7.57833,-11.17881 -9.44577,-12.0884c-1.30568,-0.63597 -13.70103,6.76346 -15.07205,6.14168c-3.41942,-1.55076 -10.8317,-12.78387 -14.57329,-13.90465c-2.06038,-0.61718 -10.89609,10.6048 -13.01381,10.08991c-2.73106,-0.66401 -8.79144,-13.23427 -11.58013,-13.57552c-7.41629,-0.90753 -8.47152,6.02642 -14.53705,11.3352c-3.94153,3.44978 -12.66524,-14.69909 -16.38632,-10.68616c-4.62113,4.98359 -9.17857,9.77522 -13.9363,12.81949c-3.73262,2.38835 -12.38821,-11.68814 -15.63606,-9.44827c-15.68155,10.81467 -25.14752,17.7204 -22.94028,-0.31688c4.43833,-36.2696 49.43732,-75.81343 95.02411,-70.23496c45.58678,5.57848 81.60211,52.44751 77.16379,88.71711z" fill="#724e36" stroke-width="2"/><path d="M445.56109,175.84044c-2.85239,23.30946 5.42474,9.44415 -11.2774,-2.2467c-2.04385,-1.43062 -11.15984,4.95723 -13.78939,3.39815c-1.65166,-0.97929 -7.57833,-11.17881 -9.44578,-12.0884c-1.30568,-0.63597 -13.70103,6.76346 -15.07205,6.14168c-3.41942,-1.55076 -10.8317,-12.78387 -14.57329,-13.90465c-2.06038,-0.61718 -10.89609,10.6048 -13.01381,10.08991c-2.73106,-0.66401 -8.79144,-13.23427 -11.58013,-13.57552c-7.41629,-0.90753 -8.47152,6.02642 -14.53705,11.3352c-3.94153,3.44978 -12.66524,-14.69909 -16.38632,-10.68616c-4.62113,4.98359 -9.17857,9.77522 -13.93631,12.81949c-3.73262,2.38835 -12.38821,-11.68814 -15.63606,-9.44827c-15.68155,10.81467 -25.14752,17.7204 -22.94028,-0.31688c4.43833,-36.2696 45.09655,-2.75627 90.27651,-18.90986c43.2458,-15.46205 86.3497,1.12242 81.91137,37.39201z" fill="#623728" stroke-width="0"/></g><g stroke="#000000"><path d="M375.41659,200.33599c-3.46889,28.34748 -18.32893,41.36947 -34.77479,39.35698c-16.44586,-2.01249 -28.24985,-18.29737 -24.78096,-46.64484c3.46889,-28.34748 19.613,-49.69621 36.05886,-47.68372c16.44586,2.01249 26.96578,26.6241 23.49688,54.97159z" fill="#f0f0f0" stroke-width="2"/><path d="M331.38561,175.21943c-7.70003,27.50132 26.43421,65.73916 9.98834,63.72667c-16.44586,-2.01249 -28.24985,-18.29737 -24.78096,-46.64484c3.46889,-28.34748 25.92458,-56.84061 14.79261,-17.08183z" fill="#9a99ff" stroke-width="0"/></g><path d="M354.78171,218.16204c-1.92184,12.52204 -8.13398,22.21906 -13.87522,21.6589c-5.74123,-0.56017 -8.83747,-11.1654 -6.91563,-23.68744c1.92184,-12.52204 8.13398,-22.21906 13.87522,-21.6589c5.74123,0.56017 8.83747,11.1654 6.91563,23.68744z" fill="#000000" stroke="none" stroke-width="0"/><g stroke="#000000"><path d="M374.09252,169.91525c3.18388,10.69573 -11.53984,12.81482 -27.13378,10.90659c-15.59394,-1.90824 -26.41492,-7.90857 -20.73586,-16.90056c5.40355,-8.55574 9.3411,-20.43562 24.93504,-18.52738c15.59394,1.90824 19.9003,14.32818 22.93458,24.52135z" fill="#a100fe" stroke-width="2"/><path d="M373.21812,169.45135c3.03295,10.67726 -11.20485,12.85582 -26.26707,11.01265c-15.06222,-1.84317 -25.49501,-7.796 -19.96977,-16.80682c5.25719,-8.57365 6.39282,1.7515 21.45504,3.59467c15.06222,1.84317 21.89135,-7.97608 24.78179,2.19949z" fill="#99008e" stroke-width="0"/></g><g data-paper-data="{&quot;index&quot;:null}" stroke="#000000"><path d="M415.35414,151.63725c16.44586,2.01249 26.96578,26.6241 23.49688,54.97159c-3.46889,28.34747 -18.85135,41.30554 -35.29722,39.29305c-16.44586,-2.01249 -27.72743,-18.23343 -24.25853,-46.58091c3.46889,-28.34748 19.613,-49.69621 36.05886,-47.68372z" fill="#f0f0f0" stroke-width="2"/><path d="M438.32056,205.70746c-3.46889,28.34747 -18.85135,41.30554 -35.29722,39.29305c-16.44586,-2.01249 25.90147,-30.89125 25.06004,-59.43779c-1.21646,-41.26986 13.70607,-8.20274 10.23718,20.14474z" fill="#9a99ff" stroke-width="0"/></g><path d="M402.00528,196.67247c5.74123,0.57441 8.83747,11.44921 6.91563,24.28956c-1.92184,12.84035 -8.13398,22.78386 -13.87522,22.20945c-5.74123,-0.57441 -8.83747,-11.44921 -6.91563,-24.28956c1.92184,-12.84035 8.13398,-22.78386 13.87522,-22.20945z" data-paper-data="{&quot;index&quot;:null}" fill="#000000" stroke="none" stroke-width="0"/><g data-paper-data="{&quot;index&quot;:null}" stroke="#000000"><path d="M387.91564,170.1171c5.40263,-9.16074 12.57674,-20.17581 28.17068,-18.26757c15.59394,1.90824 16.55071,14.38704 19.73177,23.99328c3.34325,10.09606 -8.6053,13.31007 -24.19923,11.40184c-15.59394,-1.90824 -29.37223,-7.51513 -23.70323,-17.12753z" fill="#a100fe" stroke-width="2"/><path d="M388.8761,169.87775c5.25879,-9.17834 9.51869,1.99787 24.58091,3.84105c15.06222,1.84317 18.65405,-7.90348 21.68875,1.68486c3.18943,10.07724 -8.37092,13.33875 -23.43315,11.49558c-15.06222,-1.84317 -28.35459,-7.3906 -22.83652,-17.02148z" fill="#99008e" stroke-width="0"/></g><path d="M391.63632,338.87004c0,11.6628 -14.51982,21.11737 -32.43092,21.11737c-17.9111,0 -32.43092,-9.45457 -32.43092,-21.11737c0,-2.33142 -0.03339,-13.76009 1.08979,-15.13837c4.49546,-5.51647 17.81784,5.26144 32.14847,5.26144c17.9111,0 31.62358,-1.78588 31.62358,9.87692z" fill="#000082" stroke="#000000" stroke-width="2"/><path d="M389.75004,336.13774c0,6.30841 -13.89058,10.1901 -31.80169,10.1901c-17.9111,0 -30.16566,-2.95748 -30.16566,-9.26589c0,-1.26107 -0.03338,-12.52602 1.0898,-13.27153c4.49546,-2.98386 15.55258,5.7726 29.88321,5.7726c17.9111,0 30.99434,0.26631 30.99434,6.57472z" fill="#2e0048" stroke="#000000" stroke-width="0"/><path d="M348.64938,338.22521c0,11.6628 -14.51982,21.11737 -32.43092,21.11737c-17.9111,0 -32.43092,-9.45457 -32.43092,-21.11737c0,-2.33142 -0.03339,-13.76009 1.08979,-15.13837c4.49546,-5.51647 17.81784,5.26144 32.14847,5.26144c17.9111,0 31.62358,-1.78588 31.62358,9.87692z" fill="#000082" stroke="#000000" stroke-width="2"/><path d="M346.7631,335.49289c0,6.30841 -13.89058,10.1901 -31.80169,10.1901c-17.9111,0 -30.16566,-2.95748 -30.16566,-9.26589c0,-1.26107 -0.03338,-12.52602 1.0898,-13.27153c4.49546,-2.98386 15.55258,5.7726 29.88321,5.7726c17.9111,0 30.99434,0.26631 30.99434,6.57472z" fill="#2e0048" stroke="#000000" stroke-width="0"/><path d="M314.95495,223.18794c0.76999,0.9847 -0.21472,1.75468 -0.21472,1.75468l-0.10795,0.00299c-1.57971,2.38103 -3.05639,5.02264 -5.95987,6.02743c-3.01015,1.04171 -6.70603,-0.42557 -6.97957,-3.82743c-0.3668,-4.56158 4.44623,-8.45179 6.90631,-11.69281c0,0 0.75631,-0.99522 1.75155,-0.2389c0.99522,0.75632 0.23891,1.75155 0.23891,1.75155c-2.07872,2.73223 -6.52038,6.22056 -6.40091,10.03618c0.05339,1.70523 2.34305,2.10177 3.69144,1.60028c2.29476,-0.85348 3.41403,-3.14403 4.66843,-5.03766l0.65171,-0.59103c0,0 0.9847,-0.76998 1.75467,0.21472z" fill="#000000" stroke="none" stroke-width="0.5"/><g stroke="none" stroke-width="1"><path d="M383.81941,352.21544c-2.80999,-0.68089 -5.68665,-1.4815 -8.52274,-2.06865c-6.87855,-1.50987 -13.84984,-3.04575 -20.72835,-4.5558c-5.46049,-1.21638 -11.01376,-2.45858 -16.47425,-3.67496c-9.22452,-2.0618 -18.44904,-4.12361 -27.69969,-6.0915c-7.24968,-1.61335 -14.4327,-3.10698 -21.70856,-4.62624c-6.13614,-1.30344 -12.33899,-2.72643 -18.47511,-4.02987c-9.6885,-2.19094 -19.40313,-4.28795 -29.09162,-6.47888c-7.9921,-1.81979 -16.05084,-3.7593 -24.01675,-5.67317c-2.62441,-0.62923 -5.31547,-1.37818 -8.03267,-2.03325c-0.92794,-0.25826 -1.59196,-0.74641 -2.03259,-1.67791c-0.20003,-0.35902 -0.30727,-0.69221 -0.50729,-1.05124c-1.54807,-3.05961 -2.79166,-6.13546 -4.15408,-9.1436c-3.55399,-8.06654 -7.22691,-16.06498 -10.78084,-24.1317c-1.37691,-3.31532 -2.87275,-6.56255 -4.15686,-9.85204c-1.8059,-4.64791 -3.63787,-9.20208 -5.56265,-13.78209c-0.54792,-1.26449 -0.84349,-2.358 0.17168,-3.49082c0.29008,-0.3238 0.32787,-0.8188 0.55125,-1.26215c1.66532,-4.18732 3.60906,-8.29738 5.61947,-12.28768c1.5636,-3.10343 1.63033,-2.98388 5.10153,-2.52331c4.82257,0.63451 9.56677,1.55056 14.31102,2.46642c7.39475,1.45138 14.69664,2.8771 21.99859,4.30264c7.30195,1.42553 14.69664,2.87709 21.9986,4.30263c4.65146,0.89004 9.36954,1.9 14.021,2.79004c2.09371,0.38054 4.09464,0.73526 6.16226,1.20954c3.39285,0.74211 6.75963,1.57795 10.20469,2.13243c4.58476,0.77049 9.02449,1.70279 13.58316,2.56699c5.97668,1.15789 12.04615,2.34158 18.0895,3.61921c6.99748,1.44178 13.99492,2.88375 20.99234,4.32573c4.34693,0.90648 8.76054,1.93267 13.10748,2.83914c4.43969,0.93248 8.93169,1.67695 13.37138,2.60943c4.9965,1.08725 10.08583,2.20033 15.08233,3.28758c1.02075,0.2841 2.0415,0.56818 3.06225,0.85227c1.64418,0.55878 2.69385,1.45743 3.05893,3.37892c0.63729,3.81736 1.55301,7.712 2.37594,11.58082c0.64899,3.41608 1.6025,6.81571 2.25149,10.23179c1.05464,5.55103 2.04255,10.98251 3.21611,16.46546c1.57914,7.61809 2.94663,15.27825 4.43299,22.87051c0.20283,1.06749 0.24613,1.98957 -0.13394,2.99601c-0.94298,2.66966 -1.8598,5.24542 -2.80278,7.91507c-0.20893,0.75071 -0.51066,1.4756 -0.90519,2.17466c-0.81514,1.49184 -1.21857,3.30064 -2.81664,4.37243c-1.53699,-0.2254 -2.95501,-0.51908 -4.16135,-0.85482zM385.53419,347.13184c-1.6114,-5.70599 -2.91828,-11.42841 -4.22522,-17.15065c-1.08961,-4.34758 -1.96756,-8.73722 -2.93824,-13.15287c-1.21408,-5.69659 -2.36152,-11.27345 -3.60174,-16.87614c-0.75348,-3.04063 -1.59975,-6.10708 -2.35318,-9.14789c-1.49917,-0.72058 -7.9804,-2.22106 -10.80203,-2.50085c-0.26394,0.22989 -0.2495,0.53726 -0.14227,0.87045c1.18241,4.37339 1.84862,8.80531 2.81937,13.22077c0.43173,2.04122 1.28691,3.99795 1.50691,6.08144c0.02893,0.61454 0.15059,1.25511 0.17946,1.86984c0.06946,0.8282 -0.3656,1.3136 -1.11965,1.50827c-0.54233,0.15242 -1.15133,0.18508 -1.80089,0.0043c-5.14153,-0.92544 -10.28304,-1.85089 -15.37235,-2.96397c-6.32173,-1.3551 -12.57679,-2.59045 -18.75355,-4.10717c-4.20187,-1.06847 -8.38935,-1.82936 -12.64351,-2.71001c-4.81086,-1.03578 -9.62178,-2.07139 -14.40661,-3.2007c-5.34156,-1.28446 -10.59032,-2.5431 -15.95801,-3.73366c-3.18118,-0.78419 -6.50732,-1.40675 -9.71464,-2.09702c-4.22801,-0.97454 -8.38935,-1.82937 -12.61736,-2.80391c-6.29564,-1.44882 -12.59129,-2.89763 -18.88688,-4.34665c-5.83167,-1.31968 -11.70389,-2.85284 -17.53556,-4.17252c-4.25414,-0.88064 -8.60108,-1.78711 -12.85517,-2.66793c-0.39732,-0.0094 -0.76851,-0.11269 -1.13969,-0.21601c-1.62975,-0.25141 -2.46768,-1.19231 -3.14892,-2.69629c-2.66992,-5.49507 -4.86419,-11.26229 -7.32244,-16.79945c-1.60303,-3.58061 -1.60303,-3.58061 -5.32654,-4.21239c-4.00184,-0.70944 -8.00374,-1.41869 -12.03172,-2.03423c-0.37118,-0.10331 -0.7685,-0.11271 -1.17746,0.27899c0.69568,1.81135 1.36527,3.71641 2.15374,5.55359c3.97128,9.8004 8.18036,19.46482 12.62726,28.99325c3.0322,6.70811 6.18334,13.34814 8.97774,20.19225c0.41454,1.02523 0.94797,1.98256 1.3886,2.91405c1.96313,0.84972 3.9235,0.99098 5.89833,1.43941c5.61994,1.36194 11.266,2.62997 16.91208,3.89801c5.36769,1.19056 10.61645,2.4492 15.98415,3.63975c4.5992,1.07785 9.0795,2.22361 13.70483,3.20755c8.50825,1.76146 17.01653,3.52275 25.49868,5.37795c4.13521,0.94872 8.27043,1.89744 12.43177,2.75226c6.69296,1.45822 13.5048,2.84853 20.29051,4.33276c3.85689,0.87105 7.59477,1.81039 11.47774,2.58771c9.15785,1.94205 18.22293,3.85831 27.30237,6.0821c6.45514,1.59419 12.84353,3.06903 19.32477,4.5695c2.62441,0.62923 5.27489,1.16474 8.11097,1.75189c0.06112,-1.29737 -0.47231,-2.25469 -0.71565,-3.53581zM237.17629,280.96949c-1.1508,-3.05001 -2.23484,-5.98067 -3.41171,-8.93698c-0.40011,-0.71785 -0.77403,-1.5298 -0.1156,-2.45857c1.33698,-0.13361 2.60996,0.32187 3.8163,0.6576c0.55676,0.15496 0.82346,0.63371 1.0902,1.11228c0.58844,1.47815 1.26967,2.98213 1.85811,4.46028c0.62901,1.69161 1.20576,3.57104 1.83478,5.26264c0.37398,0.81177 0.74789,1.62372 1.12187,2.43548c0.664,0.48815 1.31357,0.66893 2.0415,0.56818c0.15671,-0.56309 -0.08388,-1.13556 -0.25784,-1.5883c-1.17688,-2.95629 -2.28705,-5.79305 -3.37114,-8.72352c-0.28118,-0.78593 -0.68125,-1.50397 -0.11557,-2.45875c1.36299,-0.22716 2.70271,0.34786 4.00184,0.70943c0.64957,0.18079 0.79738,0.72744 1.06407,1.2062c0.68124,1.50397 1.36248,3.00795 1.8987,4.67373c0.77683,2.23826 1.5275,4.57043 2.516,6.76662c0.46677,0.83759 1.06407,1.2062 2.00372,1.06318c0.40898,-0.3917 0.11614,-0.77655 0.00891,-1.10973c-1.058,-3.02419 -2.18261,-6.1683 -3.24061,-9.1925c-0.28113,-0.78612 -0.6551,-1.59789 -0.27502,-2.60432c1.53415,-0.48287 2.87387,0.09215 4.30636,0.693c0.53064,0.24887 0.65236,0.88925 0.91905,1.368c1.0813,2.22202 1.76532,4.43445 2.516,6.76662c0.5768,1.87923 1.24633,3.78449 1.88978,5.78347c2.16042,0.5001 4.25415,0.88065 6.32173,1.3551c0.50181,-0.36605 0.2612,-0.93853 0.15392,-1.27154c-0.66953,-1.90526 -1.45801,-3.74241 -2.12761,-5.64749c-0.52172,-1.3586 -1.04352,-2.71701 -1.56524,-4.07561c-0.2406,-0.57248 -0.36233,-1.21285 0.0322,-1.91191c1.41528,-0.41498 2.75498,0.16005 4.12078,0.64135c0.46398,0.12913 0.61178,0.67579 0.8118,1.03481c0.77404,1.52979 1.42919,3.12751 1.9915,4.69956c0.85792,2.66535 1.62304,5.30489 3.02334,7.81765c0.62343,0.27469 1.15407,0.52356 1.90813,0.32889c0.15667,-0.5629 -0.01722,-1.01583 -0.16503,-1.56248c-0.73625,-2.0248 -1.49858,-3.95586 -2.26096,-5.88677c-0.48121,-1.14496 -0.93628,-2.38383 -1.3247,-3.50295c-0.1739,-0.45293 -0.28112,-0.78612 -0.26947,-1.18721c-0.04057,-0.21346 0.03779,-0.49499 0.11614,-0.77653c1.5342,-0.48306 2.94058,0.2117 4.4253,0.62492c1.21188,1.75284 1.97425,3.68374 2.61766,5.6829c0.85797,2.66518 1.7159,5.33053 3.02336,7.81766c1.80368,0.70417 5.87218,1.53334 7.55419,1.59694c0.29003,-0.32361 0.09,-0.68264 -0.01723,-1.01583c-0.86963,-2.26408 -1.80589,-4.6479 -2.67547,-6.91218c-0.34783,-0.90567 -0.69567,-1.81136 -1.01743,-2.81074c-0.2406,-0.57248 -0.29562,-1.09331 0.07282,-1.69865c1.41528,-0.41498 2.75493,0.16024 4.12077,0.64136c0.46398,0.12913 0.61179,0.67578 0.81182,1.0348c0.70732,1.41026 1.29577,2.88841 1.85812,4.46028c0.66953,1.90526 1.27242,3.69076 1.96814,5.50192c0.14776,0.54684 0.48116,1.14514 0.72176,1.71763c0.41454,1.02523 1.27578,1.16394 2.36046,0.85912c-0.40564,-2.13495 -1.35357,-4.11769 -2.08982,-6.14248c-0.73625,-2.0248 -1.80311,-3.93946 -1.97088,-6.21057c1.74589,-0.52513 3.08558,0.0499 4.51804,0.65094c0.3451,0.19703 0.58569,0.76951 0.78573,1.12852c0.70732,1.41026 1.29576,2.8884 1.85812,4.46027c0.60288,1.78551 1.23189,3.47713 1.83478,5.26264c0.2406,0.57248 0.48115,1.14514 0.72176,1.71762c0.32175,0.99939 1.03798,1.29992 1.97763,1.15689c0.40898,-0.3917 0.32782,-0.81861 0.15393,-1.27154c-0.73625,-2.0248 -1.49865,-3.95569 -2.26097,-5.88677c-0.52178,-1.35842 -1.06964,-2.62311 -1.49863,-3.9557c-0.30727,-0.69221 -0.30727,-0.69221 0.15118,-1.98018c1.21799,-0.06534 2.3721,0.45801 3.60458,0.69985c0.64957,0.18079 1.00906,0.68537 1.24966,1.25785c0.77404,1.52979 1.42914,3.12768 1.99149,4.69956c0.85792,2.66535 1.71585,5.33073 3.08996,7.93759c2.36045,0.85912 4.97042,1.18098 7.43533,1.66482c0.30174,-0.72488 0.03499,-1.20346 -0.11281,-1.7501c-0.73619,-2.02499 -1.49859,-3.95587 -2.26092,-5.88696c-0.48121,-1.14496 -0.93627,-2.38383 -1.32469,-3.50295c-0.14782,-0.54665 -0.36229,-1.21304 0.03225,-1.91209c1.41522,-0.41479 2.75494,0.16024 4.12078,0.64136c0.46398,0.12913 0.61179,0.67578 0.81182,1.0348c0.77404,1.52979 1.45525,3.03378 1.99142,4.69974c0.88405,2.57145 1.62311,5.30471 3.02336,7.81767c0.53064,0.24887 1.12798,0.61728 1.88199,0.4228c0.15671,-0.56309 -0.01722,-1.01582 -0.16499,-1.56266c-0.73625,-2.0248 -1.49865,-3.95569 -2.26096,-5.88677c-0.48121,-1.14496 -0.93628,-2.38381 -1.32469,-3.50294c-0.2406,-0.57248 -0.36229,-1.21305 -0.06055,-1.93794c1.53415,-0.48287 2.87386,0.09215 4.30637,0.69302c0.34505,0.19721 0.58565,0.76969 0.78568,1.12872c0.89296,1.46172 1.45527,3.03378 1.99149,4.69956c0.85792,2.66535 1.71584,5.33072 3.09001,7.9374c1.67031,0.46488 3.45951,0.86185 5.24876,1.25864c0.48732,-0.67323 0.24672,-1.24571 0.00612,-1.81819c-0.76239,-1.93089 -1.55086,-3.76806 -2.22039,-5.67332c-0.52178,-1.35842 -1.06964,-2.6231 -1.49863,-3.95569c-0.14776,-0.54684 -0.36228,-1.21304 0.21784,-1.86045c1.33691,-0.13343 2.67661,0.4416 3.97576,0.80317c0.55677,0.15496 0.79737,0.72742 0.97127,1.18035c0.68124,1.50397 1.26969,2.98213 1.83204,4.55401c1.04352,2.71701 1.7825,5.45046 3.15667,8.05714c0.50455,0.34259 1.0874,0.40383 1.67031,0.46488c0.14501,-0.1618 0.29003,-0.32363 0.31616,-0.41753c0.06392,-0.5889 -0.20282,-1.06749 -0.35063,-1.61413c-1.17688,-2.95629 -2.28705,-5.79304 -3.37115,-8.72352c-0.28118,-0.78593 -0.68124,-1.50398 -0.11555,-2.45875c1.36299,-0.22716 2.70271,0.34788 4.00184,0.70944c0.55677,0.15496 0.79737,0.72743 0.97132,1.18018c0.68124,1.50397 1.26963,2.98231 1.83198,4.55418c1.06965,2.6231 1.78256,5.45027 3.18281,7.96323c0.4117,0.31695 0.96848,0.4719 1.51082,0.3195c0.4351,-0.4856 0.31342,-1.12616 0.07282,-1.69865c-0.69568,-1.81135 -1.39139,-3.62251 -2.08706,-5.43384c-0.54786,-1.26469 -0.97681,-2.59747 -1.52472,-3.86197c-0.30727,-0.69221 -0.42894,-1.33278 -0.00833,-2.12556c1.29639,-0.34707 2.63605,0.22813 3.93519,0.5897c0.64957,0.18079 0.79737,0.72743 1.06411,1.206c0.77404,1.52979 1.45527,3.03379 1.99149,4.69956c0.884,2.57164 1.71585,5.33072 3.11609,7.84367c1.32527,0.26765 2.7172,0.65506 4.28023,0.78692c0.23508,-0.84462 -0.01997,-1.72447 -0.20836,-2.48458c-1.44025,-5.96171 -2.99937,-11.8555 -4.53242,-17.84303c-2.82443,-0.98825 -5.73887,-1.29387 -8.575,-1.88083c-3.11447,-0.66463 -6.34786,-1.26119 -9.48841,-1.8321c-5.48662,-1.12247 -10.99933,-2.15122 -16.48595,-3.27369c-3.48565,-0.76793 -7.06408,-1.56171 -10.57586,-2.23574c-5.76496,-1.20014 -11.46326,-2.28055 -17.22827,-3.48049c-3.51178,-0.67404 -6.90464,-1.41615 -10.39029,-2.18408c-2.92888,-0.61298 -5.88388,-1.13207 -8.81281,-1.74485c-3.23335,-0.59673 -6.53347,-1.31283 -9.74073,-2.00329c-3.85683,-0.87125 -7.647,-1.62275 -11.52996,-2.40009c-6.25507,-1.23536 -12.51014,-2.47072 -18.76521,-3.70608c-5.41991,-1.00293 -10.72094,-2.07374 -16.11471,-3.17057c-3.79016,-0.75152 -7.55421,-1.59693 -11.34437,-2.34845c-1.23247,-0.24184 -2.43881,-0.57757 -3.74959,-0.53805c-0.1828,0.65682 -0.03504,1.20365 0.2317,1.68221c1.93369,3.47028 3.06108,7.32286 4.66415,10.90328c0.64066,1.29052 1.25524,2.67475 1.77702,4.03317c0.37393,0.81194 0.82625,1.34217 1.73977,1.29307c0.79458,0.01897 1.53694,0.22559 2.21265,0.31247c0.22337,-0.44336 0.14222,-0.87027 0.03499,-1.20346c-0.76239,-1.93089 -1.55086,-3.76806 -2.22041,-5.6733c-0.52179,-1.35842 -1.06965,-2.62311 -1.49863,-3.9557c-0.14776,-0.54684 -0.38836,-1.11932 0.12504,-1.88627c1.33691,-0.13343 2.70276,0.34769 4.06856,0.82899c0.46398,0.12913 0.63792,0.58187 0.81182,1.0348c0.61458,1.38424 1.3219,2.7945 1.81754,4.24682c0.92464,2.78491 1.84922,5.57001 3.26396,8.39014c0.5973,0.36861 1.45858,0.50712 2.34597,0.55193c0.24951,-0.53726 0.04948,-0.89627 -0.05776,-1.22948c-0.89576,-2.17018 -1.76532,-4.43445 -2.63494,-6.69854c-0.4812,-1.14496 -0.93629,-2.38382 -1.3247,-3.50294c-0.2406,-0.57248 -0.21446,-0.66639 0.12506,-1.88628c1.33691,-0.13343 2.67662,0.4416 3.97576,0.80316c0.55676,0.15496 0.79737,0.72744 0.97127,1.18037c0.68124,1.50397 1.36247,3.00795 1.83203,4.55398c0.72455,2.42607 1.77976,4.74182 2.71604,7.12565c0.34784,0.90567 0.91904,1.368 1.87309,1.53254c1.04689,0.19018 2.16042,0.50008 3.20732,0.69027c0.27559,-0.63098 0.16837,-0.96417 0.53955,-0.86086zM361.06034,285.62185c0.86404,0.84717 2.02985,0.96927 3.01002,1.0399c2.42433,0.27039 4.59919,1.07785 6.97129,1.53588c0.27839,0.07747 0.55676,0.15495 1.02073,0.28409c1.26193,-2.37872 2.17877,-4.95448 3.25512,-7.38486c1.10243,-2.5241 2.36434,-4.90284 3.58571,-7.49501c-1.1802,-0.42965 -2.08206,-0.78164 -3.01002,-1.03989c-3.89741,-1.08471 -7.89925,-1.79415 -11.90114,-2.5034c-0.76845,-0.11289 -1.6036,-0.34533 -2.43877,-0.57776c-2.90279,-0.7067 -5.97669,-1.1579 -8.9984,-1.79651c-2.27931,-0.4322 -4.53253,-0.95811 -6.81184,-1.39032c-4.18743,-0.76109 -8.34879,-1.6159 -12.60294,-2.49655c-3.85683,-0.87125 -7.83258,-1.6744 -11.74168,-2.35783c-2.92888,-0.61298 -5.75331,-1.60123 -8.81276,-1.74504c-0.1856,-0.05165 -0.27838,-0.07748 -0.46398,-0.12914c-3.67123,-0.81959 -7.24969,-1.61336 -10.82817,-2.40695c-2.92888,-0.61298 -5.97668,-1.15789 -9.02448,-1.70278c-0.1856,-0.05165 -0.27838,-0.07748 -0.46398,-0.12914c-3.57845,-0.79376 -7.22356,-1.70726 -10.82813,-2.40712c-2.74329,-0.56133 -5.4199,-1.00293 -8.16324,-1.56408c-0.39727,-0.00957 -0.67565,-0.08706 -0.95405,-0.16454c-3.85683,-0.87125 -7.68757,-1.83622 -11.50388,-2.49381c-2.1198,-0.28682 -4.10908,-1.04264 -6.30728,-1.04773c-0.21168,0.04207 -0.49006,-0.03541 -0.67565,-0.08705c-3.02173,-0.63862 -6.01726,-1.37134 -9.06506,-1.91624c-2.76942,-0.46743 -5.60551,-1.05458 -8.34879,-1.61591c-3.94967,-0.89688 -7.95152,-1.60632 -11.92727,-2.40948c-4.25414,-0.88064 -8.65331,-1.59946 -12.85523,-2.66775c-3.18113,-0.78437 -6.46675,-1.19329 -9.70014,-1.78983c-3.04781,-0.54489 -6.18841,-1.11563 -9.2623,-1.56681c-0.39732,-0.0094 -0.79463,-0.0188 -1.31083,0.03971c-0.84128,1.58576 -1.86813,3.11986 -2.54995,4.85118c-0.65568,1.6374 -1.58974,3.19733 -2.24541,4.83474c-0.68182,1.73131 -1.70868,3.26541 -2.23099,5.14211c0.9424,0.56563 1.92257,0.63626 2.87665,0.80062c2.30538,0.33846 4.67755,0.79631 7.00908,1.04088c2.11985,0.28663 4.28028,0.78673 6.34786,1.26117c0.64957,0.18079 1.35134,0.17395 2.14599,0.19274c0.58012,-0.64741 0.93408,-1.55992 1.35469,-2.35271c0.69626,-1.42394 1.39251,-2.8479 2.15542,-4.15211c0.5396,-0.86105 1.27917,-1.36291 2.32606,-1.17273c0.49006,0.03541 0.91346,-0.04892 1.37743,0.08022c1.85591,0.51652 3.76408,0.84523 5.67221,1.17412c3.69737,0.72569 7.2236,1.70708 10.85426,2.31321c2.98115,0.42516 5.83166,1.31968 8.81281,1.74485c2.2126,0.31265 4.34689,0.90665 6.53345,1.31284c3.11447,0.66463 6.25507,1.23537 9.32896,1.68654c0.1856,0.05165 0.27837,0.07748 0.46398,0.12913c3.67123,0.81959 7.2236,1.70708 10.85431,2.31303c2.58378,0.41595 5.03704,1.3009 7.69922,1.43513c0.37118,0.10331 0.64956,0.18078 0.92796,0.25826c3.40729,1.04948 6.9713,1.53589 10.39029,2.18409c2.95502,0.51908 5.93889,1.65288 8.99839,1.7965c0.39727,0.00957 0.67566,0.08705 0.95404,0.16454c3.48565,0.76793 6.94521,1.62961 10.39029,2.18409c2.58383,0.41578 5.01095,1.39462 7.69927,1.43493c0.1856,0.05165 0.46396,0.12912 0.64956,0.18078c3.48565,0.76793 7.03801,1.65542 10.54974,2.32964c5.30102,1.07083 10.53535,2.02209 15.83638,3.09292c2.92888,0.61298 5.73882,1.29404 8.60103,1.7873c2.88835,0.39935 5.61994,1.36194 8.56051,1.57364c0.1856,0.05165 0.27838,0.07749 0.46398,0.12914c3.11447,0.66463 6.13618,1.30325 9.25065,1.96789c0.37118,0.10331 0.74236,0.20661 1.20634,0.33575c-0.62401,2.9606 -2.46885,5.27827 -3.1073,7.93151zM361.02646,280.3549c-1.88198,-0.4228 -3.85683,-0.87125 -5.73887,-1.29387c-3.04776,-0.54508 -6.09556,-1.08999 -9.11728,-1.7286c-5.20818,-1.04519 -10.39029,-2.18409 -15.59847,-3.22928c-5.02265,-0.99334 -9.95245,-1.96104 -14.97508,-2.95438c-2.74329,-0.56133 -5.57935,-1.14848 -8.32265,-1.70981c-5.88394,-1.13188 -11.76783,-2.26393 -17.62558,-3.48988c-2.92888,-0.61298 -5.8578,-1.22578 -8.78668,-1.83876c-5.11538,-1.01936 -10.23083,-2.03852 -15.34622,-3.05788c-2.65048,-0.5355 -5.30104,-1.07083 -7.95152,-1.60633c-5.79109,-1.10622 -11.48939,-2.18663 -17.2544,-3.38659c-5.02259,-0.99353 -10.1119,-2.1066 -15.13448,-3.10013c-5.02264,-0.99334 -10.13803,-2.0127 -15.16068,-3.00604c-0.1856,-0.05165 -0.39726,-0.00957 -0.79458,-0.01898c-0.94576,1.96121 -2.07706,3.87057 -2.88945,6.07106c1.45858,0.50712 2.78386,0.7748 4.10913,1.04245c3.88291,0.77752 7.85868,1.58068 11.74163,2.35802c6.81184,1.39032 13.7426,2.71256 20.58059,4.00897c5.97668,1.15788 11.92724,2.40968 17.90392,3.56756c6.81184,1.39032 13.53087,2.75481 20.34277,4.14493c3.23335,0.59673 6.53346,1.31284 9.74072,2.0033c5.30098,1.07101 10.50921,2.116 15.81019,3.18701c3.11453,0.66445 6.13618,1.30325 9.25065,1.9679c4.06855,0.82899 8.2299,1.68381 12.39125,2.53863c6.81184,1.39032 13.53088,2.75481 20.34273,4.14513c2.74329,0.56133 5.39378,1.09684 8.13712,1.65799c0.67565,0.08706 1.37745,0.08021 2.14594,0.19291c0.2817,-2.44917 1.63923,-4.0936 2.19932,-6.46531zM388.50086,347.24983c1.1547,-2.71192 2.30934,-5.42366 3.46405,-8.13558c0.74847,-1.61158 0.60957,-3.26797 0.40396,-5.04391c-0.68345,-5.44772 -2.09478,-10.79488 -2.98995,-16.20035c-0.50118,-2.86943 -1.21408,-5.69659 -1.90086,-8.61766c-1.72422,-7.45609 -3.23665,-14.95464 -4.63028,-22.52089c-0.60841,-3.20261 -1.33577,-6.33716 -1.94423,-9.53959c-0.13331,-0.23948 -0.24059,-0.57248 -0.4145,-1.0254c-0.55398,0.5535 -0.87015,0.97101 -1.11966,1.50827c-1.35194,3.06136 -2.54443,6.26828 -4.1486,9.15825c-1.03856,1.93538 -0.92573,3.68547 -0.349,5.56491c2.65771,9.13146 4.28296,18.38011 6.30554,27.63816c1.91534,8.92484 3.85677,17.75599 6.28831,26.62233c0.10723,0.3332 0.30727,0.69221 0.45507,1.23885c0.35675,-0.20406 0.47568,-0.27214 0.58012,-0.6474z" data-paper-data="{&quot;index&quot;:null}" fill="#000000"/><path d="M378.08665,349.10339c-6.48122,-1.50047 -12.86967,-2.97511 -19.32477,-4.5695c-9.0795,-2.22359 -18.14451,-4.14004 -27.30237,-6.08209c-3.85683,-0.87125 -7.62091,-1.71648 -11.47774,-2.58773c-6.69291,-1.45839 -13.50475,-2.84872 -20.2905,-4.33276c-4.13521,-0.94872 -8.27043,-1.89744 -12.43177,-2.75226c-8.5083,-1.76128 -17.01659,-3.52257 -25.49874,-5.37776c-4.5992,-1.07785 -9.1056,-2.12989 -13.70477,-3.20774c-5.36769,-1.19056 -10.6165,-2.44902 -15.98414,-3.63975c-5.64608,-1.26804 -11.29214,-2.53607 -16.91208,-3.89801c-1.97483,-0.44845 -4.02799,-0.61553 -5.89839,-1.43924c-0.44063,-0.9315 -0.97406,-1.88882 -1.38856,-2.91423c-2.79439,-6.8441 -5.85273,-13.4583 -8.97774,-20.19225c-4.4469,-9.52844 -8.62991,-19.28659 -12.62728,-28.99325c-0.78848,-1.83717 -1.45807,-3.74223 -2.15375,-5.55358c0.40898,-0.3917 0.80629,-0.38229 1.17747,-0.279c4.00184,0.70944 8.02982,1.32496 12.03171,2.03422c3.72345,0.63196 3.72347,0.63196 5.32653,4.21239c2.551,5.56317 4.65252,11.30438 7.32244,16.79945c0.77404,1.52979 1.51918,2.44487 3.14892,2.69629c0.39727,0.00957 0.76845,0.11289 1.13963,0.2162c4.25414,0.88064 8.62722,1.69321 12.85523,2.66775c5.83167,1.31968 11.70385,2.85302 17.53552,4.17272c6.29564,1.44882 12.5913,2.89763 18.88694,4.34645c4.22801,0.97454 8.36322,1.92328 12.61736,2.80392c3.20725,0.69046 6.50736,1.40656 9.71463,2.09702c5.34156,1.28446 10.59032,2.5431 15.95801,3.73366c4.78478,1.1295 9.5957,2.16511 14.40662,3.20071c4.22801,0.97454 8.44158,1.64173 12.64351,2.71001c6.2695,1.54273 12.52456,2.77809 18.75355,4.10717c5.11538,1.01936 10.2569,1.9448 15.37235,2.96397c0.5829,0.06105 1.16576,0.12228 1.80089,-0.0043c0.75401,-0.19449 1.18911,-0.68009 1.11965,-1.50829c-0.02887,-0.61473 -0.15055,-1.25529 -0.17946,-1.86984c-0.22001,-2.08349 -1.07519,-4.0402 -1.50691,-6.08144c-0.97073,-4.41548 -1.63696,-8.84737 -2.81937,-13.22077c-0.10723,-0.3332 -0.12167,-0.64056 0.14222,-0.87027c2.8217,0.27961 9.30287,1.78025 10.80208,2.50066c0.77955,2.9469 1.62584,6.01336 2.35319,9.14789c1.24017,5.60287 2.36152,11.27345 3.60173,16.87614c0.97069,4.41565 1.96756,8.73722 2.93824,13.15287c1.30688,5.72242 2.61382,11.44467 4.22522,17.15065c0.3217,0.99959 0.82899,2.05081 0.76787,3.34819c-2.83608,-0.58716 -5.48656,-1.12267 -8.16319,-1.56425zM316.4145,321.01959c-1.10131,-3.9463 -2.32151,-7.8247 -3.09223,-11.88116c-0.12167,-0.64057 -0.33613,-1.30694 -0.33893,-2.0154c-0.04337,-0.92192 -0.52179,-1.35841 -1.35695,-1.59085c-1.11355,-0.30991 -2.31988,-0.64566 -3.5523,-0.88768c-0.55677,-0.15496 -1.23247,-0.24184 -1.78925,-0.3968c-6.85241,-1.60378 -13.74535,-3.42119 -20.62389,-4.93106c-5.24876,-1.25864 -10.40471,-2.49144 -15.78411,-3.28073c-3.63066,-0.60614 -7.23525,-1.306 -10.83981,-2.00586c-0.76845,-0.11289 -1.6036,-0.34532 -2.29101,-0.03093c-0.62064,0.43377 -0.47283,0.98042 -0.39173,1.40752c0.10113,2.15139 0.93016,4.20201 1.45469,6.26907c0.79406,3.25408 1.68085,6.53418 2.6605,9.83992c0.77955,2.9469 1.74471,5.94547 2.85493,8.78203c0.47842,0.43649 1.15412,0.52336 1.71089,0.67832c4.78478,1.1295 9.54348,2.35274 14.32826,3.48224c5.15596,1.23281 10.40472,2.49144 15.65348,3.75008c4.04247,0.92271 8.08488,1.84562 12.1273,2.76851c2.74329,0.56133 5.34154,1.28445 8.05875,1.93951c0.8613,0.13853 1.62975,0.25141 2.49104,0.38995c0.46398,0.12913 0.84681,-0.16866 1.28191,-0.65426c-0.82293,-3.86882 -1.50079,-7.89963 -2.56153,-11.63246zM204.55845,273.50921c-1.84369,-4.15291 -3.1189,-8.55213 -4.72476,-12.84101c-0.42894,-1.33278 -1.18573,-1.84675 -2.44435,-1.99468c-1.07297,-0.09645 -2.09372,-0.38055 -3.14056,-0.57091c-0.95409,-0.16436 -1.81538,-0.30288 -2.62161,0.07923c-0.36844,0.60533 -0.12784,1.17782 0.04611,1.63055c1.72474,4.22099 3.44949,8.44199 5.17425,12.66298c0.58844,1.47815 1.51918,2.44486 3.17507,2.60237c1.37745,0.0802 2.76936,0.4676 4.09464,0.73527c0.27839,0.07747 0.5829,0.06105 0.99188,-0.33064c0.09001,-0.68264 -0.21725,-1.37485 -0.55065,-1.97316zM239.52947,290.11738c-1.82704,0.09821 -2.89446,1.41886 -2.80777,3.26288c0.23729,3.09913 4.77534,5.47433 7.39137,3.97819c2.02153,-1.15629 2.28878,-3.91282 0.5346,-5.51326c-0.73066,-0.60789 -1.55418,-1.24141 -2.60106,-1.4316c-0.71623,-0.30051 -1.60359,-0.34533 -2.51711,-0.29622zM241.67371,300.01599c-1.24412,0.15926 -2.06204,0.94265 -2.40155,2.16254c-0.33951,1.21988 0.19665,2.88586 1.20575,3.57104c1.44694,0.90821 2.9461,1.62881 4.70643,1.41105c0.21173,-0.04226 0.51623,-0.05869 0.84685,-0.16885c2.00983,-0.75502 2.65107,-2.69978 1.46528,-4.54635c-0.62622,-0.98315 -1.95422,-1.95945 -3.34616,-2.34685c-0.80908,-0.32616 -1.65588,-0.15752 -2.4766,-0.08257zM209.78991,290.63675c1.51087,0.31932 3.04501,-0.16354 3.63683,-1.21223c0.81514,-1.49184 0.4762,-3.50726 -0.91852,-4.60312c-1.36859,-1.18976 -2.99831,-1.44117 -4.57305,-1.17176c-2.42159,0.43825 -3.28621,2.82637 -1.94096,4.8185c0.65236,0.88925 1.75421,1.60043 3.23893,2.01366c0.1856,0.05165 0.37117,0.1033 0.55677,0.15495zM222.79686,288.08921c-1.07022,0.61218 -1.37196,1.33707 -1.10243,2.5241c0.62006,2.80153 4.28245,4.73066 6.88683,3.63561c1.67923,-0.64486 2.18989,-2.12046 1.44194,-3.74399c-0.68124,-1.50397 -1.82366,-2.42863 -3.45341,-2.68004c-1.33971,-0.57503 -2.60996,-0.32184 -3.77293,0.26431zM220.19242,306.069c-1.00021,-1.79491 -3.5201,-2.79959 -5.54443,-2.35176c-1.93147,0.47348 -2.6655,2.39242 -1.7581,4.16151c0.81461,1.74325 4.42191,3.15176 5.95612,2.66871c0.96574,-0.23674 1.54585,-0.88415 1.88538,-2.10403c0.20893,-0.75071 -0.16504,-1.56248 -0.53897,-2.37443zM209.84161,293.68423c-1.2036,0.3729 -1.9143,1.48948 -1.64482,2.6767c0.78237,3.65536 5.06543,5.15055 7.522,3.50885c1.21524,-0.774 1.49976,-2.51471 0.71402,-3.64323c-0.71902,-1.00897 -2.39208,-2.1825 -3.9696,-2.62155c-0.64957,-0.18079 -1.60366,-0.34514 -2.62162,0.07923zM243.56845,310.45185c-1.3747,0.62843 -1.85923,2.01012 -1.33745,3.36854c0.2406,0.57248 0.57395,1.17097 1.07851,1.51355c1.07576,0.80492 2.32267,1.35412 3.76683,1.55388c0.5829,0.06105 1.21803,-0.06554 1.78646,-0.31166c2.18098,-1.01072 2.54103,-3.74143 0.52289,-5.11198c-0.82345,-0.63371 -1.75142,-0.89198 -2.71994,-1.36369c-0.98017,-0.07063 -2.07929,-0.07319 -3.09729,0.35138zM228.16723,306.87314c-1.2819,0.65426 -1.75478,1.63486 -1.35194,3.06136c0.10723,0.3332 0.28118,0.78593 0.50735,1.05105c1.13073,1.32593 2.57766,2.23415 4.35248,2.32356c0.70178,-0.00684 1.24412,-0.15927 1.81253,-0.4054c1.51976,-0.79043 2.01874,-1.86474 1.36363,-3.46263c-0.58843,-1.47815 -1.63807,-2.37697 -3.05614,-2.67046c-1.273,-0.45547 -2.34602,-0.55174 -3.62792,0.10252zM230.56604,304.00198c1.69366,-0.33749 2.44213,-1.94908 1.78703,-3.54696c-0.89576,-2.17018 -3.49677,-3.60196 -5.79948,-3.2316c-2.18371,0.30208 -3.12947,2.26329 -2.06262,4.17794c0.80016,1.4359 1.87593,2.2408 3.38674,2.56032c0.92794,0.25826 1.8154,0.30289 2.68833,0.04032zM322.98411,314.65839c2.31988,0.64566 4.54697,1.26548 6.91907,1.72351c0.8613,0.13853 1.55137,0.53295 2.4649,0.48384c0.70185,-0.00704 1.15133,-0.1851 1.42697,-0.81626c-0.28118,-0.78593 -1.02355,-0.99254 -1.67311,-1.17333c-2.87665,-0.80062 -5.68665,-1.48149 -8.54881,-1.97492c-0.7685,-0.11269 -1.537,-0.22541 -2.14321,0.51572c0.16225,0.85403 0.78569,1.12871 1.55418,1.24142zM350.57878,324.36043c-2.87665,-0.80062 -5.68665,-1.48149 -8.54887,-1.97474c-0.7685,-0.11269 -1.53694,-0.22559 -2.14319,0.51573c0.16225,0.85403 0.78573,1.12852 1.4353,1.30931c2.31988,0.64566 4.54697,1.26549 6.91907,1.72351c0.8613,0.13853 1.55137,0.53295 2.4649,0.48384c0.70178,-0.00684 1.15132,-0.18509 1.42696,-0.81625c-0.28118,-0.78593 -0.90461,-1.06062 -1.55417,-1.24141zM370.05909,334.83744c-3.07394,-0.45098 -5.99118,-1.46506 -9.02448,-1.70278c-0.5829,-0.06105 -1.07302,-0.09627 -1.41528,0.41498c-0.13058,0.46917 0.21447,0.66639 0.53342,0.95733c0.47842,0.43649 1.15412,0.52336 1.7109,0.67832c2.55769,0.50968 5.20818,1.04519 7.83258,1.67441c0.55677,0.15496 1.16577,0.12228 1.8009,-0.00431c0.42341,-0.08433 0.62064,-0.43377 0.65848,-0.92895c-0.63791,-0.58187 -1.30193,-1.07003 -2.09651,-1.089zM349.21963,318.82584c-2.98109,-0.42535 -5.80553,-1.4136 -8.83891,-1.65113c-0.5829,-0.06105 -1.13968,-0.21601 -1.53416,0.48287c-0.06392,0.5889 0.46671,0.83778 0.81181,1.03481c0.71622,0.30051 1.43246,0.60104 2.20095,0.71373c2.11985,0.28663 4.25414,0.88064 6.32173,1.3551c0.8613,0.13853 1.69646,0.37097 2.54332,0.20213c0.42341,-0.08433 0.78016,-0.28838 0.87015,-0.97102c-0.63791,-0.58187 -1.30193,-1.07002 -2.3749,-1.16649zM324.77552,318.99912c-0.39727,-0.00957 -0.88737,-0.0448 -1.33691,0.13342c-0.33061,0.11016 -0.50178,0.36587 -0.48733,0.67323c0.04057,0.21346 0.14782,0.54666 0.3334,0.59831c0.3451,0.19703 0.78294,0.42008 1.27304,0.45529c2.39819,0.3643 4.65142,0.89022 6.99743,1.44197c1.04684,0.19036 2.11985,0.28663 3.17838,0.07572c0.30447,-0.01624 0.56841,-0.24613 0.64678,-0.52767c0.07836,-0.28154 -0.12167,-0.64057 -0.40006,-0.71804c-0.55677,-0.15496 -0.99466,-0.37781 -1.64423,-0.55859c-2.74329,-0.56133 -5.6055,-1.05458 -8.56051,-1.57364zM370.96865,340.55046c-1.20634,-0.33574 -2.31989,-0.64567 -3.55232,-0.88767c-1.60365,-0.34514 -3.3001,-0.7161 -4.92984,-0.96751c-0.67565,-0.08706 -1.25856,-0.14812 -1.86755,-0.11543c-0.30453,0.01643 -0.63513,0.12658 -0.73962,0.50204c-0.10444,0.37526 0.12172,0.64038 0.37397,0.81177c0.34505,0.19721 0.69015,0.39426 1.06133,0.49755c3.08833,0.75854 6.29563,1.44881 9.41011,2.11345c0.55677,0.15496 1.16576,0.12229 1.74588,-0.52511c-0.16225,-0.85402 -0.87846,-1.15454 -1.50194,-1.42905zM352.76413,331.2374c-1.20634,-0.33574 -2.31989,-0.64567 -3.55232,-0.88768c-1.69645,-0.37097 -3.41899,-0.64821 -5.14158,-0.92526c-0.58286,-0.06124 -1.19185,-0.02856 -1.8009,0.00431c-0.11888,0.0679 -0.38282,0.29779 -0.43504,0.48543c-0.02614,0.09391 0.0811,0.4271 0.2406,0.57247c0.38562,0.41067 0.84959,0.5398 1.40636,0.69476c1.20634,0.33574 2.50547,0.6973 3.7379,0.93933c1.57753,0.43904 3.11451,0.66444 4.71812,1.00977c0.8613,0.13853 1.72253,0.27726 2.51437,-0.41241c-0.20283,-1.06749 -0.85238,-1.24826 -1.68755,-1.4807zM367.87759,322.19873c-1.20634,-0.33574 -2.31988,-0.64567 -3.55231,-0.88768c-1.72259,-0.27705 -3.419,-0.6482 -5.14159,-0.92527c-0.49006,-0.03541 -1.09905,-0.00273 -1.58917,-0.03796c-0.30453,0.01643 -0.63513,0.12658 -0.73957,0.50185c-0.10449,0.37545 0.12166,0.64055 0.37392,0.81194c0.4379,0.22285 0.96852,0.47172 1.43251,0.60086c1.57753,0.43904 3.27398,0.81001 4.90373,1.06142c1.25856,0.1481 2.34602,0.55174 3.57843,0.79376c0.92794,0.25826 0.95408,0.16437 2.30264,-0.37016c-0.22891,-0.97376 -0.87847,-1.15455 -1.56861,-1.54878zM359.14757,328.05984c1.48473,0.41323 2.96944,0.82643 4.4803,1.14574c1.39194,0.38739 2.92888,0.61298 4.43974,0.9323c1.04689,0.19018 1.04689,0.19017 2.36936,-0.25062c0.24946,-0.53707 -0.0695,-0.82801 -0.50734,-1.05105c-0.53064,-0.24887 -1.0874,-0.40382 -1.55138,-0.53295c-2.65053,-0.53532 -5.39382,-1.09665 -8.04432,-1.63216c-0.74236,-0.20661 -1.51087,-0.31932 -2.34323,0.1567c-0.07556,0.99 0.54787,1.26471 1.15686,1.23202zM327.10757,332.89313c2.74334,0.56115 5.57942,1.1483 8.3227,1.70963c0.7685,0.11269 1.56308,0.13168 2.31709,-0.0628c0.42345,-0.08452 0.62069,-0.43396 0.63238,-0.83523c-0.35954,-0.50439 -0.9163,-0.65935 -1.38027,-0.78848c-2.92888,-0.61298 -5.85775,-1.22596 -8.81277,-1.74504c-0.5829,-0.06105 -1.0991,-0.00255 -1.6153,0.05595c-0.60905,0.03286 -0.73962,0.50203 -0.68461,1.02286c0.26674,0.47857 0.70457,0.70161 1.22078,0.64311zM344.562,336.63873c2.53162,0.60341 5.06317,1.20699 7.59477,1.81039c0.83516,0.23243 1.51085,0.31931 2.29099,0.03092c0.33061,-0.11016 0.59456,-0.34004 0.48733,-0.67324c-0.04057,-0.21346 -0.14781,-0.54665 -0.33339,-0.59831c-0.3451,-0.19703 -0.78294,-0.42006 -1.24692,-0.54919c-2.53162,-0.60341 -5.03708,-1.30071 -7.56864,-1.9043c-0.74236,-0.20661 -1.53695,-0.22559 -2.26488,-0.12482c-0.30453,0.01643 -0.56846,0.24632 -0.79184,0.68967c0.49285,0.74387 1.11635,1.01838 1.83256,1.3189zM326.06464,326.94082c2.60997,0.32187 5.15597,1.23281 7.78037,1.86205c0.7685,0.11269 1.51087,0.31931 2.22429,-0.08863c0.11894,-0.06807 0.29009,-0.32379 0.34231,-0.51143c0.05223,-0.18764 -0.08116,-0.42692 -0.2406,-0.57248c-0.43784,-0.22304 -0.78294,-0.42006 -1.24692,-0.54919c-2.62435,-0.62941 -5.12982,-1.32673 -7.75423,-1.95595c-0.95409,-0.16436 -2.00092,-0.35472 -3.03057,0.47093c0.53342,0.95733 1.13078,1.32574 1.92536,1.34472z" data-paper-data="{&quot;index&quot;:null}" fill="#216aff"/><path d="M232.88435,280.58384c-0.95409,-0.16436 -1.5253,-0.62668 -1.87314,-1.53235c-0.96241,-2.2899 -1.89869,-4.67373 -2.71604,-7.12565c-0.5623,-1.57205 -1.15074,-3.05021 -1.83198,-4.55419c-0.17395,-0.45274 -0.41454,-1.02523 -0.97131,-1.18019c-1.273,-0.45547 -2.54605,-0.91076 -3.97576,-0.80316c-0.2728,1.33944 -0.36561,1.31361 -0.12499,1.88609c0.45506,1.23887 0.84349,2.358 1.32469,3.50294c0.8957,2.17036 1.76526,4.43464 2.63489,6.69874c0.20003,0.35902 0.40006,0.71804 0.05781,1.22928c-0.88743,-0.04462 -1.74868,-0.18332 -2.34602,-0.55174c-1.44082,-2.72641 -2.24653,-5.57941 -3.26391,-8.39033c-0.49564,-1.45232 -1.20302,-2.8624 -1.81754,-4.24682c-0.17395,-0.45274 -0.34784,-0.90567 -0.81182,-1.0348c-1.36585,-0.48111 -2.73163,-0.96243 -4.06855,-0.829c-0.48732,0.67323 -0.36565,1.3138 -0.12505,1.88628c0.52179,1.35842 0.95072,2.69119 1.49858,3.95588c0.76239,1.93089 1.45807,3.74223 2.2204,5.6733c0.20008,0.35884 0.18838,0.76012 -0.03498,1.20346c-0.7685,-0.11269 -1.51086,-0.31932 -2.21265,-0.31247c-1.00631,0.02328 -1.45858,-0.50713 -1.73976,-1.29306c-0.61452,-1.38443 -1.16245,-2.64893 -1.77697,-4.03335c-1.48415,-3.64851 -2.73048,-7.433 -4.66421,-10.9031c-0.2667,-0.47875 -0.41449,-1.0254 -0.23169,-1.6822c1.21804,-0.06554 2.51717,0.29603 3.74959,0.53806c3.79016,0.75152 7.55427,1.59675 11.34438,2.34844c5.39382,1.09665 10.72094,2.07374 16.1147,3.17058c6.25507,1.23536 12.5102,2.47054 18.76526,3.7059c3.88296,0.77734 7.647,1.62275 11.52996,2.40009c3.23335,0.59673 6.53345,1.31284 9.74072,2.0033c2.92888,0.61298 5.88387,1.13205 8.81275,1.74505c3.51178,0.67404 6.90464,1.41614 10.39035,2.18389c5.76496,1.20014 11.46324,2.28054 17.22824,3.4805c3.48565,0.76793 7.06409,1.5617 10.57587,2.23574c5.48657,1.12266 10.99932,2.15122 16.48589,3.27388c3.1406,0.57073 6.374,1.16728 9.48846,1.83192c2.80999,0.68089 5.75052,0.89276 8.57496,1.88102c1.53305,5.98753 3.09223,11.88115 4.53247,17.84286c0.18834,0.76031 0.46951,1.54623 0.20835,2.48457c-1.58922,-0.03778 -2.95501,-0.51908 -4.28027,-0.78673c-1.40025,-2.51296 -2.25817,-5.17832 -3.11609,-7.84368c-0.5623,-1.57205 -1.21746,-3.16976 -1.9915,-4.69956c-0.2667,-0.47875 -0.50729,-1.05123 -1.06407,-1.2062c-1.29913,-0.36157 -2.54604,-0.91076 -3.93518,-0.5897c-0.42067,0.79297 -0.20615,1.45916 0.00832,2.12555c0.54786,1.26469 0.97685,2.59729 1.52472,3.86198c0.69568,1.81135 1.39136,3.62268 2.08703,5.43403c0.14782,0.54665 0.38841,1.11912 -0.07277,1.69846c-0.54233,0.15242 -1.09911,-0.00255 -1.51087,-0.31931c-1.40025,-2.51296 -2.23209,-5.27204 -3.18281,-7.96323c-0.5623,-1.57205 -1.15074,-3.05021 -1.83198,-4.55418c-0.17395,-0.45274 -0.4145,-1.0254 -0.97127,-1.18036c-1.29913,-0.36157 -2.57218,-0.81686 -4.00189,-0.70925c-0.53954,0.86087 -0.16557,1.67263 0.11556,2.45875c1.17688,2.95629 2.26096,5.88677 3.37119,8.72334c0.2406,0.57248 0.41449,1.0254 0.35058,1.61431c-0.02608,0.09372 -0.1711,0.25552 -0.31617,0.41752c-0.58286,-0.06124 -1.16577,-0.12228 -1.67032,-0.46487c-1.37413,-2.60685 -2.20594,-5.36595 -3.15667,-8.05713c-0.5623,-1.57205 -1.15074,-3.05021 -1.83198,-4.55419c-0.17395,-0.45274 -0.41455,-1.02522 -0.97133,-1.18018c-1.3658,-0.4813 -2.63878,-0.93678 -3.97571,-0.80335c-0.58012,0.64741 -0.45844,1.28797 -0.21783,1.86045c0.52172,1.3586 0.95071,2.69118 1.49858,3.95588c0.76239,1.93089 1.55085,3.76806 2.22038,5.67332c0.14782,0.54665 0.48121,1.14496 -0.0061,1.81819c-1.7631,-0.4907 -3.55231,-0.88767 -5.24876,-1.25864c-1.37413,-2.60685 -2.23209,-5.27205 -3.09001,-7.9374c-0.5623,-1.57205 -1.2174,-3.16994 -1.99144,-4.69974c-0.17395,-0.45274 -0.41454,-1.02523 -0.78572,-1.12852c-1.33971,-0.57503 -2.77217,-1.17606 -4.30636,-0.69301c-0.30174,0.72488 -0.18006,1.36544 0.06054,1.93793c0.45512,1.23868 0.84349,2.358 1.3247,3.50295c0.73625,2.0248 1.49863,3.95569 2.26097,5.88676c0.17395,0.45274 0.3217,0.99959 0.16504,1.56248c-0.75406,0.19466 -1.35135,-0.17393 -1.88205,-0.42261c-1.30746,-2.48712 -2.16538,-5.15249 -3.0233,-7.81784c-0.56235,-1.57188 -1.21746,-3.16977 -1.99148,-4.69957c-0.20003,-0.35902 -0.34784,-0.90567 -0.81182,-1.0348c-1.273,-0.45547 -2.7055,-1.05634 -4.12078,-0.64136c-0.39453,0.69905 -0.27286,1.33963 -0.03224,1.91211c0.45506,1.23887 0.84349,2.358 1.32469,3.50295c0.73625,2.0248 1.49858,3.95588 2.26096,5.88677c0.1739,0.45293 0.3217,0.99958 0.11277,1.7503c-2.55769,-0.50968 -5.07482,-0.8059 -7.43527,-1.66501c-1.37413,-2.60685 -2.23209,-5.27203 -3.09001,-7.9374c-0.5623,-1.57205 -1.2174,-3.16994 -1.99142,-4.69975c-0.2406,-0.57248 -0.60015,-1.07688 -1.24971,-1.25766c-1.20634,-0.33574 -2.38654,-0.7654 -3.60457,-0.69986c-0.33951,1.21988 -0.43231,1.19406 -0.15113,1.98c0.52172,1.3586 0.97685,2.59728 1.49858,3.95587c0.76239,1.93089 1.49865,3.95569 2.26096,5.88677c0.17395,0.45274 0.34785,0.90566 -0.15392,1.27154c-0.91352,0.0491 -1.62974,-0.25141 -1.97757,-1.15708c-0.2406,-0.57248 -0.48121,-1.14496 -0.72181,-1.71744c-0.60288,-1.78551 -1.23189,-3.47712 -1.83478,-5.26263c-0.49564,-1.45232 -1.05796,-3.02438 -1.85812,-4.46028c-0.1739,-0.45293 -0.4145,-1.0254 -0.78568,-1.12872c-1.33971,-0.57503 -2.77222,-1.17587 -4.51809,-0.65075c0.16778,2.27113 1.23468,4.18557 1.97089,6.21057c0.76239,1.93089 1.61751,3.8878 2.08981,6.14248c-1.08461,0.30465 -1.85312,0.19193 -2.36041,-0.8593c-0.2406,-0.57248 -0.48121,-1.14495 -0.72181,-1.71743c-0.69568,-1.81135 -1.36527,-3.71641 -1.96815,-5.50194c-0.46951,-1.54623 -1.05795,-3.02438 -1.85811,-4.46027c-0.20003,-0.35902 -0.34783,-0.90567 -0.81181,-1.03481c-1.273,-0.45547 -2.73158,-0.96261 -4.12078,-0.64136c-0.36839,0.60516 -0.22059,1.15181 -0.07278,1.69845c0.34783,0.90567 0.66954,1.90526 1.01738,2.81094c0.86963,2.26408 1.8059,4.64791 2.67552,6.91199c0.20003,0.35902 0.30727,0.69221 0.01718,1.016c-1.7081,0.03012 -5.75052,-0.89276 -7.55421,-1.59692c-1.30746,-2.48712 -2.16538,-5.15249 -3.02329,-7.81785c-0.76239,-1.93089 -1.40579,-3.93005 -2.61771,-5.68271c-1.39194,-0.38739 -2.7983,-1.08215 -4.42524,-0.62511c0.01444,0.30738 -0.15672,0.56307 -0.11614,0.77655c0.0811,0.42711 0.16226,0.85403 0.26949,1.18722c0.45506,1.23887 0.84348,2.35799 1.32469,3.50294c0.73625,2.0248 1.49859,3.95588 2.26092,5.88696c0.17395,0.45274 0.32175,0.99938 0.16503,1.56247c-0.75401,0.19449 -1.31079,0.03953 -1.90813,-0.32888c-1.30746,-2.48712 -2.16537,-5.1525 -3.02329,-7.81786c-0.56235,-1.57188 -1.21745,-3.16976 -1.99149,-4.69956c-0.20003,-0.35902 -0.34783,-0.90567 -0.81181,-1.0348c-1.273,-0.45547 -2.7055,-1.05633 -4.12078,-0.64136c-0.39453,0.69905 -0.27286,1.33963 -0.03225,1.9121c0.52178,1.35842 1.04351,2.71701 1.5653,4.07543c0.66953,1.90526 1.45801,3.74242 2.1276,5.6475c0.10723,0.3332 0.37398,0.81175 -0.15392,1.27153c-2.06762,-0.47428 -4.16135,-0.85481 -6.32178,-1.3549c-0.64341,-1.99916 -1.313,-3.90422 -1.88974,-5.78364c-0.65789,-2.30634 -1.40857,-4.63852 -2.51601,-6.76662c-0.26674,-0.47857 -0.38841,-1.11912 -0.9191,-1.36781c-1.33966,-0.57521 -2.77216,-1.17606 -4.30636,-0.693c-0.38003,1.00624 -0.00612,1.81819 0.27506,2.60412c1.05796,3.02439 2.18261,6.16832 3.24057,9.19269c0.10723,0.3332 0.30731,0.69203 -0.0089,1.10973c-0.9396,0.14282 -1.56302,-0.13186 -2.00365,-1.06335c-0.98854,-2.196 -1.73925,-4.52817 -2.51601,-6.76661c-0.46957,-1.54606 -1.12465,-3.14393 -1.89869,-4.67373c-0.26674,-0.47857 -0.50734,-1.05104 -1.0641,-1.206c-1.29914,-0.36157 -2.57214,-0.81705 -4.00185,-0.70944c-0.53954,0.86087 -0.16557,1.67263 0.11556,2.45875c1.17688,2.95629 2.26096,5.88677 3.37119,8.72334c0.2406,0.57248 0.4145,1.0254 0.25778,1.58849c-0.72792,0.10076 -1.35136,-0.17393 -2.04151,-0.56818c-0.40006,-0.71805 -0.77402,-1.5298 -1.12186,-2.43547c-0.60288,-1.78551 -1.20577,-3.57103 -1.83478,-5.26264c-0.58843,-1.47815 -1.17688,-2.95629 -1.85811,-4.46027c-0.14776,-0.54684 -0.53342,-0.95733 -1.09021,-1.11228c-1.32522,-0.26784 -2.47933,-0.79123 -3.81625,-0.65779c-0.63234,0.83503 -0.16563,1.67282 0.11556,2.45875c1.15075,3.05021 2.23484,5.98068 3.41172,8.93699c0.17395,0.45274 0.28119,0.78592 0.00559,1.41691c-1.04689,-0.19018 -2.09376,-0.38035 -3.75239,-1.2465z" data-paper-data="{&quot;index&quot;:null}" fill="#ffffff"/><path d="M363.30634,277.55179c-3.11447,-0.66463 -6.13613,-1.30343 -9.2506,-1.96808c-0.1856,-0.05165 -0.27838,-0.07748 -0.46398,-0.12913c-2.84778,-0.18588 -5.69836,-1.08022 -8.56051,-1.57365c-2.86222,-0.49325 -5.76502,-1.19996 -8.6011,-1.7871c-5.30102,-1.07083 -10.53535,-2.0221 -15.83633,-3.09311c-3.48565,-0.76793 -7.06415,-1.56152 -10.54979,-2.32947c-0.1856,-0.05165 -0.43783,-0.22303 -0.64957,-0.18078c-2.66219,-0.13422 -5.11538,-1.01935 -7.69922,-1.43514c-3.4712,-0.46058 -6.90464,-1.41615 -10.39029,-2.18409c-0.39732,-0.0094 -0.64956,-0.18078 -0.95409,-0.16436c-3.03337,-0.23753 -5.9506,-1.2516 -8.99835,-1.79668c-3.53792,-0.58013 -6.98299,-1.13461 -10.39032,-2.1839c-0.34505,-0.19721 -0.62343,-0.27469 -0.92797,-0.25826c-2.66214,-0.13441 -5.11539,-1.01936 -7.69922,-1.43513c-3.63072,-0.60594 -7.27581,-1.51946 -10.85425,-2.31322c-0.1856,-0.05165 -0.27837,-0.07748 -0.46398,-0.12913c-3.16675,-0.47682 -6.21454,-1.02171 -9.32901,-1.68635c-2.16043,-0.5001 -4.3208,-1.00037 -6.53344,-1.31284c-2.98115,-0.42516 -5.83167,-1.31969 -8.81276,-1.74505c-3.63072,-0.60594 -7.24974,-1.61317 -10.85431,-2.31303c-1.88199,-0.4228 -3.79018,-0.75151 -5.67216,-1.17432c-0.4901,-0.03522 -0.9135,0.0491 -1.37748,-0.08002c-1.13968,-0.21601 -1.87926,0.28585 -2.32599,1.17253c-0.78905,1.39811 -1.45917,2.72816 -2.15543,4.15211c-0.32787,0.81879 -0.74847,1.61158 -1.35473,2.3529c-0.7685,-0.11269 -1.49636,-0.01213 -2.14593,-0.19291c-2.16043,-0.5001 -4.22807,-0.97436 -6.34787,-1.26118c-2.30545,-0.33829 -4.61089,-0.67657 -7.00912,-1.04071c-0.95409,-0.16436 -1.93426,-0.23499 -2.87665,-0.80062c0.42951,-1.90251 1.54917,-3.41079 2.23099,-5.1421c0.65568,-1.6374 1.58974,-3.19734 2.24548,-4.83494c0.77456,-1.7053 1.70862,-3.26523 2.54994,-4.85117c0.5162,-0.05851 0.9396,-0.14282 1.31079,-0.03953c3.04781,0.54489 6.12171,0.99607 9.26231,1.5668c3.25954,0.50264 6.51901,1.00547 9.70018,1.78966c4.3208,1.00037 8.60104,1.78729 12.85518,2.66793c3.94967,0.89688 7.95153,1.60632 11.92728,2.40948c2.74329,0.56133 5.57936,1.14848 8.34879,1.6159c3.04781,0.54489 6.04339,1.27742 9.06506,1.91623c0.21173,-0.04226 0.46398,0.12914 0.67571,0.08689c2.10536,-0.02055 4.21356,0.66718 6.30728,1.04772c3.90905,0.68362 7.647,1.62275 11.50383,2.494c0.39732,0.0094 0.6757,0.08687 0.95409,0.16435c2.74329,0.56133 5.4199,1.00293 8.16318,1.56425c3.57845,0.79376 7.24974,1.61317 10.82817,2.40695c0.1856,0.05165 0.27839,0.07748 0.46398,0.12914c2.95502,0.51908 6.00282,1.06396 9.02448,1.70278c3.57844,0.79377 7.24968,1.61335 10.82816,2.40694c0.1856,0.05165 0.27838,0.07748 0.46397,0.12913c3.03331,0.23773 5.85775,1.22596 8.81277,1.74504c3.88296,0.77734 7.85872,1.5805 11.74164,2.35803c4.16135,0.85481 8.41549,1.73546 12.60297,2.49637c2.30539,0.33847 4.55862,0.86438 6.81184,1.39031c2.92888,0.61298 6.00276,1.06415 8.99836,1.7967c0.74236,0.20661 1.57752,0.43904 2.43881,0.57757c4.00184,0.70944 8.00375,1.41869 11.90114,2.5034c0.99461,0.378 1.92257,0.63626 3.00997,1.04008c-1.34024,2.66009 -2.50938,5.06463 -3.58572,7.49501c-0.98349,2.45602 -1.96704,4.91222 -3.25505,7.38466c-0.46398,-0.12913 -0.74236,-0.20661 -1.02073,-0.28409c-2.37216,-0.45784 -4.54698,-1.26548 -6.97135,-1.53569c-1.04684,-0.19036 -2.14595,-0.19291 -3.01002,-1.03989c0.3862,-2.82462 2.13825,-5.16814 2.76226,-8.12873c-0.55677,-0.15496 -0.92796,-0.25826 -0.86129,-0.13851z" data-paper-data="{&quot;index&quot;:null}" fill="#216aff"/><path d="M356.65506,286.7212c-2.74329,-0.56133 -5.39382,-1.09665 -8.13711,-1.65797c-6.81184,-1.39032 -13.53088,-2.75482 -20.34273,-4.14514c-4.06855,-0.82899 -8.22991,-1.6838 -12.39125,-2.53861c-3.11447,-0.66463 -6.13613,-1.30344 -9.2506,-1.96808c-5.30102,-1.07083 -10.50922,-2.11599 -15.81025,-3.18682c-3.2334,-0.59656 -6.53346,-1.31285 -9.74072,-2.0033c-6.81184,-1.39032 -13.53088,-2.75481 -20.34272,-4.14513c-5.9506,-1.25161 -11.92728,-2.40949 -17.90396,-3.56737c-6.81184,-1.39032 -13.74261,-2.71255 -20.58058,-4.00897c-3.88291,-0.77752 -7.85868,-1.58069 -11.74164,-2.35802c-1.32526,-0.26765 -2.65048,-0.53549 -4.10913,-1.04244c0.8124,-2.20049 1.94375,-4.11005 2.88946,-6.07107c0.30453,-0.01643 0.60904,-0.03286 0.79463,0.0188c5.02259,0.99353 10.13804,2.01269 15.16063,3.00622c5.02259,0.99353 10.11189,2.10661 15.13453,3.09994c5.79109,1.10622 11.48939,2.18664 17.25434,3.38678c2.65053,0.53532 5.30102,1.07083 7.95152,1.60632c5.11545,1.01917 10.23083,2.03852 15.34627,3.05769c2.92888,0.61298 5.85773,1.22596 8.78662,1.83894c5.88389,1.13206 11.74169,2.35784 17.62558,3.4899c2.74329,0.56133 5.57936,1.14849 8.3227,1.70963c5.02259,0.99353 9.95243,1.96104 14.97503,2.95457c5.20823,1.04499 10.39029,2.18409 15.59852,3.22909c3.04781,0.54489 6.0956,1.0898 9.11728,1.7286c1.90813,0.32889 3.85684,0.87124 5.73888,1.29385c-0.534,2.27797 -1.98432,3.89659 -2.17324,6.37158c-0.7685,-0.11269 -1.4703,-0.10586 -2.17208,-0.09901z" data-paper-data="{&quot;index&quot;:null}" fill="#d0e9ea"/><path d="M387.41345,346.84599c-2.36487,-8.74661 -4.37302,-17.69729 -6.28831,-26.62233c-2.02258,-9.25804 -3.74063,-18.53251 -6.30555,-27.63814c-0.55066,-1.97315 -0.68957,-3.62954 0.349,-5.56492c1.53752,-3.00971 2.79666,-6.09689 4.1486,-9.15825c0.24946,-0.53707 0.59177,-1.04849 1.11966,-1.50827c0.1739,0.45293 0.40004,0.71804 0.4145,1.0254c0.63455,3.10871 1.33582,6.33696 1.94423,9.53959c1.39356,7.56644 2.90605,15.06478 4.63022,22.52107c0.71289,2.82716 1.39972,5.74806 1.90091,8.61749c0.89512,5.40565 2.42543,10.68454 2.98996,16.20035c0.20561,1.77594 0.25173,3.40649 -0.40401,5.04408c-1.15465,2.71172 -2.30934,5.42364 -3.464,8.13539c-0.02614,0.09391 -0.14502,0.1618 -0.5279,0.45977c-0.1739,-0.45293 -0.37397,-0.81176 -0.50729,-1.05123z" data-paper-data="{&quot;index&quot;:null}" fill="#216aff"/><path d="M317.69414,333.30631c-0.8613,-0.13853 -1.65588,-0.15751 -2.49105,-0.38995c-2.71721,-0.65505 -5.34154,-1.28446 -8.05874,-1.93952c-4.04242,-0.9229 -8.08483,-1.8458 -12.1273,-2.7685c-5.15596,-1.23281 -10.40472,-2.49145 -15.65348,-3.75009c-4.78478,-1.1295 -9.54348,-2.35274 -14.32826,-3.48224c-0.5829,-0.06105 -1.25861,-0.14792 -1.71089,-0.67832c-1.11022,-2.83656 -1.98258,-5.80929 -2.85494,-8.78203c-0.88685,-3.27992 -1.89258,-6.49193 -2.6605,-9.83993c-0.52453,-2.06706 -1.26078,-4.09185 -1.45469,-6.26906c0.01169,-0.40127 -0.16225,-0.85402 0.39173,-1.40752c0.5946,-0.34023 1.42976,-0.1078 2.29101,0.03091c3.60457,0.69986 7.20915,1.39972 10.83982,2.00586c5.26045,0.85737 10.50923,2.116 15.78411,3.28073c6.87855,1.50987 13.79762,3.23339 20.62389,4.93106c0.55677,0.15496 1.23248,0.24183 1.78925,0.39679c1.11355,0.30991 2.34597,0.55195 3.55231,0.88768c0.8613,0.13853 1.31358,0.66894 1.35695,1.59085c0.02887,0.61473 0.21725,1.37484 0.33893,2.0154c0.7968,3.96273 1.99092,7.93485 3.09223,11.88116c1.03461,3.82676 1.73859,7.76364 2.56153,11.63246c-0.4351,0.4856 -0.79178,0.68948 -1.2819,0.65426zM274.12488,298.73475c-2.4649,-0.48384 -4.81093,-1.0356 -7.27582,-1.51945c-0.1856,-0.05165 -0.42339,0.08433 -0.63512,0.12658c-2.53155,-0.60358 -4.98482,-1.48854 -7.67313,-1.52885c0.3823,2.93732 4.42524,17.50967 6.39338,23.01159c1.3658,0.4813 2.87665,0.80062 4.4136,1.02621c0.5829,0.06105 1.25856,0.14812 1.81533,0.30308c5.15596,1.23281 10.21918,2.43961 15.28236,3.64659c0.1856,0.05165 0.49006,0.03541 0.67565,0.08706c2.71721,0.65505 5.55328,1.24221 8.27047,1.89726c1.73698,0.58461 3.38121,1.14321 5.22268,1.35236c2.37211,0.45802 4.52083,1.3594 6.85236,1.60397c2.79834,1.08197 5.69829,1.0804 8.64166,2.00056c0.23227,-1.55307 -0.31559,-2.81778 -0.58512,-4.0048c-1.34466,-5.22742 -2.62267,-10.3351 -3.96733,-15.56253c-0.25505,-0.87984 -0.62902,-1.69162 -0.76512,-2.63954c-0.08395,-1.13539 -0.93353,-1.67518 -1.79478,-1.81389c-3.72351,-0.63177 -7.35697,-1.94637 -11.17327,-2.60397c-3.25948,-0.50283 -6.50733,-1.40675 -9.71458,-2.09721c-0.55677,-0.15496 -1.23247,-0.24183 -1.78924,-0.39679c-1.82977,-0.61043 -3.59288,-1.10113 -5.52715,-1.33612c-2.18652,-0.40637 -4.34693,-0.90648 -6.66682,-1.55212z" data-paper-data="{&quot;index&quot;:null}" fill="#010201"/><path d="M204.23616,275.74492c-1.32526,-0.26765 -2.74333,-0.56116 -4.0947,-0.73508c-1.65588,-0.15751 -2.58657,-1.12442 -3.175,-2.60257c-1.72474,-4.22099 -3.44955,-8.4418 -5.17429,-12.66278c-0.1739,-0.45293 -0.44063,-0.93151 -0.0461,-1.63056c0.80627,-0.38229 1.66757,-0.24377 2.62161,-0.07923c1.04689,0.19018 2.06764,0.47427 3.14061,0.57072c1.25856,0.1481 1.89648,0.72998 2.44435,1.99468c1.60586,4.28889 2.88107,8.68812 4.72475,12.84101c0.21447,0.66639 0.42894,1.33278 0.43173,2.04123c-0.40898,0.3917 -0.71349,0.40812 -0.87294,0.26256zM198.86073,269.19351c0.01444,0.30738 -0.0378,0.49499 0.00274,0.70864c0.50734,1.05105 1.01464,2.10228 1.49585,3.24724c0.59734,0.36842 1.22077,0.64311 2.09371,0.38054c-0.1389,-1.65639 -1.11018,-2.83674 -1.48693,-4.35697c-0.82072,0.07494 -1.40357,0.0137 -2.10536,0.02055zM199.51972,265.02946c-1.23243,-0.24202 -2.39823,-0.36412 -3.63066,-0.60614c0.13612,0.94793 0.44337,1.64014 0.93628,2.38382c1.04684,0.19036 2.02705,0.26081 3.07389,0.45118c0.23508,-0.84462 -0.19112,-1.46876 -0.3795,-2.22887zM195.70126,260.42792c0.07224,1.53666 0.07224,1.53665 2.47042,1.90095c-0.11277,-1.7503 -1.3308,-1.68475 -2.47042,-1.90095z" data-paper-data="{&quot;index&quot;:null}" fill="#020202"/><path d="M244.74044,291.87102c1.7542,1.60044 1.48694,4.35696 -0.53459,5.51326c-2.61602,1.49615 -7.1541,-0.87907 -7.39137,-3.97819c-0.08669,-1.84401 0.98075,-3.16465 2.80778,-3.26287c0.82072,-0.07494 1.70809,-0.03012 2.42433,0.27039c1.04689,0.19018 1.89649,0.72998 2.69386,1.45743zM239.76395,292.50805c-0.63513,0.12659 -0.93686,0.85146 -0.60346,1.44978c0.37393,0.81194 2.74882,1.97844 3.81905,1.36625c0.56841,-0.24613 0.84406,-0.8773 0.51066,-1.47561c-0.30727,-0.69221 -0.81181,-1.03481 -1.73976,-1.29306c-0.64957,-0.18079 -1.35135,-0.17394 -1.98648,-0.04735z" data-paper-data="{&quot;index&quot;:null}" fill="#030606"/><path d="M247.58926,302.47124c1.093,1.82074 0.54454,3.79134 -1.46528,4.54635c-0.23781,0.13598 -0.54232,0.15242 -0.84685,0.16884c-1.78646,0.31166 -3.25948,-0.50283 -4.70644,-1.41106c-1.0091,-0.68518 -1.54527,-2.35114 -1.20575,-3.57104c0.33951,-1.21988 1.15744,-2.00328 2.40156,-2.16254c0.82072,-0.07494 1.66752,-0.24359 2.3838,0.05675c1.29914,0.36157 2.71994,1.36369 3.43896,2.37267zM241.90209,304.22485c0.98297,0.77909 1.97757,1.15708 3.18112,0.78437c0.66127,-0.22049 1.08188,-1.01328 0.65569,-1.63741c-0.46671,-0.83778 -1.22351,-1.35176 -2.20375,-1.42219c-0.58286,-0.06124 -1.19184,-0.02857 -1.70809,0.03012c-0.69626,1.42394 -0.65568,1.63742 0.07505,2.24511z" data-paper-data="{&quot;index&quot;:null}" fill="#040605"/><path d="M205.90141,288.44232c-1.34524,-1.99212 -0.38783,-4.35442 1.94095,-4.8185c1.66752,-0.24359 3.27119,0.10154 4.57306,1.17176c1.39472,1.09586 1.75978,3.01735 0.91851,4.60311c-0.49903,1.0745 -2.03317,1.55738 -3.63683,1.21223c-0.1856,-0.05165 -0.27837,-0.07748 -0.46397,-0.12913c-1.48473,-0.41323 -2.58658,-1.12441 -3.33173,-2.03947zM207.57505,286.38053c-0.20893,0.75071 0.41728,1.73386 1.41195,2.11168c0.46398,0.12913 1.04681,0.19036 1.56308,0.13168c0.91352,-0.0491 1.26747,-0.96163 0.77455,-1.7053c-0.3595,-0.50458 -0.83788,-0.94108 -1.30188,-1.07022c-0.99466,-0.37781 -2.17207,-0.09901 -2.44771,0.53217z" data-paper-data="{&quot;index&quot;:null}" fill="#040505"/><path d="M229.99711,290.59866c0.74789,1.62371 0.14443,3.07348 -1.44199,3.74416c-2.60438,1.09506 -6.26671,-0.83426 -6.88683,-3.63561c-0.26948,-1.18722 0.05833,-2.00583 1.10243,-2.5241c1.18909,-0.68009 2.45936,-0.93325 3.79906,-0.35822c1.53694,0.22558 2.67937,1.15024 3.42732,2.77377zM224.60327,289.50201c-0.58286,-0.06124 -1.09632,0.70591 -0.8557,1.27838c0.34784,0.90567 1.10465,1.41965 2.03259,1.67791c0.83516,0.23243 1.5892,0.03777 2.31434,-0.77146c-0.60288,-1.78551 -1.99481,-2.1729 -3.49123,-2.18486z" data-paper-data="{&quot;index&quot;:null}" fill="#030604"/><path d="M218.84602,310.54746c-1.50807,0.38914 -5.11542,-1.01917 -5.95612,-2.66871c-0.9074,-1.76909 -0.17337,-3.68803 1.7581,-4.16151c1.93152,-0.47365 4.45143,0.53103 5.54443,2.35176c0.46671,0.83778 0.8407,1.64954 0.53897,2.37443c-0.43231,1.19406 -1.01242,1.84147 -1.88538,2.10403zM217.24013,306.25857c-0.71623,-0.30051 -1.49916,-0.72059 -2.3721,-0.45803c-0.30453,0.01643 -0.50177,0.36587 -0.48731,0.67323c0.04057,0.21346 0.08115,0.42691 0.21447,0.66639c0.4262,0.62413 0.93075,0.96671 1.67311,1.17332c0.74236,0.20661 1.45858,0.50714 2.15764,-0.20835c0.04948,-0.89627 -0.37671,-1.5204 -1.1858,-1.84656z" data-paper-data="{&quot;index&quot;:null}" fill="#030506"/><path d="M216.43282,296.22654c0.78573,1.12852 0.50122,2.86924 -0.71401,3.64323c-2.45658,1.6417 -6.73965,0.14651 -7.522,-3.50885c-0.26948,-1.18722 0.41513,-2.21007 1.64482,-2.6767c0.99182,-0.33047 1.97204,-0.26003 2.62161,-0.07924c1.57753,0.43904 3.25058,1.61257 3.9696,2.62155zM212.27093,298.60682c1.11354,0.30991 1.32522,0.26785 2.381,-0.65171c-1.14801,-2.34157 -2.20932,-2.83911 -4.43084,-2.04203c0.09834,1.44293 0.77677,2.23845 2.04981,2.69374z" data-paper-data="{&quot;index&quot;:null}" fill="#050504"/><path d="M249.35959,311.5579c1.92536,1.34472 1.65803,4.10146 -0.52294,5.11217c-0.56841,0.24613 -1.20356,0.37272 -1.78646,0.31166c-1.35135,-0.17394 -2.59826,-0.72314 -3.76677,-1.55405c-0.47846,-0.43632 -0.83795,-0.9409 -1.07855,-1.51338c-0.52179,-1.35842 0.08168,-2.8082 1.3375,-3.36873c0.95129,-0.54411 2.05042,-0.54155 3.12338,-0.4451c0.96852,0.47172 1.89647,0.72998 2.69385,1.45741zM245.09317,314.31382c0.59734,0.36842 1.31363,0.66875 2.13429,0.59401c0.4901,0.03522 0.96579,-0.23691 1.09637,-0.70609c0.24946,-0.53707 -0.16225,-0.85401 -0.48121,-1.14495c-1.23522,-0.95049 -2.28211,-1.14066 -3.86853,-0.46996c-0.04944,0.89608 0.52179,1.35841 1.11908,1.72701z" data-paper-data="{&quot;index&quot;:null}" fill="#050304"/><path d="M234.97016,309.3732c0.65515,1.59771 0.13005,2.76594 -1.36359,3.46246c-0.56847,0.24632 -1.20354,0.37271 -1.8126,0.40558c-1.86755,-0.11543 -3.2217,-0.99782 -4.35246,-2.32357c-0.22617,-0.26512 -0.40005,-0.71804 -0.50728,-1.05123c-0.40285,-1.4265 0.07002,-2.40709 1.35193,-3.06135c1.13688,-0.49245 2.20986,-0.396 3.50898,-0.03444c1.41807,0.29349 2.49378,1.09859 3.17502,2.60257zM229.98203,310.41132c0.5973,0.36861 1.28745,0.76284 2.13429,0.594c0.63508,-0.1264 1.02961,-0.82545 0.57733,-1.35586c-0.45234,-0.53022 -1.14243,-0.92466 -1.88479,-1.13127c-0.7685,-0.11269 -0.95409,-0.16435 -2.1432,0.51573c-0.02335,0.80237 0.69289,1.10289 1.31637,1.3774z" data-paper-data="{&quot;index&quot;:null}" fill="#040405"/><path d="M224.58379,301.42716c-1.06685,-1.91464 -0.1211,-3.87585 2.06262,-4.17794c2.3027,-0.37036 4.9037,1.06143 5.79947,3.2316c0.6551,1.59789 -0.09338,3.20947 -1.78703,3.54696c-0.96574,0.23674 -1.87926,0.28584 -2.78112,-0.06616c-1.48473,-0.41323 -2.65324,-1.24415 -3.29394,-2.53448zM229.15746,299.36344c-0.69014,-0.39424 -1.5253,-0.62668 -2.39825,-0.36411c-0.66127,0.22049 -0.93686,0.85146 -0.60346,1.44978c0.40006,0.71805 1.03798,1.29991 1.87314,1.53235c0.92794,0.25826 1.11354,0.30991 2.4621,-0.22461c0.03503,-1.20364 -0.60287,-1.78551 -1.33355,-2.3934z" data-paper-data="{&quot;index&quot;:null}" fill="#040506"/><path d="M323.4542,312.96933c2.86222,0.49325 5.76496,1.20013 8.54881,1.97493c0.64957,0.18079 1.39192,0.3874 1.67311,1.17334c-0.27559,0.63098 -0.72514,0.80921 -1.42692,0.81606c-0.91352,0.0491 -1.60366,-0.34514 -2.46495,-0.48368c-2.34596,-0.55194 -4.57304,-1.17176 -6.91907,-1.72351c-0.64957,-0.18079 -1.273,-0.45548 -1.43525,-1.3095c0.6062,-0.74113 1.3747,-0.62843 2.02426,-0.44764z" data-paper-data="{&quot;index&quot;:null}" fill="#0c1212"/><path d="M350.5871,326.48601c-0.91352,0.0491 -1.60366,-0.34514 -2.46495,-0.48367c-2.34596,-0.55194 -4.57306,-1.17176 -6.91907,-1.72351c-0.64957,-0.18079 -1.273,-0.45547 -1.43524,-1.30949c0.6062,-0.74113 1.3747,-0.62844 2.14314,-0.51555c2.88835,0.39935 5.76501,1.19994 8.54887,1.97474c0.64957,0.18079 1.39192,0.3874 1.6731,1.17333c-0.18285,0.65699 -0.72518,0.8094 -1.54584,0.88414z" data-paper-data="{&quot;index&quot;:null}" fill="#0d1313"/><path d="M371.52322,336.76168c-0.63513,0.12659 -1.15133,0.18508 -1.80089,0.0043c-2.55769,-0.50968 -5.20818,-1.04519 -7.83258,-1.67441c-0.55677,-0.15496 -1.23243,-0.24202 -1.7109,-0.67832c-0.31891,-0.29113 -0.664,-0.48815 -0.53342,-0.95732c0.34231,-0.51143 0.83242,-0.47622 1.41528,-0.41498c3.03337,0.23753 5.9506,1.2516 9.02448,1.70278c0.7685,0.11269 1.5253,0.62669 2.07042,1.18273c-0.06392,0.5889 -0.32787,0.8188 -0.6324,0.83524z" data-paper-data="{&quot;index&quot;:null}" fill="#090c0d"/><path d="M350.84325,320.89545c-0.9396,0.14282 -1.7081,0.03012 -2.54325,-0.20232c-2.16042,-0.5001 -4.20193,-1.06827 -6.32172,-1.35509c-0.7685,-0.11269 -1.48473,-0.41322 -2.201,-0.71355c-0.34505,-0.19721 -0.87573,-0.44589 -0.81181,-1.0348c0.30174,-0.72488 0.95129,-0.54412 1.5342,-0.48306c3.03331,0.23773 5.85773,1.22597 8.8389,1.65113c0.86124,0.13871 1.61806,0.6527 2.25597,1.23457c-0.09001,0.68264 -0.44674,0.88669 -0.75127,0.90313z" data-paper-data="{&quot;index&quot;:null}" fill="#090d0e"/><path d="M335.04692,321.25109c0.27839,0.07747 0.47842,0.4365 0.40006,0.71805c-0.07831,0.28136 -0.31617,0.41752 -0.64678,0.52767c-1.05853,0.21091 -2.1315,0.11445 -3.17839,-0.07572c-2.34601,-0.55175 -4.5731,-1.17156 -6.99742,-1.44198c-0.39732,-0.0094 -0.83516,-0.23243 -1.273,-0.45547c-0.1856,-0.05165 -0.29287,-0.38465 -0.3334,-0.59831c-0.01444,-0.30738 0.15666,-0.5629 0.48731,-0.67323c0.38283,-0.29778 0.87293,-0.26256 1.33691,-0.13343c2.86222,0.49325 5.72438,0.98668 8.4938,1.4541c0.64957,0.18079 1.11355,0.30991 1.7109,0.67832z" data-paper-data="{&quot;index&quot;:null}" fill="#080b0b"/><path d="M370.69859,342.59854c-3.11447,-0.66463 -6.29563,-1.44882 -9.41011,-2.11346c-0.37118,-0.10331 -0.71622,-0.30052 -1.06132,-0.49754c-0.25226,-0.17139 -0.45227,-0.53041 -0.37392,-0.81194c0.10444,-0.37526 0.43504,-0.48541 0.73957,-0.50185c0.70178,-0.00684 1.28469,0.05419 1.8676,0.11525c1.60361,0.34533 3.32613,0.62255 4.92979,0.9677c1.23247,0.24184 2.34603,0.55175 3.55237,0.88749c0.64957,0.18079 1.39192,0.38739 1.52803,1.33531c-0.58012,0.64741 -1.21524,0.77399 -1.77202,0.61903z" data-paper-data="{&quot;index&quot;:null}" fill="#07090a"/><path d="M352.09681,333.2759c-1.57753,-0.43904 -3.11451,-0.66444 -4.71812,-1.00977c-1.20634,-0.33574 -2.5316,-0.6034 -3.73795,-0.93914c-0.55677,-0.15496 -1.02073,-0.28409 -1.40635,-0.69476c-0.15946,-0.14556 -0.29282,-0.38485 -0.2406,-0.57248c0.05223,-0.18764 0.22337,-0.44336 0.4351,-0.4856c0.609,-0.03269 1.21798,-0.06535 1.80089,-0.0043c1.72253,0.27724 3.44507,0.55448 5.14152,0.92544c1.23247,0.24184 2.34603,0.55174 3.55235,0.88748c0.64957,0.18079 1.29914,0.36157 1.52804,1.33532c-0.79184,0.68967 -1.65308,0.55096 -2.35486,0.5578z" data-paper-data="{&quot;index&quot;:null}" fill="#07090a"/><path d="M367.21027,324.23722c-1.23247,-0.24184 -2.31989,-0.64566 -3.5785,-0.79357c-1.62975,-0.25141 -3.32618,-0.62237 -4.90371,-1.06142c-0.46398,-0.12913 -0.99461,-0.378 -1.43246,-0.60104c-0.25231,-0.17119 -0.47841,-0.43651 -0.37396,-0.81177c0.10444,-0.37526 0.43509,-0.4856 0.73957,-0.50185c0.51625,-0.05869 1.0991,0.00253 1.58921,0.03776c1.72253,0.27724 3.44508,0.55448 5.14153,0.92545c1.23247,0.24184 2.34601,0.55175 3.55235,0.88749c0.64957,0.18079 1.273,0.45548 1.5019,1.42923c-1.46749,0.6026 -1.46749,0.6026 -2.23593,0.48972z" data-paper-data="{&quot;index&quot;:null}" fill="#060909"/><path d="M360.28172,326.85874c2.67663,0.4416 5.39378,1.09684 8.04426,1.63234c0.5829,0.06105 1.11354,0.30992 1.55143,0.53278c0.34505,0.19721 0.7568,0.51397 0.50729,1.05123c-1.32248,0.4408 -1.32248,0.4408 -2.36931,0.25043c-1.41807,-0.29349 -2.92893,-0.6128 -4.43974,-0.93229c-1.51087,-0.31932 -2.99558,-0.73253 -4.4803,-1.14575c-0.55677,-0.15496 -1.18021,-0.42965 -1.10465,-1.41966c0.80628,-0.38229 1.57473,-0.2694 2.291,0.03093z" data-paper-data="{&quot;index&quot;:null}" fill="#060909"/><path d="M326.54527,331.32106c0.54233,-0.15242 1.15131,-0.18509 1.6153,-0.05595c2.95502,0.51908 5.88389,1.13206 8.81278,1.74504c0.55677,0.15496 1.11353,0.30992 1.38027,0.78849c-0.01165,0.4011 -0.20893,0.75071 -0.63233,0.83505c-0.78014,0.28839 -1.54864,0.17569 -2.31709,0.06281c-2.74334,-0.56115 -5.57941,-1.14831 -8.3227,-1.70963c-0.46398,-0.12913 -0.92794,-0.25827 -1.19469,-0.73683c-0.0811,-0.42711 0.04946,-0.89627 0.65846,-0.92894z" data-paper-data="{&quot;index&quot;:null}" fill="#070909"/><path d="M343.64014,334.56227c0.72792,-0.10076 1.52252,-0.08178 2.26488,0.12483c2.53162,0.60341 5.06321,1.2068 7.56869,1.90411c0.46398,0.12913 0.80902,0.32635 1.24686,0.54939c0.1595,0.14537 0.29287,0.38465 0.33339,0.59831c0.01444,0.30738 -0.24944,0.53707 -0.48731,0.67323c-0.78014,0.28839 -1.5486,0.1755 -2.29096,-0.03111c-2.53162,-0.60341 -5.06321,-1.2068 -7.59477,-1.81039c-0.83516,-0.23243 -1.45864,-0.50695 -1.9515,-1.25081c0.22337,-0.44336 0.48731,-0.67323 0.91072,-0.75756z" data-paper-data="{&quot;index&quot;:null}" fill="#050606"/><path d="M327.16986,325.12517c2.62441,0.62923 5.15596,1.2328 7.75424,1.95594c0.46398,0.12913 0.80907,0.32616 1.24692,0.5492c0.15946,0.14556 0.29282,0.38485 0.24059,0.57248c0.04057,0.21346 -0.22336,0.44335 -0.34231,0.51143c-0.71343,0.40794 -1.48193,0.29524 -2.22429,0.08863c-2.65048,-0.5355 -5.10374,-1.42044 -7.78037,-1.86205c-0.7685,-0.11269 -1.45858,-0.50712 -1.92536,-1.34472c1.12245,-0.79981 2.07648,-0.63528 3.03056,-0.47093z" data-paper-data="{&quot;index&quot;:null}" fill="#050606"/><path d="M307.18552,327.95503c-5.04204,-5.9531 -9.93906,-12.06801 -14.71719,-18.25082c-1.89031,-2.54836 -3.89962,-5.02846 -5.81606,-7.4829c-0.06666,-0.11973 -0.20003,-0.35901 -0.2406,-0.57248c0.55677,0.15496 1.23248,0.24183 1.78925,0.39679c3.30005,0.71628 6.48122,1.50047 9.71458,2.09721c3.72351,0.63177 7.35697,1.94637 11.17327,2.60397c0.86124,0.13871 1.61804,0.65268 1.79479,1.81389c0.06946,0.8282 0.51007,1.75969 0.76512,2.63954c1.34466,5.22742 2.71546,10.36093 3.96733,15.56253c0.2434,1.28094 0.69847,2.51981 0.58512,4.0048c-2.94337,-0.92016 -5.9361,-0.94442 -8.64165,-2.00056c-0.22612,-0.2653 -0.2406,-0.57248 -0.37393,-0.81195z" data-paper-data="{&quot;index&quot;:null}" fill="#00ff00"/><path d="M273.40138,306.723c4.69699,5.7559 9.42007,11.41806 13.87924,17.30992c-0.1856,-0.05165 -0.4901,-0.03522 -0.6757,-0.08687c-5.15596,-1.23281 -10.21915,-2.43979 -15.2823,-3.64678c-0.55677,-0.15496 -1.23247,-0.24184 -1.81538,-0.30288c-1.53694,-0.22558 -3.04781,-0.5449 -4.4136,-1.02621c-1.99422,-5.4082 -6.03717,-19.98054 -6.39333,-23.01178c2.68827,0.04051 5.14152,0.92544 7.67313,1.52885c2.34265,3.07859 4.56636,6.22524 7.02794,9.23575z" data-paper-data="{&quot;index&quot;:null}" fill="#00ff00"/><path d="M267.10132,297.3867c2.46495,0.48366 4.83705,0.94169 7.27581,1.51945c2.40936,3.19813 4.9115,6.42209 7.41361,9.64623c3.47342,4.40433 6.97299,8.71473 10.44641,13.11906c1.13078,1.32574 2.14262,2.71958 3.24726,4.13922c-2.71721,-0.65505 -5.55329,-1.24221 -8.27048,-1.89726c-4.45913,-5.89205 -9.27505,-11.57986 -13.87919,-17.31012c-2.36879,-2.98467 -4.61864,-6.03743 -6.96128,-9.11601c0.21168,-0.04207 0.42341,-0.08432 0.72787,-0.10057z" data-paper-data="{&quot;index&quot;:null}" fill="#87ff87"/><path d="M300.79987,327.18884c-2.95448,-3.75418 -6.0278,-7.44065 -8.86335,-11.26291c-2.99501,-3.96782 -5.96388,-8.02956 -8.81381,-12.15937c-0.81181,-1.0348 -1.92814,-2.05318 -2.2382,-3.45384c1.93426,0.23499 3.69737,0.72568 5.52715,1.33611c0.06672,0.11955 0.08116,0.42692 0.2406,0.57248c1.98316,2.574 3.89962,5.02846 5.81606,7.4829c4.77813,6.1828 9.67516,12.29772 14.71719,18.25082c0.13331,0.23948 0.2406,0.57248 0.37391,0.81196c-2.42433,-0.27039 -4.57305,-1.17177 -6.75956,-1.57814z" data-paper-data="{&quot;index&quot;:null}" fill="#86ff86"/><path d="M295.33938,325.97246c-1.13078,-1.32574 -2.14262,-2.71956 -3.24731,-4.13903c-3.47342,-4.40433 -6.97292,-8.71492 -10.44635,-13.11924c-2.50214,-3.22396 -4.91145,-6.42227 -7.41361,-9.64623c2.18652,0.40637 4.34693,0.90647 6.53345,1.31284c0.40285,1.4265 1.45252,2.32513 2.2382,3.45385c2.84998,4.12963 5.81886,8.19136 8.81387,12.15918c2.92829,3.84827 5.90887,7.50873 8.8633,11.2631c-1.84147,-0.20915 -3.48564,-0.76795 -5.34155,-1.28447z" data-paper-data="{&quot;index&quot;:null}" fill="#01ff01"/><path d="M202.45302,273.52994c-0.78014,0.28839 -1.49637,-0.01213 -2.09371,-0.38054c-0.574,-1.17078 -0.9885,-2.19618 -1.49584,-3.24723c-0.04051,-0.21364 0.01171,-0.40128 -0.00274,-0.70864c0.70178,-0.00684 1.31077,-0.03952 2.10536,-0.02055c0.35063,1.61413 1.3219,2.79449 1.48693,4.35697z" data-paper-data="{&quot;index&quot;:null}" fill="#589ca0"/><path d="M196.82535,266.80714c-0.51899,-0.64995 -0.82625,-1.34217 -0.93628,-2.38382c1.32522,0.26784 2.49103,0.38995 3.63066,0.60614c0.18839,0.76011 0.64066,1.29052 0.3795,2.22886c-1.16577,-0.12229 -2.11985,-0.28663 -3.07389,-0.45118z" data-paper-data="{&quot;index&quot;:null}" fill="#5ba3a7"/><path d="M195.70126,260.42792c1.13962,0.2162 2.3838,0.05675 2.47042,1.90095c-2.39819,-0.3643 -2.39818,-0.3643 -2.47042,-1.90095z" data-paper-data="{&quot;index&quot;:null}" fill="#56999d"/><path d="M243.49021,293.84847c0.3334,0.59831 0.08389,1.13556 -0.51066,1.47561c-1.0441,0.51827 -3.35234,-0.52847 -3.81905,-1.36625c-0.26674,-0.47857 -0.03168,-1.32319 0.60346,-1.44978c0.63513,-0.12659 1.33691,-0.13343 1.98648,0.04735c0.92794,0.25826 1.43249,0.60085 1.73976,1.29306z" data-paper-data="{&quot;index&quot;:null}" fill="#01f4f4"/><path d="M243.53515,301.94961c0.98022,0.07043 1.73703,0.58442 2.20375,1.42219c0.4262,0.62413 0.09838,1.44274 -0.65569,1.63741c-1.20356,0.37272 -2.29095,-0.03111 -3.18113,-0.78437c-0.73071,-0.60769 -0.7713,-0.82117 -0.07505,-2.24511c0.4901,0.03522 1.12525,-0.09136 1.7081,-0.03012z" data-paper-data="{&quot;index&quot;:null}" fill="#35a76d"/><path d="M211.32464,286.91859c0.49291,0.74368 0.07224,1.53666 -0.77455,1.7053c-0.51625,0.05869 -1.00631,0.02328 -1.56308,-0.13168c-0.99466,-0.37781 -1.71368,-1.38679 -1.41195,-2.11168c0.24951,-0.53726 1.42696,-0.81624 2.44771,-0.53216c0.46398,0.12913 0.96852,0.47172 1.30187,1.07022z" data-paper-data="{&quot;index&quot;:null}" fill="#da6694"/><path d="M225.78017,292.45832c-0.83516,-0.23243 -1.59196,-0.74642 -2.03259,-1.67791c-0.35954,-0.50439 0.15393,-1.27154 0.85571,-1.27839c1.52251,-0.08178 2.91444,0.30563 3.49123,2.18487c-0.63234,0.83503 -1.41248,1.12342 -2.31435,0.77144z" data-paper-data="{&quot;index&quot;:null}" fill="#01f001"/><path d="M216.36109,308.33932c-0.74236,-0.20661 -1.33971,-0.57502 -1.67311,-1.17333c-0.13331,-0.23948 -0.17389,-0.45293 -0.21447,-0.66639c-0.01444,-0.30738 0.15671,-0.56309 0.48733,-0.67324c0.87293,-0.26256 1.65587,0.15752 2.3721,0.45803c0.71628,0.30033 1.11632,1.01837 1.09299,1.82073c-0.76571,0.59576 -1.50807,0.38915 -2.06484,0.23419z" data-paper-data="{&quot;index&quot;:null}" fill="#008bda"/><path d="M214.65194,297.95511c-1.05578,0.91955 -1.26745,0.96163 -2.381,0.65171c-1.29914,-0.36157 -1.95149,-1.25081 -2.04981,-2.69374c2.22151,-0.79709 3.28283,-0.29953 4.43084,2.04203z" data-paper-data="{&quot;index&quot;:null}" fill="#ebe502"/><path d="M247.84262,313.05678c0.31896,0.29094 0.63787,0.58206 0.48121,1.14495c-0.22337,0.44336 -0.58011,0.6474 -1.09636,0.70609c-0.72787,0.10057 -1.44416,-0.19977 -2.13429,-0.59401c-0.62344,-0.27469 -1.10185,-0.71118 -1.11908,-1.72701c1.58642,-0.6707 2.65939,-0.57423 3.86853,0.46996z" data-paper-data="{&quot;index&quot;:null}" fill="#f30001"/><path d="M230.68993,308.58628c0.7685,0.11269 1.3658,0.4813 1.88478,1.13125c0.45234,0.53022 0.1506,1.25511 -0.57733,1.35587c-0.72792,0.10076 -1.44415,-0.19977 -2.13429,-0.59401c-0.53064,-0.24887 -1.24691,-0.54919 -1.19743,-1.44548c1.2819,-0.65426 1.40084,-0.72233 2.02427,-0.44764z" data-paper-data="{&quot;index&quot;:null}" fill="#de93ad"/><path d="M228.0289,301.98147c-0.83516,-0.23243 -1.38028,-0.78848 -1.87314,-1.53235c-0.30727,-0.69221 -0.0578,-1.22929 0.60346,-1.44978c0.87293,-0.26256 1.73423,-0.12404 2.39825,0.36411c0.75679,0.51397 1.39466,1.09604 1.33354,2.39341c-1.34856,0.53452 -1.56028,0.57677 -2.46211,0.22461z" data-paper-data="{&quot;index&quot;:null}" fill="#865492"/></g><g stroke="#000000"><path d="M280.00696,263.55615c28.17592,17.81675 28.86565,27.43856 24.54119,34.27738c-4.32446,6.83883 -30.67122,-2.06055 -58.84714,-19.8773c-28.17591,-17.81674 41.13691,-38.0954 45.46136,-44.93421c6.45647,-2.93976 7.01069,3.56334 3.10567,10.38294c-4.8158,8.41015 -16.66943,18.62829 -14.26108,20.1512z" fill="#216aff" stroke-width="2"/><path d="M307.63505,266.72468c12.09381,7.6474 15.53881,23.90313 7.6946,36.30817c-7.8442,12.40505 -24.00717,16.2619 -36.10099,8.61451c-12.09382,-7.64739 -15.53881,-23.90313 -7.6946,-36.30817c7.8442,-12.40505 24.00717,-16.26189 36.101,-8.6145z" fill="#faddbf" stroke-width="2"/><path d="M276.53396,294.07371c12.09382,7.64739 46.12632,-4.23808 38.28211,8.16696c-7.8442,12.40505 -24.00717,16.2619 -36.10098,8.6145c-12.09382,-7.64739 -14.27495,-24.42889 -2.18112,-16.78148z" fill="#ef8b89" stroke-width="0"/></g></g></g></svg>