<svg version="1.1" xmlns="http://www.w3.org/2000/svg" xmlns:xlink="http://www.w3.org/1999/xlink" width="110.55202" height="110.55202" viewBox="0,0,110.55202,110.55202"><g transform="translate(-264.72399,-124.72399)"><g data-paper-data="{&quot;isPaintingLayer&quot;:true}" fill-rule="nonzero" stroke-linejoin="miter" stroke-miterlimit="10" stroke-dasharray="" stroke-dashoffset="0" style="mix-blend-mode: normal"><path d="M269.80793,163.73468c8.98309,-27.72031 38.73707,-42.90984 66.45739,-33.92675c27.72032,8.98309 42.90984,38.73708 33.92675,66.45739c-8.98309,27.72032 -38.73707,42.90984 -66.45739,33.92675c-27.72032,-8.98309 -42.90984,-38.73708 -33.92675,-66.45739z" fill="#001aff" stroke="#000000" stroke-width="5" stroke-linecap="butt"/><path d="M372.13259,183.38859l-18.53939,8.9509l-6.22942,-19.24401l-25.38587,5.59898l-10.24232,-18.05131l-22.24847,5.70909l-8.01464,-20.72912" fill="none" stroke="#000000" stroke-width="5" stroke-linecap="round"/><path d="M326.51056,186.05676l-11.87903,25.91954" fill="none" stroke="#000000" stroke-width="7.5" stroke-linecap="round"/><path d="M329.25963,215.75017l11.88388,-25.33804" fill="none" stroke="#000000" stroke-width="7.5" stroke-linecap="round"/><path d="M309.56203,170.48003l20.75996,16.96162" fill="none" stroke="#000000" stroke-width="5" stroke-linecap="round"/><path d="M336.66764,188.59417l19.65063,-0.19849" fill="none" stroke="#000000" stroke-width="5" stroke-linecap="round"/><path d="M302.16595,208.63448c0.75027,0.08717 1.45242,0.51199 1.86607,1.21256c0.46652,0.79011 0.44868,1.73212 0.03529,2.48124c0.02382,1.67554 -4.0531,1.86093 -4.93396,1.76431c-3.55875,-0.39037 -9.51513,-2.07907 -9.35423,-6.90008c0.10872,-3.25764 7.75123,-8.35686 9.65723,-5.12882c2.31288,3.91714 -3.76259,3.23813 -4.13298,5.53032c-0.34631,2.14316 5.79367,1.02057 6.54008,1.00492c0.11111,-0.00234 0.21834,0.01052 0.32251,0.03555z" data-paper-data="{&quot;index&quot;:null}" fill="#000000" stroke="none" stroke-width="0.5" stroke-linecap="butt"/></g></g></svg>