<svg version="1.1" xmlns="http://www.w3.org/2000/svg" xmlns:xlink="http://www.w3.org/1999/xlink" width="201.34321" height="312.77214" viewBox="0,0,201.34321,312.77214"><g transform="translate(-238.90433,-33.73385)"><g data-paper-data="{&quot;isPaintingLayer&quot;:true}" fill-rule="nonzero" stroke-linecap="butt" stroke-linejoin="miter" stroke-miterlimit="10" stroke-dasharray="" stroke-dashoffset="0" style="mix-blend-mode: normal"><g data-paper-data="{&quot;index&quot;:null}" stroke="#000000"><path d="M312.08977,178.25268c27.92207,18.21201 46.97396,38.46977 42.55356,45.24698c-4.4204,6.77721 -30.63915,-2.49254 -58.56121,-20.70455c-27.92206,-18.21201 -46.97395,-38.46976 -42.55355,-45.24697c4.4204,-6.77721 30.63915,2.49254 58.56121,20.70455z" fill="#216aff" stroke-width="2"/><path d="M280.5346,141.80128c11.98485,7.81706 15.20046,24.11972 7.18222,36.41301c-8.01824,12.29329 -24.23394,15.92201 -36.2188,8.10495c-11.98487,-7.81705 -15.20044,-24.11971 -7.18222,-36.413c8.01824,-12.29329 24.23395,-15.922 36.2188,-8.10495z" fill="#faddbf" stroke-width="2"/><path d="M268.60014,181.46005c11.98487,7.81706 -4.18326,12.81379 -16.16812,4.99673c-11.98485,-7.81706 -15.20043,-24.11971 -7.18221,-36.413c8.01824,-12.2933 11.36548,23.59921 23.35034,31.41627z" fill="#ef8b89" stroke-width="0"/></g><g data-paper-data="{&quot;index&quot;:null}" stroke="#000000"><path d="M353.21061,185.14028c18.77199,0 33.98969,24.87307 33.98969,55.55556c0,8.35076 6.37392,33.61764 4.35457,40.7234c-5.40019,19.00234 -24.68139,14.83216 -38.34426,14.83216c-10.32729,0 -32.7059,2.78608 -38.9397,-9.09579c-5.09742,-9.71589 4.95001,-32.65706 4.95001,-46.45977c0,-30.68249 15.2177,-55.55556 33.98969,-55.55556z" fill="#216aff" stroke-width="2"/><path d="M380.94985,210.10931c2.17098,1.37012 5.51953,20.51569 5.51953,29.96813c0,8.35075 6.37393,33.61764 4.35457,40.7234c-5.40019,19.00233 -24.68138,14.83215 -38.34425,14.83215c-10.32729,0 -32.7059,2.78607 -38.9397,-9.09579c-5.09743,-9.71588 56.94455,-16.46203 56.94455,-30.26474c0,-21.0232 4.52139,-62.9273 10.4653,-46.16315z" fill="#3236f4" stroke-width="0"/></g><g stroke="#000000"><g><path d="M436.11867,126.84818c-2.63367,46.71661 -42.63997,82.45291 -89.35658,79.81924c-46.71661,-2.63367 -82.45291,-42.63997 -79.81924,-89.35658c2.63367,-46.71661 42.63997,-82.45291 89.35658,-79.81925c46.71661,2.63367 82.45292,42.63997 79.81925,89.35658z" fill="#faddbf" stroke-width="2"/><path d="M435.93718,125.96708c-2.63367,46.71661 -42.63997,82.45291 -89.35658,79.81924c-6.05329,-0.34126 -18.35324,-2.99784 -20.67668,-3.93908c-1.45247,-0.58842 27.52409,-5.33863 48.51951,-17.48262c11.26595,-6.51636 18.29263,-20.55402 21.44049,-25.12655c1.64063,-0.34713 7.14367,-19.70934 7.15001,-19.76939c2.66041,-25.1801 -19.28872,-88.8003 -11.18792,-90.9187c0.6209,-0.16237 12.18596,7.30863 21.04874,16.16972c7.13055,7.12918 11.91281,15.95557 12.40627,16.35104c4.32098,3.46288 11.50353,29.86589 10.65619,44.89631z" fill="#ef8b89" stroke-width="0"/><path d="M267.49125,116.88283c2.05669,-36.48222 46.26878,-45.23365 85.0399,-22.41482c40.50516,23.8394 85.31856,-2.00587 83.26186,34.47635c-1.02282,18.14303 -8.89651,9.68207 -22.04916,-3.71884c-2.72408,-2.77551 -13.47235,9.56 -16.63537,6.55314c-4.0317,-3.83264 -7.56725,-9.3501 -11.13049,-15.06772c-2.86922,-4.604 -14.39152,11.72823 -17.5701,7.63985c-4.89146,-6.29151 -4.69646,-13.30245 -11.96477,-13.7122c-2.73305,-0.15407 -10.73102,11.15474 -13.46499,11.3285c-2.11996,0.13474 -8.63827,-12.46424 -10.72107,-12.21874c-3.7823,0.44583 -12.84373,10.20086 -16.39198,11.12656c-1.42268,0.37116 -12.01902,-9.0905 -13.38151,-8.69389c-1.9487,0.56724 -9.40592,9.56589 -11.15987,10.23966c-2.79241,1.07268 -10.42071,-6.81702 -12.62922,-5.76789c-9.11404,4.32949 -9.18416,12.26265 -9.8528,14.11705c-0.65541,1.81771 -2.00471,-2.2811 -1.35042,-13.88701z" fill="#ef8b89" stroke-width="0"/></g><path d="M266.42756,108.4988c2.05669,-36.48223 45.80489,-76.23027 91.65891,-73.64523c45.85404,2.58503 83.13656,49.47467 81.07986,85.95689c-1.02282,18.14303 -9.1158,9.6697 -22.63363,-3.75179c-2.79971,-2.77978 -13.81195,9.54083 -17.06246,6.52906c-4.14323,-3.83891 -7.77979,-9.36207 -11.44505,-15.08544c-2.95138,-4.60863 -14.75205,11.70789 -18.02014,7.61446c-5.02921,-6.29928 -4.83947,-13.3105 -12.29923,-13.73105c-2.80503,-0.15813 -10.99628,11.13979 -13.80177,11.30952c-2.17544,0.13162 -8.88355,-12.47807 -11.02067,-12.23563c-3.88095,0.44026 -13.16586,10.18271 -16.8059,11.10323c-1.45949,0.36908 -12.34807,-9.10906 -13.74575,-8.71443c-1.99902,0.56441 -9.63872,9.55277 -11.43773,10.22399c-2.86415,1.06863 -10.70442,-6.83302 -12.96937,-5.78708c-18.50892,8.54733 -12.8188,23.65959 -11.49702,0.21348z" fill="#724e36" stroke-width="2"/><path d="M266.74039,107.35177c2.05669,-36.48222 47.41671,-45.16894 87.23964,-22.29081c41.604,23.90136 87.55582,-1.87973 85.49912,34.60249c-1.02282,18.14302 -9.11579,9.6697 -22.63362,-3.75179c-2.79971,-2.77978 -13.81195,9.54083 -17.06246,6.52906c-4.14323,-3.83891 -7.7798,-9.36207 -11.44506,-15.08544c-2.95138,-4.60862 -14.75204,11.7079 -18.02013,7.61447c-5.02921,-6.29928 -4.83947,-13.3105 -12.29923,-13.73105c-2.80503,-0.15814 -10.99628,11.13978 -13.80177,11.30951c-2.17545,0.13161 -8.88355,-12.47806 -11.02067,-12.23562c-3.88096,0.44026 -13.16587,10.1827 -16.80591,11.10322c-1.45949,0.36908 -12.34807,-9.10906 -13.74575,-8.71443c-1.99903,0.56441 -9.63873,9.55277 -11.43774,10.22399c-2.86415,1.06863 -10.70443,-6.83301 -12.96938,-5.78707c-18.50893,8.54733 -12.81881,23.65959 -11.49703,0.21348z" fill="#623728" stroke-width="0"/></g><g data-paper-data="{&quot;index&quot;:null}" stroke="#000000"><path d="M339.96716,150.21396c1.60746,-28.51367 16.32073,-50.87256 32.86301,-49.93998c16.54228,0.93257 28.64934,24.80346 27.04187,53.31713c-1.60746,28.51366 -16.10949,42.45003 -32.65177,41.51745c-16.54228,-0.93258 -28.86058,-16.38094 -27.25311,-44.89461z" fill="#f0f0f0" stroke-width="2"/><path d="M399.28377,152.72637c-1.60747,28.51366 -16.10949,42.45004 -32.65177,41.51746c-16.54228,-0.93257 23.82563,-32.51914 21.11899,-60.94953c-3.91302,-41.10193 13.14025,-9.0816 11.53278,19.43207z" fill="#9a99ff" stroke-width="0"/></g><path d="M340.39126,145.90017c0.89057,-15.79713 6.29399,-28.33932 12.06888,-28.01376c5.77489,0.32556 9.73442,13.39558 8.84385,29.19271c-0.89057,15.79712 -6.29399,28.33931 -12.06888,28.01375c-5.77489,-0.32556 -9.73442,-13.39558 -8.84385,-29.19271z" data-paper-data="{&quot;index&quot;:null}" fill="#000000" stroke="none" stroke-width="0"/><g data-paper-data="{&quot;index&quot;:null}" stroke="#000000"><path d="M346.65907,120.50885c4.79193,-9.49448 11.23026,-20.95517 26.91562,-20.07091c15.68535,0.88427 17.45622,13.27377 21.25874,22.6514c3.9964,9.85578 -7.71635,13.84438 -23.40171,12.96011c-15.68536,-0.88426 -29.80085,-5.57801 -24.77267,-15.5406z" fill="#a100fe" stroke-width="2"/><path d="M347.60182,120.20717c4.64724,-9.50263 9.62898,1.37104 24.7795,2.22516c15.15052,0.85411 18.0972,-9.10657 21.7525,0.26275c3.84167,9.84707 -7.48062,13.85769 -22.63114,13.00357c-15.15053,-0.85412 -28.77726,-5.52032 -23.90089,-15.49146z" fill="#99008e" stroke-width="0"/></g><g data-paper-data="{&quot;index&quot;:null}" stroke="#000000"><path d="M309.2629,95.6514c16.54227,0.93258 28.64934,24.80346 27.04187,53.31713c-1.60746,28.51366 -15.584,42.47966 -32.12628,41.54708c-16.54226,-0.93257 -29.38605,-16.41057 -27.77859,-44.92423c1.60746,-28.51367 16.32073,-50.87255 32.86301,-49.93997z" fill="#f0f0f0" stroke-width="2"/><path d="M290.72538,126.78549c-5.88489,27.94603 30.67713,63.86954 14.13485,62.93696c-16.54226,-0.93258 -29.38605,-16.41057 -27.77859,-44.92423c1.60746,-28.51366 22.15155,-58.41444 13.64374,-18.01273z" fill="#9a99ff" stroke-width="0"/></g><path d="M296.63481,114.92443c5.77489,0.32556 9.73442,13.39558 8.84385,29.19271c-0.89056,15.79712 -6.29399,28.33931 -12.06888,28.01375c-5.77489,-0.32557 -9.73443,-13.39559 -8.84386,-29.19272c0.89057,-15.79713 6.294,-28.33932 12.06889,-28.01376z" data-paper-data="{&quot;index&quot;:null}" fill="#000000" stroke="none" stroke-width="0"/><g data-paper-data="{&quot;index&quot;:null}" stroke="#000000"><path d="M332.99395,118.69952c3.8766,10.46459 -10.677,13.54212 -26.36236,12.65785c-15.68536,-0.88427 -26.87561,-6.16404 -21.7968,-15.5082c4.83241,-8.89083 7.98455,-21.00279 23.66991,-20.11853c15.68536,0.88426 20.7948,12.99595 24.48924,22.96885z" fill="#a100fe" stroke-width="2"/><path d="M332.09107,118.2938c3.72478,10.45604 -10.34005,13.56112 -25.49057,12.707c-15.15053,-0.85412 -25.95032,-6.11187 -21.02623,-15.46476c4.6852,-8.89914 6.49369,1.32963 21.64421,2.18375c15.15053,0.85411 21.32283,-9.39075 24.87259,0.57399z" fill="#99008e" stroke-width="0"/></g><g data-paper-data="{&quot;index&quot;:null}" stroke="#000000"><path d="M360.69617,274.02358c-1.69708,-33.29323 3.478,-60.61666 11.55889,-61.02857c8.08088,-0.41191 16.00749,26.24366 17.70457,59.53689c1.69708,33.29323 -3.47801,60.61665 -11.5589,61.02857c-8.08088,0.41191 -16.00749,-26.24367 -17.70457,-59.5369z" fill="#216aff" stroke-width="2"/><path d="M375.00227,293.75625c14.65806,-0.74717 27.13127,10.23169 27.8597,24.52199c0.72843,14.2903 -10.56377,26.48057 -25.22183,27.22775c-14.65806,0.74717 -27.13127,-10.2317 -27.8597,-24.52199c-0.72843,-14.29029 10.56376,-26.48058 25.22183,-27.22775z" fill="#faddbf" stroke-width="2"/><path d="M388.87226,307.30635c-0.72844,-14.2903 12.82309,-4.15464 13.55152,10.13566c0.72842,14.2903 -10.56377,26.48057 -25.22183,27.22775c-14.65807,0.74717 12.39873,-23.07311 11.6703,-37.36341z" fill="#ef8b89" stroke-width="0"/></g><path d="M407.78816,157.37491c-0.02345,-0.33979 0.08847,-0.61959 0.08847,-0.61959l0.43735,-1.08175c1.81561,-3.41132 9.08613,-4.58754 10.42777,0.07443c1.44201,5.01071 -0.92469,11.34408 -2.86114,15.84636c-1.96308,3.3964 -9.16447,6.27412 -10.63523,0.47753c-0.48653,-1.91752 0.88585,-5.43142 2.00753,-6.92393c0.66278,-0.88189 1.96856,-1.04866 2.77927,-1.79681c1.42051,-1.31091 -0.77787,-4.08254 -1.72149,-4.71964c0,0 -0.7034,-0.50243 -0.52252,-1.2566z" data-paper-data="{&quot;index&quot;:null}" fill="#000000" stroke="none" stroke-width="0.5"/></g></g></svg>