<svg version="1.1" xmlns="http://www.w3.org/2000/svg" xmlns:xlink="http://www.w3.org/1999/xlink" width="198.94071" height="330.09164" viewBox="0,0,198.94071,330.09164"><g transform="translate(-238.85441,-30.89577)"><g data-paper-data="{&quot;isPaintingLayer&quot;:true}" fill-rule="nonzero" stroke-linejoin="miter" stroke-miterlimit="10" stroke-dasharray="" stroke-dashoffset="0" style="mix-blend-mode: normal"><g data-paper-data="{&quot;index&quot;:null}" stroke="#000000" stroke-linecap="butt"><path d="M359.6698,212.86796c23.22235,-23.91738 32.78078,-22.61683 38.58597,-16.98033c5.8052,5.6365 -8.3142,29.59466 -31.53656,53.51205c-23.22236,23.91738 -28.83733,-48.08234 -34.64252,-53.71885c-1.55146,-6.92252 4.9269,-6.12969 10.7994,-0.90763c7.24217,6.44001 14.80876,20.13913 16.79372,18.09477z" fill="#216aff" stroke-width="2"/><path d="M368.44356,186.4791c9.96761,-10.26595 26.58433,-10.29984 37.11448,-0.0757c10.53014,10.22414 10.98617,26.83465 1.01854,37.10059c-9.96761,10.26595 -26.58434,10.29984 -37.11449,0.0757c-10.53014,-10.22414 -10.98615,-26.83463 -1.01854,-37.10059z" fill="#faddbf" stroke-width="2"/><path d="M388.82405,222.53298c9.96761,-10.26595 5.32308,-46.01374 15.85322,-35.7896c10.53014,10.22414 10.98617,26.83465 1.01854,37.10059c-9.96761,10.26595 -26.8394,8.95496 -16.87177,-1.31099z" fill="#ef8b89" stroke-width="0"/></g><g stroke="#000000" stroke-linecap="butt"><path d="M327.76518,340.83535v-95.29492h29.49199v95.29492z" fill="#73fffc" stroke-width="2"/><path d="M327.43943,340.21742l1.32626,-93.78573c0,0 5.20288,68.11227 6.3799,77.52842c0.2602,2.08162 2.52228,2.78987 2.52228,2.78987l18.60659,13.13896z" fill="#59a9e6" stroke-width="0"/></g><g stroke="#000000" stroke-linecap="butt"><path d="M288.4238,338.4128v-95.29492h29.49199v95.29492z" fill="#73fffc" stroke-width="2"/><path d="M288.09805,337.7949l1.32626,-93.78573c0,0 5.20288,68.11227 6.3799,77.52842c0.2602,2.08162 2.52228,2.78987 2.52228,2.78987l18.60659,13.13896z" fill="#59a9e6" stroke-width="0"/></g><g stroke="#000000" stroke-linecap="butt"><path d="M355.22917,235.69588c0,13.80271 10.04743,36.74388 4.95001,46.45977c-6.2338,11.88187 -28.61241,9.09579 -38.9397,9.09579c-13.66287,0 -32.94407,4.17018 -38.34426,-14.83216c-2.01935,-7.10576 4.35457,-32.37264 4.35457,-40.7234c0,-30.68249 15.2177,-55.55556 33.98969,-55.55556c18.77199,0 33.98969,24.87307 33.98969,55.55556z" fill="#216aff" stroke-width="2"/><path d="M303.96554,251.27246c0,13.80271 62.04198,20.54886 56.94455,30.26474c-6.2338,11.88186 -28.61241,9.09579 -38.9397,9.09579c-13.66287,0 -32.94406,4.17018 -38.34425,-14.83215c-2.01936,-7.10576 4.35457,-32.37265 4.35457,-40.7234c0,-9.45244 3.34855,-28.59801 5.51953,-29.96813c5.94391,-16.76415 10.4653,25.13995 10.4653,46.16315z" fill="#3236f4" stroke-width="0"/></g><g stroke="#000000" stroke-linecap="butt"><g><path d="M253.483,114.21611c2.87514,-46.70237 43.06566,-82.23135 89.76803,-79.35622c46.70237,2.87514 82.23136,43.06566 79.35623,89.76803c-2.87514,46.70237 -43.06566,82.23136 -89.76803,79.35623c-46.70237,-2.87514 -82.23136,-43.06566 -79.35623,-89.76803z" fill="#faddbf" stroke-width="2"/><path d="M253.76676,113.36242c0.92503,-15.02584 11.16092,-40.40171 15.85895,-43.33274c0.53653,-0.33474 6.323,-8.53789 14.242,-14.77962c9.84278,-7.75804 22.20576,-13.81805 22.80327,-13.58383c7.79568,3.05581 -21.47854,63.65542 -21.79596,88.97369c-0.00077,0.06037 3.18853,19.93517 4.77698,20.4727c2.58864,4.91081 7.9168,19.67701 18.3388,27.47228c19.42264,14.52739 47.6401,22.65026 46.12854,23.06388c-2.41796,0.66166 -14.9449,1.85422 -20.99635,1.48168c-46.70237,-2.87514 -82.23136,-43.06566 -79.35623,-89.76803z" fill="#ef8b89" stroke-width="0"/><path d="M422.11295,124.13841c-0.71428,11.60237 -2.53595,15.5142 -2.97318,13.63206c-0.44606,-1.92014 0.41669,-9.80655 -8.12535,-15.17721c-2.0699,-1.30141 -10.5726,5.63706 -13.21958,4.24363c-1.66261,-0.87523 -8.01054,-10.68795 -9.87907,-11.4803c-1.30643,-0.55399 -12.94136,7.59672 -14.31056,7.06092c-3.41486,-1.33629 -11.26698,-12.08872 -14.97067,-12.97598c-2.03951,-0.4886 -9.99339,11.25699 -12.08283,10.87402c-2.6946,-0.49388 -9.30803,-12.66431 -12.04025,-12.83251c-7.2661,-0.44732 -7.89643,6.53794 -13.49341,12.21096c-3.63705,3.68647 -13.15999,-13.88676 -16.55042,-9.65189c-4.21053,5.2592 -8.37005,10.3229 -12.82425,13.65513c-3.49448,2.61426 -12.71848,-10.89897 -15.74989,-8.46286c-14.63648,11.76221 -23.45001,19.23915 -22.33342,1.10165c2.24527,-36.4711 43.71053,-5.53809 86.73678,-24.45174c41.18429,-18.10396 84.06142,-4.21698 81.81614,32.25413z" fill="#ef8b89" stroke-width="0"/></g><path d="M424.1546,115.93747c-1.44297,23.43897 5.98383,9.10019 -11.39226,-1.56324c-2.12633,-1.30489 -10.84093,5.62053 -13.55963,4.2227c-1.70766,-0.87801 -8.23803,-10.70197 -10.15686,-11.4974c-1.34162,-0.55616 -13.26869,7.57657 -14.67467,7.03851c-3.50663,-1.34194 -11.58218,-12.10811 -15.38449,-13.00146c-2.09382,-0.49193 -10.23743,11.24196 -12.38233,10.85558c-2.7661,-0.49827 -9.57274,-12.68061 -12.37693,-12.85324c-7.4575,-0.4591 -8.09308,6.52582 -13.82777,12.19037c-3.72654,3.68096 -13.52776,-13.9094 -17.00032,-9.67958c-4.31251,5.25293 -8.57302,10.31041 -13.1387,13.63578c-3.58195,2.60888 -13.06984,-10.92061 -16.17685,-8.48915c-15.00156,11.73974 -24.0343,19.20318 -22.91771,1.06569c2.24527,-36.4711 44.78029,-78.65399 90.62035,-75.83194c45.84004,2.82205 84.6135,47.43629 82.36824,83.90739z" fill="#724e36" stroke-width="2"/><path d="M423.97879,114.76167c-1.44297,23.43897 5.98383,9.10019 -11.39227,-1.56323c-2.12633,-1.30489 -10.84093,5.62053 -13.55963,4.2227c-1.70766,-0.87801 -8.23803,-10.70197 -10.15687,-11.4974c-1.34162,-0.55616 -13.26869,7.57657 -14.67467,7.03851c-3.50663,-1.34194 -11.58218,-12.10811 -15.38449,-13.00146c-2.09382,-0.49193 -10.23743,11.24196 -12.38233,10.85558c-2.7661,-0.49827 -9.57274,-12.68061 -12.37693,-12.85325c-7.4575,-0.4591 -8.09309,6.52583 -13.82777,12.19038c-3.72654,3.68096 -13.52776,-13.9094 -17.00032,-9.67958c-4.31251,5.25293 -8.57301,10.31041 -13.13871,13.63578c-3.58195,2.60888 -13.06984,-10.92061 -16.17685,-8.48914c-15.00156,11.73974 -24.0343,19.20317 -22.91771,1.06569c2.24527,-36.4711 44.8486,-5.46802 88.97335,-24.31405c42.23578,-18.03922 86.26048,-4.0816 84.01522,32.3895z" fill="#623728" stroke-width="0"/></g><g stroke="#000000" stroke-linecap="butt"><path d="M372.9274,148.60829c-1.75485,28.50497 -15.80341,42.39853 -32.34064,41.38044c-16.53723,-1.01808 -29.30083,-16.56228 -27.54598,-45.06724c1.75485,-28.50497 16.58353,-50.78749 33.12075,-49.76942c16.53723,1.01808 28.52072,24.95124 26.76587,53.45622z" fill="#f0f0f0" stroke-width="2"/><path d="M327.4633,126.18991c-6.02928,27.91523 30.34653,64.02728 13.8093,63.0092c-16.53723,-1.01808 -29.30083,-16.56228 -27.54598,-45.06724c1.75485,-28.50497 22.45324,-58.29914 13.73669,-17.94196z" fill="#9a99ff" stroke-width="0"/></g><path d="M372.53062,156.58628c-0.97223,15.79232 -6.44042,28.3064 -12.21354,27.95098c-5.77312,-0.35541 -9.66504,-13.44572 -8.69281,-29.23804c0.97223,-15.79232 6.44042,-28.3064 12.21354,-27.95098c5.77312,0.35541 9.66504,13.44572 8.69281,29.23804z" fill="#000000" stroke="none" stroke-width="0" stroke-linecap="butt"/><g stroke="#000000" stroke-linecap="butt"><path d="M369.7731,118.32256c3.82244,10.48449 10.28483,28.46824 -5.39574,27.5029c-15.68058,-0.96535 -47.87508,-21.28437 -42.74804,-30.60217c4.87831,-8.86572 8.09304,-20.96125 23.77361,-19.9959c15.68058,0.96535 20.72733,13.1033 24.37017,23.09516z" fill="#a100fe" stroke-width="2"/><path d="M368.87235,117.91219c3.67068,10.47515 10.62168,28.77707 -4.52422,27.84464c-15.1459,-0.93243 -46.95007,-21.51553 -41.9777,-30.84285c4.73114,-8.87479 6.48673,1.3632 21.63263,2.29563c15.1459,0.93243 21.37108,-9.28039 24.86928,0.70256z" fill="#99008e" stroke-width="0"/></g><g data-paper-data="{&quot;index&quot;:null}" stroke="#000000" stroke-linecap="butt"><path d="M409.85865,97.59203c16.53723,1.01808 28.52073,24.95124 26.76588,53.45622c-1.75485,28.50496 -16.32874,42.36618 -32.86597,41.3481c-16.53723,-1.01808 -28.77552,-16.52993 -27.02066,-45.0349c1.75485,-28.50497 16.58353,-50.78749 33.12075,-49.76942z" fill="#f0f0f0" stroke-width="2"/><path d="M436.04072,150.18046c-1.75485,28.50496 -16.32874,42.36618 -32.86597,41.3481c-16.53723,-1.01808 23.99343,-32.39553 21.4338,-60.83953c-3.70047,-41.12162 13.18702,-9.01355 11.43217,19.49144z" fill="#9a99ff" stroke-width="0"/></g><path d="M427.59814,130.66015c5.77312,0.35541 9.66504,13.44573 8.69282,29.23804c-0.97223,15.79232 -6.44042,28.3064 -12.21354,27.95098c-5.77312,-0.35541 -9.66504,-13.44573 -8.69281,-29.23804c0.97223,-15.79232 6.44041,-28.3064 12.21354,-27.95098z" data-paper-data="{&quot;index&quot;:null}" fill="#000000" stroke="none" stroke-width="0" stroke-linecap="butt"/><g data-paper-data="{&quot;index&quot;:null}" stroke="#000000" stroke-linecap="butt"><path d="M383.58327,117.6913c4.84094,-9.46958 11.33845,-20.89683 27.01902,-19.93149c15.68058,0.96535 17.38737,13.36384 21.14135,22.761c3.94539,9.87632 -7.78782,13.80431 -23.46839,12.83897c-15.68058,-0.96535 -29.77162,-5.73201 -24.69199,-15.66847z" fill="#a100fe" stroke-width="2"/><path d="M384.52756,117.39452c4.69631,-9.47848 9.62176,1.42081 24.76766,2.35324c15.1459,0.93243 18.14404,-9.01291 21.75085,0.37519c3.79072,9.86679 -7.55215,13.81882 -22.69805,12.88639c-15.1459,-0.93243 -28.74832,-5.66901 -23.82047,-15.61481z" fill="#99008e" stroke-width="0"/></g><path d="M391.63632,338.87004c0,11.6628 -14.51982,21.11737 -32.43092,21.11737c-17.9111,0 -32.43092,-9.45457 -32.43092,-21.11737c0,-2.33142 -0.03339,-13.76009 1.08979,-15.13837c4.49546,-5.51647 17.81784,5.26144 32.14847,5.26144c17.9111,0 31.62358,-1.78588 31.62358,9.87692z" fill="#000082" stroke="#000000" stroke-width="2" stroke-linecap="butt"/><path d="M389.75004,336.13774c0,6.30841 -13.89058,10.1901 -31.80169,10.1901c-17.9111,0 -30.16566,-2.95748 -30.16566,-9.26589c0,-1.26107 -0.03338,-12.52602 1.0898,-13.27153c4.49546,-2.98386 15.55258,5.7726 29.88321,5.7726c17.9111,0 30.99434,0.26631 30.99434,6.57472z" fill="#2e0048" stroke="#000000" stroke-width="0" stroke-linecap="butt"/><path d="M348.64938,338.22521c0,11.6628 -14.51982,21.11737 -32.43092,21.11737c-17.9111,0 -32.43092,-9.45457 -32.43092,-21.11737c0,-2.33142 -0.03339,-13.76009 1.08979,-15.13837c4.49546,-5.51647 17.81784,5.26144 32.14847,5.26144c17.9111,0 31.62358,-1.78588 31.62358,9.87692z" fill="#000082" stroke="#000000" stroke-width="2" stroke-linecap="butt"/><path d="M346.7631,335.49289c0,6.30841 -13.89058,10.1901 -31.80169,10.1901c-17.9111,0 -30.16566,-2.95748 -30.16566,-9.26589c0,-1.26107 -0.03338,-12.52602 1.0898,-13.27153c4.49546,-2.98386 15.55258,5.7726 29.88321,5.7726c17.9111,0 30.99434,0.26631 30.99434,6.57472z" fill="#2e0048" stroke="#000000" stroke-width="0" stroke-linecap="butt"/><g><path d="M295.89362,261.7502c-14.28587,-4.85148 -20.18984,-14.86912 -16.05121,-29.22117c3.23683,-11.22488 19.34719,-19.50017 33.63309,-14.64869c14.28595,4.85148 21.52889,17.607 16.7258,31.75053c-0.75111,2.21178 -2.10074,4.03008 -3.31787,5.70234c-6.56604,9.02097 -18.93795,10.5098 -30.98979,6.417z" fill="#485e84" stroke="#000000" stroke-width="2" stroke-linecap="butt"/><path d="M299.72419,218.57779c0,0 -2.26326,5.29232 -1.13025,6.94449c10.86806,15.848 23.79485,21.33582 28.20885,22.8246c1.00285,0.33825 1.85816,-0.38927 1.85816,-0.38927c0,0 -0.46576,2.06183 -1.88816,4.40509c-1.51355,2.49342 -4.06486,5.3209 -6.72952,6.85215c-3.0438,1.74909 -11.09865,3.90038 -11.09865,3.90038l-20.6442,-3.56024c0,0 -6.96681,-11.50732 -7.38128,-13.63456c-0.40606,-2.08398 -0.28884,-4.66642 -0.2747,-7.41719c0.02196,-4.27096 1.62048,-8.51967 3.35187,-10.82121c2.20968,-2.93727 6.06433,-5.56283 9.54225,-7.13334c3.23685,-1.46165 6.18561,-1.97076 6.18561,-1.97076z" fill="#343545" stroke="none" stroke-width="0" stroke-linecap="butt"/><path d="M294.13723,242.36761c0,0 1.06842,-8.95861 4.66907,-12.64852c4.55803,-4.67106 15.84158,-11.05729 15.84158,-11.05729" fill="none" stroke="#000000" stroke-width="1" stroke-linecap="round"/><path d="M330.87241,242.57439c0,0 -3.67506,6.13382 -6.70007,9.18686c-3.05386,3.08222 -11.87473,7.12513 -11.87473,7.12513" fill="none" stroke="#000000" stroke-width="1" stroke-linecap="round"/><path d="M283.17632,241.90412c0,0 0.95934,-9.21227 5.04138,-13.03141c6.26376,-5.86033 16.10809,-11.99098 16.10809,-11.99098" fill="none" stroke="#000000" stroke-width="1" stroke-linecap="round"/><path d="M283.95104,226.63988c0,0 16.3807,-5.58103 30.50177,4.62381c15.46785,11.17811 9.61318,27.40197 9.61318,27.40197" fill="none" stroke="#000000" stroke-width="1" stroke-linecap="round"/><path d="M279.71278,235.16878c0,0 17.56433,-2.89078 30.04441,6.08737c10.24728,7.3719 6.59409,21.49894 6.59409,21.49894" fill="none" stroke="#000000" stroke-width="1" stroke-linecap="round"/><path d="M323.10846,229.89238c-0.76857,-0.92548 -0.79762,-2.16893 -0.06499,-2.77733c0.73262,-0.60848 1.25888,-0.01094 2.02743,0.91454c0.76857,0.92548 1.48835,1.82841 0.75571,2.43684c-0.73262,0.60848 -1.94963,0.35143 -2.71814,-0.57404z" fill="#8fbbbe" stroke="none" stroke-width="0" stroke-linecap="butt"/><path d="M326.94844,236.06599c-0.56954,-0.19343 -0.79606,-1.04275 -0.50593,-1.89705c0.29012,-0.85431 0.52652,-1.16306 1.09606,-0.96967c0.56954,0.19343 0.96795,1.10112 0.67779,1.95541c-0.29012,0.85431 -0.69842,1.10469 -1.26793,0.91128z" fill="#8fbbbe" stroke="none" stroke-width="0" stroke-linecap="butt"/><path d="M318.63911,224.6114c-0.81856,-0.37953 -1.27698,-1.12947 -1.024,-1.67516c0.25294,-0.54566 0.94652,-0.1648 1.76506,0.21467c0.81856,0.37953 1.45209,0.61383 1.19912,1.15953c-0.25294,0.54566 -1.12165,0.68043 -1.94019,0.30093z" fill="#8fbbbe" stroke="none" stroke-width="0" stroke-linecap="butt"/><path d="M295.35607,219.58646c0,0 10.23126,-0.03232 17.28081,2.7468c3.99674,1.57564 6.97537,4.34406 9.21009,6.46825c1.9763,1.87849 4.58598,7.91299 6.10282,12.73975c1.11677,3.55366 1.457,6.47791 1.457,6.47791" fill="none" stroke="#000000" stroke-width="0.5" stroke-linecap="round"/><path d="M328.42702,228.32529c0,0 -3.7821,9.87288 -7.42736,13.86403c-3.07119,3.36265 -12.67473,8.63864 -12.67473,8.63864" fill="none" stroke="#000000" stroke-width="1" stroke-linecap="round"/><path d="M303.5222,247.47168c0,0 3.55828,-8.98703 6.22879,-12.63658c4.68888,-6.40791 13.93808,-11.18591 13.93808,-11.18591" fill="none" stroke="#000000" stroke-width="1" stroke-linecap="round"/></g><g stroke="#000000" stroke-linecap="butt"><path d="M281.16756,239.48567c26.83128,19.78386 26.83194,29.43037 22.03004,35.94282c-4.80192,6.51246 -30.44568,-4.24616 -57.27696,-24.03003c-26.83127,-19.78386 43.753,-35.05964 48.55492,-41.57209c6.64997,-2.47106 6.73825,4.05502 2.35608,10.57825c-5.40424,8.04468 -17.95749,17.38999 -15.66406,19.08105z" fill="#216aff" stroke-width="2"/><path d="M308.49874,244.6196c11.51667,8.49173 13.7917,24.95202 5.08143,36.76505c-8.71027,11.81305 -25.10745,14.50551 -36.62412,6.01377c-11.51667,-8.49173 -13.7917,-24.95203 -5.08142,-36.76507c8.71027,-11.81305 25.10745,-14.50549 36.62411,-6.01377z" fill="#faddbf" stroke-width="2"/><path d="M275.52353,269.67719c11.51667,8.49173 46.31122,-0.93241 37.60095,10.88064c-8.71027,11.81305 -25.10745,14.50551 -36.62411,6.01377c-11.51667,-8.49173 -12.49351,-25.38615 -0.97684,-16.89441z" fill="#ef8b89" stroke-width="0"/></g><path d="M302.75216,184.31296c0,-4.69393 3.80518,-8.49911 8.49911,-8.49911c4.69393,0 8.49911,3.80518 8.49911,8.49911c0,4.69393 -3.80518,8.49911 -8.49911,8.49911c-4.69393,0 -8.49911,-3.80518 -8.49911,-8.49911z" fill="#000000" stroke="none" stroke-width="0" stroke-linecap="butt"/></g></g></svg>