<svg version="1.1" xmlns="http://www.w3.org/2000/svg" xmlns:xlink="http://www.w3.org/1999/xlink" width="230.62409" height="341.43894" viewBox="0,0,230.62409,341.43894"><g transform="translate(-209.51274,-19.54847)"><g data-paper-data="{&quot;isPaintingLayer&quot;:true}" fill-rule="nonzero" stroke-linecap="butt" stroke-linejoin="miter" stroke-miterlimit="10" stroke-dasharray="" stroke-dashoffset="0" style="mix-blend-mode: normal"><g stroke="#000000"><path d="M327.76518,340.83535v-95.29492h29.49199v95.29492z" fill="#73fffc" stroke-width="2"/><path d="M327.43943,340.21742l1.32626,-93.78573c0,0 5.20288,68.11227 6.3799,77.52842c0.2602,2.08162 2.52228,2.78987 2.52228,2.78987l18.60659,13.13896z" fill="#59a9e6" stroke-width="0"/></g><g stroke="#000000"><path d="M288.4238,338.4128v-95.29492h29.49199v95.29492z" fill="#73fffc" stroke-width="2"/><path d="M288.09805,337.7949l1.32626,-93.78573c0,0 5.20288,68.11227 6.3799,77.52842c0.2602,2.08162 2.52228,2.78987 2.52228,2.78987l18.60659,13.13896z" fill="#59a9e6" stroke-width="0"/></g><g stroke="#000000"><path d="M355.22917,235.69587c0,13.80271 10.04743,36.74388 4.95001,46.45977c-6.2338,11.88187 -28.61241,9.09579 -38.9397,9.09579c-13.66287,0 -32.94407,4.17018 -38.34426,-14.83216c-2.01935,-7.10576 4.35457,-32.37264 4.35457,-40.7234c0,-30.68249 15.2177,-55.55556 33.98969,-55.55556c18.77199,0 33.98969,24.87307 33.98969,55.55556z" fill="#216aff" stroke-width="2"/><path d="M303.96554,251.27245c0,13.80271 62.04198,20.54886 56.94455,30.26474c-6.2338,11.88186 -28.61241,9.09579 -38.9397,9.09579c-13.66287,0 -32.94406,4.17018 -38.34425,-14.83215c-2.01936,-7.10576 4.35457,-32.37265 4.35457,-40.7234c0,-9.45244 3.34855,-28.59801 5.51953,-29.96813c5.94391,-16.76415 10.4653,25.13995 10.4653,46.16315z" fill="#3236f4" stroke-width="0"/></g><g stroke="#000000"><g><path d="M231.76768,108.00513c0,-46.79079 37.93143,-84.72222 84.72222,-84.72222c46.79079,0 84.72222,37.93143 84.72222,84.72222c0,46.79079 -37.93143,84.72222 -84.72222,84.72222c-46.79079,0 -84.72222,-37.93143 -84.72222,-84.72222z" fill="#faddbf" stroke-width="2"/><path d="M231.99845,107.13562c0,-15.05428 8.65728,-41.01117 13.16632,-44.22534c0.51494,-0.36707 5.78642,-8.91029 13.30693,-15.62682c9.34748,-8.34819 21.31473,-15.15641 21.9255,-14.95935c7.96872,2.57101 -17.52654,64.85492 -16.28763,90.14485c0.00295,0.06031 4.40745,19.70158 6.02593,20.14049c2.8855,4.74247 9.11092,19.15337 19.99223,26.29351c20.2786,13.30648 48.94186,19.68013 47.45857,20.18586c-2.37273,0.80898 -14.80271,2.76903 -20.86562,2.76903c-46.79079,0 -84.72222,-37.93143 -84.72222,-84.72222z" fill="#ef8b89" stroke-width="0"/><path d="M400.68868,107.54693c0,11.62434 -1.57787,15.64071 -2.12992,13.78899c-0.5632,-1.8891 -0.18668,-9.81362 -9.04258,-14.64925c-2.14596,-1.17177 -10.20624,6.27605 -12.93385,5.04791c-1.71325,-0.77142 -8.65215,-10.17554 -10.56583,-10.85157c-1.33801,-0.47267 -12.45011,8.37757 -13.84965,7.92692c-3.49052,-1.12394 -11.98851,-11.37355 -15.73972,-12.03156c-2.06568,-0.36235 -9.2828,11.84977 -11.39182,11.59592c-2.71985,-0.32737 -10.06862,-12.06843 -12.80601,-12.06843c-7.27985,0 -7.47978,7.01079 -12.7176,13.01701c-3.40366,3.90299 -13.98842,-13.05188 -17.11223,-8.61668c-3.87941,5.50799 -7.71992,10.81771 -11.96095,14.41734c-3.32724,2.82405 -13.36416,-10.09687 -16.24015,-7.47909c-13.88607,12.63935 -22.22353,20.64372 -22.22353,2.47189c0,-36.54015 43.28764,-8.21349 85.0704,-29.73523c39.99404,-20.60039 83.64345,-9.37431 83.64345,27.16584z" fill="#ef8b89" stroke-width="0"/></g><path d="M402.22255,99.23604c0,23.48334 6.5317,8.71531 -11.46679,-0.86026c-2.20249,-1.17177 -10.47508,6.27605 -13.27454,5.04791c-1.75838,-0.77142 -8.88005,-10.17554 -10.84414,-10.85157c-1.37326,-0.47267 -12.77806,8.37757 -14.21446,7.92692c-3.58246,-1.12394 -12.30429,-11.37355 -16.15431,-12.03156c-2.12009,-0.36235 -9.52731,11.84977 -11.69189,11.59592c-2.79149,-0.32737 -10.33384,-12.06843 -13.14333,-12.06843c-7.47161,0 -7.6768,7.01079 -13.05259,13.01701c-3.49332,3.90299 -14.35688,-13.05188 -17.56298,-8.61668c-3.98159,5.50799 -7.92327,10.81771 -12.276,14.41734c-3.41488,2.82405 -13.71618,-10.09687 -16.66792,-7.47909c-14.25184,12.63935 -22.80892,20.64372 -22.80892,2.47189c0,-36.54015 39.86264,-81.25697 85.78948,-81.25697c45.92683,0 87.36842,42.14743 87.36842,78.68758z" fill="#724e36" stroke-width="2"/><path d="M401.97482,98.07325c0,23.48334 6.5317,8.71531 -11.46679,-0.86026c-2.20249,-1.17177 -10.47508,6.27605 -13.27454,5.04791c-1.75838,-0.77142 -8.88005,-10.17554 -10.84415,-10.85157c-1.37326,-0.47267 -12.77806,8.37757 -14.21446,7.92692c-3.58246,-1.12394 -12.30429,-11.37355 -16.15431,-12.03156c-2.12009,-0.36235 -9.52731,11.84977 -11.69189,11.59592c-2.79149,-0.32737 -10.33384,-12.06843 -13.14333,-12.06843c-7.47161,0 -7.6768,7.01079 -13.05259,13.01701c-3.49332,3.90299 -14.35688,-13.05188 -17.56298,-8.61668c-3.98159,5.50799 -7.92327,10.81771 -12.27601,14.41734c-3.41488,2.82405 -13.71618,-10.09687 -16.66792,-7.47909c-14.25184,12.63935 -22.80892,20.64372 -22.80892,2.47189c0,-36.54015 44.42786,-8.21349 87.31121,-29.73523c41.04751,-20.60039 85.84668,-9.37431 85.84668,27.16584z" fill="#623728" stroke-width="0"/></g><g data-paper-data="{&quot;index&quot;:null}" stroke="#000000"><path d="M364.01832,215.07957c0.61988,-2.78123 -14.9846,-1.58977 -24.34244,-4.11039c-7.58804,-2.04391 -11.80573,-7.02476 -5.16717,-9.52634c7.8976,1.76022 71.17043,-33.0541 63.91832,-0.51603c-7.25211,32.53807 -19.53337,57.48846 -27.43097,55.72823c-7.8976,-1.76022 -14.22986,-9.03741 -6.97775,-41.57548z" fill="#216aff" stroke-width="2"/><path d="M378.34663,217.38807c14.32559,3.1929 23.41536,17.10307 20.30256,31.06923c-3.11279,13.96616 -17.2494,22.69962 -31.57499,19.50671c-14.32559,-3.1929 -23.41534,-17.10306 -20.30255,-31.06922c3.11279,-13.96616 17.24939,-22.69962 31.57497,-19.50672z" fill="#faddbf" stroke-width="2"/><path d="M398.45011,247.53441c-3.11278,13.96617 -17.24939,22.69962 -31.57497,19.50672c-14.32559,-3.1929 18.10814,-18.92596 21.22094,-32.89212c3.11279,-13.96618 13.46683,-0.58076 10.35404,13.3854z" fill="#ef8b89" stroke-width="0"/></g><g stroke="#000000"><path d="M335.32502,130.90749c0,28.55894 -13.1683,43.28947 -29.73684,43.28947c-16.56854,0 -30.26316,-14.73054 -30.26316,-43.28947c0,-28.55894 13.43146,-51.71053 30,-51.71053c16.56854,0 30,23.15159 30,51.71053z" fill="#f0f0f0" stroke-width="2"/><path d="M288.56929,111.32509c-4.30259,28.23297 34.22345,62.0416 17.65491,62.0416c-16.56854,0 -30.26316,-14.73054 -30.26316,-43.28947c0,-28.55894 18.82852,-59.56866 12.60825,-18.75213z" fill="#9a99ff" stroke-width="0"/></g><path d="M320.97604,140.95892c0,15.82221 -4.68891,28.64865 -10.47297,28.64865c-5.78406,0 -10.47297,-12.82644 -10.47297,-28.64865c0,-15.82221 4.68891,-28.64865 10.47297,-28.64865c5.78406,0 10.47297,12.82644 10.47297,28.64865z" fill="#000000" stroke="none" stroke-width="0"/><g stroke="#000000"><path d="M330.31572,100.87281c4.45946,10.22981 -9.89785,14.12162 -25.60811,14.12162c-15.71026,0 -27.17995,-4.64154 -22.63514,-14.25676c4.32432,-9.14873 6.78974,-21.41892 22.5,-21.41892c15.71026,0 21.49332,11.80491 25.74324,21.55405z" fill="#a100fe" stroke-width="2"/><path d="M329.39145,100.51856c4.3074,10.22981 -9.56036,14.12162 -24.73494,14.12162c-15.17458,0 -26.25318,-4.64154 -21.86334,-14.25676c4.17687,-9.14873 6.55823,0.96203 21.73281,0.96203c15.17458,0 20.76045,-10.57604 24.86546,-0.8269z" fill="#99008e" stroke-width="0"/></g><g data-paper-data="{&quot;index&quot;:null}" stroke="#000000"><path d="M369.0517,77.71833c16.56854,0 30,23.15159 30,51.71053c0,28.55893 -13.69462,43.28947 -30.26316,43.28947c-16.56854,0 -29.73684,-14.73053 -29.73684,-43.28947c0,-28.55894 13.43146,-51.71053 30,-51.71053z" fill="#f0f0f0" stroke-width="2"/><path d="M398.41568,128.59859c0,28.55893 -13.69462,43.28947 -30.26316,43.28947c-16.56854,0 21.9575,-33.80863 17.65491,-62.0416c-6.22027,-40.81653 12.60825,-9.80681 12.60825,18.75213z" fill="#9a99ff" stroke-width="0"/></g><path d="M362.96113,110.32065c5.78406,0 10.47297,12.82644 10.47297,28.64865c0,15.82221 -4.68891,28.64865 -10.47297,28.64865c-5.78406,0 -10.47297,-12.82644 -10.47297,-28.64865c0,-15.82221 4.68891,-28.64865 10.47297,-28.64865z" data-paper-data="{&quot;index&quot;:null}" fill="#000000" stroke="none" stroke-width="0"/><g data-paper-data="{&quot;index&quot;:null}" stroke="#000000"><path d="M344.06101,99.39415c4.24992,-9.74914 10.03298,-21.55405 25.74324,-21.55405c15.71026,0 18.17568,12.27019 22.5,21.41892c4.54481,9.61522 -6.92488,14.25676 -22.63514,14.25676c-15.71026,0 -30.06757,-3.89181 -25.60811,-14.12162z" fill="#a100fe" stroke-width="2"/><path d="M344.98528,99.03991c4.10501,-9.74914 9.69088,0.8269 24.86546,0.8269c15.17458,0 17.55594,-10.11076 21.73281,-0.96203c4.38984,9.61522 -6.68876,14.25676 -21.86334,14.25676c-15.17458,0 -29.04234,-3.89181 -24.73494,-14.12162z" fill="#99008e" stroke-width="0"/></g><path d="M391.63632,338.87004c0,11.6628 -14.51982,21.11737 -32.43092,21.11737c-17.9111,0 -32.43092,-9.45457 -32.43092,-21.11737c0,-2.33142 -0.03339,-13.76009 1.08979,-15.13837c4.49546,-5.51647 17.81784,5.26144 32.14847,5.26144c17.9111,0 31.62358,-1.78588 31.62358,9.87692z" fill="#000082" stroke="#000000" stroke-width="2"/><path d="M389.75004,336.13774c0,6.30841 -13.89058,10.1901 -31.80169,10.1901c-17.9111,0 -30.16566,-2.95748 -30.16566,-9.26589c0,-1.26107 -0.03338,-12.52602 1.0898,-13.27153c4.49546,-2.98386 15.55258,5.7726 29.88321,5.7726c17.9111,0 30.99434,0.26631 30.99434,6.57472z" fill="#2e0048" stroke="#000000" stroke-width="0"/><path d="M348.64938,338.22521c0,11.6628 -14.51982,21.11737 -32.43092,21.11737c-17.9111,0 -32.43092,-9.45457 -32.43092,-21.11737c0,-2.33142 -0.03339,-13.76009 1.08979,-15.13837c4.49546,-5.51647 17.81784,5.26144 32.14847,5.26144c17.9111,0 31.62358,-1.78588 31.62358,9.87692z" fill="#000082" stroke="#000000" stroke-width="2"/><path d="M346.7631,335.49289c0,6.30841 -13.89058,10.1901 -31.80169,10.1901c-17.9111,0 -30.16566,-2.95748 -30.16566,-9.26589c0,-1.26107 -0.03338,-12.52602 1.0898,-13.27153c4.49546,-2.98386 15.55258,5.7726 29.88321,5.7726c17.9111,0 30.99434,0.26631 30.99434,6.57472z" fill="#2e0048" stroke="#000000" stroke-width="0"/><path d="M277.6322,162.2978c0.88389,0.88388 0,1.76777 0,1.76777l-0.10679,0.01608c-1.2788,2.55528 -2.42369,5.35669 -5.18362,6.70671c-2.86133,1.39962 -6.70807,0.39213 -7.39279,-2.95132c-0.91815,-4.48325 3.38672,-8.92927 5.43491,-12.4451c0,0 0.62983,-1.07972 1.70956,-0.44988c1.07972,0.62984 0.44989,1.70956 0.44989,1.70956c-1.73146,2.96449 -5.71652,6.9665 -5.13448,10.73935c0.26012,1.68612 2.58099,1.80161 3.85848,1.14005c2.1741,-1.12589 3.00686,-3.53543 4.02197,-5.56741l0.5751,-0.66581c0,0 0.88388,-0.88388 1.76776,0z" fill="#000000" stroke="none" stroke-width="0.5"/><g stroke="none" stroke-width="1"><path d="M436.01905,225.47051c-2.6663,1.11826 -5.45728,2.17966 -8.089,3.38886c-6.43378,2.86368 -12.95766,5.76141 -19.39151,8.62491c-5.11796,2.25899 -10.32593,4.55222 -15.44389,6.81121c-8.64999,3.81057 -17.29998,7.62114 -25.91532,11.52282c-6.79397,3.00045 -13.46327,6.05778 -20.22252,9.14952c-5.71359,2.58959 -11.5518,5.12249 -17.26539,7.71208c-9.10015,3.98176 -18.16565,8.05464 -27.26579,12.0364c-7.51416,3.27454 -15.153,6.4922 -22.70187,9.67545c-2.48624,1.04979 -5.09715,2.04271 -7.67342,3.12673c-0.90031,0.34238 -1.72445,0.34314 -2.63166,-0.14555c-0.37398,-0.17044 -0.65791,-0.37512 -1.03189,-0.54556c-3.06096,-1.54539 -5.8864,-3.28442 -8.76736,-4.89847c-7.64544,-4.38715 -15.34626,-8.64894 -22.99177,-13.03627c-3.0748,-1.85278 -6.20499,-3.58021 -9.18976,-5.46723c-4.21051,-2.67132 -8.38643,-5.2517 -12.65239,-7.79785c-1.19108,-0.69318 -2.07756,-1.39833 -1.93202,-2.91249c0.04153,-0.43275 -0.22161,-0.85371 -0.30468,-1.34315c-1.14247,-4.3591 -2.01493,-8.8211 -2.7627,-13.22623c-0.58155,-3.42607 -0.45693,-3.36938 2.61109,-5.05716c4.25924,-2.34917 8.62236,-4.42518 12.98541,-6.50137c6.81471,-3.21691 13.53945,-6.3994 20.26412,-9.58208c6.72467,-3.18268 13.53945,-6.39941 20.26413,-9.58209c4.27302,-2.04195 8.67079,-4.02685 12.94381,-6.0688c1.91146,-0.93529 3.7329,-1.83635 5.67894,-2.6807c3.1719,-1.41463 6.3784,-2.73833 9.48107,-4.335c4.14841,-2.09865 8.27602,-3.98101 12.459,-5.98873c5.49888,-2.61222 11.08779,-5.25869 16.71136,-7.81403c6.48916,-2.98903 12.97839,-5.97788 19.46762,-8.96672c4.03757,-1.84812 8.19983,-3.63938 12.23741,-5.4875c4.12768,-1.88219 8.18598,-3.94677 12.31366,-5.82896c4.6678,-2.08779 9.42563,-4.20984 14.09342,-6.29763c0.99035,-0.37662 1.98069,-0.75325 2.97104,-1.12987c1.65522,-0.52518 3.03332,-0.42414 4.46682,0.90646c2.77703,2.69564 5.82407,5.28838 8.78109,7.91536c2.54846,2.36561 5.33237,4.53738 7.88084,6.90299c4.14122,3.84402 8.15782,7.63135 12.35442,11.35002c5.78942,5.19727 11.43337,10.55394 17.13276,15.78544c0.79638,0.73921 1.37811,1.45596 1.66895,2.49171c0.82401,2.70874 1.61338,5.32638 2.43739,8.03512c0.27699,0.72835 0.46395,1.49095 0.56087,2.28778c0.22843,1.6846 0.97632,3.38023 0.32524,5.19093c-1.37121,0.73004 -2.6871,1.33454 -3.85751,1.77964zM434.38487,220.36042c-4.68141,-3.63859 -9.12737,-7.47101 -13.57327,-11.30325c-3.45567,-2.8543 -6.76586,-5.868 -10.16615,-8.84764c-4.35593,-3.86666 -8.58719,-7.67644 -12.90847,-11.45199c-2.40993,-2.00134 -4.9099,-3.96844 -7.3199,-5.96996c-1.63442,0.3089 -7.74272,2.94451 -10.18052,4.39262c-0.07618,0.34163 0.11773,0.58055 0.40167,0.78523c3.5457,2.82006 6.71048,5.99335 10.1107,8.97281c1.55817,1.38748 3.40718,2.45579 4.81994,4.00286c0.38775,0.47765 0.8656,0.92125 1.25342,1.39909c0.54709,0.62564 0.48468,1.27448 -0.00701,1.87842c-0.34628,0.44435 -0.81724,0.83182 -1.44746,1.07149c-4.6886,2.30408 -9.37719,4.60815 -14.13502,6.73019c-5.89366,2.65806 -11.66263,5.373 -17.53542,7.81497c-4.01684,1.63166 -7.8397,3.50242 -11.78725,5.31631c-4.4878,2.01914 -8.97554,4.03845 -13.49785,5.96684c-5.06257,2.13364 -10.03511,4.23304 -15.06304,6.45779c-3.02643,1.25522 -6.07372,2.72654 -9.0655,4.07288c-3.98219,1.72278 -7.8397,3.50242 -11.82189,5.2252c-5.92824,2.56713 -11.85648,5.13427 -17.78479,7.70122c-5.47808,2.39594 -11.11541,4.64407 -16.5935,7.04002c-3.94754,1.81389 -7.98512,3.66201 -11.93273,5.47572c-0.32548,0.22806 -0.6856,0.36503 -1.04573,0.50198c-1.46131,0.7641 -2.69399,0.50347 -4.13444,-0.30346c-5.40861,-2.84101 -10.59563,-6.18323 -15.85876,-9.18365c-3.4142,-1.93229 -3.4142,-1.93229 -6.78691,-0.23272c-3.64287,1.8021 -7.28566,3.60439 -10.89388,5.4976c-0.36013,0.13695 -0.68561,0.36502 -0.78259,0.92294c1.63436,1.04585 3.3033,2.18263 5.02769,3.19424c9.0097,5.53571 18.13024,10.8209 27.3616,15.85557c6.4197,3.60285 12.89478,7.08035 19.20366,10.93372c0.94179,0.57962 1.93904,1.03407 2.84625,1.52276c2.08457,-0.48009 3.74675,-1.52895 5.60276,-2.33907c5.33267,-2.23636 10.63067,-4.56382 15.9287,-6.89128c5.02792,-2.22475 10.00046,-4.32415 15.02839,-6.5489c4.34232,-1.85973 8.62919,-3.59429 12.93686,-5.54513c7.89516,-3.6276 15.79024,-7.25537 23.71997,-10.79203c3.89216,-1.68854 7.78432,-3.37708 11.64183,-5.15672c6.25371,-2.7952 12.56288,-5.71557 18.9067,-8.54483c3.622,-1.58601 7.18868,-3.04647 10.77609,-4.72341c8.5253,-3.86745 16.96059,-7.70065 25.58984,-11.29476c6.14288,-2.54468 12.16122,-5.14587 18.26952,-7.78148c2.48624,-1.04979 4.9379,-2.19051 7.56961,-3.3997c-0.7202,-1.08084 -1.71744,-1.53529 -2.67315,-2.42248zM275.69485,255.07357c-2.73541,-1.77327 -5.34628,-3.49003 -8.04711,-5.17238c-0.74788,-0.3407 -1.53048,-0.77269 -1.55115,-1.91098c0.99724,-0.90048 2.29233,-1.28871 3.46274,-1.73381c0.54019,-0.20543 1.03884,0.02188 1.53743,0.24902c1.35041,0.84117 2.79086,1.64811 4.14128,2.48928c1.50968,0.98898 3.08865,2.16017 4.59833,3.14915c0.78253,0.43181 1.56513,0.86381 2.34766,1.29562c0.82413,-0.00075 1.45435,-0.24042 1.98069,-0.75325c-0.20776,-0.54631 -0.74099,-0.86456 -1.14955,-1.12593c-2.70083,-1.68234 -5.27705,-3.30799 -7.88785,-5.02457c-0.6925,-0.46605 -1.44045,-0.80692 -1.55122,-1.91115c0.96272,-0.99123 2.38242,-1.32277 3.64286,-1.80211c0.63022,-0.23967 1.07343,0.11281 1.57209,0.34013c1.44045,0.80693 2.88089,1.61386 4.30054,2.63708c1.95288,1.34146 3.94041,2.77404 6.03878,3.95609c0.87256,0.39758 1.57208,0.34013 2.24384,-0.33229c0.09699,-0.55792 -0.36702,-0.69412 -0.65096,-0.8988c-2.64538,-1.80751 -5.4155,-3.67207 -8.06088,-5.47958c-0.69257,-0.46623 -1.4751,-0.89804 -1.76594,-1.9338c0.94887,-1.29862 2.36858,-1.63017 3.87831,-1.99594c0.57484,-0.11432 1.05262,0.3291 1.55128,0.55641c2.1884,1.14781 4.05125,2.52351 6.03878,3.95609c1.57891,1.17102 3.24791,2.30798 4.9515,3.53588c2.03608,-0.87859 3.94755,-1.81389 5.89366,-2.65807c0.18695,-0.59233 -0.34629,-0.91058 -0.63016,-1.11508c-1.66901,-1.13697 -3.3934,-2.14857 -5.06234,-3.28535c-1.2258,-0.78448 -2.45154,-1.56877 -3.67734,-2.35325c-0.53324,-0.31825 -1.01102,-0.76166 -1.10794,-1.5585c0.89342,-1.17346 2.31312,-1.50499 3.69825,-1.92746c0.45016,-0.17119 0.89336,0.1813 1.26733,0.35174c1.53048,0.77269 3.00551,1.67056 4.39057,2.60284c2.27147,1.63725 4.45291,3.30874 7.07059,4.50146c0.66487,-0.14856 1.23971,-0.26288 1.7314,-0.86682c-0.20769,-0.54613 -0.61631,-0.80769 -1.05952,-1.16017c-1.79362,-1.19365 -3.55265,-2.29637 -5.31163,-3.39892c-1.06647,-0.63649 -2.1676,-1.3641 -3.14404,-2.03483c-0.40863,-0.26155 -0.69256,-0.46623 -0.92105,-0.79608c-0.15926,-0.14781 -0.26314,-0.42096 -0.36702,-0.69411c0.9488,-1.29881 2.49319,-1.57347 3.93369,-2.12128c2.01529,0.69261 3.77426,1.79516 5.47791,3.02323c2.2714,1.63707 4.54288,3.27432 7.0706,4.50146c1.86986,-0.50272 5.63741,-2.24795 7.02942,-3.19427c0.0416,-0.43256 -0.33238,-0.60301 -0.61632,-0.80769c-2.04292,-1.30722 -4.2105,-2.67132 -6.25349,-3.97872c-0.81718,-0.52292 -1.63436,-1.04586 -2.48612,-1.65971c-0.53324,-0.31825 -0.88641,-0.70497 -0.94876,-1.41087c0.89342,-1.17346 2.31319,-1.50481 3.69825,-1.92745c0.45016,-0.17119 0.89336,0.18129 1.26734,0.35173c1.40587,0.716 2.75629,1.55717 4.14128,2.48928c1.66901,1.13697 3.21333,2.21705 4.84762,3.26272c0.44328,0.35266 1.06654,0.63667 1.59978,0.95492c0.94179,0.57962 1.71749,0.18054 2.41005,-0.70816c-1.59275,-1.47842 -3.53186,-2.51266 -5.32548,-3.70631c-1.79362,-1.19365 -3.78811,-2.10255 -5.27009,-3.83167c1.09429,-1.45822 2.51399,-1.78975 4.0238,-2.15534c0.39471,-0.04602 0.92794,0.27223 1.30191,0.44266c1.40587,0.716 2.75628,1.55717 4.14128,2.48927c1.54433,1.08009 3.054,2.06907 4.59833,3.14915c0.53324,0.31825 1.06654,0.63668 1.59978,0.95492c0.85176,0.61385 1.60667,0.43106 2.27842,-0.24136c0.09699,-0.55792 -0.22154,-0.85353 -0.63016,-1.11508c-1.79362,-1.19365 -3.55259,-2.29619 -5.31163,-3.39892c-1.22574,-0.7843 -2.41689,-1.47767 -3.55259,-2.2962c-0.65792,-0.37512 -0.65792,-0.37512 -1.05263,-1.68402c0.94192,-0.77495 2.18155,-1.03801 3.31732,-1.57422c0.63022,-0.23967 1.21891,-0.04659 1.75215,0.27166c1.53048,0.77269 3.00558,1.67073 4.39057,2.60284c2.27147,1.63725 4.54295,3.2745 7.19535,4.55852c2.41005,-0.70815 4.70238,-1.99686 6.97397,-3.06911c-0.18695,-0.76259 -0.68554,-0.98973 -1.12874,-1.34221c-1.79369,-1.19384 -3.55266,-2.29637 -5.3117,-3.3991c-1.06647,-0.63649 -2.16759,-1.3641 -3.14403,-2.03483c-0.44321,-0.35248 -1.0111,-0.76184 -1.10802,-1.55867c0.89349,-1.17328 2.31319,-1.50481 3.69825,-1.92745c0.45016,-0.17119 0.89336,0.18129 1.26734,0.35173c1.53048,0.77269 2.97092,1.57963 4.39063,2.60302c2.23682,1.54614 4.45285,3.30856 7.0706,4.50147c0.57484,-0.11432 1.27429,-0.17195 1.76605,-0.77571c-0.20776,-0.54631 -0.61631,-0.80768 -1.05959,-1.16035c-1.79362,-1.19365 -3.55259,-2.2962 -5.31163,-3.39893c-1.06647,-0.63649 -2.16759,-1.36409 -3.14403,-2.03482c-0.53324,-0.31825 -1.0111,-0.76184 -1.19805,-1.52444c0.94887,-1.29862 2.36858,-1.63016 3.87832,-1.99593c0.39478,-0.04585 0.92801,0.2724 1.30199,0.44284c1.58586,0.64734 2.97093,1.57963 4.39057,2.60284c2.27147,1.63725 4.54295,3.2745 7.19528,4.55834c1.62057,-0.61629 3.29658,-1.35776 4.97254,-2.0994c-0.00689,-0.83107 -0.54013,-1.14931 -1.07336,-1.46756c-1.75897,-1.10254 -3.48336,-2.11415 -5.15237,-3.25112c-1.22574,-0.7843 -2.41689,-1.47766 -3.55259,-2.2962c-0.44328,-0.35266 -1.01109,-0.76184 -0.92795,-1.62715c0.9973,-0.9003 2.417,-1.23183 3.67745,-1.71117c0.54019,-0.20543 1.07342,0.11281 1.48205,0.37436c1.44045,0.80693 2.79086,1.6481 4.17586,2.58021c2.45154,1.56877 4.66763,3.33138 7.31996,4.61522c0.60942,-0.02339 1.11503,-0.31975 1.62057,-0.61629c0.0208,-0.21628 0.0416,-0.43257 0.00695,-0.52368c-0.29779,-0.51207 -0.79638,-0.73921 -1.23958,-1.09169c-2.70083,-1.68234 -5.27704,-3.30799 -7.88785,-5.02457c-0.6925,-0.46605 -1.44045,-0.80693 -1.55122,-1.91116c0.96272,-0.99123 2.38243,-1.32276 3.64287,-1.8021c0.54019,-0.20543 1.07342,0.11282 1.48198,0.37419c1.44045,0.80693 2.79093,1.64828 4.17592,2.58039c2.41689,1.47766 4.66756,3.33119 7.28531,4.5241c0.51946,0.01103 1.05964,-0.1944 1.40593,-0.63875c0.06234,-0.64903 -0.41552,-1.09262 -0.94876,-1.41087c-1.63436,-1.04585 -3.26865,-2.09152 -4.903,-3.13737c-1.19115,-0.69337 -2.32693,-1.51208 -3.51801,-2.20527c-0.65792,-0.37512 -1.13577,-0.81872 -1.26728,-1.70648c0.83797,-1.04828 2.25774,-1.37964 3.51819,-1.85898c0.63022,-0.23967 1.07342,0.11282 1.57201,0.33995c1.53048,0.77269 2.97093,1.57963 4.39057,2.60284c2.23689,1.54632 4.54295,3.2745 7.1607,4.46741c1.22579,-0.57045 2.57627,-1.08403 3.91296,-1.90482c-0.31164,-0.81947 -1.03878,-1.37663 -1.64125,-1.87692c-4.69526,-3.94599 -9.44596,-7.7668 -14.23125,-11.67854c-2.86021,0.87935 -5.38805,2.3617 -8.0197,3.57108c-2.90181,1.31192 -5.85901,2.74917 -8.72624,4.15202c-5.08331,2.3501 -10.13203,4.79114 -15.21533,7.14124c-3.26194,1.44887 -6.61391,2.93197 -9.8412,4.47195c-5.35347,2.45263 -10.58226,4.96214 -15.93566,7.41496c-3.22729,1.53998 -6.3992,2.95461 -9.66114,4.40348c-2.72175,1.24344 -5.40885,2.57798 -8.13053,3.8216c-2.95726,1.43709 -6.03908,2.81766 -9.03092,4.16381c-3.62207,1.58582 -7.11945,3.22852 -10.70687,4.90545c-5.76898,2.71494 -11.53795,5.42988 -17.30693,8.14482c-4.95869,2.40679 -9.86193,4.68842 -14.85527,7.0041c-3.49738,1.64269 -7.02942,3.19428 -10.52681,4.83697c-1.13576,0.53621 -2.30617,0.98131 -3.33812,1.7905c0.24234,0.63725 0.68562,0.98991 1.1842,1.21704c3.615,1.64735 6.80753,4.08069 10.22165,6.0128c1.28118,0.65913 2.59695,1.40918 3.82268,2.19348c0.7826,0.43199 1.46125,0.59065 2.16765,0.00935c0.65102,-0.45595 1.37127,-0.72986 1.96685,-1.06064c-0.08308,-0.48944 -0.4016,-0.78505 -0.68554,-0.98973c-1.75897,-1.10254 -3.48336,-2.11415 -5.15237,-3.25111c-1.22574,-0.7843 -2.41689,-1.47766 -3.55259,-2.2962c-0.44328,-0.35266 -0.97651,-0.67091 -1.01799,-1.59291c0.9973,-0.9003 2.38236,-1.32294 3.76748,-1.74541c0.45016,-0.17119 0.85871,0.09018 1.26734,0.35173c1.31576,0.75006 2.72163,1.46606 3.98201,2.34147c2.39609,1.69394 4.79224,3.38807 7.60383,4.81971c0.69952,-0.05744 1.47515,-0.45671 2.21621,-0.9469c-0.11773,-0.58055 -0.4917,-0.75099 -0.77565,-0.95567c-2.00827,-1.21611 -4.05124,-2.52351 -6.09416,-3.83074c-1.06647,-0.63649 -2.1676,-1.36409 -3.14404,-2.03482c-0.53324,-0.31825 -0.56788,-0.40936 -1.01798,-1.59292c0.9973,-0.9003 2.41701,-1.23183 3.67745,-1.71117c0.54019,-0.20543 1.07342,0.11282 1.48205,0.37437c1.44045,0.80693 2.88089,1.61386 4.17585,2.5802c2.02218,1.52368 4.24516,2.76243 6.41275,4.12653c0.81718,0.52292 1.55128,0.55641 2.41702,0.1231c0.9557,-0.46773 2.03607,-0.8786 2.99178,-1.34634c-0.15231,-0.67148 -0.43625,-0.87616 -0.07612,-1.01311zM378.20061,185.34931c1.19811,0.16969 2.20919,-0.42339 3.04027,-0.94782c2.11233,-1.22005 4.34232,-1.85973 6.52388,-2.89773c0.2701,-0.10272 0.54018,-0.20543 0.99034,-0.37662c-0.39466,-2.66365 -1.18402,-5.28129 -1.75874,-7.87647c-0.6093,-2.68611 -1.00397,-5.34976 -1.55788,-8.16122c-1.20506,0.35399 -2.13996,0.60544 -3.04027,0.94783c-3.78133,1.43802 -7.4242,3.24012 -11.06699,5.0424c-0.68567,0.36484 -1.49595,0.67298 -2.30624,0.98113c-2.75633,1.1525 -5.49889,2.61222 -8.3106,3.89008c-2.09153,1.00377 -4.21763,1.9166 -6.30916,2.92037c-3.82293,1.87058 -7.68044,3.65023 -11.62799,5.46412c-3.62207,1.58582 -7.29951,3.297 -10.85228,5.06504c-2.72175,1.24344 -5.58196,2.12278 -8.1306,3.82142c-0.18006,0.06848 -0.27009,0.10271 -0.45016,0.17119c-3.442,1.51735 -6.79398,3.00045 -10.14588,4.48373c-2.72175,1.24344 -5.49888,2.61222 -8.27601,3.98101c-0.18006,0.06848 -0.27009,0.10271 -0.45016,0.17119c-3.35197,1.48311 -6.82863,2.90935 -10.14595,4.48356c-2.54169,1.17496 -4.95869,2.40679 -7.50031,3.58193c-0.32555,0.22789 -0.59564,0.3306 -0.86574,0.43332c-3.62207,1.58582 -7.27872,3.08071 -10.74145,4.81452c-1.87688,1.02622 -3.92681,1.59742 -5.69974,2.89698c-0.14548,0.15941 -0.41558,0.26212 -0.59564,0.3306c-2.81171,1.27786 -5.65814,2.46442 -8.43527,3.83321c-2.50704,1.26607 -5.13876,2.47527 -7.68045,3.65023c-3.71203,1.62024 -7.3549,3.42235 -11.03234,5.13352c-3.94754,1.81389 -7.91588,3.84406 -11.93266,5.4759c-3.02649,1.25504 -5.91446,2.87435 -8.87165,4.31162c-2.77713,1.36879 -5.6443,2.77181 -8.38685,4.23153c-0.32548,0.22806 -0.65095,0.45613 -1.03188,0.80937c0.26308,1.77571 0.3461,3.61989 0.8239,5.41824c0.44314,1.70723 0.6162,3.51718 1.05935,5.22441c0.47779,1.79834 0.56081,3.64253 1.25325,5.46333c1.09423,-0.10347 1.92531,-0.6279 2.79098,-1.06139c2.05694,-1.0947 4.23845,-2.13289 6.26074,-3.3187c1.87681,-1.0264 3.91289,-1.905 5.859,-2.74918c0.63022,-0.23967 1.19121,-0.66137 1.84217,-1.11751c0.08314,-0.86531 -0.17305,-1.80995 -0.30455,-2.69772c-0.28388,-1.55943 -0.56777,-3.11885 -0.72697,-4.62141c-0.07619,-1.0133 0.22166,-1.85597 1.17736,-2.32371c0.41558,-0.26213 0.70647,-0.58112 1.15663,-0.75231c1.80063,-0.68477 3.53196,-1.55176 5.26337,-2.41858c3.40735,-1.60845 6.82855,-2.90952 10.11129,-4.57467c2.65245,-1.42566 5.47808,-2.39594 8.13053,-3.8216c1.96692,-1.06046 4.03764,-1.84794 6.03907,-2.81765c2.90181,-1.31192 5.76898,-2.71494 8.51153,-4.17466c0.18006,-0.06848 0.27009,-0.10271 0.45016,-0.17119c3.442,-1.51735 6.82856,-2.90952 10.11123,-4.57485c2.32704,-1.19742 4.82712,-1.93981 7.05022,-3.41056c0.36013,-0.13695 0.63022,-0.23967 0.90032,-0.34239c3.36582,-1.17571 6.52388,-2.89773 9.66114,-4.40347c2.6871,-1.33455 5.76202,-2.19126 8.31059,-3.89008c0.32555,-0.22789 0.59564,-0.33061 0.86574,-0.43332c3.26194,-1.44887 6.55846,-2.8068 9.66114,-4.40347c2.32698,-1.19759 4.86171,-1.84888 7.05015,-3.41074c0.18006,-0.06848 0.45015,-0.17119 0.63022,-0.23967c3.26194,-1.44887 6.64849,-2.84105 9.87585,-4.38085c4.90324,-2.28162 9.68187,-4.61994 14.58511,-6.90156c2.72175,-1.24344 5.38812,-2.36153 7.98519,-3.66183c2.56242,-1.39142 5.33267,-2.23635 7.82585,-3.80982c0.18006,-0.06848 0.27009,-0.10271 0.45016,-0.17119c2.90181,-1.31192 5.71352,-2.58977 8.61534,-3.90168c0.36013,-0.13695 0.72025,-0.27391 1.17041,-0.4451c1.25337,2.75383 1.14249,5.71403 2.20195,8.22895zM375.04974,181.12866c-1.76605,0.7757 -3.62207,1.58582 -5.38806,2.3617c-2.7772,1.36861 -5.55433,2.73739 -8.36604,4.01525c-4.81328,2.2472 -9.66114,4.40347 -14.47442,6.65067c-4.63315,2.17891 -9.17633,4.3234 -13.80947,6.50231c-2.54169,1.17496 -5.1734,2.38415 -7.71509,3.55912c-5.40879,2.57816 -10.81763,5.15615 -16.26113,7.64303c-2.72175,1.24344 -5.44343,2.48705 -8.16518,3.73049c-4.72325,2.21296 -9.44643,4.42611 -14.16968,6.63908c-2.45165,1.14072 -4.90325,2.28162 -7.3549,3.42234c-5.31882,2.54375 -10.54761,5.05326 -15.90101,7.50607c-4.63321,2.17872 -9.39104,4.30077 -14.02425,6.47949c-4.63315,2.17891 -9.3564,4.39187 -13.98954,6.57078c-0.18006,0.06848 -0.32554,0.22789 -0.65102,0.45595c0.40161,2.13998 0.62309,4.34825 1.274,6.60179c1.47515,-0.45671 2.70095,-1.02715 3.92674,-1.5976c3.58748,-1.67675 7.26494,-3.38793 10.85235,-5.06486c6.30917,-2.92037 12.67371,-5.96609 18.94823,-8.97757c5.49888,-2.61222 11.03242,-5.13334 16.5313,-7.74556c6.30917,-2.92037 12.52829,-5.8065 18.83739,-8.72705c2.95726,-1.43709 6.03908,-2.81766 9.03092,-4.16381c4.90331,-2.28144 9.71652,-4.52882 14.61983,-6.81027c2.90175,-1.3121 5.71352,-2.58977 8.61534,-3.90168c3.76748,-1.74541 7.62499,-3.52506 11.4825,-5.3047c6.30917,-2.92037 12.5283,-5.8065 18.83747,-8.72687c2.54169,-1.17496 4.99334,-2.31568 7.53496,-3.49082c0.59564,-0.3306 1.15663,-0.75232 1.84224,-1.11734c-1.22568,-2.13904 -1.10789,-4.26817 -2.06348,-6.50993zM436.84349,218.69602c-0.6786,-2.86833 -1.35714,-5.73649 -2.03573,-8.60482c-0.35311,-1.74147 -1.44729,-2.99275 -2.66607,-4.30073c-3.78109,-3.98098 -8.0886,-7.4493 -12.0151,-11.27069c-2.10526,-2.01312 -4.35593,-3.86666 -6.64125,-5.8113c-5.81015,-4.9808 -11.47497,-10.12138 -17.08426,-15.38694c-2.3892,-2.2178 -4.83379,-4.31025 -7.22292,-6.52787c-0.24936,-0.11375 -0.53323,-0.31825 -0.94186,-0.5798c-0.11779,0.7742 -0.12474,1.29787 -0.00702,1.87842c0.72703,3.26666 1.66877,6.55596 2.09106,9.83422c0.31158,2.17422 1.44033,3.51642 3.0193,4.68763c7.55535,5.77613 14.34891,12.25892 21.46795,18.51364c6.83509,6.05004 13.63561,12.00915 20.85163,17.70595c0.28394,0.20468 0.65792,0.37512 1.10112,0.7276c0.16622,-0.37587 0.2216,-0.50122 0.08314,-0.86531z" data-paper-data="{&quot;index&quot;:null}" fill="#000000"/><path d="M429.55764,226.36465c-6.1083,2.63561 -12.12657,5.23699 -18.26952,7.78149c-8.62918,3.59429 -17.06454,7.42731 -25.58984,11.29476c-3.62207,1.58582 -7.15403,3.13758 -10.7761,4.7234c-6.25378,2.79502 -12.56295,5.71539 -18.9067,8.54483c-3.89216,1.68854 -7.78432,3.37708 -11.64183,5.15672c-7.89509,3.62778 -15.79017,7.25555 -23.71991,10.79221c-4.34232,1.85973 -8.59461,3.68522 -12.93692,5.54495c-5.02792,2.22475 -10.0004,4.32433 -15.02839,6.5489c-5.29802,2.32746 -10.59603,4.65492 -15.9287,6.89128c-1.85601,0.81012 -3.60822,1.89322 -5.6027,2.33925c-0.90721,-0.48869 -1.90445,-0.94313 -2.84631,-1.52293c-6.30887,-3.85337 -12.69392,-7.36511 -19.20366,-10.93372c-9.23137,-5.03467 -18.38649,-10.41079 -27.36161,-15.85557c-1.72439,-1.01161 -3.39333,-2.14839 -5.02769,-3.19424c0.09699,-0.55792 0.42247,-0.78598 0.78259,-0.92294c3.64287,-1.8021 7.25108,-3.69532 10.89388,-5.4976c3.37277,-1.69939 3.37278,-1.69939 6.7869,0.23272c5.35323,2.96636 10.45015,6.34264 15.85876,9.18365c1.53048,0.77269 2.67313,1.06756 4.13444,0.30346c0.32555,-0.22789 0.68567,-0.36484 1.0458,-0.50179c3.94754,-1.81389 7.95047,-3.75312 11.93266,-5.4759c5.47808,-2.39594 11.11548,-4.64389 16.59357,-7.03983c5.92824,-2.56713 11.85648,-5.13428 17.78472,-7.70141c3.98219,-1.72278 7.87435,-3.41131 11.82189,-5.2252c2.99184,-1.34615 6.07365,-2.72672 9.0655,-4.07287c5.06257,-2.13364 10.03511,-4.23304 15.06304,-6.45779c4.52238,-1.92821 9.01012,-3.94753 13.49785,-5.96684c3.98219,-1.72278 7.77047,-3.68447 11.78725,-5.31631c5.96289,-2.47602 11.73186,-5.19096 17.53542,-7.81497c4.72325,-2.21296 9.41184,-4.51704 14.13502,-6.73019c0.50554,-0.29654 1.01115,-0.59291 1.44746,-1.07149c0.49176,-0.60376 0.55409,-1.25279 0.00701,-1.87843c-0.38782,-0.47784 -0.86567,-0.92143 -1.25342,-1.39909c-1.41276,-1.54707 -3.26177,-2.61537 -4.81994,-4.00286c-3.40022,-2.97947 -6.565,-6.15275 -10.1107,-8.97281c-0.28394,-0.20468 -0.47785,-0.44359 -0.4016,-0.78505c2.43774,-1.44829 8.5461,-4.08373 10.18045,-4.39281c2.37535,1.91041 4.87532,3.87751 7.3199,5.96996c4.32135,3.77573 8.58719,7.67644 12.90847,11.45199c3.40029,2.97964 6.76586,5.868 10.16615,8.84764c4.44596,3.83242 8.89186,7.66466 13.57327,11.30325c0.85183,0.61404 1.88372,1.1596 2.60392,2.24044c-2.63172,1.2092 -5.08338,2.34991 -7.50038,3.58175zM363.24635,240.32768c-3.22711,-2.52427 -6.50968,-4.92336 -9.53593,-7.73238c-0.47786,-0.4436 -1.04573,-0.85296 -1.46814,-1.42172c-0.58167,-0.71657 -1.22574,-0.78429 -2.03602,-0.47615c-1.08038,0.41086 -2.25079,0.85596 -3.38662,1.39199c-0.54019,0.20543 -1.13576,0.53621 -1.67596,0.74164c-6.46843,2.77256 -13.09618,5.39715 -19.52996,8.26082c-4.97254,2.0994 -9.85504,4.16456 -14.65441,6.71934c-3.28274,1.66515 -6.60007,3.23937 -9.91739,4.81358c-0.68567,0.36484 -1.49595,0.67299 -1.86297,1.3338c-0.24247,0.71733 0.20074,1.06981 0.51933,1.3656c1.35731,1.67224 3.24096,2.83165 4.88917,4.1849c2.5692,2.14914 5.22849,4.26423 7.97775,6.3449c2.37535,1.91041 4.93077,3.75234 7.50692,5.37781c0.64407,0.06772 1.23964,-0.26306 1.77983,-0.46849c4.52238,-1.92821 9.07935,-3.76548 13.60173,-5.69369c4.88251,-2.06516 9.85505,-4.16456 14.82759,-6.26396c3.80206,-1.65448 7.60419,-3.30877 11.40632,-4.96307c2.54169,-1.17496 5.06256,-2.13364 7.63883,-3.21767c0.77564,-0.39926 1.46131,-0.7641 2.23695,-1.16336c0.45016,-0.17119 0.58179,-0.638 0.64413,-1.28703c-2.95702,-2.62698 -5.8933,-5.47042 -8.96115,-7.84688zM245.00786,268.41104c-3.94737,-2.25036 -7.5831,-5.03617 -11.41963,-7.53705c-1.13577,-0.81872 -2.04994,-0.78373 -3.15105,-0.1564c-0.92112,0.55867 -1.91147,0.93529 -2.86723,1.40285c-0.86567,0.43349 -1.6413,0.83275 -2.06383,1.61855c0.06234,0.7059 0.59558,1.02415 1.00414,1.28551c3.89198,2.37571 7.78396,4.75142 11.67595,7.12712c1.35041,0.84117 2.67313,1.06755 4.0998,0.21234c1.15663,-0.75232 2.5071,-1.26589 3.7329,-1.83634c0.2701,-0.10272 0.50554,-0.29654 0.60253,-0.85446c-0.33237,-0.60301 -0.99028,-0.97813 -1.61355,-1.26214zM283.01475,261.04353c-1.41281,1.16261 -1.48905,2.85899 -0.32565,4.29231c2.02901,2.35458 7.09151,1.57568 8.31054,-1.18041c0.94191,-2.12988 -0.47768,-4.50784 -2.83924,-4.75611c-0.94881,-0.05612 -1.98759,-0.07782 -2.94329,0.38991c-0.7549,0.1828 -1.49595,0.67298 -2.20236,1.25429zM290.61164,267.74185c-0.90727,0.86606 -1.10124,1.98189 -0.65114,3.16545c0.4501,1.18355 1.86981,2.20695 3.08865,2.16018c1.70365,-0.12686 3.33807,-0.43575 4.62627,-1.65505c0.14542,-0.15959 0.38085,-0.35341 0.58172,-0.63818c1.17047,-1.79985 0.53342,-3.746 -1.51645,-4.52954c-1.08727,-0.42021 -2.73553,-0.41871 -4.08601,0.09487c-0.84487,0.21721 -1.42666,0.85521 -2.04303,1.40228zM259.37762,279.09893c1.40586,-0.63892 2.35473,-1.93755 2.20931,-3.13289c-0.22843,-1.6846 -1.69658,-3.10632 -3.46946,-3.16151c-1.80753,-0.1463 -3.26883,0.61779 -4.37697,1.76862c-1.68986,1.789 -0.96973,4.22459 1.29486,5.03077c1.05263,0.3291 2.36156,0.24826 3.80207,-0.29955c0.18006,-0.06848 0.36012,-0.13695 0.54019,-0.20543zM268.33948,269.3339c-0.49865,1.12761 -0.31169,1.89021 0.6093,2.68611c2.16071,1.88795 6.2536,1.26922 7.70112,-1.15702c0.96961,-1.51509 0.50566,-3.00604 -1.0594,-3.86967c-1.44045,-0.80693 -2.90865,-0.8739 -4.36996,-0.1098c-1.41971,0.33153 -2.29232,1.28871 -2.88107,2.45038zM276.90551,285.35511c-1.86981,-0.85202 -4.49457,-0.1665 -5.85889,1.39461c-1.27435,1.52669 -0.72732,3.50708 1.05245,4.39334c1.68974,0.9205 5.42953,-0.08477 6.37834,-1.38358c0.63718,-0.76335 0.72031,-1.62865 0.27022,-2.81221c-0.27699,-0.72835 -1.05952,-1.16017 -1.84212,-1.59216zM261.22657,281.52198c-0.74794,1.01405 -0.65797,2.33455 0.26309,3.13064c2.79776,2.47917 7.13305,1.14294 8.13737,-1.63578c0.51944,-1.3439 -0.28382,-2.91418 -1.58574,-3.35684c-1.1773,-0.38597 -3.22035,-0.33863 -4.75089,0.24343c-0.63022,0.23967 -1.49589,0.67317 -2.06383,1.61856zM298.32626,275.02072c-0.73416,1.32126 -0.30486,2.7211 0.92087,3.5054c0.53324,0.31825 1.15657,0.60243 1.76599,0.57904c1.34352,0.0101 2.67319,-0.28719 3.95444,-0.98282c0.50554,-0.29654 0.94185,-0.77513 1.25355,-1.31041c1.15663,-2.10724 -0.17294,-4.51944 -2.61068,-4.42607c-1.03884,-0.02188 -1.93916,0.3205 -2.99874,0.51508c-0.83108,0.52443 -1.71756,1.17421 -2.28543,2.11978zM283.80342,281.27307c-0.64413,1.28702 -0.44332,2.35701 0.72703,3.26666c0.28394,0.20468 0.6925,0.46605 1.03183,0.54538c1.69676,0.397 3.40041,0.27015 4.88245,-0.71042c0.56099,-0.42171 0.90726,-0.86606 1.21896,-1.40134c0.75489,-1.53772 0.51951,-2.69864 -0.95559,-3.59669c-1.35041,-0.84117 -2.72858,-0.94238 -4.04441,-0.3377c-1.29509,0.38823 -2.21614,0.94707 -2.86026,2.2341zM284.03209,277.53868c1.16352,-1.27617 0.8104,-3.01764 -0.6647,-3.91569c-2.00827,-1.21611 -4.95162,-0.82638 -6.58603,0.83745c-1.57909,1.53829 -1.17748,3.67827 0.817,4.58717c1.49583,0.68158 2.83935,0.69168 4.24528,0.05294c0.90031,-0.34238 1.64131,-0.83276 2.18845,-1.56186zM364.76339,231.30975c2.25079,-0.85596 4.41155,-1.67769 6.59311,-2.71569c0.77564,-0.39926 1.56518,-0.49094 2.27159,-1.07225c0.56092,-0.4219 0.81723,-0.83183 0.66486,-1.50349c-0.6925,-0.46605 -1.41275,-0.19214 -2.04297,0.04753c-2.79098,1.06139 -5.45728,2.17966 -8.05442,3.47979c-0.6856,0.36502 -1.37121,0.73004 -1.41977,1.68628c0.63712,0.5914 1.30199,0.44284 1.98759,0.07783zM392.73541,222.75628c-2.79098,1.06139 -5.45728,2.17966 -8.05435,3.47997c-0.6856,0.36502 -1.37127,0.72986 -1.41976,1.68628c0.63712,0.5914 1.30192,0.44266 1.93214,0.20299c2.25079,-0.85596 4.41155,-1.67768 6.59311,-2.71569c0.77564,-0.39926 1.56518,-0.49094 2.27159,-1.07225c0.56099,-0.42171 0.81723,-0.83182 0.66486,-1.50348c-0.6925,-0.46605 -1.35737,-0.3175 -1.98759,-0.07783zM414.63365,219.63905c-2.74248,1.4599 -5.69272,2.37349 -8.27601,3.98101c-0.50554,0.29654 -0.92105,0.55885 -0.89342,1.17346c0.17311,0.4552 0.56789,0.40935 0.99724,0.45445c0.64407,0.06772 1.23964,-0.26306 1.77983,-0.46849c2.36162,-1.10648 4.81328,-2.2472 7.29951,-3.29699c0.54019,-0.20543 1.01115,-0.59291 1.44746,-1.07149c0.2909,-0.319 0.24247,-0.71733 -0.02074,-1.13847c-0.85871,-0.09018 -1.68285,-0.08943 -2.33387,0.36652zM388.35875,219.10609c-2.65252,1.42548 -5.51273,2.30483 -8.09595,3.91254c-0.50554,0.29654 -1.04573,0.50198 -0.94888,1.29863c0.29779,0.51207 0.87263,0.39775 1.26734,0.35173c0.7549,-0.1828 1.50981,-0.3656 2.19541,-0.73062c1.87681,-1.0264 3.94754,-1.81389 5.89366,-2.65806c0.77564,-0.39926 1.58593,-0.7074 2.16765,-1.34558c0.2909,-0.319 0.45712,-0.69487 0.12474,-1.29788c-0.85871,-0.09018 -1.68285,-0.08943 -2.60397,0.46923zM368.78006,233.74232c-0.32555,0.22789 -0.74105,0.49019 -0.9973,0.9003c-0.20087,0.28476 -0.18702,0.59216 0.00689,0.83107c0.15926,0.14781 0.44321,0.35249 0.62327,0.28401c0.39471,-0.04602 0.87951,-0.1261 1.29502,-0.38841c2.14698,-1.12894 4.27309,-2.04178 6.48923,-2.98885c0.95577,-0.46756 1.87681,-1.0264 2.60402,-1.82399c0.23552,-0.19365 0.3117,-0.53528 0.20782,-0.80843c-0.10388,-0.27315 -0.47785,-0.4436 -0.74795,-0.34088c-0.54019,0.20543 -1.02493,0.28569 -1.65515,0.52536c-2.54169,1.17496 -5.13875,2.47527 -7.82585,3.80982zM418.75414,223.69953c-1.17041,0.4451 -2.2508,0.85596 -3.38663,1.392c-1.49589,0.67316 -3.0818,1.38057 -4.54311,2.14467c-0.59564,0.3306 -1.10118,0.62714 -1.57214,1.01462c-0.23545,0.19383 -0.43631,0.47859 -0.29778,0.84286c0.13846,0.36409 0.47778,0.44342 0.78253,0.43182c0.39478,-0.04585 0.78949,-0.09186 1.14961,-0.22882c2.93646,-1.2208 5.92823,-2.56713 8.83005,-3.87905c0.54019,-0.20543 1.01115,-0.5929 1.09429,-1.45821c-0.63712,-0.5914 -1.39201,-0.40861 -2.05682,-0.25988zM398.57339,226.99731c-1.17041,0.4451 -2.2508,0.85596 -3.38663,1.392c-1.58592,0.7074 -3.13726,1.50573 -4.68853,2.30425c-0.50561,0.29636 -0.97657,0.68384 -1.44746,1.0715c-0.05545,0.12517 -0.13163,0.4668 -0.0624,0.64885c0.03465,0.09111 0.31859,0.29579 0.53323,0.31825c0.55404,0.10196 1.00419,-0.06923 1.54438,-0.27466c1.17041,-0.4451 2.43085,-0.92444 3.56669,-1.46047c1.53054,-0.58206 2.90174,-1.3121 4.3977,-1.98508c0.77564,-0.39926 1.55134,-0.79833 1.77989,-1.82323c-0.79638,-0.73921 -1.42659,-0.49954 -2.23688,-0.19139zM405.38173,210.7566c-1.17041,0.4451 -2.25079,0.85596 -3.38662,1.39199c-1.55127,0.79852 -3.13726,1.50574 -4.68853,2.30426c-0.41558,0.26213 -0.88653,0.6496 -1.30205,0.9119c-0.23545,0.19383 -0.43631,0.47859 -0.29785,0.84267c0.13853,0.36427 0.47785,0.4436 0.78259,0.43199c0.48474,-0.08026 1.05957,-0.19458 1.50974,-0.36577c1.53054,-0.58206 3.11646,-1.28946 4.57777,-2.05356c1.10118,-0.62715 2.21614,-0.94708 3.35197,-1.48311c0.90031,-0.34238 0.86567,-0.43349 1.63447,-1.66364c-0.7618,-0.64827 -1.39202,-0.40861 -2.1815,-0.31674zM401.82862,220.65313c1.44051,-0.54782 2.881,-1.09564 4.28686,-1.73456c1.35048,-0.51358 2.72175,-1.24344 4.12761,-1.88236c0.9557,-0.46773 0.9557,-0.46774 1.75909,-1.60695c-0.11766,-0.58037 -0.54701,-0.62546 -1.03182,-0.54538c-0.57484,0.11432 -1.11503,0.31975 -1.56519,0.49094c-2.45158,1.1409 -4.99327,2.31586 -7.44493,3.45658c-0.72025,0.27391 -1.40586,0.63892 -1.79374,1.51584c0.52628,0.84192 1.19116,0.69337 1.66212,0.30589zM378.89766,243.54621c2.54162,-1.17514 5.17333,-2.38434 7.71502,-3.5593c0.6856,-0.36502 1.33663,-0.82097 1.82839,-1.42473c0.29083,-0.31918 0.2424,-0.71751 0.01383,-1.04753c-0.58862,-0.19289 -1.1288,0.01253 -1.57896,0.18373c-2.72175,1.24344 -5.4435,2.48688 -8.13061,3.82143c-0.50554,0.29654 -0.88647,0.64977 -1.2674,1.00301c-0.47089,0.38766 -0.29778,0.84285 0.05539,1.22958c0.49859,0.22713 0.98339,0.14706 1.36432,-0.20618zM395.17264,236.21058c2.39621,-1.01555 4.79248,-2.03092 7.18868,-3.04647c0.81028,-0.30815 1.40585,-0.63892 1.86296,-1.33379c0.20087,-0.28476 0.27705,-0.6264 -0.00689,-0.83108c-0.15926,-0.14781 -0.44321,-0.35248 -0.62327,-0.28401c-0.39471,0.04602 -0.87951,0.1261 -1.32967,0.2973c-2.39621,1.01555 -4.82706,1.93999 -7.22333,2.95536c-0.72025,0.27391 -1.37128,0.72986 -1.89762,1.24269c-0.23545,0.19383 -0.31162,0.53546 -0.22855,1.0249c0.83798,0.30664 1.50279,0.1579 2.25769,-0.02489zM374.52788,239.37216c2.29233,-1.28871 4.88251,-2.06517 7.36875,-3.11495c0.6856,-0.36502 1.40585,-0.63893 1.73835,-1.39049c0.05539,-0.12535 0.04154,-0.43274 -0.02769,-0.61479c-0.06923,-0.18205 -0.31853,-0.29561 -0.53324,-0.31825c-0.48481,0.08008 -0.87951,0.1261 -1.32967,0.2973c-2.4863,1.04961 -4.91716,1.97405 -7.4034,3.02384c-0.86567,0.43349 -1.82143,0.90105 -2.16081,2.17647c0.99724,0.45445 1.6967,0.39682 2.34772,-0.05913z" data-paper-data="{&quot;index&quot;:null}" fill="#216aff"/><path d="M272.01044,257.30842c-0.86567,0.43349 -1.59977,0.40001 -2.41695,-0.12291c-2.13294,-1.27298 -4.30053,-2.63708 -6.41275,-4.12653c-1.38506,-0.93228 -2.73548,-1.77346 -4.17593,-2.58039c-0.40856,-0.26137 -0.94179,-0.57962 -1.48198,-0.37419c-1.29509,0.38823 -2.59011,0.77664 -3.67745,1.71117c0.57472,1.24025 0.48468,1.27449 1.01792,1.59273c1.10112,0.72761 2.07756,1.39833 3.14403,2.03482c2.00833,1.21629 4.05131,2.5237 6.09423,3.83092c0.37398,0.17044 0.74795,0.34088 0.77558,0.95549c-0.74098,0.49037 -1.51669,0.88946 -2.21614,0.94708c-2.77701,-1.34071 -5.11772,-3.16 -7.60391,-4.81989c-1.26038,-0.87541 -2.66618,-1.59123 -3.98201,-2.34147c-0.40856,-0.26137 -0.81718,-0.52292 -1.26734,-0.35173c-1.38506,0.42265 -2.77018,0.8451 -3.76748,1.7454c0.00689,0.83107 0.48475,1.27467 1.01799,1.59292c1.22574,0.7843 2.3615,1.60301 3.55266,2.29638c1.75897,1.10254 3.39333,2.14839 5.15237,3.25111c0.37391,0.17026 0.60247,0.5003 0.68555,0.98973c-0.6856,0.36502 -1.40586,0.63892 -1.96685,1.06063c-0.79644,0.61554 -1.47515,0.4567 -2.16765,-0.00935c-1.31583,-0.75024 -2.50692,-1.44342 -3.82275,-2.19366c-3.35875,-2.05746 -6.60666,-4.36544 -10.22159,-6.01262c-0.49866,-0.22731 -0.94185,-0.5798 -1.18419,-1.21704c0.94185,-0.77513 2.20229,-1.25447 3.33812,-1.7905c3.49738,-1.64269 7.02936,-3.19446 10.52681,-4.83697c4.99327,-2.31586 9.86193,-4.68842 14.85527,-7.0041c5.76898,-2.71494 11.53789,-5.43006 17.30686,-8.145c3.58742,-1.67693 7.11945,-3.22852 10.70687,-4.90545c2.95726,-1.43709 6.03907,-2.81765 9.03092,-4.1638c2.72175,-1.24344 5.40884,-2.57798 8.1306,-3.82142c3.22729,-1.53998 6.3992,-2.95461 9.66107,-4.40366c5.35347,-2.45263 10.58225,-4.96214 15.93565,-7.41495c3.26194,-1.44887 6.61391,-2.93198 9.8412,-4.47195c5.08338,-2.34992 10.13202,-4.79113 15.2154,-7.14105c2.86717,-1.40303 5.82436,-2.84029 8.72617,-4.1522c2.6663,-1.11826 5.15956,-2.69156 8.01977,-3.5709c4.78529,3.91175 9.53592,7.73238 14.23118,11.67837c0.60254,0.50047 1.29503,0.96652 1.64125,1.87692c-1.30198,0.91208 -2.6871,1.33455 -3.91289,1.905c-2.61775,-1.19291 -4.88923,-2.83016 -7.1607,-4.46741c-1.38506,-0.93228 -2.86009,-1.83015 -4.39057,-2.60284c-0.49866,-0.22731 -1.03189,-0.54556 -1.57208,-0.34013c-1.26044,0.47934 -2.59011,0.77663 -3.51819,1.85898c0.13157,0.88795 0.69939,1.29712 1.26727,1.70648c1.19115,0.69337 2.32686,1.51191 3.51801,2.20527c1.63436,1.04585 3.26872,2.0917 4.90308,3.13755c0.44321,0.35248 0.97644,0.67072 0.94869,1.41069c-0.34628,0.44435 -0.88647,0.64978 -1.40586,0.63893c-2.61775,-1.19291 -4.9238,-2.92109 -7.28531,-4.5241c-1.38506,-0.93228 -2.73548,-1.77345 -4.17592,-2.58038c-0.40856,-0.26137 -0.94186,-0.5798 -1.48205,-0.37437c-1.26044,0.47934 -2.55546,0.86775 -3.64279,1.80229c0.07612,1.01312 0.85865,1.44493 1.55122,1.91116c2.70083,1.68234 5.31163,3.39893 7.88778,5.02439c0.53324,0.31825 0.94185,0.5798 1.23965,1.09187c0.03458,0.09093 0.01378,0.30721 -0.00695,0.52368c-0.50561,0.29636 -1.01115,0.59291 -1.62057,0.61629c-2.6524,-1.28401 -4.95845,-3.0122 -7.31996,-4.61521c-1.38506,-0.93228 -2.73548,-1.77346 -4.17593,-2.58039c-0.40856,-0.26137 -0.94179,-0.57962 -1.48198,-0.37419c-1.38512,0.42247 -2.68021,0.81069 -3.67751,1.71099c-0.08314,0.86531 0.39472,1.30891 0.92796,1.62715c1.2258,0.78448 2.3615,1.60301 3.55266,2.29638c1.75897,1.10254 3.48336,2.11415 5.15236,3.25112c0.44321,0.35248 1.06648,0.63649 1.07337,1.46756c-1.7106,0.65053 -3.38662,1.392 -4.97254,2.0994c-2.6524,-1.28401 -4.92381,-2.92109 -7.19528,-4.55834c-1.38506,-0.93228 -2.86016,-1.83033 -4.39064,-2.60302c-0.40856,-0.26137 -0.94179,-0.57962 -1.30191,-0.44266c-1.41971,0.33153 -2.92951,0.69713 -3.87831,1.99593c0.18695,0.76259 0.66481,1.20619 1.19804,1.52444c1.10105,0.72742 2.07757,1.39833 3.14404,2.03482c1.79362,1.19365 3.55258,2.2962 5.31162,3.39892c0.40856,0.26137 0.85183,0.61404 1.05952,1.16017c-0.49169,0.60394 -1.19121,0.66138 -1.76598,0.77588c-2.52772,-1.22714 -4.79919,-2.86439 -7.07066,-4.50164c-1.385,-0.93211 -2.8601,-1.83015 -4.39057,-2.60284c-0.37398,-0.17044 -0.81718,-0.52292 -1.26734,-0.35173c-1.29509,0.38823 -2.80483,0.75399 -3.69825,1.92745c0.09692,0.79683 0.57478,1.24043 1.10802,1.55867c1.10112,0.72761 2.07757,1.39834 3.14404,2.03483c1.79362,1.19365 3.55266,2.29638 5.31163,3.39892c0.40863,0.26155 0.85183,0.61403 1.12882,1.34239c-2.36162,1.10648 -4.56399,2.36078 -6.97404,3.06893c-2.6524,-1.28401 -4.9238,-2.92108 -7.19528,-4.55834c-1.38506,-0.93228 -2.86016,-1.83033 -4.39063,-2.60303c-0.53324,-0.31825 -1.12186,-0.51114 -1.75208,-0.27147c-1.17041,0.4451 -2.37547,0.79909 -3.31732,1.57422c0.4501,1.18355 0.36006,1.21779 1.05257,1.68384c1.2258,0.78448 2.32686,1.51191 3.55266,2.29638c1.75897,1.10254 3.55259,2.29619 5.31163,3.39892c0.40856,0.26137 0.81718,0.52292 0.63016,1.11508c-0.70641,0.5813 -1.4613,0.7641 -2.27848,0.24117c-0.53324,-0.31825 -1.06647,-0.63649 -1.59971,-0.95474c-1.54433,-1.08009 -3.054,-2.06907 -4.59833,-3.14915c-1.26038,-0.87541 -2.64545,-1.80769 -4.14128,-2.48928c-0.40863,-0.26155 -0.94186,-0.57979 -1.30199,-0.44284c-1.41971,0.33153 -2.92944,0.69731 -4.02372,2.15552c1.48199,1.72912 3.4764,2.63783 5.27009,3.83167c1.75897,1.10254 3.60804,2.17103 5.32547,3.70631c-0.69262,0.88852 -1.37823,1.25354 -2.41012,0.70798c-0.53324,-0.31825 -1.06647,-0.63649 -1.59971,-0.95474c-1.63436,-1.04585 -3.3033,-2.18263 -4.84763,-3.26272c-1.29503,-0.96652 -2.64545,-1.80769 -4.14127,-2.48928c-0.37398,-0.17044 -0.81718,-0.52292 -1.26734,-0.35173c-1.29509,0.38823 -2.77024,0.84492 -3.69825,1.92745c0.06228,0.70572 0.50548,1.05821 0.94868,1.41069c0.81718,0.52292 1.66901,1.13697 2.48619,1.65989c2.04292,1.30722 4.21051,2.67132 6.25342,3.97854c0.37398,0.17044 0.65792,0.37512 0.61638,0.80786c-1.35743,1.03725 -5.15955,2.69155 -7.02942,3.19428c-2.52772,-1.22714 -4.79919,-2.86439 -7.07066,-4.50164c-1.75897,-1.10254 -3.46263,-2.33062 -5.47785,-3.02305c-1.35048,0.51358 -2.89485,0.78824 -3.93376,2.12111c0.19391,0.23892 0.20775,0.54631 0.36702,0.69412c0.31859,0.29579 0.63712,0.5914 0.92106,0.79608c1.10112,0.72761 2.07756,1.39833 3.14403,2.03482c1.79362,1.19365 3.55266,2.29638 5.3117,3.3991c0.40856,0.26137 0.85176,0.61385 1.05952,1.16017c-0.49176,0.60376 -1.03195,0.80919 -1.7314,0.86682c-2.52772,-1.22714 -4.7992,-2.8644 -7.07067,-4.50165c-1.385,-0.93211 -2.86009,-1.83015 -4.39057,-2.60284c-0.37398,-0.17044 -0.81718,-0.52292 -1.26734,-0.35173c-1.29509,0.38823 -2.80482,0.754 -3.69825,1.92746c0.09692,0.79683 0.57478,1.24043 1.10802,1.55867c1.22574,0.7843 2.45153,1.56877 3.67727,2.35307c1.66901,1.13697 3.3934,2.14857 5.06234,3.28536c0.28394,0.20468 0.78253,0.4318 0.63016,1.11507c-1.94604,0.84435 -3.85751,1.77965 -5.89359,2.65825c-1.70366,-1.22807 -3.37259,-2.36485 -4.95157,-3.53605c-1.8975,-1.46681 -3.88503,-2.89939 -6.03878,-3.95609c-0.49859,-0.22713 -0.97644,-0.67073 -1.55121,-0.55623c-1.41978,0.33135 -2.92951,0.69713 -3.87831,1.99594c0.29077,1.03557 1.07336,1.46756 1.76586,1.93361c2.64545,1.80769 5.41551,3.67208 8.06096,5.47977c0.28394,0.20468 0.65785,0.37494 0.65096,0.89879c-0.67183,0.67223 -1.33669,0.82079 -2.2439,0.33211c-2.09829,-1.18187 -4.08583,-2.61444 -6.03877,-3.95608c-1.29497,-0.96634 -2.77006,-1.86439 -4.30054,-2.63708c-0.49859,-0.22713 -1.03182,-0.54538 -1.57201,-0.33995c-1.26044,0.47934 -2.55554,0.86756 -3.64287,1.8021c0.07612,1.01312 0.85865,1.44493 1.55122,1.91116c2.70083,1.68234 5.31162,3.39892 7.88778,5.02439c0.53324,0.31825 0.94186,0.5798 1.14962,1.12611c-0.52634,0.51282 -1.19122,0.66139 -1.9807,0.75325c-0.74795,-0.34088 -1.53047,-0.7727 -2.34765,-1.29562c-1.54433,-1.08009 -3.08865,-2.16017 -4.59833,-3.14915c-1.35041,-0.84117 -2.70083,-1.68234 -4.14127,-2.48928c-0.44328,-0.35266 -0.99724,-0.45445 -1.53744,-0.24901c-1.22586,0.57027 -2.4655,0.83332 -3.4628,1.73362c-0.01391,1.04735 0.85872,1.44511 1.55122,1.91116c2.73548,1.77345 5.34628,3.49003 8.04711,5.17238c0.40856,0.26137 0.6925,0.46604 0.84481,1.13753c-0.9557,0.46773 -1.91139,0.93547 -3.76053,1.22174z" data-paper-data="{&quot;index&quot;:null}" fill="#ffffff"/><path d="M375.22302,177.51962c-2.90181,1.31192 -5.71359,2.58959 -8.61541,3.9015c-0.18006,0.06848 -0.27009,0.10271 -0.45016,0.17119c-2.40316,1.53923 -5.22872,2.50969 -7.82585,3.80982c-2.59707,1.30031 -5.35341,2.45282 -7.98512,3.66202c-4.90324,2.28162 -9.68187,4.61994 -14.58518,6.90138c-3.26194,1.44887 -6.61384,2.93215 -9.87578,4.38102c-0.18006,0.06848 -0.4848,0.08008 -0.63022,0.23967c-2.22309,1.47075 -4.72325,2.21297 -7.05023,3.41056c-3.06802,1.68778 -6.3992,2.95461 -9.66114,4.40348c-0.32548,0.22806 -0.63022,0.23967 -0.86567,0.43349c-2.58322,1.60771 -5.53346,2.52129 -8.31066,3.8899c-3.19264,1.63109 -6.29532,3.22776 -9.66107,4.40365c-0.39478,0.04585 -0.66487,0.14856 -0.90032,0.34239c-2.22316,1.47057 -4.72325,2.21297 -7.05022,3.41056c-3.28267,1.66533 -6.75933,3.09156 -10.11129,4.57466c-0.18006,0.06848 -0.27009,0.10271 -0.45016,0.17119c-2.83252,1.49414 -5.60964,2.86292 -8.51146,4.17484c-2.03608,0.87859 -4.07222,1.75702 -6.03907,2.81765c-2.65245,1.42566 -5.47808,2.39594 -8.1306,3.82142c-3.28267,1.66533 -6.79391,3.00063 -10.11123,4.57485c-1.76605,0.7757 -3.49739,1.6427 -5.26344,2.4184c-0.41551,0.2623 -0.7064,0.5813 -1.15656,0.75249c-1.04573,0.50197 -1.34358,1.34465 -1.17742,2.32352c0.19385,1.59366 0.44309,3.06198 0.72697,4.62141c0.2216,0.85371 0.35312,1.74147 0.30463,2.6979c-0.6856,0.36502 -1.21201,0.87766 -1.84223,1.11733c-2.03608,0.87859 -3.98213,1.72296 -5.85901,2.74918c-2.05688,1.09488 -4.11376,2.18976 -6.26067,3.31887c-0.86567,0.43349 -1.69675,0.95792 -2.79098,1.06139c-0.78247,-1.78656 -0.77546,-3.66498 -1.25325,-5.46332c-0.44314,-1.70723 -0.6162,-3.51718 -1.05941,-5.2246c-0.38769,-1.8324 -0.56075,-3.64235 -0.8239,-5.41824c0.38093,-0.35324 0.67183,-0.67223 1.03195,-0.80919c2.77713,-1.36879 5.51968,-2.82851 8.38685,-4.23154c2.92255,-1.52838 5.84516,-3.05657 8.87158,-4.31179c4.07222,-1.75702 7.98519,-3.66184 11.93273,-5.47572c3.71203,-1.62024 7.3549,-3.42235 11.03234,-5.13352c2.54169,-1.17496 5.1734,-2.38416 7.68044,-3.65023c2.77713,-1.36879 5.62349,-2.55553 8.43527,-3.83321c0.14542,-0.15959 0.45016,-0.17119 0.59558,-0.33078c1.68297,-1.26514 3.78828,-1.96169 5.69974,-2.89698c3.55284,-1.76786 7.11945,-3.22852 10.74152,-4.81434c0.32548,-0.22806 0.59557,-0.33078 0.86567,-0.4335c2.54169,-1.17496 4.95869,-2.40679 7.50037,-3.58175c3.35197,-1.48311 6.79391,-3.00063 10.14588,-4.48373c0.18006,-0.06848 0.2701,-0.10272 0.45016,-0.17119c2.6871,-1.33455 5.46423,-2.70334 8.27601,-3.98101c3.35197,-1.48311 6.79398,-3.00045 10.14588,-4.48373c0.18006,-0.06848 0.27009,-0.10271 0.45015,-0.17119c2.58329,-1.60752 5.4435,-2.48688 8.13061,-3.82143c3.58742,-1.67693 7.26486,-3.3881 10.85235,-5.06486c3.85751,-1.77965 7.80506,-3.59353 11.62792,-5.46429c2.05694,-1.0947 4.18305,-2.00754 6.30916,-2.92037c2.72175,-1.24344 5.4643,-2.70316 8.31067,-3.8899c0.72025,-0.27391 1.53053,-0.58206 2.30617,-0.98131c3.64287,-1.8021 7.28567,-3.60439 11.06699,-5.0424c1.025,-0.28551 1.92532,-0.6279 3.04034,-0.94765c0.49847,2.93663 0.98316,5.56604 1.55788,8.16122c0.66468,2.56076 1.32944,5.1217 1.75867,7.87628c-0.45016,0.17119 -0.72025,0.27391 -0.99034,0.37662c-2.18149,1.03819 -4.41155,1.67769 -6.52381,2.89792c-0.95577,0.46756 -1.84224,1.11734 -3.04027,0.94783c-1.36421,-2.50331 -1.34335,-5.42928 -2.59672,-8.18311c-0.54019,0.20543 -0.90032,0.34239 -0.77563,0.39926z" data-paper-data="{&quot;index&quot;:null}" fill="#216aff"/><path d="M375.30563,188.84705c-2.54169,1.17496 -4.99327,2.31586 -7.53496,3.49082c-6.30917,2.92037 -12.5283,5.8065 -18.83747,8.72687c-3.76748,1.74541 -7.62499,3.52506 -11.4825,5.30471c-2.90181,1.31192 -5.71359,2.58959 -8.61541,3.9015c-4.90324,2.28162 -9.71652,4.52883 -14.61976,6.81045c-2.9572,1.43726 -6.03908,2.81765 -9.03092,4.16381c-6.30917,2.92037 -12.52829,5.8065 -18.83746,8.72687c-5.53346,2.52129 -11.03235,5.13352 -16.53123,7.74574c-6.30917,2.92037 -12.67371,5.96609 -18.94823,8.97757c-3.58748,1.67675 -7.26494,3.38793 -10.85235,5.06486c-1.22579,0.57045 -2.45165,1.14072 -3.92674,1.59761c-0.6509,-2.25354 -0.87245,-4.462 -1.274,-6.6018c0.23545,-0.19383 0.47089,-0.38765 0.65095,-0.45613c4.63321,-2.17872 9.3564,-4.39188 13.98961,-6.5706c4.63321,-2.17872 9.39104,-4.30076 14.02418,-6.47967c5.31882,-2.54375 10.54761,-5.05325 15.90108,-7.50588c2.45158,-1.1409 4.90324,-2.28162 7.3549,-3.42235c4.72318,-2.21315 9.44643,-4.42611 14.16961,-6.63926c2.72175,-1.24344 5.44349,-2.48687 8.16524,-3.73031c5.40885,-2.57799 10.85228,-5.06503 16.26114,-7.64302c2.54169,-1.17496 5.1734,-2.38415 7.71502,-3.5593c4.63321,-2.17872 9.17633,-4.32339 13.80955,-6.50212c4.81321,-2.24738 9.66114,-4.40348 14.47435,-6.65086c2.77713,-1.36879 5.55426,-2.73757 8.36605,-4.01525c1.7314,-0.86682 3.62207,-1.58583 5.38805,-2.36171c0.921,2.15083 0.71319,4.31419 2.0289,6.419c-0.6856,0.36502 -1.2466,0.78674 -1.80759,1.20845z" data-paper-data="{&quot;index&quot;:null}" fill="#d0e9ea"/><path d="M435.72845,219.01577c-7.09134,-5.63993 -14.01647,-11.65573 -20.85163,-17.70595c-7.11904,-6.25472 -14.00263,-12.70326 -21.46795,-18.51363c-1.61356,-1.26213 -2.70773,-2.51341 -3.0193,-4.68763c-0.54697,-3.33514 -1.36403,-6.56756 -2.09106,-9.83422c-0.11766,-0.58037 -0.14535,-1.19516 0.00702,-1.87842c0.40863,0.26155 0.74794,0.34089 0.94186,0.5798c2.35455,2.12669 4.83372,4.31007 7.22292,6.52787c5.60936,5.26574 11.2741,10.40613 17.08433,15.38712c2.25067,1.85354 4.53593,3.798 6.64119,5.81112c3.92657,3.82157 8.28939,7.16436 12.0151,11.27069c1.21878,1.30798 2.22292,2.59349 2.66613,4.3009c0.67853,2.86815 1.35713,5.73648 2.03566,8.60464c0.03465,0.09111 -0.0208,0.21628 -0.15237,0.68327c-0.40863,-0.26155 -0.78253,-0.43181 -1.03189,-0.54556z" data-paper-data="{&quot;index&quot;:null}" fill="#216aff"/><path d="M371.56337,249.46158c-0.77564,0.39926 -1.42666,0.85521 -2.23695,1.16336c-2.57627,1.08403 -5.06256,2.13364 -7.63883,3.21767c-3.80213,1.6543 -7.60426,3.30859 -11.40632,4.96307c-4.88251,2.06516 -9.85505,4.16456 -14.82759,6.26396c-4.52238,1.92821 -9.07935,3.76548 -13.60173,5.69369c-0.50554,0.29654 -1.10111,0.62733 -1.77983,0.46849c-2.57615,-1.62547 -5.04153,-3.50164 -7.50692,-5.37781c-2.65923,-2.11491 -5.37391,-4.10465 -7.97775,-6.3449c-1.64821,-1.35324 -3.44183,-2.54689 -4.88917,-4.1849c-0.22856,-0.33003 -0.63712,-0.5914 -0.51933,-1.3656c0.27698,-0.62657 1.08726,-0.93472 1.86297,-1.3338c3.31732,-1.57422 6.63465,-3.14843 9.91739,-4.81358c4.74398,-2.42943 9.71652,-4.52883 14.65441,-6.71934c6.43378,-2.86368 13.02689,-5.57937 19.52996,-8.26082c0.54019,-0.20543 1.13576,-0.53621 1.67596,-0.74164c1.08038,-0.41086 2.21621,-0.94689 3.38662,-1.39199c0.77564,-0.39926 1.45436,-0.24042 2.03602,0.47615c0.38782,0.47784 0.99028,0.97813 1.46814,1.42172c2.99167,2.71809 6.30882,5.20811 9.53593,7.73238c3.1025,2.46757 6.00413,5.2199 8.96115,7.84688c-0.06234,0.64903 -0.22861,1.02472 -0.64413,1.28703zM315.98022,247.4649c-2.27159,1.07225 -4.48774,2.01932 -6.75933,3.09156c-0.18006,0.06848 -0.29089,0.319 -0.43631,0.47859c-2.39627,1.01537 -4.89636,1.75776 -7.0848,3.31963c2.04981,2.13829 13.94724,11.47369 18.79486,14.73641c1.38512,-0.42247 2.79098,-1.06139 4.16226,-1.79125c0.50554,-0.29654 1.10118,-0.62714 1.64137,-0.83257c4.88251,-2.06516 9.67492,-4.09626 14.4674,-6.12719c0.18006,-0.06848 0.41557,-0.26212 0.59564,-0.3306c2.57627,-1.08403 5.20799,-2.29323 7.78425,-3.37726c1.74525,-0.55942 3.4004,-1.08478 5.00712,-2.00847c2.18156,-1.03801 4.4462,-1.58657 6.4685,-2.77238c2.89479,-0.78842 5.22878,-2.50951 8.14438,-3.51421c-0.73404,-1.38823 -1.9252,-2.0816 -2.84619,-2.8775c-4.18282,-3.41146 -8.24096,-6.76604 -12.42378,-10.1775c-0.72715,-0.55716 -1.50968,-0.98898 -2.18144,-1.67149c-0.74093,-0.86438 -1.74512,-0.79515 -2.52082,-0.39607c-3.3727,1.69957 -7.07786,2.79595 -10.54059,4.52976c-2.92262,1.52819 -6.07372,2.72655 -9.06556,4.0727c-0.54019,0.20543 -1.13576,0.53621 -1.67595,0.74164c-1.83528,0.59366 -3.54588,1.24419 -5.24264,2.20212c-2.0015,0.96953 -4.03757,1.84812 -6.28836,2.70409z" data-paper-data="{&quot;index&quot;:null}" fill="#010201"/><path d="M246.07427,270.40228c-1.22579,0.57045 -2.54162,1.17513 -3.73283,1.83652c-1.42666,0.85521 -2.74945,0.62865 -4.09986,-0.21252c-3.89198,-2.37571 -7.7839,-4.75124 -11.67588,-7.12695c-0.40863,-0.26155 -0.90721,-0.48869 -1.00413,-1.28552c0.42246,-0.78598 1.1981,-1.18524 2.06383,-1.61856c0.9557,-0.46773 1.94605,-0.84436 2.86717,-1.40303c1.10118,-0.62715 1.95989,-0.53697 3.15105,0.1564c3.83653,2.50088 7.47227,5.2867 11.41963,7.53705c0.56789,0.40936 1.13577,0.81872 1.55817,1.38748c-0.09699,0.55792 -0.33243,0.75174 -0.54715,0.72911zM237.86083,268.31527c0.19391,0.23892 0.26313,0.42096 0.42247,0.56895c1.03182,0.54538 2.06372,1.09094 3.13019,1.72743c0.69945,-0.05762 1.36432,-0.20618 1.91146,-0.93529c-1.09417,-1.25128 -2.57622,-1.62564 -3.78115,-2.62623c-0.61637,0.54706 -1.12198,0.84342 -1.68297,1.26514zM235.92191,264.57171c-1.13583,0.53603 -2.14691,1.12911 -3.28274,1.66515c0.67177,0.68251 1.32968,1.05764 2.16759,1.3641c0.95577,-0.46756 1.78678,-0.99216 2.74255,-1.45972c-0.31164,-0.81947 -1.02494,-1.06924 -1.6274,-1.56953zM230.11847,263.13129c0.96949,1.19441 0.96948,1.1944 3.11646,0.06547c-1.12882,-1.3424 -2.07066,-0.56726 -3.11646,-0.06547z" data-paper-data="{&quot;index&quot;:null}" fill="#020202"/><path d="M288.25043,259.36509c2.36156,0.24827 3.78115,2.62622 2.83924,4.75611c-1.21902,2.75609 -6.28154,3.53498 -8.31054,1.18041c-1.1634,-1.43332 -1.08716,-3.1297 0.32565,-4.29231c0.61637,-0.54706 1.35743,-1.03725 2.11233,-1.22005c0.9557,-0.46773 1.9599,-0.53697 3.03332,-0.42415zM284.62135,262.82934c-0.43631,0.47859 -0.24936,1.24118 0.37392,1.52519c0.7826,0.43199 3.38656,-0.03725 3.88521,-1.16486c0.3117,-0.53528 0.15932,-1.20694 -0.46395,-1.49095c-0.65792,-0.37512 -1.26734,-0.35174 -2.16765,-0.00935c-0.63022,0.23967 -1.19121,0.66138 -1.62752,1.13997z" data-paper-data="{&quot;index&quot;:null}" fill="#030606"/><path d="M296.83071,266.21047c1.95983,0.81778 2.68692,2.7297 1.51645,4.52954c-0.11083,0.25052 -0.34627,0.44435 -0.58172,0.63818c-1.25355,1.31041 -2.92262,1.52819 -4.62627,1.65505c-1.21884,0.04678 -2.63855,-0.97662 -3.08865,-2.16018c-0.4501,-1.18355 -0.25613,-2.29939 0.65114,-3.16545c0.61637,-0.54706 1.19817,-1.18506 1.953,-1.36804c1.26044,-0.47934 2.99874,-0.51508 4.17604,-0.12911zM293.29161,270.99522c1.25349,0.04434 2.27848,-0.24117 3.02649,-1.25504c0.40166,-0.5697 0.27015,-1.45747 -0.44315,-1.70724c-0.87263,-0.39775 -1.78679,-0.36277 -2.61781,0.16185c-0.50561,0.29636 -0.97657,0.68383 -1.35743,1.03725c0.28388,1.55943 0.44315,1.70723 1.3919,1.76317z" data-paper-data="{&quot;index&quot;:null}" fill="#040605"/><path d="M254.94534,279.63815c-2.26458,-0.80618 -2.89468,-3.27601 -1.29486,-5.03077c1.19817,-1.18506 2.69406,-1.85823 4.37697,-1.76862c1.77288,0.05519 3.20637,1.3858 3.46945,3.16151c0.23545,1.1611 -0.71341,2.45973 -2.2093,3.13289c-0.18006,0.06848 -0.27009,0.10271 -0.45016,0.17119c-1.44051,0.54782 -2.74945,0.62865 -3.8921,0.33379zM255.07013,276.98552c0.27699,0.72835 1.36426,1.14857 2.38919,0.86288c0.45016,-0.17119 0.95576,-0.46755 1.33663,-0.82097c0.70641,-0.5813 0.45022,-1.52594 -0.3877,-1.8324c-0.58869,-0.19307 -1.23275,-0.26081 -1.68292,-0.08961c-1.02493,0.28569 -1.80758,1.20844 -1.6552,1.88011z" data-paper-data="{&quot;index&quot;:null}" fill="#040505"/><path d="M275.62509,267.08426c1.56513,0.86381 1.93904,2.38899 1.05947,3.86984c-1.44752,2.42624 -5.54048,3.04479 -7.70112,1.15702c-0.92106,-0.79608 -1.1426,-1.64961 -0.6093,-2.68611c0.55409,-1.25278 1.42671,-2.20995 2.84642,-2.54148c1.37127,-0.72986 2.83948,-0.66289 4.40454,0.20074zM270.63181,269.40012c-0.50561,0.29636 -0.46407,1.21855 0.06917,1.53679c0.81718,0.52292 1.73135,0.48793 2.63166,0.14555c0.81028,-0.30815 1.30197,-0.91208 1.40591,-1.99368c-1.54433,-1.08009 -2.8948,-0.56651 -4.10675,0.31133z" data-paper-data="{&quot;index&quot;:null}" fill="#030604"/><path d="M278.47741,289.75948c-0.98345,1.20769 -4.72317,2.21314 -6.37834,1.38358c-1.77977,-0.88626 -2.3268,-2.86664 -1.05245,-4.39334c1.27428,-1.52687 3.89905,-2.21239 5.85889,-1.39461c0.87263,0.39775 1.65516,0.82957 1.84212,1.59216c0.36006,1.21779 0.27693,2.0831 -0.27022,2.81221zM274.64087,287.25861c-0.7549,0.1828 -1.63442,0.3089 -2.18156,1.038c-0.23545,0.19383 -0.18702,0.59216 0.0069,0.83107c0.15926,0.14781 0.31852,0.29561 0.56789,0.40936c0.7133,0.24977 1.32272,0.22638 2.04297,-0.04753c0.72025,-0.27391 1.47516,-0.4567 1.61368,-1.44736c-0.4917,-0.75099 -1.205,-1.00076 -2.04987,-0.78354z" data-paper-data="{&quot;index&quot;:null}" fill="#030506"/><path d="M268.04129,279.65999c1.30192,0.44266 2.10518,2.01295 1.58574,3.35684c-1.00432,2.77872 -5.33961,4.11495 -8.13737,1.63578c-0.92106,-0.79608 -0.97645,-2.02566 -0.26309,-3.13064c0.60259,-0.85428 1.43361,-1.37889 2.06383,-1.61856c1.53054,-0.58206 3.57358,-0.6294 4.75089,-0.24343zM266.10195,284.04474c1.08038,-0.41086 1.22586,-0.57027 1.53059,-1.9368c-2.31301,-1.20451 -3.46261,-0.97569 -4.77857,0.98357c0.93491,1.10347 1.95295,1.34164 3.24797,0.95324z" data-paper-data="{&quot;index&quot;:null}" fill="#050504"/><path d="M303.64501,272.47679c2.34772,-0.05913 3.76738,2.31902 2.61075,4.42626c-0.3117,0.53528 -0.74801,1.01387 -1.25355,1.31041c-1.19121,0.66138 -2.52088,0.95868 -3.9545,0.98264c-0.644,-0.06755 -1.23269,-0.26063 -1.76593,-0.57887c-1.22574,-0.7843 -1.59965,-2.30948 -0.92094,-3.50558c0.44326,-1.00226 1.32974,-1.65204 2.25085,-2.21071c1.05958,-0.19458 1.95989,-0.53696 3.03332,-0.42415zM301.84427,277.22598c0.69945,-0.05762 1.45429,-0.2406 2.07073,-0.78748c0.41551,-0.2623 0.63711,-0.76352 0.464,-1.21872c-0.11766,-0.58037 -0.63711,-0.5914 -1.06647,-0.63649c-1.55824,-0.03274 -2.51394,0.435 -3.39351,1.91586c0.49163,0.75081 1.22574,0.78429 1.92526,0.72685z" data-paper-data="{&quot;index&quot;:null}" fill="#050304"/><path d="M290.76355,279.2515c1.47503,0.89787 1.74506,2.14989 0.95552,3.59651c-0.31163,0.53546 -0.74801,1.01386 -1.2189,1.40152c-1.57214,1.01462 -3.18575,1.10724 -4.88244,0.71041c-0.33933,-0.07933 -0.74795,-0.34088 -1.03189,-0.54556c-1.17035,-0.90965 -1.37116,-1.97963 -0.72703,-3.26665c0.62333,-1.07074 1.54444,-1.62941 2.80488,-2.10875c1.31583,-0.60469 2.65942,-0.59441 4.09987,0.21252zM287.36296,283.04559c0.69952,-0.05744 1.48901,-0.14931 2.07073,-0.78748c0.43638,-0.47841 0.33946,-1.27524 -0.33927,-1.43408c-0.67865,-0.15865 -1.46821,-0.06697 -2.18846,0.20693c-0.6856,0.36502 -0.86567,0.4335 -1.41977,1.68628c0.45705,0.65988 1.21196,0.47709 1.87676,0.32835z" data-paper-data="{&quot;index&quot;:null}" fill="#040405"/><path d="M277.6884,279.01336c-1.99448,-0.90889 -2.3961,-3.04887 -0.81701,-4.58717c1.6344,-1.66383 4.57776,-2.05355 6.58603,-0.83745c1.4751,0.89804 1.82821,2.63952 0.6647,3.91569c-0.63718,0.76335 -1.34358,1.34465 -2.27848,1.5961c-1.44051,0.54782 -2.87413,0.57177 -4.15524,-0.08718zM280.14705,274.63929c-0.78948,0.09186 -1.59977,0.40001 -2.14691,1.12912c-0.40166,0.5697 -0.24936,1.24118 0.37392,1.52519c0.74795,0.34088 1.60666,0.43106 2.41695,0.12291c0.90031,-0.34238 1.08038,-0.41086 1.84919,-1.64101c-0.68562,-0.98991 -1.54432,-1.08009 -2.49314,-1.13621z" data-paper-data="{&quot;index&quot;:null}" fill="#040506"/><path d="M364.14018,229.67099c2.59707,-1.30031 5.35347,-2.45264 8.05442,-3.47979c0.63022,-0.23967 1.35047,-0.51357 2.04297,-0.04752c0.15231,0.67148 -0.10394,1.08159 -0.66493,1.5033c-0.70641,0.5813 -1.49589,0.67317 -2.27153,1.07242c-2.21621,0.94689 -4.37696,1.76862 -6.59311,2.71569c-0.63022,0.23967 -1.29509,0.38822 -1.93221,-0.20318c0.04856,-0.95624 0.73416,-1.32126 1.36438,-1.56093z" data-paper-data="{&quot;index&quot;:null}" fill="#0c1212"/><path d="M394.00269,224.46277c-0.70641,0.5813 -1.49589,0.67317 -2.27152,1.07242c-2.21621,0.94689 -4.37697,1.76862 -6.59311,2.71569c-0.63022,0.23967 -1.29509,0.38822 -1.9322,-0.20318c0.04856,-0.95624 0.73416,-1.32126 1.41983,-1.6861c2.56242,-1.39142 5.3534,-2.45282 8.05435,-3.47997c0.63022,-0.23967 1.35047,-0.51357 2.04297,-0.04752c0.24241,0.63742 -0.10387,1.08177 -0.72031,1.62865z" data-paper-data="{&quot;index&quot;:null}" fill="#0d1313"/><path d="M416.95369,220.32006c-0.43631,0.47859 -0.81724,0.83182 -1.44746,1.07149c-2.36162,1.10648 -4.81328,2.2472 -7.29951,3.29699c-0.54019,0.20543 -1.13583,0.53604 -1.77983,0.46849c-0.42943,-0.04527 -0.82413,0.00075 -0.99724,-0.45445c-0.0277,-0.61479 0.38781,-0.8771 0.89342,-1.17346c2.58322,-1.60771 5.53346,-2.52129 8.27601,-3.98101c0.6856,-0.36502 1.59977,-0.40001 2.36845,-0.27559c0.29779,0.51207 0.22161,0.85371 -0.01384,1.04754z" data-paper-data="{&quot;index&quot;:null}" fill="#090c0d"/><path d="M390.89342,219.80956c-0.67183,0.67223 -1.35743,1.03725 -2.16771,1.34539c-2.03608,0.87859 -4.01677,1.63185 -5.89365,2.65807c-0.6856,0.36502 -1.44051,0.54782 -2.19534,0.73079c-0.39478,0.04585 -0.96954,0.16034 -1.26734,-0.35173c-0.18695,-0.76259 0.44326,-1.00227 0.9488,-1.29881c2.58329,-1.60752 5.44349,-2.48687 8.09595,-3.91253c0.7757,-0.39908 1.68988,-0.43407 2.54859,-0.34389c0.33237,0.60301 0.16616,0.97888 -0.06929,1.17271z" data-paper-data="{&quot;index&quot;:null}" fill="#090d0e"/><path d="M378.38574,229.46402c0.2701,-0.10272 0.64407,0.06773 0.74795,0.34088c0.10381,0.27298 -0.00695,0.52368 -0.20782,0.80844c-0.7272,0.79758 -1.64833,1.35625 -2.60403,1.82399c-2.21614,0.94707 -4.37689,1.7688 -6.48922,2.98884c-0.32548,0.22806 -0.81028,0.30815 -1.29509,0.38823c-0.18006,0.06848 -0.46393,-0.13602 -0.62327,-0.28401c-0.19391,-0.23892 -0.2077,-0.54613 -0.0069,-0.83107c0.13164,-0.4668 0.54714,-0.72911 0.9973,-0.9003c2.59707,-1.30031 5.1942,-2.60044 7.70124,-3.86651c0.63022,-0.23967 1.08038,-0.41087 1.77983,-0.46849z" data-paper-data="{&quot;index&quot;:null}" fill="#080b0b"/><path d="M419.75132,225.50873c-2.90181,1.31192 -5.92823,2.56713 -8.83005,3.87905c-0.36013,0.13695 -0.75491,0.18279 -1.14961,0.22882c-0.30475,0.01161 -0.67872,-0.15884 -0.78259,-0.43199c-0.13846,-0.36409 0.0624,-0.64884 0.29785,-0.84267c0.56099,-0.42171 1.06653,-0.71826 1.57207,-1.0148c1.49596,-0.67299 3.04729,-1.47133 4.54318,-2.14449c1.13576,-0.53621 2.21615,-0.94708 3.38656,-1.39218c0.63022,-0.23967 1.35047,-0.51357 2.02223,0.16894c-0.08314,0.86531 -0.51945,1.34389 -1.05964,1.54932z" data-paper-data="{&quot;index&quot;:null}" fill="#07090a"/><path d="M399.24503,229.03439c-1.53054,0.58206 -2.90174,1.31209 -4.3977,1.98508c-1.17041,0.4451 -2.3962,1.01555 -3.56662,1.46065c-0.54019,0.20543 -0.99034,0.37662 -1.54438,0.27466c-0.21471,-0.02263 -0.46401,-0.1362 -0.53324,-0.31825c-0.06923,-0.18205 -0.08308,-0.48944 0.06234,-0.64903c0.47096,-0.38748 0.94192,-0.77495 1.44746,-1.07149c1.55134,-0.79834 3.10267,-1.59667 4.68859,-2.30408c1.13576,-0.53621 2.21614,-0.94708 3.38655,-1.39218c0.63022,-0.23967 1.26044,-0.47934 2.02224,0.16894c-0.22855,1.0249 -1.00425,1.42398 -1.56524,1.84569z" data-paper-data="{&quot;index&quot;:null}" fill="#07090a"/><path d="M406.05337,212.79367c-1.13576,0.53621 -2.25079,0.85596 -3.3519,1.48329c-1.46131,0.7641 -3.04722,1.47151 -4.57776,2.05356c-0.45016,0.17119 -1.025,0.2855 -1.50981,0.36559c-0.30468,0.01179 -0.64407,-0.06773 -0.78253,-0.43182c-0.13846,-0.36409 0.06233,-0.64902 0.29785,-0.84267c0.38086,-0.35342 0.88646,-0.64979 1.30197,-0.91209c1.55134,-0.79834 3.10268,-1.59668 4.6886,-2.30408c1.13576,-0.53621 2.21614,-0.94707 3.38655,-1.39217c0.63022,-0.23967 1.29509,-0.38822 2.05689,0.26005c-0.82419,1.3555 -0.82419,1.3555 -1.50986,1.72033z" data-paper-data="{&quot;index&quot;:null}" fill="#060909"/><path d="M402.02947,219.01344c2.417,-1.23183 4.99334,-2.31568 7.445,-3.4564c0.50554,-0.29654 1.08038,-0.41086 1.56512,-0.49112c0.39478,-0.04585 0.91416,-0.03499 1.03189,0.54556c-0.80339,1.13922 -0.80339,1.13922 -1.75916,1.60677c-1.31583,0.60469 -2.72168,1.24362 -4.12761,1.88237c-1.40586,0.63892 -2.84636,1.18674 -4.28686,1.73455c-0.54019,0.20543 -1.20506,0.35399 -1.73135,-0.48794c0.42246,-0.78598 1.10814,-1.15082 1.86297,-1.33379z" data-paper-data="{&quot;index&quot;:null}" fill="#060909"/><path d="M377.51259,242.61392c0.34628,-0.44435 0.81723,-0.83182 1.2674,-1.00302c2.6871,-1.33455 5.40885,-2.57799 8.13061,-3.82143c0.54019,-0.20543 1.08038,-0.41085 1.57896,-0.18372c0.22849,0.32985 0.27699,0.72835 -0.0139,1.04735c-0.45711,0.69487 -1.14272,1.05989 -1.82839,1.42473c-2.54162,1.17514 -5.17333,2.38433 -7.71502,3.55929c-0.45016,0.17119 -0.90032,0.34238 -1.3989,0.11525c-0.31859,-0.29579 -0.49171,-0.75098 -0.02074,-1.13846z" data-paper-data="{&quot;index&quot;:null}" fill="#070909"/><path d="M393.19895,235.0854c0.52634,-0.51282 1.17737,-0.96878 1.89762,-1.24269c2.39621,-1.01555 4.7924,-2.0311 7.22326,-2.95554c0.45016,-0.17119 0.84493,-0.21703 1.32974,-0.29711c0.21464,0.02245 0.46393,0.13602 0.62327,0.28401c0.19391,0.23892 0.11766,0.58036 0.0069,0.83107c-0.45711,0.69487 -1.14279,1.05971 -1.86304,1.33362c-2.39621,1.01555 -4.7924,2.0311 -7.18868,3.04647c-0.81028,0.30815 -1.47509,0.45688 -2.31307,0.15024c-0.08308,-0.48944 -0.0069,-0.83107 0.284,-1.15007z" data-paper-data="{&quot;index&quot;:null}" fill="#050606"/><path d="M374.34098,237.25481c2.48624,-1.04979 4.88251,-2.06516 7.4034,-3.02384c0.45016,-0.17119 0.84486,-0.21721 1.32967,-0.2973c0.21471,0.02263 0.46401,0.1362 0.53324,0.31825c0.15926,0.14781 0.08308,0.48944 0.02769,0.61479c-0.3325,0.75156 -1.0181,1.11658 -1.73835,1.39049c-2.45165,1.14072 -4.95174,1.88312 -7.36875,3.11495c-0.6856,0.36502 -1.47515,0.45671 -2.34772,0.05913c0.42942,-1.30966 1.29515,-1.74298 2.16081,-2.17647z" data-paper-data="{&quot;index&quot;:null}" fill="#050606"/><path d="M359.92862,251.38513c-7.59017,-1.803 -15.15955,-3.82228 -22.67347,-5.96674c-3.03333,-0.93078 -6.12198,-1.73603 -9.12065,-2.57569c-0.12468,-0.05687 -0.37397,-0.17044 -0.53324,-0.31825c0.54019,-0.20543 1.13576,-0.53621 1.67596,-0.74164c3.08187,-1.38039 6.10829,-2.63561 9.06556,-4.0727c3.3727,-1.69957 7.07786,-2.79595 10.54059,-4.52976c0.7757,-0.39908 1.68986,-0.43407 2.52083,0.39607c0.54709,0.62564 1.45429,1.11433 2.18144,1.67149c4.18282,3.41146 8.33099,6.7318 12.42378,10.1775c0.95564,0.88701 2.05676,1.61462 2.84618,2.8775c-2.91559,1.0047 -5.33961,2.76003 -8.14437,3.51421c-0.3394,-0.07951 -0.53324,-0.31825 -0.7826,-0.432z" data-paper-data="{&quot;index&quot;:null}" fill="#00ff00"/><path d="M320.13517,254.32581c7.1954,1.84884 14.35622,3.60676 21.44078,5.70612c-0.18006,0.06848 -0.4155,0.2623 -0.59557,0.33078c-4.88251,2.06516 -9.67499,4.09609 -14.46746,6.12701c-0.54019,0.20543 -1.13576,0.53621 -1.6413,0.83275c-1.37127,0.72986 -2.77713,1.36879 -4.16226,1.79125c-4.81304,-3.17179 -16.71047,-12.50718 -18.79493,-14.73659c2.18851,-1.56168 4.68859,-2.30408 7.0848,-3.31962c3.71198,1.08944 7.36857,2.30422 11.13594,3.2683z" data-paper-data="{&quot;index&quot;:null}" fill="#00ff00"/><path d="M309.52565,250.54486c2.27152,-1.07243 4.45308,-2.11043 6.75932,-3.09156c3.83659,1.14613 7.76321,2.25802 11.68991,3.37009c5.40868,1.48626 10.7827,2.8814 16.19137,4.36766c1.6967,0.39682 3.33801,0.919 5.06935,1.40693c-2.57627,1.08403 -5.20799,2.29323 -7.78425,3.37726c-7.08463,-2.09954 -14.33541,-3.82304 -21.44085,-5.7063c-3.67733,-0.99832 -7.29928,-2.12199 -11.01126,-3.21143c0.14548,-0.15941 0.2909,-0.319 0.52641,-0.51265z" data-paper-data="{&quot;index&quot;:null}" fill="#87ff87"/><path d="M354.33275,254.55527c-4.60527,-1.27055 -9.26607,-2.4161 -13.81596,-3.812c-4.7646,-1.41853 -9.56386,-2.92818 -14.30773,-4.56318c-1.26734,-0.35173 -2.77012,-0.50964 -3.85044,-1.45352c1.69675,-0.95792 3.40735,-1.60845 5.24264,-2.20212c0.12461,0.05669 0.31853,0.29561 0.53324,0.31825c3.12329,0.89636 6.12198,1.73603 9.12065,2.57569c7.51392,2.14445 15.0833,4.16374 22.67347,5.96674c0.24936,0.11375 0.53324,0.31825 0.7826,0.432c-2.11233,1.22005 -4.37697,1.76861 -6.37847,2.73814z" data-paper-data="{&quot;index&quot;:null}" fill="#86ff86"/><path d="M349.21479,256.81426c-1.6967,-0.39682 -3.338,-0.91899 -5.06928,-1.40675c-5.40868,-1.48626 -10.78276,-2.88159 -16.19144,-4.36784c-3.92662,-1.11189 -7.76328,-2.2582 -11.68991,-3.37009c2.0015,-0.96953 4.03757,-1.84812 6.03907,-2.81765c1.17035,0.90965 2.54845,1.01068 3.85044,1.45353c4.7438,1.63482 9.54305,3.14446 14.30766,4.56299c4.63999,1.36184 9.21069,2.54145 13.81603,3.81218c-1.60672,0.92369 -3.26194,1.44886 -5.06257,2.13363z" data-paper-data="{&quot;index&quot;:null}" fill="#01ff01"/><path d="M243.32495,269.67636c-0.45711,0.69487 -1.21201,0.87767 -1.91146,0.93529c-1.1565,-0.60225 -2.09837,-1.18205 -3.13019,-1.72743c-0.15933,-0.14799 -0.22856,-0.33004 -0.42247,-0.56895c0.56099,-0.42171 1.03195,-0.80918 1.68297,-1.26514c1.23958,1.09169 2.72163,1.46606 3.78115,2.62623z" data-paper-data="{&quot;index&quot;:null}" fill="#589ca0"/><path d="M234.80677,267.60095c-0.80333,-0.21553 -1.46125,-0.59065 -2.16759,-1.3641c1.22586,-0.57027 2.23694,-1.16335 3.28274,-1.66515c0.60247,0.50029 1.28118,0.65913 1.6274,1.56953c-1.01115,0.59291 -1.87681,1.0264 -2.74255,1.45972z" data-paper-data="{&quot;index&quot;:null}" fill="#5ba3a7"/><path d="M230.11847,263.13129c1.0458,-0.50179 1.95299,-1.36804 3.11646,0.06547c-2.14698,1.12894 -2.14697,1.12894 -3.11646,-0.06547z" data-paper-data="{&quot;index&quot;:null}" fill="#56999d"/><path d="M288.41653,261.69872c0.62327,0.28401 0.741,0.86455 0.46395,1.49095c-0.5333,1.0365 -3.01258,1.56262 -3.88521,1.16486c-0.49859,-0.22713 -0.81023,-1.0466 -0.37392,-1.52519c0.43631,-0.47859 0.9973,-0.9003 1.62752,-1.13997c0.90031,-0.34238 1.50973,-0.36577 2.16765,0.00935z" data-paper-data="{&quot;index&quot;:null}" fill="#01f4f4"/><path d="M293.25715,268.19479c0.83101,-0.52461 1.74518,-0.5596 2.61781,-0.16185c0.7133,0.24977 0.93484,1.1033 0.44315,1.70724c-0.74801,1.01387 -1.86303,1.33361 -3.02649,1.25504c-0.94874,-0.05594 -1.10802,-0.20375 -1.3919,-1.76317c0.41551,-0.2623 0.85182,-0.74089 1.35743,-1.03725z" data-paper-data="{&quot;index&quot;:null}" fill="#35a76d"/><path d="M258.40825,275.19503c0.83791,0.30646 0.96949,1.19441 0.3877,1.8324c-0.38086,0.35342 -0.79644,0.61554 -1.33663,0.82097c-1.02493,0.28569 -2.20223,-0.10028 -2.38919,-0.86288c-0.11773,-0.58055 0.66486,-1.50348 1.6552,-1.88011c0.45016,-0.17119 1.05958,-0.19457 1.68292,0.08961z" data-paper-data="{&quot;index&quot;:null}" fill="#da6694"/><path d="M273.33265,271.08247c-0.81028,0.30815 -1.72445,0.34314 -2.63166,-0.14555c-0.58862,-0.19289 -0.63016,-1.11508 -0.06917,-1.53679c1.17737,-0.96878 2.52784,-1.48235 4.10675,-0.31133c-0.01391,1.04735 -0.47102,1.74222 -1.40591,1.99368z" data-paper-data="{&quot;index&quot;:null}" fill="#01f001"/><path d="M275.1671,289.45528c-0.72025,0.27391 -1.4197,0.33154 -2.04297,0.04753c-0.24936,-0.11375 -0.40862,-0.26155 -0.56789,-0.40936c-0.19391,-0.23892 -0.20776,-0.54631 -0.00689,-0.83108c0.54714,-0.72911 1.42666,-0.8552 2.18156,-1.038c0.75483,-0.18298 1.50278,0.15791 1.95983,0.81778c-0.2632,0.93379 -0.98345,1.20769 -1.52364,1.41312z" data-paper-data="{&quot;index&quot;:null}" fill="#008bda"/><path d="M267.63254,282.10793c-0.30473,1.36653 -0.45021,1.52594 -1.53059,1.9368c-1.26044,0.47934 -2.31306,0.15024 -3.24797,-0.95324c1.31595,-1.95926 2.46556,-2.18807 4.77857,-0.98357z" data-paper-data="{&quot;index&quot;:null}" fill="#ebe502"/><path d="M303.31252,274.58328c0.42936,0.04509 0.85878,0.09036 1.06647,0.63649c0.08308,0.48944 -0.08314,0.8653 -0.464,1.21872c-0.52641,0.51265 -1.28125,0.69562 -2.07073,0.78748c-0.66487,0.14856 -1.30894,0.08084 -1.92526,-0.72685c0.87957,-1.48085 1.80069,-2.03952 3.39351,-1.91586z" data-paper-data="{&quot;index&quot;:null}" fill="#f30001"/><path d="M286.85058,281.15631c0.6856,-0.36502 1.38512,-0.42247 2.18845,-0.20694c0.67865,0.15865 0.86561,0.92125 0.33927,1.43408c-0.52634,0.51282 -1.28125,0.69562 -2.07073,0.78748c-0.57484,0.11432 -1.32967,0.29729 -1.82138,-0.4537c0.64413,-1.28702 0.69952,-1.41237 1.36439,-1.56093z" data-paper-data="{&quot;index&quot;:null}" fill="#de93ad"/><path d="M280.791,277.41651c-0.81028,0.30815 -1.57897,0.18373 -2.41695,-0.12291c-0.65792,-0.37512 -0.77558,-0.95549 -0.37392,-1.52519c0.54714,-0.72911 1.32278,-1.12836 2.14691,-1.12912c0.91416,-0.03499 1.77294,0.05538 2.49314,1.13621c-0.76881,1.23015 -0.91422,1.38973 -1.84919,1.64101z" data-paper-data="{&quot;index&quot;:null}" fill="#865492"/></g><g stroke="#000000"><path d="M313.80636,231.08811c28.15748,-17.84588 37.1495,-14.35322 41.48103,-7.51887c4.33154,6.83435 -14.98323,26.84161 -43.14072,44.68748c-28.15749,17.84586 -16.83583,-53.47951 -21.16736,-60.31386c0.10479,-7.09347 6.21992,-4.81247 10.7135,1.63453c5.54164,7.95066 9.70677,23.03611 12.11356,21.51072z" fill="#216aff" stroke-width="2"/><path d="M328.48926,207.4711c12.0859,-7.6599 28.25284,-3.81978 36.10987,8.57716c7.85702,12.39694 4.42885,28.65622 -7.65705,36.31613c-12.0859,7.6599 -28.25285,3.81976 -36.10988,-8.57716c-7.85702,-12.39694 -4.42884,-28.65622 7.65706,-36.31612z" fill="#faddbf" stroke-width="2"/><path d="M339.90487,247.2823c12.0859,-7.6599 15.90152,-43.50564 23.75854,-31.10869c7.85702,12.39694 4.42885,28.65622 -7.65706,36.31612c-12.0859,7.6599 -28.1874,2.45248 -16.10148,-5.20742z" fill="#ef8b89" stroke-width="0"/></g></g></g></svg>