<svg version="1.1" xmlns="http://www.w3.org/2000/svg" xmlns:xlink="http://www.w3.org/1999/xlink" width="224.22865" height="326.43894" viewBox="0,0,224.22865,326.43894"><g transform="translate(-228.97829,-34.54847)"><g data-paper-data="{&quot;isPaintingLayer&quot;:true}" fill-rule="nonzero" stroke-linecap="butt" stroke-linejoin="miter" stroke-miterlimit="10" stroke-dasharray="" stroke-dashoffset="0" style="mix-blend-mode: normal"><g data-paper-data="{&quot;index&quot;:null}" stroke="#000000"><path d="M365.85955,219.20912c0.4549,-2.81292 -15.05224,-0.70394 -24.54237,-2.6687c-7.69531,-1.59318 -12.19919,-6.31681 -5.7196,-9.20527c7.9876,1.29174 69.09878,-37.19086 63.77682,-4.28197c-5.32197,32.9089 -16.11152,58.53968 -24.09912,57.24794c-7.9876,-1.29174 -14.73772,-8.18311 -9.41575,-41.092z" fill="#216aff" stroke-width="2"/><path d="M380.29901,220.66921c14.48885,2.34312 24.38258,15.69343 22.09825,29.81876c-2.28433,14.12533 -15.88169,23.67671 -30.37054,21.33359c-14.48885,-2.34312 -24.38257,-15.69343 -22.09824,-29.81876c2.28433,-14.12533 15.88167,-23.67671 30.37052,-21.33359z" fill="#faddbf" stroke-width="2"/><path d="M402.14413,249.57841c-2.28432,14.12534 -15.88167,23.67671 -30.37052,21.33359c-14.48885,-2.34312 16.96133,-19.96022 19.24565,-34.08555c2.28432,-14.12535 13.4092,-1.37337 11.12487,12.75195z" fill="#ef8b89" stroke-width="0"/></g><g stroke="#000000"><path d="M327.76518,340.83535v-95.29492h29.49199v95.29492z" fill="#73fffc" stroke-width="2"/><path d="M327.43943,340.21742l1.32626,-93.78573c0,0 5.20288,68.11227 6.3799,77.52842c0.2602,2.08162 2.52228,2.78987 2.52228,2.78987l18.60659,13.13896z" fill="#59a9e6" stroke-width="0"/></g><g stroke="#000000"><path d="M288.4238,338.4128v-95.29492h29.49199v95.29492z" fill="#73fffc" stroke-width="2"/><path d="M288.09805,337.7949l1.32626,-93.78573c0,0 5.20288,68.11227 6.3799,77.52842c0.2602,2.08162 2.52228,2.78987 2.52228,2.78987l18.60659,13.13896z" fill="#59a9e6" stroke-width="0"/></g><g stroke="#000000"><path d="M355.22917,235.69587c0,13.80271 10.04743,36.74388 4.95001,46.45977c-6.2338,11.88187 -28.61241,9.09579 -38.9397,9.09579c-13.66287,0 -32.94407,4.17018 -38.34426,-14.83216c-2.01935,-7.10576 4.35457,-32.37264 4.35457,-40.7234c0,-30.68249 15.2177,-55.55556 33.98969,-55.55556c18.77199,0 33.98969,24.87307 33.98969,55.55556z" fill="#216aff" stroke-width="2"/><path d="M303.96554,251.27245c0,13.80271 62.04198,20.54886 56.94455,30.26474c-6.2338,11.88186 -28.61241,9.09579 -38.9397,9.09579c-13.66287,0 -32.94406,4.17018 -38.34425,-14.83215c-2.01936,-7.10576 4.35457,-32.37265 4.35457,-40.7234c0,-9.45244 3.34855,-28.59801 5.51953,-29.96813c5.94391,-16.76415 10.4653,25.13995 10.4653,46.16315z" fill="#3236f4" stroke-width="0"/></g><g stroke="#000000"><g><path d="M254.0404,123.00513c0,-46.79079 37.93143,-84.72222 84.72222,-84.72222c46.79079,0 84.72222,37.93143 84.72222,84.72222c0,46.79079 -37.93143,84.72222 -84.72222,84.72222c-46.79079,0 -84.72222,-37.93143 -84.72222,-84.72222z" fill="#faddbf" stroke-width="2"/><path d="M254.27117,122.13562c0,-15.05428 8.65728,-41.01117 13.16632,-44.22534c0.51494,-0.36707 5.78642,-8.91029 13.30693,-15.62682c9.34748,-8.34819 21.31473,-15.15641 21.9255,-14.95935c7.96872,2.57101 -17.52654,64.85492 -16.28763,90.14485c0.00295,0.06031 4.40745,19.70158 6.02593,20.14049c2.8855,4.74247 9.11092,19.15337 19.99223,26.29351c20.2786,13.30648 48.94186,19.68013 47.45857,20.18586c-2.37273,0.80898 -14.80271,2.76903 -20.86562,2.76903c-46.79079,0 -84.72222,-37.93143 -84.72222,-84.72222z" fill="#ef8b89" stroke-width="0"/><path d="M422.9614,122.54693c0,11.62434 -1.57787,15.64071 -2.12992,13.78899c-0.5632,-1.8891 -0.18668,-9.81362 -9.04258,-14.64925c-2.14596,-1.17177 -10.20624,6.27605 -12.93385,5.04791c-1.71325,-0.77142 -8.65215,-10.17554 -10.56583,-10.85157c-1.33801,-0.47267 -12.45011,8.37757 -13.84965,7.92692c-3.49052,-1.12394 -11.98851,-11.37355 -15.73972,-12.03156c-2.06568,-0.36235 -9.2828,11.84977 -11.39182,11.59592c-2.71985,-0.32737 -10.06862,-12.06843 -12.80601,-12.06843c-7.27985,0 -7.47978,7.01079 -12.7176,13.01701c-3.40366,3.90299 -13.98842,-13.05188 -17.11223,-8.61668c-3.87941,5.50799 -7.71992,10.81771 -11.96095,14.41734c-3.32724,2.82405 -13.36416,-10.09687 -16.24015,-7.47909c-13.88607,12.63935 -22.22353,20.64372 -22.22353,2.47189c0,-36.54015 43.28764,-8.21349 85.0704,-29.73523c39.99404,-20.60039 83.64345,-9.37431 83.64345,27.16584z" fill="#ef8b89" stroke-width="0"/></g><path d="M424.49527,114.23604c0,23.48334 6.5317,8.71531 -11.46679,-0.86026c-2.20249,-1.17177 -10.47508,6.27605 -13.27454,5.04791c-1.75838,-0.77142 -8.88005,-10.17554 -10.84414,-10.85157c-1.37326,-0.47267 -12.77806,8.37757 -14.21446,7.92692c-3.58246,-1.12394 -12.30429,-11.37355 -16.15431,-12.03156c-2.12009,-0.36235 -9.52731,11.84977 -11.69189,11.59592c-2.79149,-0.32737 -10.33384,-12.06843 -13.14333,-12.06843c-7.47161,0 -7.6768,7.01079 -13.05259,13.01701c-3.49332,3.90299 -14.35688,-13.05188 -17.56298,-8.61668c-3.98159,5.50799 -7.92327,10.81771 -12.276,14.41734c-3.41488,2.82405 -13.71618,-10.09687 -16.66792,-7.47909c-14.25184,12.63935 -22.80892,20.64372 -22.80892,2.47189c0,-36.54015 39.86264,-81.25697 85.78948,-81.25697c45.92683,0 87.36842,42.14743 87.36842,78.68758z" fill="#724e36" stroke-width="2"/><path d="M424.24754,113.07325c0,23.48334 6.5317,8.71531 -11.46679,-0.86026c-2.20249,-1.17177 -10.47508,6.27605 -13.27454,5.04791c-1.75838,-0.77142 -8.88005,-10.17554 -10.84415,-10.85157c-1.37326,-0.47267 -12.77806,8.37757 -14.21446,7.92692c-3.58246,-1.12394 -12.30429,-11.37355 -16.15431,-12.03156c-2.12009,-0.36235 -9.52731,11.84977 -11.69189,11.59592c-2.79149,-0.32737 -10.33384,-12.06843 -13.14333,-12.06843c-7.47161,0 -7.6768,7.01079 -13.05259,13.01701c-3.49332,3.90299 -14.35688,-13.05188 -17.56298,-8.61668c-3.98159,5.50799 -7.92327,10.81771 -12.27601,14.41734c-3.41488,2.82405 -13.71618,-10.09687 -16.66792,-7.47909c-14.25184,12.63935 -22.80892,20.64372 -22.80892,2.47189c0,-36.54015 44.42786,-8.21349 87.31121,-29.73523c41.04751,-20.60039 85.84668,-9.37431 85.84668,27.16584z" fill="#623728" stroke-width="0"/></g><g stroke="#000000"><path d="M357.59774,145.90749c0,28.55894 -13.1683,43.28947 -29.73684,43.28947c-16.56854,0 -30.26316,-14.73054 -30.26316,-43.28947c0,-28.55894 13.43146,-51.71053 30,-51.71053c16.56854,0 30,23.15159 30,51.71053z" fill="#f0f0f0" stroke-width="2"/><path d="M310.84201,126.32509c-4.30259,28.23297 34.22345,62.0416 17.65491,62.0416c-16.56854,0 -30.26316,-14.73054 -30.26316,-43.28947c0,-28.55894 18.82852,-59.56866 12.60825,-18.75213z" fill="#9a99ff" stroke-width="0"/></g><path d="M353.70331,154.14074c0,15.82221 -4.68891,28.64865 -10.47297,28.64865c-5.78406,0 -10.47297,-12.82644 -10.47297,-28.64865c0,-15.82221 4.68891,-28.64865 10.47297,-28.64865c5.78406,0 10.47297,12.82644 10.47297,28.64865z" fill="#000000" stroke="none" stroke-width="0"/><g stroke="#000000"><path d="M352.58844,115.87281c4.45946,10.22981 -9.89785,14.12162 -25.60811,14.12162c-15.71026,0 -27.17995,-4.64154 -22.63514,-14.25676c4.32432,-9.14873 6.78974,-21.41892 22.5,-21.41892c15.71026,0 21.49332,11.80491 25.74324,21.55405z" fill="#a100fe" stroke-width="2"/><path d="M351.66417,115.51856c4.3074,10.22981 -9.56036,14.12162 -24.73494,14.12162c-15.17458,0 -26.25318,-4.64154 -21.86334,-14.25676c4.17687,-9.14873 6.55823,0.96203 21.73281,0.96203c15.17458,0 20.76045,-10.57604 24.86546,-0.8269z" fill="#99008e" stroke-width="0"/></g><g data-paper-data="{&quot;index&quot;:null}" stroke="#000000"><path d="M391.32442,92.71833c16.56854,0 30,23.15159 30,51.71053c0,28.55893 -13.69462,43.28947 -30.26316,43.28947c-16.56854,0 -29.73684,-14.73053 -29.73684,-43.28947c0,-28.55894 13.43146,-51.71053 30,-51.71053z" fill="#f0f0f0" stroke-width="2"/><path d="M420.6884,143.59859c0,28.55893 -13.69462,43.28947 -30.26316,43.28947c-16.56854,0 21.9575,-33.80863 17.65491,-62.0416c-6.22027,-40.81653 12.60825,-9.80681 12.60825,18.75213z" fill="#9a99ff" stroke-width="0"/></g><path d="M407.05204,125.32065c5.78406,0 10.47297,12.82644 10.47297,28.64865c0,15.82221 -4.68891,28.64865 -10.47297,28.64865c-5.78406,0 -10.47297,-12.82644 -10.47297,-28.64865c0,-15.82221 4.68891,-28.64865 10.47297,-28.64865z" data-paper-data="{&quot;index&quot;:null}" fill="#000000" stroke="none" stroke-width="0"/><g data-paper-data="{&quot;index&quot;:null}" stroke="#000000"><path d="M366.33373,114.39415c4.24992,-9.74914 10.03298,-21.55405 25.74324,-21.55405c15.71026,0 18.17568,12.27019 22.5,21.41892c4.54481,9.61522 -6.92488,14.25676 -22.63514,14.25676c-15.71026,0 -30.06757,-3.89181 -25.60811,-14.12162z" fill="#a100fe" stroke-width="2"/><path d="M367.258,114.03991c4.10501,-9.74914 9.69088,0.8269 24.86546,0.8269c15.17458,0 17.55594,-10.11076 21.73281,-0.96203c4.38984,9.61522 -6.68876,14.25676 -21.86334,14.25676c-15.17458,0 -29.04234,-3.89181 -24.73494,-14.12162z" fill="#99008e" stroke-width="0"/></g><path d="M391.63632,338.87004c0,11.6628 -14.51982,21.11737 -32.43092,21.11737c-17.9111,0 -32.43092,-9.45457 -32.43092,-21.11737c0,-2.33142 -0.03339,-13.76009 1.08979,-15.13837c4.49546,-5.51647 17.81784,5.26144 32.14847,5.26144c17.9111,0 31.62358,-1.78588 31.62358,9.87692z" fill="#000082" stroke="#000000" stroke-width="2"/><path d="M389.75004,336.13774c0,6.30841 -13.89058,10.1901 -31.80169,10.1901c-17.9111,0 -30.16566,-2.95748 -30.16566,-9.26589c0,-1.26107 -0.03338,-12.52602 1.0898,-13.27153c4.49546,-2.98386 15.55258,5.7726 29.88321,5.7726c17.9111,0 30.99434,0.26631 30.99434,6.57472z" fill="#2e0048" stroke="#000000" stroke-width="0"/><path d="M348.64938,338.22521c0,11.6628 -14.51982,21.11737 -32.43092,21.11737c-17.9111,0 -32.43092,-9.45457 -32.43092,-21.11737c0,-2.33142 -0.03339,-13.76009 1.08979,-15.13837c4.49546,-5.51647 17.81784,5.26144 32.14847,5.26144c17.9111,0 31.62358,-1.78588 31.62358,9.87692z" fill="#000082" stroke="#000000" stroke-width="2"/><path d="M346.7631,335.49289c0,6.30841 -13.89058,10.1901 -31.80169,10.1901c-17.9111,0 -30.16566,-2.95748 -30.16566,-9.26589c0,-1.26107 -0.03338,-12.52602 1.0898,-13.27153c4.49546,-2.98386 15.55258,5.7726 29.88321,5.7726c17.9111,0 30.99434,0.26631 30.99434,6.57472z" fill="#2e0048" stroke="#000000" stroke-width="0"/><path d="M300.35947,175.93417c0.88389,0.88388 0,1.76777 0,1.76777l-0.10679,0.01608c-1.2788,2.55528 -2.42369,5.35669 -5.18362,6.70671c-2.86133,1.39962 -6.70807,0.39213 -7.39279,-2.95132c-0.91815,-4.48325 3.38672,-8.92927 5.43491,-12.4451c0,0 0.62983,-1.07972 1.70956,-0.44988c1.07972,0.62984 0.44989,1.70956 0.44989,1.70956c-1.73146,2.96449 -5.71652,6.9665 -5.13448,10.73935c0.26012,1.68612 2.58099,1.80161 3.85848,1.14005c2.1741,-1.12589 3.00686,-3.53543 4.02197,-5.56741l0.5751,-0.66581c0,0 0.88388,-0.88388 1.76776,0z" fill="#000000" stroke="none" stroke-width="0.5"/><g stroke="none" stroke-width="1"><path d="M444.67921,323.19937c-2.88177,-0.23456 -5.84807,-0.57698 -8.74101,-0.71489c-7.02983,-0.41922 -14.15531,-0.84969 -21.18512,-1.2691c-5.58335,-0.35037 -11.26237,-0.71177 -16.84572,-1.06213c-9.43315,-0.59874 -18.8663,-1.19747 -28.31062,-1.69937c-7.41255,-0.4636 -14.74059,-0.81931 -22.16433,-1.18589c-6.2643,-0.33104 -12.61314,-0.76977 -18.87745,-1.10081c-9.91158,-0.65397 -19.83435,-1.21109 -29.74592,-1.86506c-8.17806,-0.55178 -16.44064,-1.21144 -24.60749,-1.86024c-2.69042,-0.21246 -5.46532,-0.53279 -8.25142,-0.75631c-0.95686,-0.11046 -1.68885,-0.48914 -2.26929,-1.34058c-0.25356,-0.32346 -0.4114,-0.63586 -0.66495,-0.95931c-2.00606,-2.78091 -3.71389,-5.6253 -5.52855,-8.38431c-4.76791,-7.41396 -9.64269,-14.74213 -14.41059,-22.15628c-1.87685,-3.06017 -3.86058,-6.03455 -5.64174,-9.08367c-2.50832,-4.30961 -5.02778,-8.52255 -7.64294,-12.74656c-0.73832,-1.16363 -1.20073,-2.19769 -0.37455,-3.47491c0.23607,-0.36506 0.19623,-0.8599 0.34777,-1.33265c0.99227,-4.39572 2.2716,-8.75852 3.63545,-13.01343c1.06075,-3.30923 1.14529,-3.20154 4.64585,-3.28767c4.86252,-0.12496 9.69153,0.04039 14.52055,0.20555c7.53059,0.28098 14.96547,0.5511 22.40037,0.82102c7.43491,0.26992 14.96548,0.55109 22.40039,0.82102c4.73334,0.15412 9.55116,0.4163 14.28451,0.57042c2.12744,0.04954 4.1592,0.08802 6.27548,0.23421c3.46705,0.20418 6.92297,0.50501 10.41234,0.51572c4.64882,0.04642 9.1796,0.27529 13.81726,0.41835c6.08411,0.21212 12.26391,0.43528 18.43253,0.75529c7.13669,0.33344 14.27335,0.66705 21.41001,1.00068c4.43509,0.21782 8.95472,0.5435 13.38982,0.76132c4.53077,0.22905 9.08391,0.26424 13.61468,0.49328c5.10491,0.29514 10.30551,0.60131 15.41042,0.89644c1.05256,0.12151 2.1051,0.24301 3.15766,0.36452c1.71118,0.29567 2.8881,1.01971 3.54823,2.86081c1.22453,3.67136 2.73613,7.37566 4.15205,11.06891c1.17353,3.27316 2.64531,6.48261 3.81884,9.75578c1.90701,5.31879 3.72947,10.52989 5.74334,15.76289c2.74731,7.27883 5.2921,14.6322 7.94373,21.89997c0.36674,1.02282 0.55325,1.9269 0.33469,2.98027c-0.51532,2.78401 -1.01945,5.4712 -1.53476,8.25522c-0.08936,0.7741 -0.27441,1.53717 -0.55516,2.28917c-0.57264,1.60067 -0.68919,3.45024 -2.10067,4.75802c-1.55335,0.01693 -2.9998,-0.05212 -4.24373,-0.19573zM445.58063,317.9106c-2.48112,-5.38507 -4.664,-10.83383 -6.84691,-16.28241c-1.75397,-4.12459 -3.30542,-8.32373 -4.95253,-12.53411c-2.0872,-5.43772 -4.0899,-10.76755 -6.18827,-16.10845c-1.21822,-2.88601 -2.53214,-5.78307 -3.75034,-8.66927c-1.59316,-0.47809 -8.22906,-0.94997 -11.05982,-0.78652c-0.22489,0.26822 -0.16271,0.56958 -0.00486,0.88199c1.84966,4.13564 3.19856,8.40952 4.84569,12.6197c0.74462,1.94898 1.89435,3.74849 2.43644,5.77222c0.12436,0.60252 0.34439,1.21629 0.46874,1.81901c0.1977,0.80724 -0.15637,1.35453 -0.87087,1.66436c-0.51195,0.23508 -1.1084,0.36228 -1.77821,0.28496c-5.22293,-0.1127 -10.44585,-0.2254 -15.64646,-0.53158c-6.45568,-0.35314 -12.82685,-0.59839 -19.16454,-1.13376c-4.31705,-0.40043 -8.57196,-0.49932 -12.91138,-0.70608c-4.91351,-0.27323 -9.82706,-0.54628 -14.72943,-0.91596c-5.47648,-0.43615 -10.85727,-0.86126 -16.34494,-1.20058c-3.26453,-0.27874 -6.64705,-0.37523 -9.92276,-0.55713c-4.32823,-0.30359 -8.57196,-0.49932 -12.9002,-0.80291c-6.44452,-0.44978 -12.88905,-0.89956 -19.33355,-1.34954c-5.96609,-0.39455 -12.00551,-0.99363 -17.97162,-1.38817c-4.33941,-0.20676 -8.77452,-0.42458 -13.11391,-0.63153c-0.39393,0.05265 -0.77668,0.00848 -1.15942,-0.03572c-1.64902,0.00569 -2.62337,-0.79308 -3.53072,-2.17249c-3.49384,-5.01173 -6.56024,-10.36643 -9.85154,-15.45272c-2.14156,-3.28698 -2.14156,-3.28698 -5.91803,-3.33063c-4.06352,-0.07698 -8.12705,-0.15376 -12.20173,-0.13392c-0.38275,-0.04419 -0.77667,0.00846 -1.11959,0.45913c0.96952,1.68077 1.92787,3.45817 2.99307,5.14999c5.45037,9.06158 11.11445,17.95178 16.99223,26.67059c4.04077,6.15348 8.18839,12.22117 12.01546,18.54603c0.56929,0.94808 1.24542,1.81055 1.82587,2.66199c2.07159,0.53332 4.03,0.3673 6.0506,0.50243c5.76354,0.46929 11.53824,0.84174 17.31297,1.21421c5.48766,0.33932 10.86845,0.76442 16.35611,1.10374c4.71098,0.34778 9.31513,0.78117 14.03729,1.03211c8.67882,0.41372 17.35764,0.82725 26.02529,1.33762c4.23255,0.29255 8.4651,0.58509 12.70882,0.78082c6.83845,0.39713 13.78374,0.70866 20.71786,1.11703c3.94551,0.25922 7.78413,0.60443 11.7408,0.767c9.34864,0.49084 18.60159,0.97066 27.9167,1.75201c6.62474,0.56852 13.16493,1.02954 19.80082,1.5014c2.69042,0.21246 5.39198,0.32828 8.2849,0.46619c-0.14185,-1.29104 -0.81799,-2.15351 -1.25804,-3.38105zM288.7231,275.68217c-1.61215,-2.83336 -3.13976,-5.55923 -4.76306,-8.29595c-0.50711,-0.64671 -1.00304,-1.39045 -0.49742,-2.4105c1.2998,-0.34038 2.62824,-0.0889 3.87217,0.0547c0.57412,0.06628 0.91217,0.49761 1.25025,0.92875c0.81165,1.36835 1.71899,2.74777 2.53065,4.11613c0.88501,1.57289 1.74766,3.33943 2.63267,4.91232c0.49593,0.74355 0.99185,1.48729 1.48779,2.23084c0.73198,0.37869 1.40178,0.45601 2.1051,0.24301c0.06703,-0.58063 -0.25987,-1.1086 -0.50226,-1.5287c-1.62331,-2.73672 -3.16208,-5.36575 -4.68971,-8.09142c-0.40025,-0.7325 -0.90735,-1.3794 -0.49741,-2.41068c1.31094,-0.43684 2.7239,-0.07767 4.06351,0.07697c0.6698,0.07732 0.90102,0.59425 1.23908,1.02559c0.90735,1.37941 1.81468,2.75881 2.604,4.32065c1.11622,2.08982 2.22125,4.27647 3.54,6.29174c0.59162,0.75459 1.23907,1.02559 2.14495,0.73785c0.34292,-0.45066 -0.00632,-0.78516 -0.16418,-1.09756c-1.51647,-2.82231 -3.11741,-5.7527 -4.63388,-8.57501c-0.40023,-0.73269 -0.89617,-1.47624 -0.6776,-2.52962c1.44013,-0.7161 2.85311,-0.35694 4.36175,0.01328c0.56294,0.16311 0.78299,0.77669 1.12105,1.20802c1.41444,2.02631 2.43496,4.10508 3.54,6.29174c0.86267,1.76637 1.821,3.54395 2.76818,5.41821c2.21197,0.15724 4.33942,0.20676 6.45568,0.35313c0.43862,-0.43979 0.11172,-0.96777 -0.04616,-1.27999c-0.95834,-1.77761 -2.02354,-3.46941 -2.9819,-5.24682c-0.72712,-1.26067 -1.45427,-2.52114 -2.1814,-3.78181c-0.3269,-0.52798 -0.54695,-1.14155 -0.2662,-1.89357c1.33329,-0.63051 2.74625,-0.27134 4.17038,-0.00881c0.47843,0.05523 0.70964,0.57217 0.96318,0.89562c1.00304,1.39045 1.89921,2.86651 2.69969,4.33169c1.26289,2.49906 2.43011,4.98706 4.20497,7.25084c0.65863,0.17416 1.22157,0.33727 1.93607,0.02743c0.06701,-0.58043 -0.17535,-1.00072 -0.40657,-1.51765c-1.04286,-1.88529 -2.09689,-3.67393 -3.15093,-5.46239c-0.65379,-1.05596 -1.29642,-2.20875 -1.85453,-3.25365c-0.24238,-0.42029 -0.40022,-0.73269 -0.45124,-1.13069c-0.07334,-0.20453 -0.03984,-0.49483 -0.00632,-0.78515c1.44016,-0.7163 2.93763,-0.24925 4.46861,-0.07251c1.47029,1.54252 2.52433,3.33098 3.47148,5.20541c1.26291,2.49886 2.52582,4.99791 4.20498,7.25084c1.89139,0.41441 6.03942,0.59927 7.71079,0.39991c0.23604,-0.36486 -0.01751,-0.68833 -0.17536,-1.00073c-1.21191,-2.10087 -2.50831,-4.30961 -3.72019,-6.41065c-0.48476,-0.84038 -0.96951,-1.68078 -1.44312,-2.61779c-0.3269,-0.52798 -0.46242,-1.03386 -0.19284,-1.68923c1.33329,-0.63051 2.74623,-0.27114 4.17038,-0.0088c0.47843,0.05523 0.70964,0.57216 0.9632,0.89561c0.9185,1.28277 1.73016,2.65112 2.53065,4.11613c0.95834,1.77761 1.83216,3.44731 2.80169,5.12789c0.2312,0.51712 0.65377,1.05615 0.98068,1.58413c0.56929,0.94808 1.44162,0.95084 2.46552,0.48068c-0.73346,-2.04563 -1.97887,-3.85637 -3.02173,-5.74165c-1.04286,-1.88529 -2.39513,-3.61024 -2.91486,-5.82745c1.6427,-0.79085 3.05565,-0.43167 4.56429,-0.06126c0.37159,0.14083 0.69848,0.66881 0.95203,0.99225c0.9185,1.28277 1.73015,2.65112 2.53065,4.11612c0.87383,1.66972 1.75882,3.2426 2.63267,4.91232c0.3269,0.52798 0.65376,1.05615 0.98068,1.58413c0.4736,0.93702 1.22792,1.12223 2.13379,0.8345c0.34292,-0.45066 0.19621,-0.85971 -0.04616,-1.27999c-1.04286,-1.88529 -2.09691,-3.67374 -3.15093,-5.46239c-0.72715,-1.26049 -1.46545,-2.42432 -2.0969,-3.67375c-0.41141,-0.63586 -0.41141,-0.63586 -0.15933,-1.97953c1.19291,-0.2544 2.41449,0.08266 3.66961,0.12944c0.6698,0.07732 1.10355,0.5197 1.43045,1.04769c1.00304,1.39045 1.8992,2.86669 2.69969,4.33169c1.26289,2.49906 2.5258,4.9981 4.28946,7.35892c2.46552,0.48069 5.09376,0.39179 7.60394,0.4855c0.18506,-0.76305 -0.15302,-1.1942 -0.38423,-1.71112c-1.04284,-1.88549 -2.0969,-3.67393 -3.15091,-5.46258c-0.65379,-1.05596 -1.29641,-2.20874 -1.85452,-3.25365c-0.23122,-0.51693 -0.54694,-1.14174 -0.2662,-1.89375c1.33328,-0.63032 2.74623,-0.27114 4.17038,-0.0088c0.47843,0.05523 0.70964,0.57216 0.9632,0.89561c1.00304,1.39045 1.91036,2.76986 2.69966,4.33188c1.27407,2.40221 2.43014,4.98687 4.20497,7.25085c0.56294,0.16311 1.21041,0.43391 1.92489,0.12428c0.06703,-0.58063 -0.17536,-1.00071 -0.40655,-1.51785c-1.04286,-1.88529 -2.0969,-3.67375 -3.15092,-5.4624c-0.65379,-1.05596 -1.29641,-2.20873 -1.85452,-3.25364c-0.3269,-0.52798 -0.54694,-1.14174 -0.36188,-1.90481c1.44013,-0.7161 2.85311,-0.35693 4.36176,0.01329c0.37158,0.14102 0.69846,0.66899 0.95202,0.99244c1.1099,1.30466 1.91037,2.76987 2.69969,4.33169c1.26289,2.49906 2.5258,4.9981 4.28948,7.35873c1.72236,0.19883 3.55156,0.31205 5.38079,0.4251c0.37643,-0.74096 0.04952,-1.26894 -0.27737,-1.79692c-1.05404,-1.78845 -2.11924,-3.48026 -3.07758,-5.25787c-0.72715,-1.26049 -1.46545,-2.42431 -2.0969,-3.67375c-0.2312,-0.51712 -0.54693,-1.14174 -0.07482,-1.87166c1.29978,-0.34019 2.71273,0.01898 4.05236,0.17362c0.57412,0.06628 0.90101,0.59425 1.14339,1.01454c0.90735,1.37941 1.719,2.74776 2.51949,4.21278c1.45427,2.52114 2.61031,5.10599 4.37399,7.46662c0.55179,0.25975 1.13707,0.22939 1.72236,0.19883c0.11802,-0.18243 0.23605,-0.36487 0.24722,-0.46171c-0.02866,-0.59167 -0.36674,-1.02282 -0.59795,-1.53974c-1.62331,-2.73672 -3.16208,-5.36574 -4.68971,-8.09142c-0.40025,-0.7325 -0.90735,-1.37941 -0.4974,-2.41069c1.31094,-0.43684 2.7239,-0.07766 4.06352,0.07698c0.57412,0.06628 0.90101,0.59426 1.1434,1.01436c0.90735,1.37941 1.71898,2.74795 2.51946,4.21296c1.46545,2.42431 2.61033,5.10579 4.38517,7.36978c0.45607,0.2489 1.03019,0.31517 1.54215,0.08009c0.35409,-0.54749 0.13405,-1.16125 -0.19284,-1.68923c-0.96952,-1.68077 -1.93905,-3.36134 -2.90856,-5.0421c-0.7383,-1.16383 -1.36974,-2.41346 -2.10806,-3.5771c-0.41141,-0.63586 -0.63144,-1.24963 -0.33954,-2.09828c1.22645,-0.5449 2.63939,-0.18555 3.97901,-0.03089c0.6698,0.07732 0.90101,0.59426 1.23909,1.02539c1.00304,1.39045 1.91037,2.76987 2.69969,4.33169c1.27405,2.40241 2.5258,4.9981 4.30064,7.26209c1.35079,0.05781 2.7861,0.22351 4.35057,0.11012c0.10054,-0.87094 -0.28853,-1.70028 -0.59309,-2.42173c-2.35192,-5.66434 -4.81069,-11.24307 -7.25831,-16.91844c-2.94395,-0.53591 -5.8704,-0.38351 -8.76337,-0.52122c-3.18,-0.17104 -6.46686,-0.25631 -9.65801,-0.33071c-5.59453,-0.25354 -11.20021,-0.41041 -16.79472,-0.66393c-3.56275,-0.21522 -7.22117,-0.44151 -10.79509,-0.5599c-5.88156,-0.28686 -11.67861,-0.46584 -17.5602,-0.7525c-3.57393,-0.11839 -7.04098,-0.32258 -10.60373,-0.5378c-2.98863,-0.14896 -5.98843,-0.20108 -8.97707,-0.34983c-3.28684,-0.08544 -6.65824,-0.27839 -9.93392,-0.46049c-3.94549,-0.25942 -7.80648,-0.41094 -11.76315,-0.57353c-6.37118,-0.24525 -12.74234,-0.49051 -19.11352,-0.73576c-5.50998,-0.14584 -10.91314,-0.37727 -16.41195,-0.61995c-3.86098,-0.15154 -7.71079,-0.3999 -11.57178,-0.55145c-1.25511,-0.04677 -2.49903,-0.19036 -3.78762,0.05299c-0.07819,0.67728 0.15301,1.1944 0.49108,1.62553c2.45098,3.12645 4.16512,6.75621 6.30669,10.04299c0.83398,1.17488 1.65683,2.4464 2.38397,3.70688c0.49591,0.74374 1.02536,1.19697 1.92005,1.00607c0.78783,-0.10511 1.55332,-0.01674 2.23431,-0.03625c0.15153,-0.47275 0.00484,-0.8818 -0.15302,-1.1942c-1.05404,-1.78845 -2.11924,-3.48026 -3.07758,-5.25786c-0.72715,-1.26049 -1.46545,-2.42431 -2.0969,-3.67375c-0.2312,-0.51712 -0.55809,-1.0451 -0.17051,-1.8827c1.29978,-0.34019 2.72392,-0.07785 4.14804,0.18467c0.47843,0.05523 0.72082,0.47533 0.9632,0.89561c0.82282,1.27152 1.74133,2.55429 2.45729,3.91159c1.34743,2.60675 2.69483,5.21368 4.53187,7.77882c0.64744,0.271 1.51981,0.27356 2.40332,0.17951c0.16271,-0.56958 -0.09083,-0.89303 -0.2487,-1.20544c-1.22309,-2.00403 -2.43496,-4.10508 -3.64687,-6.20594c-0.65379,-1.05596 -1.29642,-2.20874 -1.85453,-3.25364c-0.3269,-0.52798 -0.31571,-0.62481 -0.1705,-1.88271c1.29978,-0.34019 2.71274,0.01898 4.05236,0.17362c0.57412,0.06628 0.90101,0.59426 1.14339,1.01455c0.90735,1.37941 1.81468,2.75881 2.51949,4.21276c1.09386,2.28348 2.49714,4.40644 3.79354,6.61518c0.48476,0.84038 1.12105,1.20802 2.08907,1.22184c1.06373,0.02468 2.21196,0.15722 3.27571,0.1819c0.17387,-0.66622 0.01601,-0.97863 0.39876,-0.93443zM411.81809,260.9673c0.98552,0.70214 2.15613,0.64102 3.13532,0.558c2.43684,-0.11081 4.71098,0.34778 7.12548,0.43047c0.28706,0.03314 0.57411,0.06628 1.05255,0.12151c0.87572,-2.54635 1.37987,-5.23354 2.06421,-7.80198c0.69551,-2.66509 1.57123,-5.21145 2.3736,-7.96232c-1.23275,-0.24043 -2.17847,-0.44754 -3.13532,-0.55799c-4.01884,-0.46394 -8.08236,-0.54092 -12.14589,-0.61771c-0.77665,0.00827 -1.63783,-0.09115 -2.49901,-0.19055c-2.97747,-0.2456 -6.08412,-0.21213 -9.16844,-0.37193c-2.31882,-0.07163 -4.62647,-0.2399 -6.94528,-0.31153c-4.25489,-0.09907 -8.49861,-0.29479 -12.83804,-0.50155c-3.94549,-0.25942 -7.99784,-0.43303 -11.96569,-0.49879c-2.98863,-0.14896 -5.93257,-0.68486 -8.97705,-0.35002c-0.19137,-0.02209 -0.28705,-0.03314 -0.47843,-0.05523c-3.75412,-0.23732 -7.41256,-0.46361 -11.07099,-0.68969c-2.98863,-0.14896 -6.08411,-0.21212 -9.17959,-0.27528c-0.19137,-0.02209 -0.28705,-0.03314 -0.47843,-0.05523c-3.65843,-0.22627 -7.40138,-0.56043 -11.07099,-0.68988c-2.79725,-0.12686 -5.50998,-0.14584 -8.30726,-0.27251c-0.39391,0.05247 -0.68096,0.01932 -0.96803,-0.01381c-3.94549,-0.25942 -7.87983,-0.61548 -11.75199,-0.67017c-2.1386,0.0471 -4.22137,-0.38939 -6.3935,-0.05178c-0.20253,0.07455 -0.48959,0.04141 -0.68096,0.01932c-3.08433,-0.1598 -6.15746,-0.41664 -9.25295,-0.4798c-2.80843,-0.03003 -5.70137,-0.16793 -8.49862,-0.29479c-4.0412,-0.27027 -8.10472,-0.34725 -12.15707,-0.52087c-4.33941,-0.20676 -8.79685,-0.23109 -13.11393,-0.63133c-3.2645,-0.27893 -6.5737,-0.17071 -9.86057,-0.25595c-3.09548,-0.06316 -6.28667,-0.13738 -9.39331,-0.10389c-0.39393,0.05265 -0.78784,0.1053 -1.28862,0.24355c-0.58381,1.6975 -1.35899,3.37291 -1.7626,5.18935c-0.39244,1.71959 -1.07193,3.40606 -1.46436,5.12565c-0.40361,1.81642 -1.1788,3.49184 -1.40219,5.42701c1.01904,0.41182 1.99824,0.32879 2.96629,0.34244c2.32997,-0.02502 4.74451,0.05747 7.08566,-0.06438c2.13862,-0.04729 4.35059,0.10993 6.46685,0.2563c0.6698,0.07732 1.36194,-0.03883 2.1498,-0.14412c0.47211,-0.72992 0.6795,-1.68646 0.9714,-2.53512c0.46579,-1.51507 0.93157,-3.03014 1.48187,-4.43733c0.39879,-0.93464 1.05109,-1.54563 2.11483,-1.52096c0.48959,-0.04142 0.89467,-0.19071 1.3731,-0.13548c1.91373,0.22092 3.84982,0.24818 5.7859,0.27562c3.76529,0.14049 7.40139,0.56024 11.08215,0.59303c3.01098,-0.04472 5.96609,0.39455 8.97707,0.34983c2.23429,-0.03606 4.43508,0.21801 6.65823,0.2784c3.18,0.17104 6.37118,0.24525 9.47782,0.21177c0.19137,0.02209 0.28705,0.03314 0.47843,0.05523c3.75412,0.23732 7.4014,0.56025 11.08219,0.59285c2.61703,0.00812 5.17823,0.49985 7.8288,0.21747c0.38275,0.04419 0.6698,0.07732 0.95688,0.11046c3.52923,0.50555 7.12548,0.43047 10.60372,0.53781c2.9998,0.05211 6.12395,0.70696 9.16844,0.37193c0.39391,-0.05247 0.68096,-0.01933 0.96803,0.01381c3.56275,0.21522 7.11433,0.52711 10.60372,0.53781c2.61706,0.00794 5.16708,0.59649 7.82883,0.21728c0.19137,0.02209 0.47842,0.05523 0.6698,0.07732c3.56275,0.21522 7.21002,0.53814 10.78393,0.65673c5.40315,0.23144 10.72177,0.35519 16.12492,0.58663c2.98863,0.14896 5.87039,0.38369 8.7745,0.42477c2.91529,-0.05576 5.76354,0.4693 8.70116,0.22004c0.19137,0.02209 0.28705,0.03314 0.47843,0.05523c3.18,0.17104 6.26432,0.33085 9.44433,0.5019c0.38275,0.04419 0.7655,0.08837 1.24393,0.1436c-0.1549,3.02168 -1.61592,5.59859 -1.833,8.31891zM410.96365,255.77001c-1.92489,-0.12429 -3.94549,-0.25942 -5.87041,-0.38351c-3.09547,-0.06335 -6.19096,-0.12652 -9.27528,-0.28632c-5.30744,-0.22058 -10.60372,-0.53781 -15.91116,-0.75841c-5.1161,-0.19829 -10.13647,-0.38574 -15.25255,-0.58403c-2.79725,-0.12686 -5.69017,-0.26477 -8.48744,-0.39162c-5.98845,-0.20089 -11.97687,-0.40195 -17.95412,-0.69985c-2.98863,-0.14896 -5.97727,-0.29772 -8.96589,-0.44666c-5.21175,-0.20954 -10.42353,-0.41889 -15.63529,-0.62842c-2.70156,-0.11581 -5.40316,-0.23144 -8.10472,-0.34726c-5.89274,-0.19002 -11.68979,-0.369 -17.57137,-0.65567c-5.11606,-0.19849 -10.31666,-0.50466 -15.43272,-0.70315c-5.1161,-0.19829 -10.32785,-0.40784 -15.44393,-0.60613c-0.19137,-0.02209 -0.3939,0.05247 -0.78783,0.10511c-0.6285,2.08466 -1.44835,4.14702 -1.90781,6.44724c1.51981,0.27356 2.8706,0.33139 4.22139,0.3892c3.95664,0.16278 8.00901,0.33639 11.96568,0.49898c6.94529,0.31153 13.99745,0.53728 20.95392,0.75198c6.08411,0.21212 12.15706,0.52107 18.24116,0.73319c6.94529,0.31153 13.79489,0.61202 20.7402,0.92336c3.28684,0.08544 6.65824,0.27839 9.93392,0.46049c5.40312,0.23163 10.71059,0.45203 16.11372,0.68365c3.18003,0.17085 6.26432,0.33085 9.44433,0.5019c4.14804,0.18467 8.39177,0.38039 12.6355,0.57611c6.94529,0.31153 13.7949,0.61202 20.74019,0.92355c2.79725,0.12686 5.49882,0.24268 8.29609,0.36934c0.68096,-0.01932 1.3731,-0.13549 2.14979,-0.14394c-0.10351,-2.46314 0.98111,-4.29908 1.16466,-6.7291zM448.52943,317.56472c0.71787,-2.85876 1.4357,-5.71734 2.15358,-8.57608c0.48813,-1.70855 0.09272,-3.32304 -0.3872,-5.04523c-1.52425,-5.2746 -3.75182,-10.33641 -5.47862,-15.53628c-0.94233,-2.75623 -2.0872,-5.43772 -3.2209,-8.21604c-2.86535,-7.09619 -5.52815,-14.26733 -8.08411,-21.52387c-1.10018,-3.06864 -2.30724,-6.05148 -3.40744,-9.11992c-0.16901,-0.21576 -0.32689,-0.52798 -0.56927,-0.94827c-0.46093,0.63308 -0.70815,1.09478 -0.87088,1.66436c-0.85823,3.23467 -1.53626,6.58827 -2.67036,9.69296c-0.72419,2.07361 -0.33995,3.78473 0.52269,5.5513c4.04859,8.60557 7.0956,17.48784 10.53655,26.31746c3.28308,8.51721 6.57733,16.93778 10.36119,25.31673c0.15785,0.31241 0.41141,0.63586 0.64262,1.15279c0.32058,-0.25717 0.42744,-0.34296 0.47211,-0.72992z" data-paper-data="{&quot;index&quot;:null}" fill="#000000"/><path d="M438.53144,321.01894c-6.63589,-0.47187 -13.17611,-0.9327 -19.80083,-1.5014c-9.31512,-0.78116 -18.56806,-1.26117 -27.9167,-1.75201c-3.94549,-0.25942 -7.79531,-0.50759 -11.74081,-0.76701c-6.83842,-0.39732 -13.78372,-0.70885 -20.71786,-1.11703c-4.23255,-0.29255 -8.4651,-0.58509 -12.70882,-0.78082c-8.67883,-0.41353 -17.35767,-0.82706 -26.02532,-1.33743c-4.71098,-0.34778 -9.32629,-0.68452 -14.03726,-1.0323c-5.48766,-0.33932 -10.86848,-0.76424 -16.35611,-1.10374c-5.77472,-0.37246 -11.54943,-0.74492 -17.31297,-1.21421c-2.02059,-0.13513 -4.0747,0.01986 -6.05062,-0.50224c-0.58044,-0.85143 -1.25657,-1.7139 -1.82584,-2.66217c-3.82706,-6.32487 -7.879,-12.38151 -12.01546,-18.54603c-5.87778,-8.71881 -11.53071,-17.70565 -16.99224,-26.67059c-1.0652,-1.69181 -2.02356,-3.46922 -2.99307,-5.14999c0.34292,-0.45066 0.73685,-0.5033 1.11959,-0.45913c4.06352,0.07698 8.13819,0.05713 12.20173,0.13392c3.77645,0.04384 3.77646,0.04385 5.91803,3.33063c3.38697,5.09753 6.35771,10.44099 9.85154,15.45272c1.00304,1.39045 1.8817,2.17819 3.53072,2.17249c0.39391,-0.05247 0.77665,-0.00827 1.15939,0.03591c4.33941,0.20676 8.7857,0.32774 13.11393,0.63133c5.96609,0.39455 12.00549,0.99382 17.97159,1.38837c6.44452,0.44978 12.88906,0.89955 19.33358,1.34933c4.32823,0.30359 8.56078,0.59615 12.9002,0.80291c3.27568,0.18209 6.64707,0.37503 9.92276,0.55714c5.47648,0.43615 10.85727,0.86126 16.34494,1.20058c4.90236,0.36987 9.8159,0.64291 14.72943,0.91596c4.32823,0.30359 8.5943,0.30584 12.91138,0.70608c6.43334,0.54661 12.80451,0.79187 19.16454,1.13376c5.21175,0.20954 10.43468,0.32224 15.64646,0.53158c0.5853,-0.03055 1.17057,-0.06093 1.77821,-0.28496c0.71448,-0.30964 1.06856,-0.85713 0.87087,-1.66437c-0.12434,-0.60272 -0.34437,-1.21648 -0.46874,-1.81901c-0.54207,-2.02373 -1.69182,-3.82323 -2.43644,-5.77222c-1.64713,-4.21019 -2.99603,-8.48406 -4.84569,-12.6197c-0.15785,-0.31241 -0.22003,-0.61376 0.00484,-0.8818c2.83079,-0.16364 9.46666,0.30841 11.05984,0.78632c1.22938,2.78937 2.5433,5.68643 3.75034,8.66927c2.09835,5.34108 4.0899,10.76755 6.18827,16.10845c1.64711,4.21037 3.30542,8.32373 4.95253,12.53411c2.18288,5.44876 4.36579,10.89734 6.84691,16.28241c0.47357,0.93722 1.13853,1.89653 1.28038,3.18757c-2.89293,-0.13791 -5.5945,-0.25373 -8.30724,-0.27271zM373.23558,302.89153c-1.70297,-3.7264 -3.51281,-7.3672 -4.9064,-11.25393c-0.22004,-0.61377 -0.53574,-1.23858 -0.64894,-1.93793c-0.18655,-0.90388 -0.72715,-1.26048 -1.58833,-1.35989c-1.14824,-0.13256 -2.39216,-0.27616 -3.64725,-0.32311c-0.57412,-0.06628 -1.25511,-0.04677 -1.82923,-0.11305c-7.01865,-0.51606 -14.11062,-1.23682 -21.14043,-1.65605c-5.38079,-0.4251 -10.66589,-0.83916 -16.10256,-0.78029c-3.68076,-0.0328 -7.35038,-0.16224 -11.01999,-0.29168c-0.77665,0.00827 -1.63783,-0.09114 -2.26783,0.32657c-0.54544,0.52521 -0.31422,1.04213 -0.16755,1.45137c0.43523,2.10932 1.57379,4.00565 2.4141,5.96569c1.29158,3.09053 2.67881,6.19231 4.16177,9.30494c1.22938,2.78937 2.65013,5.60083 4.18894,8.22967c0.54061,0.35658 1.22159,0.33708 1.79571,0.40335c4.90236,0.36987 9.79356,0.8364 14.69592,1.20627c5.28511,0.41406 10.6659,0.83917 16.04668,1.26428c4.13688,0.28131 8.27374,0.56283 12.41061,0.84433c2.79725,0.12686 5.47647,0.43615 8.26257,0.65965c0.87236,0.00258 1.64902,-0.00569 2.52138,-0.00312c0.47843,0.05523 0.81017,-0.29859 1.16425,-0.84608c-1.41592,-3.69325 -2.7138,-7.56913 -4.34342,-11.091zM255.34109,273.39737c-2.46848,-3.81477 -4.41383,-7.96144 -6.66859,-11.94759c-0.63144,-1.24963 -1.45911,-1.63936 -2.7254,-1.58928c-1.07489,0.07197 -2.12745,-0.04954 -3.19115,-0.07439c-0.96804,-0.01363 -1.8404,-0.01621 -2.57721,0.4869c-0.26958,0.65537 0.05732,1.18335 0.29972,1.60344c2.36161,3.90056 4.72322,7.80111 7.08483,11.70165c0.81165,1.36835 1.88171,2.17818 3.54191,2.07566c1.3731,-0.13549 2.8084,0.03022 4.1592,0.08803c0.28706,0.03314 0.5853,-0.03055 0.92822,-0.48121c-0.0175,-0.68832 -0.4289,-1.32417 -0.85148,-1.8632zM292.47345,284.35145c-1.78939,0.3818 -2.63793,1.85269 -2.26486,3.66066c0.71746,3.02426 5.57029,4.66307 7.92113,2.77744c1.81658,-1.45726 1.6509,-4.22177 -0.33132,-5.5292c-0.81648,-0.48656 -1.72868,-0.98398 -2.79242,-1.00866c-0.75432,-0.1852 -1.63783,-0.09115 -2.53253,0.09976zM296.13442,293.79483c-1.20409,0.35124 -1.88991,1.25255 -2.03512,2.51045c-0.14521,1.25789 0.64408,2.81992 1.74765,3.33944c1.57083,0.67158 3.16399,1.14968 4.86885,0.6602c0.20256,-0.07474 0.50078,-0.13843 0.81018,-0.29879c1.86757,-1.05906 2.19784,-3.08003 0.73871,-4.71918c-0.77182,-0.87352 -2.23576,-1.63089 -3.67107,-1.79657c-0.85003,-0.19607 -1.66019,0.10252 -2.4592,0.30448zM263.17835,289.50011c1.54217,0.07991 2.9823,-0.63619 3.40342,-1.76431c0.57264,-1.60067 -0.07631,-3.53861 -1.6248,-4.40367c-1.53731,-0.96189 -3.18632,-0.95621 -4.69981,-0.44462c-2.32368,0.81036 -2.80548,3.30406 -1.16615,5.06216c0.783,0.77669 1.98223,1.30743 3.51322,1.48418c0.19137,0.02209 0.38274,0.04418 0.57412,0.06628zM275.62922,284.95626c-0.96172,0.77152 -1.14677,1.53458 -0.69551,2.66509c1.04917,2.67063 4.96748,4.00532 7.36934,2.51769c1.55818,-0.89873 1.83259,-2.4359 0.84073,-3.92299c-0.90735,-1.37941 -2.17993,-2.11468 -3.82894,-2.10898c-1.41297,-0.35918 -2.62823,0.0889 -3.68562,0.84919zM275.85921,303.12225c-1.26776,-1.61707 -3.91347,-2.21667 -5.84325,-1.45878c-1.83406,0.76875 -2.26001,2.77867 -1.08794,4.38469c1.07638,1.59497 4.85915,2.42398 6.29931,1.70767c0.91704,-0.38438 1.38914,-1.1143 1.53436,-2.37219c0.08936,-0.7741 -0.40657,-1.51765 -0.90249,-2.26139zM263.70444,292.50228c-1.13076,0.55596 -1.65872,1.76966 -1.20748,2.90037c1.34258,3.48873 5.80635,4.29802 7.977,2.29347c1.07974,-0.95396 1.08944,-2.71774 0.1374,-3.70999c-0.8675,-0.88456 -2.70304,-1.78296 -4.32971,-1.97074c-0.6698,-0.07732 -1.63786,-0.09095 -2.57721,0.48691zM299.63269,303.8078c-1.25994,0.83503 -1.52317,2.27536 -0.79603,3.53584c0.3269,0.52798 0.74946,1.06719 1.30125,1.32694c1.18807,0.62739 2.50535,0.97552 3.963,0.94773c0.5853,-0.03055 1.19293,-0.2546 1.71604,-0.58632c1.99678,-1.33833 1.92678,-4.09179 -0.28033,-5.131c-0.91217,-0.49761 -1.86904,-0.60807 -2.89927,-0.92306c-0.97919,0.08302 -2.06527,0.25182 -3.00466,0.82988zM283.86189,302.67349c-1.16425,0.84607 -1.4785,1.8884 -0.85823,3.23467c0.15785,0.31241 0.40025,0.7325 0.66498,0.95913c1.32358,1.13347 2.89441,1.80505 4.66147,1.61673c0.69214,-0.11615 1.20408,-0.35124 1.72719,-0.68297c1.37798,-1.01765 1.70339,-2.15662 0.80723,-3.63287c-0.81165,-1.36835 -1.98855,-2.09258 -3.43503,-2.16145c-1.32843,-0.25148 -2.40334,-0.17932 -3.5676,0.66677zM285.78384,299.46351c1.62036,-0.59736 2.10847,-2.30592 1.21231,-3.78217c-1.22309,-2.00403 -4.01547,-3.01287 -6.23231,-2.28811c-2.10994,0.63878 -2.73844,2.72344 -1.38619,4.44838c1.0142,1.29361 2.20229,1.921 3.74443,2.00111c0.95686,0.11046 1.84041,0.01621 2.66175,-0.37921zM378.73332,295.58404c2.39216,0.27616 4.68865,0.54126 7.10315,0.62394c0.87236,0.00258 1.61549,0.28462 2.51019,0.09371c0.69216,-0.11636 1.1084,-0.3623 1.28229,-1.0287c-0.40025,-0.7325 -1.16575,-0.82086 -1.83555,-0.89819c-2.96629,-0.34244 -5.84807,-0.57698 -8.75216,-0.61824c-0.77667,0.00847 -1.55335,0.01693 -2.03662,0.84349c0.29338,0.81829 0.95202,0.99244 1.72868,0.98399zM407.503,300.8662c-2.96629,-0.34244 -5.84807,-0.57698 -8.75219,-0.61806c-0.77667,0.00847 -1.55332,0.01674 -2.03661,0.8435c0.29338,0.81829 0.95204,0.99225 1.62185,1.06958c2.39216,0.27616 4.68865,0.54127 7.10315,0.62394c0.87236,0.00258 1.61549,0.28462 2.51019,0.09371c0.69214,-0.11615 1.1084,-0.36229 1.28229,-1.02869c-0.40025,-0.7325 -1.05888,-0.90667 -1.72868,-0.98399zM428.37831,308.17866c-3.10666,0.03367 -6.14631,-0.51328 -9.17959,-0.27528c-0.5853,0.03055 -1.07492,0.07216 -1.33329,0.63051c-0.05585,0.48379 0.31572,0.62481 0.67613,0.86247c0.54061,0.35658 1.22159,0.33708 1.79571,0.40335c2.60587,0.10477 5.30744,0.22058 7.99784,0.43304c0.57412,0.06628 1.17057,-0.06093 1.77821,-0.28496c0.40509,-0.1493 0.54544,-0.52521 0.50563,-1.02024c-0.72082,-0.47533 -1.45281,-0.85401 -2.24063,-0.7489zM405.29776,295.61111c-3.01096,0.04453 -5.95491,-0.49138 -8.98823,-0.25318c-0.5853,0.03055 -1.15942,-0.03572 -1.44014,0.7161c0.02866,0.59167 0.5916,0.75478 0.9632,0.89561c0.75432,0.1852 1.50864,0.37041 2.28531,0.36194c2.13862,-0.04729 4.33941,0.20676 6.45568,0.35314c0.87236,0.00258 1.73355,0.10201 2.54373,-0.19678c0.40509,-0.1493 0.72567,-0.40646 0.70816,-1.09479c-0.72082,-0.47533 -1.45281,-0.85401 -2.52769,-0.78205zM381.17945,299.59247c-0.39391,0.05247 -0.88351,0.09407 -1.29978,0.34019c-0.3094,0.16034 -0.43861,0.43961 -0.37643,0.74096c0.07334,0.20453 0.23122,0.51694 0.42258,0.53903c0.37159,0.14083 0.83884,0.29289 1.32846,0.25128c2.42566,-0.01396 4.73332,0.1543 7.13667,0.33363c1.06371,0.02486 2.13862,-0.04729 3.15134,-0.42063c0.29822,-0.0635 0.52311,-0.33172 0.55662,-0.62203c0.03351,-0.29031 -0.22003,-0.61377 -0.50709,-0.64691c-0.57412,-0.06628 -1.0414,-0.21815 -1.7112,-0.29548c-2.79725,-0.12686 -5.70136,-0.16793 -8.70116,-0.22004zM430.16727,313.68007c-1.24393,-0.1436 -2.39217,-0.27616 -3.64726,-0.32311c-1.63785,-0.09096 -3.37139,-0.19294 -5.0204,-0.18725c-0.68096,0.01932 -1.26626,0.04987 -1.86271,0.17709c-0.29824,0.0637 -0.60763,0.22404 -0.65233,0.61119c-0.04467,0.38696 0.22005,0.61358 0.49593,0.74356c0.37158,0.14102 0.74317,0.28186 1.12591,0.32603c3.16882,0.26788 6.44451,0.44978 9.62452,0.62082c0.57412,0.06628 1.17057,-0.06092 1.64268,-0.79084c-0.29338,-0.81829 -1.04769,-1.0035 -1.70634,-1.17747zM410.73359,307.31846c-1.24393,-0.1436 -2.39217,-0.27616 -3.64726,-0.32311c-1.73354,-0.102 -3.47823,-0.10735 -5.22295,-0.11252c-0.58528,0.03036 -1.18173,0.15757 -1.77821,0.28497c-0.10684,0.0856 -0.33172,0.35382 -0.35406,0.5473c-0.01118,0.09683 0.14668,0.40924 0.32689,0.52798c0.44492,0.34555 0.92335,0.40077 1.49747,0.46704c1.24393,0.1436 2.58354,0.29824 3.83863,0.3452c1.62668,0.18778 3.18002,0.17085 4.81784,0.26199c0.87236,0.00258 1.7447,0.00536 2.41936,-0.7993c-0.36674,-1.02282 -1.03653,-1.10014 -1.89772,-1.19955zM424.25341,296.03447c-1.24393,-0.1436 -2.39216,-0.27616 -3.64725,-0.32311c-1.74472,-0.00516 -3.47824,-0.10735 -5.22296,-0.11251c-0.48959,0.04142 -1.08604,0.16862 -1.57566,0.21021c-0.29824,0.0637 -0.60763,0.22404 -0.6523,0.61099c-0.0447,0.38715 0.22003,0.61377 0.4959,0.74374c0.46728,0.15187 1.03021,0.31498 1.50865,0.37022c1.62668,0.18778 3.36022,0.28978 5.00923,0.28409c1.26627,-0.04988 2.40335,0.17932 3.65843,0.22627c0.95686,0.11046 0.96804,0.01363 2.2168,-0.72457c-0.3779,-0.92617 -1.0477,-1.0035 -1.79086,-1.28534zM416.5437,303.18473c1.53099,0.17673 3.06197,0.35346 4.60414,0.43337c1.43531,0.1657 2.98863,0.14896 4.53079,0.22887c1.06373,0.02468 1.06374,0.02467 2.30134,-0.61688c0.16269,-0.56939 -0.19771,-0.80705 -0.66497,-0.95911c-0.56294,-0.16311 -1.13707,-0.22939 -1.6155,-0.28462c-2.70157,-0.11562 -5.49883,-0.24249 -8.2004,-0.3583c-0.7655,-0.08837 -1.54217,-0.07991 -2.29016,0.52004c0.07968,0.98968 0.73831,1.16384 1.33476,1.03664zM385.64872,312.95316c2.79727,0.12667 5.69021,0.26457 8.48746,0.39143c0.77667,-0.00847 1.5645,-0.11357 2.27898,-0.42321c0.40511,-0.14949 0.54547,-0.5254 0.49446,-0.92359c-0.43377,-0.44219 -1.00787,-0.50846 -1.48632,-0.56369c-2.98863,-0.14896 -5.97725,-0.2979 -8.97706,-0.35002c-0.5853,0.03055 -1.08607,0.16879 -1.58684,0.30704c-0.59648,0.12739 -0.65232,0.61118 -0.51681,1.11707c0.33808,0.43114 0.80532,0.58321 1.3061,0.44496zM403.47364,313.93228c2.59472,0.20141 5.18942,0.40302 7.78413,0.60443c0.86118,0.09941 1.54216,0.07991 2.26781,-0.32656c0.3094,-0.16034 0.53429,-0.42856 0.37643,-0.74097c-0.07334,-0.20453 -0.23122,-0.51693 -0.42258,-0.53903c-0.37159,-0.14083 -0.83884,-0.29289 -1.31728,-0.34812c-2.59472,-0.20141 -5.17826,-0.49966 -7.77296,-0.70126c-0.7655,-0.08837 -1.55333,0.01674 -2.25665,0.22973c-0.29824,0.0637 -0.52312,0.33192 -0.67466,0.80466c0.60278,0.65794 1.26144,0.83191 2.01575,1.01712zM383.69072,307.23617c2.62824,-0.0889 5.28511,0.41405 7.97551,0.62652c0.77667,-0.00847 1.54216,0.0799 2.18329,-0.43426c0.10687,-0.08578 0.23606,-0.36505 0.2584,-0.55854c0.02234,-0.19348 -0.14671,-0.40905 -0.3269,-0.52798c-0.46725,-0.15206 -0.83884,-0.29289 -1.31728,-0.34812c-2.69038,-0.21265 -5.27393,-0.5109 -7.96433,-0.72336c-0.96804,-0.01363 -2.03175,-0.03849 -2.92012,0.93756c0.67613,0.86247 1.3236,1.13328 2.11143,1.02817z" data-paper-data="{&quot;index&quot;:null}" fill="#216aff"/><path d="M284.42352,275.97024c-0.96804,-0.01363 -1.60434,-0.38126 -2.0891,-1.22164c-1.30759,-2.1119 -2.604,-4.32064 -3.79354,-6.61518c-0.80048,-1.46519 -1.61213,-2.83356 -2.51947,-4.21297c-0.2424,-0.4201 -0.56929,-0.94808 -1.1434,-1.01436c-1.32843,-0.25148 -2.65689,-0.50276 -4.05236,-0.17362c-0.06068,1.36559 -0.15637,1.35454 0.17053,1.88251c0.64261,1.1528 1.20073,2.19769 1.85452,3.25364c1.22305,2.00421 2.43493,4.10528 3.64685,6.20613c0.25356,0.32346 0.50709,0.64691 0.24872,1.20525c-0.88353,0.09426 -1.75588,0.09149 -2.40335,-0.17932c-1.84819,-2.46849 -3.08876,-5.16102 -4.53186,-7.77902c-0.71596,-1.35731 -1.63449,-2.63988 -2.45729,-3.91159c-0.2424,-0.4201 -0.48476,-0.84038 -0.9632,-0.89561c-1.42415,-0.26234 -2.84827,-0.52487 -4.14804,-0.18468c-0.37643,0.74096 -0.15639,1.35474 0.17051,1.88271c0.72715,1.26049 1.35858,2.51009 2.09688,3.67394c1.05404,1.78845 2.02356,3.46922 3.07758,5.25786c0.25357,0.32327 0.30456,0.72147 0.15303,1.19421c-0.77667,0.00847 -1.54217,-0.07991 -2.23431,0.03624c-0.99038,0.17985 -1.5198,-0.27357 -1.92005,-1.00607c-0.82281,-1.27171 -1.56113,-2.43535 -2.38395,-3.70708c-2.03472,-3.37258 -3.85572,-6.91653 -6.30672,-10.0428c-0.33806,-0.43133 -0.56926,-0.94827 -0.49108,-1.62553c1.19293,-0.2546 2.53254,-0.09995 3.78762,-0.05299c3.86098,0.15154 7.71082,0.39972 11.57178,0.55145c5.49883,0.24249 10.91314,0.37727 16.41195,0.61995c6.37118,0.24525 12.74237,0.49032 19.11354,0.73557c3.95667,0.16259 7.80648,0.41094 11.76315,0.57353c3.28684,0.08544 6.65823,0.2784 9.93392,0.4605c2.98863,0.14896 5.98842,0.20107 8.97705,0.35002c3.57393,0.11839 7.04098,0.32258 10.60374,0.53761c5.88156,0.28686 11.6786,0.46584 17.56019,0.75251c3.56275,0.21522 7.22118,0.4415 10.79509,0.5599c5.59451,0.25373 11.20019,0.41041 16.7947,0.66414c3.19119,0.07421 6.47804,0.15947 9.65803,0.33051c2.88177,0.23456 5.8194,-0.01451 8.76334,0.52141c2.44761,5.67538 4.90639,11.25392 7.25831,16.91826c0.30454,0.72165 0.70478,1.45415 0.59309,2.42173c-1.57568,0.2104 -2.9998,-0.05211 -4.35059,-0.10993c-1.77484,-2.26397 -3.03774,-4.76303 -4.30064,-7.26209c-0.80048,-1.46519 -1.69666,-2.94124 -2.69969,-4.33169c-0.33806,-0.43133 -0.66495,-0.95931 -1.23907,-1.02559c-1.33961,-0.15465 -2.65689,-0.50277 -3.97901,0.03089c-0.29192,0.84885 0.02382,1.47346 0.33953,2.09828c0.7383,1.16383 1.36976,2.41327 2.10806,3.5771c0.96952,1.68077 1.93903,3.36153 2.90855,5.0423c0.23122,0.51693 0.55811,1.0449 0.19287,1.68904c-0.51195,0.23508 -1.08607,0.1688 -1.54217,-0.0799c-1.77484,-2.26397 -3.02658,-4.85967 -4.38517,-7.36978c-0.80048,-1.46519 -1.61213,-2.83355 -2.51947,-4.21296c-0.2424,-0.4201 -0.56927,-0.94827 -1.14339,-1.01455c-1.33961,-0.15465 -2.66807,-0.40593 -4.06353,-0.07678c-0.39877,0.93444 0.09718,1.67799 0.4974,2.41069c1.62331,2.73672 3.15092,5.4624 4.68973,8.09123c0.3269,0.52798 0.56926,0.94827 0.59792,1.53993c-0.01116,0.09664 -0.12917,0.27907 -0.24722,0.46171c-0.58528,0.03036 -1.17057,0.06093 -1.72236,-0.19883c-1.76366,-2.3608 -3.0154,-4.9565 -4.37399,-7.46661c-0.80048,-1.46519 -1.61213,-2.83356 -2.51947,-4.21297c-0.2424,-0.4201 -0.56929,-0.94808 -1.1434,-1.01436c-1.42412,-0.26253 -2.75255,-0.51401 -4.05233,-0.17381c-0.47211,0.72992 -0.25208,1.34369 0.07483,1.87167c0.72712,1.26067 1.35858,2.51009 2.09688,3.67394c1.05404,1.78845 2.11924,3.48026 3.07757,5.25786c0.23122,0.51693 0.6538,1.05596 0.27738,1.79692c-1.81805,-0.20988 -3.64725,-0.3231 -5.38079,-0.4251c-1.76366,-2.3608 -3.02659,-4.85967 -4.28948,-7.35873c-0.80048,-1.46519 -1.69664,-2.94143 -2.69967,-4.33189c-0.2424,-0.4201 -0.56929,-0.94808 -0.95203,-0.99225c-1.41297,-0.35918 -2.9216,-0.72957 -4.36175,-0.01329c-0.18506,0.76305 0.03498,1.37682 0.36187,1.9048c0.64263,1.1526 1.20073,2.1977 1.85453,3.25364c1.04286,1.88529 2.0969,3.67375 3.15093,5.46238c0.2424,0.4201 0.47357,0.93722 0.40657,1.51765c-0.7145,0.30983 -1.36194,0.03884 -1.92491,-0.12409c-1.67916,-2.25293 -2.94205,-4.75197 -4.20495,-7.25103c-0.80049,-1.46501 -1.69667,-2.94125 -2.69969,-4.33169c-0.25356,-0.32346 -0.48476,-0.84038 -0.9632,-0.89561c-1.32843,-0.25148 -2.83709,-0.62171 -4.17038,0.0088c-0.28074,0.75201 -0.0607,1.36578 0.2662,1.89375c0.64261,1.1528 1.20073,2.19771 1.85453,3.25365c1.04286,1.88529 2.09688,3.67394 3.15093,5.46239c0.24238,0.42029 0.47359,0.93721 0.38422,1.71132c-2.60587,-0.10477 -5.13841,-0.00501 -7.60393,-0.48569c-1.76366,-2.3608 -3.02658,-4.85966 -4.28948,-7.35873c-0.80048,-1.46519 -1.69664,-2.94143 -2.69965,-4.33189c-0.3269,-0.52798 -0.76067,-0.97016 -1.43047,-1.04749c-1.24393,-0.1436 -2.47668,-0.38404 -3.66961,-0.12944c-0.14521,1.25789 -0.2409,1.24684 0.15935,1.97935c0.72712,1.26067 1.36976,2.41327 2.09688,3.67394c1.05404,1.78845 2.09691,3.67374 3.15093,5.46239c0.2424,0.4201 0.48476,0.84038 0.04616,1.27999c-0.8947,0.1909 -1.64901,0.0057 -2.13376,-0.83469c-0.3269,-0.52798 -0.65379,-1.05596 -0.9807,-1.58393c-0.87383,-1.66972 -1.75882,-3.2426 -2.63267,-4.91232c-0.71596,-1.35731 -1.51645,-2.82251 -2.53065,-4.11613c-0.24238,-0.42029 -0.56927,-0.94826 -0.95202,-0.99244c-1.41297,-0.35918 -2.92162,-0.72939 -4.5643,0.06146c0.51973,2.21721 1.87202,3.94196 2.91486,5.82745c1.05404,1.78845 2.20375,3.58815 3.02172,5.74165c-1.02387,0.46998 -1.80055,0.47845 -2.4655,-0.48087c-0.3269,-0.52798 -0.65379,-1.05596 -0.9807,-1.58393c-0.96952,-1.68077 -1.92787,-3.45817 -2.8017,-5.1279c-0.70478,-1.45415 -1.51645,-2.82251 -2.53064,-4.11612c-0.25356,-0.32346 -0.48476,-0.84038 -0.9632,-0.89561c-1.32843,-0.25148 -2.84824,-0.52506 -4.17038,0.0088c-0.26955,0.65518 -0.03835,1.17211 0.19286,1.68904c0.48476,0.84038 0.95834,1.77761 1.44309,2.61799c1.21191,2.10087 2.50832,4.30961 3.72021,6.41046c0.25356,0.32346 0.41141,0.63586 0.17534,1.00091c-1.68252,0.296 -5.81938,0.0145 -7.71079,-0.3999c-1.67916,-2.25293 -2.94205,-4.75197 -4.20495,-7.25103c-1.05404,-1.78845 -2.0012,-3.66289 -3.47151,-5.20522c-1.43531,-0.1657 -2.93276,-0.63274 -4.4686,0.07232c0.06217,0.30136 -0.06703,0.58062 0.00632,0.78516c0.14668,0.40924 0.29338,0.81829 0.45125,1.13069c0.64261,1.1528 1.20073,2.19769 1.85452,3.25364c1.04286,1.88529 2.09688,3.67394 3.15091,5.46258c0.2424,0.4201 0.4736,0.93702 0.40657,1.51765c-0.71448,0.30964 -1.2886,0.24336 -1.93607,-0.02743c-1.67916,-2.25293 -2.94205,-4.75199 -4.20495,-7.25104c-0.80049,-1.46501 -1.69666,-2.94124 -2.69969,-4.33169c-0.25356,-0.32346 -0.48476,-0.84038 -0.9632,-0.89561c-1.32843,-0.25148 -2.83708,-0.62169 -4.17038,0.00881c-0.28074,0.75201 -0.0607,1.36578 0.2662,1.89375c0.72715,1.26049 1.45427,2.52114 2.18142,3.78162c0.95834,1.77761 2.02354,3.46941 2.98189,5.24683c0.15785,0.31241 0.49594,0.74354 0.04616,1.27998c-2.11628,-0.14619 -4.24373,-0.19572 -6.4557,-0.35294c-0.94716,-1.87443 -1.90551,-3.65183 -2.76816,-5.41839c-1.00935,-2.1756 -2.11438,-4.36226 -3.54,-6.29174c-0.33808,-0.43114 -0.55811,-1.04491 -1.12107,-1.20783c-1.41295,-0.35937 -2.9216,-0.72957 -4.36175,-0.01328c-0.21854,1.05318 0.27737,1.79692 0.67761,2.52942c1.51645,2.82251 3.11742,5.75271 4.63386,8.57521c0.15785,0.31241 0.41143,0.63567 0.16418,1.09755c-0.90586,0.28754 -1.56447,0.11338 -2.14492,-0.73804c-1.31877,-2.01507 -2.42382,-4.20172 -3.54,-6.29172c-0.70482,-1.45396 -1.60097,-2.9302 -2.604,-4.32065c-0.33808,-0.43114 -0.66497,-0.95911 -1.23909,-1.02539c-1.33961,-0.15465 -2.66805,-0.40613 -4.06352,-0.07698c-0.39877,0.93444 0.09718,1.67799 0.4974,2.41069c1.62331,2.73672 3.15093,5.46238 4.68973,8.09123c0.3269,0.52798 0.56927,0.94827 0.50223,1.52889c-0.70332,0.21299 -1.36196,0.03883 -2.10511,-0.24301c-0.50709,-0.64691 -1.00301,-1.39045 -1.48778,-2.23083c-0.87383,-1.66972 -1.74766,-3.33943 -2.63267,-4.91232c-0.81165,-1.36835 -1.62331,-2.73672 -2.53064,-4.11612c-0.2312,-0.51712 -0.67613,-0.86247 -1.25026,-0.92875c-1.35077,-0.05801 -2.57235,-0.39508 -3.87213,-0.0549c-0.49445,0.9234 0.09715,1.67818 0.4974,2.41069c1.61213,2.83355 3.13976,5.55923 4.76306,8.29595c0.2424,0.4201 0.40026,0.73249 0.22638,1.39873c-1.06373,-0.02468 -2.12746,-0.04935 -3.90083,-0.64637z" data-paper-data="{&quot;index&quot;:null}" fill="#ffffff"/><path d="M412.77873,252.64581c-3.18,-0.17104 -6.2643,-0.33104 -9.4443,-0.5021c-0.19137,-0.02209 -0.28705,-0.03314 -0.47843,-0.05523c-2.84195,0.26029 -5.79708,-0.17879 -8.70116,-0.22004c-2.90411,-0.04108 -5.88159,-0.28667 -8.77452,-0.42457c-5.40315,-0.23144 -10.72177,-0.35519 -16.12489,-0.58682c-3.56275,-0.21522 -7.2212,-0.44131 -10.78393,-0.65654c-0.19137,-0.02209 -0.46724,-0.15206 -0.6698,-0.07732c-2.65057,0.28238 -5.21175,-0.20953 -7.82881,-0.21748c-3.50056,0.08613 -7.04098,-0.32258 -10.60373,-0.5378c-0.39393,0.05265 -0.6698,-0.07732 -0.96804,-0.01363c-3.03332,0.2382 -6.07295,-0.30877 -9.16842,-0.37211c-3.5851,-0.02156 -7.07449,-0.03227 -10.60374,-0.53762c-0.37158,-0.14102 -0.65863,-0.17416 -0.95688,-0.11046c-2.65055,0.28219 -5.21175,-0.20953 -7.8288,-0.21747c-3.68079,-0.03261 -7.42374,-0.36677 -11.08215,-0.59304c-0.19137,-0.02209 -0.28705,-0.03314 -0.47843,-0.05523c-3.20236,0.02262 -6.29784,-0.04054 -9.47784,-0.21158c-2.21197,-0.15724 -4.42392,-0.31464 -6.65823,-0.2784c-3.01098,0.04472 -5.96609,-0.39455 -8.97705,-0.35002c-3.68079,-0.03261 -7.41258,-0.46341 -11.08219,-0.59285c-1.92489,-0.12429 -3.86099,-0.15153 -5.78588,-0.27581c-0.48961,0.0416 -0.89469,0.1909 -1.37312,0.13567c-1.15942,-0.03573 -1.81173,0.57528 -2.11479,1.52076c-0.56147,1.50402 -1.01608,2.92226 -1.48187,4.43733c-0.19624,0.85989 -0.48812,1.70855 -0.97141,2.53531c-0.77667,0.00847 -1.47996,0.22126 -2.14977,0.14394c-2.21197,-0.15724 -4.32826,-0.30341 -6.46686,-0.2563c-2.33,0.0252 -4.65999,0.05041 -7.08567,0.06457c-0.96804,-0.01363 -1.94725,0.06939 -2.96629,-0.34244c0.12771,-1.94622 0.99858,-3.61058 1.40219,-5.427c0.39244,-1.71959 1.07193,-3.40606 1.46439,-5.12585c0.49928,-1.80519 1.17877,-3.49165 1.7626,-5.18935c0.50077,-0.13825 0.90586,-0.28754 1.2886,-0.24336c3.09548,0.06316 6.20214,0.02968 9.39331,0.10389c3.29805,-0.01158 6.59606,-0.02297 9.86058,0.25577c4.42392,0.31464 8.7745,0.42476 13.11391,0.63153c4.0412,0.27027 8.10472,0.34725 12.15707,0.52087c2.79725,0.12686 5.69019,0.26476 8.49861,0.29479c3.09548,0.06316 6.16864,0.3198 9.25295,0.4798c0.20256,-0.07474 0.47843,0.05523 0.68099,-0.01951c2.07642,-0.34847 4.26607,0.00224 6.3935,0.05178c3.96782,0.06594 7.80648,0.41094 11.75197,0.67036c0.39393,-0.05265 0.68098,-0.01951 0.96805,0.01362c2.79725,0.12686 5.50998,0.14584 8.30724,0.2727c3.65843,0.22627 7.41258,0.46341 11.07099,0.68969c0.19137,0.02209 0.28706,0.03314 0.47843,0.05523c2.9998,0.05211 6.09529,0.11527 9.17959,0.27528c3.65843,0.22627 7.41256,0.46361 11.07099,0.68969c0.19137,0.02209 0.28705,0.03314 0.47842,0.05523c3.0333,-0.238 5.97725,0.2979 8.97706,0.35002c3.95667,0.16259 8.00902,0.33621 11.96568,0.49898c4.24373,0.19572 8.58315,0.40249 12.83805,0.50137c2.32997,-0.02502 4.63763,0.14325 6.94528,0.31153c2.98863,0.14896 6.09527,0.11547 9.16843,0.37212c0.7655,0.08837 1.62667,0.18778 2.49903,0.19036c4.06352,0.07698 8.12705,0.15378 12.14589,0.61771c1.04138,0.21834 1.99825,0.32881 3.1353,0.55819c-0.90922,2.83648 -1.68925,5.39387 -2.3736,7.96232c-0.58864,2.5793 -1.17731,5.1588 -2.06419,7.80178c-0.47843,-0.05523 -0.7655,-0.08837 -1.05255,-0.12151c-2.41452,-0.08248 -4.68865,-0.54126 -7.12551,-0.43027c-1.06371,-0.02486 -2.14979,0.14394 -3.13532,-0.55799c-0.05881,-2.85029 1.30654,-5.43826 1.46144,-8.45993c-0.57412,-0.06628 -0.95688,-0.11046 -0.87236,-0.00258z" data-paper-data="{&quot;index&quot;:null}" fill="#216aff"/><path d="M407.63801,262.73989c-2.79725,-0.12686 -5.49883,-0.24249 -8.29609,-0.36934c-6.94529,-0.31153 -13.7949,-0.61202 -20.74019,-0.92355c-4.14804,-0.18467 -8.39177,-0.38039 -12.6355,-0.5761c-3.18,-0.17104 -6.2643,-0.33104 -9.4443,-0.5021c-5.40315,-0.23144 -10.71059,-0.45202 -16.11374,-0.68346c-3.28686,-0.08526 -6.65824,-0.2784 -9.93392,-0.46049c-6.94529,-0.31153 -13.79489,-0.61202 -20.74019,-0.92355c-6.07295,-0.30877 -12.15708,-0.52087 -18.24119,-0.733c-6.94529,-0.31153 -13.99745,-0.53728 -20.95392,-0.75198c-3.95664,-0.16278 -8.00901,-0.33639 -11.96568,-0.49898c-1.35079,-0.05781 -2.70156,-0.11581 -4.2214,-0.38919c0.45947,-2.30022 1.27934,-4.36278 1.90782,-6.44725c0.29824,-0.0637 0.59647,-0.12738 0.78784,-0.1053c5.11606,0.19849 10.32785,0.40783 15.44391,0.60632c5.11606,0.19849 10.31666,0.50467 15.43275,0.70296c5.89274,0.19002 11.68979,0.36901 17.57135,0.65587c2.70157,0.11562 5.40315,0.23144 8.10472,0.34725c5.21178,0.20934 10.42353,0.41889 15.63532,0.62823c2.98863,0.14896 5.97724,0.29791 8.96586,0.44685c5.98843,0.20107 11.96569,0.4988 17.95412,0.69987c2.79725,0.12686 5.69017,0.26477 8.48746,0.39143c5.11606,0.19849 10.13647,0.38575 15.25254,0.58424c5.30746,0.2204 10.60373,0.5378 15.91119,0.7582c3.09548,0.06316 6.19098,0.12633 9.27529,0.28633c1.93607,0.02743 3.9455,0.25941 5.87041,0.3835c-0.17241,2.33336 -1.35269,4.15826 -1.15351,6.63245c-0.77667,0.00847 -1.46883,0.12463 -2.16097,0.24078z" data-paper-data="{&quot;index&quot;:null}" fill="#d0e9ea"/><path d="M447.39236,317.33533c-3.69935,-8.27108 -7.07812,-16.79933 -10.36119,-25.31673c-3.44095,-8.82962 -6.58366,-17.72292 -10.53656,-26.31745c-0.85149,-1.8632 -1.24689,-3.47769 -0.52269,-5.5513c1.0496,-3.21258 1.81213,-6.4583 2.67036,-9.69296c0.16269,-0.56939 0.4211,-1.12793 0.87088,-1.66436c0.24238,0.42029 0.50708,0.6469 0.56927,0.94827c1.11136,2.9718 2.30725,6.05129 3.40744,9.11992c2.55594,7.25673 5.21875,14.42767 8.08409,21.52407c1.14487,2.68149 2.27859,5.45962 3.22092,8.21585c1.72678,5.20005 4.06123,10.17588 5.47862,15.53628c0.47992,1.72218 0.77963,3.32561 0.38717,5.04541c-0.71785,2.85857 -1.43571,5.71732 -2.15356,8.57589c-0.01118,0.09683 -0.11802,0.18243 -0.44978,0.53644c-0.24238,-0.42029 -0.49593,-0.74355 -0.66495,-0.95931z" data-paper-data="{&quot;index&quot;:null}" fill="#216aff"/><path d="M376.41475,314.8286c-0.87236,-0.00258 -1.66019,0.10252 -2.52138,0.00312c-2.7861,-0.22351 -5.47647,-0.43615 -8.26257,-0.65965c-4.13687,-0.2815 -8.27373,-0.56302 -12.41061,-0.84433c-5.28511,-0.41406 -10.6659,-0.83917 -16.04668,-1.26428c-4.90236,-0.36987 -9.79356,-0.8364 -14.69592,-1.20627c-0.5853,0.03055 -1.26629,0.05008 -1.79571,-0.40335c-1.5388,-2.62884 -2.86386,-5.42925 -4.18894,-8.22967c-1.38726,-3.10159 -2.88137,-6.11758 -4.16177,-9.30494c-0.84032,-1.96003 -1.88319,-3.84532 -2.4141,-5.96569c-0.051,-0.39819 -0.29338,-0.81829 0.16755,-1.45137c0.53431,-0.42875 1.39548,-0.32934 2.26783,-0.32657c3.66961,0.12944 7.33922,0.25889 11.01999,0.29168c5.32979,0.02691 10.71059,0.45202 16.10256,0.78029c7.02983,0.41922 14.13298,1.04316 21.14043,1.65605c0.57412,0.06628 1.25511,0.04677 1.82923,0.11305c1.14824,0.13256 2.40332,0.17952 3.64725,0.32311c0.87236,0.00258 1.40179,0.45601 1.58833,1.35989c0.12434,0.60272 0.4289,1.32417 0.64894,1.93793c1.40474,3.79009 3.20343,7.52753 4.9064,11.25393c1.61845,3.6187 2.9275,7.39775 4.34342,11.091c-0.35409,0.54749 -0.67463,0.80448 -1.16425,0.84608zM327.98922,287.47095c-2.51019,-0.09371 -4.91354,-0.27304 -7.42374,-0.36677c-0.19137,-0.02209 -0.40508,0.1493 -0.60763,0.22404c-2.59469,-0.2016 -5.1559,-0.69334 -7.81765,-0.31411c0.83548,2.84183 7.10046,16.60586 9.90216,21.73375c1.42412,0.26253 2.96629,0.34244 4.51961,0.3257c0.5853,-0.03055 1.26626,-0.04987 1.84038,0.01641c5.28511,0.41406 10.47455,0.81689 15.66398,1.21989c0.19137,0.02209 0.48958,-0.04141 0.68096,-0.01932c2.7861,0.22351 5.67903,0.36141 8.46513,0.58491c1.80687,0.30671 3.51807,0.60219 5.36963,0.52175c2.4145,0.08268 4.67747,0.6381 7.01862,0.51625c2.93279,0.63255 5.79705,0.17897 8.84787,0.6291c-0.01264,-1.57029 -0.75095,-2.73414 -1.20221,-3.86464c-2.14304,-4.95393 -4.20158,-9.79997 -6.34463,-14.7539c-0.38907,-0.82933 -0.88501,-1.57289 -1.16721,-2.48801c-0.2599,-1.10841 -1.18324,-1.50919 -2.05557,-1.51195c-3.77647,-0.04365 -7.57044,-0.77581 -11.44259,-0.83051c-3.29802,0.01138 -6.64705,-0.37522 -9.92273,-0.55732c-0.57412,-0.06628 -1.25511,-0.04677 -1.82923,-0.11304c-1.90255,-0.31776 -3.7206,-0.52763 -5.66786,-0.45824c-2.22313,-0.06058 -4.43509,-0.21782 -6.82727,-0.49396z" data-paper-data="{&quot;index&quot;:null}" fill="#010201"/><path d="M255.37123,275.65599c-1.35079,-0.05781 -2.79727,-0.12668 -4.15922,-0.08784c-1.66019,0.10252 -2.73022,-0.70749 -3.54188,-2.07584c-2.36161,-3.90056 -4.72325,-7.80092 -7.08484,-11.70147c-0.24238,-0.42029 -0.58044,-0.85143 -0.2997,-1.60344c0.73684,-0.5033 1.6092,-0.50073 2.57721,-0.48691c1.06373,0.02468 2.11629,0.14618 3.19119,0.07421c1.26627,-0.04988 1.98709,0.42544 2.7254,1.58928c2.25476,3.98615 4.20012,8.13284 6.66859,11.94759c0.31572,0.62481 0.63144,1.24963 0.74462,1.94898c-0.34292,0.45066 -0.64114,0.51435 -0.82135,0.39542zM249.04031,270.02255c0.06217,0.30136 0.03983,0.49483 0.11317,0.69955c0.66497,0.95911 1.32993,1.91843 1.98372,2.97438c0.64747,0.27081 1.3061,0.44496 2.12744,0.04954c-0.3954,-1.61449 -1.53879,-2.62902 -2.1479,-4.07194c-0.799,0.20194 -1.38428,0.23231 -2.07642,0.34847zM249.04218,265.80667c-1.25508,-0.04696 -2.42568,0.01416 -3.68076,-0.0328c0.28221,0.91512 0.6936,1.55099 1.29641,2.20874c1.06371,0.02486 2.04293,-0.05834 3.10664,-0.03348c0.10054,-0.87094 -0.41773,-1.42101 -0.72228,-2.14246zM244.55313,261.85658c0.31088,1.50661 0.31089,1.50659 2.73654,1.49264c-0.38421,-1.71133 -1.57714,-1.45672 -2.73654,-1.49264z" data-paper-data="{&quot;index&quot;:null}" fill="#020202"/><path d="M297.89407,285.27139c1.98223,1.30744 2.1479,4.07193 0.33132,5.5292c-2.35083,1.88563 -7.20367,0.24681 -7.92113,-2.77744c-0.37306,-1.80796 0.47547,-3.27885 2.26486,-3.66066c0.799,-0.20194 1.68252,-0.296 2.43684,-0.11081c1.06373,0.02468 1.9871,0.42545 2.88811,1.0197zM293.07771,286.67635c-0.60763,0.22404 -0.79269,0.98709 -0.3701,1.52612c0.49591,0.74374 3.02361,1.52578 3.98533,0.75425c0.52311,-0.33172 0.697,-0.99814 0.27441,-1.53717c-0.41141,-0.63586 -0.96319,-0.89562 -1.92005,-1.00607c-0.6698,-0.07732 -1.36194,0.03884 -1.96958,0.26287z" data-paper-data="{&quot;index&quot;:null}" fill="#030606"/><path d="M302.36037,295.29798c1.36343,1.62811 1.12886,3.66012 -0.73871,4.71918c-0.21371,0.17139 -0.51194,0.23508 -0.81018,0.29879c-1.71604,0.58632 -3.29802,0.01138 -4.86885,-0.6602c-1.10357,-0.5195 -1.89286,-2.08154 -1.74765,-3.33944c0.14521,-1.25789 0.83103,-2.15921 2.03512,-2.51045c0.799,-0.20194 1.60918,-0.50053 2.36352,-0.31552c1.33961,0.15465 2.89927,0.92306 3.76676,1.80762zM297.01606,297.91665c1.09239,0.61634 2.13376,0.83469 3.2645,0.27893c0.61881,-0.32088 0.91071,-1.16954 0.39244,-1.7196c-0.5916,-0.75478 -1.41926,-1.14451 -2.3985,-1.0613c-0.58528,0.03036 -1.18173,0.15756 -1.68252,0.296c-0.46579,1.51507 -0.39244,1.71959 0.42409,2.20597z" data-paper-data="{&quot;index&quot;:null}" fill="#040605"/><path d="M258.99533,287.93862c-1.63932,-1.75808 -1.06183,-4.24074 1.16615,-5.06216c1.60918,-0.50053 3.24703,-0.40958 4.69981,0.44462c1.54849,0.86506 2.20861,2.70616 1.62479,4.40366c-0.32543,1.13916 -1.76556,1.85527 -3.40341,1.76431c-0.19137,-0.02209 -0.28705,-0.03314 -0.47843,-0.05523c-1.53099,-0.17673 -2.73022,-0.70749 -3.60891,-1.49521zM260.32713,285.64115c-0.08936,0.7741 0.68245,1.64763 1.72384,1.86578c0.47843,0.05523 1.0637,0.02487 1.5645,-0.11357c0.8947,-0.1909 1.10209,-1.14743 0.49927,-1.80519c-0.43375,-0.44238 -0.97433,-0.79898 -1.45279,-0.8542c-1.0414,-0.21815 -2.16094,0.24077 -2.33485,0.9072z" data-paper-data="{&quot;index&quot;:null}" fill="#040505"/><path d="M283.13262,286.3127c0.99185,1.48729 0.62175,3.0134 -0.84074,3.92317c-2.40186,1.48763 -6.32015,0.15275 -7.36934,-2.51769c-0.45125,-1.13069 -0.25504,-1.9904 0.69551,-2.66509c1.06856,-0.85712 2.28383,-1.30519 3.6968,-0.94601c1.55332,-0.01674 2.82591,0.71853 3.81778,2.20563zM277.63378,286.07021c-0.58528,0.03036 -0.97288,0.86817 -0.64598,1.39614c0.48476,0.84038 1.31243,1.23011 2.26929,1.34058c0.86118,0.09941 1.57567,-0.21041 2.16581,-1.12277c-0.87383,-1.66972 -2.30913,-1.83541 -3.78912,-1.61396z" data-paper-data="{&quot;index&quot;:null}" fill="#030604"/><path d="M275.22734,307.75583c-1.42898,0.61945 -5.21176,-0.20935 -6.29931,-1.70767c-1.17206,-1.60602 -0.74612,-3.61593 1.08794,-4.38469c1.83408,-0.76894 4.4798,-0.16933 5.84325,1.45878c0.5916,0.75478 1.08754,1.49833 0.90249,2.26139c-0.2409,1.24684 -0.71301,1.97677 -1.53436,2.37219zM272.97256,303.76968c-0.75432,-0.1852 -1.59316,-0.47809 -2.4145,-0.08268c-0.29824,0.0637 -0.43861,0.43961 -0.37642,0.74096c0.07334,0.20453 0.1467,0.40905 0.31572,0.62481c0.51827,0.55007 1.07006,0.80983 1.83555,0.89819c0.7655,0.08837 1.51981,0.27358 2.09879,-0.54213c-0.09083,-0.89303 -0.6091,-1.4431 -1.45913,-1.63916z" data-paper-data="{&quot;index&quot;:null}" fill="#030506"/><path d="M270.61137,293.98611c0.95204,0.99225 0.94234,2.75604 -0.1374,3.70999c-2.17065,2.00455 -6.63443,1.19526 -7.977,-2.29347c-0.45125,-1.13069 0.06556,-2.24777 1.20748,-2.90037c0.92819,-0.48102 1.90741,-0.56423 2.57721,-0.48691c1.62668,0.18778 3.4622,1.08617 4.32971,1.97074zM266.87138,296.98604c1.14824,0.13256 1.35077,0.05801 2.25031,-1.01488c-1.49897,-2.134 -2.62486,-2.46003 -4.69497,-1.32641c0.32204,1.40996 1.1162,2.09001 2.44464,2.3413z" data-paper-data="{&quot;index&quot;:null}" fill="#050504"/><path d="M305.52545,303.99763c2.11143,1.02817 2.27708,3.79287 0.28031,5.1312c-0.52311,0.33172 -1.13074,0.55576 -1.71604,0.58632c-1.36194,0.03884 -2.67923,-0.30929 -3.96297,-0.94791c-0.54063,-0.3564 -0.97436,-0.79879 -1.30126,-1.32676c-0.72715,-1.26049 -0.35705,-2.7866 0.79605,-3.53603c0.85485,-0.68573 1.94093,-0.85453 3.01582,-0.92651c1.03022,0.31498 1.98708,0.42545 2.88811,1.0197zM301.74075,307.38489c0.64747,0.27081 1.40181,0.45582 2.20079,0.25407c0.48961,-0.0416 0.91705,-0.38456 0.9729,-0.86836c0.16269,-0.56939 -0.29337,-0.81829 -0.65379,-1.05596c-1.36827,-0.74632 -2.43201,-0.77099 -3.89451,0.13878c0.09086,0.89284 0.72715,1.26048 1.3746,1.53147z" data-paper-data="{&quot;index&quot;:null}" fill="#050304"/><path d="M290.97136,304.08259c0.89619,1.47605 0.5596,2.71185 -0.80721,3.63267c-0.52313,0.33191 -1.13073,0.55576 -1.72722,0.68315c-1.86271,0.17709 -3.33785,-0.48344 -4.66145,-1.61672c-0.26472,-0.22662 -0.50709,-0.64691 -0.66495,-0.95931c-0.62028,-1.34627 -0.30604,-2.38859 0.85822,-3.23466c1.04623,-0.66364 2.12112,-0.73562 3.46073,-0.58097c1.44649,0.06886 2.63454,0.69645 3.54189,2.07585zM286.20602,305.88554c0.64744,0.271 1.39061,0.55284 2.20079,0.25407c0.60762,-0.22385 0.88836,-0.97585 0.35892,-1.42929c-0.52945,-0.45322 -1.2726,-0.73527 -2.03808,-0.82365c-0.77667,0.00847 -0.96805,-0.01362 -2.03662,0.84349c0.10201,0.79619 0.85633,0.98141 1.51497,1.15537z" data-paper-data="{&quot;index&quot;:null}" fill="#040405"/><path d="M279.47336,297.85265c-1.35226,-1.72494 -0.72376,-3.8096 1.38618,-4.44839c2.21682,-0.72477 5.00921,0.2841 6.23231,2.28811c0.89617,1.47624 0.40804,3.1848 -1.21231,3.78217c-0.91704,0.38438 -1.81173,0.57528 -2.75744,0.36817c-1.53099,-0.17673 -2.81473,-0.81538 -3.64873,-1.99007zM283.66944,295.10124c-0.74316,-0.28185 -1.60434,-0.38126 -2.42568,0.01416c-0.61881,0.32088 -0.79269,0.98709 -0.3701,1.52612c0.50709,0.64691 1.22791,1.12223 2.0891,1.22164c0.95686,0.11046 1.14824,0.13256 2.397,-0.60564c-0.15301,-1.1944 -0.87382,-1.66972 -1.69032,-2.15629z" data-paper-data="{&quot;index&quot;:null}" fill="#040506"/><path d="M378.93439,293.84235c2.90411,0.04108 5.88157,0.28685 8.75216,0.61824c0.6698,0.07732 1.4353,0.1657 1.83554,0.8982c-0.17387,0.66622 -0.59014,0.91235 -1.28227,1.0285c-0.8947,0.1909 -1.63786,-0.09095 -2.51021,-0.09353c-2.40332,-0.17952 -4.6998,-0.44461 -7.10315,-0.62394c-0.6698,-0.07732 -1.32843,-0.25149 -1.62182,-1.06978c0.48327,-0.82656 1.25994,-0.83503 1.92975,-0.7577z" data-paper-data="{&quot;index&quot;:null}" fill="#0c1212"/><path d="M407.84255,302.96448c-0.8947,0.1909 -1.63786,-0.09095 -2.51021,-0.09353c-2.40332,-0.17952 -4.69981,-0.44462 -7.10315,-0.62394c-0.6698,-0.07732 -1.32843,-0.25149 -1.62181,-1.06978c0.48327,-0.82656 1.25994,-0.83503 2.03658,-0.8433c2.91529,-0.05576 5.88158,0.28666 8.75219,0.61806c0.6698,0.07732 1.4353,0.1657 1.83554,0.8982c-0.0782,0.67746 -0.59015,0.91254 -1.38914,1.1143z" data-paper-data="{&quot;index&quot;:null}" fill="#0d1313"/><path d="M430.12448,309.85116c-0.60763,0.22404 -1.1084,0.36228 -1.77821,0.28496c-2.60587,-0.10477 -5.30744,-0.22058 -7.99784,-0.43304c-0.57412,-0.06628 -1.25509,-0.04695 -1.79571,-0.40335c-0.36039,-0.23786 -0.73198,-0.37869 -0.67613,-0.86247c0.25839,-0.55854 0.74802,-0.60014 1.33329,-0.63051c3.03332,-0.2382 6.07295,0.30877 9.17959,0.27528c0.77667,-0.00847 1.60434,0.38126 2.22947,0.84554c0.02866,0.59167 -0.19623,0.8599 -0.49447,0.9236z" data-paper-data="{&quot;index&quot;:null}" fill="#090c0d"/><path d="M407.22414,297.40234c-0.90586,0.28754 -1.68252,0.296 -2.54369,0.19658c-2.21197,-0.15724 -4.31708,-0.40024 -6.45567,-0.35313c-0.77667,0.00847 -1.53099,-0.17673 -2.28533,-0.36176c-0.37158,-0.14102 -0.93453,-0.30394 -0.9632,-0.89561c0.18506,-0.76305 0.85486,-0.68574 1.44016,-0.7163c3.0333,-0.238 5.97724,0.29791 8.98823,0.25319c0.87233,0.00276 1.70001,0.39251 2.42083,0.86783c0.0175,0.68832 -0.30307,0.94549 -0.60132,1.00919z" data-paper-data="{&quot;index&quot;:null}" fill="#090d0e"/><path d="M391.67632,300.21589c0.28706,0.03314 0.54061,0.35659 0.50709,0.64691c-0.0335,0.29012 -0.24722,0.46171 -0.55662,0.62204c-1.01271,0.37332 -2.08761,0.4453 -3.15135,0.42063c-2.40334,-0.17932 -4.69982,-0.44442 -7.13665,-0.33362c-0.39393,0.05265 -0.86118,-0.09941 -1.32843,-0.25148c-0.19137,-0.02209 -0.34925,-0.3343 -0.42258,-0.53903c-0.06217,-0.30136 0.067,-0.58044 0.37642,-0.74096c0.33173,-0.35382 0.82134,-0.39543 1.29978,-0.34019c2.90411,0.04108 5.8082,0.08233 8.61664,0.11236c0.6698,0.07732 1.14825,0.13255 1.79571,0.40335z" data-paper-data="{&quot;index&quot;:null}" fill="#080b0b"/><path d="M430.21975,315.74521c-3.18,-0.17104 -6.44451,-0.44978 -9.62452,-0.62082c-0.38275,-0.04419 -0.75432,-0.18521 -1.12591,-0.32603c-0.27589,-0.12997 -0.52943,-0.45342 -0.4959,-0.74374c0.04467,-0.38696 0.35406,-0.54729 0.6523,-0.61099c0.69214,-0.11615 1.27744,-0.14672 1.86274,-0.17727c1.63784,0.09114 3.38253,0.09649 5.02037,0.18744c1.25511,0.04677 2.40335,0.17932 3.64728,0.32292c0.6698,0.07732 1.4353,0.1657 1.71749,1.08081c-0.47211,0.72992 -1.07975,0.95395 -1.65386,0.88767z" data-paper-data="{&quot;index&quot;:null}" fill="#07090a"/><path d="M410.39217,309.43606c-1.62668,-0.18778 -3.18002,-0.17086 -4.81784,-0.26199c-1.24393,-0.1436 -2.59471,-0.20141 -3.83865,-0.34501c-0.57412,-0.06628 -1.05255,-0.12151 -1.49747,-0.46704c-0.18019,-0.11892 -0.34924,-0.3345 -0.3269,-0.52798c0.02234,-0.19348 0.15153,-0.47275 0.35409,-0.54749c0.59646,-0.1272 1.19291,-0.2544 1.77821,-0.28496c1.7447,0.00535 3.48938,0.0107 5.22292,0.1127c1.25511,0.04677 2.40335,0.17932 3.64727,0.32291c0.6698,0.07732 1.33961,0.15465 1.7175,1.08082c-0.67466,0.80466 -1.547,0.8019 -2.23913,0.91805z" data-paper-data="{&quot;index&quot;:null}" fill="#07090a"/><path d="M423.912,298.15207c-1.25511,-0.04677 -2.39216,-0.27616 -3.65845,-0.22608c-1.64902,0.00569 -3.38255,-0.09629 -5.00922,-0.28409c-0.47843,-0.05523 -1.04137,-0.21835 -1.50863,-0.37042c-0.27591,-0.12978 -0.54061,-0.35659 -0.49593,-0.74356c0.04467,-0.38696 0.35408,-0.54748 0.6523,-0.61099c0.50079,-0.13844 1.08607,-0.16881 1.57568,-0.21041c1.7447,0.00535 3.4894,0.01071 5.22293,0.1127c1.25511,0.04677 2.40334,0.17932 3.64727,0.32292c0.6698,0.07732 1.32843,0.25149 1.70632,1.17765c-1.35562,0.82398 -1.35562,0.82398 -2.13227,0.83225z" data-paper-data="{&quot;index&quot;:null}" fill="#060909"/><path d="M417.47676,301.82153c2.71273,0.01898 5.49882,0.24268 8.20038,0.35849c0.5853,-0.03055 1.14824,0.13256 1.61552,0.28443c0.37158,0.14102 0.82766,0.38973 0.66495,0.95931c-1.23761,0.64155 -1.23761,0.64155 -2.30132,0.61669c-1.44649,-0.06886 -2.98865,-0.14876 -4.53079,-0.22886c-1.54217,-0.07991 -3.07315,-0.25664 -4.60413,-0.43338c-0.57412,-0.06628 -1.23275,-0.24043 -1.31242,-1.23012c0.73684,-0.5033 1.51349,-0.51157 2.26782,-0.32656z" data-paper-data="{&quot;index&quot;:null}" fill="#060909"/><path d="M384.84824,311.48795c0.51195,-0.23508 1.1084,-0.36229 1.58684,-0.30705c2.9998,0.05211 5.98843,0.20107 8.97706,0.35002c0.57412,0.06628 1.14823,0.13257 1.4863,0.5637c0.05102,0.398 -0.08936,0.7741 -0.49444,0.9234c-0.72566,0.40647 -1.50233,0.41493 -2.27898,0.42321c-2.79727,-0.12667 -5.6902,-0.26458 -8.48745,-0.39144c-0.47843,-0.05523 -0.95686,-0.11046 -1.29494,-0.5416c-0.14668,-0.40924 -0.09085,-0.89303 0.50563,-1.02023z" data-paper-data="{&quot;index&quot;:null}" fill="#070909"/><path d="M402.2394,312.02489c0.70332,-0.21299 1.49115,-0.3181 2.25665,-0.22973c2.59472,0.20141 5.18943,0.40282 7.77297,0.70107c0.47843,0.05523 0.84999,0.19625 1.31725,0.34832c0.18022,0.11874 0.34925,0.3343 0.42258,0.53903c0.06217,0.30136 -0.16269,0.56938 -0.37642,0.74096c-0.72566,0.40647 -1.50231,0.41474 -2.2678,0.32637c-2.59472,-0.20141 -5.18943,-0.40282 -7.78413,-0.60443c-0.86118,-0.09941 -1.51983,-0.27338 -2.12261,-0.93134c0.15153,-0.47275 0.37642,-0.74096 0.7815,-0.89026z" data-paper-data="{&quot;index&quot;:null}" fill="#050606"/><path d="M384.49941,305.27044c2.69042,0.21246 5.28511,0.41406 7.96433,0.72336c0.47843,0.05523 0.85002,0.19606 1.31728,0.34812c0.18019,0.11892 0.34924,0.3345 0.3269,0.52798c0.07334,0.20453 -0.15153,0.47275 -0.2584,0.55854c-0.64112,0.51415 -1.4178,0.52262 -2.18329,0.43426c-2.70156,-0.11581 -5.26277,-0.60754 -7.97551,-0.62652c-0.77667,0.00847 -1.51981,-0.27356 -2.11143,-1.02817c0.98406,-0.96501 1.95208,-0.95119 2.92012,-0.93756z" data-paper-data="{&quot;index&quot;:null}" fill="#050606"/><path d="M365.20045,311.18075c-5.90834,-5.09441 -11.69866,-10.37125 -17.38214,-15.73371c-2.26443,-2.22256 -4.63576,-4.35914 -6.91137,-6.48486c-0.08451,-0.10788 -0.25355,-0.32345 -0.3269,-0.52798c0.57412,0.06628 1.25511,0.04677 1.82923,0.11305c3.37137,0.19314 6.63588,0.47186 9.92273,0.55732c3.77647,0.04365 7.57044,0.77581 11.44259,0.83051c0.87233,0.00276 1.7,0.3925 2.05558,1.51196c0.1977,0.80724 0.77814,1.65868 1.16721,2.48801c2.14304,4.95393 4.29728,9.81101 6.34463,14.7539c0.44009,1.22734 1.0827,2.38013 1.2022,3.86464c-3.05082,-0.45012 -6.01075,-0.00758 -8.84787,-0.62909c-0.26471,-0.22681 -0.3269,-0.52798 -0.49591,-0.74375z" data-paper-data="{&quot;index&quot;:null}" fill="#00ff00"/><path d="M328.51973,295.47434c5.53678,4.9534 11.08471,9.81015 16.40777,14.93492c-0.19137,-0.02209 -0.4896,0.0416 -0.68098,0.01951c-5.28511,-0.41406 -10.47453,-0.81707 -15.66394,-1.22008c-0.57412,-0.06628 -1.25511,-0.04677 -1.8404,-0.01621c-1.55332,0.01674 -3.09548,-0.06316 -4.51961,-0.3257c-2.81285,-5.03125 -9.07783,-18.79527 -9.90214,-21.73394c2.66172,-0.37902 5.22292,0.1127 7.81765,0.31412c2.79388,2.6758 5.48089,5.43737 8.38166,8.02738z" data-paper-data="{&quot;index&quot;:null}" fill="#00ff00"/><path d="M320.84139,287.23417c2.51021,0.09352 4.92471,0.17621 7.42373,0.36676c2.87841,2.78349 5.85251,5.57801 8.82659,8.37273c4.11749,3.80908 8.24616,7.52131 12.36363,11.33037c1.3236,1.13328 2.54034,2.35235 3.85276,3.58246c-2.7861,-0.22351 -5.67903,-0.36141 -8.46513,-0.58491c-5.32304,-5.12496 -10.96667,-9.99257 -16.40775,-14.93511c-2.80506,-2.57896 -5.50326,-5.2437 -8.29714,-7.9195c0.20253,-0.07455 0.40509,-0.1493 0.7033,-0.2128z" data-paper-data="{&quot;index&quot;:null}" fill="#87ff87"/><path d="M358.77342,311.41929c-3.50354,-3.24777 -7.11393,-6.41012 -10.51061,-9.74367c-3.57688,-3.45248 -7.14258,-7.00179 -10.60141,-10.63691c-0.9632,-0.89561 -2.22461,-1.72753 -2.74922,-3.06275c1.94725,-0.06939 3.76529,0.14049 5.66786,0.45824c0.08452,0.10769 0.14671,0.40905 0.3269,0.52798c2.36014,2.23341 4.63576,4.35914 6.91137,6.48486c5.68348,5.36243 11.4738,10.63929 17.38214,15.73371c0.16901,0.21576 0.3269,0.52798 0.49591,0.74375c-2.43684,0.11081 -4.6998,-0.44463 -6.92293,-0.50521z" data-paper-data="{&quot;index&quot;:null}" fill="#86ff86"/><path d="M353.19007,311.06892c-1.3236,-1.13328 -2.54034,-2.35234 -3.85278,-3.58227c-4.11749,-3.80908 -8.24612,-7.5215 -12.36362,-11.33057c-2.9741,-2.79452 -5.85249,-5.5782 -8.82659,-8.37273c2.22313,0.06058 4.43509,0.21782 6.65823,0.2784c0.62028,1.34627 1.7972,2.0703 2.74921,3.06276c3.45886,3.63491 7.02456,7.18422 10.60144,10.63671c3.49234,3.34479 7.00707,6.49591 10.51059,9.74386c-1.85157,0.08044 -3.56275,-0.21523 -5.47648,-0.43616z" data-paper-data="{&quot;index&quot;:null}" fill="#01ff01"/><path d="M253.26463,273.74603c-0.72566,0.40647 -1.47997,0.22127 -2.12744,-0.04954c-0.74948,-1.06699 -1.31876,-2.01526 -1.98372,-2.97438c-0.07333,-0.20472 -0.05099,-0.3982 -0.11317,-0.69955c0.69214,-0.11615 1.2886,-0.24335 2.07642,-0.34847c0.59795,1.53974 1.74133,2.55429 2.1479,4.07194z" data-paper-data="{&quot;index&quot;:null}" fill="#589ca0"/><path d="M246.65783,267.98262c-0.61396,-0.56111 -1.02536,-1.19697 -1.29641,-2.20874c1.35077,0.05801 2.52136,-0.00311 3.68076,0.0328c0.30456,0.72146 0.83398,1.17488 0.72228,2.14246c-1.17057,0.06093 -2.13862,0.04729 -3.10664,0.03348z" data-paper-data="{&quot;index&quot;:null}" fill="#5ba3a7"/><path d="M244.55313,261.85658c1.15939,0.03591 2.36351,-0.31553 2.73654,1.49264c-2.42566,0.01396 -2.42565,0.01398 -2.73654,-1.49264z" data-paper-data="{&quot;index&quot;:null}" fill="#56999d"/><path d="M296.96735,287.41955c0.42258,0.53903 0.25988,1.1086 -0.27441,1.53717c-0.95054,0.67468 -3.39373,0.00053 -3.98533,-0.75425c-0.33808,-0.43114 -0.23754,-1.30209 0.3701,-1.52612c0.60763,-0.22404 1.29978,-0.34019 1.96958,-0.26287c0.95686,0.11046 1.50864,0.37021 1.92005,1.00607z" data-paper-data="{&quot;index&quot;:null}" fill="#01f4f4"/><path d="M298.27452,295.41468c0.97921,-0.08321 1.80689,0.30652 2.3985,1.0613c0.51827,0.55007 0.32206,1.40977 -0.39244,1.7196c-1.13074,0.55576 -2.26779,0.32637 -3.2645,-0.27893c-0.8165,-0.48637 -0.88987,-0.6909 -0.42409,-2.20597c0.48961,-0.0416 1.09725,-0.26564 1.68252,-0.296z" data-paper-data="{&quot;index&quot;:null}" fill="#35a76d"/><path d="M264.11476,285.58818c0.6028,0.65775 0.31088,1.50661 -0.49927,1.80519c-0.50079,0.13844 -0.99038,0.17985 -1.5645,0.11357c-1.0414,-0.21815 -1.9089,-1.10272 -1.72384,-1.86578c0.16271,-0.56958 1.28229,-1.02869 2.33485,-0.9072c0.47843,0.05523 1.03022,0.31499 1.45279,0.8542z" data-paper-data="{&quot;index&quot;:null}" fill="#da6694"/><path d="M279.2571,288.80694c-0.86118,-0.09941 -1.68885,-0.48914 -2.26929,-1.34058c-0.43377,-0.44219 -0.04616,-1.27999 0.64598,-1.39614c1.49115,-0.3181 2.92645,-0.15241 3.78912,1.61396c-0.49445,0.9234 -1.2201,1.32986 -2.16581,1.12277z" data-paper-data="{&quot;index&quot;:null}" fill="#01f001"/><path d="M272.4286,305.96202c-0.7655,-0.08837 -1.41296,-0.35916 -1.83555,-0.89819c-0.16901,-0.21576 -0.24237,-0.42028 -0.31572,-0.62481c-0.06217,-0.30136 0.06703,-0.58063 0.37643,-0.74097c0.82134,-0.39543 1.66018,-0.10252 2.4145,0.08268c0.75434,0.18501 1.26143,0.83192 1.36343,1.62811c-0.66348,0.70783 -1.42898,0.61945 -2.00309,0.55317z" data-paper-data="{&quot;index&quot;:null}" fill="#008bda"/><path d="M269.12171,295.97115c-0.89955,1.07289 -1.10208,1.14744 -2.25031,1.01488c-1.33961,-0.15465 -2.1226,-0.93133 -2.44464,-2.3413c2.0701,-1.13362 3.19601,-0.80758 4.69497,1.32641z" data-paper-data="{&quot;index&quot;:null}" fill="#ebe502"/><path d="M304.26065,305.71465c0.36042,0.23767 0.7208,0.47552 0.65379,1.05596c-0.15153,0.47275 -0.47211,0.72991 -0.9729,0.86836c-0.7033,0.2128 -1.45764,0.02779 -2.20079,-0.25407c-0.65863,-0.17416 -1.19923,-0.53074 -1.3746,-1.53147c1.46249,-0.90978 2.53739,-0.98175 3.89451,-0.13878z" data-paper-data="{&quot;index&quot;:null}" fill="#f30001"/><path d="M286.62078,303.97246c0.77667,-0.00847 1.42412,0.26253 2.03808,0.82364c0.52945,0.45322 0.3444,1.21629 -0.35892,1.42929c-0.70332,0.21299 -1.45764,0.02779 -2.20079,-0.25407c-0.56294,-0.16311 -1.31727,-0.34813 -1.40811,-1.24117c1.16425,-0.84607 1.27112,-0.93186 1.92976,-0.7577z" data-paper-data="{&quot;index&quot;:null}" fill="#de93ad"/><path d="M282.96276,297.86316c-0.86118,-0.09941 -1.48632,-0.5637 -2.0891,-1.22164c-0.41141,-0.63586 -0.24872,-1.20525 0.3701,-1.52612c0.82134,-0.39543 1.6937,-0.39284 2.42568,-0.01416c0.82766,0.38973 1.54846,0.86526 1.69032,2.15629c-1.24876,0.7382 -1.45131,0.81294 -2.397,0.60564z" data-paper-data="{&quot;index&quot;:null}" fill="#865492"/></g><g stroke="#000000"><path d="M275.28487,232.90335c21.86238,25.16655 19.75609,34.5803 13.6477,39.8867c-6.1084,5.30641 -28.78318,-10.79342 -50.64556,-35.95998c-21.86237,-25.16656 50.35417,-24.65685 56.46257,-29.96327c7.02913,-0.95896 5.68988,5.42885 -0.01126,10.83746c-7.03083,6.67008 -21.32215,13.04794 -19.45346,15.19909z" fill="#216aff" stroke-width="2"/><path d="M300.83483,243.88287c9.38389,10.80212 8.00883,27.36188 -3.07129,36.98727c-11.08012,9.62538 -27.66948,8.67145 -37.05336,-2.13067c-9.38389,-10.80212 -8.00881,-27.36189 3.07131,-36.98727c11.08012,-9.62538 27.66947,-8.67145 37.05336,2.13067z" fill="#faddbf" stroke-width="2"/><path d="M263.18283,261.1332c9.38389,10.80212 45.39673,9.20516 34.31662,18.83054c-11.08012,9.62538 -27.66948,8.67145 -37.05336,-2.13067c-9.38389,-10.80212 -6.64715,-27.50199 2.73673,-16.69986z" fill="#ef8b89" stroke-width="0"/></g></g></g></svg>