<svg version="1.1" xmlns="http://www.w3.org/2000/svg" xmlns:xlink="http://www.w3.org/1999/xlink" width="962.37926" height="529.52703" viewBox="0,0,962.37926,529.52703"><defs><linearGradient x1="266.35886" y1="-93.0764" x2="266.35886" y2="433.95063" gradientUnits="userSpaceOnUse" id="color-1"><stop offset="0" stop-color="#00b3ff"/><stop offset="1" stop-color="#3300ff"/></linearGradient><linearGradient x1="320.82531" y1="150.6837" x2="320.82531" y2="319.70784" gradientUnits="userSpaceOnUse" id="color-2"><stop offset="0" stop-color="#01c20f"/><stop offset="1" stop-color="#2d6d5d"/></linearGradient><linearGradient x1="209.7285" y1="55.13349" x2="209.7285" y2="131.60051" gradientUnits="userSpaceOnUse" id="color-3"><stop offset="0" stop-color="#ff2121"/><stop offset="1" stop-color="#850e62"/></linearGradient><linearGradient x1="320.29345" y1="40.80856" x2="333.25321" y2="110.28564" gradientUnits="userSpaceOnUse" id="color-4"><stop offset="0" stop-color="#ff2121"/><stop offset="1" stop-color="#850e62"/></linearGradient><linearGradient x1="210.32593" y1="46.0156" x2="210.32593" y2="122.48264" gradientUnits="userSpaceOnUse" id="color-5"><stop offset="0" stop-color="#ff2121"/><stop offset="1" stop-color="#850e62"/></linearGradient><linearGradient x1="320.89089" y1="31.69071" x2="333.85064" y2="101.16777" gradientUnits="userSpaceOnUse" id="color-6"><stop offset="0" stop-color="#ff2121"/><stop offset="1" stop-color="#850e62"/></linearGradient></defs><g transform="translate(160.38284,94.3264)"><g data-paper-data="{&quot;isPaintingLayer&quot;:true}" fill-rule="nonzero" stroke-linecap="butt" stroke-linejoin="miter" stroke-miterlimit="10" stroke-dasharray="" stroke-dashoffset="0" style="mix-blend-mode: normal"><path d="M-143.99399,433.95063v-527.02703h820.7057v527.02703z" fill="url(#color-1)" stroke="#40f9ff" stroke-width="2.5"/><path d="" fill="#2d6d5d" stroke="#000000" stroke-width="2"/><path d="M-159.30628,319.70784l13.7688,-186.46708l940.98622,44.27217l5.50819,142.19492z" fill="url(#color-2)" stroke="#2d5459" stroke-width="2"/><path d="M223.58567,187.22024v-105.4164l135.197,-4.30907l10.50335,82.41092z" fill="#ffffff" stroke="#90bcff" stroke-width="2"/><path d="M98.18888,228.11145c0,0 -2.47632,-36.61399 -1.19569,-44.89519c1.00511,-6.49945 8.10041,-16.8209 8.10041,-16.8209l261.04093,-8.53147l9.47456,27.59748c0,0 -74.41077,3.48832 -117.66012,8.62415c-48.64079,5.77606 -159.76009,34.02594 -159.76009,34.02594z" fill-opacity="0.50196" fill="#000000" stroke="#660049" stroke-width="0"/><path d="M119.21341,187.75458v-105.95985l104.4997,-0.23986c0,0 -0.24392,36.74025 10.02712,53.11561c4.82248,7.68859 76.0501,12.03718 111.89993,8.37855c14.65995,-1.49612 22.02193,-4.10668 21.61417,1.37194c1.15857,3.32604 2.62177,15.60255 2.62177,15.60255c0,0 -133.94591,26.85056 -150.00714,27.67878c-25.61708,1.32097 -100.65556,0.05228 -100.65556,0.05228z" fill="#90bcff" stroke="#000000" stroke-width="0"/><path d="M109.13745,187.47298v-104.76421l83.35349,-1.07741c0,0 7.53991,59.44278 24.04216,67.86676c15.70843,8.01876 53.00848,30.42002 53.00848,30.42002c0,0 -33.50973,7.15889 -46.96857,8.3867c-10.72767,0.97865 -21.8202,0.07833 -27.04369,0.05868c-20.8128,-0.07831 -86.39187,-0.89054 -86.39187,-0.89054z" fill="#88b2f2" stroke="none" stroke-width="0"/><path d="M96.5644,189.95171v-107.53036l83.35349,-1.10586c0,0 3.91509,66.08703 20.41733,74.73343c3.38324,13.02002 56.6333,26.14847 56.6333,26.14847c0,0 -33.50973,7.34792 -46.96857,8.60814c-10.72767,1.00449 -21.8202,0.0804 -27.04369,0.06022c-20.8128,-0.08037 -86.39187,-0.91405 -86.39187,-0.91405z" fill="#79a0d9" stroke="none" stroke-width="0"/><path d="M238.08556,157.22917c-4.48071,-27.04823 9.72812,-53.43933 31.7363,-58.94615c22.00818,-5.50683 43.48166,11.95594 47.96237,39.00417c2.31622,13.98212 3.72918,30.24899 -5.91028,33.86513c-8.59987,3.22616 -21.29526,3.82598 -33.09757,6.87643c-21.96487,5.67711 -36.21011,6.24865 -40.69082,-20.79958z" fill="#873412" stroke="#741d23" stroke-width="1.5"/><path d="M238.33652,157.80323c-0.98308,-5.93444 -0.71468,-9.87741 0.53825,-12.46437c4.45772,-9.204 20.78889,1.466 38.14991,-2.02823c22.00818,-4.42956 36.52981,-32.49761 41.01051,-5.44938c2.31622,13.98212 3.72918,30.24899 -5.91028,33.86513c-8.59987,3.22616 -21.29526,3.82598 -33.09757,6.87643c-21.96487,5.67711 -36.21011,6.24865 -40.69082,-20.79958z" fill="#732b0f" stroke="#741d23" stroke-width="0"/><path d="M238.33016,157.21276c-0.71904,-4.34055 -1.28484,-7.7438 -0.5565,-8.87783c1.98804,-3.09543 5.09854,20.49522 13.97337,27.44453c8.13473,6.36979 23.16568,0.03993 32.00193,-2.17105c8.33883,-2.08652 25.04919,-1.07663 29.90789,-11.21334c5.48852,-11.4507 -1.26447,-34.04307 1.56525,-33.79261c1.27658,0.11299 1.94155,3.44556 2.80674,8.66832c2.31622,13.98212 3.72918,30.24899 -5.91028,33.86513c-8.59987,3.22616 -21.29526,3.82598 -33.09757,6.87643c-21.96487,5.67711 -36.21011,6.24865 -40.69082,-20.79958z" fill="#59220c" stroke="#741d23" stroke-width="0"/><path d="M154.54962,140.43378l-3.47034,-50.89692l207.40591,-21.20724l4.2397,43.24468c0,0 -68.5096,-3.59004 -103.18215,-0.04477c-34.46146,3.52368 -104.99313,28.90425 -104.99313,28.90425z" fill-opacity="0.50196" fill="#000000" stroke="#660049" stroke-width="0"/><path d="M135.56546,86.35629l117.28283,-31.2228c0,0 27.23703,6.0314 30.64461,14.03664c2.94411,6.91643 -11.38554,31.20759 -11.38554,31.20759l-117.28283,31.2228z" fill="url(#color-3)" stroke="#660049" stroke-width="2"/><path d="M379.36559,101.68417l-108.15782,-0.78884l2.9733,-51.48527l108.15782,0.78884z" data-paper-data="{&quot;index&quot;:null}" fill="url(#color-4)" stroke="#660049" stroke-width="2"/><path d="M136.1629,77.23841l117.28283,-31.2228c0,0 27.23703,6.0314 30.64461,14.03664c2.94411,6.91643 -11.38554,31.20759 -11.38554,31.20759l-117.28283,31.2228z" fill="url(#color-5)" stroke="#660049" stroke-width="2"/><path d="M379.96302,92.56631l-108.15782,-0.78884l2.9733,-51.48527l108.15782,0.78884z" data-paper-data="{&quot;index&quot;:null}" fill="url(#color-6)" stroke="#660049" stroke-width="2"/><path d="M257.46346,130.75545c-1.38488,-10.07156 5.65706,-19.35885 15.72863,-20.74373c10.07156,-1.38488 19.35885,5.65706 20.74373,15.72863c1.38488,10.07156 -35.08748,15.08666 -36.47236,5.0151z" fill="#000000" stroke="#741d23" stroke-width="2.5"/></g></g></svg>