<svg version="1.1" xmlns="http://www.w3.org/2000/svg" xmlns:xlink="http://www.w3.org/1999/xlink" width="246.07017" height="54.88966" viewBox="0,0,246.07017,54.88966"><g transform="translate(-314.09768,-150.50871)"><g data-paper-data="{&quot;isPaintingLayer&quot;:true}" fill-rule="nonzero" stroke-linejoin="miter" stroke-miterlimit="10" stroke-dasharray="" stroke-dashoffset="0" style="mix-blend-mode: normal"><text transform="translate(316.27943,191.08926) scale(0.8727,0.8727)" font-size="40" xml:space="preserve" fill="#000000" fill-rule="nonzero" stroke="#000000" stroke-width="5" stroke-linecap="butt" stroke-linejoin="miter" stroke-miterlimit="10" stroke-dasharray="" stroke-dashoffset="0" font-family="&quot;Comic Sans MS&quot;, Sans Serif" font-weight="normal" text-anchor="start" style="mix-blend-mode: normal"><tspan x="0" dy="0">Splitathon</tspan></text><text transform="translate(315.68644,190.89688) scale(0.8727,0.8727)" font-size="40" xml:space="preserve" fill="#ffffff" fill-rule="nonzero" stroke="#000000" stroke-width="0" stroke-linecap="butt" stroke-linejoin="miter" stroke-miterlimit="10" stroke-dasharray="" stroke-dashoffset="0" font-family="&quot;Comic Sans MS&quot;, Sans Serif" font-weight="normal" text-anchor="start" style="mix-blend-mode: normal"><tspan x="0" dy="0">Splitathon</tspan></text><path d="M498.61461,178.33953c-0.12576,0.07074 -1.25788,0.48725 -0.98965,0.80988c0.28688,0.34507 1.23123,-0.36492 1.23123,0.51424c0,0.72449 -1.77292,0.62686 -2.11112,0.0954c-0.5005,-0.7865 0.32482,-1.65282 0.87871,-2.06747c0.13709,-0.10263 0.83379,-0.47239 0.99447,-0.19121c0.1424,0.08405 0.23794,0.23906 0.23794,0.41639c0,0.15724 -0.07511,0.29692 -0.1914,0.38515c-0.01488,0.0144 -0.03146,0.02708 -0.05018,0.03761z" fill="#000000" stroke="none" stroke-width="1" stroke-linecap="butt"/><path d="M509.36008,178.79011c0,-13.685 11.09389,-24.77889 24.77889,-24.77889c13.685,0 24.77889,11.09389 24.77889,24.77889c0,13.685 -11.09388,24.77889 -24.77889,24.77889c-13.685,0 -24.77889,-11.09388 -24.77889,-24.77889z" fill="#ff0000" stroke="#000000" stroke-width="2.5" stroke-linecap="butt"/><path d="M521.96845,171.29385c0,-0.62392 -5.5897,-0.66119 -5.27213,-2.11185c1.06588,-4.86898 10.04907,-15.51378 17.23238,-15.51378c9.3235,0 16.88169,2.2034 16.88169,4.92144c0,2.71804 -7.55819,4.92145 -16.88169,4.92145c-9.3235,0 -11.96025,10.50078 -11.96025,7.78274z" fill="#ff0000" stroke="#000000" stroke-width="2.5" stroke-linecap="butt"/><path d="M508.2342,178.44711c0,-8.08934 3.26139,-14.52324 7.77949,-14.37727c1.67783,0.05421 1.06227,5.85058 4.06631,5.85058c4.85971,0 6.46906,-4.63137 7.12909,-3.75864c0.84665,1.11947 -0.09028,8.34069 -0.09028,14.57437c0,11.09339 8.40376,21.57423 -2.68963,21.57423c-11.09339,0 -16.19498,-12.76989 -16.19498,-23.86327z" fill="#ff0000" stroke="#000000" stroke-width="2.5" stroke-linecap="butt"/><path d="M512.46893,162.59548c0,-5.87855 7.22513,-10.64405 16.13776,-10.64405c8.91264,0 29.07085,5.10886 29.07085,10.9874c0,3.40408 -6.75944,4.14521 -14.18056,5.9967c-5.39452,1.34588 -11.13867,4.30399 -14.89029,4.30399c-8.91263,0 -16.13776,-4.76551 -16.13776,-10.64405z" fill="#ff0000" stroke="#000000" stroke-width="2.5" stroke-linecap="butt"/><path d="M523.79968,171.6372c0,-8.28053 7.62832,-5.60816 15.90885,-5.60816c8.28053,0 18.77015,-9.65396 18.77015,-1.37343c0,8.28053 -34.679,15.07623 -34.679,6.98158z" fill="#ff0000" stroke="#000000" stroke-width="2.5" stroke-linecap="butt"/><path d="M556.71392,178.07035l-20.58023,2.92956" fill="none" stroke="#000000" stroke-width="2.5" stroke-linecap="round"/><path d="M544.18999,180.414l0.3662,12.08448" fill="none" stroke="#000000" stroke-width="2.5" stroke-linecap="round"/><path d="M549.9759,191.54637l-0.73239,-12.23096" fill="none" stroke="#000000" stroke-width="2.5" stroke-linecap="round"/><path d="M534.22947,195.35482l5.49294,0.73239" fill="none" stroke="#000000" stroke-width="2.5" stroke-linecap="round"/><path d="M493.11578,173.02572c4.04942,-12.49584 17.46201,-19.34302 29.95785,-15.2936c12.49585,4.04942 19.34302,17.46201 15.2936,29.95785c-4.04942,12.49585 -17.46201,19.34302 -29.95785,15.2936c-12.49585,-4.04942 -19.34302,-17.46201 -15.2936,-29.95785z" fill="#001aff" stroke="#000000" stroke-width="2.5" stroke-linecap="butt"/><path d="M539.24199,181.88536l-8.35724,4.03491l-2.80812,-8.67487l-11.44352,2.52392l-4.61706,-8.13722l-10.02923,2.57356l-3.61286,-9.34433" fill="none" stroke="#000000" stroke-width="2.5" stroke-linecap="round"/><path d="M518.67635,183.08812l-5.35486,11.68409" fill="none" stroke="#000000" stroke-width="2.5" stroke-linecap="round"/><path d="M519.91559,196.47341l5.35705,-11.42196" fill="none" stroke="#000000" stroke-width="2.5" stroke-linecap="round"/><path d="M521.08664,182.79662l-12.03749,-1.0663" fill="none" stroke="#000000" stroke-width="2.5" stroke-linecap="round"/><path d="M523.25499,184.23195l8.85817,-0.08948" fill="none" stroke="#000000" stroke-width="2.5" stroke-linecap="round"/><path d="M508.45418,191.46998c-0.29332,0.165 -2.93396,1.13649 -2.30833,1.88903c0.66913,0.80486 2.87181,-0.85117 2.87181,1.19944c0,1.68987 -4.1353,1.46213 -4.92413,0.22253c-1.16741,-1.83449 0.75764,-3.85516 2.04957,-4.82234c0.31978,-0.23939 1.9448,-1.10184 2.31958,-0.44599c0.33216,0.19604 0.55499,0.55761 0.55499,0.97123c0,0.36674 -0.17518,0.69257 -0.44644,0.89837c-0.0347,0.03359 -0.07338,0.06316 -0.11704,0.08772z" fill="#000000" stroke="none" stroke-width="2.5" stroke-linecap="butt"/></g></g></svg>