<svg version="1.1" xmlns="http://www.w3.org/2000/svg" xmlns:xlink="http://www.w3.org/1999/xlink" width="210.42412" height="314.37564" viewBox="0,0,210.42412,314.37564"><g transform="translate(-178.55119,-31.20439)"><g data-paper-data="{&quot;isPaintingLayer&quot;:true}" fill-rule="nonzero" stroke-linejoin="miter" stroke-miterlimit="10" stroke-dasharray="" stroke-dashoffset="0" style="mix-blend-mode: normal"><g data-paper-data="{&quot;index&quot;:null}" stroke="#000000" stroke-linecap="butt"><path d="M387.89976,180.59854l-47.91154,3.77979l-4.01076,-50.83946l47.91153,-3.77979z" fill="#ffcaa0" stroke-width="2"/><g><path d="M340.18109,184.5307l-66.06476,5.21191l-4.06305,-51.5021l66.06476,-5.21191z" fill="#0000c0" stroke-width="2"/><path d="M340.33443,183.77271l-34.60276,2.72984c0,0 13.15809,-16.53969 12.48357,-25.0897c-0.63954,-8.10669 -16.43134,-24.95124 -16.43134,-24.95124l34.60277,-2.72984c0,0 1.29847,16.45897 1.95289,24.7543c0.66142,8.38405 1.99489,25.28664 1.99489,25.28664z" fill="#56006b" stroke-width="0"/></g><path d="M387.29493,179.85311l-47.91154,3.77978l31.44444,-15.60442l12.45633,-39.01481z" fill="#ff6e5b" stroke-width="0"/></g><g data-paper-data="{&quot;index&quot;:null}" stroke="#000000" stroke-linecap="butt"><path d="M368.10828,112.02941c-3.12252,32.05354 -17.4819,56.88583 -32.07258,55.46447c-14.59068,-1.42136 -23.88746,-28.55813 -20.76494,-60.61166c3.12252,-32.05354 17.48189,-56.88582 32.07257,-55.46446c14.59068,1.42136 23.88747,28.55813 20.76495,60.61167z" fill="#01930e" stroke-width="2"/><path d="M325.3819,97.77116c-3.12252,32.05354 25.68653,70.75092 11.09587,69.32956c-14.59067,-1.42136 -23.88747,-28.55813 -20.76495,-60.61167c3.12252,-32.05354 12.7916,-40.77143 9.66908,-8.71789z" fill="#31525b" stroke-width="0"/></g><g data-paper-data="{&quot;index&quot;:null}" stroke="#000000" stroke-linecap="butt"><path d="M236.44531,344.13567v-90.27109h61.17899v90.27109z" fill="#273750" stroke-width="2"/><path d="M237.23265,343.37909v-90.27109l18.42709,49.31565l42.75189,40.95544z" fill="#1f1e2e" stroke-width="0"/></g><path d="M184.46059,253.45329v-113.80147h113.80147v113.80147z" data-paper-data="{&quot;index&quot;:null}" fill="#0000c0" stroke="#000000" stroke-width="2" stroke-linecap="butt"/><g data-paper-data="{&quot;index&quot;:null}" stroke="#000000" stroke-linecap="butt"><path d="M183.83936,344.58003v-90.27109h61.17899v90.27109z" fill="#273750" stroke-width="2"/><path d="M184.62674,343.82344v-90.27109l18.42709,49.31565l42.75189,40.95544z" fill="#1f1e2e" stroke-width="0"/></g><g data-paper-data="{&quot;index&quot;:null}" stroke="#000000" stroke-linecap="butt"><path d="M211.35367,252.98407v-111.68333h61.17899v111.68333z" fill="#ffffff" stroke-width="2"/><path d="M212.14105,252.04804v-111.68333l18.42709,61.01328l42.75189,50.67005z" fill="#8ebbfc" stroke-width="0"/></g><g data-paper-data="{&quot;index&quot;:null}" stroke="#000000" stroke-linecap="butt"><path d="M284.22084,219.44516l-43.90539,-19.54786l20.74245,-46.58849l43.90539,19.54786z" fill="#ffcaa0" stroke-width="2"/><g><path d="M240.4122,200.12327l-60.54073,-26.95435l21.01281,-47.19572l60.54073,26.95435z" fill="#0000c0" stroke-width="2"/><path d="M240.90874,199.53041l-31.70944,-14.1179c0,0 19.45716,-8.25324 22.94555,-16.08834c3.30751,-7.42885 -2.5289,-29.7684 -2.5289,-29.7684l31.70945,14.1179c0,0 -6.71524,15.08275 -10.09973,22.68446c-3.42069,7.68302 -10.31693,23.17228 -10.31693,23.17228z" fill="#56006b" stroke-width="0"/></g><path d="M284.04518,218.50146l-43.90539,-19.54787l35.07946,1.2971l29.56839,-28.33773z" fill="#ff6e5b" stroke-width="0"/></g><g data-paper-data="{&quot;index&quot;:null}" stroke="#000000" stroke-linecap="butt"><path d="M191.66806,93.26469c0.13345,-1.36997 3.53746,-27.16509 3.77056,-28.50418c5.88997,-33.83767 39.85018,-33.02715 82.09462,-28.91188c39.68199,3.86565 73.51996,11.72562 76.46005,43.45079c0.31372,3.38519 -2.95252,25.9879 -3.29053,29.45772c-1.20819,12.40243 -0.88824,39.95163 -9.18925,49.10531c-15.78602,17.40756 -47.89436,11.11451 -76.67593,8.31074c-30.43131,-2.96448 -58.90457,-4.75234 -70.26732,-26.63156c-5.03514,-9.69527 -3.97869,-35.22643 -2.9022,-46.27695z" fill="#ffcaa0" stroke-width="2"/><path d="M189.84235,93.09707c0.13345,-1.36997 3.53746,-27.16509 3.77055,-28.50418c3.34641,-19.22495 0.95986,60.93643 46.39568,87.39133c35.60663,20.73188 103.67683,1.98539 100.33942,5.66562c-15.78602,17.40756 -48.55456,11.1595 -77.33612,8.35573c-30.43131,-2.96448 -58.90458,-4.75233 -70.26733,-26.63156c-5.03514,-9.69527 -3.97869,-35.22643 -2.9022,-46.27695z" fill="#ff6e5b" stroke-width="0"/></g><g data-paper-data="{&quot;index&quot;:null}" stroke="#000000" stroke-linecap="butt"><path d="M236.85569,97.15962c-3.12251,32.05354 -17.4819,56.88583 -32.07258,55.46447c-14.59068,-1.42136 -23.88746,-28.55813 -20.76495,-60.61166c3.12251,-32.05354 17.4819,-56.88582 32.07258,-55.46446c14.59068,1.42136 23.88746,28.55812 20.76495,60.61166z" fill="#01930e" stroke-width="2"/><path d="M194.12931,82.90138c-3.12251,32.05354 25.68653,70.75091 11.09587,69.32956c-14.59067,-1.42136 -23.88746,-28.55813 -20.76495,-60.61166c3.12251,-32.05354 12.7916,-40.77143 9.66908,-8.71789z" fill="#31525b" stroke-width="0"/></g><g data-paper-data="{&quot;index&quot;:null}" stroke-linecap="butt"><path d="M370.64387,73.23342c-1.71235,17.57775 -44.26594,27.81717 -95.0461,22.87039c-50.78016,-4.94678 -90.55747,-23.20652 -88.84512,-40.78426c1.71235,-17.57775 44.26592,-27.81716 95.04608,-22.87038c50.78016,4.94678 90.55749,23.20652 88.84514,40.78427z" fill="#000000" stroke="none" stroke-width="NaN"/><path d="M369.88382,73.5053c-1.71235,17.57775 -44.26594,27.81716 -95.0461,22.87038c-50.78016,-4.94678 -90.55747,-23.20653 -88.84512,-40.78427c1.71235,-17.57775 41.73326,12.95637 92.51342,17.90315c50.78016,4.94678 93.09016,-17.56701 91.37781,0.01074z" fill="#ff0000" stroke="#000000" stroke-width="2"/><path d="M363.63168,82.13673c-0.47123,4.83724 -38.45211,19.84878 -89.09338,13.47621c-17.72139,-2.23001 -34.32632,-5.4872 -47.70803,-9.75862c-24.84325,-7.92993 -39.58897,-17.98955 -36.87584,-21.83435c2.80219,-3.97098 35.84661,20.45017 86.62677,25.39696c50.78016,4.94678 87.52171,-12.11744 87.05048,-7.2802z" fill="#900056" stroke="#000000" stroke-width="0"/></g><g><path d="M310.05635,133.00314c-0.82315,8.44992 -2.23631,14.51747 -4.25486,16.03515c-1.71843,1.29201 -3.97463,-1.3782 -5.61476,-1.53797c-3.56671,-0.34745 -4.5705,-0.11195 -3.04658,-15.75541c1.52392,-15.64347 5.65069,-28.04333 9.21739,-27.69587c3.56671,0.34745 5.22272,13.31065 3.6988,28.95412z" data-paper-data="{&quot;index&quot;:null}" fill="#000000" stroke="none" stroke-width="0" stroke-linecap="butt"/><path d="M291.20489,97.23787l32.29473,14.21551" fill="none" stroke="#000000" stroke-width="5" stroke-linecap="round"/><path d="M287.92749,140.75938l19.234,9.95403" fill="none" stroke="#000000" stroke-width="2.5" stroke-linecap="round"/></g><g><path d="M335.56775,126.91124c-1.51783,15.58089 -5.48748,27.94486 -8.86646,27.6157c-3.37899,-0.32916 -4.88776,-13.22682 -3.36993,-28.80771c1.51783,-15.58089 5.48748,-27.94486 8.86646,-27.61569c3.37899,0.32917 4.88776,13.22682 3.36993,28.80771z" data-paper-data="{&quot;index&quot;:null}" fill="#000000" stroke="none" stroke-width="0" stroke-linecap="butt"/><path d="M325.68711,99.51789l23.42627,-5.96116" fill="none" stroke="#000000" stroke-width="5" stroke-linecap="round"/></g><path d="M285.62436,146.10544c0,5.0437 -6.56156,3.58774 -13.04631,3.58774c-6.48475,0 -10.43705,1.45596 -10.43705,-3.58774c0,-5.0437 5.25693,-9.13242 11.74168,-9.13242c6.48475,0 11.74168,4.08872 11.74168,9.13242z" fill="#000000" stroke="none" stroke-width="0" stroke-linecap="butt"/></g></g></svg>