<svg version="1.1" xmlns="http://www.w3.org/2000/svg" xmlns:xlink="http://www.w3.org/1999/xlink" width="186.67891" height="337.99187" viewBox="0,0,186.67891,337.99187"><g transform="translate(-232.6479,-22.99554)"><g data-paper-data="{&quot;isPaintingLayer&quot;:true}" fill-rule="nonzero" stroke-linejoin="miter" stroke-miterlimit="10" stroke-dasharray="" stroke-dashoffset="0" style="mix-blend-mode: normal"><g data-paper-data="{&quot;index&quot;:null}" stroke="#000000" stroke-linecap="butt"><path d="M363.41858,220.64207c26.88041,-19.71704 36.08889,-16.84317 40.87458,-10.31879c4.7857,6.52439 -13.12562,27.79726 -40.00605,47.51431c-26.88042,19.71703 -20.42915,-52.21257 -25.21484,-58.73696c-0.37721,-7.08421 5.87872,-5.2238 10.79977,0.90313c6.06882,7.55594 11.2489,22.32367 13.54655,20.63833z" fill="#216aff" stroke-width="2"/><path d="M376.4636,196.08238c11.53776,-8.46306 27.92817,-5.72982 36.60902,6.10487c8.68085,11.83469 6.36488,28.28927 -5.17288,36.75232c-11.53776,8.46306 -27.92818,5.72981 -36.60903,-6.10488c-8.68085,-11.83469 -6.36487,-28.28925 5.17288,-36.75231z" fill="#faddbf" stroke-width="2"/><path d="M390.55666,235.02633c11.53776,-8.46306 12.91001,-44.48517 21.59086,-32.65049c8.68085,11.83469 6.36488,28.28927 -5.17288,36.75231c-11.53776,8.46306 -27.95575,4.36123 -16.41798,-4.10182z" fill="#ef8b89" stroke-width="0"/></g><g stroke="#000000" stroke-linecap="butt"><path d="M327.76518,340.83535v-95.29492h29.49199v95.29492z" fill="#73fffc" stroke-width="2"/><path d="M327.43943,340.21742l1.32626,-93.78573c0,0 5.20288,68.11227 6.3799,77.52842c0.2602,2.08162 2.52228,2.78987 2.52228,2.78987l18.60659,13.13896z" fill="#59a9e6" stroke-width="0"/></g><g stroke="#000000" stroke-linecap="butt"><path d="M288.4238,338.4128v-95.29492h29.49199v95.29492z" fill="#73fffc" stroke-width="2"/><path d="M288.09805,337.7949l1.32626,-93.78573c0,0 5.20288,68.11227 6.3799,77.52842c0.2602,2.08162 2.52228,2.78987 2.52228,2.78987l18.60659,13.13896z" fill="#59a9e6" stroke-width="0"/></g><g stroke="#000000" stroke-linecap="butt"><path d="M355.22917,235.69588c0,13.80271 10.04743,36.74388 4.95001,46.45977c-6.2338,11.88187 -28.61241,9.09579 -38.9397,9.09579c-13.66287,0 -32.94407,4.17018 -38.34426,-14.83216c-2.01935,-7.10576 4.35457,-32.37264 4.35457,-40.7234c0,-30.68249 15.2177,-55.55556 33.98969,-55.55556c18.77199,0 33.98969,24.87307 33.98969,55.55556z" fill="#216aff" stroke-width="2"/><path d="M303.96554,251.27246c0,13.80271 62.04198,20.54886 56.94455,30.26474c-6.2338,11.88186 -28.61241,9.09579 -38.9397,9.09579c-13.66287,0 -32.94406,4.17018 -38.34425,-14.83215c-2.01936,-7.10576 4.35457,-32.37265 4.35457,-40.7234c0,-9.45244 3.34855,-28.59801 5.51953,-29.96813c5.94391,-16.76415 10.4653,25.13995 10.4653,46.16315z" fill="#3236f4" stroke-width="0"/></g><g stroke="#000000" stroke-linecap="butt"><g><path d="M236.46239,112.93842c-0.84499,-46.78316 36.39526,-85.39339 83.17842,-86.23838c46.78316,-0.84499 85.3934,36.39526 86.23839,83.17842c0.84499,46.78316 -36.39526,85.3934 -83.17842,86.23839c-46.78316,0.84499 -85.3934,-36.39526 -86.23839,-83.17842z" fill="#faddbf" stroke-width="2"/><path d="M236.67742,112.06489c-0.27187,-15.05183 7.91526,-41.16082 12.36552,-44.4559c0.50823,-0.37631 5.62457,-9.01333 13.02256,-15.86458c9.19519,-8.51563 21.03754,-15.53886 21.65177,-15.35286c8.01385,2.42669 -16.35247,65.16086 -14.65707,90.42429c0.00403,0.06024 4.76252,19.61877 6.38866,20.02838c2.97067,4.68959 9.45533,18.98571 20.4638,25.92819c20.51559,12.93811 49.28928,18.79309 47.81537,19.32552c-2.35773,0.8517 -14.7503,3.0359 -20.81222,3.14539c-46.78316,0.84499 -85.3934,-36.39526 -86.23839,-83.17842z" fill="#ef8b89" stroke-width="0"/><path d="M405.34757,109.42978c0.20992,11.62244 -1.29515,15.66665 -1.88055,13.82521c-0.59723,-1.87862 -0.36387,-9.80865 -9.30566,-14.48356c-2.16677,-1.13282 -10.09124,6.45935 -12.84058,5.28066c-1.7269,-0.74035 -8.83449,-10.01763 -10.76007,-10.65899c-1.34632,-0.44843 -12.29679,8.60104 -13.70424,8.17573c-3.51025,-1.06072 -12.19194,-11.1552 -15.95442,-11.74536c-2.07189,-0.32499 -9.06729,12.01548 -11.18056,11.79976c-2.72532,-0.2782 -10.28492,-11.88464 -13.02187,-11.8352c-7.27867,0.13147 -7.35195,7.14473 -12.48045,13.24456c-3.33262,3.96382 -14.22184,-12.79714 -17.26504,-8.30625c-3.77931,5.57714 -7.52331,10.95536 -11.69864,14.63099c-3.2757,2.88367 -13.54431,-9.85388 -16.37256,-7.18459c-13.65556,12.88806 -21.84709,21.04169 -22.17526,2.87281c-0.65988,-36.53419 43.13225,-8.99387 84.51955,-31.26665c39.6155,-21.31928 83.46052,-10.88329 84.12039,25.65091z" fill="#ef8b89" stroke-width="0"/></g><path d="M406.7311,101.09254c0.42408,23.47951 6.68802,8.59594 -11.48045,-0.65305c-2.22329,-1.1318 -10.36003,6.4642 -13.18121,5.28681c-1.77203,-0.73954 -9.06237,-10.01352 -11.03834,-10.65397c-1.38157,-0.44779 -12.62468,8.60696 -14.06898,8.18232c-3.60217,-1.05906 -12.50768,-11.14949 -16.36895,-11.73787c-2.12629,-0.324 -9.31176,12.01989 -11.48057,11.80517c-2.79695,-0.2769 -10.55009,-11.87985 -13.35913,-11.82911c-7.4704,0.13493 -7.54894,7.14827 -12.81539,13.25059c-3.42227,3.96544 -14.59024,-12.79048 -17.71572,-8.29811c-3.88147,5.579 -7.72663,10.95903 -12.01364,14.63668c-3.36332,2.88526 -13.89628,-9.84753 -16.80026,-7.17687c-14.02127,12.89466 -22.43239,21.05226 -22.76056,2.88339c-0.65988,-36.53419 38.38874,-81.96359 84.30809,-82.79298c45.91934,-0.82939 88.1153,40.56279 88.77518,77.09697z" fill="#724e36" stroke-width="2"/><path d="M406.46241,99.93442c0.42408,23.47951 6.68802,8.59594 -11.48046,-0.65304c-2.22329,-1.1318 -10.36003,6.4642 -13.18121,5.28681c-1.77203,-0.73954 -9.06237,-10.01352 -11.03835,-10.65397c-1.38157,-0.44779 -12.62468,8.60696 -14.06898,8.18232c-3.60217,-1.05906 -12.50768,-11.14949 -16.36895,-11.73787c-2.12629,-0.324 -9.31176,12.01989 -11.48057,11.80517c-2.79695,-0.2769 -10.55009,-11.87985 -13.35913,-11.82912c-7.4704,0.13493 -7.54894,7.14828 -12.81539,13.2506c-3.42227,3.96544 -14.59024,-12.79048 -17.71572,-8.29811c-3.88147,5.579 -7.72662,10.95903 -12.01365,14.63668c-3.36332,2.88526 -13.89628,-9.84753 -16.80026,-7.17686c-14.02127,12.89466 -22.43239,21.05225 -22.76056,2.88339c-0.65988,-36.53419 44.27229,-9.01446 86.75999,-31.30712c40.6688,-21.3383 85.66339,-10.92307 86.32327,25.61112z" fill="#623728" stroke-width="0"/></g><g stroke="#000000" stroke-linecap="butt"><path d="M328.87572,118.39515c0.51574,28.55428 -12.3844,43.52022 -28.95023,43.81943c-16.56583,0.29921 -30.52425,-14.18162 -31.03999,-42.73589c-0.51574,-28.55428 12.49544,-51.94465 29.06128,-52.24386c16.56583,-0.29921 30.4132,22.60605 30.92894,51.16033z" fill="#f0f0f0" stroke-width="2"/><path d="M281.77398,99.66029c-3.79203,28.30606 35.33827,61.41345 18.77244,61.71266c-16.56583,0.29921 -30.52425,-14.18162 -31.03999,-42.73589c-0.51574,-28.55428 17.74971,-59.89896 12.26756,-18.97676z" fill="#9a99ff" stroke-width="0"/></g><path d="M327.7731,122.71218c-1.17145,15.77879 -6.79713,28.22287 -12.56531,27.79462c-5.76818,-0.42823 -9.49459,-13.56662 -8.32314,-29.34542c1.17145,-15.77879 6.79713,-28.22287 12.56531,-27.79462c5.76818,0.42823 9.49459,13.56662 8.32314,29.34542z" fill="#000000" stroke="none" stroke-width="0" stroke-linecap="butt"/><g stroke="#000000" stroke-linecap="butt"><path d="M323.32484,88.45583c4.64347,10.1476 -9.64121,14.29806 -25.34891,14.58178c-15.7077,0.2837 -27.25934,-4.14994 -22.88891,-13.84567c4.1584,-9.22532 6.40184,-21.53805 22.10954,-21.82175c15.7077,-0.2837 21.703,11.41484 26.12828,21.08564z" fill="#a100fe" stroke-width="2"/><path d="M322.39433,88.11832c4.49144,10.15035 -9.30378,14.29196 -24.47588,14.566c-15.1721,0.27404 -26.33272,-4.16668 -22.11724,-13.85961c4.01097,-9.22267 6.57454,0.84345 21.74664,0.56941c15.1721,-0.27404 20.56607,-10.94922 24.84647,-1.27581z" fill="#99008e" stroke-width="0"/></g><g data-paper-data="{&quot;index&quot;:null}" stroke="#000000" stroke-linecap="butt"><path d="M361.63636,64.8941c16.56583,-0.29921 30.41321,22.60605 30.92895,51.16033c0.51574,28.55427 -12.91063,43.52972 -29.47647,43.82893c-16.56583,0.29921 -29.99802,-14.19112 -30.51376,-42.7454c-0.51574,-28.55428 12.49544,-51.94465 29.06128,-52.24386z" fill="#f0f0f0" stroke-width="2"/><path d="M391.91439,115.23578c0.51574,28.55427 -12.91063,43.52972 -29.47647,43.82893c-16.56583,0.29921 21.34337,-34.19964 16.53163,-62.35031c-6.95635,-40.69754 12.4291,-10.0329 12.94484,18.52139z" fill="#9a99ff" stroke-width="0"/></g><path d="M385.97787,95.08717c5.7473,0.65099 8.9628,13.92368 7.18201,29.64535c-1.78081,15.72168 -7.88355,27.93888 -13.63085,27.28787c-5.7473,-0.65099 -8.9628,-13.92368 -7.182,-29.64535c1.78081,-15.72168 7.88354,-27.93888 13.63085,-27.28787z" data-paper-data="{&quot;index&quot;:null}" fill="#000000" stroke="none" stroke-width="0" stroke-linecap="butt"/><g data-paper-data="{&quot;index&quot;:null}" stroke="#000000" stroke-linecap="butt"><path d="M337.04119,87.01769c4.07317,-9.8243 9.6421,-21.73172 25.3498,-22.01543c15.7077,-0.2837 18.3943,11.93996 22.88313,21.00911c4.7177,9.53158 -6.66628,14.37949 -22.37398,14.6632c-15.7077,0.2837 -30.13295,-3.34819 -25.85895,-13.65687z" fill="#a100fe" stroke-width="2"/><path d="M337.95891,86.64682c3.92829,-9.82168 9.70424,0.65176 24.87634,0.37772c15.1721,-0.27404 17.37049,-10.42616 21.71189,-1.35435c4.56276,9.53438 -6.43021,14.37523 -21.60231,14.64926c-15.1721,0.27404 -29.10788,-3.3667 -24.98593,-13.67263z" fill="#99008e" stroke-width="0"/></g><path d="M391.63632,338.87004c0,11.6628 -14.51982,21.11737 -32.43092,21.11737c-17.9111,0 -32.43092,-9.45457 -32.43092,-21.11737c0,-2.33142 -0.03339,-13.76009 1.08979,-15.13837c4.49546,-5.51647 17.81784,5.26144 32.14847,5.26144c17.9111,0 31.62358,-1.78588 31.62358,9.87692z" fill="#000082" stroke="#000000" stroke-width="2" stroke-linecap="butt"/><path d="M389.75004,336.13774c0,6.30841 -13.89058,10.1901 -31.80169,10.1901c-17.9111,0 -30.16566,-2.95748 -30.16566,-9.26589c0,-1.26107 -0.03338,-12.52602 1.0898,-13.27153c4.49546,-2.98386 15.55258,5.7726 29.88321,5.7726c17.9111,0 30.99434,0.26631 30.99434,6.57472z" fill="#2e0048" stroke="#000000" stroke-width="0" stroke-linecap="butt"/><path d="M348.64938,338.22521c0,11.6628 -14.51982,21.11737 -32.43092,21.11737c-17.9111,0 -32.43092,-9.45457 -32.43092,-21.11737c0,-2.33142 -0.03339,-13.76009 1.08979,-15.13837c4.49546,-5.51647 17.81784,5.26144 32.14847,5.26144c17.9111,0 31.62358,-1.78588 31.62358,9.87692z" fill="#000082" stroke="#000000" stroke-width="2" stroke-linecap="butt"/><path d="M346.7631,335.49289c0,6.30841 -13.89058,10.1901 -31.80169,10.1901c-17.9111,0 -30.16566,-2.95748 -30.16566,-9.26589c0,-1.26107 -0.03338,-12.52602 1.0898,-13.27153c4.49546,-2.98386 15.55258,5.7726 29.88321,5.7726c17.9111,0 30.99434,0.26631 30.99434,6.57472z" fill="#2e0048" stroke="#000000" stroke-width="0" stroke-linecap="butt"/><g><path d="M327.24996,251.14853c-13.97155,5.69374 -24.99496,1.99313 -31.27062,-11.56141c-4.90829,-10.60112 1.84194,-27.40762 15.81351,-33.10138c13.97161,-5.6938 27.8003,-0.80188 33.43736,13.03043c0.88152,2.16311 1.05309,4.42104 1.22907,6.48184c0.94917,11.11709 -7.42262,20.34715 -19.2093,25.15051z" fill="#485e84" stroke="#000000" stroke-width="2" stroke-linecap="butt"/><path d="M301.86044,216.02159c0,0 1.75723,5.48116 3.69562,5.98713c18.59349,4.85341 31.95514,0.5308 36.26532,-1.23614c0.97926,-0.40144 1.14885,-1.51144 1.14885,-1.51144c0,0 0.99888,1.86288 1.45937,4.5651c0.49001,2.87539 0.41481,6.68303 -0.5952,9.58563c-1.15376,3.31555 -5.82994,10.21786 -5.82994,10.21786l-17.92944,10.83484c0,0 -12.80234,-4.12979 -14.50909,-5.46543c-1.67207,-1.30846 -3.27533,-3.33633 -5.06677,-5.42384c-2.78144,-3.24116 -4.35721,-7.49837 -4.55692,-10.37151c-0.25485,-3.66678 0.93731,-8.17574 2.53604,-11.64077c1.48793,-3.22486 3.38222,-5.54132 3.38222,-5.54132z" fill="#343545" stroke="none" stroke-width="0" stroke-linecap="butt"/><path d="M313.22485,237.65535c0,0 -5.06186,-7.46833 -4.75888,-12.61501c0.38351,-6.51516 4.72459,-18.73226 4.72459,-18.73226" fill="none" stroke="#000000" stroke-width="1" stroke-linecap="round"/><path d="M341.11431,213.74523c0,0 1.24189,7.04184 0.95659,11.33024c-0.28798,4.32934 -4.30365,13.16264 -4.30365,13.16264" fill="none" stroke="#000000" stroke-width="1" stroke-linecap="round"/><path d="M304.64007,244.48601c0,0 -5.31044,-7.58851 -4.72844,-13.1482c0.89308,-8.53115 4.31425,-19.61228 4.31425,-19.61228" fill="none" stroke="#000000" stroke-width="1" stroke-linecap="round"/><path d="M295.2253,232.44609c0,0 8.71957,-14.94806 26.07377,-16.48929c19.00932,-1.68824 25.21478,14.40472 25.21478,14.40472" fill="none" stroke="#000000" stroke-width="1" stroke-linecap="round"/><path d="M297.61078,241.66642c0,0 11.37629,-13.69097 26.68704,-15.08392c12.57154,-1.14372 19.06655,11.9228 19.06655,11.9228" fill="none" stroke="#000000" stroke-width="1" stroke-linecap="round"/><path d="M326.94015,209.25018c-1.18697,-0.1957 -2.02354,-1.11612 -1.86861,-2.05574c0.15488,-0.93968 0.94394,-0.833 2.1309,-0.63729c1.18697,0.1957 2.32232,0.40633 2.16741,1.34598c-0.15488,0.93968 -1.24274,1.54278 -2.42967,1.34704z" fill="#8fbbbe" stroke="none" stroke-width="0" stroke-linecap="butt"/><path d="M333.88584,211.39874c-0.55702,0.22698 -1.28457,-0.26629 -1.62506,-1.1018c-0.34049,-0.83551 -0.36417,-1.22366 0.19283,-1.45065c0.55702,-0.22698 1.45268,0.19779 1.79313,1.0333c0.34049,0.83551 0.19605,1.29216 -0.36094,1.51915z" fill="#8fbbbe" stroke="none" stroke-width="0" stroke-linecap="butt"/><path d="M320.10377,208.18832c-0.86707,0.24952 -1.70473,-0.01675 -1.8711,-0.59475c-0.16637,-0.57797 0.60714,-0.7446 1.47416,-0.99416c0.86707,-0.24952 1.49922,-0.48755 1.6656,0.09046c0.16637,0.57797 -0.40166,1.24889 -1.26869,1.49843z" fill="#8fbbbe" stroke="none" stroke-width="0" stroke-linecap="butt"/><path d="M299.22107,219.64535c0,0 7.7087,-6.72723 14.85544,-9.24594c4.05185,-1.42796 8.11592,-1.28777 11.19592,-1.14695c2.72379,0.12449 8.64883,2.97397 12.95698,5.62694c3.17184,1.95322 5.34467,3.93964 5.34467,3.93964" fill="none" stroke="#000000" stroke-width="0.5" stroke-linecap="round"/><path d="M329.93177,204.58186c0,0 3.61058,9.93688 3.47127,15.34039c-0.11736,4.55257 -3.91652,14.83023 -3.91652,14.83023" fill="none" stroke="#000000" stroke-width="1" stroke-linecap="round"/><path d="M323.65917,235.36317c0,0 -3.19934,-9.12099 -3.57266,-13.62781c-0.6555,-7.91311 3.2022,-17.58239 3.2022,-17.58239" fill="none" stroke="#000000" stroke-width="1" stroke-linecap="round"/></g><g stroke="#000000" stroke-linecap="butt"><path d="M301.53801,243.97482c33.23246,-2.63099 39.55269,4.65667 40.19128,12.7228c0.63859,8.06615 -25.78397,16.73787 -59.01644,19.36885c-33.23246,2.63098 10.08742,-55.15204 9.44884,-63.21818c3.40528,-6.22352 7.74742,-1.35081 8.71019,6.4485c1.18733,9.61837 -2.17444,24.90292 0.66614,24.67804z" fill="#216aff" stroke-width="2"/><path d="M325.55054,229.9481c14.26422,-1.12929 26.76668,9.81627 27.92501,24.44757c1.15834,14.63131 -9.46606,27.4078 -23.73028,28.53708c-14.26422,1.12929 -26.76668,-9.81628 -27.92502,-24.44758c-1.15834,-14.63131 9.46607,-27.40779 23.73028,-28.53708z" fill="#faddbf" stroke-width="2"/><path d="M317.05326,270.48257c14.26422,-1.12929 34.37799,-31.04436 35.53634,-16.41305c1.15834,14.63131 -9.46606,27.4078 -23.73028,28.53708c-14.26422,1.12929 -26.07029,-10.99475 -11.80606,-12.12403z" fill="#ef8b89" stroke-width="0"/></g><path d="M251.14526,135.41456c-0.10135,0.44331 -0.2059,0.88667 -0.13436,1.32737c0.32679,2.01302 3.89421,3.223 5.36713,3.91265c3.35791,1.57223 7.15861,2.61783 7.75755,6.9373c0.12511,0.90226 0.22935,1.86294 -0.04244,2.73234c-1.56527,5.00683 -9.81536,5.47445 -14.07303,4.13384c-0.79681,-0.25089 -1.48367,-0.76818 -2.22551,-1.15228c-5.93109,-3.85907 -6.80297,-10.09991 -6.63791,-16.69575c0.06075,-2.42756 -0.14297,-4.8699 1.464,-6.90019c1.57664,-1.99196 5.21571,-3.2045 7.43284,-1.22751c1.30813,1.16645 1.22138,3.1858 1.33001,4.70788l0.0032,1.33467c0,0 0,0.45755 -0.24148,0.8897z" fill="#000000" stroke="none" stroke-width="0.5" stroke-linecap="butt"/></g></g></svg>