<svg version="1.1" xmlns="http://www.w3.org/2000/svg" xmlns:xlink="http://www.w3.org/1999/xlink" width="216.9496" height="312.57125" viewBox="0,0,216.9496,312.57125"><g transform="translate(-149.89263,-33.00878)"><g data-paper-data="{&quot;isPaintingLayer&quot;:true}" fill-rule="nonzero" stroke-linejoin="miter" stroke-miterlimit="10" stroke-dasharray="" stroke-dashoffset="0" style="mix-blend-mode: normal"><g data-paper-data="{&quot;index&quot;:null}" stroke="#000000" stroke-linecap="butt"><path d="M310.85529,269.34218l-14.93087,-45.68229l48.47398,-15.8433l14.93087,45.68228z" fill="#ffcaa0" stroke-width="2"/><g><path d="M295.82163,223.88316l-20.58803,-62.99087l49.10579,-16.04981l20.58803,62.99087z" fill="#0000c0" stroke-width="2"/><path d="M296.59443,223.85412l-10.7834,-32.99275c0,0 19.16821,8.90373 27.3204,6.23925c7.7295,-2.52632 20.39221,-21.83371 20.39221,-21.83371l10.7834,32.99276c0,0 -15.69316,5.12918 -23.60252,7.71428c-7.99395,2.61275 -24.11009,7.88018 -24.11009,7.88018z" fill="#56006b" stroke-width="0"/></g><path d="M311.43775,268.57914l-14.93086,-45.68229l22.55553,26.89793l40.84931,2.94105z" fill="#ff6e5b" stroke-width="0"/></g><g data-paper-data="{&quot;index&quot;:null}" stroke="#000000" stroke-linecap="butt"><path d="M364.06669,113.8338c-3.12252,32.05354 -17.4819,56.88583 -32.07258,55.46447c-14.59068,-1.42136 -23.88746,-28.55813 -20.76494,-60.61166c3.12252,-32.05354 17.48189,-56.88582 32.07257,-55.46446c14.59068,1.42136 23.88747,28.55813 20.76495,60.61167z" fill="#01930e" stroke-width="2"/><path d="M321.34031,99.57555c-3.12252,32.05354 25.68653,70.75092 11.09587,69.32956c-14.59067,-1.42136 -23.88747,-28.55813 -20.76495,-60.61167c3.12252,-32.05354 12.7916,-40.77143 9.66908,-8.71789z" fill="#31525b" stroke-width="0"/></g><g data-paper-data="{&quot;index&quot;:null}" stroke="#000000" stroke-linecap="butt"><path d="M236.44532,344.13568v-90.27109h61.17899v90.27109z" fill="#273750" stroke-width="2"/><path d="M237.23266,343.3791v-90.27109l18.42709,49.31565l42.75189,40.95544z" fill="#1f1e2e" stroke-width="0"/></g><path d="M184.4606,253.4533v-113.80147h113.80147v113.80147z" data-paper-data="{&quot;index&quot;:null}" fill="#0000c0" stroke="#000000" stroke-width="2" stroke-linecap="butt"/><g data-paper-data="{&quot;index&quot;:null}" stroke="#000000" stroke-linecap="butt"><path d="M183.83937,344.58004v-90.27109h61.17899v90.27109z" fill="#273750" stroke-width="2"/><path d="M184.62675,343.82345v-90.27109l18.42709,49.31565l42.75189,40.95544z" fill="#1f1e2e" stroke-width="0"/></g><g data-paper-data="{&quot;index&quot;:null}" stroke="#000000" stroke-linecap="butt"><path d="M211.35368,252.98408v-111.68333h61.17899v111.68333z" fill="#ffffff" stroke-width="2"/><path d="M212.14106,252.04805v-111.68333l18.42709,61.01328l42.75189,50.67005z" fill="#8ebbfc" stroke-width="0"/></g><g data-paper-data="{&quot;index&quot;:null}" stroke="#000000" stroke-linecap="butt"><path d="M151.20929,250.55203l19.23654,-44.04268l46.73417,20.41211l-19.23654,44.04268z" fill="#ffcaa0" stroke-width="2"/><g><path d="M170.22056,206.60769l26.52508,-60.73003l47.3433,20.67816l-26.52508,60.73003z" fill="#0000c0" stroke-width="2"/><path d="M170.81692,207.10003l13.89306,-31.80859c0,0 8.39078,19.39824 16.25038,22.83108c7.45208,3.25484 29.74975,-2.73958 29.74975,-2.73958l-13.89306,31.8086c0,0 -15.12991,-6.60829 -22.75539,-9.93888c-7.70704,-3.36621 -23.24474,-10.15262 -23.24474,-10.15262z" fill="#56006b" stroke-width="0"/></g><path d="M152.15173,250.36969l19.23655,-44.04268l-1.04872,35.08776l28.54635,29.36703z" fill="#ff6e5b" stroke-width="0"/></g><g data-paper-data="{&quot;index&quot;:null}" stroke="#000000" stroke-linecap="butt"><path d="M187.62647,95.06908c0.13345,-1.36997 3.53746,-27.16509 3.77056,-28.50418c5.88997,-33.83767 39.85018,-33.02715 82.09462,-28.91188c39.68199,3.86565 73.51996,11.72562 76.46005,43.45079c0.31372,3.38519 -2.95252,25.9879 -3.29053,29.45772c-1.20819,12.40243 -0.88824,39.95163 -9.18925,49.10531c-15.78602,17.40756 -47.89436,11.11451 -76.67593,8.31074c-30.43131,-2.96448 -58.90457,-4.75234 -70.26732,-26.63156c-5.03514,-9.69527 -3.97869,-35.22643 -2.9022,-46.27695z" fill="#ffcaa0" stroke-width="2"/><path d="M185.80076,94.90146c0.13345,-1.36997 3.53746,-27.16509 3.77055,-28.50418c3.34641,-19.22495 0.95986,60.93643 46.39568,87.39133c35.60663,20.73188 103.67683,1.98539 100.33942,5.66562c-15.78602,17.40756 -48.55456,11.1595 -77.33612,8.35573c-30.43131,-2.96448 -58.90458,-4.75233 -70.26733,-26.63156c-5.03514,-9.69527 -3.97869,-35.22643 -2.9022,-46.27695z" fill="#ff6e5b" stroke-width="0"/></g><g data-paper-data="{&quot;index&quot;:null}" stroke="#000000" stroke-linecap="butt"><path d="M232.8141,98.96401c-3.12251,32.05354 -17.4819,56.88583 -32.07258,55.46447c-14.59068,-1.42136 -23.88746,-28.55813 -20.76495,-60.61166c3.12251,-32.05354 17.4819,-56.88582 32.07258,-55.46446c14.59068,1.42136 23.88746,28.55812 20.76495,60.61166z" fill="#01930e" stroke-width="2"/><path d="M190.08772,84.70577c-3.12251,32.05354 25.68653,70.75091 11.09587,69.32956c-14.59067,-1.42136 -23.88746,-28.55813 -20.76495,-60.61166c3.12251,-32.05354 12.7916,-40.77143 9.66908,-8.71789z" fill="#31525b" stroke-width="0"/></g><g data-paper-data="{&quot;index&quot;:null}" stroke-linecap="butt"><path d="M366.60228,75.03781c-1.71235,17.57775 -44.26594,27.81717 -95.0461,22.87039c-50.78016,-4.94678 -90.55747,-23.20652 -88.84512,-40.78426c1.71235,-17.57775 44.26592,-27.81716 95.04608,-22.87038c50.78016,4.94678 90.55749,23.20652 88.84514,40.78427z" fill="#000000" stroke="none" stroke-width="NaN"/><path d="M365.84223,75.30969c-1.71235,17.57775 -44.26594,27.81716 -95.0461,22.87038c-50.78016,-4.94678 -90.55747,-23.20653 -88.84512,-40.78427c1.71235,-17.57775 41.73326,12.95637 92.51342,17.90315c50.78016,4.94678 93.09016,-17.56701 91.37781,0.01074z" fill="#ff0000" stroke="#000000" stroke-width="2"/><path d="M359.59009,83.94112c-0.47123,4.83724 -38.45211,19.84878 -89.09338,13.47621c-17.72139,-2.23001 -34.32632,-5.4872 -47.70803,-9.75862c-24.84325,-7.92993 -39.58897,-17.98955 -36.87584,-21.83435c2.80219,-3.97098 35.84661,20.45017 86.62677,25.39696c50.78016,4.94678 87.52171,-12.11744 87.05048,-7.2802z" fill="#900056" stroke="#000000" stroke-width="0"/></g><path d="M247.58586,148.62024c-0.09378,0.24763 -0.49335,1.08595 -1.52218,0.79228c-1.202,-0.3431 -0.8589,-1.54509 -0.8589,-1.54509l0.18363,-0.45125c1.02598,-1.60244 2.01389,-3.22564 3.08817,-4.7959c1.02874,-1.29211 1.9292,-2.85117 3.03142,-4.06439c2.85294,-3.14028 7.62642,-1.76539 8.03543,2.53088c0.42048,4.41682 -2.7897,10.15429 -5.42046,13.46948c0,0 -0.77901,0.97759 -1.75659,0.19858c-0.97758,-0.77901 -0.19857,-1.75659 -0.19857,-1.75659c2.30568,-2.87987 4.26753,-6.87472 4.87661,-10.55698c0.67516,-4.08172 -2.80801,-3.35561 -4.48525,-1.01382c-0.73617,1.02784 -1.29293,1.70182 -2.07188,2.67843c-1.0097,1.47728 -1.93869,3.0058 -2.90144,4.51436z" data-paper-data="{&quot;index&quot;:null}" fill="#000000" stroke="none" stroke-width="0.5" stroke-linecap="butt"/><g><path d="M306.01476,134.80753c-0.82315,8.44992 -2.23631,14.51747 -4.25486,16.03515c-1.71843,1.29201 -3.97463,-1.3782 -5.61476,-1.53797c-3.56671,-0.34745 -4.5705,-0.11195 -3.04658,-15.75541c1.52392,-15.64347 5.65069,-28.04333 9.21739,-27.69587c3.56671,0.34745 5.22272,13.31065 3.6988,28.95412z" data-paper-data="{&quot;index&quot;:null}" fill="#000000" stroke="none" stroke-width="0" stroke-linecap="butt"/><path d="M319.45803,113.25777l-32.29473,-14.21551" fill="none" stroke="#000000" stroke-width="5" stroke-linecap="round"/><path d="M283.8859,142.56377l19.234,9.95403" fill="none" stroke="#000000" stroke-width="2.5" stroke-linecap="round"/></g><g><path d="M331.52616,128.71563c-1.51783,15.58089 -5.48748,27.94486 -8.86646,27.6157c-3.37899,-0.32916 -4.88776,-13.22682 -3.36993,-28.80771c1.51783,-15.58089 5.48748,-27.94486 8.86646,-27.61569c3.37899,0.32917 4.88776,13.22682 3.36993,28.80771z" data-paper-data="{&quot;index&quot;:null}" fill="#000000" stroke="none" stroke-width="0" stroke-linecap="butt"/><path d="M321.64552,101.32228l23.42627,-5.96116" fill="none" stroke="#000000" stroke-width="5" stroke-linecap="round"/></g></g></g></svg>