<svg version="1.1" xmlns="http://www.w3.org/2000/svg" xmlns:xlink="http://www.w3.org/1999/xlink" width="209.08528" height="298.51388" viewBox="0,0,209.08528,298.51388"><g transform="translate(-241.30082,-36.85215)"><g data-paper-data="{&quot;isPaintingLayer&quot;:true}" fill-rule="nonzero" stroke-linejoin="miter" stroke-miterlimit="10" stroke-dasharray="" stroke-dashoffset="0" style="mix-blend-mode: normal"><g data-paper-data="{&quot;index&quot;:null}" stroke="#000000" stroke-linecap="butt"><path d="M396.9119,260.53408c5.5039,32.87896 3.49635,60.61559 -4.48399,61.95149c-7.98034,1.3359 -18.91145,-24.23482 -24.41535,-57.11378c-5.50389,-32.87896 -3.49635,-60.61559 4.48399,-61.95149c7.98034,-1.3359 18.91146,24.23482 24.41535,57.11379z" fill="#0d69be" stroke-width="2"/><path d="M417.67313,304.04736c2.36241,14.11248 -7.45733,27.5173 -21.93301,29.94052c-14.47567,2.4232 -28.12564,-7.05282 -30.48804,-21.16531c-2.36241,-14.11249 7.45733,-27.5173 21.93301,-29.94052c14.47568,-2.42322 28.12563,7.05283 30.48805,21.16531z" fill="#faddbf" stroke-width="2"/><path d="M376.55433,299.09837c2.36241,14.11249 33.90954,31.55539 19.43386,33.9786c-14.47567,2.4232 -28.12563,-7.05282 -30.48804,-21.1653c-2.36241,-14.11249 8.69177,-26.92579 11.05418,-12.8133z" fill="#ef8b89" stroke-width="0"/></g><g data-paper-data="{&quot;index&quot;:null}" stroke="#000000" stroke-linecap="butt"><path d="M392.73329,240.69584c0,13.80271 10.04743,36.74388 4.95001,46.45977c-6.2338,11.88187 -28.61241,9.09579 -38.9397,9.09579c-13.66287,0 -32.94407,4.17018 -38.34426,-14.83216c-2.01935,-7.10576 4.35457,-32.37264 4.35457,-40.7234c0,-30.68249 15.2177,-55.55556 33.98969,-55.55556c18.77199,0 33.98969,24.87307 33.98969,55.55556z" fill="#216aff" stroke-width="2"/><path d="M341.46966,256.27246c0,13.80271 62.04198,20.54886 56.94455,30.26474c-6.2338,11.88186 -28.61241,9.09579 -38.9397,9.09579c-13.66287,0 -32.94406,4.17018 -38.34425,-14.83215c-2.01936,-7.10576 4.35457,-32.37265 4.35457,-40.7234c0,-9.45244 3.34855,-28.59801 5.51953,-29.96813c5.94391,-16.76415 10.4653,25.13995 10.4653,46.16315z" fill="#3236f4" stroke-width="0"/></g><g data-paper-data="{&quot;index&quot;:null}" stroke="#000000" stroke-linecap="butt"><g><path d="M277.76927,125.46145c-0.08607,-46.79071 37.77555,-84.79184 84.56626,-84.8779c46.79071,-0.08606 84.79184,37.77555 84.8779,84.56626c0.08607,46.79071 -37.77554,84.79184 -84.56625,84.8779c-46.79071,0.08607 -84.79184,-37.77554 -84.8779,-84.56625z" fill="#faddbf" stroke-width="2"/><path d="M277.99845,124.59152c-0.02769,-15.05426 8.58184,-41.02702 13.08496,-44.24948c0.51426,-0.36801 5.77002,-8.92092 13.27817,-15.65127c9.33211,-8.36537 21.28681,-15.19558 21.89795,-14.99964c7.97344,2.55634 -17.40722,64.88704 -16.1218,90.17465c0.00306,0.06031 4.44368,19.69343 6.06297,20.12937c2.89422,4.73715 9.14613,19.13658 20.04056,26.2567c20.30304,13.26916 48.97797,19.59008 47.49561,20.09854c-2.37124,0.81334 -14.79759,2.79625 -20.86049,2.8074c-46.79071,0.08607 -84.79184,-37.77554 -84.8779,-84.56625z" fill="#ef8b89" stroke-width="0"/><path d="M446.68914,124.69257c0.02138,11.62432 -1.5491,15.64358 -2.10455,13.79288c-0.56667,-1.88805 -0.20473,-9.81326 -9.06951,-14.63259c-2.14811,-1.16783 -10.19469,6.29481 -12.92454,5.07168c-1.71466,-0.76827 -8.67085,-10.15962 -10.58577,-10.83212c-1.33888,-0.47021 -12.43468,8.40045 -13.83504,7.95237c-3.49258,-1.11752 -12.00941,-11.35148 -15.76182,-12.00259c-2.06634,-0.35855 -9.26099,11.86683 -11.37047,11.61685c-2.72045,-0.32237 -10.09079,-12.04989 -12.82819,-12.04485c-7.27984,0.01339 -7.46687,7.02454 -12.69364,13.04038c-3.39648,3.90924 -14.0124,-13.02614 -17.12805,-8.5852c-3.86927,5.51512 -7.7,10.83189 -11.93441,14.43932c-3.32205,2.83017 -13.38271,-10.07227 -16.25388,-7.44921c-13.86281,12.66487 -22.18552,20.68457 -22.21894,2.51275c-0.06721,-36.54009 43.27245,-8.29309 85.01556,-29.89164c39.95608,-20.67391 83.62607,-9.52814 83.69327,27.01195z" fill="#ef8b89" stroke-width="0"/></g><path d="M448.20772,116.37888c0.04319,23.4833 6.54772,8.70328 -11.46834,-0.83917c-2.20464,-1.16772 -10.46352,6.29531 -13.26524,5.07232c-1.7598,-0.76818 -8.89875,-10.15919 -10.86407,-10.8316c-1.37412,-0.47014 -12.76263,8.40105 -14.19986,7.95305c-3.58452,-1.11735 -12.32519,-11.35091 -16.17641,-12.00183c-2.12075,-0.35844 -9.5055,11.86728 -11.67055,11.61741c-2.79209,-0.32223 -10.35602,-12.04941 -13.1655,-12.04424c-7.47159,0.01374 -7.66389,7.0249 -13.02863,13.04099c-3.48613,3.90941 -14.38086,-13.02544 -17.5788,-8.58436c-3.97145,5.51531 -7.90336,10.83226 -12.24946,14.43989c-3.40968,2.83032 -13.73473,-10.07162 -16.68164,-7.44841c-14.22857,12.66554 -22.77092,20.68564 -22.80434,2.51384c-0.06721,-36.54009 39.71312,-81.33015 85.63989,-81.41462c45.92675,-0.08448 87.4458,41.98667 87.513,78.52676z" fill="#724e36" stroke-width="2"/><path d="M447.95785,115.21654c0.04319,23.4833 6.54772,8.70328 -11.46835,-0.83917c-2.20464,-1.16772 -10.46352,6.2953 -13.26524,5.07231c-1.7598,-0.76818 -8.89875,-10.15919 -10.86408,-10.8316c-1.37412,-0.47014 -12.76263,8.40105 -14.19986,7.95305c-3.58452,-1.11735 -12.32519,-11.3509 -16.17641,-12.00182c-2.12075,-0.35844 -9.50549,11.86727 -11.67054,11.6174c-2.79209,-0.32223 -10.35602,-12.04941 -13.1655,-12.04423c-7.47159,0.01374 -7.66389,7.0249 -13.02863,13.04099c-3.48613,3.90941 -14.38085,-13.02544 -17.57879,-8.58436c-3.97145,5.51531 -7.90337,10.83226 -12.24947,14.43989c-3.40968,2.83032 -13.73473,-10.07162 -16.68164,-7.44841c-14.22857,12.66554 -22.77091,20.68564 -22.80433,2.51384c-0.06721,-36.54009 44.41268,-8.29519 87.25637,-29.89577c41.00955,-20.67585 85.8293,-9.53219 85.8965,27.0079z" fill="#623728" stroke-width="0"/></g><g data-paper-data="{&quot;index&quot;:null}" stroke="#000000" stroke-linecap="butt"><path d="M372.5059,154.02797c0.05253,28.55889 -13.08865,43.31361 -29.65717,43.34409c-16.56851,0.03048 -30.29021,-14.67485 -30.34272,-43.23373c-0.05253,-28.55889 13.33633,-51.73515 29.90484,-51.76562c16.56851,-0.03048 30.04253,23.09638 30.09505,51.65527z" fill="#f0f0f0" stroke-width="2"/><path d="M325.71423,134.53162c-4.25065,28.24084 34.3375,61.97856 17.76899,62.00903c-16.56851,0.03048 -30.2902,-14.67486 -30.34273,-43.23374c-0.05253,-28.55889 18.71893,-59.60318 12.57374,-18.77529z" fill="#9a99ff" stroke-width="0"/></g><path d="M252.12142,166.45817l25.06574,-58.48672l30.90762,13.24612l-25.06574,58.48672z" data-paper-data="{&quot;index&quot;:null}" fill="#0085ff" stroke="#000000" stroke-width="2.5" stroke-linecap="butt"/><path d="M337.08865,157.70198c0.0291,15.82219 -4.63621,28.65722 -10.42026,28.66786c-5.78405,0.01063 -10.49654,-12.80716 -10.52564,-28.62934c-0.0291,-15.82219 4.63621,-28.65722 10.42026,-28.66786c5.78405,-0.01063 10.49654,12.80716 10.52564,28.62935z" data-paper-data="{&quot;index&quot;:null}" fill="#000000" stroke="none" stroke-width="0" stroke-linecap="butt"/><g data-paper-data="{&quot;index&quot;:null}" stroke="#000000" stroke-linecap="butt"><path d="M367.44136,124.00257c4.47827,10.22159 9.60457,39.64108 -6.10567,39.66996c-15.71024,0.0289 -46.66486,-30.09282 -42.13775,-39.71638c4.30748,-9.15667 6.75033,-21.43137 22.46056,-21.46027c15.71024,-0.02889 21.51499,11.76536 25.78284,21.50667z" fill="#a100fe" stroke-width="2"/><path d="M366.51644,123.65002c4.32621,10.22187 10.10358,39.18927 -5.07097,39.21719c-15.17455,0.02791 -45.89963,-29.64334 -41.52749,-39.26663c4.16003,-9.15639 6.55999,0.94996 21.73454,0.92205c15.17455,-0.02791 20.74097,-10.6142 24.8639,-0.87263z" fill="#99008e" stroke-width="0"/></g><g data-paper-data="{&quot;index&quot;:null}" stroke="#000000" stroke-linecap="butt"><path d="M406.13551,101.2182c16.56851,-0.03048 30.04253,23.09637 30.09505,51.65526c0.05253,28.55888 -13.61498,43.31459 -30.18349,43.34506c-16.56851,0.03048 -29.76388,-14.67582 -29.81641,-43.23471c-0.05253,-28.55889 13.33634,-51.73514 29.90484,-51.76562z" fill="#f0f0f0" stroke-width="2"/><path d="M435.59301,152.04436c0.05253,28.55888 -13.61498,43.31458 -30.18349,43.34506c-16.56851,0.03048 21.89528,-33.84896 17.54077,-62.07396c-6.29533,-40.80502 12.59019,-9.82998 12.64272,18.7289z" fill="#9a99ff" stroke-width="0"/></g><path d="M388.33085,129.38722c5.78405,-0.01063 10.49655,12.80716 10.52565,28.62935c0.0291,15.82219 -4.63622,28.65722 -10.42027,28.66787c-5.78405,0.01063 -10.49655,-12.80716 -10.52564,-28.62934c-0.0291,-15.82219 4.63621,-28.65722 10.42026,-28.66786z" data-paper-data="{&quot;index&quot;:null}" fill="#000000" stroke="none" stroke-width="0" stroke-linecap="butt"/><g data-paper-data="{&quot;index&quot;:null}" stroke="#000000" stroke-linecap="butt"><path d="M381.18472,122.93995c4.23198,-9.75694 9.99331,-21.57247 25.70355,-21.60135c15.71024,-0.02889 18.19821,12.23674 22.53935,21.3775c4.56249,9.60684 -9.04645,7.1887 -24.75669,7.2176c-15.71024,0.0289 -27.92687,3.24426 -23.48623,-6.99372z" fill="#a100fe" stroke-width="2"/><path d="M382.10834,122.584c4.08707,-9.75668 9.69239,0.80907 24.86694,0.78116c15.17455,-0.02791 17.53731,-10.14303 21.731,-1.002c4.40752,9.60713 -6.94657,6.53212 -22.12112,6.56003c-15.17455,0.02791 -28.7654,3.89854 -24.47682,-6.33918z" fill="#99008e" stroke-width="0"/></g><path d="M306.68114,163.5587l-15.38352,-7.48935" data-paper-data="{&quot;index&quot;:null}" fill="none" stroke="#000000" stroke-width="2.5" stroke-linecap="round"/><g data-paper-data="{&quot;index&quot;:null}" stroke="#000000" stroke-linecap="butt"><path d="M309.2469,182.68469c22.09371,24.96372 35.09229,49.54803 29.03313,54.91058c-6.05916,5.36255 -28.88156,-10.52735 -50.97527,-35.49106c-22.0937,-24.96372 -35.09228,-49.54802 -29.03312,-54.91057c6.05916,-5.36255 28.88157,10.52734 50.97527,35.49106z" fill="#216aff" stroke-width="2"/><path d="M288.48634,139.1711c9.48317,10.71507 8.26101,27.28682 -2.72982,37.01405c-10.99083,9.72723 -27.58827,8.92644 -37.07145,-1.78862c-9.48319,-10.71506 -8.26099,-27.28681 2.72982,-37.01404c10.99083,-9.72723 27.58828,-8.92644 37.07145,1.78862z" fill="#faddbf" stroke-width="2"/><path d="M249.54917,174.77679c-9.48317,-10.71506 -8.26098,-27.2868 2.72982,-37.01403c10.99082,-9.72723 4.7013,25.76809 14.18448,36.48316c9.48318,10.71507 -7.43112,11.24594 -16.91431,0.53088z" fill="#ef8b89" stroke-width="0"/></g></g></g></svg>