<svg version="1.1" xmlns="http://www.w3.org/2000/svg" xmlns:xlink="http://www.w3.org/1999/xlink" width="110.54764" height="110.54764" viewBox="0,0,110.54764,110.54764"><g transform="translate(-264.72618,-124.72618)"><g data-paper-data="{&quot;isPaintingLayer&quot;:true}" fill-rule="nonzero" stroke-linejoin="miter" stroke-miterlimit="10" stroke-dasharray="" stroke-dashoffset="0" style="mix-blend-mode: normal"><path d="M268.68442,192.26849c-6.77569,-28.34081 10.70628,-56.80837 39.04709,-63.58407c28.34082,-6.7757 56.80837,10.70629 63.58407,39.04709c6.7757,28.34082 -10.70628,56.80837 -39.04709,63.58407c-28.34082,6.7757 -56.80837,-10.70629 -63.58407,-39.04709z" fill="#001aff" stroke="#000000" stroke-width="5" stroke-linecap="butt"/><path d="M366.26273,155.72966l-11.1604,17.29951l-15.34375,-13.17979l-18.75058,18.00574l-18.14748,-10.07093l-16.01532,16.46504l-17.64129,-13.51724" fill="none" stroke="#000000" stroke-width="5" stroke-linecap="round"/><path d="M307.80289,178.58921l30.6748,23.83196l-23.83196,-17.697" fill="none" stroke="#000000" stroke-width="7.5" stroke-linecap="round"/><path d="M319.60089,201.24137l16.5172,-22.4162" fill="none" stroke="#000000" stroke-width="7.5" stroke-linecap="round"/><path d="M368.91653,200.06157l-19.34872,-17.697" fill="none" stroke="#000000" stroke-width="7.5" stroke-linecap="round"/><path d="M353.10721,199.11773l12.74184,-20.52852" fill="none" stroke="#000000" stroke-width="7.5" stroke-linecap="round"/><path d="M316.43048,212.61167c0.19174,2.49264 -2.30089,2.68438 -2.30089,2.68438l-3.16328,0.24148c-4.60585,0.00233 -9.03287,0.41637 -13.62568,0.70485c0,0 -2.49513,0.15595 -2.65108,-2.33919c-0.15595,-2.49513 2.33919,-2.65108 2.33919,-2.65108c4.62795,-0.28774 9.1033,-0.71339 13.74569,-0.71091l2.97168,-0.23044c0,0 2.49264,-0.19174 2.68438,2.30089z" fill="#000000" stroke="none" stroke-width="0.5" stroke-linecap="butt"/></g></g></svg>