<svg version="1.1" xmlns="http://www.w3.org/2000/svg" xmlns:xlink="http://www.w3.org/1999/xlink" width="188.7297" height="330.16006" viewBox="0,0,188.7297,330.16006"><g transform="translate(-228.50504,-45.45)"><g data-paper-data="{&quot;isPaintingLayer&quot;:true}" fill-rule="nonzero" stroke-linecap="butt" stroke-linejoin="miter" stroke-miterlimit="10" stroke-dasharray="" stroke-dashoffset="0" style="mix-blend-mode: normal"><g data-paper-data="{&quot;index&quot;:null}" stroke="#000000"><path d="M261.34167,283.50653v-48.0604h50.99742v48.0604z" fill="#ffcaa0" stroke-width="2"/><g><path d="M260.84404,235.62641v-66.27003h51.66212v66.27003z" fill="#0000c0" stroke-width="2"/><path d="M311.76258,235.8389c0,0 -16.95511,0 -25.36521,0c-8.3211,0 -24.83121,0 -24.83121,0v-34.71029c0,0 18.03434,14.41812 26.16622,14.41812c8.57658,0 24.0302,-14.41812 24.0302,-14.41812v34.71028z" fill="#56006b" stroke-width="0"/></g><path d="M260.55098,282.9622l37.91432,-15.48613l13.0831,-32.57427v48.0604z" fill="#ff6e5b" stroke-width="0"/></g><g data-paper-data="{&quot;index&quot;:null}" stroke="#000000"><path d="M256.04886,57.97423c14.65975,0 26.54382,26.10753 26.54382,58.3128c0,32.20527 -11.88407,58.3128 -26.54382,58.3128c-14.65975,0 -26.54382,-26.10753 -26.54382,-58.3128c0,-32.20527 11.88407,-58.3128 26.54382,-58.3128z" fill="#01930e" stroke-width="2"/><path d="M282.19082,115.85286c0,32.20527 -11.88408,58.3128 -26.54382,58.3128c-14.65974,0 17.76555,-35.72183 17.76555,-67.9271c0,-32.20527 8.77827,-22.59097 8.77827,9.6143z" fill="#31525b" stroke-width="0"/></g><g data-paper-data="{&quot;index&quot;:null}" stroke="#000000"><path d="M275.62299,374.1657v-90.27109h61.17899v90.27109z" fill="#273750" stroke-width="2"/><path d="M274.83566,373.40912l42.75189,-40.95544l18.42709,-49.31565v90.27109z" fill="#1f1e2e" stroke-width="0"/></g><path d="M274.98523,283.48332v-113.80147h113.80147v113.80147z" data-paper-data="{&quot;index&quot;:null}" fill="#0000c0" stroke="#000000" stroke-width="2"/><g data-paper-data="{&quot;index&quot;:null}" stroke="#000000"><path d="M328.22894,374.61006v-90.27109h61.17899v90.27109z" fill="#273750" stroke-width="2"/><path d="M327.44157,373.85347l42.75189,-40.95544l18.42709,-49.31565v90.27109z" fill="#1f1e2e" stroke-width="0"/></g><g data-paper-data="{&quot;index&quot;:null}" stroke="#000000"><path d="M300.71463,283.0141v-111.68333h61.17899v111.68333z" fill="#ffffff" stroke-width="2"/><path d="M299.92726,282.07807l42.75189,-50.67005l18.42709,-61.01328v111.68333z" fill="#8ebbfc" stroke-width="0"/></g><g data-paper-data="{&quot;index&quot;:null}" stroke="#000000"><path d="M406.93334,114.71776c0,11.10283 -1.42394,36.61614 -7.37538,45.77754c-13.43056,20.67445 -41.94302,19.6932 -72.51838,19.6932c-28.91781,0 -61.48502,3.15028 -75.50889,-15.70582c-7.37439,-9.91539 -4.38487,-37.30378 -4.38487,-49.76492c0,-3.48625 -1.05936,-26.29915 -0.4189,-29.63798c6.00221,-31.29064 40.44282,-35.83276 80.31266,-35.83276c42.44441,0 76.32321,2.48597 78.90464,36.73529c0.10216,1.35538 0.98912,27.359 0.98912,28.73546z" fill="#ffcaa0" stroke-width="2"/><path d="M408.76669,114.72794c0,11.10283 -1.42394,36.61614 -7.37538,45.77754c-13.43056,20.67445 -41.94302,19.6932 -72.51838,19.6932c-28.9178,0 -62.13774,3.04149 -76.16161,-15.81461c-2.96486,-3.98647 62.96704,21.27155 100.416,4.08965c47.78674,-21.92495 53.18361,-101.94005 54.65026,-82.48122c0.10216,1.35538 0.98912,27.359 0.98912,28.73546z" fill="#ff6e5b" stroke-width="0"/></g><g data-paper-data="{&quot;index&quot;:null}" stroke="#000000"><path d="M345.07195,64.05427c14.65975,0 26.54382,26.10753 26.54382,58.3128c0,32.20527 -11.88407,58.3128 -26.54382,58.3128c-14.65975,0 -26.54382,-26.10753 -26.54382,-58.3128c0,-32.20527 11.88407,-58.3128 26.54382,-58.3128z" fill="#01930e" stroke-width="2"/><path d="M371.21391,121.9329c0,32.20527 -11.88408,58.3128 -26.54382,58.3128c-14.65974,0 17.76555,-35.72183 17.76555,-67.9271c0,-32.20527 8.77827,-22.59097 8.77827,9.6143z" fill="#31525b" stroke-width="0"/></g><g data-paper-data="{&quot;index&quot;:null}"><path d="M230.74292,77.42799c0,-17.66096 41.36032,-31.97799 92.38086,-31.97799c51.02054,0 92.38085,14.31702 92.38085,31.97798c0,17.66095 -41.36031,31.97799 -92.38085,31.97799c-51.02054,0 -92.38086,-14.31703 -92.38086,-31.97799z" fill="#000000" stroke="none" stroke-width="NaN"/><path d="M322.42136,86.62127c51.02054,0 93.81338,-26.50996 93.81338,-8.849c0,17.66095 -41.36031,31.97799 -92.38085,31.97799c-51.02054,0 -92.38086,-14.31703 -92.38086,-31.97799c0,-17.66096 39.92779,8.849 90.94833,8.849z" fill="#ff0000" stroke="#000000" stroke-width="2"/><path d="M322.79333,102.65525c51.02054,0 86.27707,-21.10222 88.68104,-16.87826c2.32757,4.08974 -13.32402,12.67227 -38.81909,18.15612c-13.7328,2.95385 -30.57531,4.58573 -48.42942,5.08703c-51.02054,1.43253 -87.36702,-17.19078 -87.36702,-22.05092c0,-4.86014 34.91395,15.68603 85.93449,15.68603z" fill="#900056" stroke="#000000" stroke-width="0"/></g><path d="M275.41913,142.75847c0,-15.71752 2.90507,-28.45909 6.48867,-28.45909c3.58359,0 6.48867,12.74156 6.48867,28.45908c0,15.71751 -2.90507,28.45908 -6.48867,28.45908c-3.5836,0 -6.48867,-12.74157 -6.48867,-28.45909z" data-paper-data="{&quot;index&quot;:null}" fill="#000000" stroke="none" stroke-width="0"/><path d="M259.40441,106.50384c3.39498,0 6.14716,12.6906 6.14716,28.34525c0,15.65465 -2.75217,28.34525 -6.14716,28.34525c-3.39498,0 -6.14716,-12.6906 -6.14716,-28.34525c0,-15.65465 2.75217,-28.34525 6.14716,-28.34525z" data-paper-data="{&quot;index&quot;:null}" fill="#000000" stroke="none" stroke-width="0"/><path d="M295.868,162.89796c0.51172,1.71487 0.98549,3.43967 1.55094,5.13735c0.48097,1.15289 0.83137,1.9538 1.25715,3.14423c0.97007,2.71221 4.12017,4.36647 4.59126,0.2562c0.42499,-3.70802 -0.36504,-8.08793 -1.79172,-11.49004c0,0 -0.48077,-1.15385 0.67308,-1.63462c1.15385,-0.48077 1.63462,0.67308 1.63462,0.67308c1.6198,3.90994 3.13191,10.30817 1.51528,14.43995c-1.57251,4.01901 -6.54004,4.03091 -8.42149,0.22818c-0.72688,-1.46915 -1.16485,-3.2155 -1.79943,-4.74034c-0.60202,-1.80481 -1.10647,-3.63683 -1.65322,-5.45933l-0.05272,-0.48431c0,0 0,-1.25 1.25,-1.25c1.06992,0 1.22405,0.91579 1.24626,1.17965z" data-paper-data="{&quot;index&quot;:null}" fill="#000000" stroke="none" stroke-width="0.5"/><g data-paper-data="{&quot;index&quot;:null}" stroke="#000000"><path d="M348.82697,111.30111l27.90934,39.12634l-41.5174,29.61491l-27.90934,-39.12634z" fill="#ffcaa0" stroke-width="2"/><g><path d="M377.03674,149.99171l38.48392,53.95095l-42.05853,30.00091l-38.48392,-53.95095z" fill="#0000c0" stroke-width="2"/><path d="M335.46016,179.38783c0,0 13.80329,-9.84607 20.65001,-14.72993c6.77427,-4.83218 20.21528,-14.41983 20.21528,-14.41983l20.15675,28.25792c0,0 -23.0547,-1.26511 -29.67492,3.45718c-6.98226,4.98054 -11.19037,25.69257 -11.19037,25.69257l-20.15674,-28.25791z" fill="#56006b" stroke-width="0"/></g><path d="M349.78676,111.28509l-21.87333,34.62475l8.26528,34.1165l-27.90934,-39.12634z" fill="#ff6e5b" stroke-width="0"/></g></g></g></svg>