<svg version="1.1" xmlns="http://www.w3.org/2000/svg" xmlns:xlink="http://www.w3.org/1999/xlink" width="191.65627" height="336.994" viewBox="0,0,191.65627,336.994"><g transform="translate(-228.51922,-23.9934)"><g data-paper-data="{&quot;isPaintingLayer&quot;:true}" fill-rule="nonzero" stroke-linejoin="miter" stroke-miterlimit="10" stroke-dasharray="" stroke-dashoffset="0" style="mix-blend-mode: normal"><g data-paper-data="{&quot;index&quot;:null}" stroke="#000000" stroke-linecap="butt"><path d="M365.54098,217.27056c21.81063,-25.21141 31.42797,-24.46186 37.54724,-19.16802c6.11928,5.29385 -6.60107,30.02325 -28.41171,55.23466c-21.81065,25.21141 -31.55076,-46.34709 -37.67004,-51.64095c-1.94641,-6.82201 4.56679,-6.40247 10.72946,-1.52626c7.60003,6.01352 15.94077,19.25554 17.80506,17.10056z" fill="#216aff" stroke-width="2"/><path d="M372.78495,190.42143c9.36167,-10.82138 25.94902,-11.80938 37.04889,-2.20678c11.09987,9.60261 12.50896,26.15952 3.14729,36.98089c-9.36167,10.82137 -25.94904,11.80938 -37.04891,2.20678c-11.09987,-9.60261 -12.50894,-26.1595 -3.14727,-36.98088z" fill="#faddbf" stroke-width="2"/><path d="M395.20211,225.24553c9.36167,-10.82137 2.67206,-46.24347 13.77193,-36.64087c11.09987,9.60261 12.50894,26.15951 3.14727,36.98089c-9.36167,10.82137 -26.28089,10.48137 -16.9192,-0.34001z" fill="#ef8b89" stroke-width="0"/></g><g stroke="#000000" stroke-linecap="butt"><path d="M327.76518,340.83535v-95.29492h29.49199v95.29492z" fill="#73fffc" stroke-width="2"/><path d="M327.43943,340.21742l1.32626,-93.78573c0,0 5.20288,68.11227 6.3799,77.52842c0.2602,2.08162 2.52228,2.78987 2.52228,2.78987l18.60659,13.13896z" fill="#59a9e6" stroke-width="0"/></g><g stroke="#000000" stroke-linecap="butt"><path d="M288.4238,338.4128v-95.29492h29.49199v95.29492z" fill="#73fffc" stroke-width="2"/><path d="M288.09805,337.7949l1.32626,-93.78573c0,0 5.20288,68.11227 6.3799,77.52842c0.2602,2.08162 2.52228,2.78987 2.52228,2.78987l18.60659,13.13896z" fill="#59a9e6" stroke-width="0"/></g><g stroke="#000000" stroke-linecap="butt"><path d="M355.22917,235.69588c0,13.80271 10.04743,36.74388 4.95001,46.45977c-6.2338,11.88187 -28.61241,9.09579 -38.9397,9.09579c-13.66287,0 -32.94407,4.17018 -38.34426,-14.83216c-2.01935,-7.10576 4.35457,-32.37264 4.35457,-40.7234c0,-30.68249 15.2177,-55.55556 33.98969,-55.55556c18.77199,0 33.98969,24.87307 33.98969,55.55556z" fill="#216aff" stroke-width="2"/><path d="M303.96554,251.27246c0,13.80271 62.04198,20.54886 56.94455,30.26474c-6.2338,11.88186 -28.61241,9.09579 -38.9397,9.09579c-13.66287,0 -32.94406,4.17018 -38.34425,-14.83215c-2.01936,-7.10576 4.35457,-32.37265 4.35457,-40.7234c0,-9.45244 3.34855,-28.59801 5.51953,-29.96813c5.94391,-16.76415 10.4653,25.13995 10.4653,46.16315z" fill="#3236f4" stroke-width="0"/></g><g stroke="#000000" stroke-linecap="butt"><g><path d="M232.22222,112.45007c0,-46.79079 37.93143,-84.72222 84.72222,-84.72222c46.79079,0 84.72222,37.93143 84.72222,84.72222c0,46.79079 -37.93143,84.72222 -84.72222,84.72222c-46.79079,0 -84.72222,-37.93143 -84.72222,-84.72222z" fill="#faddbf" stroke-width="2"/><path d="M232.45299,111.58056c0,-15.05428 8.65728,-41.01117 13.16632,-44.22534c0.51494,-0.36707 5.78642,-8.91029 13.30693,-15.62682c9.34748,-8.34819 21.31473,-15.15641 21.9255,-14.95935c7.96872,2.57101 -17.52654,64.85492 -16.28763,90.14485c0.00295,0.06031 4.40745,19.70158 6.02593,20.14049c2.8855,4.74247 9.11092,19.15337 19.99223,26.29351c20.2786,13.30648 48.94186,19.68013 47.45857,20.18586c-2.37273,0.80898 -14.80271,2.76903 -20.86562,2.76903c-46.79079,0 -84.72222,-37.93143 -84.72222,-84.72222z" fill="#ef8b89" stroke-width="0"/><path d="M401.14322,111.99187c0,11.62434 -1.57787,15.64071 -2.12992,13.78899c-0.5632,-1.8891 -0.18668,-9.81362 -9.04258,-14.64925c-2.14596,-1.17177 -10.20624,6.27605 -12.93385,5.04791c-1.71325,-0.77142 -8.65215,-10.17554 -10.56583,-10.85157c-1.33801,-0.47267 -12.45011,8.37757 -13.84965,7.92692c-3.49052,-1.12394 -11.98851,-11.37355 -15.73972,-12.03156c-2.06568,-0.36235 -9.2828,11.84977 -11.39182,11.59592c-2.71985,-0.32737 -10.06862,-12.06843 -12.80601,-12.06843c-7.27985,0 -7.47978,7.01079 -12.7176,13.01701c-3.40366,3.90299 -13.98842,-13.05188 -17.11223,-8.61668c-3.87941,5.50799 -7.71992,10.81771 -11.96095,14.41734c-3.32724,2.82405 -13.36416,-10.09687 -16.24015,-7.47909c-13.88607,12.63935 -22.22353,20.64372 -22.22353,2.47189c0,-36.54015 43.28764,-8.21349 85.0704,-29.73523c39.99404,-20.60039 83.64345,-9.37431 83.64345,27.16584z" fill="#ef8b89" stroke-width="0"/></g><path d="M402.67709,103.68098c0,23.48334 6.5317,8.71531 -11.46679,-0.86026c-2.20249,-1.17177 -10.47508,6.27605 -13.27454,5.04791c-1.75838,-0.77142 -8.88005,-10.17554 -10.84414,-10.85157c-1.37326,-0.47267 -12.77806,8.37757 -14.21446,7.92692c-3.58246,-1.12394 -12.30429,-11.37355 -16.15431,-12.03156c-2.12009,-0.36235 -9.52731,11.84977 -11.69189,11.59592c-2.79149,-0.32737 -10.33384,-12.06843 -13.14333,-12.06843c-7.47161,0 -7.6768,7.01079 -13.05259,13.01701c-3.49332,3.90299 -14.35688,-13.05188 -17.56298,-8.61668c-3.98159,5.50799 -7.92327,10.81771 -12.276,14.41734c-3.41488,2.82405 -13.71618,-10.09687 -16.66792,-7.47909c-14.25184,12.63935 -22.80892,20.64372 -22.80892,2.47189c0,-36.54015 39.86264,-81.25697 85.78948,-81.25697c45.92683,0 87.36842,42.14743 87.36842,78.68758z" fill="#724e36" stroke-width="2"/><path d="M402.42936,102.51819c0,23.48334 6.5317,8.71531 -11.46679,-0.86026c-2.20249,-1.17177 -10.47508,6.27605 -13.27454,5.04791c-1.75838,-0.77142 -8.88005,-10.17554 -10.84415,-10.85157c-1.37326,-0.47267 -12.77806,8.37757 -14.21446,7.92692c-3.58246,-1.12394 -12.30429,-11.37355 -16.15431,-12.03156c-2.12009,-0.36235 -9.52731,11.84977 -11.69189,11.59592c-2.79149,-0.32737 -10.33384,-12.06843 -13.14333,-12.06843c-7.47161,0 -7.6768,7.01079 -13.05259,13.01701c-3.49332,3.90299 -14.35688,-13.05188 -17.56298,-8.61668c-3.98159,5.50799 -7.92327,10.81771 -12.27601,14.41734c-3.41488,2.82405 -13.71618,-10.09687 -16.66792,-7.47909c-14.25184,12.63935 -22.80892,20.64372 -22.80892,2.47189c0,-36.54015 44.42786,-8.21349 87.31121,-29.73523c41.04751,-20.60039 85.84668,-9.37431 85.84668,27.16584z" fill="#623728" stroke-width="0"/></g><g stroke="#000000" stroke-linecap="butt"><path d="M335.77956,135.35243c0,28.55894 -13.1683,43.28947 -29.73684,43.28947c-16.56854,0 -30.26316,-14.73054 -30.26316,-43.28947c0,-28.55894 13.43146,-51.71053 30,-51.71053c16.56854,0 30,23.15159 30,51.71053z" fill="#f0f0f0" stroke-width="2"/><path d="M289.02383,115.77003c-4.30259,28.23297 34.22345,62.0416 17.65491,62.0416c-16.56854,0 -30.26316,-14.73054 -30.26316,-43.28947c0,-28.55894 18.82852,-59.56866 12.60825,-18.75213z" fill="#9a99ff" stroke-width="0"/></g><path d="M331.88513,143.58568c0,15.82221 -4.68891,28.64865 -10.47297,28.64865c-5.78406,0 -10.47297,-12.82644 -10.47297,-28.64865c0,-15.82221 4.68891,-28.64865 10.47297,-28.64865c5.78406,0 10.47297,12.82644 10.47297,28.64865z" fill="#000000" stroke="none" stroke-width="0" stroke-linecap="butt"/><g stroke="#000000" stroke-linecap="butt"><path d="M330.77026,105.31775c4.45946,10.22981 13.24831,38.768 -2.46195,38.768c-15.71026,0 -50.32611,-29.28792 -45.7813,-38.90314c4.32432,-9.14873 6.78974,-21.41892 22.5,-21.41892c15.71026,0 21.49332,11.80491 25.74324,21.55405z" fill="#a100fe" stroke-width="2"/><path d="M329.84599,104.9635c4.3074,10.22981 13.5858,38.55368 -1.58878,38.55368c-15.17458,0 -49.39934,-29.0736 -45.0095,-38.68882c4.17687,-9.14873 6.55823,0.96203 21.73281,0.96203c15.17458,0 20.76045,-10.57604 24.86546,-0.8269z" fill="#99008e" stroke-width="0"/></g><g data-paper-data="{&quot;index&quot;:null}" stroke="#000000" stroke-linecap="butt"><path d="M369.50624,82.16327c16.56854,0 30,23.15159 30,51.71053c0,28.55893 -13.69462,43.28947 -30.26316,43.28947c-16.56854,0 -29.73684,-14.73053 -29.73684,-43.28947c0,-28.55894 13.43146,-51.71053 30,-51.71053z" fill="#f0f0f0" stroke-width="2"/><path d="M398.87022,133.04352c0,28.55893 -13.69462,43.28947 -30.26316,43.28947c-16.56854,0 21.9575,-33.80863 17.65491,-62.0416c-6.22027,-40.81653 12.60825,-9.80681 12.60825,18.75213z" fill="#9a99ff" stroke-width="0"/></g><path d="M385.23386,114.76559c5.78406,0 10.47297,12.82644 10.47297,28.64865c0,15.82221 -4.68891,28.64865 -10.47297,28.64865c-5.78406,0 -10.47297,-12.82644 -10.47297,-28.64865c0,-15.82221 4.68891,-28.64865 10.47297,-28.64865z" data-paper-data="{&quot;index&quot;:null}" fill="#000000" stroke="none" stroke-width="0" stroke-linecap="butt"/><g data-paper-data="{&quot;index&quot;:null}" stroke="#000000" stroke-linecap="butt"><path d="M344.51555,103.83909c4.24992,-9.74914 10.03298,-21.55405 25.74324,-21.55405c15.71026,0 18.17568,12.27019 22.5,21.41892c4.54481,9.61522 -28.99946,39.33177 -44.70972,39.33177c-15.71026,0 -7.99299,-28.96682 -3.53353,-39.19663z" fill="#a100fe" stroke-width="2"/><path d="M345.43982,103.48485c4.10501,-9.74914 9.69088,0.8269 24.86546,0.8269c15.17458,0 17.55594,-10.11076 21.73281,-0.96203c4.38984,9.61522 -28.97766,39.54609 -44.15224,39.54609c-15.17458,0 -6.75344,-29.18114 -2.44604,-39.41095z" fill="#99008e" stroke-width="0"/></g><path d="M391.63632,338.87004c0,11.6628 -14.51982,21.11737 -32.43092,21.11737c-17.9111,0 -32.43092,-9.45457 -32.43092,-21.11737c0,-2.33142 -0.03339,-13.76009 1.08979,-15.13837c4.49546,-5.51647 17.81784,5.26144 32.14847,5.26144c17.9111,0 31.62358,-1.78588 31.62358,9.87692z" fill="#000082" stroke="#000000" stroke-width="2" stroke-linecap="butt"/><path d="M389.75004,336.13774c0,6.30841 -13.89058,10.1901 -31.80169,10.1901c-17.9111,0 -30.16566,-2.95748 -30.16566,-9.26589c0,-1.26107 -0.03338,-12.52602 1.0898,-13.27153c4.49546,-2.98386 15.55258,5.7726 29.88321,5.7726c17.9111,0 30.99434,0.26631 30.99434,6.57472z" fill="#2e0048" stroke="#000000" stroke-width="0" stroke-linecap="butt"/><path d="M348.64938,338.22521c0,11.6628 -14.51982,21.11737 -32.43092,21.11737c-17.9111,0 -32.43092,-9.45457 -32.43092,-21.11737c0,-2.33142 -0.03339,-13.76009 1.08979,-15.13837c4.49546,-5.51647 17.81784,5.26144 32.14847,5.26144c17.9111,0 31.62358,-1.78588 31.62358,9.87692z" fill="#000082" stroke="#000000" stroke-width="2" stroke-linecap="butt"/><path d="M346.7631,335.49289c0,6.30841 -13.89058,10.1901 -31.80169,10.1901c-17.9111,0 -30.16566,-2.95748 -30.16566,-9.26589c0,-1.26107 -0.03338,-12.52602 1.0898,-13.27153c4.49546,-2.98386 15.55258,5.7726 29.88321,5.7726c17.9111,0 30.99434,0.26631 30.99434,6.57472z" fill="#2e0048" stroke="#000000" stroke-width="0" stroke-linecap="butt"/><g><path d="M288.54072,261.74386c-13.54751,-6.63986 -18.1209,-17.33071 -12.17955,-31.03509c4.64677,-10.71834 21.6837,-16.8638 35.23123,-10.22393c13.5476,6.63987 19.09855,20.21744 12.5249,33.62999c-1.02799,2.09746 -2.59922,3.72811 -4.02037,5.23084c-7.66654,8.10647 -20.12725,7.99973 -31.5562,2.39821z" fill="#216aff" stroke="#000000" stroke-width="2" stroke-linecap="butt"/><path d="M297.86491,219.41668c0,0 -2.92196,4.95916 -2.0097,6.74274c8.7505,17.10854 20.86867,24.20559 25.05584,26.24703c0.9513,0.46382 1.8927,-0.14827 1.8927,-0.14827c0,0 -0.7258,1.98528 -2.43639,4.12722c-1.82021,2.27921 -4.7124,4.75693 -7.55111,5.93457c-3.24262,1.34517 -11.50654,2.44793 -11.50654,2.44793l-20.01882,-6.17297c0,0 -5.43684,-12.3043 -5.57566,-14.46709c-0.13602,-2.11881 0.31074,-4.66501 0.6768,-7.39136c0.56838,-4.23302 2.69749,-8.24223 4.70918,-10.30327c2.56741,-2.63032 6.72639,-4.74098 10.3767,-5.85349c3.39729,-1.03538 6.38696,-1.16293 6.38696,-1.16293z" fill="#3236f4" stroke="none" stroke-width="0" stroke-linecap="butt"/><path d="M289.27932,242.29587c0,0 2.20613,-8.74821 6.24941,-11.94697c5.11834,-4.04932 17.1264,-8.939 17.1264,-8.939" fill="none" stroke="#000000" stroke-width="1" stroke-linecap="round"/><path d="M325.68597,247.20224c0,0 -4.42984,5.61306 -7.8207,8.25386c-3.42322,2.66605 -12.68894,5.54683 -12.68894,5.54683" fill="none" stroke="#000000" stroke-width="1" stroke-linecap="round"/><path d="M278.46786,240.43343c0,0 2.13041,-9.01374 6.66767,-12.27907c6.96225,-5.01052 17.51023,-9.8309 17.51023,-9.8309" fill="none" stroke="#000000" stroke-width="1" stroke-linecap="round"/><path d="M281.1897,225.39386c0,0 16.96024,-3.43877 29.65921,8.48935c13.91011,13.06574 6.02729,28.40692 6.02729,28.40692" fill="none" stroke="#000000" stroke-width="1" stroke-linecap="round"/><path d="M275.89477,233.31022c0,0 17.78986,-0.61916 29.01831,9.88233c9.21956,8.6227 3.78847,22.16605 3.78847,22.16605" fill="none" stroke="#000000" stroke-width="1" stroke-linecap="round"/><path d="M319.60886,233.63091c-0.6438,-1.01623 -0.51349,-2.25317 0.29098,-2.76281c0.80446,-0.5097 1.24993,0.15025 1.89372,1.16648c0.6438,1.01623 1.2421,2.00385 0.43763,2.51351c-0.80446,0.5097 -1.97857,0.09904 -2.62231,-0.91718z" fill="#8fbbbe" stroke="none" stroke-width="0" stroke-linecap="butt"/><path d="M322.62719,240.24517c-0.5401,-0.26474 -0.65606,-1.13605 -0.25899,-1.9462c0.39706,-0.81016 0.67104,-1.08611 1.21114,-0.82142c0.5401,0.26474 0.81905,1.21595 0.42196,2.02607c-0.39706,0.81016 -0.83405,1.00623 -1.37413,0.74152z" fill="#8fbbbe" stroke="none" stroke-width="0" stroke-linecap="butt"/><path d="M315.85213,227.82137c-0.76325,-0.48117 -1.12194,-1.28362 -0.8012,-1.79245c0.32068,-0.5088 0.95983,-0.0423 1.72307,0.43881c0.76325,0.48117 1.36159,0.79462 1.04086,1.30347c-0.32068,0.5088 -1.1995,0.53127 -1.96274,0.05014z" fill="#8fbbbe" stroke="none" stroke-width="0" stroke-linecap="butt"/><path d="M293.40362,219.85804c0,0 10.15125,1.27733 16.78717,4.93579c3.76223,2.07418 6.36206,5.20102 8.30656,7.59375c1.71965,2.11597 3.53557,8.43483 4.42221,13.41601c0.65279,3.66736 0.616,6.6111 0.616,6.6111" fill="none" stroke="#000000" stroke-width="0.5" stroke-linecap="round"/><path d="M325.08426,232.75736c0,0 -5.01452,9.30766 -9.14056,12.79948c-3.47627,2.94195 -13.67608,6.94553 -13.67608,6.94553" fill="none" stroke="#000000" stroke-width="1" stroke-linecap="round"/><path d="M297.93391,248.55904c0,0 4.67917,-8.45774 7.79476,-11.73553c5.47039,-5.75514 15.25502,-9.31017 15.25502,-9.31017" fill="none" stroke="#000000" stroke-width="1" stroke-linecap="round"/></g><g stroke="#000000" stroke-linecap="butt"><path d="M276.78513,237.77779c24.07876,23.05499 22.84487,32.62226 17.24899,38.46662c-5.59588,5.84436 -29.65191,-8.10763 -53.73066,-31.16263c-24.07874,-23.05499 47.88009,-29.17192 53.47597,-35.01628c6.91152,-1.59969 6.16388,4.88403 0.98291,10.7928c-6.38934,7.2869 -20.03537,14.94884 -17.97721,16.9195z" fill="#216aff" stroke-width="2"/><path d="M303.23453,246.3673c10.33521,9.89578 10.48498,26.51187 0.33452,37.11305c-10.15045,10.60118 -26.75738,11.17302 -37.09259,1.27724c-10.33521,-9.89578 -10.48496,-26.51188 -0.33451,-37.11306c10.15046,-10.60119 26.75738,-11.17302 37.09258,-1.27723z" fill="#faddbf" stroke-width="2"/><path d="M267.32365,266.99874c10.33521,9.89578 46.04972,5.00208 35.89927,15.60326c-10.15045,10.60118 -26.75738,11.17302 -37.09258,1.27724c-10.33521,-9.89578 -9.14189,-26.77628 1.19331,-16.88049z" fill="#ef8b89" stroke-width="0"/></g><path d="M270.76638,153.54223c-0.38188,1.57523 0.58034,2.77804 1.53029,4.34213c2.77436,4.56794 6.05761,12.09431 -0.37835,15.06571c-1.61669,0.7464 -2.28317,0.57307 -4.04794,0.57422c-2.62151,0.00171 -3.77446,-0.38398 -5.67051,-2.21157c-1.10476,-1.72 -2.15656,-3.16262 -2.80399,-5.11704c-2.05253,-6.19601 -0.9016,-17.85772 5.75291,-21.03917c5.18787,-2.48027 9.08637,1.8601 6.58309,6.74417l-0.56966,1.14248c0,0 -0.13195,0.26389 -0.39584,0.49909z" fill="#000000" stroke="none" stroke-width="0.5" stroke-linecap="butt"/></g></g></svg>