<svg version="1.1" xmlns="http://www.w3.org/2000/svg" xmlns:xlink="http://www.w3.org/1999/xlink" width="176.01312" height="329.95733" viewBox="0,0,176.01312,329.95733"><g transform="translate(-228.00437,-31.03008)"><g data-paper-data="{&quot;isPaintingLayer&quot;:true}" fill-rule="nonzero" stroke-linejoin="miter" stroke-miterlimit="10" stroke-dasharray="" stroke-dashoffset="0" style="mix-blend-mode: normal"><g data-paper-data="{&quot;index&quot;:null}" stroke="#000000" stroke-linecap="butt"><path d="M345.27572,227.49584c1.11768,-2.62113 -14.44177,-4.30125 -23.18143,-8.48945c-7.08678,-3.39611 -10.32326,-9.06382 -3.33935,-10.31016c7.44296,3.17376 76.01226,-19.49203 62.93635,11.17293c-13.07592,30.66495 -29.70976,52.95097 -37.15272,49.77719c-7.44295,-3.17377 -12.33878,-11.48557 0.73714,-42.15051z" fill="#216aff" stroke-width="2"/><path d="M324.33301,245.79211c5.61252,-13.16217 21.10701,-19.16528 34.60791,-13.40833c13.50091,5.75696 19.89572,21.09395 14.28319,34.25611c-5.61251,13.16218 -21.10702,19.16529 -34.60792,13.40833c-13.50091,-5.75696 -19.8957,-21.09394 -14.28318,-34.25611z" fill="#faddbf" stroke-width="2"/><path d="M373.19703,265.69618c-5.6125,13.16218 -21.10701,19.16528 -34.60791,13.40833c-13.50091,-5.75696 21.26171,-15.29825 26.87424,-28.46042c5.61251,-13.16219 13.3462,1.88992 7.73368,15.05209z" fill="#ef8b89" stroke-width="0"/></g><g stroke="#000000" stroke-linecap="butt"><path d="M327.76518,340.83535v-95.29492h29.49199v95.29492z" fill="#73fffc" stroke-width="2"/><path d="M327.43943,340.21742l1.32626,-93.78573c0,0 5.20288,68.11227 6.3799,77.52842c0.2602,2.08162 2.52228,2.78987 2.52228,2.78987l18.60659,13.13896z" fill="#59a9e6" stroke-width="0"/></g><g stroke="#000000" stroke-linecap="butt"><path d="M288.4238,338.4128v-95.29492h29.49199v95.29492z" fill="#73fffc" stroke-width="2"/><path d="M288.09805,337.7949l1.32626,-93.78573c0,0 5.20288,68.11227 6.3799,77.52842c0.2602,2.08162 2.52228,2.78987 2.52228,2.78987l18.60659,13.13896z" fill="#59a9e6" stroke-width="0"/></g><g stroke="#000000" stroke-linecap="butt"><path d="M355.22917,235.69588c0,13.80271 10.04743,36.74388 4.95001,46.45977c-6.2338,11.88187 -28.61241,9.09579 -38.9397,9.09579c-13.66287,0 -32.94407,4.17018 -38.34426,-14.83216c-2.01935,-7.10576 4.35457,-32.37264 4.35457,-40.7234c0,-30.68249 15.2177,-55.55556 33.98969,-55.55556c18.77199,0 33.98969,24.87307 33.98969,55.55556z" fill="#216aff" stroke-width="2"/><path d="M303.96554,251.27246c0,13.80271 62.04198,20.54886 56.94455,30.26474c-6.2338,11.88186 -28.61241,9.09579 -38.9397,9.09579c-13.66287,0 -32.94406,4.17018 -38.34425,-14.83215c-2.01936,-7.10576 4.35457,-32.37265 4.35457,-40.7234c0,-9.45244 3.34855,-28.59801 5.51953,-29.96813c5.94391,-16.76415 10.4653,25.13995 10.4653,46.16315z" fill="#3236f4" stroke-width="0"/></g><g stroke="#000000" stroke-linecap="butt"><g><path d="M231.5636,117.32428c1.21467,-46.77502 40.118,-83.70897 86.89302,-82.4943c46.77502,1.21467 83.70898,40.118 82.49431,86.89302c-1.21467,46.77502 -40.118,83.70898 -86.89302,82.49431c-46.77502,-1.21467 -83.70898,-40.118 -82.49431,-86.89302z" fill="#faddbf" stroke-width="2"/><path d="M231.81687,116.46106c0.3908,-15.04921 9.719,-40.7726 14.30996,-43.86864c0.5243,-0.35358 6.01578,-8.75707 13.70811,-15.27611c9.56104,-8.10272 21.701,-14.59798 22.30645,-14.38513c7.89929,2.77701 -19.20424,64.37809 -18.62227,89.69165c0.00138,0.06036 3.89452,19.80935 5.50106,20.29013c2.76142,4.81578 8.61064,19.38343 19.30292,26.80364c19.92633,13.82842 48.41448,20.94402 46.91856,21.41106c-2.39293,0.74712 -14.86961,2.38383 -20.93048,2.22644c-46.77502,-1.21467 -83.70898,-40.118 -82.49431,-86.89302z" fill="#ef8b89" stroke-width="0"/><path d="M400.43957,121.25136c-0.30176,11.62042 -1.98336,15.59448 -2.48715,13.72905c-0.51397,-1.90308 0.06814,-9.81516 -8.65925,-14.87906c-2.11481,-1.22708 -10.36573,6.00899 -13.06053,4.71045c-1.69265,-0.81563 -8.38508,-10.39671 -10.28056,-11.1222c-1.32528,-0.50725 -12.6634,8.05155 -14.05076,7.56471c-3.46017,-1.21417 -11.68921,-11.68094 -15.42207,-12.43611c-2.05558,-0.41586 -9.58729,11.6048 -11.68902,11.29629c-2.71044,-0.39787 -9.75193,-12.32574 -12.48841,-12.3968c-7.2774,-0.18898 -7.65925,6.81426 -13.05122,12.68248c-3.50383,3.81332 -13.64488,-13.41062 -16.88277,-9.058c-4.02109,5.40542 -7.99815,10.61366 -12.33119,14.10197c-3.39943,2.73672 -13.09754,-10.44039 -16.04052,-7.89816c-14.20951,12.27462 -22.75193,20.05985 -22.28021,1.89414c0.94856,-36.52783 43.48627,-7.08699 85.81365,-27.51681c40.51534,-19.55522 83.85862,-7.1998 82.91004,29.32804z" fill="#ef8b89" stroke-width="0"/></g><path d="M402.18867,112.98309c-0.60962,23.47543 6.30325,8.88193 -11.44059,-1.15765c-2.17133,-1.22855 -10.63447,6.00201 -13.4011,4.70161c-1.73777,-0.81681 -8.61291,-10.40264 -10.55879,-11.12942c-1.36052,-0.50816 -12.99123,8.04304 -14.41544,7.55525c-3.55208,-1.21655 -12.0049,-11.68913 -15.83653,-12.44687c-2.10997,-0.41726 -9.83171,11.59845 -11.98897,11.28849c-2.78205,-0.39972 -10.01706,-12.33263 -12.82561,-12.40556c-7.4691,-0.19396 -7.85621,6.80913 -13.3861,12.67377c-3.59346,3.81099 -14.01322,-13.42018 -17.33337,-9.0697c-4.12323,5.40278 -8.20143,10.60838 -12.64613,14.0938c-3.48704,2.73445 -13.44945,-10.44954 -16.46814,-7.90927c-14.57515,12.26512 -23.33713,20.04466 -22.8654,1.87895c0.94856,-36.52783 41.95861,-80.19476 87.86997,-79.00252c45.91135,1.19224 86.24484,44.40128 85.29628,80.92911z" fill="#724e36" stroke-width="2"/><path d="M401.97121,111.81426c-0.60962,23.47543 6.30325,8.88193 -11.4406,-1.15764c-2.17133,-1.22855 -10.63447,6.00201 -13.4011,4.70161c-1.73777,-0.81681 -8.61291,-10.40264 -10.5588,-11.12942c-1.36052,-0.50816 -12.99123,8.04304 -14.41544,7.55525c-3.55208,-1.21655 -12.0049,-11.68913 -15.83653,-12.44687c-2.10997,-0.41726 -9.83171,11.59845 -11.98897,11.28849c-2.78205,-0.39972 -10.01706,-12.33263 -12.82561,-12.40557c-7.4691,-0.19396 -7.85621,6.80914 -13.3861,12.67378c-3.59346,3.81099 -14.01322,-13.42018 -17.33337,-9.0697c-4.12323,5.40278 -8.20142,10.60838 -12.64614,14.0938c-3.48704,2.73445 -13.44945,-10.44954 -16.46814,-7.90926c-14.57515,12.26512 -23.33713,20.04465 -22.8654,1.87895c0.94856,-36.52783 44.62611,-7.05739 88.0537,-27.45864c41.56846,-19.52787 86.0611,-7.1426 85.11254,29.38523z" fill="#623728" stroke-width="0"/></g><g stroke="#000000" stroke-linecap="butt"><path d="M323.78019,155.90891c-0.74138,28.54932 -14.28764,42.93305 -30.85059,42.50293c-16.56295,-0.43011 -29.87057,-15.5112 -29.12919,-44.0605c0.74138,-28.54932 14.76932,-51.34442 31.33228,-50.91432c16.56295,0.43011 29.38888,23.92258 28.6475,52.47189z" fill="#f0f0f0" stroke-width="2"/><path d="M277.54857,135.11935c-5.03406,28.11175 32.60134,62.90912 16.03839,62.47901c-16.56295,-0.43011 -29.87057,-15.5112 -29.12919,-44.0605c0.74138,-28.54932 20.36855,-59.0598 13.09081,-18.41851z" fill="#9a99ff" stroke-width="0"/></g><path d="M322.03621,163.5698c-0.41075,15.81688 -5.43104,28.51728 -11.21315,28.36712c-5.7821,-0.15015 -10.13647,-13.09398 -9.72573,-28.91087c0.41075,-15.81688 5.43104,-28.51728 11.21315,-28.36712c5.7821,0.15015 10.13647,13.09398 9.72573,28.91087z" fill="#000000" stroke="none" stroke-width="0" stroke-linecap="butt"/><g stroke="#000000" stroke-linecap="butt"><path d="M319.55227,125.75432c4.19239,10.34212 -10.2611,13.85992 -25.96607,13.45209c-15.70497,-0.40784 -27.0503,-5.34555 -22.25741,-14.83956c4.56036,-9.03338 7.34349,-21.23545 23.04845,-20.82761c15.70497,0.40784 21.17962,12.35889 25.17503,22.21507z" fill="#a100fe" stroke-width="2"/><path d="M318.63751,125.37619c4.04039,10.33818 -9.92373,13.86867 -25.09319,13.47475c-15.16946,-0.39392 -26.12384,-5.32149 -21.48587,-14.81952c4.41296,-9.03722 6.53105,1.13196 21.70051,1.52589c15.16946,0.39392 21.028,-10.03354 24.87854,-0.18112z" fill="#99008e" stroke-width="0"/></g><g data-paper-data="{&quot;index&quot;:null}" stroke="#000000" stroke-linecap="butt"><path d="M357.4698,97.04968c16.56295,0.43011 29.38889,23.92258 28.64751,52.47189c-0.74138,28.54931 -14.81379,42.91937 -31.37674,42.48927c-16.56295,-0.43011 -29.34443,-15.49753 -28.60305,-44.04684c0.74138,-28.54932 14.76932,-51.34442 31.33228,-50.91432z" fill="#f0f0f0" stroke-width="2"/><path d="M385.50305,148.67507c-0.74138,28.54931 -14.81379,42.91937 -31.37674,42.48927c-16.56295,-0.43011 22.82776,-33.22723 19.25954,-61.56238c-5.15859,-40.96425 12.85858,-9.4762 12.1172,19.07312z" fill="#9a99ff" stroke-width="0"/></g><path d="M375.72021,125.55302c5.7821,0.15015 10.13647,13.09399 9.72574,28.91087c-0.41075,15.81688 -5.43104,28.51728 -11.21315,28.36712c-5.7821,-0.15015 -10.13647,-13.09399 -9.72573,-28.91087c0.41075,-15.81688 5.43103,-28.51728 11.21315,-28.36712z" data-paper-data="{&quot;index&quot;:null}" fill="#000000" stroke="none" stroke-width="0" stroke-linecap="butt"/><g data-paper-data="{&quot;index&quot;:null}" stroke="#000000" stroke-linecap="butt"><path d="M331.72744,118.06945c4.50157,-9.63553 10.58913,-21.28633 26.2941,-20.87851c15.70497,0.40784 17.85103,12.73789 21.93638,21.9958c4.29367,9.72996 -7.29264,14.07219 -22.99761,13.66436c-15.70497,-0.40784 -29.95641,-4.67104 -25.23289,-14.78164z" fill="#a100fe" stroke-width="2"/><path d="M332.66059,117.73932c4.35672,-9.63929 9.66615,1.0782 24.83562,1.47212c15.16946,0.39392 17.81249,-9.65162 21.75045,-0.39754c4.13875,9.72594 -7.0566,14.07832 -22.22607,13.68439c-15.16946,-0.39392 -28.93152,-4.64442 -24.36001,-14.75896z" fill="#99008e" stroke-width="0"/></g><path d="M391.63632,338.87004c0,11.6628 -14.51982,21.11737 -32.43092,21.11737c-17.9111,0 -32.43092,-9.45457 -32.43092,-21.11737c0,-2.33142 -0.03339,-13.76009 1.08979,-15.13837c4.49546,-5.51647 17.81784,5.26144 32.14847,5.26144c17.9111,0 31.62358,-1.78588 31.62358,9.87692z" fill="#000082" stroke="#000000" stroke-width="2" stroke-linecap="butt"/><path d="M389.75004,336.13774c0,6.30841 -13.89058,10.1901 -31.80169,10.1901c-17.9111,0 -30.16566,-2.95748 -30.16566,-9.26589c0,-1.26107 -0.03338,-12.52602 1.0898,-13.27153c4.49546,-2.98386 15.55258,5.7726 29.88321,5.7726c17.9111,0 30.99434,0.26631 30.99434,6.57472z" fill="#2e0048" stroke="#000000" stroke-width="0" stroke-linecap="butt"/><path d="M348.64938,338.22521c0,11.6628 -14.51982,21.11737 -32.43092,21.11737c-17.9111,0 -32.43092,-9.45457 -32.43092,-21.11737c0,-2.33142 -0.03339,-13.76009 1.08979,-15.13837c4.49546,-5.51647 17.81784,5.26144 32.14847,5.26144c17.9111,0 31.62358,-1.78588 31.62358,9.87692z" fill="#000082" stroke="#000000" stroke-width="2" stroke-linecap="butt"/><path d="M346.7631,335.49289c0,6.30841 -13.89058,10.1901 -31.80169,10.1901c-17.9111,0 -30.16566,-2.95748 -30.16566,-9.26589c0,-1.26107 -0.03338,-12.52602 1.0898,-13.27153c4.49546,-2.98386 15.55258,5.7726 29.88321,5.7726c17.9111,0 30.99434,0.26631 30.99434,6.57472z" fill="#2e0048" stroke="#000000" stroke-width="0" stroke-linecap="butt"/><g><path d="M321.08182,255.42856c-14.71936,3.31112 -24.98134,-2.15714 -28.93519,-16.56118c-3.09238,-11.26554 6.33765,-26.72835 21.05703,-30.03948c14.71942,-3.31116 27.55175,3.79482 30.82992,18.36749c0.51265,2.27888 0.30941,4.5342 0.14304,6.59579c-0.89762,11.12137 -10.67724,18.84405 -23.09478,21.63738z" fill="#485e84" stroke="#000000" stroke-width="2" stroke-linecap="butt"/><path d="M301.83435,216.59475c0,0 0.82903,5.69594 2.65741,6.51472c17.53822,7.85396 31.42984,5.79459 35.97245,4.76283c1.03207,-0.23441 1.38242,-1.30123 1.38242,-1.30123c0,0 0.67791,2.00213 0.68636,4.74329c0.00899,2.91683 -0.69325,6.65992 -2.16821,9.35614c-1.68486,3.07982 -7.43554,9.11623 -7.43554,9.11623l-19.47106,7.72892c0,0 -11.94575,-6.18499 -13.40881,-7.78386c-1.43333,-1.56635 -2.68013,-3.8309 -4.10269,-6.18531c-2.20871,-3.65557 -3.06065,-8.11438 -2.7837,-10.9811c0.35349,-3.65859 2.27308,-7.90913 4.42147,-11.06299c1.99949,-2.93525 4.24994,-4.90751 4.24994,-4.90751z" fill="#343545" stroke="none" stroke-width="0" stroke-linecap="butt"/><path d="M309.47455,239.80674c0,0 -3.7606,-8.20098 -2.61282,-13.22718c1.45294,-6.36265 7.74979,-17.69633 7.74979,-17.69633" fill="none" stroke="#000000" stroke-width="1" stroke-linecap="round"/><path d="M340.926,220.82457c0,0 0.06331,7.15023 -0.92546,11.33283c-0.99817,4.22254 -6.4159,12.27244 -6.4159,12.27244" fill="none" stroke="#000000" stroke-width="1" stroke-linecap="round"/><path d="M299.88064,245.12775c0,0 -3.98596,-8.36053 -2.49485,-13.74805c2.28808,-8.26697 7.49023,-18.63198 7.49023,-18.63198" fill="none" stroke="#000000" stroke-width="1" stroke-linecap="round"/><path d="M292.58085,231.69978c0,0 11.06583,-13.30498 28.43653,-11.96249c19.02741,1.47052 22.49329,18.36662 22.49329,18.36662" fill="none" stroke="#000000" stroke-width="1" stroke-linecap="round"/><path d="M293.41273,241.1873c0,0 13.4788,-11.62688 28.80959,-10.47521c12.58798,0.94565 16.83868,14.90454 16.83868,14.90454" fill="none" stroke="#000000" stroke-width="1" stroke-linecap="round"/><path d="M327.68747,214.05304c-1.13843,-0.38882 -1.81172,-1.43462 -1.50392,-2.33581c0.30776,-0.90126 1.06841,-0.66588 2.20682,-0.27706c1.13843,0.38882 2.22348,0.78384 1.91569,1.68506c-0.30776,0.90126 -1.4802,1.31665 -2.61858,0.92781z" fill="#8fbbbe" stroke="none" stroke-width="0" stroke-linecap="butt"/><path d="M334.1836,217.31788c-0.58683,0.13199 -1.22305,-0.47454 -1.42105,-1.35476c-0.19801,-0.88023 -0.15733,-1.26696 0.42948,-1.39898c0.58683,-0.13199 1.40015,0.43469 1.59813,1.31493c0.19801,0.88023 -0.01978,1.3068 -0.60658,1.4388z" fill="#8fbbbe" stroke="none" stroke-width="0" stroke-linecap="butt"/><path d="M321.11988,211.87806c-0.89635,0.10308 -1.67862,-0.29772 -1.74736,-0.89525c-0.06876,-0.59749 0.72165,-0.63426 1.61796,-0.73737c0.89635,-0.10308 1.55911,-0.23357 1.62786,0.36397c0.06876,0.59749 -0.60216,1.16554 -1.49848,1.26863z" fill="#8fbbbe" stroke="none" stroke-width="0" stroke-linecap="butt"/><path d="M298.63339,219.7335c0,0 8.71277,-5.36351 16.17707,-6.66885c4.23189,-0.74004 8.21717,0.0686 11.23174,0.71554c2.66594,0.57208 8.03979,4.35988 11.85131,7.68713c2.80621,2.44966 4.6216,4.76728 4.6216,4.76728" fill="none" stroke="#000000" stroke-width="0.5" stroke-linecap="round"/><path d="M331.40814,209.94215c0,0 1.92202,10.39634 0.89329,15.70284c-0.8667,4.47084 -6.30914,13.98105 -6.30914,13.98105" fill="none" stroke="#000000" stroke-width="1" stroke-linecap="round"/><path d="M320.14404,239.26713c0,0 -1.651,-9.52378 -1.2758,-14.03044c0.65877,-7.91284 6.05858,-16.81333 6.05858,-16.81333" fill="none" stroke="#000000" stroke-width="1" stroke-linecap="round"/></g><g stroke="#000000" stroke-linecap="butt"><path d="M296.9054,244.11189c33.21122,2.88681 38.24275,11.11717 37.54208,19.17814c-0.70068,8.06099 -28.19172,12.25547 -61.40294,9.36865c-33.21121,-2.88682 19.04667,-52.73261 19.74736,-60.79359c4.38522,-5.57656 7.86411,-0.05435 7.52719,7.79693c-0.4155,9.68246 -6.25244,24.20311 -3.41367,24.44987z" fill="#216aff" stroke-width="2"/><path d="M322.90273,234.23821c14.2551,1.23909 24.78081,14.09702 23.50981,28.71896c-1.27098,14.62195 -13.85736,25.47091 -28.11246,24.23182c-14.2551,-1.23909 -24.78081,-14.09703 -23.50982,-28.71898c1.27098,-14.62195 13.85737,-25.4709 28.11246,-24.23181z" fill="#faddbf" stroke-width="2"/><path d="M307.83561,272.81579c14.2551,1.23909 39.02789,-24.94838 37.75691,-10.32643c-1.27098,14.62195 -13.85736,25.47091 -28.11246,24.23181c-14.2551,-1.23909 -23.89956,-15.14448 -9.64446,-13.90538z" fill="#ef8b89" stroke-width="0"/></g><path d="M261.91342,166.04201c0,6.53783 -2.25642,11.83779 -5.03985,11.83779c-2.78343,0 -5.03985,-5.29996 -5.03985,-11.83779c0,-6.53783 2.25642,-11.83779 5.03985,-11.83779c2.78343,0 5.03985,5.29996 5.03985,11.83779z" fill="#000000" stroke="none" stroke-width="0" stroke-linecap="butt"/></g></g></svg>