<svg version="1.1" xmlns="http://www.w3.org/2000/svg" xmlns:xlink="http://www.w3.org/1999/xlink" width="241.14464" height="314.76762" viewBox="0,0,241.14464,314.76762"><g transform="translate(-105.65507,-30.81241)"><g data-paper-data="{&quot;isPaintingLayer&quot;:true}" fill-rule="nonzero" stroke-linejoin="miter" stroke-miterlimit="10" stroke-dasharray="" stroke-dashoffset="0" style="mix-blend-mode: normal"><g data-paper-data="{&quot;index&quot;:null}" stroke="#000000" stroke-linecap="butt"><path d="M304.76342,242.90185l-29.03955,-38.295l40.63525,-30.81418l29.03955,38.29499z" fill="#ffcaa0" stroke-width="2"/><g><path d="M275.69968,204.85145l-40.04236,-52.80461l41.16488,-31.21582l40.04236,52.80461z" fill="#0000c0" stroke-width="2"/><path d="M276.42056,204.57146l-20.973,-27.65749c0,0 21.02546,2.15095 27.85936,-3.03128c6.47956,-4.91353 12.13764,-27.29892 12.13764,-27.29892l20.973,27.6575c0,0 -13.15542,9.97591 -19.78575,15.00377c-6.70125,5.08163 -20.21124,15.32643 -20.21124,15.32643z" fill="#56006b" stroke-width="0"/></g><path d="M305.06455,241.99036l-29.03954,-38.295l30.1071,18.0503l39.56769,-10.56948z" fill="#ff6e5b" stroke-width="0"/></g><g data-paper-data="{&quot;index&quot;:null}" stroke="#000000" stroke-linecap="butt"><path d="M297.31464,88.69658c5.33033,31.7611 -2.06875,59.4755 -16.52631,61.90185c-14.45756,2.42635 -30.49881,-21.35416 -35.82914,-53.11524c-5.33033,-31.7611 2.06874,-59.47548 16.5263,-61.90184c14.45756,-2.42635 30.49882,21.35416 35.82915,53.11525z" fill="#01930e" stroke-width="2"/><path d="M252.34957,86.05389c5.33033,31.7611 43.22077,61.6235 28.76323,64.04985c-14.45755,2.42635 -30.49882,-21.35416 -35.82915,-53.11525c-5.33033,-31.7611 1.7356,-42.69569 7.06592,-10.9346z" fill="#31525b" stroke-width="0"/></g><g data-paper-data="{&quot;index&quot;:null}" stroke="#000000" stroke-linecap="butt"><path d="M236.44531,344.13567v-90.27109h61.17899v90.27109z" fill="#273750" stroke-width="2"/><path d="M237.23265,343.37909v-90.27109l18.42709,49.31565l42.75189,40.95544z" fill="#1f1e2e" stroke-width="0"/></g><path d="M182.45859,264.60694l-10.5159,-113.31456l113.31456,-10.5159l10.5159,113.31456z" data-paper-data="{&quot;index&quot;:null}" fill="#0000c0" stroke="#000000" stroke-width="2" stroke-linecap="butt"/><g data-paper-data="{&quot;index&quot;:null}" stroke="#000000" stroke-linecap="butt"><path d="M183.83936,344.58003v-90.27109h61.17899v90.27109z" fill="#273750" stroke-width="2"/><path d="M184.62674,343.82344v-90.27109l18.42709,49.31565l42.75189,40.95544z" fill="#1f1e2e" stroke-width="0"/></g><g data-paper-data="{&quot;index&quot;:null}" stroke="#000000" stroke-linecap="butt"><path d="M209.19324,261.65466l-10.32017,-111.20549l60.91723,-5.65328l10.32017,111.20549z" fill="#ffffff" stroke-width="2"/><path d="M209.89076,260.64987l-10.32017,-111.20549l23.98622,59.04946l47.25117,46.50274z" fill="#8ebbfc" stroke-width="0"/></g><g data-paper-data="{&quot;index&quot;:null}" stroke="#000000" stroke-linecap="butt"><path d="M266.71547,216.7224l-48.05548,0.68757l-0.72958,-50.9922l48.05548,-0.68757z" fill="#ffcaa0" stroke-width="2"/><g><path d="M218.84265,217.57445l-66.26324,0.94809l-0.73909,-51.65683l66.26324,-0.94809z" fill="#0000c0" stroke-width="2"/><path d="M219.04447,216.82791l-34.70673,0.49657c0,0 14.19556,-15.65832 14.07286,-24.23402c-0.11635,-8.13105 -14.79099,-25.95726 -14.79099,-25.95726l34.70674,-0.49658c0,0 0.23621,16.50842 0.35525,24.82867c0.12032,8.40924 0.36288,25.36261 0.36288,25.36261z" fill="#56006b" stroke-width="0"/></g><path d="M266.1599,215.93959l-48.05549,0.68756l32.38377,-13.54777l14.94213,-38.132z" fill="#ff6e5b" stroke-width="0"/></g><g data-paper-data="{&quot;index&quot;:null}" stroke="#000000" stroke-linecap="butt"><path d="M122.07371,116.51533c-0.22782,-1.35747 -3.65699,-27.14926 -3.78056,-28.50286c-3.12282,-34.20421 29.87727,-42.2632 71.73628,-49.28823c39.31995,-6.5989 74.03733,-7.81973 85.1357,22.04592c1.18424,3.18677 3.91527,25.86037 4.49229,29.29854c2.06246,12.28927 9.54383,38.80512 3.91226,49.8043c-10.70955,20.91715 -43.34901,23.20055 -71.86798,27.98678c-30.15366,5.06057 -58.11047,10.7474 -74.77764,-7.41899c-7.38567,-8.05002 -13.01271,-32.97576 -14.85036,-43.92546z" fill="#ffcaa0" stroke-width="2"/><path d="M120.26732,116.82882c-0.22782,-1.35747 -3.65699,-27.14926 -3.78057,-28.50285c-1.77423,-19.4332 16.79161,58.58508 67.54809,72.29841c39.77626,10.74671 100.61834,-25.07542 98.35417,-20.65321c-10.70955,20.91715 -43.97473,23.41587 -72.49369,28.2021c-30.15366,5.06057 -58.11047,10.74741 -74.77765,-7.41899c-7.38567,-8.05002 -13.01271,-32.97576 -14.85036,-43.92546z" fill="#ff6e5b" stroke-width="0"/></g><g data-paper-data="{&quot;index&quot;:null}" stroke="#000000" stroke-linecap="butt"><path d="M166.71705,108.51131c5.33034,31.76109 -2.06875,59.4755 -16.52631,61.90185c-14.45756,2.42635 -30.49881,-21.35416 -35.82915,-53.11524c-5.33034,-31.76109 2.06875,-59.47549 16.52631,-61.90184c14.45756,-2.42635 30.49881,21.35415 35.82915,53.11524z" fill="#01930e" stroke-width="2"/><path d="M121.75198,105.86862c5.33034,31.76109 43.22076,61.62349 28.76323,64.04985c-14.45755,2.42635 -30.49881,-21.35416 -35.82915,-53.11524c-5.33034,-31.76109 1.7356,-42.69569 7.06592,-10.9346z" fill="#31525b" stroke-width="0"/></g><g data-paper-data="{&quot;index&quot;:null}" stroke-linecap="butt"><path d="M289.66222,50.57837c2.92308,17.41738 -35.49717,38.38254 -85.81402,46.82701c-50.31686,8.44447 -93.47635,1.17049 -96.39943,-16.24688c-2.92308,-17.41738 35.49715,-38.38253 85.81401,-46.827c50.31686,-8.44447 93.47637,-1.17049 96.39945,16.24688z" fill="#000000" stroke="none" stroke-width="NaN"/><path d="M288.99916,51.03875c2.92308,17.41738 -35.49717,38.38253 -85.81403,46.827c-50.31686,8.44447 -93.47635,1.17048 -96.39943,-16.24689c-2.92308,-17.41738 43.66725,1.64427 93.98411,-6.8002c50.31686,-8.44447 85.30628,-41.19729 88.22936,-23.77992z" fill="#ff0000" stroke="#000000" stroke-width="2"/><path d="M285.20983,61.00027c0.8044,4.79311 -31.95841,29.17531 -82.51237,36.207c-17.69084,2.46067 -34.57114,3.63892 -48.60344,2.99874c-26.05107,-1.1885 -42.9073,-7.06214 -41.28873,-11.48072c1.67171,-4.56359 39.93463,10.41223 90.25149,1.96777c50.31686,-8.44447 81.34866,-34.48591 82.15306,-29.6928z" fill="#900056" stroke="#000000" stroke-width="0"/></g><g><path d="M246.72521,124.06088c1.40518,8.37282 1.62045,14.59905 0.06664,16.58992c-1.32279,1.69485 -4.19638,-0.29587 -5.82154,-0.02312c-3.53417,0.59313 -4.44203,1.08184 -7.04345,-14.41889c-2.60142,-15.50074 -1.84528,-28.54739 1.68888,-29.14051c3.53417,-0.59313 8.50805,11.49188 11.10947,26.99263z" data-paper-data="{&quot;index&quot;:null}" fill="#000000" stroke="none" stroke-width="0" stroke-linecap="butt"/><path d="M219.21234,94.437l34.88204,5.31732" fill="none" stroke="#000000" stroke-width="5" stroke-linecap="round"/><path d="M248.54106,141.91408l-21.16224,-4.60317" fill="none" stroke="#000000" stroke-width="2.5" stroke-linecap="round"/></g><g><path d="M269.77079,111.53715c2.59101,15.43874 1.97723,28.40983 -1.37092,28.97174c-3.34816,0.56191 -8.16281,-11.49815 -10.75383,-26.93689c-2.59101,-15.43874 -1.97723,-28.40983 1.37093,-28.97173c3.34816,-0.5619 8.16281,11.49815 10.75383,26.93689z" data-paper-data="{&quot;index&quot;:null}" fill="#000000" stroke="none" stroke-width="0" stroke-linecap="butt"/><path d="M274.16542,75.80629l-21.0664,11.85463" fill="none" stroke="#000000" stroke-width="5" stroke-linecap="round"/></g><path d="M210.44957,152.27816c0,6.7721 -8.12944,4.1835 -16.73399,4.1835c-8.60455,0 -14.42585,2.5886 -14.42585,-4.1835c0,-6.7721 6.97537,-12.26197 15.57992,-12.26197c8.60455,0 15.57992,5.48987 15.57992,12.26197z" fill="#000000" stroke="none" stroke-width="0" stroke-linecap="butt"/></g></g></svg>