<svg version="1.1" xmlns="http://www.w3.org/2000/svg" xmlns:xlink="http://www.w3.org/1999/xlink" width="271.21336" height="285.44602" viewBox="0,0,271.21336,285.44602"><g transform="translate(-182.53082,-59.96262)"><g data-paper-data="{&quot;isPaintingLayer&quot;:true}" fill-rule="nonzero" stroke-linecap="butt" stroke-linejoin="miter" stroke-miterlimit="10" stroke-dasharray="" stroke-dashoffset="0" style="mix-blend-mode: normal"><g data-paper-data="{&quot;index&quot;:null}" stroke="#000000"><path d="M416.27884,130.79965c0,32.20527 -11.88407,58.3128 -26.54382,58.3128c-14.65975,0 -26.54382,-26.10753 -26.54382,-58.3128c0,-32.20527 11.88407,-58.3128 26.54382,-58.3128c14.65975,0 26.54382,26.10753 26.54382,58.3128z" fill="#01930e" stroke-width="2"/><path d="M372.37133,120.75118c0,32.20527 32.42529,67.9271 17.76555,67.9271c-14.65974,0 -26.54382,-26.10753 -26.54382,-58.3128c0,-32.20527 8.77827,-41.81957 8.77827,-9.6143z" fill="#31525b" stroke-width="0"/></g><g data-paper-data="{&quot;index&quot;:null}" stroke="#000000"><path d="M314.97023,344.04734v-73.39662h69.9653v73.39662z" fill="#273750" stroke-width="2"/><path d="M315.87065,343.43219c0,0 -0.17047,-4.58413 -0.17047,-10.2385c0,-12.61177 0.17047,-63.15812 0.17047,-63.15812l21.07352,40.09702l48.89177,33.2996z" fill="#1f1e2e" stroke-width="0"/></g><g data-paper-data="{&quot;index&quot;:null}" stroke="#000000"><path d="M254.8092,344.40864v-73.39662h69.9653v73.39662z" fill="#273750" stroke-width="2"/><path d="M255.70966,343.79348v-73.39662l21.07352,40.09702l48.89177,33.2996z" fill="#1f1e2e" stroke-width="0"/></g><g data-paper-data="{&quot;index&quot;:null}" stroke="#000000"><path d="M406.77756,268.42758l-24.39433,-30.52676l45.56114,-36.4085l24.39433,30.52676z" fill="#ffcaa0" stroke-width="2"/><g><path d="M382.32548,238.1346l-33.63711,-42.09306l46.15499,-36.88305l33.63711,42.09306z" fill="#0000c0" stroke-width="2"/><path d="M383.09764,237.7387l-17.61812,-22.0471c0,0 21.12458,-1.87475 28.7869,-7.99781c7.26503,-5.80558 16.05863,-27.83883 16.05863,-27.83883l17.61813,22.0471c0,0 -14.75015,11.78703 -22.18423,17.7277c-7.51359,6.00421 -22.6613,18.10894 -22.6613,18.10894z" fill="#56006b" stroke-width="0"/></g><path d="M407.20768,267.51734l-24.39433,-30.52676l28.22239,11.34996l41.73308,-17.2317z" fill="#ff6e5b" stroke-width="0"/></g><path d="M255.51965,270.31632v-92.52844h130.14524v92.52844z" data-paper-data="{&quot;index&quot;:null}" fill="#0000c0" stroke="#000000" stroke-width="2"/><g data-paper-data="{&quot;index&quot;:null}" stroke="#000000"><path d="M286.27502,269.93481v-90.80624h69.9653v90.80624z" fill="#ffffff" stroke-width="2"/><path d="M287.17548,269.17376v-90.80624l21.07352,49.608l48.89177,41.19824z" fill="#8ebbfc" stroke-width="0"/></g><g data-paper-data="{&quot;index&quot;:null}" stroke="#000000"><path d="M183.93273,230.4268l23.75392,-31.02769l46.30878,35.45269l-23.75392,31.02769z" fill="#ffcaa0" stroke-width="2"/><g><path d="M207.44583,199.39934l32.75406,-42.78379l46.91237,35.91478l-32.75406,42.78379z" fill="#0000c0" stroke-width="2"/><path d="M208.01602,200.05345l17.1556,-22.40888c0,0 6.90666,20.05145 14.69472,26.01376c7.38425,5.65317 30.88671,8.88208 30.88671,8.88208l-17.15561,22.40889c0,0 -14.99219,-11.4776 -22.54826,-17.26231c-7.63689,-5.84658 -23.03316,-17.63354 -23.03316,-17.63354z" fill="#56006b" stroke-width="0"/></g><path d="M184.91974,230.62506l23.75392,-31.02769l-4.21962,30.12507l26.77448,36.35531z" fill="#ff6e5b" stroke-width="0"/></g><g data-paper-data="{&quot;index&quot;:null}" stroke="#000000"><path d="M238.85054,129.23039c0,-1.37646 0.88696,-27.38008 0.98912,-28.73546c2.58143,-34.24932 36.46023,-36.73529 78.90464,-36.73529c39.86984,0 74.31045,4.54212 80.31266,35.83276c0.64046,3.33883 -0.4189,26.15173 -0.4189,29.63798c0,12.46114 2.98952,39.84953 -4.38487,49.76492c-14.02387,18.8561 -46.59108,15.70582 -75.50889,15.70582c-30.57536,0 -59.08782,0.98125 -72.51838,-19.6932c-5.95144,-9.1614 -7.37538,-34.67471 -7.37538,-45.77754z" fill="#ffcaa0" stroke-width="2"/><path d="M237.01718,129.24058c0,-1.37646 0.88696,-27.38008 0.98912,-28.73546c1.46665,-19.45883 6.86352,60.55627 54.65026,82.48122c37.44896,17.1819 103.38086,-8.07612 100.416,-4.08965c-14.02387,18.8561 -47.24381,15.81461 -76.16161,15.81461c-30.57536,0 -59.08782,0.98125 -72.51838,-19.6932c-5.95144,-9.1614 -7.37538,-34.67471 -7.37538,-45.77754z" fill="#ff6e5b" stroke-width="0"/></g><g data-paper-data="{&quot;index&quot;:null}" stroke="#000000"><path d="M284.20291,128.72574c0,32.20527 -11.88407,58.3128 -26.54382,58.3128c-14.65975,0 -26.54382,-26.10753 -26.54382,-58.3128c0,-32.20527 11.88407,-58.3128 26.54382,-58.3128c14.65975,0 26.54382,26.10753 26.54382,58.3128z" fill="#01930e" stroke-width="2"/><path d="M240.2954,118.67727c0,32.20527 32.42529,67.9271 17.76555,67.9271c-14.65974,0 -26.54382,-26.10753 -26.54382,-58.3128c0,-32.20527 8.77827,-41.81957 8.77827,-9.6143z" fill="#31525b" stroke-width="0"/></g><g data-paper-data="{&quot;index&quot;:null}"><path d="M415.04096,91.9406c0,17.66096 -41.36032,31.97799 -92.38086,31.97799c-51.02054,0 -92.38085,-14.31704 -92.38085,-31.97799c0,-17.66096 41.36031,-31.97798 92.38085,-31.97798c51.02054,0 92.38086,14.31703 92.38086,31.97799z" fill="#000000" stroke="none" stroke-width="NaN"/><path d="M414.31085,92.28489c0,17.66096 -41.36032,31.97799 -92.38086,31.97799c-51.02054,0 -92.38085,-14.31704 -92.38085,-31.97799c0,-17.66096 42.79284,8.849 93.81338,8.849c51.02054,0 90.94833,-26.50996 90.94833,-8.849z" fill="#ff0000" stroke="#000000" stroke-width="2"/><path d="M408.92504,101.48184c0,4.86014 -36.34648,23.48345 -87.36702,22.05092c-17.85411,-0.5013 -34.69662,-2.13318 -48.42942,-5.08703c-25.49507,-5.48385 -41.14666,-14.06638 -38.81909,-18.15612c2.40397,-4.22396 37.6605,16.87826 88.68104,16.87826c51.02054,0 85.93449,-20.54617 85.93449,-15.68603z" fill="#900056" stroke="#000000" stroke-width="0"/></g><path d="M326.30581,164.5295c0,11.66455 -2.90507,21.12054 -6.48867,21.12054c-3.5836,0 -6.48867,-9.45599 -6.48867,-21.12053c0,-11.66455 2.90508,-21.12053 6.48867,-21.12053c3.5836,0 6.48867,9.45599 6.48867,21.12054z" data-paper-data="{&quot;index&quot;:null}" fill="#000000" stroke="none" stroke-width="0"/><path d="M351.64553,162.48161c0,11.06128 -2.75218,20.02822 -6.14716,20.02822c-3.39499,0 -6.14716,-8.96694 -6.14716,-20.02822c0,-11.06128 2.75218,-20.02822 6.14716,-20.02822c3.39499,0 6.14716,8.96694 6.14716,20.02822z" data-paper-data="{&quot;index&quot;:null}" fill="#000000" stroke="none" stroke-width="0"/><path d="M307.9604,186.84276c-3.20544,5.06315 -11.14289,5.7876 -17.72878,1.61812c-6.5859,-4.16948 -9.3263,-11.65401 -6.12085,-16.71715c3.20544,-5.06315 7.73906,-0.41109 14.32495,3.75839c6.5859,4.16948 12.73012,6.2775 9.52468,11.34064z" fill="#000000" stroke="none" stroke-width="0"/></g></g></svg>