<svg version="1.1" xmlns="http://www.w3.org/2000/svg" xmlns:xlink="http://www.w3.org/1999/xlink" width="259.85779" height="293.65273" viewBox="0,0,259.85779,293.65273"><g transform="translate(-192.16206,-51.9273)"><g data-paper-data="{&quot;isPaintingLayer&quot;:true}" fill-rule="nonzero" stroke-linejoin="miter" stroke-miterlimit="10" stroke-dasharray="" stroke-dashoffset="0" style="mix-blend-mode: normal"><g data-paper-data="{&quot;index&quot;:null}" stroke="#000000" stroke-linecap="butt"><path d="M419.65846,246.00022l-38.19064,-29.17665l30.95967,-40.52451l38.19064,29.17665z" fill="#ffcaa0" stroke-width="2"/><g><path d="M381.50965,217.06578l-52.66071,-40.23141l31.36319,-41.05271l52.66071,40.23141z" fill="#ff0008" stroke-width="2"/><path d="M382.12991,216.60389l-27.58212,-21.07202c0,0 20.83882,-3.52704 26.04552,-10.34232c4.93673,-6.4619 4.42787,-29.54568 4.42787,-29.54568l27.58213,21.07203c0,0 -10.02301,13.11957 -15.07461,19.73183c-5.10563,6.68299 -15.39879,20.15617 -15.39879,20.15617z" fill="#8d005e" stroke-width="0"/></g><path d="M419.70593,245.04146l-38.19064,-29.17665l33.82729,9.37895l35.32301,-20.72681z" fill="#ff6e5b" stroke-width="0"/></g><path d="M264.46059,253.45329v-99.54791h113.80147v99.54791z" data-paper-data="{&quot;index&quot;:null}" fill="#ff0008" stroke="#000000" stroke-width="2" stroke-linecap="butt"/><g data-paper-data="{&quot;index&quot;:null}" fill="#000000" stroke="#000000" stroke-linecap="butt"><path d="M291.35367,253.04284v-97.69506h61.17899v97.69506z" stroke-width="2"/><path d="M292.14105,252.22405v-97.69506l18.42709,53.3714l42.75189,44.32366z" stroke-width="0"/></g><g data-paper-data="{&quot;index&quot;:null}" stroke="#000000" stroke-linecap="butt"><path d="M316.44531,344.13566v-90.27109h61.17899v90.27109z" fill="#273750" stroke-width="2"/><path d="M317.23265,343.37909v-90.27109l18.42709,49.31565l42.75189,40.95544z" fill="#1f1e2e" stroke-width="0"/></g><g data-paper-data="{&quot;index&quot;:null}" stroke="#000000" stroke-linecap="butt"><path d="M263.83936,344.58003v-90.27109h61.17899v90.27109z" fill="#273750" stroke-width="2"/><path d="M264.62674,343.82343v-90.27109l18.42709,49.31565l42.75189,40.95544z" fill="#1f1e2e" stroke-width="0"/></g><g data-paper-data="{&quot;index&quot;:null}" stroke="#000000" stroke-linecap="butt"><path d="M193.50704,236.14622l21.81723,-42.82301l45.43997,23.15051l-21.81723,42.82301z" fill="#ffcaa0" stroke-width="2"/><g><path d="M215.09356,193.408l30.08357,-59.04825l46.03224,23.45225l-30.08357,59.04825z" fill="#ff0008" stroke-width="2"/><path d="M215.65965,193.93488l15.75689,-30.92772c0,0 7.22439,19.86214 14.86634,23.75552c7.24571,3.6915 29.85992,-0.96863 29.85992,-0.96863l-15.75689,30.92773c0,0 -14.71092,-7.49484 -22.12523,-11.27224c-7.49361,-3.8178 -22.60103,-11.51465 -22.60103,-11.51465z" fill="#8d005e" stroke-width="0"/></g><path d="M194.45865,236.02015l21.81723,-42.82301l-3.12987,34.96362l26.75261,31.0099z" fill="#ff6e5b" stroke-width="0"/></g><g data-paper-data="{&quot;index&quot;:null}" stroke="#000000" stroke-linecap="butt"><path d="M427.44264,136.49562c-4.17421,31.93361 -19.34191,56.28059 -33.878,54.38049c-14.53609,-1.90009 -22.93604,-29.32772 -18.76183,-61.26133c4.17421,-31.93361 19.34191,-56.28059 33.878,-54.38049c14.53609,1.90009 22.93604,29.32772 18.76183,61.26133z" fill="#01930e" stroke-width="2"/><path d="M385.20792,120.84093c-4.17421,31.93361 23.34755,71.55685 8.81147,69.65676c-14.53608,-1.90009 -22.93604,-29.32772 -18.76183,-61.26133c4.17421,-31.93361 14.12457,-40.32903 9.95036,-8.39542z" fill="#31525b" stroke-width="0"/></g><g data-paper-data="{&quot;index&quot;:null}" stroke="#000000" stroke-linecap="butt"><path d="M251.7144,111.94262c0.17841,-1.36485 4.42829,-27.03416 4.70526,-28.36486c6.9988,-33.62583 40.91404,-31.6997 83.00042,-26.19837c39.53353,5.16764 73.0949,14.13539 74.99081,45.94005c0.2023,3.39368 -3.80497,25.87684 -4.25683,29.33368c-1.61512,12.35603 -2.20071,39.90087 -10.79805,48.7768c-16.34957,16.87937 -48.23374,9.53454 -76.90762,5.78642c-30.31745,-3.96296 -58.71658,-6.68556 -69.35417,-28.92639c-4.7138,-9.8555 -2.81888,-35.33816 -1.37981,-46.34734z" fill="#ffcaa0" stroke-width="2"/><path d="M249.89519,111.71509c0.17841,-1.36485 4.42829,-27.03416 4.70526,-28.36486c3.97639,-19.10459 -1.04324,60.93506 43.49865,88.86884c34.90607,21.89083 103.55558,5.39149 100.09903,8.96005c-16.34957,16.87937 -48.89507,9.55781 -77.56894,5.80969c-30.31745,-3.96296 -58.71658,-6.68556 -69.35417,-28.92639c-4.7138,-9.8555 -2.81888,-35.33816 -1.37981,-46.34734z" fill="#ff6e5b" stroke-width="0"/></g><g data-paper-data="{&quot;index&quot;:null}" stroke="#000000" stroke-linecap="butt"><path d="M296.74962,117.32046c-4.17421,31.93361 -19.34191,56.28059 -33.878,54.38049c-14.53609,-1.90009 -22.93604,-29.32772 -18.76183,-61.26133c4.17421,-31.93361 19.34191,-56.28059 33.878,-54.38049c14.53609,1.90009 22.93604,29.32772 18.76183,61.26133z" fill="#01930e" stroke-width="2"/><path d="M254.51489,101.66579c-4.17421,31.93361 23.34755,71.55685 8.81147,69.65676c-14.53608,-1.90009 -22.93604,-29.32772 -18.76183,-61.26133c4.17421,-31.93361 14.12457,-40.32903 9.95036,-8.39542z" fill="#31525b" stroke-width="0"/></g><path d="M353.35844,150.21896c-2.03719,15.58494 -6.56923,27.84249 -10.1226,27.37801c-3.55337,-0.46448 -4.78247,-13.47511 -2.74528,-29.06003c2.03719,-15.58494 6.56924,-27.84248 10.1226,-27.378c3.55337,0.46448 4.78247,13.47511 2.74527,29.06004z" data-paper-data="{&quot;index&quot;:null}" fill="#000000" stroke="none" stroke-width="0" stroke-linecap="butt"/><path d="M379.45099,149.27127c-2.02904,15.5226 -6.40287,27.74943 -9.76921,27.3094c-3.36635,-0.44003 -4.45044,-13.3803 -2.4214,-28.9029c2.02904,-15.5226 6.40287,-27.74943 9.76921,-27.3094c3.36635,0.44003 4.45044,13.3803 2.4214,28.9029z" data-paper-data="{&quot;index&quot;:null}" fill="#000000" stroke="none" stroke-width="0" stroke-linecap="butt"/><path d="M359.93698,124.1097l-29.74694,-3.88838" fill="none" stroke="#000000" stroke-width="5" stroke-linecap="round"/><path d="M392.9706,121.22408l-23.72285,1.46135" fill="none" stroke="#000000" stroke-width="5" stroke-linecap="round"/><g data-paper-data="{&quot;index&quot;:null}" stroke-linecap="butt"><path d="M431.25183,113.22862c-2.28909,23.39989 -45.15619,35.20599 -95.74635,26.36967c-50.59017,-8.83632 -89.74592,-34.96893 -87.45683,-58.36881c2.28909,-23.39989 45.15618,-35.20598 95.74634,-26.36966c50.59017,8.83632 89.74593,34.96892 87.45684,58.36881z" fill="#000000" stroke="none" stroke-width="NaN"/><path d="M430.48326,113.55834c-2.28909,23.39989 -45.15619,35.20599 -95.74635,26.36967c-50.59017,-8.83632 -89.74592,-34.96893 -87.45683,-58.36881c2.28909,-23.39989 41.28493,19.13584 91.87509,27.97215c50.59017,8.83632 93.61718,-19.37291 91.3281,4.02699z" fill="#ff0000" stroke="#000000" stroke-width="2"/><path d="M423.95084,124.81105c-0.62994,6.43944 -39.08364,24.8195 -89.48813,14.08515c-17.63853,-3.75638 -34.12746,-8.83551 -47.36156,-15.12762c-24.56923,-11.68135 -38.97639,-25.7635 -36.13837,-30.77909c2.93117,-5.18019 35.15518,28.88533 85.74535,37.72165c50.59017,8.83632 87.87265,-12.33954 87.24272,-5.90009z" fill="#900056" stroke="#000000" stroke-width="0"/></g><path d="M317.92897,164.42053c5.86652,-4.10656 11.99791,-5.4704 13.69483,-3.04622c1.69693,2.42418 -1.6832,7.7184 -7.54972,11.82496c-5.86652,4.10656 -11.99791,5.4704 -13.69483,3.04622c-1.69693,-2.42418 1.6832,-7.7184 7.54972,-11.82496z" fill="#000000" stroke="none" stroke-width="0" stroke-linecap="butt"/></g></g></svg>