<svg version="1.1" xmlns="http://www.w3.org/2000/svg" xmlns:xlink="http://www.w3.org/1999/xlink" width="238.44922" height="314.64114" viewBox="0,0,238.44922,314.64114"><g transform="translate(-118.41051,-30.93888)"><g data-paper-data="{&quot;isPaintingLayer&quot;:true}" fill-rule="nonzero" stroke-linejoin="miter" stroke-miterlimit="10" stroke-dasharray="" stroke-dashoffset="0" style="mix-blend-mode: normal"><g data-paper-data="{&quot;index&quot;:null}" stroke="#000000" stroke-linecap="butt"><path d="M314.21804,244.45587l-28.26606,-38.86943l41.24478,-29.99342l28.26606,38.86942z" fill="#ffcaa0" stroke-width="2"/><g><path d="M285.9229,205.8305l-38.9758,-53.59669l41.78236,-30.38436l38.9758,53.59669z" fill="#0000c0" stroke-width="2"/><path d="M286.64925,205.56502l-20.41437,-28.07236c0,0 20.97812,2.57199 27.91453,-2.4722c6.57675,-4.78265 12.68243,-27.05012 12.68243,-27.05012l20.41437,28.07237c0,0 -13.35275,9.71019 -20.08254,14.60413c-6.80177,4.94628 -20.51441,14.9182 -20.51441,14.9182z" fill="#56006b" stroke-width="0"/></g><path d="M314.53738,243.5506l-28.26605,-38.86943l29.73922,18.6502l39.77161,-9.77419z" fill="#ff6e5b" stroke-width="0"/></g><g data-paper-data="{&quot;index&quot;:null}" stroke="#000000" stroke-linecap="butt"><path d="M309.86195,90.13227c4.69258,31.86157 -3.26058,59.42208 -17.76387,61.55813c-14.50329,2.13605 -30.06462,-21.96125 -34.7572,-53.8228c-4.69258,-31.86157 3.26057,-59.42206 17.76386,-61.55812c14.50329,-2.13605 30.06463,21.96125 34.75721,53.82281z" fill="#01930e" stroke-width="2"/><path d="M264.95889,86.58874c4.69258,31.86157 41.97679,62.47752 27.47351,64.61357c-14.50328,2.13605 -30.06463,-21.96125 -34.75721,-53.82281c-4.69258,-31.86157 2.59113,-42.65232 7.28369,-10.79076z" fill="#31525b" stroke-width="0"/></g><g data-paper-data="{&quot;index&quot;:null}" stroke="#000000" stroke-linecap="butt"><path d="M236.44531,344.13567v-90.27109h61.17899v90.27109z" fill="#273750" stroke-width="2"/><path d="M237.23265,343.37909v-90.27109l18.42709,49.31565l42.75189,40.95544z" fill="#1f1e2e" stroke-width="0"/></g><path d="M182.45859,264.60694l-10.5159,-113.31456l113.31456,-10.5159l10.5159,113.31456z" data-paper-data="{&quot;index&quot;:null}" fill="#0000c0" stroke="#000000" stroke-width="2" stroke-linecap="butt"/><g data-paper-data="{&quot;index&quot;:null}" stroke="#000000" stroke-linecap="butt"><path d="M183.83936,344.58003v-90.27109h61.17899v90.27109z" fill="#273750" stroke-width="2"/><path d="M184.62674,343.82344v-90.27109l18.42709,49.31565l42.75189,40.95544z" fill="#1f1e2e" stroke-width="0"/></g><g data-paper-data="{&quot;index&quot;:null}" stroke="#000000" stroke-linecap="butt"><path d="M209.19324,261.65466l-10.32017,-111.20549l60.91723,-5.65328l10.32017,111.20549z" fill="#ffffff" stroke-width="2"/><path d="M209.89076,260.64987l-10.32017,-111.20549l23.98622,59.04946l47.25117,46.50274z" fill="#8ebbfc" stroke-width="0"/></g><g data-paper-data="{&quot;index&quot;:null}" stroke="#000000" stroke-linecap="butt"><path d="M276.26526,217.40453l-48.05548,0.68757l-0.72958,-50.9922l48.05548,-0.68757z" fill="#ffcaa0" stroke-width="2"/><g><path d="M228.39244,218.25658l-66.26324,0.94809l-0.73909,-51.65683l66.26324,-0.94809z" fill="#0000c0" stroke-width="2"/><path d="M228.59426,217.51004l-34.70673,0.49657c0,0 14.19556,-15.65832 14.07286,-24.23402c-0.11635,-8.13105 -14.79099,-25.95726 -14.79099,-25.95726l34.70674,-0.49658c0,0 0.23621,16.50842 0.35525,24.82867c0.12032,8.40924 0.36288,25.36261 0.36288,25.36261z" fill="#56006b" stroke-width="0"/></g><path d="M275.70969,216.62172l-48.05549,0.68756l32.38377,-13.54777l14.94213,-38.132z" fill="#ff6e5b" stroke-width="0"/></g><g data-paper-data="{&quot;index&quot;:null}" stroke="#000000" stroke-linecap="butt"><path d="M134.09858,114.43256c-0.20056,-1.36176 -3.11202,-27.21711 -3.20843,-28.57292c-2.43654,-34.25994 30.71847,-41.65579 72.70989,-47.84031c39.44433,-5.80937 74.17921,-6.33401 84.67666,23.74811c1.12012,3.20987 3.39609,25.93366 3.90407,29.3827c1.8157,12.32814 8.76403,38.98864 2.9131,49.87272c-11.1267,20.69826 -43.80538,22.32692 -72.41456,26.5405c-30.24904,4.4551 -58.31423,9.58036 -74.61389,-8.91649c-7.22282,-8.19646 -12.34907,-33.22999 -13.96685,-44.21432z" fill="#ffcaa0" stroke-width="2"/><path d="M132.28626,114.70978c-0.20056,-1.36176 -3.11202,-27.21711 -3.20844,-28.57291c-1.38432,-19.46486 15.61384,58.90991 66.08523,73.63795c39.55284,11.5419 101.10078,-23.05339 98.74842,-18.67746c-11.1267,20.69826 -44.43529,22.52965 -73.04446,26.74323c-30.24904,4.4551 -58.31424,9.58037 -74.6139,-8.91649c-7.22282,-8.19646 -12.34907,-33.22999 -13.96685,-44.21432z" fill="#ff6e5b" stroke-width="0"/></g><g data-paper-data="{&quot;index&quot;:null}" stroke="#000000" stroke-linecap="butt"><path d="M178.89339,107.32506c4.69259,31.86156 -3.26058,59.42208 -17.76387,61.55813c-14.50329,2.13605 -30.06462,-21.96125 -34.75721,-53.8228c-4.69259,-31.86156 3.26058,-59.42207 17.76387,-61.55812c14.50329,-2.13605 30.06462,21.96124 34.75721,53.8228z" fill="#01930e" stroke-width="2"/><path d="M133.99033,103.78154c4.69259,31.86156 41.97678,62.47751 27.47351,64.61357c-14.50328,2.13605 -30.06462,-21.96125 -34.75721,-53.8228c-4.69259,-31.86156 2.59113,-42.65232 7.28369,-10.79076z" fill="#31525b" stroke-width="0"/></g><g data-paper-data="{&quot;index&quot;:null}" stroke-linecap="butt"><path d="M302.97518,51.86831c2.57335,17.47248 -36.25945,37.66325 -86.73547,45.09738c-50.47603,7.43413 -93.48103,-0.70356 -96.05438,-18.17603c-2.57335,-17.47248 36.25943,-37.66324 86.73546,-45.09737c50.47603,-7.43413 93.48105,0.70357 96.0544,18.17603z" fill="#000000" stroke="none" stroke-width="NaN"/><path d="M302.30302,52.31531c2.57335,17.47248 -36.25945,37.66324 -86.73548,45.09737c-50.47603,7.43413 -93.48103,-0.70357 -96.05438,-18.17604c-2.57335,-17.47248 43.62551,2.51929 94.10154,-4.91484c50.47603,-7.43413 86.11498,-39.47897 88.68832,-22.0065z" fill="#ff0000" stroke="#000000" stroke-width="2"/><path d="M298.31477,62.19887c0.70816,4.80827 -32.53683,28.52881 -83.22159,34.54569c-17.73661,2.10555 -34.63714,2.94518 -48.65379,2.02384c-26.02201,-1.71048 -42.75711,-7.92084 -41.05029,-12.30608c1.76286,-4.52916 39.71788,11.21066 90.19391,3.77655c50.47603,-7.43413 82.02362,-32.84827 82.73177,-28.04z" fill="#900056" stroke="#000000" stroke-width="0"/></g><g><path d="M258.57377,124.47535c1.23706,8.39931 1.32747,14.6286 -0.26593,16.58792c-1.3565,1.66799 -4.18961,-0.37993 -5.81991,-0.13981c-3.54535,0.52217 -4.46282,0.99258 -6.75299,-14.55719c-2.29017,-15.54977 -1.27265,-28.57864 2.27269,-29.1008c3.54535,-0.52217 8.27598,11.66012 10.56615,27.20991z" data-paper-data="{&quot;index&quot;:null}" fill="#000000" stroke="none" stroke-width="0" stroke-linecap="butt"/><path d="M266.42871,100.32139l-34.76844,-6.01549" fill="none" stroke="#000000" stroke-width="5" stroke-linecap="round"/><path d="M238.96566,137.3349l21.06571,5.02646" fill="none" stroke="#000000" stroke-width="2.5" stroke-linecap="round"/></g><g><path d="M281.86577,112.4161c2.28101,15.48758 1.40733,28.44376 -1.95141,28.93844c-3.35875,0.49468 -7.93068,-11.65947 -10.21169,-27.14705c-2.28101,-15.48758 -1.40733,-28.44376 1.95142,-28.93843c3.35875,-0.49467 7.93068,11.65947 10.21169,27.14705z" data-paper-data="{&quot;index&quot;:null}" fill="#000000" stroke="none" stroke-width="0" stroke-linecap="butt"/><path d="M265.67597,88.21047l21.2998,-11.42995" fill="none" stroke="#000000" stroke-width="5" stroke-linecap="round"/></g><path d="M221.73978,151.95978c-0.13575,6.77074 -8.21167,4.0197 -16.81449,3.84721c-8.60282,-0.17249 -14.47484,2.2989 -14.33909,-4.47184c0.13575,-6.77074 7.21977,-12.11968 15.82259,-11.94719c8.60282,0.17249 15.46674,5.80108 15.33099,12.57182z" fill="#000000" stroke="none" stroke-width="0" stroke-linecap="butt"/></g></g></svg>