<svg version="1.1" xmlns="http://www.w3.org/2000/svg" xmlns:xlink="http://www.w3.org/1999/xlink" width="188.7297" height="330.16006" viewBox="0,0,188.7297,330.16006"><g transform="translate(-228.50504,-45.45)"><g data-paper-data="{&quot;isPaintingLayer&quot;:true}" fill-rule="nonzero" stroke-linejoin="miter" stroke-miterlimit="10" stroke-dasharray="" stroke-dashoffset="0" style="mix-blend-mode: normal"><g data-paper-data="{&quot;index&quot;:null}" stroke="#000000" stroke-linecap="butt"><path d="M261.34167,283.50653v-48.0604h50.99742v48.0604z" fill="#ffcaa0" stroke-width="2"/><g><path d="M260.84404,235.62641v-66.27003h51.66212v66.27003z" fill="#0000c0" stroke-width="2"/><path d="M311.76258,235.8389c0,0 -16.95511,0 -25.36521,0c-8.3211,0 -24.83121,0 -24.83121,0v-34.71029c0,0 18.03434,14.41812 26.16622,14.41812c8.57658,0 24.0302,-14.41812 24.0302,-14.41812v34.71028z" fill="#56006b" stroke-width="0"/></g><path d="M260.55098,282.9622l37.91432,-15.48613l13.0831,-32.57427v48.0604z" fill="#ff6e5b" stroke-width="0"/></g><g data-paper-data="{&quot;index&quot;:null}" stroke="#000000" stroke-linecap="butt"><path d="M256.04886,57.97423c14.65975,0 26.54382,26.10753 26.54382,58.3128c0,32.20527 -11.88407,58.3128 -26.54382,58.3128c-14.65975,0 -26.54382,-26.10753 -26.54382,-58.3128c0,-32.20527 11.88407,-58.3128 26.54382,-58.3128z" fill="#01930e" stroke-width="2"/><path d="M282.19082,115.85286c0,32.20527 -11.88408,58.3128 -26.54382,58.3128c-14.65974,0 17.76555,-35.72183 17.76555,-67.9271c0,-32.20527 8.77827,-22.59097 8.77827,9.6143z" fill="#31525b" stroke-width="0"/></g><g data-paper-data="{&quot;index&quot;:null}" stroke="#000000" stroke-linecap="butt"><path d="M275.62299,374.1657v-90.27109h61.17899v90.27109z" fill="#273750" stroke-width="2"/><path d="M274.83566,373.40912l42.75189,-40.95544l18.42709,-49.31565v90.27109z" fill="#1f1e2e" stroke-width="0"/></g><path d="M274.98523,283.48332v-113.80147h113.80147v113.80147z" data-paper-data="{&quot;index&quot;:null}" fill="#0000c0" stroke="#000000" stroke-width="2" stroke-linecap="butt"/><g data-paper-data="{&quot;index&quot;:null}" stroke="#000000" stroke-linecap="butt"><path d="M328.22894,374.61006v-90.27109h61.17899v90.27109z" fill="#273750" stroke-width="2"/><path d="M327.44157,373.85347l42.75189,-40.95544l18.42709,-49.31565v90.27109z" fill="#1f1e2e" stroke-width="0"/></g><g data-paper-data="{&quot;index&quot;:null}" stroke="#000000" stroke-linecap="butt"><path d="M300.71463,283.0141v-111.68333h61.17899v111.68333z" fill="#ffffff" stroke-width="2"/><path d="M299.92726,282.07807l42.75189,-50.67005l18.42709,-61.01328v111.68333z" fill="#8ebbfc" stroke-width="0"/></g><g data-paper-data="{&quot;index&quot;:null}" stroke="#000000" stroke-linecap="butt"><path d="M353.27873,286.23095v-48.0604h50.99742v48.0604z" fill="#ffcaa0" stroke-width="2"/><g><path d="M352.78111,238.35083v-66.27003h51.66212v66.27003z" fill="#0000c0" stroke-width="2"/><path d="M403.69965,238.56332c0,0 -16.95511,0 -25.36521,0c-8.3211,0 -24.83121,0 -24.83121,0v-34.71029c0,0 18.03434,14.41812 26.16622,14.41812c8.57658,0 24.0302,-14.41812 24.0302,-14.41812v34.71028z" fill="#56006b" stroke-width="0"/></g><path d="M352.48805,285.68663l37.91432,-15.48613l13.0831,-32.57427v48.0604z" fill="#ff6e5b" stroke-width="0"/></g><g data-paper-data="{&quot;index&quot;:null}" stroke="#000000" stroke-linecap="butt"><path d="M406.93334,114.71776c0,11.10283 -1.42394,36.61614 -7.37538,45.77754c-13.43056,20.67445 -41.94302,19.6932 -72.51838,19.6932c-28.91781,0 -61.48502,3.15028 -75.50889,-15.70582c-7.37439,-9.91539 -4.38487,-37.30378 -4.38487,-49.76492c0,-3.48625 -1.05936,-26.29915 -0.4189,-29.63798c6.00221,-31.29064 40.44282,-35.83276 80.31266,-35.83276c42.44441,0 76.32321,2.48597 78.90464,36.73529c0.10216,1.35538 0.98912,27.359 0.98912,28.73546z" fill="#ffcaa0" stroke-width="2"/><path d="M408.76669,114.72794c0,11.10283 -1.42394,36.61614 -7.37538,45.77754c-13.43056,20.67445 -41.94302,19.6932 -72.51838,19.6932c-28.9178,0 -62.13774,3.04149 -76.16161,-15.81461c-2.96486,-3.98647 62.96704,21.27155 100.416,4.08965c47.78674,-21.92495 53.18361,-101.94005 54.65026,-82.48122c0.10216,1.35538 0.98912,27.359 0.98912,28.73546z" fill="#ff6e5b" stroke-width="0"/></g><g data-paper-data="{&quot;index&quot;:null}" stroke="#000000" stroke-linecap="butt"><path d="M388.12479,55.90032c14.65975,0 26.54382,26.10753 26.54382,58.3128c0,32.20527 -11.88407,58.3128 -26.54382,58.3128c-14.65975,0 -26.54382,-26.10753 -26.54382,-58.3128c0,-32.20527 11.88407,-58.3128 26.54382,-58.3128z" fill="#01930e" stroke-width="2"/><path d="M414.26675,113.77895c0,32.20527 -11.88408,58.3128 -26.54382,58.3128c-14.65974,0 17.76555,-35.72183 17.76555,-67.9271c0,-32.20527 8.77827,-22.59097 8.77827,9.6143z" fill="#31525b" stroke-width="0"/></g><g data-paper-data="{&quot;index&quot;:null}" stroke-linecap="butt"><path d="M230.74292,77.42799c0,-17.66096 41.36032,-31.97799 92.38086,-31.97799c51.02054,0 92.38085,14.31702 92.38085,31.97798c0,17.66095 -41.36031,31.97799 -92.38085,31.97799c-51.02054,0 -92.38086,-14.31703 -92.38086,-31.97799z" fill="#000000" stroke="none" stroke-width="NaN"/><path d="M322.42136,86.62127c51.02054,0 93.81338,-26.50996 93.81338,-8.849c0,17.66095 -41.36031,31.97799 -92.38085,31.97799c-51.02054,0 -92.38086,-14.31703 -92.38086,-31.97799c0,-17.66096 39.92779,8.849 90.94833,8.849z" fill="#ff0000" stroke="#000000" stroke-width="2"/><path d="M322.79333,102.65525c51.02054,0 86.27707,-21.10222 88.68104,-16.87826c2.32757,4.08974 -13.32402,12.67227 -38.81909,18.15612c-13.7328,2.95385 -30.57531,4.58573 -48.42942,5.08703c-51.02054,1.43253 -87.36702,-17.19078 -87.36702,-22.05092c0,-4.86014 34.91395,15.68603 85.93449,15.68603z" fill="#900056" stroke="#000000" stroke-width="0"/></g><path d="M301.1856,139.49689c0,-15.71752 2.90507,-28.45909 6.48867,-28.45909c3.58359,0 6.48867,12.74156 6.48867,28.45908c0,15.71751 -2.90507,28.45908 -6.48867,28.45908c-3.5836,0 -6.48867,-12.74157 -6.48867,-28.45909z" data-paper-data="{&quot;index&quot;:null}" fill="#000000" stroke="none" stroke-width="0" stroke-linecap="butt"/><path d="M281.58314,106.83c3.39498,0 6.14716,12.6906 6.14716,28.34525c0,15.65465 -2.75217,28.34525 -6.14716,28.34525c-3.39498,0 -6.14716,-12.6906 -6.14716,-28.34525c0,-15.65465 2.75217,-28.34525 6.14716,-28.34525z" data-paper-data="{&quot;index&quot;:null}" fill="#000000" stroke="none" stroke-width="0" stroke-linecap="butt"/><path d="M268.76983,100.68504l23.02121,13.19193" fill="none" stroke="#000000" stroke-width="5" stroke-linecap="round"/><path d="M300.58566,111.54899l31.2985,-0.776" fill="none" stroke="#000000" stroke-width="5" stroke-linecap="round"/><path d="M334.14352,163.55452c0,-0.95504 0.60806,-1.30201 1.04989,-1.42807c1.37647,-1.19892 3.15326,-2.06055 4.10034,-3.64186c2.27555,-3.79943 3.42242,-9.22118 3.42242,-13.57559c0,0 0,-1.5 1.5,-1.5c1.5,0 1.5,1.5 1.5,1.5c0,4.81436 -1.2721,10.9619 -3.86433,15.1428c-1.2609,2.03365 -3.31128,2.92787 -4.93335,4.56338l-1.27498,0.43934c0,0 -1.5,0 -1.5,-1.5z" fill="#000000" stroke="none" stroke-width="0.5" stroke-linecap="butt"/></g></g></svg>