<svg version="1.1" xmlns="http://www.w3.org/2000/svg" xmlns:xlink="http://www.w3.org/1999/xlink" width="97.77097" height="138.22207" viewBox="0,0,97.77097,138.22207"><g transform="translate(-269.60022,-95.02769)"><g data-paper-data="{&quot;isPaintingLayer&quot;:true}" fill-rule="nonzero" stroke-linejoin="miter" stroke-miterlimit="10" stroke-dasharray="" stroke-dashoffset="0" style="mix-blend-mode: normal"><text transform="translate(338.63056,211.86243) rotate(-165.59082) scale(1.13857,-1.13857)" font-size="40" xml:space="preserve" data-paper-data="{&quot;index&quot;:null}" fill="#ffffff" fill-rule="nonzero" stroke="none" stroke-width="1" stroke-linecap="butt" stroke-linejoin="miter" stroke-miterlimit="10" stroke-dasharray="" stroke-dashoffset="0" font-family="Sans Serif" font-weight="normal" text-anchor="start" style="mix-blend-mode: normal"><tspan x="0" dy="0">???</tspan></text><path d="M274.75851,215.62175c0,0 -1.46918,-7.54879 -1.23577,-9.35866c0.70018,-5.4295 5.28434,-28.83619 9.49786,-49.97734c0.65174,-3.27003 4.33601,-7.84765 4.33601,-7.84765c0,0 4.16557,-1.96017 6.24787,-1.557c22.97389,4.44843 45.19328,6.87869 53.19436,11.12593c2.66704,1.41579 7.28601,5.3143 7.28601,5.3143c0,0 -0.27252,7.4797 -0.423,9.38859c-0.05014,0.63629 -0.07666,0.99477 -0.16465,1.62696c-2.63569,18.94221 -7.68949,40.46264 -9.81036,47.9075c-0.70697,2.48162 -4.48658,5.82487 -4.48658,5.82487c0,0 -3.18308,4.04014 -10.70227,3.92823c-8.22726,-0.12249 -27.41841,-4.58587 -47.19435,-9.24962z" data-paper-data="{&quot;index&quot;:null}" fill="#582700" stroke="#000000" stroke-width="2.5" stroke-linecap="round"/><path d="M360.81492,166.22596c-1.48046,1.49116 -2.97162,0.0107 -2.97162,0.0107l-1.00622,-1.09615c-0.13741,-0.07971 -0.27494,-0.15861 -0.41256,-0.23664c-0.46652,0.44102 -1.29503,0.8984 -2.42756,0.25664c-1.04385,-0.59153 -1.15394,-1.44123 -1.05629,-2.06152c-4.11865,-1.94537 -8.35331,-3.32806 -12.82724,-4.63867c-12.61493,-3.23182 -25.45461,-5.47826 -38.23195,-7.98583c-4.19035,-0.82237 -13.90043,-0.97721 -16.85405,-4.4466c-1.44045,-1.69204 -0.14787,-4.74525 0.02739,-6.51491c0.50785,-5.12813 0.92163,-10.45947 1.89577,-15.52344c1.31745,-6.61038 0.0037,-13.00247 0.44458,-19.65318c0.22101,-3.33422 -0.23813,-6.8199 3.22429,-9.05866c0.97761,-0.63216 2.32893,0.11409 3.48138,0.27901c4.21184,0.60274 8.19051,1.68098 12.21768,2.98232c12.762,4.12388 25.51426,7.5217 38.02975,12.42852c5.04747,1.98573 10.30275,3.13662 15.58569,4.36184c3.1049,0.72013 6.13186,0.38871 7.29845,4.32857c0.69672,2.35282 -1.42726,8.79508 -1.99709,11.22199c-2.19724,9.3583 -2.98863,21.22232 -6.83393,30.31459c0.18073,0.10172 0.36123,0.20475 0.54163,0.30906l1.86124,1.75067c0,0 1.49119,1.48043 0.01073,2.97159z" data-paper-data="{&quot;index&quot;:null}" fill="#000000" stroke="none" stroke-width="0.5" stroke-linecap="butt"/><g data-paper-data="{&quot;index&quot;:null}" stroke="none" stroke-width="0.5" stroke-linecap="butt"><path d="M338.99538,185.05873c-2.16243,1.34726 -5.23959,2.86039 -6.67134,4.39383c-0.07669,0.08216 3.24518,6.37437 3.56596,6.98312c2.40753,6.56191 2.29981,12.13633 -6.82439,10.06153c-4.90775,-1.116 -2.99903,-13.87172 -7.9066,-10.12805c-6.34775,5.33574 -8.12881,8.39236 -13.89355,1.16264c-0.64044,-0.80321 -2.42167,-2.94675 -2.4226,-3.63676c-0.00374,-2.80015 11.61351,-5.8289 10.38736,-9.11376c-0.83371,-3.18 -5.84476,-10.98008 -5.19292,-13.74642c0.57258,-2.42995 8.84741,-3.8096 10.34966,-2.41354c1.56983,1.45884 2.19176,5.0886 3.13905,7.03717c3.1,9.13633 3.40974,-2.02966 9.61916,-2.41863c1.35017,-0.08458 4.79629,6.08241 6.3561,8.91925c0.32045,-0.06177 0.74554,-0.01328 1.08407,0.48608c0.56352,0.83119 -0.12213,1.42263 -0.27135,1.53699c-0.04631,0.25016 -0.19658,0.51398 -0.5573,0.72072c-0.29264,0.16773 -0.5477,0.19697 -0.76129,0.15586zM337.52426,183.32399c-1.12981,-1.78607 -2.3773,-3.40334 -3.57606,-5.19453c-0.54053,-0.80764 -0.5544,-3.43698 -1.15828,-2.67554c-4.12589,5.20236 -8.50448,9.28018 -11.33647,1.06066c-0.40006,-0.81699 -2.36149,-6.68419 -3.11363,-6.54131c-1.23476,0.23455 -2.59087,0.86537 -3.84491,1.20797c-0.73128,0.19978 -2.64301,-0.36989 -2.25664,0.28233c2.34068,3.95126 4.00064,8.33358 5.18215,12.83708c0.39223,3.56873 -4.09937,5.88439 -6.66835,7.85673c-1.13256,0.86952 -4.75204,1.17887 -3.70507,2.14978c0.78653,0.72939 4.74774,6.41143 5.14924,6.45628c1.86626,0.20839 6.12032,-4.93406 7.5614,-6.14478c0.94316,-0.71838 2.93966,-2.58503 4.31278,-1.85074c2.27793,1.21816 4.12075,9.01968 5.26058,11.3104c0.15314,0.30774 6.78459,-0.15317 7.01989,-0.33692c0.36353,-0.28391 -2.30612,-5.8367 -2.5099,-6.39484c-0.79215,-1.49776 -4.37832,-6.94526 -3.64582,-8.5982c0.78961,-1.78183 4.94722,-3.988 7.32913,-5.42439z" fill="#000000"/><path d="M334.05256,178.02241c1.19876,1.79118 2.48207,3.46344 3.61188,5.24951c-2.38191,1.43639 -6.53043,3.70403 -7.32004,5.48586c-0.73247,1.65297 2.81495,7.1918 3.6071,8.68957c0.20378,0.55813 2.85663,6.12672 2.4931,6.41063c-0.23533,0.18375 -6.91232,0.66968 -7.06543,0.36194c-1.13983,-2.29075 -3.02785,-10.08431 -5.30581,-11.30247c-1.37313,-0.73429 -3.45618,1.10676 -4.39934,1.82515c-1.44108,1.21072 -5.71446,6.33765 -7.58072,6.12926c-0.4015,-0.04484 -4.40077,-5.78573 -5.1873,-6.51512c-1.04694,-0.9709 2.56988,-1.28854 3.70244,-2.15806c2.56898,-1.97234 7.07711,-4.40786 6.68488,-7.9766c-1.18151,-4.5035 -2.79965,-8.92996 -5.14033,-12.88121c-0.38637,-0.65226 1.53843,-0.09068 2.2697,-0.29046c1.25404,-0.34263 2.63855,-0.98547 3.87334,-1.22005c0.75211,-0.14288 2.72619,5.72104 3.12625,6.53803c2.83202,8.21951 7.3261,4.16439 11.45196,-1.03797c0.60388,-0.76144 0.63778,1.88429 1.17831,2.69192z" data-paper-data="{&quot;noHover&quot;:false,&quot;origItem&quot;:[&quot;Path&quot;,{&quot;applyMatrix&quot;:true,&quot;segments&quot;:[[[233.12566,177.11177],[0.37789,-0.59739],[0.79668,0.48043]],[[235.57704,178.92607],[-0.2641,-0.59597],[0.245,0.55286]],[[234.35761,181.80192],[0.26495,-0.50096],[-0.06816,0.18668]],[[233.51812,183.94081],[-0.12159,-0.09496],[0.0787,0.06146]],[[235.86607,184.05351],[-0.05121,0.10293],[0.38124,-0.76618]],[[237.62558,180.27051],[-0.76191,0.40744],[0.45927,-0.2456]],[[239.06808,180.88953],[-0.31546,-0.24028],[0.482,0.40495]],[[241.59715,182.94478],[-0.62421,0.0697],[0.13429,-0.015]],[[243.31942,180.78534],[-0.26307,0.24396],[0.35018,-0.32474]],[[242.08018,180.06629],[0.37881,0.29083],[-0.85925,-0.65969]],[[239.84981,177.43844],[-0.13119,1.19364],[0.39518,-1.50629]],[[241.58309,173.14481],[-0.78289,1.32158],[0.12923,-0.21815]],[[240.8283,173.05038],[0.24459,0.06682],[-0.41944,-0.11459]],[[239.54229,172.64634],[0.413,0.07846],[-0.25157,-0.04779]],[[238.50087,174.83422],[0.13381,-0.27326],[-0.94722,2.74919]],[[234.70916,174.47946],[1.37998,1.74004],[-0.20198,-0.25468]],[[234.32175,175.37435],[0.18079,-0.27013],[-0.40095,0.5991]]],&quot;closed&quot;:true}]}" fill="#ffffff"/></g><g data-paper-data="{&quot;index&quot;:null}" stroke="none" stroke-width="0.5" stroke-linecap="butt"><path d="M303.75275,176.76223c-2.16243,1.34726 -5.23959,2.86039 -6.67134,4.39383c-0.07669,0.08213 3.24521,6.37434 3.56596,6.98309c2.40753,6.56194 2.29981,12.13636 -6.82439,10.06156c-4.90772,-1.116 -2.99903,-13.87172 -7.9066,-10.12805c-6.34775,5.33574 -8.12878,8.39236 -13.89355,1.16264c-0.64044,-0.80324 -2.42167,-2.94672 -2.4226,-3.63676c-0.00374,-2.80012 11.61351,-5.8289 10.38736,-9.11376c-0.83371,-3.18 -5.84476,-10.98008 -5.19292,-13.74642c0.57258,-2.42995 8.84744,-3.8096 10.34966,-2.41354c1.56983,1.45884 2.19179,5.0886 3.13905,7.03717c3.09997,9.1363 3.40971,-2.02969 9.61916,-2.41866c1.35017,-0.08458 4.79629,6.08238 6.3561,8.91925c0.32045,-0.06174 0.74551,-0.01328 1.08407,0.48608c0.56349,0.83119 -0.12216,1.42263 -0.27138,1.53699c-0.04631,0.25016 -0.19661,0.51398 -0.5573,0.72072c-0.29264,0.16773 -0.54767,0.19697 -0.76129,0.15586zM302.28157,175.02742c-1.12981,-1.78607 -2.3773,-3.40334 -3.57606,-5.19453c-0.54056,-0.80767 -0.5544,-3.43698 -1.15828,-2.67554c-4.12586,5.20236 -8.50442,9.28018 -11.33644,1.06066c-0.40006,-0.81699 -2.36152,-6.68419 -3.11363,-6.54131c-1.23479,0.23458 -2.59087,0.86534 -3.84491,1.20797c-0.73125,0.19981 -2.64301,-0.36986 -2.25664,0.28236c2.34065,3.95126 4.00064,8.33358 5.18215,12.83708c0.39223,3.56873 -4.09937,5.88442 -6.66835,7.85673c-1.13256,0.86952 -4.75204,1.17887 -3.70507,2.14978c0.78653,0.72942 4.74774,6.41146 5.14924,6.45628c1.86626,0.20842 6.12032,-4.93409 7.5614,-6.14478c0.94316,-0.71838 2.93966,-2.585 4.31278,-1.85071c2.27796,1.21816 4.12072,9.01965 5.26058,11.3104c0.15314,0.30771 6.78459,-0.1532 7.01989,-0.33695c0.36356,-0.28388 -2.30612,-5.8367 -2.5099,-6.39484c-0.79215,-1.49776 -4.37832,-6.94526 -3.64582,-8.5982c0.78961,-1.78183 4.94719,-3.988 7.3291,-5.42439z" fill="#000000"/><path d="M298.80993,169.72576c1.19876,1.79118 2.48207,3.46344 3.61188,5.24951c-2.38191,1.43639 -6.53043,3.70403 -7.32004,5.48586c-0.7325,1.65297 2.81492,7.1918 3.60707,8.68957c0.20381,0.55813 2.85669,6.12672 2.49313,6.41063c-0.2353,0.18375 -6.91229,0.66965 -7.06543,0.36194c-1.13983,-2.29072 -3.02785,-10.08431 -5.30581,-11.30244c-1.37313,-0.73429 -3.45615,1.10676 -4.39931,1.82515c-1.44108,1.21072 -5.71446,6.33765 -7.58072,6.12926c-0.4015,-0.04481 -4.4008,-5.78567 -5.18733,-6.51509c-1.047,-0.97087 2.56985,-1.28854 3.70241,-2.15806c2.56898,-1.97231 7.07708,-4.40786 6.68488,-7.9766c-1.18151,-4.5035 -2.79968,-8.92996 -5.14033,-12.88121c-0.38637,-0.65223 1.5384,-0.09068 2.26967,-0.29046c1.25404,-0.3426 2.63855,-0.98544 3.87334,-1.22002c0.75214,-0.14288 2.72619,5.72104 3.12625,6.53803c2.83199,8.21954 7.32607,4.16442 11.45196,-1.03794c0.60388,-0.76147 0.63778,1.88426 1.17831,2.69192z" data-paper-data="{&quot;noHover&quot;:false,&quot;origItem&quot;:[&quot;Path&quot;,{&quot;applyMatrix&quot;:true,&quot;segments&quot;:[[[466.25132,354.22354],[0.75579,-1.19478],[1.59336,0.96086]],[[471.15407,357.85214],[-0.5282,-1.19193],[0.49,1.10573]],[[468.71523,363.60384],[0.5299,-1.00192],[-0.13633,0.37336]],[[467.03625,367.88163],[-0.24319,-0.18992],[0.1574,0.12293]],[[471.73214,368.10702],[-0.10243,0.20585],[0.76249,-1.53237]],[[475.25117,360.54102],[-1.52382,0.81487],[0.91854,-0.4912]],[[478.13616,361.77905],[-0.63092,-0.48056],[0.964,0.80989]],[[483.1943,365.88955],[-1.24842,0.13941],[0.26858,-0.02999]],[[486.63884,361.57067],[-0.52614,0.48793],[0.70036,-0.64948]],[[484.16036,360.13259],[0.75762,0.58166],[-1.7185,-1.31937]],[[479.69962,354.87688],[-0.26237,2.38728],[0.79036,-3.01258]],[[483.16618,346.28962],[-1.56577,2.64316],[0.25846,-0.4363]],[[481.65661,346.10075],[0.48918,0.13365],[-0.83888,-0.22919]],[[479.08458,345.29268],[0.826,0.15692],[-0.50313,-0.09558]],[[477.00174,349.66844],[0.26762,-0.54652],[-1.89445,5.49839]],[[469.41831,348.95892],[2.75997,3.48007],[-0.40396,-0.50936]],[[468.6435,350.7487],[0.36158,-0.54027],[-0.8019,1.19819]]],&quot;closed&quot;:true}]}" fill="#ffffff"/></g><g data-paper-data="{&quot;index&quot;:null}" stroke="#000000" stroke-width="0.625" stroke-linecap="butt"><g data-paper-data="{&quot;index&quot;:null}" fill="#000000"><path d="M319.12181,210.63097c15.1705,4.07605 8.02309,8.50561 8.02309,8.50561l-19.07242,-4.86153c0,0 -3.23529,-7.33878 11.0493,-3.64408z"/></g><g data-paper-data="{&quot;index&quot;:null}" fill="#ffffff"><path d="M319.1218,210.63097c15.1705,4.07605 8.02309,8.50561 8.02309,8.50561c0,0 -12.90306,-3.28898 -16.12307,-4.10977c-0.00445,-0.00114 1.40111,-1.21452 1.76449,-2.69342c0.29761,-1.21125 -0.438,-2.74182 -0.40873,-2.742c1.63344,-0.01032 3.82233,0.28379 6.74426,1.03955z"/></g></g></g></g></svg>