<svg version="1.1" xmlns="http://www.w3.org/2000/svg" xmlns:xlink="http://www.w3.org/1999/xlink" width="110.55202" height="110.55202" viewBox="0,0,110.55202,110.55202"><g transform="translate(-264.72399,-124.724)"><g data-paper-data="{&quot;isPaintingLayer&quot;:true}" fill-rule="nonzero" stroke-linejoin="miter" stroke-miterlimit="10" stroke-dasharray="" stroke-dashoffset="0" style="mix-blend-mode: normal"><path d="M269.80793,163.73469c8.98309,-27.72031 38.73707,-42.90984 66.45739,-33.92675c27.72032,8.98309 42.90984,38.73708 33.92675,66.45739c-8.98309,27.72032 -38.73707,42.90984 -66.45739,33.92675c-27.72032,-8.98309 -42.90984,-38.73708 -33.92675,-66.45739z" fill="#001aff" stroke="#000000" stroke-width="5" stroke-linecap="butt"/><path d="M372.13259,183.3886l-18.53939,8.9509l-6.22942,-19.24401l-25.38587,5.59898l-10.24232,-18.05131l-22.24847,5.70909l-8.01464,-20.72912" fill="none" stroke="#000000" stroke-width="5" stroke-linecap="round"/><path d="M312.23729,227.93792l11.87903,-25.91954" fill="none" stroke="#000000" stroke-width="7.5" stroke-linecap="round"/><path d="M337.15311,204.13913l-11.88388,25.33804" fill="none" stroke="#000000" stroke-width="7.5" stroke-linecap="round"/><path d="M305.68111,190.43946l24.053,11.83748" fill="none" stroke="#000000" stroke-width="5" stroke-linecap="round"/><path d="M336.02918,200.72501l19.65063,-0.19849" fill="none" stroke="#000000" stroke-width="5" stroke-linecap="round"/><path d="M296.84468,215.912c-3.08611,-1.7108 -5.20387,-9.4167 -5.64715,-10.55225c-1.00896,-2.58466 1.6212,-3.87325 3.82225,-2.98757c2.82849,1.13815 2.67228,7.30943 4.67053,8.82478c0.84835,0.1112 1.61755,0.65531 1.97726,1.49942c0.54128,1.27019 -0.04963,2.73868 -1.31981,3.27995c-0.11218,0.0478 -0.2259,0.08678 -0.3404,0.11723c-0.79154,0.51869 -1.84993,0.54615 -3.16267,-0.18156z" fill="#000000" stroke="none" stroke-width="0.5" stroke-linecap="butt"/></g></g></svg>