<svg version="1.1" xmlns="http://www.w3.org/2000/svg" xmlns:xlink="http://www.w3.org/1999/xlink" width="180.95835" height="327.66864" viewBox="0,0,180.95835,327.66864"><g transform="translate(-229.11559,-33.31879)"><g data-paper-data="{&quot;isPaintingLayer&quot;:true}" fill-rule="nonzero" stroke-linejoin="miter" stroke-miterlimit="10" stroke-dasharray="" stroke-dashoffset="0" style="mix-blend-mode: normal"><g data-paper-data="{&quot;index&quot;:null}" stroke="#000000" stroke-linecap="butt"><path d="M349.52562,236.0158c33.3198,-1.05346 39.28765,6.52545 39.54334,14.61279c0.2557,8.08734 -26.54806,15.49742 -59.86787,16.55088c-33.3198,1.05345 12.6892,-54.61216 12.43351,-62.69949c3.69633,-6.05519 7.80273,-0.9822 8.39489,6.85395c0.73027,9.66383 -3.35191,24.77193 -0.50386,24.68189z" fill="#216aff" stroke-width="2"/><path d="M374.17577,223.14256c14.3017,-0.45218 26.27151,11.07345 26.73532,25.74321c0.46381,14.66976 -10.75402,26.92852 -25.05572,27.38069c-14.3017,0.45218 -26.27152,-11.07346 -26.73532,-25.74323c-0.46381,-14.66976 10.75403,-26.9285 25.05573,-27.38068z" fill="#faddbf" stroke-width="2"/><path d="M363.76746,263.22889c14.3017,-0.45218 35.81027,-29.38066 36.27409,-14.7109c0.46381,14.66976 -10.75402,26.92852 -25.05573,27.38068c-14.3017,0.45218 -25.52008,-12.21762 -11.21836,-12.66978z" fill="#ef8b89" stroke-width="0"/></g><g stroke="#000000" stroke-linecap="butt"><path d="M327.76518,340.83534v-95.29492h29.49199v95.29492z" fill="#73fffc" stroke-width="2"/><path d="M327.43943,340.21741l1.32626,-93.78573c0,0 5.20288,68.11227 6.3799,77.52842c0.2602,2.08162 2.52228,2.78987 2.52228,2.78987l18.60659,13.13896z" fill="#59a9e6" stroke-width="0"/></g><g stroke="#000000" stroke-linecap="butt"><path d="M288.4238,338.41279v-95.29492h29.49199v95.29492z" fill="#73fffc" stroke-width="2"/><path d="M288.09805,337.79492l1.32626,-93.78573c0,0 5.20288,68.11227 6.3799,77.52842c0.2602,2.08162 2.52228,2.78987 2.52228,2.78987l18.60659,13.13896z" fill="#59a9e6" stroke-width="0"/></g><g stroke="#000000" stroke-linecap="butt"><path d="M355.22917,235.69588c0,13.80271 10.04743,36.74388 4.95001,46.45977c-6.2338,11.88187 -28.61241,9.09579 -38.9397,9.09579c-13.66287,0 -32.94407,4.17018 -38.34426,-14.83216c-2.01935,-7.10576 4.35457,-32.37264 4.35457,-40.7234c0,-30.68249 15.2177,-55.55556 33.98969,-55.55556c18.77199,0 33.98969,24.87307 33.98969,55.55556z" fill="#216aff" stroke-width="2"/><path d="M303.96554,251.27245c0,13.80271 62.04198,20.54886 56.94455,30.26474c-6.2338,11.88186 -28.61241,9.09579 -38.9397,9.09579c-13.66287,0 -32.94406,4.17018 -38.34425,-14.83215c-2.01936,-7.10576 4.35457,-32.37265 4.35457,-40.7234c0,-9.45244 3.34855,-28.59801 5.51953,-29.96813c5.94391,-16.76415 10.4653,25.13995 10.4653,46.16315z" fill="#3236f4" stroke-width="0"/></g><g stroke="#000000" stroke-linecap="butt"><g><path d="M237.4638,121.77545c0,-46.79079 37.93143,-84.72222 84.72222,-84.72222c46.79079,0 84.72222,37.93143 84.72222,84.72222c0,46.79079 -37.93143,84.72222 -84.72222,84.72222c-46.79079,0 -84.72222,-37.93143 -84.72222,-84.72222z" fill="#faddbf" stroke-width="2"/><path d="M237.69457,120.90594c0,-15.05428 8.65728,-41.01117 13.16632,-44.22534c0.51494,-0.36707 5.78642,-8.91029 13.30693,-15.62682c9.34748,-8.34819 21.31473,-15.15641 21.9255,-14.95935c7.96872,2.57101 -17.52654,64.85492 -16.28763,90.14485c0.00295,0.06031 4.40745,19.70158 6.02593,20.14049c2.8855,4.74247 9.11092,19.15337 19.99223,26.29351c20.2786,13.30648 48.94186,19.68013 47.45857,20.18586c-2.37273,0.80898 -14.80271,2.76903 -20.86562,2.76903c-46.79079,0 -84.72222,-37.93143 -84.72222,-84.72222z" fill="#ef8b89" stroke-width="0"/><path d="M406.3848,121.31725c0,11.62434 -1.57787,15.64071 -2.12992,13.78899c-0.5632,-1.8891 -0.18668,-9.81362 -9.04258,-14.64925c-2.14596,-1.17177 -10.20624,6.27605 -12.93385,5.04791c-1.71325,-0.77142 -8.65215,-10.17554 -10.56583,-10.85157c-1.33801,-0.47267 -12.45011,8.37757 -13.84965,7.92692c-3.49052,-1.12394 -11.98851,-11.37355 -15.73972,-12.03156c-2.06568,-0.36235 -9.2828,11.84977 -11.39182,11.59592c-2.71985,-0.32737 -10.06862,-12.06843 -12.80601,-12.06843c-7.27985,0 -7.47978,7.01079 -12.7176,13.01701c-3.40366,3.90299 -13.98842,-13.05188 -17.11223,-8.61668c-3.87941,5.50799 -7.71992,10.81771 -11.96095,14.41734c-3.32724,2.82405 -13.36416,-10.09687 -16.24015,-7.47909c-13.88607,12.63935 -22.22353,20.64372 -22.22353,2.47189c0,-36.54015 43.28764,-8.21349 85.0704,-29.73523c39.99404,-20.60039 83.64345,-9.37431 83.64345,27.16584z" fill="#ef8b89" stroke-width="0"/></g><path d="M407.91867,113.00636c0,23.48334 6.5317,8.71531 -11.46679,-0.86026c-2.20249,-1.17177 -10.47508,6.27605 -13.27454,5.04791c-1.75838,-0.77142 -8.88005,-10.17554 -10.84414,-10.85157c-1.37326,-0.47267 -12.77806,8.37757 -14.21446,7.92692c-3.58246,-1.12394 -12.30429,-11.37355 -16.15431,-12.03156c-2.12009,-0.36235 -9.52731,11.84977 -11.69189,11.59592c-2.79149,-0.32737 -10.33384,-12.06843 -13.14333,-12.06843c-7.47161,0 -7.6768,7.01079 -13.05259,13.01701c-3.49332,3.90299 -14.35688,-13.05188 -17.56298,-8.61668c-3.98159,5.50799 -7.92327,10.81771 -12.276,14.41734c-3.41488,2.82405 -13.71618,-10.09687 -16.66792,-7.47909c-14.25184,12.63935 -22.80892,20.64372 -22.80892,2.47189c0,-36.54015 39.86264,-81.25697 85.78948,-81.25697c45.92683,0 87.36842,42.14743 87.36842,78.68758z" fill="#724e36" stroke-width="2"/><path d="M407.67094,111.84357c0,23.48334 6.5317,8.71531 -11.46679,-0.86026c-2.20249,-1.17177 -10.47508,6.27605 -13.27454,5.04791c-1.75838,-0.77142 -8.88005,-10.17554 -10.84415,-10.85157c-1.37326,-0.47267 -12.77806,8.37757 -14.21446,7.92692c-3.58246,-1.12394 -12.30429,-11.37355 -16.15431,-12.03156c-2.12009,-0.36235 -9.52731,11.84977 -11.69189,11.59592c-2.79149,-0.32737 -10.33384,-12.06843 -13.14333,-12.06843c-7.47161,0 -7.6768,7.01079 -13.05259,13.01701c-3.49332,3.90299 -14.35688,-13.05188 -17.56298,-8.61668c-3.98159,5.50799 -7.92327,10.81771 -12.27601,14.41734c-3.41488,2.82405 -13.71618,-10.09687 -16.66792,-7.47909c-14.25184,12.63935 -22.80892,20.64372 -22.80892,2.47189c0,-36.54015 44.42786,-8.21349 87.31121,-29.73523c41.04751,-20.60039 85.84668,-9.37431 85.84668,27.16584z" fill="#623728" stroke-width="0"/></g><g stroke="#000000" stroke-linecap="butt"><path d="M322.78575,146.95724c0,28.55894 -13.1683,43.28947 -29.73684,43.28947c-16.56854,0 -30.26316,-14.73054 -30.26316,-43.28947c0,-28.55894 13.43146,-51.71053 30,-51.71053c16.56854,0 30,23.15159 30,51.71053z" fill="#f0f0f0" stroke-width="2"/><path d="M276.03002,127.37484c-4.30259,28.23297 34.22345,62.0416 17.65491,62.0416c-16.56854,0 -30.26316,-14.73054 -30.26316,-43.28947c0,-28.55894 18.82852,-59.56866 12.60825,-18.75213z" fill="#9a99ff" stroke-width="0"/></g><path d="M302.89592,163.60075c0,8.86465 -2.62704,16.05088 -5.86765,16.05088c-3.24062,0 -5.86765,-7.18623 -5.86765,-16.05088c0,-8.86465 2.62704,-16.05088 5.86765,-16.05088c3.24062,0 5.86765,7.18623 5.86765,16.05088z" fill="#000000" stroke="none" stroke-width="0" stroke-linecap="butt"/><g stroke="#000000" stroke-linecap="butt"><path d="M317.77645,116.92256c4.45946,10.22981 11.05276,41.71511 -4.6575,41.71511c-15.71026,0 -48.13056,-32.23503 -43.58575,-41.85025c4.32432,-9.14873 6.78974,-21.41892 22.5,-21.41892c15.71026,0 21.49332,11.80491 25.74324,21.55405z" fill="#a100fe" stroke-width="2"/><path d="M317.02251,116.56831c4.3074,10.22981 11.73091,41.37445 -3.44367,41.37445c-15.17458,0 -47.54445,-31.89437 -43.15461,-41.50959c4.17687,-9.14873 6.55823,0.96203 21.73281,0.96203c15.17458,0 20.76045,-10.57604 24.86546,-0.8269z" fill="#99008e" stroke-width="0"/></g><g data-paper-data="{&quot;index&quot;:null}" stroke="#000000" stroke-linecap="butt"><path d="M356.51243,93.76808c16.56854,0 30,23.15159 30,51.71053c0,28.55893 -13.69462,43.28947 -30.26316,43.28947c-16.56854,0 -29.73684,-14.73053 -29.73684,-43.28947c0,-28.55894 13.43146,-51.71053 30,-51.71053z" fill="#f0f0f0" stroke-width="2"/><path d="M385.87641,144.64834c0,28.55893 -13.69462,43.28947 -30.26316,43.28947c-16.56854,0 21.9575,-33.80863 17.65491,-62.0416c-6.22027,-40.81653 12.60825,-9.80681 12.60825,18.75213z" fill="#9a99ff" stroke-width="0"/></g><path d="M356.80518,138.57348c3.64448,0 6.59892,8.08182 6.59892,18.05124c0,9.96942 -2.95444,18.05124 -6.59892,18.05124c-3.64448,0 -6.59892,-8.08182 -6.59892,-18.05124c0,-9.96942 2.95444,-18.05124 6.59892,-18.05124z" data-paper-data="{&quot;index&quot;:null}" fill="#000000" stroke="none" stroke-width="0" stroke-linecap="butt"/><g data-paper-data="{&quot;index&quot;:null}" stroke="#000000" stroke-linecap="butt"><path d="M331.52174,115.4439c4.24992,-9.74914 10.03298,-21.55405 25.74324,-21.55405c15.71026,0 18.17568,12.27019 22.5,21.41892c4.54481,9.61522 -6.92488,14.25676 -22.63514,14.25676c-15.71026,0 -30.06757,-3.89181 -25.60811,-14.12162z" fill="#a100fe" stroke-width="2"/><path d="M332.44601,115.08966c4.10501,-9.74914 9.69088,0.8269 24.86546,0.8269c15.17458,0 17.55594,-10.11076 21.73281,-0.96203c4.38984,9.61522 -6.68876,14.25676 -21.86334,14.25676c-15.17458,0 -29.04234,-3.89181 -24.73494,-14.12162z" fill="#99008e" stroke-width="0"/></g><path d="M391.63632,338.87006c0,11.6628 -14.51982,21.11737 -32.43092,21.11737c-17.9111,0 -32.43092,-9.45457 -32.43092,-21.11737c0,-2.33142 -0.03339,-13.76009 1.08979,-15.13837c4.49546,-5.51647 17.81784,5.26144 32.14847,5.26144c17.9111,0 31.62358,-1.78588 31.62358,9.87692z" fill="#000082" stroke="#000000" stroke-width="2" stroke-linecap="butt"/><path d="M389.75004,336.13776c0,6.30841 -13.89058,10.1901 -31.80169,10.1901c-17.9111,0 -30.16566,-2.95748 -30.16566,-9.26589c0,-1.26107 -0.03338,-12.52602 1.0898,-13.27153c4.49546,-2.98386 15.55258,5.7726 29.88321,5.7726c17.9111,0 30.99434,0.26631 30.99434,6.57472z" fill="#2e0048" stroke="#000000" stroke-width="0" stroke-linecap="butt"/><path d="M348.64938,338.2252c0,11.6628 -14.51982,21.11737 -32.43092,21.11737c-17.9111,0 -32.43092,-9.45457 -32.43092,-21.11737c0,-2.33142 -0.03339,-13.76009 1.08979,-15.13837c4.49546,-5.51647 17.81784,5.26144 32.14847,5.26144c17.9111,0 31.62358,-1.78588 31.62358,9.87692z" fill="#000082" stroke="#000000" stroke-width="2" stroke-linecap="butt"/><path d="M346.7631,335.49289c0,6.30841 -13.89058,10.1901 -31.80169,10.1901c-17.9111,0 -30.16566,-2.95748 -30.16566,-9.26589c0,-1.26107 -0.03338,-12.52602 1.0898,-13.27153c4.49546,-2.98386 15.55258,5.7726 29.88321,5.7726c17.9111,0 30.99434,0.26631 30.99434,6.57472z" fill="#2e0048" stroke="#000000" stroke-width="0" stroke-linecap="butt"/><g><path d="M268.29149,250.34552c-9.48951,-11.72912 -9.1335,-23.35166 2.02819,-33.27769c8.72965,-7.76327 26.76994,-6.1596 36.25947,5.56954c9.48958,11.72915 8.80407,26.38159 -2.80814,35.77657c-1.81592,1.46919 -3.92787,2.28616 -5.84982,3.05035c-10.36807,4.12234 -21.62415,-1.22383 -29.6297,-11.11874z" fill="#485e84" stroke="#000000" stroke-width="2" stroke-linecap="butt"/><path d="M294.5792,215.8856c0,0 -4.73918,3.26669 -4.66319,5.26858c0.72876,19.20267 8.72934,30.74428 11.66682,34.35966c0.66739,0.82141 1.77901,0.66287 1.77901,0.66287c0,0 -1.49459,1.49475 -3.94833,2.71673c-2.61097,1.3003 -6.2778,2.32902 -9.34843,2.20119c-3.50752,-0.14606 -11.46692,-2.62729 -11.46692,-2.62729l-15.55525,-14.03186c0,0 0.25261,-13.44958 1.03784,-15.46956c0.76924,-1.97893 2.24706,-4.09995 3.72759,-6.41836c2.29873,-3.59964 5.91867,-6.33878 8.6114,-7.36053c3.43656,-1.30394 8.09763,-1.46612 11.87689,-0.93731c3.5173,0.49217 6.28246,1.63596 6.28246,1.63596z" fill="#343545" stroke="none" stroke-width="0" stroke-linecap="butt"/><path d="M277.15426,233.01863c0,0 5.6862,-7.00467 10.70073,-8.20241c6.34787,-1.51624 19.29827,-0.89219 19.29827,-0.89219" fill="none" stroke="#000000" stroke-width="1" stroke-linecap="round"/><path d="M308.10576,252.80552c0,0 -6.3822,3.2245 -10.56998,4.19106c-4.22776,0.97583 -13.84476,-0.31489 -13.84476,-0.31489" fill="none" stroke="#000000" stroke-width="1" stroke-linecap="round"/><path d="M268.13358,226.77495c0,0 5.72939,-7.27738 11.21997,-8.3274c8.4251,-1.6112 20.02211,-1.5394 20.02211,-1.5394" fill="none" stroke="#000000" stroke-width="1" stroke-linecap="round"/><path d="M276.93786,214.28168c0,0 16.83049,4.02615 23.32262,20.1939c7.1113,17.70971 -6.50071,28.30233 -6.50071,28.30233" fill="none" stroke="#000000" stroke-width="1" stroke-linecap="round"/><path d="M268.80077,219.23069c0,0 16.39507,6.93284 22.15453,21.18725c4.72902,11.70418 -5.90207,21.69912 -5.90207,21.69912" fill="none" stroke="#000000" stroke-width="1" stroke-linecap="round"/><path d="M308.31147,237.9371c-0.15578,-1.19287 0.4835,-2.2598 1.42779,-2.3831c0.94433,-0.12338 1.0703,0.66283 1.22607,1.8557c0.15578,1.19287 0.28234,2.34064 -0.66197,2.46396c-0.94433,0.12338 -1.83616,-0.74371 -1.99189,-1.93653z" fill="#8fbbbe" stroke="none" stroke-width="0" stroke-linecap="butt"/><path d="M308.26248,245.20734c-0.37832,-0.46763 -0.11641,-1.30671 0.58499,-1.87418c0.70141,-0.56749 1.06614,-0.70234 1.44446,-0.23476c0.37832,0.46763 0.23059,1.44783 -0.47083,2.01529c-0.70141,0.56749 -1.18033,0.56121 -1.55863,0.09362z" fill="#8fbbbe" stroke="none" stroke-width="0" stroke-linecap="butt"/><path d="M307.35174,231.08563c-0.48952,-0.75792 -0.47677,-1.63679 0.02847,-1.96315c0.50518,-0.32635 0.88833,0.36598 1.37786,1.12385c0.48952,0.75792 0.90012,1.29427 0.39489,1.62064c-0.50518,0.32635 -1.31169,-0.02349 -1.80121,-0.78137z" fill="#8fbbbe" stroke="none" stroke-width="0" stroke-linecap="butt"/><path d="M290.34717,214.40646c0,0 8.66842,5.4349 13.14555,11.54841c2.53829,3.46607 3.57891,7.39715 4.33446,10.38636c0.66821,2.64348 -0.34683,9.13928 -1.64114,14.0304c-0.95292,3.60107 -2.22642,6.25534 -2.22642,6.25534" fill="none" stroke="#000000" stroke-width="0.5" stroke-linecap="round"/><path d="M313.64528,239.45148c0,0 -8.4689,6.32896 -13.68197,7.75761c-4.39212,1.20369 -15.32925,0.53777 -15.32925,0.53777" fill="none" stroke="#000000" stroke-width="1" stroke-linecap="round"/><path d="M282.3649,242.34485c0,0 7.80672,-5.69942 12.0132,-7.35963c7.38578,-2.91501 17.75741,-2.01717 17.75741,-2.01717" fill="none" stroke="#000000" stroke-width="1" stroke-linecap="round"/></g><g stroke="#000000" stroke-linecap="butt"><path d="M267.7262,223.65757c12.12539,31.05307 6.97591,39.21016 -0.56124,42.15322c-7.53717,2.94306 -23.47681,-19.84462 -35.60219,-50.89771c-12.12538,-31.05308 55.71341,-6.28643 63.25058,-9.22948c6.94221,1.46082 3.53273,7.02616 -3.65527,10.20244c-8.86449,3.91709 -24.46829,5.11725 -23.43187,7.77154z" fill="#216aff" stroke-width="2"/><path d="M288.09552,242.5901c5.20452,13.32876 -1.65955,28.46155 -15.33133,33.80001c-13.67179,5.33846 -28.97407,-1.13896 -34.17859,-14.46773c-5.20452,-13.32876 1.65956,-28.46155 15.33134,-33.80002c13.67179,-5.33846 28.97406,1.13896 34.1786,14.46774z" fill="#faddbf" stroke-width="2"/><path d="M246.83527,246.17318c5.20452,13.32876 39.65683,23.93606 25.98504,29.27451c-13.67179,5.33846 -28.97407,-1.13896 -34.1786,-14.46774c-5.20452,-13.32876 2.98902,-28.13556 8.19355,-14.80679z" fill="#ef8b89" stroke-width="0"/></g><path d="M246.08651,168.83426c0,-4.9936 3.29632,-9.04171 7.36253,-9.04171c4.06621,0 7.36253,4.04811 7.36253,9.04171c0,4.9936 -3.29632,9.04171 -7.36253,9.04171c-4.06621,0 -7.36253,-4.04811 -7.36253,-9.04171z" fill="#000000" stroke="#000000" stroke-width="2.5" stroke-linecap="butt"/></g></g></svg>