<svg version="1.1" xmlns="http://www.w3.org/2000/svg" xmlns:xlink="http://www.w3.org/1999/xlink" width="174.38162" height="310.69327" viewBox="0,0,174.38162,310.69327"><g transform="translate(-258.22805,-50.29415)"><g data-paper-data="{&quot;isPaintingLayer&quot;:true}" fill-rule="nonzero" stroke-linejoin="miter" stroke-miterlimit="10" stroke-dasharray="" stroke-dashoffset="0" style="mix-blend-mode: normal"><g data-paper-data="{&quot;index&quot;:null}" stroke="#000000" stroke-linecap="butt"><path d="M348.44511,237.34194c2.77686,-0.63913 -5.0227,-14.20697 -6.78069,-23.73757c-1.42551,-7.72812 1.25162,-13.68049 6.36975,-8.76795c1.81491,7.88521 60.49691,49.97925 28.00988,57.45663c-32.48705,7.47738 -60.29427,7.14677 -62.10916,-0.73845c-1.81491,-7.88521 2.02318,-16.73531 34.51023,-24.21267z" fill="#216aff" stroke-width="2"/><path d="M352.53643,251.2664c3.29207,14.30312 -5.34323,28.49989 -19.28749,31.70937c-13.94426,3.20947 -27.91707,-5.78371 -31.20915,-20.08683c-3.29207,-14.30312 5.34323,-28.49987 19.28749,-31.70935c13.94426,-3.20947 27.91707,5.78369 31.20914,20.08681z" fill="#faddbf" stroke-width="2"/><path d="M333.99595,282.39841c-13.94425,3.20949 -27.91707,-5.78369 -31.20914,-20.08681c-3.29207,-14.30312 24.88184,8.1848 38.82611,4.97533c13.94428,-3.20949 6.3273,11.90201 -7.61695,15.11149z" fill="#ef8b89" stroke-width="0"/></g><g stroke="#000000" stroke-linecap="butt"><path d="M327.43955,340.83534v-95.29492h29.49199v95.29492z" fill="#73fffc" stroke-width="2"/><path d="M327.1138,340.21741l1.32626,-93.78573c0,0 5.20288,68.11227 6.3799,77.52842c0.2602,2.08162 2.52228,2.78987 2.52228,2.78987l18.60659,13.13896z" fill="#59a9e6" stroke-width="0"/></g><g stroke="#000000" stroke-linecap="butt"><path d="M288.4238,338.41279v-95.29492h29.49199v95.29492z" fill="#73fffc" stroke-width="2"/><path d="M288.09805,337.79491l1.32626,-93.78573c0,0 5.20288,68.11227 6.3799,77.52842c0.2602,2.08162 2.52228,2.78987 2.52228,2.78987l18.60659,13.13896z" fill="#59a9e6" stroke-width="0"/></g><g stroke="#000000" stroke-linecap="butt"><path d="M355.22917,235.69588c0,13.80271 10.04743,36.74388 4.95001,46.45977c-6.2338,11.88187 -28.61241,9.09579 -38.9397,9.09579c-13.66287,0 -32.94407,4.17018 -38.34426,-14.83216c-2.01935,-7.10576 4.35457,-32.37264 4.35457,-40.7234c0,-30.68249 15.2177,-55.55556 33.98969,-55.55556c18.77199,0 33.98969,24.87307 33.98969,55.55556z" fill="#216aff" stroke-width="2"/><path d="M303.96554,251.27245c0,13.80271 62.04198,20.54886 56.94455,30.26474c-6.2338,11.88186 -28.61241,9.09579 -38.9397,9.09579c-13.66287,0 -32.94406,4.17018 -38.34425,-14.83215c-2.01936,-7.10576 4.35457,-32.37265 4.35457,-40.7234c0,-9.45244 3.34855,-28.59801 5.51953,-29.96813c5.94391,-16.76415 10.4653,25.13995 10.4653,46.16315z" fill="#3236f4" stroke-width="0"/></g><g stroke="#000000" stroke-linecap="butt"><g><path d="M261.40511,124.40304c7.95232,-46.11007 51.77855,-77.04304 97.88863,-69.09072c46.11007,7.95232 77.04304,51.77855 69.09072,97.88863c-7.95232,46.11007 -51.77855,77.04304 -97.88863,69.09072c-46.11007,-7.95232 -77.04304,-51.77855 -69.09072,-97.88863z" fill="#faddbf" stroke-width="2"/><path d="M261.78029,123.5854c2.55855,-14.83527 15.50138,-38.94319 20.49108,-41.34426c0.56983,-0.27422 7.21658,-7.79723 15.7692,-13.1379c10.63031,-6.63808 23.58055,-11.31337 24.14893,-11.01537c7.41583,3.88793 -28.29397,60.93269 -31.37123,86.06524c-0.00735,0.05993 0.99495,20.16403 2.51529,20.87162c2.03751,5.16388 5.72317,20.42316 15.23267,29.30877c17.72209,16.55934 44.88512,27.71172 43.33745,27.958c-2.4757,0.39395 -15.05798,0.21295 -21.03267,-0.81746c-46.11007,-7.95232 -77.04304,-51.77855 -69.09072,-97.88863z" fill="#ef8b89" stroke-width="0"/><path d="M427.94649,152.66046c-1.9756,11.45522 -4.21313,15.14501 -4.44244,13.22639c-0.23395,-1.95733 1.48391,-9.70258 -6.42132,-15.97296c-1.91559,-1.51944 -11.12441,4.45015 -13.6036,2.7763c-1.55722,-1.05138 -6.7969,-11.49797 -8.56784,-12.48941c-1.23821,-0.69319 -13.69279,6.13974 -14.99539,5.45778c-3.24872,-1.70082 -9.88111,-13.24559 -13.46591,-14.53156c-1.97405,-0.70815 -11.16168,10.09972 -13.19687,9.49113c-2.62465,-0.78486 -7.87105,-13.60407 -10.56862,-14.0693c-7.17393,-1.23725 -8.56248,5.63757 -14.74489,10.66622c-4.01748,3.26774 -11.56668,-15.23941 -15.39883,-11.39964c-4.75908,4.76853 -9.44614,9.3483 -14.23723,12.17477c-3.7588,2.21748 -11.45372,-12.22128 -14.73277,-10.13038c-15.83217,10.09546 -25.40872,16.5664 -22.32033,-1.34107c6.21017,-36.00856 44.0538,-0.73706 88.88643,-14.84451c42.91334,-13.5035 84.01981,4.97768 77.80962,40.98623z" fill="#ef8b89" stroke-width="0"/></g><path d="M430.87053,144.73116c-3.9911,23.1417 4.95547,9.69861 -11.15377,-2.79658c-1.9713,-1.52904 -11.38933,4.40446 -13.93933,2.7184c-1.60169,-1.05904 -7.02148,-11.53671 -8.8421,-12.53672c-1.27295,-0.69919 -14.01597,6.084 -15.35489,5.39578c-3.33932,-1.71644 -10.1923,-13.29926 -13.87447,-14.60202c-2.02767,-0.7174 -11.40264,10.05816 -13.49257,9.44012c-2.69523,-0.79703 -8.13241,-13.64915 -10.90103,-14.12663c-7.36291,-1.26984 -8.75663,5.60409 -15.075,10.60929c-4.10583,3.2525 -11.92978,-15.30202 -15.84303,-11.47624c-4.85978,4.75117 -9.64652,9.31373 -14.5477,12.12123c-3.84516,2.20258 -11.80062,-12.28111 -15.15433,-10.20308c-16.19261,10.0333 -25.98559,16.46691 -22.89721,-1.44056c6.21017,-36.00856 53.09273,-73.29998 98.35141,-65.49449c45.25867,7.80548 78.93421,56.38295 72.72403,92.39151z" fill="#724e36" stroke-width="2"/><path d="M430.82401,143.54318c-3.9911,23.1417 4.95547,9.69861 -11.15377,-2.79658c-1.9713,-1.52904 -11.38933,4.40446 -13.93933,2.7184c-1.60169,-1.05904 -7.02148,-11.53671 -8.84211,-12.53672c-1.27295,-0.69919 -14.01597,6.084 -15.35489,5.39578c-3.33932,-1.71644 -10.1923,-13.29926 -13.87447,-14.60202c-2.02767,-0.7174 -11.40264,10.05816 -13.49257,9.44012c-2.69523,-0.79703 -8.13241,-13.64915 -10.90103,-14.12663c-7.36291,-1.26984 -8.75663,5.60409 -15.075,10.60929c-4.10583,3.2525 -11.92978,-15.30202 -15.84303,-11.47624c-4.85978,4.75117 -9.64652,9.31373 -14.54771,12.12123c-3.84516,2.20258 -11.80062,-12.28111 -15.15433,-10.20308c-16.19261,10.0333 -25.98559,16.46691 -22.89721,-1.44056c6.21017,-36.00856 45.17744,-0.54327 91.09464,-14.46368c43.95148,-13.32446 86.19099,5.35213 79.9808,41.36069z" fill="#623728" stroke-width="0"/></g><g stroke="#000000" stroke-linecap="butt"><path d="M359.56351,164.57229c-4.85372,28.14346 -20.33398,40.42166 -36.66148,37.60577c-16.3275,-2.8159 -27.31936,-19.65961 -22.46563,-47.80306c4.85372,-28.14346 22.02451,-48.6755 38.35201,-45.85959c16.3275,2.8159 25.62882,27.91341 20.7751,56.05689z" fill="#f0f0f0" stroke-width="2"/><path d="M316.81611,137.3284c-9.03833,27.09098 23.1813,66.95545 6.85379,64.13955c-16.3275,-2.8159 -27.31936,-19.65961 -22.46563,-47.80306c4.85372,-28.14346 28.67859,-55.50205 15.61183,-16.33648z" fill="#9a99ff" stroke-width="0"/></g><path d="M354.32645,172.02388c-2.68907,15.59203 -9.48968,27.43497 -15.18959,26.45193c-5.69991,-0.98303 -8.14069,-14.41978 -5.45163,-30.0118c2.68907,-15.59203 9.48968,-27.43497 15.18959,-26.45193c5.69991,0.98303 8.14069,14.41978 5.45163,30.0118z" fill="#000000" stroke="none" stroke-width="0" stroke-linecap="butt"/><g stroke="#000000" stroke-linecap="butt"><path d="M359.73163,134.1232c2.65597,10.83889 3.80228,42.9867 -11.67942,40.31668c-15.4817,-2.67004 -41.95185,-39.94609 -35.83901,-48.64902c5.81629,-8.2807 10.33122,-19.95336 25.81291,-17.28332c15.4817,2.67004 19.17432,15.28606 21.70551,25.61568z" fill="#a100fe" stroke-width="2"/><path d="M359.04886,133.64597c2.50613,10.81305 4.52846,42.76625 -10.42536,40.18726c-14.95382,-2.57899 -41.43217,-39.51078 -35.47203,-48.24004c5.67097,-8.30576 6.29931,2.06263 21.25313,4.64164c14.95382,2.57899 22.25587,-6.89384 24.64425,3.41114z" fill="#99008e" stroke-width="0"/></g><g data-paper-data="{&quot;index&quot;:null}" stroke="#000000" stroke-linecap="butt"><path d="M401.83928,117.88895c16.3275,2.8159 25.62882,27.91341 20.7751,56.05689c-4.85372,28.14345 -20.85265,40.33222 -37.18014,37.51631c-16.3275,-2.8159 -26.8007,-19.57015 -21.94696,-47.71361c4.85372,-28.14346 22.02451,-48.6755 38.35201,-45.85959z" fill="#f0f0f0" stroke-width="2"/><path d="M422.12873,173.01954c-4.85372,28.14345 -20.85265,40.33222 -37.18014,37.51631c-16.3275,-2.8159 27.38401,-29.58499 27.94234,-58.13847c0.8072,-41.27989 14.09153,-7.52131 9.23781,20.62215z" fill="#9a99ff" stroke-width="0"/></g><path d="M411.79718,152.68995c5.69991,0.98303 8.14069,14.41978 5.45163,30.0118c-2.68907,15.59203 -9.48968,27.43497 -15.18959,26.45193c-5.69991,-0.98303 -8.14069,-14.41978 -5.45163,-30.0118c2.68907,-15.59203 9.48968,-27.43497 15.18959,-26.45193z" data-paper-data="{&quot;index&quot;:null}" fill="#000000" stroke="none" stroke-width="0" stroke-linecap="butt"/><g data-paper-data="{&quot;index&quot;:null}" stroke="#000000" stroke-linecap="butt"><path d="M373.52826,135.00213c5.845,-8.88501 13.55023,-19.53533 29.03193,-16.86529c15.4817,2.67004 15.82588,15.18072 18.53242,24.93129c2.84454,10.24774 -9.24714,12.87243 -24.72885,10.2024c-15.4817,-2.67004 -28.96872,-8.94532 -22.83552,-18.2684z" fill="#a100fe" stroke-width="2"/><path d="M374.49928,134.81013c5.7022,-8.90965 9.40937,2.46188 24.36317,5.04088c14.95382,2.57899 19.01891,-6.97994 21.58013,2.74557c2.69182,10.22141 -9.01445,12.91256 -23.96828,10.33357c-14.95382,-2.57899 -27.95839,-8.77108 -21.97505,-18.12z" fill="#99008e" stroke-width="0"/></g><path d="M391.63632,338.87005c0,11.6628 -14.51982,21.11737 -32.43092,21.11737c-17.9111,0 -32.43092,-9.45457 -32.43092,-21.11737c0,-2.33142 -0.03339,-13.76009 1.08979,-15.13837c4.49546,-5.51647 17.81784,5.26144 32.14847,5.26144c17.9111,0 31.62358,-1.78588 31.62358,9.87692z" fill="#000082" stroke="#000000" stroke-width="2" stroke-linecap="butt"/><path d="M389.75004,336.13775c0,6.30841 -13.89058,10.1901 -31.80169,10.1901c-17.9111,0 -30.16566,-2.95748 -30.16566,-9.26589c0,-1.26107 -0.03338,-12.52602 1.0898,-13.27153c4.49546,-2.98386 15.55258,5.7726 29.88321,5.7726c17.9111,0 30.99434,0.26631 30.99434,6.57472z" fill="#2e0048" stroke="#000000" stroke-width="0" stroke-linecap="butt"/><path d="M348.64938,338.2252c0,11.6628 -14.51982,21.11737 -32.43092,21.11737c-17.9111,0 -32.43092,-9.45457 -32.43092,-21.11737c0,-2.33142 -0.03339,-13.76009 1.08979,-15.13837c4.49546,-5.51647 17.81784,5.26144 32.14847,5.26144c17.9111,0 31.62358,-1.78588 31.62358,9.87692z" fill="#000082" stroke="#000000" stroke-width="2" stroke-linecap="butt"/><path d="M346.7631,335.49289c0,6.30841 -13.89058,10.1901 -31.80169,10.1901c-17.9111,0 -30.16566,-2.95748 -30.16566,-9.26589c0,-1.26107 -0.03338,-12.52602 1.0898,-13.27153c4.49546,-2.98386 15.55258,5.7726 29.88321,5.7726c17.9111,0 30.99434,0.26631 30.99434,6.57472z" fill="#2e0048" stroke="#000000" stroke-width="0" stroke-linecap="butt"/><g><path d="M322.47577,252.62098c-14.40744,4.47758 -25.07383,-0.15253 -30.16688,-14.19427c-3.98335,-10.98217 4.17995,-27.14956 18.58741,-31.62715c14.4075,-4.47765 27.76699,1.57941 32.19999,15.84327c0.69324,2.2306 0.67101,4.49494 0.67003,6.56324c-0.0054,11.15755 -9.13613,19.63754 -21.29053,23.41492z" fill="#485e84" stroke="#000000" stroke-width="2" stroke-linecap="butt"/><path d="M300.18449,215.45074c0,0 1.28187,5.6114 3.16988,6.28134c18.11011,6.42632 31.79257,3.26266 36.23812,1.87094c1.01003,-0.31619 1.27394,-1.40761 1.27394,-1.40761c0,0 0.83584,1.94151 1.06348,4.67321c0.24221,2.90676 -0.15844,6.69404 -1.41308,9.49956c-1.43318,3.20469 -6.68271,9.68165 -6.68271,9.68165l-18.79064,9.26124c0,0 -12.40209,-5.20992 -13.98833,-6.68666c-1.554,-1.44672 -2.97789,-3.60431 -4.58418,-5.83742c-2.49396,-3.46723 -3.69974,-7.84364 -3.65292,-10.72333c0.05979,-3.67514 1.63333,-8.06556 3.52263,-11.38114c1.75835,-3.08575 3.84388,-5.23166 3.84388,-5.23166z" fill="#343545" stroke="none" stroke-width="0" stroke-linecap="butt"/><path d="M309.65643,237.97742c0,0 -4.40437,-7.87398 -3.6622,-12.97589c0.93949,-6.45846 6.30982,-18.25938 6.30982,-18.25938" fill="none" stroke="#000000" stroke-width="1" stroke-linecap="round"/><path d="M339.48919,216.54093c0,0 0.6349,7.12227 -0.01624,11.37053c-0.65732,4.28885 -5.41396,12.7462 -5.41396,12.7462" fill="none" stroke="#000000" stroke-width="1" stroke-linecap="round"/><path d="M300.51875,244.04859c0,0 -4.64177,-8.015 -3.58626,-13.50453c1.61966,-8.42347 5.97628,-19.17129 5.97628,-19.17129" fill="none" stroke="#000000" stroke-width="1" stroke-linecap="round"/><path d="M292.16853,231.24736c0,0 9.96643,-14.14729 27.38885,-14.19819c19.08406,-0.05576 23.89,16.50907 23.89,16.50907" fill="none" stroke="#000000" stroke-width="1" stroke-linecap="round"/><path d="M293.75645,240.63798c0,0 12.50585,-12.66752 27.87964,-12.7455c12.62328,-0.06401 17.97664,13.51025 17.97664,13.51025" fill="none" stroke="#000000" stroke-width="1" stroke-linecap="round"/><path d="M325.75155,210.84975c-1.16587,-0.29653 -1.92064,-1.28515 -1.68589,-2.20806c0.23471,-0.92298 1.01173,-0.74919 2.1776,-0.45265c1.16587,0.29653 2.27905,0.60352 2.0443,1.52647c-0.23471,0.92298 -1.37018,1.43081 -2.536,1.13424z" fill="#8fbbbe" stroke="none" stroke-width="0" stroke-linecap="butt"/><path d="M332.48796,213.58465c-0.57439,0.17849 -1.25707,-0.37521 -1.52484,-1.23678c-0.26776,-0.86157 -0.25814,-1.25032 0.31623,-1.42884c0.57439,-0.17849 1.43042,0.32134 1.69816,1.18293c0.26776,0.86157 0.08479,1.30421 -0.48958,1.48271z" fill="#8fbbbe" stroke="none" stroke-width="0" stroke-linecap="butt"/><path d="M319.03107,209.20693c-0.88524,0.17442 -1.69706,-0.16253 -1.81336,-0.75265c-0.11632,-0.59007 0.66863,-0.68993 1.55382,-0.86438c0.88524,-0.17442 1.53543,-0.3575 1.65175,0.23263c0.11632,0.59007 -0.50704,1.20996 -1.39223,1.3844z" fill="#8fbbbe" stroke="none" stroke-width="0" stroke-linecap="butt"/><path d="M297.24479,218.83541c0,0 8.25596,-6.04308 15.59197,-7.94114c4.15915,-1.07609 8.19634,-0.58873 11.25299,-0.18493c2.70314,0.35708 8.36269,3.70299 12.42808,6.71479c2.99312,2.21742 4.98804,4.38244 4.98804,4.38244" fill="none" stroke="#000000" stroke-width="0.5" stroke-linecap="round"/><path d="M329.13157,206.45448c0,0 2.74722,10.20935 2.14615,15.58111c-0.5064,4.52584 -5.1709,14.44079 -5.1709,14.44079" fill="none" stroke="#000000" stroke-width="1" stroke-linecap="round"/><path d="M320.2486,236.58631c0,0 -2.40729,-9.36125 -2.3937,-13.88349c0.02388,-7.94018 4.69465,-17.24397 4.69465,-17.24397" fill="none" stroke="#000000" stroke-width="1" stroke-linecap="round"/></g><g stroke="#000000" stroke-linecap="butt"><path d="M297.4718,243.27389c33.3357,0.22175 39.00929,8.02337 38.95548,16.11458c-0.05382,8.09122 -27.1214,14.47065 -60.4571,14.2489c-33.33571,-0.22176 14.76877,-54.08684 14.82259,-62.17805c3.92523,-5.90938 7.83458,-0.68304 8.12658,7.17003c0.36011,9.68468 -4.29695,24.62559 -1.44754,24.64456z" fill="#216aff" stroke-width="2"/><path d="M322.5963,231.35291c14.30853,0.09518 25.82874,12.07019 25.73112,26.74696c-0.09762,14.67677 -11.77613,26.49748 -26.08466,26.40231c-14.30853,-0.09518 -25.82875,-12.07021 -25.73111,-26.74698c0.09762,-14.67677 11.77613,-26.49748 26.08467,-26.4023z" fill="#faddbf" stroke-width="2"/><path d="M310.66239,271.01181c14.30853,0.09518 36.90785,-27.98946 36.81022,-13.31269c-0.09762,14.67677 -11.77613,26.49748 -26.08467,26.4023c-14.30853,-0.09518 -25.03409,-13.18479 -10.72556,-13.0896z" fill="#ef8b89" stroke-width="0"/></g><path d="M279.40702,176.98796l14.87462,13.97309" fill="none" stroke="#000000" stroke-width="2.5" stroke-linecap="round"/></g></g></svg>