<svg version="1.1" xmlns="http://www.w3.org/2000/svg" xmlns:xlink="http://www.w3.org/1999/xlink" width="217.97242" height="243.31718" viewBox="0,0,217.97242,243.31718"><g transform="translate(-125.3905,-102.26284)"><g data-paper-data="{&quot;isPaintingLayer&quot;:true}" fill-rule="nonzero" stroke-linejoin="miter" stroke-miterlimit="10" stroke-dasharray="" stroke-dashoffset="0" style="mix-blend-mode: normal"><g data-paper-data="{&quot;index&quot;:null}" stroke="#000000" stroke-linecap="butt"><path d="M236.44531,344.13567v-90.27109h61.17899v90.27109z" fill="#273750" stroke-width="2"/><path d="M237.23265,343.37909v-90.27109l18.42709,49.31565l42.75189,40.95544z" fill="#1f1e2e" stroke-width="0"/></g><g data-paper-data="{&quot;index&quot;:null}" stroke="#000000" stroke-linecap="butt"><path d="M183.83936,344.58003v-90.27109h61.17899v90.27109z" fill="#273750" stroke-width="2"/><path d="M184.62674,343.82344v-90.27109l18.42709,49.31565l42.75189,40.95544z" fill="#1f1e2e" stroke-width="0"/></g><g data-paper-data="{&quot;index&quot;:null}" stroke="#000000" stroke-linecap="butt"><path d="M289.28939,340.49373l-9.23981,-47.16385l50.04607,-9.80446l9.23981,47.16384z" fill="#ffcaa0" stroke-width="2"/><g><path d="M279.92029,293.53893l-12.74069,-65.03377l50.69838,-9.93226l12.74069,65.03377z" fill="#0000c0" stroke-width="2"/><path d="M280.69085,293.60449l-6.67319,-34.06276c0,0 17.93728,11.17813 26.35386,9.52924c7.98018,-1.56339 22.90615,-19.17971 22.90615,-19.17971l6.67319,34.06277c0,0 -16.20212,3.17414 -24.36799,4.7739c-8.25321,1.61687 -24.89202,4.87657 -24.89202,4.87657z" fill="#56006b" stroke-width="0"/></g><path d="M289.96068,339.80754l-9.2398,-47.16384l19.10157,29.45133l40.18431,7.90805z" fill="#ff6e5b" stroke-width="0"/></g><path d="M183.95834,293.53717l13.89883,-112.94953l112.94953,13.89883l-13.89883,112.94953z" data-paper-data="{&quot;index&quot;:null}" fill="#0000c0" stroke="#000000" stroke-width="2" stroke-linecap="butt"/><g data-paper-data="{&quot;index&quot;:null}" stroke="#000000" stroke-linecap="butt"><path d="M210.7074,296.35597l13.64014,-110.84725l60.72099,7.47193l-13.64014,110.84725z" fill="#ffffff" stroke-width="2"/><path d="M211.60321,295.52312l13.64014,-110.84725l10.83745,62.80707l36.24339,55.51211z" fill="#8ebbfc" stroke-width="0"/></g><g data-paper-data="{&quot;index&quot;:null}" stroke="#000000" stroke-linecap="butt"><path d="M126.76034,306.85799l24.47156,-41.36357l43.89133,25.96705l-24.47156,41.36357z" fill="#ffcaa0" stroke-width="2"/><g><path d="M150.99631,265.56452l33.74361,-57.03583l44.46341,26.30551l-33.74361,57.03583z" fill="#0000c0" stroke-width="2"/><path d="M151.52808,266.126l17.67391,-29.87367c0,0 5.95881,20.27781 13.34032,24.64486c6.99877,4.14061 29.86163,0.91433 29.86163,0.91433l-17.67391,29.87368c0,0 -14.20956,-8.40667 -21.37118,-12.64364c-7.23822,-4.28229 -21.83076,-12.91555 -21.83076,-12.91555z" fill="#56006b" stroke-width="0"/></g><path d="M127.718,306.79212l24.47157,-41.36357l-5.32622,34.697l24.74598,32.63361z" fill="#ff6e5b" stroke-width="0"/></g><g data-paper-data="{&quot;index&quot;:null}" stroke="#000000" stroke-linecap="butt"><path d="M342.36292,177.06141c-1.30645,32.17876 -14.23982,57.78271 -28.8875,57.18802c-14.64768,-0.59469 -25.46289,-27.16282 -24.15644,-59.34158c1.30645,-32.17876 14.23981,-57.7827 28.88749,-57.18801c14.64768,0.59469 25.4629,27.16282 24.15645,59.34158z" fill="#01930e" stroke-width="2"/><path d="M298.89918,165.24005c-1.30645,32.17876 29.64305,69.18656 14.99539,68.59187c-14.64767,-0.59469 -25.4629,-27.16282 -24.15645,-59.34158c1.30645,-32.17876 10.4675,-41.42905 9.16106,-9.25028z" fill="#31525b" stroke-width="0"/></g><g data-paper-data="{&quot;index&quot;:null}" stroke="#000000" stroke-linecap="butt"><path d="M165.14433,168.29586c0.05583,-1.37532 1.99693,-27.32157 2.154,-28.67169c3.96867,-34.11641 37.92042,-35.226 80.3299,-33.50419c39.83701,1.61737 74.06503,7.55288 78.79295,39.06124c0.50449,3.36206 -1.47944,26.11321 -1.62086,29.59658c-0.5055,12.45088 1.37052,39.93799 -6.40003,49.54607c-14.77724,18.27169 -47.18986,13.80287 -76.08387,12.62979c-30.55019,-1.24032 -59.07899,-1.41653 -71.6598,-22.61878c-5.5749,-9.39529 -5.96269,-34.94535 -5.5123,-46.03904z" fill="#ffcaa0" stroke-width="2"/><path d="M163.31206,168.23166c0.05583,-1.37532 1.99693,-27.32157 2.15399,-28.67169c2.25482,-19.38332 4.40135,60.78485 51.25933,84.63028c36.72114,18.68692 103.62338,-3.87571 100.49925,-0.01279c-14.77724,18.27169 -47.84646,13.88509 -76.74046,12.71201c-30.55019,-1.24032 -59.079,-1.41652 -71.65981,-22.61878c-5.5749,-9.39529 -5.96269,-34.94535 -5.5123,-46.03904z" fill="#ff6e5b" stroke-width="0"/></g><g data-paper-data="{&quot;index&quot;:null}" stroke="#000000" stroke-linecap="butt"><path d="M210.47984,169.63138c-1.30644,32.17876 -14.23982,57.78271 -28.8875,57.18802c-14.64768,-0.59469 -25.46289,-27.16282 -24.15645,-59.34157c1.30644,-32.17876 14.23982,-57.7827 28.8875,-57.18801c14.64768,0.59469 25.46289,27.16281 24.15645,59.34157z" fill="#01930e" stroke-width="2"/><path d="M167.0161,157.81004c-1.30644,32.17876 29.64305,69.18655 14.99539,68.59187c-14.64767,-0.59469 -25.46289,-27.16282 -24.15645,-59.34157c1.30644,-32.17876 10.4675,-41.42905 9.16106,-9.25028z" fill="#31525b" stroke-width="0"/></g><g data-paper-data="{&quot;index&quot;:null}" stroke-linecap="butt"><path d="M342.70242,138.18413c-0.71644,17.64642 -42.6235,30.27384 -93.60204,28.20413c-50.97854,-2.06971 -91.72401,-18.05278 -91.00758,-35.69919c0.71644,-17.64642 42.62348,-30.27383 93.60202,-28.20412c50.97854,2.06971 91.72403,18.05278 91.0076,35.6992z" fill="#000000" stroke="none" stroke-width="NaN"/><path d="M341.95894,138.49852c-0.71644,17.64642 -42.6235,30.27383 -93.60204,28.20412c-50.97854,-2.06971 -91.72402,-18.05279 -91.00758,-35.6992c0.71644,-17.64642 42.39865,10.57767 93.37719,12.64737c50.97854,2.06971 91.94888,-22.79871 91.23244,-5.15229z" fill="#ff0000" stroke="#000000" stroke-width="2"/><path d="M336.20448,147.46942c-0.19716,4.85614 -37.26919,21.98969 -88.18962,18.48862c-17.81908,-1.22516 -34.58152,-3.53893 -48.1832,-7.04744c-25.25162,-6.51357 -40.54217,-15.72396 -38.05061,-19.71592c2.57335,-4.12297 36.94482,18.3921 87.92336,20.46182c50.97854,2.06971 86.69724,-17.04322 86.50007,-12.18708z" fill="#900056" stroke="#000000" stroke-width="0"/></g><g><path d="M277.05283,218.09492c-0.3444,8.48293 -1.41247,14.62063 -3.34205,16.24994c-1.64268,1.38704 -4.04615,-1.15142 -5.69269,-1.21827c-3.58064,-0.14537 -4.56952,0.14647 -3.93192,-15.5581c0.6376,-15.70458 4.05716,-28.31781 7.6378,-28.17243c3.58064,0.14537 5.96645,12.99429 5.32885,28.69888z" data-paper-data="{&quot;index&quot;:null}" fill="#000000" stroke="none" stroke-width="0" stroke-linecap="butt"/><path d="M289.25702,195.82001l-33.04634,-12.36809" fill="none" stroke="#000000" stroke-width="5" stroke-linecap="round"/><path d="M255.39756,227.08909l19.76569,8.85137" fill="none" stroke="#000000" stroke-width="2.5" stroke-linecap="round"/></g><g><path d="M305.54192,211.08864c-0.63506,15.64176 -3.89978,28.21027 -7.29196,28.07256c-3.39219,-0.13772 -5.62729,-12.92952 -4.99224,-28.57128c0.63506,-15.64176 3.89978,-28.21027 7.29196,-28.07255c3.39219,0.13773 5.62729,12.92952 4.99224,28.57128z" data-paper-data="{&quot;index&quot;:null}" fill="#000000" stroke="none" stroke-width="0" stroke-linecap="butt"/><path d="M317.18132,177.02206l-23.05203,7.27526" fill="none" stroke="#000000" stroke-width="5" stroke-linecap="round"/></g><path d="M242.6664,224.51186c-4.20062,4.96031 -9.8153,7.1104 -12.54075,4.80237c-2.72544,-2.30803 -1.52958,-8.20019 2.67104,-13.16049c4.20062,-4.96031 9.8153,-7.1104 12.54075,-4.80237c2.72544,2.30803 1.52958,8.20019 -2.67104,13.16049z" fill="#000000" stroke="none" stroke-width="0" stroke-linecap="butt"/></g></g></svg>