<svg version="1.1" xmlns="http://www.w3.org/2000/svg" xmlns:xlink="http://www.w3.org/1999/xlink" width="196.04632" height="308.26589" viewBox="0,0,196.04632,308.26589"><g transform="translate(-225.5962,-52.72152)"><g data-paper-data="{&quot;isPaintingLayer&quot;:true}" fill-rule="nonzero" stroke-linejoin="miter" stroke-miterlimit="10" stroke-dasharray="" stroke-dashoffset="0" style="mix-blend-mode: normal"><g data-paper-data="{&quot;index&quot;:null}" stroke="#000000" stroke-linecap="butt"><path d="M375.81523,209.53864c-0.4505,-2.81363 -14.51323,4.0536 -24.14065,5.16515c-7.80664,0.90132 -13.56501,-2.17094 -8.31864,-6.94629c7.98962,-1.27925 53.94359,-56.9903 59.21406,-24.07311c5.27046,32.91719 3.06616,60.63888 -4.92346,61.91812c-7.98961,1.27924 -16.56086,-3.14668 -21.83132,-36.06387z" fill="#216aff" stroke-width="2"/><path d="M389.98384,206.39524c14.49251,-2.32043 28.07489,7.25221 30.3371,21.3811c2.26221,14.12889 -7.65241,27.4637 -22.14491,29.78414c-14.49251,2.32043 -28.07489,-7.2522 -30.33709,-21.3811c-2.26221,-14.12889 7.65239,-27.4637 22.14489,-29.78414z" fill="#faddbf" stroke-width="2"/><path d="M419.79525,226.99211c2.26221,14.12889 -7.65239,27.4637 -22.14489,29.78414c-14.4925,2.32043 9.84344,-24.27352 7.58122,-38.40241c-2.26222,-14.12891 12.30146,-5.51062 14.56367,8.61827z" fill="#ef8b89" stroke-width="0"/></g><g stroke="#000000" stroke-linecap="butt"><path d="M327.76518,340.83535v-95.29492h29.49199v95.29492z" fill="#73fffc" stroke-width="2"/><path d="M327.43943,340.21742l1.32626,-93.78573c0,0 5.20288,68.11227 6.3799,77.52842c0.2602,2.08162 2.52228,2.78987 2.52228,2.78987l18.60659,13.13896z" fill="#59a9e6" stroke-width="0"/></g><g stroke="#000000" stroke-linecap="butt"><path d="M288.4238,338.4128v-95.29492h29.49199v95.29492z" fill="#73fffc" stroke-width="2"/><path d="M288.09805,337.7949l1.32626,-93.78573c0,0 5.20288,68.11227 6.3799,77.52842c0.2602,2.08162 2.52228,2.78987 2.52228,2.78987l18.60659,13.13896z" fill="#59a9e6" stroke-width="0"/></g><g stroke="#000000" stroke-linecap="butt"><path d="M355.22917,235.69587c0,13.80271 10.04743,36.74388 4.95001,46.45977c-6.2338,11.88187 -28.61241,9.09579 -38.9397,9.09579c-13.66287,0 -32.94407,4.17018 -38.34426,-14.83216c-2.01935,-7.10576 4.35457,-32.37264 4.35457,-40.7234c0,-30.68249 15.2177,-55.55556 33.98969,-55.55556c18.77199,0 33.98969,24.87307 33.98969,55.55556z" fill="#216aff" stroke-width="2"/><path d="M303.96554,251.27245c0,13.80271 62.04198,20.54886 56.94455,30.26474c-6.2338,11.88186 -28.61241,9.09579 -38.9397,9.09579c-13.66287,0 -32.94406,4.17018 -38.34425,-14.83215c-2.01936,-7.10576 4.35457,-32.37265 4.35457,-40.7234c0,-9.45244 3.34855,-28.59801 5.51953,-29.96813c5.94391,-16.76415 10.4653,25.13995 10.4653,46.16315z" fill="#3236f4" stroke-width="0"/></g><path d="M391.63632,338.87004c0,11.6628 -14.51982,21.11737 -32.43092,21.11737c-17.9111,0 -32.43092,-9.45457 -32.43092,-21.11737c0,-2.33142 -0.03339,-13.76009 1.08979,-15.13837c4.49546,-5.51647 17.81784,5.26144 32.14847,5.26144c17.9111,0 31.62358,-1.78588 31.62358,9.87692z" fill="#000082" stroke="#000000" stroke-width="2" stroke-linecap="butt"/><path d="M389.75004,336.13774c0,6.30841 -13.89058,10.1901 -31.80169,10.1901c-17.9111,0 -30.16566,-2.95748 -30.16566,-9.26589c0,-1.26107 -0.03338,-12.52602 1.0898,-13.27153c4.49546,-2.98386 15.55258,5.7726 29.88321,5.7726c17.9111,0 30.99434,0.26631 30.99434,6.57472z" fill="#2e0048" stroke="#000000" stroke-width="0" stroke-linecap="butt"/><path d="M348.64938,338.22521c0,11.6628 -14.51982,21.11737 -32.43092,21.11737c-17.9111,0 -32.43092,-9.45457 -32.43092,-21.11737c0,-2.33142 -0.03339,-13.76009 1.08979,-15.13837c4.49546,-5.51647 17.81784,5.26144 32.14847,5.26144c17.9111,0 31.62358,-1.78588 31.62358,9.87692z" fill="#000082" stroke="#000000" stroke-width="2" stroke-linecap="butt"/><path d="M346.7631,335.49289c0,6.30841 -13.89058,10.1901 -31.80169,10.1901c-17.9111,0 -30.16566,-2.95748 -30.16566,-9.26589c0,-1.26107 -0.03338,-12.52602 1.0898,-13.27153c4.49546,-2.98386 15.55258,5.7726 29.88321,5.7726c17.9111,0 30.99434,0.26631 30.99434,6.57472z" fill="#2e0048" stroke="#000000" stroke-width="0" stroke-linecap="butt"/><g><path d="M258.23203,243.47429c-6.33028,-13.69491 -3.14056,-24.87684 10.11102,-31.76925c10.36418,-5.39065 27.46333,0.57951 33.79362,14.27443c6.33034,13.69496 2.07959,27.73401 -11.47883,34.00125c-2.12028,0.98007 -4.36794,1.25531 -6.41847,1.52588c-11.06168,1.45944 -20.66699,-6.479 -26.00735,-18.03229z" fill="#216aff" stroke="#000000" stroke-width="2" stroke-linecap="butt"/><path d="M292.15413,216.49613c0,0 -5.39456,2.00745 -5.81083,3.96707c-3.99314,18.79703 0.9394,31.94573 2.9027,36.1701c0.44604,0.95977 1.56267,1.07811 1.56267,1.07811c0,0 -1.81497,1.0835 -4.49315,1.66778c-2.84981,0.62172 -6.65689,0.72173 -9.60286,-0.15373c-3.36511,-1.00006 -10.47517,-5.35384 -10.47517,-5.35384l-11.64797,-17.41217c0,0 3.53663,-12.97872 4.79235,-14.74509c1.23017,-1.73047 3.18216,-3.42531 5.18508,-5.31086c3.10982,-2.92756 7.29005,-4.69744 10.15096,-5.0291c3.65118,-0.42322 8.21019,0.56032 11.74509,1.99799c3.28988,1.33803 5.69101,3.12379 5.69101,3.12379z" fill="#3236f4" stroke="none" stroke-width="0" stroke-linecap="butt"/><path d="M271.06591,228.84346c0,0 7.22762,-5.39998 12.38279,-5.33402c6.5259,0.08347 18.92973,3.85807 18.92973,3.85807" fill="none" stroke="#000000" stroke-width="1" stroke-linecap="round"/><path d="M296.23339,255.60378c0,0 -6.97728,1.56443 -11.27426,1.47666c-4.33802,-0.08857 -13.34664,-3.69374 -13.34664,-3.69374" fill="none" stroke="#000000" stroke-width="1" stroke-linecap="round"/><path d="M263.84767,220.58191c0,0 7.33624,-5.65383 12.91683,-5.32813c8.5632,0.49978 19.78995,3.40771 19.78995,3.40771" fill="none" stroke="#000000" stroke-width="1" stroke-linecap="round"/><path d="M275.44185,210.62339c0,0 15.33326,8.02286 17.67099,25.28783c2.56069,18.91157 -13.22983,25.85058 -13.22983,25.85058" fill="none" stroke="#000000" stroke-width="1" stroke-linecap="round"/><path d="M266.34098,213.43038c0,0 14.19969,10.7346 16.29532,25.96508c1.72068,12.50563 -11.0333,19.59471 -11.0333,19.59471" fill="none" stroke="#000000" stroke-width="1" stroke-linecap="round"/><path d="M300.0718,241.23788c0.14091,-1.19472 1.02187,-2.07273 1.96762,-1.96119c0.9458,0.1115 0.87553,0.90462 0.73461,2.09933c-0.14091,1.19472 -0.29911,2.33854 -1.24488,2.227c-0.9458,-0.1115 -1.5983,-1.17047 -1.45735,-2.36514z" fill="#8fbbbe" stroke="none" stroke-width="0" stroke-linecap="butt"/><path d="M298.24495,248.27503c-0.25235,-0.54599 0.20693,-1.29546 1.02589,-1.67401c0.81897,-0.37856 1.20561,-0.42005 1.45799,0.12591c0.25235,0.54599 -0.13078,1.46023 -0.94975,1.83875c-0.81897,0.37856 -1.28178,0.25527 -1.53413,-0.29069z" fill="#8fbbbe" stroke="none" stroke-width="0" stroke-linecap="butt"/><path d="M300.81812,234.35989c-0.28913,-0.85468 -0.06168,-1.70371 0.50807,-1.89648c0.56969,-0.19279 0.77174,0.57227 1.0609,1.4269c0.28913,0.85468 0.55598,1.47521 -0.01378,1.668c-0.56969,0.19279 -1.26604,-0.3438 -1.55518,-1.19844z" fill="#8fbbbe" stroke="none" stroke-width="0" stroke-linecap="butt"/><path d="M288.41282,214.02621c0,0 7.07463,7.39115 9.91936,14.41449c1.6128,3.98189 1.65967,8.0481 1.66064,11.13131c0.0009,2.72663 -2.57306,8.77644 -5.02508,13.20204c-1.80528,3.25832 -3.68966,5.5202 -3.68966,5.5202" fill="none" stroke="#000000" stroke-width="0.5" stroke-linecap="round"/><path d="M304.87277,244.01163c0,0 -9.76032,4.06376 -15.16449,4.17311c-4.55314,0.09214 -14.99468,-3.23032 -14.99468,-3.23032" fill="none" stroke="#000000" stroke-width="1" stroke-linecap="round"/><path d="M273.83555,239.16133c0,0 8.96419,-3.61543 13.44907,-4.19565c7.87459,-1.01873 17.71106,2.39018 17.71106,2.39018" fill="none" stroke="#000000" stroke-width="1" stroke-linecap="round"/></g><g stroke="#000000" stroke-linecap="butt"><path d="M264.21564,217.45963c4.15659,33.0763 -2.83269,39.725 -10.86092,40.73388c-8.02824,1.00888 -17.90598,-24.98691 -22.06255,-58.06322c-4.15657,-33.0763 55.55762,7.54028 63.58585,6.5314c6.37355,3.11545 1.70568,7.6771 -6.04109,8.99754c-9.55358,1.62843 -24.97658,-1.02684 -24.6213,1.8004z" fill="#216aff" stroke-width="2"/><path d="M279.33187,240.80165c1.78412,14.19718 -8.57486,27.18981 -23.13741,29.01984c-14.56254,1.83003 -27.81415,-8.19555 -29.59826,-22.39273c-1.78412,-14.19718 8.57488,-27.1898 23.13743,-29.01983c14.56255,-1.83003 27.81415,8.19555 29.59825,22.39274z" fill="#faddbf" stroke-width="2"/><path d="M238.44949,234.17756c1.78412,14.19718 32.59257,32.91387 18.03002,34.74389c-14.56254,1.83003 -27.81415,-8.19555 -29.59825,-22.39274c-1.78412,-14.19718 9.78413,-26.54835 11.56823,-12.35116z" fill="#ef8b89" stroke-width="0"/></g><g stroke="#000000" stroke-linecap="butt"><g><path d="M241.33262,141.17818c0,-46.79079 37.93143,-84.72222 84.72222,-84.72222c46.79079,0 84.72222,37.93143 84.72222,84.72222c0,46.79079 -37.93143,84.72222 -84.72222,84.72222c-46.79079,0 -84.72222,-37.93143 -84.72222,-84.72222z" fill="#faddbf" stroke-width="2"/><path d="M241.56339,140.30867c0,-15.05428 8.65728,-41.01117 13.16632,-44.22534c0.51494,-0.36707 5.78642,-8.91029 13.30693,-15.62682c9.34748,-8.34819 21.31473,-15.15641 21.9255,-14.95935c7.96872,2.57101 -17.52654,64.85492 -16.28763,90.14485c0.00295,0.06031 4.40745,19.70158 6.02593,20.14049c2.8855,4.74247 9.11092,19.15337 19.99223,26.29351c20.2786,13.30648 48.94186,19.68013 47.45857,20.18586c-2.37273,0.80898 -14.80271,2.76903 -20.86562,2.76903c-46.79079,0 -84.72222,-37.93143 -84.72222,-84.72222z" fill="#ef8b89" stroke-width="0"/><path d="M410.25362,140.71998c0,11.62434 -1.57787,15.64071 -2.12992,13.78899c-0.5632,-1.8891 -0.18668,-9.81362 -9.04258,-14.64925c-2.14596,-1.17177 -10.20624,6.27605 -12.93385,5.04791c-1.71325,-0.77142 -8.65215,-10.17554 -10.56583,-10.85157c-1.33801,-0.47267 -12.45011,8.37757 -13.84965,7.92692c-3.49052,-1.12394 -11.98851,-11.37355 -15.73972,-12.03156c-2.06568,-0.36235 -9.2828,11.84977 -11.39182,11.59592c-2.71985,-0.32737 -10.06862,-12.06843 -12.80601,-12.06843c-7.27985,0 -7.47978,7.01079 -12.7176,13.01701c-3.40366,3.90299 -13.98842,-13.05188 -17.11223,-8.61668c-3.87941,5.50799 -7.71992,10.81771 -11.96095,14.41734c-3.32724,2.82405 -13.36416,-10.09687 -16.24015,-7.47909c-13.88607,12.63935 -22.22353,20.64372 -22.22353,2.47189c0,-36.54015 43.28764,-8.21349 85.0704,-29.73523c39.99404,-20.60039 83.64345,-9.37431 83.64345,27.16584z" fill="#ef8b89" stroke-width="0"/></g><path d="M411.78749,132.40909c0,23.48334 6.5317,8.71531 -11.46679,-0.86026c-2.20249,-1.17177 -10.47508,6.27605 -13.27454,5.04791c-1.75838,-0.77142 -8.88005,-10.17554 -10.84414,-10.85157c-1.37326,-0.47267 -12.77806,8.37757 -14.21446,7.92692c-3.58246,-1.12394 -12.30429,-11.37355 -16.15431,-12.03156c-2.12009,-0.36235 -9.52731,11.84977 -11.69189,11.59592c-2.79149,-0.32737 -10.33384,-12.06843 -13.14333,-12.06843c-7.47161,0 -7.6768,7.01079 -13.05259,13.01701c-3.49332,3.90299 -14.35688,-13.05188 -17.56298,-8.61668c-3.98159,5.50799 -7.92327,10.81771 -12.276,14.41734c-3.41488,2.82405 -13.71618,-10.09687 -16.66792,-7.47909c-14.25184,12.63935 -22.80892,20.64372 -22.80892,2.47189c0,-36.54015 39.86264,-81.25697 85.78948,-81.25697c45.92683,0 87.36842,42.14743 87.36842,78.68758z" fill="#724e36" stroke-width="2"/><path d="M411.53976,131.2463c0,23.48334 6.5317,8.71531 -11.46679,-0.86026c-2.20249,-1.17177 -10.47508,6.27605 -13.27454,5.04791c-1.75838,-0.77142 -8.88005,-10.17554 -10.84415,-10.85157c-1.37326,-0.47267 -12.77806,8.37757 -14.21446,7.92692c-3.58246,-1.12394 -12.30429,-11.37355 -16.15431,-12.03156c-2.12009,-0.36235 -9.52731,11.84977 -11.69189,11.59592c-2.79149,-0.32737 -10.33384,-12.06843 -13.14333,-12.06843c-7.47161,0 -7.6768,7.01079 -13.05259,13.01701c-3.49332,3.90299 -14.35688,-13.05188 -17.56298,-8.61668c-3.98159,5.50799 -7.92327,10.81771 -12.27601,14.41734c-3.41488,2.82405 -13.71618,-10.09687 -16.66792,-7.47909c-14.25184,12.63935 -22.80892,20.64372 -22.80892,2.47189c0,-36.54015 44.42786,-8.21349 87.31121,-29.73523c41.04751,-20.60039 85.84668,-9.37431 85.84668,27.16584z" fill="#623728" stroke-width="0"/></g><g stroke="#000000" stroke-linecap="butt"><path d="M344.88996,164.08054c0,28.55894 -13.1683,43.28947 -29.73684,43.28947c-16.56854,0 -30.26316,-14.73054 -30.26316,-43.28947c0,-28.55894 13.43146,-51.71053 30,-51.71053c16.56854,0 30,23.15159 30,51.71053z" fill="#f0f0f0" stroke-width="2"/><path d="M298.13423,144.49814c-4.30259,28.23297 34.22345,62.0416 17.65491,62.0416c-16.56854,0 -30.26316,-14.73054 -30.26316,-43.28947c0,-28.55894 18.82852,-59.56866 12.60825,-18.75213z" fill="#9a99ff" stroke-width="0"/></g><path d="M340.99553,172.31379c0,15.82221 -4.68891,28.64865 -10.47297,28.64865c-5.78406,0 -10.47297,-12.82644 -10.47297,-28.64865c0,-15.82221 4.68891,-28.64865 10.47297,-28.64865c5.78406,0 10.47297,12.82644 10.47297,28.64865z" fill="#000000" stroke="none" stroke-width="0" stroke-linecap="butt"/><g stroke="#000000" stroke-linecap="butt"><path d="M339.88066,134.04586c4.45946,10.22981 13.24831,38.768 -2.46195,38.768c-15.71026,0 -50.32611,-29.28792 -45.7813,-38.90314c4.32432,-9.14873 6.78974,-21.41892 22.5,-21.41892c15.71026,0 21.49332,11.80491 25.74324,21.55405z" fill="#a100fe" stroke-width="2"/><path d="M338.95639,133.69161c4.3074,10.22981 13.5858,38.55368 -1.58878,38.55368c-15.17458,0 -49.39934,-29.0736 -45.0095,-38.68882c4.17687,-9.14873 6.55823,0.96203 21.73281,0.96203c15.17458,0 20.76045,-10.57604 24.86546,-0.8269z" fill="#99008e" stroke-width="0"/></g><g data-paper-data="{&quot;index&quot;:null}" stroke="#000000" stroke-linecap="butt"><path d="M378.61664,110.89138c16.56854,0 30,23.15159 30,51.71053c0,28.55893 -13.69462,43.28947 -30.26316,43.28947c-16.56854,0 -29.73684,-14.73053 -29.73684,-43.28947c0,-28.55894 13.43146,-51.71053 30,-51.71053z" fill="#f0f0f0" stroke-width="2"/><path d="M407.98062,161.77164c0,28.55893 -13.69462,43.28947 -30.26316,43.28947c-16.56854,0 21.9575,-33.80863 17.65491,-62.0416c-6.22027,-40.81653 12.60825,-9.80681 12.60825,18.75213z" fill="#9a99ff" stroke-width="0"/></g><path d="M394.34426,143.4937c5.78406,0 10.47297,12.82644 10.47297,28.64865c0,15.82221 -4.68891,28.64865 -10.47297,28.64865c-5.78406,0 -10.47297,-12.82644 -10.47297,-28.64865c0,-15.82221 4.68891,-28.64865 10.47297,-28.64865z" data-paper-data="{&quot;index&quot;:null}" fill="#000000" stroke="none" stroke-width="0" stroke-linecap="butt"/><g data-paper-data="{&quot;index&quot;:null}" stroke="#000000" stroke-linecap="butt"><path d="M353.62595,132.5672c4.24992,-9.74914 10.03298,-21.55405 25.74324,-21.55405c15.71026,0 18.17568,12.27019 22.5,21.41892c4.54481,9.61522 -28.99946,39.33177 -44.70972,39.33177c-15.71026,0 -7.99299,-28.96682 -3.53353,-39.19663z" fill="#a100fe" stroke-width="2"/><path d="M354.55022,132.21296c4.10501,-9.74914 9.69088,0.8269 24.86546,0.8269c15.17458,0 17.55594,-10.11076 21.73281,-0.96203c4.38984,9.61522 -28.97766,39.54609 -44.15224,39.54609c-15.17458,0 -6.75344,-29.18114 -2.44604,-39.41095z" fill="#99008e" stroke-width="0"/></g><path d="M287.72727,197.59963c0,5.37267 -2.57127,9.72808 -5.74308,9.72808c-3.17182,0 -5.74308,-4.35541 -5.74308,-9.72808c0,-5.37267 2.57127,-9.72808 5.74308,-9.72808c3.17182,0 5.74308,4.35541 5.74308,9.72808z" fill="#000000" stroke="none" stroke-width="0" stroke-linecap="butt"/></g></g></svg>