<svg version="1.1" xmlns="http://www.w3.org/2000/svg" xmlns:xlink="http://www.w3.org/1999/xlink" width="221.93769" height="329.26436" viewBox="0,0,221.93769,329.26436"><g transform="translate(-242.27445,-16.31567)"><g data-paper-data="{&quot;isPaintingLayer&quot;:true}" fill-rule="nonzero" stroke-linejoin="miter" stroke-miterlimit="10" stroke-dasharray="" stroke-dashoffset="0" style="mix-blend-mode: normal"><g data-paper-data="{&quot;index&quot;:null}" stroke="#000000" stroke-linecap="butt"><path d="M459.67026,188.37142l-47.94863,-3.27586l3.47606,-50.87882l47.94863,3.27586z" fill="#ffcaa0" stroke-width="2"/><g><path d="M411.8901,185.27452l-66.11591,-4.51706l3.52136,-51.54197l66.11591,4.51706z" fill="#ff0008" stroke-width="2"/><path d="M412.15277,184.54716l-34.62955,-2.3659c0,0 15.43793,-14.43492 16.02252,-22.99155c0.55428,-8.11297 -12.60106,-27.08812 -12.60106,-27.08812l34.62956,2.3659c0,0 -1.12535,16.47171 -1.69253,24.77346c-0.57324,8.39054 -1.72893,25.30622 -1.72893,25.30622z" fill="#8d005e" stroke-width="0"/></g><path d="M459.18109,187.54546l-47.94863,-3.27586l33.39027,-10.83236l18.03441,-36.77059z" fill="#ff6e5b" stroke-width="0"/></g><g data-paper-data="{&quot;index&quot;:null}" stroke="#000000" stroke-linecap="butt"><path d="M433.78525,93.4c-2.01617,32.1421 -15.51135,57.45443 -30.14234,56.53668c-14.63099,-0.91775 -24.85733,-27.71806 -22.84116,-59.86016c2.01617,-32.1421 15.51135,-57.45443 30.14234,-56.53668c14.63099,0.91775 24.85733,27.71806 22.84116,59.86016z" fill="#01930e" stroke-width="2"/><path d="M390.59294,80.62247c-2.01617,32.1421 28.10921,69.8238 13.47822,68.90605c-14.63098,-0.91775 -24.85733,-27.71806 -22.84116,-59.86016c2.01617,-32.1421 11.37911,-41.18799 9.36294,-9.04589z" fill="#31525b" stroke-width="0"/></g><g data-paper-data="{&quot;index&quot;:null}" stroke="#000000" stroke-linecap="butt"><path d="M316.44531,344.13566v-90.27109h61.17899v90.27109z" fill="#273750" stroke-width="2"/><path d="M317.23265,343.37909v-90.27109l18.42709,49.31565l42.75189,40.95544z" fill="#1f1e2e" stroke-width="0"/></g><path d="M264.46059,253.45329v-113.80147h113.80147v113.80147z" data-paper-data="{&quot;index&quot;:null}" fill="#ff0008" stroke="#000000" stroke-width="2" stroke-linecap="butt"/><g data-paper-data="{&quot;index&quot;:null}" stroke="#000000" stroke-linecap="butt"><path d="M263.83936,344.58003v-90.27109h61.17899v90.27109z" fill="#273750" stroke-width="2"/><path d="M264.62674,343.82343v-90.27109l18.42709,49.31565l42.75189,40.95544z" fill="#1f1e2e" stroke-width="0"/></g><g data-paper-data="{&quot;index&quot;:null}" fill="#000000" stroke="#000000" stroke-linecap="butt"><path d="M291.35367,252.98407v-111.68333h61.17899v111.68333z" stroke-width="2"/><path d="M292.14105,252.04804v-111.68333l18.42709,61.01328l42.75189,50.67005z" stroke-width="0"/></g><g data-paper-data="{&quot;index&quot;:null}" stroke="#000000" stroke-linecap="butt"><path d="M256.80323,80.72617c0.08617,-1.37376 2.59931,-27.27085 2.78612,-28.61717c4.7205,-34.02053 38.68847,-34.38069 81.04963,-31.72352c39.79163,2.496 73.88033,9.18531 77.91187,40.79033c0.43018,3.37238 -2.05527,26.07421 -2.27352,29.55362c-0.78011,12.4367 0.48893,39.95852 -7.49173,49.3928c-15.17682,17.94117 -47.48293,12.75824 -76.34402,10.94789c-30.51539,-1.91413 -59.03335,-2.71978 -71.14327,-24.19448c-5.36623,-9.51601 -5.19015,-35.06842 -4.49507,-46.14947z" fill="#ffcaa0" stroke-width="2"/><path d="M254.97282,80.62156c0.08617,-1.37376 2.59931,-27.27085 2.78612,-28.61717c2.68197,-19.32884 3.05902,60.86717 49.37944,85.74073c36.29985,19.49264 103.68367,-1.58827 100.47506,2.20477c-15.17682,17.94117 -48.14119,12.82596 -77.00227,11.0156c-30.51539,-1.91413 -59.03335,-2.71978 -71.14327,-24.19448c-5.36623,-9.51601 -5.19015,-35.06842 -4.49507,-46.14947z" fill="#ff6e5b" stroke-width="0"/></g><g data-paper-data="{&quot;index&quot;:null}" stroke="#000000" stroke-linecap="butt"><path d="M302.09823,83.06172c-2.01617,32.1421 -15.51135,57.45443 -30.14234,56.53668c-14.63099,-0.91775 -24.85733,-27.71806 -22.84116,-59.86016c2.01617,-32.1421 15.51135,-57.45443 30.14234,-56.53668c14.63099,0.91775 24.85733,27.71806 22.84116,59.86016z" fill="#01930e" stroke-width="2"/><path d="M258.90591,70.2842c-2.01617,32.1421 28.10921,69.8238 13.47822,68.90605c-14.63098,-0.91775 -24.85733,-27.71806 -22.84116,-59.86016c2.01617,-32.1421 11.37911,-41.18799 9.36294,-9.04589z" fill="#31525b" stroke-width="0"/></g><g data-paper-data="{&quot;index&quot;:null}" stroke-linecap="butt"><path d="M434.98252,54.53968c-1.10564,17.62632 -43.28113,29.32596 -94.20159,26.13189c-50.92046,-3.19407 -91.30334,-20.07233 -90.19771,-37.69864c1.10564,-17.62632 43.28112,-29.32595 94.20158,-26.13188c50.92046,3.19407 91.30335,20.07232 90.19772,37.69864z" fill="#000000" stroke="none" stroke-width="NaN"/><path d="M434.23229,54.83758c-1.10564,17.62632 -43.28113,29.32596 -94.20159,26.13189c-50.92046,-3.19407 -91.30334,-20.07233 -90.19771,-37.69864c1.10564,-17.62632 42.15492,11.51063 93.07538,14.7047c50.92046,3.19407 92.42955,-20.76427 91.32391,-3.13795z" fill="#ff0000" stroke="#000000" stroke-width="2"/><path d="M428.28128,63.67931c-0.30426,4.85061 -37.74533,21.16197 -88.57611,16.53818c-17.78771,-1.61805 -34.49502,-4.30113 -48.01596,-8.10891c-25.10175,-7.06918 -40.18534,-16.61472 -37.60631,-20.55072c2.66369,-4.06518 36.52999,19.20284 87.45045,22.3969c50.92046,3.19407 87.05219,-15.12606 86.74793,-10.27545z" fill="#900056" stroke="#000000" stroke-width="0"/></g><path d="M379.05712,119.90464c-0.98397,15.68669 -4.68101,28.2214 -8.25758,27.99705c-3.57657,-0.22435 -5.67827,-13.12279 -4.6943,-28.80947c0.98397,-15.68669 4.68102,-28.22139 8.25758,-27.99704c3.57657,0.22435 5.67827,13.12279 4.6943,28.80948z" data-paper-data="{&quot;index&quot;:null}" fill="#000000" stroke="none" stroke-width="0" stroke-linecap="butt"/><path d="M404.0483,111.33267c-0.98004,15.62394 -4.5213,28.11735 -7.90962,27.90482c-3.38833,-0.21254 -5.34063,-13.05054 -4.36059,-28.67448c0.98004,-15.62394 4.5213,-28.11735 7.90962,-27.90482c3.38833,0.21254 5.34063,13.05054 4.36059,28.67448z" data-paper-data="{&quot;index&quot;:null}" fill="#000000" stroke="none" stroke-width="0" stroke-linecap="butt"/><path d="M384.51636,93.73808l-29.94115,-1.87811" fill="none" stroke="#000000" stroke-width="5" stroke-linecap="round"/><path d="M413.69323,81.13477l-23.57077,3.05419" fill="none" stroke="#000000" stroke-width="5" stroke-linecap="round"/><g data-paper-data="{&quot;index&quot;:null}" stroke="#000000" stroke-linecap="butt"><path d="M357.28871,202.46973l-47.97458,-2.87078l3.04621,-50.90636l47.97458,2.87078z" fill="#ffcaa0" stroke-width="2"/><g><path d="M309.4841,199.7765l-66.1517,-3.95849l3.08592,-51.56987l66.1517,3.95849z" fill="#ff0008" stroke-width="2"/><path d="M309.74062,199.04694l-34.6483,-2.07334c0,0 15.31546,-14.56479 15.82776,-23.12606c0.48574,-8.11736 -12.8294,-26.98073 -12.8294,-26.98073l34.64831,2.07334c0,0 -0.98619,16.48063 -1.48323,24.78687c-0.50236,8.39508 -1.51513,25.31992 -1.51513,25.31992z" fill="#8d005e" stroke-width="0"/></g><path d="M356.79259,201.64794l-47.97458,-2.87078l33.29759,-11.11399l17.7232,-36.92159z" fill="#ff6e5b" stroke-width="0"/></g><path d="M340.36197,130.48701c2.68498,-5.27407 7.93993,-7.98238 11.73725,-6.0492c3.79733,1.93318 4.69906,7.77582 2.01408,13.04988c-2.68498,5.27407 -7.93993,7.98238 -11.73725,6.0492c-3.79733,-1.93318 -4.69906,-7.77582 -2.01408,-13.04988z" fill="#000000" stroke="none" stroke-width="0" stroke-linecap="butt"/></g></g></svg>