<svg version="1.1" xmlns="http://www.w3.org/2000/svg" xmlns:xlink="http://www.w3.org/1999/xlink" width="188.7297" height="309.5299" viewBox="0,0,188.7297,309.5299"><g transform="translate(-260.76874,-36.05013)"><g data-paper-data="{&quot;isPaintingLayer&quot;:true}" fill-rule="nonzero" stroke-linejoin="miter" stroke-miterlimit="10" stroke-dasharray="" stroke-dashoffset="0" style="mix-blend-mode: normal"><g data-paper-data="{&quot;index&quot;:null}" stroke="#000000" stroke-linecap="butt"><path d="M360.41209,266.29556v-48.0604h50.99742v48.0604z" fill="#ffcaa0" stroke-width="2"/><g><path d="M360.24502,218.41544v-66.27003h51.66212v66.27003z" fill="#ff0008" stroke-width="2"/><path d="M360.9886,218.62792v-34.71028c0,0 15.45362,14.41812 24.0302,14.41812c8.13188,0 26.16622,-14.41812 26.16622,-14.41812v34.71029c0,0 -16.51011,0 -24.83121,0c-8.4101,0 -25.36521,0 -25.36521,0z" fill="#8d005e" stroke-width="0"/></g><path d="M361.20278,265.75123v-48.0604l13.0831,32.57427l37.91432,15.48613z" fill="#ff6e5b" stroke-width="0"/></g><g data-paper-data="{&quot;index&quot;:null}" stroke="#000000" stroke-linecap="butt"><path d="M448.49844,106.88716c0,32.20527 -11.88407,58.3128 -26.54382,58.3128c-14.65975,0 -26.54382,-26.10753 -26.54382,-58.3128c0,-32.20527 11.88407,-58.3128 26.54382,-58.3128c14.65975,0 26.54382,26.10753 26.54382,58.3128z" fill="#01930e" stroke-width="2"/><path d="M404.59093,96.83869c0,32.20527 32.42529,67.9271 17.76555,67.9271c-14.65974,0 -26.54382,-26.10753 -26.54382,-58.3128c0,-32.20527 8.77827,-41.81957 8.77827,-9.6143z" fill="#31525b" stroke-width="0"/></g><g data-paper-data="{&quot;index&quot;:null}" stroke="#000000" stroke-linecap="butt"><path d="M316.44531,344.13566v-90.27109h61.17899v90.27109z" fill="#273750" stroke-width="2"/><path d="M317.23265,343.37909v-90.27109l18.42709,49.31565l42.75189,40.95544z" fill="#1f1e2e" stroke-width="0"/></g><path d="M264.46059,253.45329v-113.80147h113.80147v113.80147z" data-paper-data="{&quot;index&quot;:null}" fill="#ff0008" stroke="#000000" stroke-width="2" stroke-linecap="butt"/><g data-paper-data="{&quot;index&quot;:null}" fill="#000000" stroke="#000000" stroke-linecap="butt"><path d="M291.35367,252.98407v-111.68333h61.17899v111.68333z" stroke-width="2"/><path d="M292.14105,252.04804v-111.68333l18.42709,61.01328l42.75189,50.67005z" stroke-width="0"/></g><g data-paper-data="{&quot;index&quot;:null}" stroke="#000000" stroke-linecap="butt"><path d="M263.83936,344.58003v-90.27109h61.17899v90.27109z" fill="#273750" stroke-width="2"/><path d="M264.62674,343.82343v-90.27109l18.42709,49.31565l42.75189,40.95544z" fill="#1f1e2e" stroke-width="0"/></g><g data-paper-data="{&quot;index&quot;:null}" stroke="#000000" stroke-linecap="butt"><path d="M261.99017,275.46313v-48.0604h50.99742v48.0604z" fill="#ffcaa0" stroke-width="2"/><g><path d="M261.82309,227.58301v-66.27003h51.66212v66.27003z" fill="#ff0008" stroke-width="2"/><path d="M262.56667,227.79549v-34.71028c0,0 15.45362,14.41812 24.0302,14.41812c8.13188,0 26.16622,-14.41812 26.16622,-14.41812v34.71029c0,0 -16.51011,0 -24.83121,0c-8.4101,0 -25.36521,0 -25.36521,0z" fill="#8d005e" stroke-width="0"/></g><path d="M262.78085,274.91881v-48.0604l13.0831,32.57427l37.91432,15.48613z" fill="#ff6e5b" stroke-width="0"/></g><g data-paper-data="{&quot;index&quot;:null}" stroke="#000000" stroke-linecap="butt"><path d="M271.07014,105.3179c0,-1.37646 0.88696,-27.38008 0.98912,-28.73546c2.58143,-34.24932 36.46023,-36.73529 78.90464,-36.73529c39.86984,0 74.31045,4.54212 80.31266,35.83276c0.64046,3.33883 -0.4189,26.15173 -0.4189,29.63798c0,12.46114 2.98952,39.84953 -4.38487,49.76492c-14.02387,18.8561 -46.59108,15.70582 -75.50889,15.70582c-30.57536,0 -59.08782,0.98125 -72.51838,-19.6932c-5.95144,-9.1614 -7.37538,-34.67471 -7.37538,-45.77754z" fill="#ffcaa0" stroke-width="2"/><path d="M269.23678,105.32809c0,-1.37646 0.88696,-27.38008 0.98912,-28.73546c1.46665,-19.45883 6.86352,60.55627 54.65026,82.48122c37.44896,17.1819 103.38086,-8.07612 100.416,-4.08965c-14.02387,18.8561 -47.24381,15.81461 -76.16161,15.81461c-30.57536,0 -59.08782,0.98125 -72.51838,-19.6932c-5.95144,-9.1614 -7.37538,-34.67471 -7.37538,-45.77754z" fill="#ff6e5b" stroke-width="0"/></g><g data-paper-data="{&quot;index&quot;:null}" stroke="#000000" stroke-linecap="butt"><path d="M316.42251,104.81324c0,32.20527 -11.88407,58.3128 -26.54382,58.3128c-14.65975,0 -26.54382,-26.10753 -26.54382,-58.3128c0,-32.20527 11.88407,-58.3128 26.54382,-58.3128c14.65975,0 26.54382,26.10753 26.54382,58.3128z" fill="#01930e" stroke-width="2"/><path d="M272.515,94.76478c0,32.20527 32.42529,67.9271 17.76555,67.9271c-14.65974,0 -26.54382,-26.10753 -26.54382,-58.3128c0,-32.20527 8.77827,-41.81957 8.77827,-9.6143z" fill="#31525b" stroke-width="0"/></g><g data-paper-data="{&quot;index&quot;:null}" stroke-linecap="butt"><path d="M447.26056,68.02811c0,17.66096 -41.36032,31.97799 -92.38086,31.97799c-51.02054,0 -92.38085,-14.31704 -92.38085,-31.97799c0,-17.66096 41.36031,-31.97798 92.38085,-31.97798c51.02054,0 92.38086,14.31703 92.38086,31.97799z" fill="#000000" stroke="none" stroke-width="NaN"/><path d="M446.53045,68.3724c0,17.66096 -41.36032,31.97799 -92.38086,31.97799c-51.02054,0 -92.38085,-14.31704 -92.38085,-31.97799c0,-17.66096 42.79284,8.849 93.81338,8.849c51.02054,0 90.94833,-26.50996 90.94833,-8.849z" fill="#ff0000" stroke="#000000" stroke-width="2"/><path d="M441.14464,77.56934c0,4.86014 -36.34648,23.48345 -87.36702,22.05092c-17.85411,-0.5013 -34.69662,-2.13318 -48.42942,-5.08703c-25.49507,-5.48385 -41.14666,-14.06638 -38.81909,-18.15612c2.40397,-4.22396 37.6605,16.87826 88.68104,16.87826c51.02054,0 85.93449,-20.54617 85.93449,-15.68603z" fill="#900056" stroke="#000000" stroke-width="0"/></g><path d="M376.81788,130.097c0,15.71752 -2.90507,28.45909 -6.48867,28.45909c-3.5836,0 -6.48867,-12.74157 -6.48867,-28.45908c0,-15.71752 2.90508,-28.45908 6.48867,-28.45908c3.5836,0 6.48867,12.74157 6.48867,28.45909z" data-paper-data="{&quot;index&quot;:null}" fill="#000000" stroke="none" stroke-width="0" stroke-linecap="butt"/><path d="M402.5675,125.77538c0,15.65465 -2.75218,28.34525 -6.14716,28.34525c-3.39499,0 -6.14716,-12.6906 -6.14716,-28.34525c0,-15.65465 2.75218,-28.34525 6.14716,-28.34525c3.39499,0 6.14716,12.6906 6.14716,28.34525z" data-paper-data="{&quot;index&quot;:null}" fill="#000000" stroke="none" stroke-width="0" stroke-linecap="butt"/><path d="M344.30117,153.56184c-0.51172,-1.71487 -0.98549,-3.43967 -1.55094,-5.13735c-0.48097,-1.15289 -0.83137,-1.9538 -1.25715,-3.14423c-0.97007,-2.71221 -4.12017,-4.36647 -4.59126,-0.2562c-0.42499,3.70802 0.36504,8.08793 1.79172,11.49004c0,0 0.48077,1.15385 -0.67308,1.63462c-1.15385,0.48077 -1.63462,-0.67308 -1.63462,-0.67308c-1.6198,-3.90994 -3.13191,-10.30817 -1.51528,-14.43995c1.57251,-4.01901 6.54004,-4.03091 8.42149,-0.22818c0.72688,1.46915 1.16485,3.2155 1.79943,4.74034c0.60202,1.80481 1.10647,3.63683 1.65322,5.45933l0.05272,0.48431c0,0 0,1.25 -1.25,1.25c-1.06992,0 -1.22405,-0.91579 -1.24626,-1.17965z" data-paper-data="{&quot;index&quot;:null}" fill="#000000" stroke="none" stroke-width="0.5" stroke-linecap="butt"/><path d="M379.95684,103.35532h-30" fill="none" stroke="#000000" stroke-width="5" stroke-linecap="round"/><path d="M412.33779,96.21246l-23.33333,4.52381" fill="none" stroke="#000000" stroke-width="5" stroke-linecap="round"/></g></g></svg>