<svg version="1.1" xmlns="http://www.w3.org/2000/svg" xmlns:xlink="http://www.w3.org/1999/xlink" width="243.52492" height="314.58911" viewBox="0,0,243.52492,314.58911"><g transform="translate(-185.02902,-46.3983)"><g data-paper-data="{&quot;isPaintingLayer&quot;:true}" fill-rule="nonzero" stroke-linecap="butt" stroke-linejoin="miter" stroke-miterlimit="10" stroke-dasharray="" stroke-dashoffset="0" style="mix-blend-mode: normal"><g data-paper-data="{&quot;index&quot;:null}" stroke="#000000"><path d="M350.23846,228.75236c1.7149,-2.27565 -12.98461,-7.64627 -20.46143,-13.8123c-6.06277,-4.99988 -7.84213,-11.27934 -0.76339,-10.81055c6.46195,4.86966 78.46897,-0.65092 58.40598,25.97229c-20.063,26.62321 -41.56572,44.25795 -48.02767,39.38828c-6.46195,-4.86966 -9.2165,-14.11453 10.8465,-40.73773z" fill="#216aff" stroke-width="2"/><path d="M362.32825,236.78149c11.72144,8.83317 14.24251,25.25757 5.63096,36.68492c-8.61155,11.42735 -25.0947,13.53035 -36.81614,4.69718c-11.72144,-8.83317 -14.2425,-25.25756 -5.63095,-36.68491c8.61155,-11.42735 25.09469,-13.53036 36.81613,-4.69719z" fill="#faddbf" stroke-width="2"/><path d="M368.15975,272.54383c-8.61154,11.42736 -25.09469,13.53036 -36.81613,4.69719c-11.72144,-8.83317 24.31541,-9.73949 32.92696,-21.16684c8.61155,-11.42737 12.50072,5.0423 3.88917,16.46965z" fill="#ef8b89" stroke-width="0"/></g><g stroke="#000000"><path d="M327.76518,340.83535v-95.29492h29.49199v95.29492z" fill="#73fffc" stroke-width="2"/><path d="M327.43943,340.21742l1.32626,-93.78573c0,0 5.20288,68.11227 6.3799,77.52842c0.2602,2.08162 2.52228,2.78987 2.52228,2.78987l18.60659,13.13896z" fill="#59a9e6" stroke-width="0"/></g><g stroke="#000000"><path d="M288.4238,338.4128v-95.29492h29.49199v95.29492z" fill="#73fffc" stroke-width="2"/><path d="M288.09805,337.7949l1.32626,-93.78573c0,0 5.20288,68.11227 6.3799,77.52842c0.2602,2.08162 2.52228,2.78987 2.52228,2.78987l18.60659,13.13896z" fill="#59a9e6" stroke-width="0"/></g><g stroke="#000000"><path d="M355.22917,235.69588c0,13.80271 10.04743,36.74388 4.95001,46.45977c-6.2338,11.88187 -28.61241,9.09579 -38.9397,9.09579c-13.66287,0 -32.94407,4.17018 -38.34426,-14.83216c-2.01935,-7.10576 4.35457,-32.37264 4.35457,-40.7234c0,-30.68249 15.2177,-55.55556 33.98969,-55.55556c18.77199,0 33.98969,24.87307 33.98969,55.55556z" fill="#216aff" stroke-width="2"/><path d="M303.96554,251.27246c0,13.80271 62.04198,20.54886 56.94455,30.26474c-6.2338,11.88186 -28.61241,9.09579 -38.9397,9.09579c-13.66287,0 -32.94406,4.17018 -38.34425,-14.83215c-2.01936,-7.10576 4.35457,-32.37265 4.35457,-40.7234c0,-9.45244 3.34855,-28.59801 5.51953,-29.96813c5.94391,-16.76415 10.4653,25.13995 10.4653,46.16315z" fill="#3236f4" stroke-width="0"/></g><g stroke="#000000"><g><path d="M256.95641,124.21761c5.91843,-46.41498 48.34304,-79.24392 94.758,-73.3255c46.41498,5.91843 79.24392,48.34304 73.3255,94.758c-5.91843,46.41498 -48.34304,79.24392 -94.758,73.3255c-46.41498,-5.91843 -79.24392,-48.34304 -73.3255,-94.758z" fill="#faddbf" stroke-width="2"/><path d="M257.29531,123.38428c1.90418,-14.93336 13.77513,-39.58675 18.65451,-42.20477c0.55724,-0.29899 6.86698,-8.10681 15.17665,-13.81815c10.32834,-7.09881 23.06062,-12.33864 23.64156,-12.06591c7.57952,3.5583 -25.58908,62.11714 -27.55896,87.36065c-0.0047,0.0602 1.88005,20.10083 3.43003,20.74093c2.26246,5.06935 6.6151,20.15194 16.50587,28.61108c18.43264,15.76458 46.05949,25.71257 44.52414,26.02662c-2.456,0.50236 -15.03406,0.87444 -21.04829,0.10755c-46.41498,-5.91843 -79.24392,-48.34304 -73.3255,-94.758z" fill="#ef8b89" stroke-width="0"/><path d="M424.57864,145.1294c-1.47033,11.53097 -3.54354,15.3155 -3.85694,13.40883c-0.31973,-1.94516 1.05611,-9.75841 -7.11701,-15.67535c-1.98051,-1.43379 -10.91811,4.93468 -13.46846,3.3714c-1.60192,-0.98194 -7.29558,-11.1882 -9.10838,-12.10085c-1.26748,-0.63811 -13.40976,6.7355 -14.74107,6.11146c-3.32033,-1.55642 -10.45362,-12.7986 -14.09146,-13.9258c-2.00326,-0.62072 -10.70709,10.58044 -12.76705,10.06187c-2.6566,-0.66876 -8.46125,-13.24506 -11.17665,-13.59129c-7.22138,-0.9208 -8.30647,6.00839 -14.26194,11.30385c-3.87,3.44112 -12.22517,-14.71641 -15.88489,-10.71195c-4.54494,4.97306 -9.02621,9.75435 -13.6885,12.78864c-3.65772,2.38052 -11.9797,-11.70616 -15.16371,-9.47319c-15.37325,10.78143 -24.6562,17.66692 -22.3577,-0.35895c4.62186,-36.24666 43.97887,-2.6722 88.14826,-18.73611c42.2785,-15.37621 84.15737,1.28079 79.53553,37.52746z" fill="#ef8b89" stroke-width="0"/></g><path d="M427.15141,137.07928c-2.97034,23.29473 5.37687,9.47148 -11.26589,-2.30375c-2.03658,-1.44095 -11.18478,4.90069 -13.80642,3.32831c-1.64669,-0.98763 -7.52165,-11.21703 -9.38446,-12.13605c-1.30244,-0.64257 -13.73508,6.69402 -15.10295,6.06531c-3.41152,-1.56805 -10.76686,-12.83853 -14.50273,-13.97823c-2.05723,-0.6276 -10.94963,10.54952 -13.06471,10.02391c-2.72766,-0.67783 -8.72434,-13.27859 -11.51128,-13.63396c-7.4116,-0.94506 -8.50191,5.98347 -14.59423,11.26148c-3.95893,3.42979 -12.59067,-14.76301 -16.33203,-10.76897c-4.6463,4.96013 -9.22793,9.72864 -14.001,12.74878c-3.74465,2.36944 -12.3289,-11.75069 -15.58804,-9.5273c-15.73609,10.73516 -25.23689,17.59289 -22.93838,-0.43299c4.62186,-36.24666 49.82042,-75.56223 95.3784,-69.75308c45.55795,5.80915 81.3356,52.85987 76.71375,89.10655z" fill="#724e36" stroke-width="2"/><path d="M427.05275,135.8945c-2.97034,23.29473 5.37687,9.47148 -11.26589,-2.30375c-2.03658,-1.44095 -11.18478,4.90069 -13.80642,3.32831c-1.64669,-0.98763 -7.52165,-11.21703 -9.38447,-12.13605c-1.30244,-0.64257 -13.73508,6.69402 -15.10295,6.06531c-3.41152,-1.56805 -10.76686,-12.83853 -14.50273,-13.97823c-2.05723,-0.6276 -10.94963,10.54952 -13.06471,10.02391c-2.72766,-0.67783 -8.72434,-13.27859 -11.51128,-13.63396c-7.4116,-0.94506 -8.50191,5.98347 -14.59423,11.26148c-3.95893,3.42979 -12.59067,-14.76301 -16.33203,-10.76897c-4.6463,4.96013 -9.22793,9.72864 -14.00101,12.74878c-3.74465,2.36944 -12.3289,-11.75069 -15.58804,-9.5273c-15.73609,10.73516 -25.23689,17.59289 -22.93838,-0.43299c4.62186,-36.24666 45.10993,-2.52798 90.37106,-18.45267c43.32351,-15.24296 86.3429,1.55947 81.72105,37.80613z" fill="#623728" stroke-width="0"/></g><g stroke="#000000"><path d="M356.78515,160.03469c-3.61234,28.32957 -18.53809,41.27616 -34.97355,39.18046c-16.43546,-2.0957 -28.15688,-18.44013 -24.54454,-46.76968c3.61234,-28.32957 19.86429,-49.59629 36.29976,-47.5006c16.43546,2.0957 26.83068,26.76025 23.21833,55.08982z" fill="#f0f0f0" stroke-width="2"/><path d="M312.88187,134.69557c-7.83913,27.46199 26.10112,65.87212 9.66565,63.77642c-16.43546,-2.0957 -28.15688,-18.44013 -24.54454,-46.76968c3.61234,-28.32957 26.21196,-56.70866 14.87889,-17.00674z" fill="#9a99ff" stroke-width="0"/></g><path d="M351.88061,167.70922c-2.00131,15.69513 -8.27493,27.82546 -14.01253,27.09386c-5.7376,-0.73161 -8.76648,-14.04811 -6.76517,-29.74325c2.00131,-15.69513 8.27493,-27.82546 14.01253,-27.09386c5.7376,0.73161 8.76648,14.04811 6.76517,29.74325z" fill="#000000" stroke="none" stroke-width="0"/><g stroke="#000000"><path d="M355.61508,129.60763c3.12971,10.71171 -11.60455,12.75625 -27.18863,10.76911c-15.58408,-1.98714 -26.37456,-8.04216 -20.65005,-17.0053c5.44679,-8.52828 9.44443,-20.38807 25.0285,-18.40093c15.58408,1.98714 19.82752,14.42873 22.81017,24.63711z" fill="#a100fe" stroke-width="2"/><path d="M354.74304,129.13932c2.97886,10.69248 -11.26977,12.79894 -26.32248,10.87955c-15.0527,-1.91938 -25.45522,-7.92495 -19.88444,-16.90768c5.30052,-8.54692 6.38386,1.78384 21.43657,3.70323c15.0527,1.91938 21.93144,-7.86516 24.77034,2.3249z" fill="#99008e" stroke-width="0"/></g><g data-paper-data="{&quot;index&quot;:null}" stroke="#000000"><path d="M396.96869,111.53872c16.43546,2.0957 26.83068,26.76025 23.21833,55.08982c-3.61234,28.32956 -19.06018,41.20959 -35.49564,39.11388c-16.43546,-2.0957 -27.63478,-18.37354 -24.02245,-46.7031c3.61234,-28.32957 19.86429,-49.59629 36.29976,-47.5006z" fill="#f0f0f0" stroke-width="2"/><path d="M419.66113,165.72448c-3.61234,28.32956 -19.06018,41.20959 -35.49564,39.11388c-16.43546,-2.0957 26.0575,-30.75975 25.36057,-59.31018c-1.00755,-41.27548 13.74742,-8.13327 10.13508,20.1963z" fill="#9a99ff" stroke-width="0"/></g><path d="M408.44621,145.86852c5.7376,0.73161 8.76648,14.04811 6.76517,29.74325c-2.00131,15.69513 -8.27493,27.82546 -14.01253,27.09386c-5.7376,-0.73161 -8.76648,-14.04811 -6.76517,-29.74325c2.00131,-15.69513 8.27493,-27.82546 14.01253,-27.09386z" data-paper-data="{&quot;index&quot;:null}" fill="#000000" stroke="none" stroke-width="0"/><g data-paper-data="{&quot;index&quot;:null}" stroke="#000000"><path d="M369.437,129.87944c5.44892,-9.13328 12.67871,-20.11189 28.26278,-18.12475c15.58408,1.98714 16.47767,14.47063 19.61007,24.09285c3.2921,10.11285 -8.67255,13.26635 -24.25663,11.27921c-15.58408,-1.98714 -29.33381,-7.6637 -23.61624,-17.24729z" fill="#a100fe" stroke-width="2"/><path d="M370.39866,129.64496c5.30518,-9.1516 9.50845,2.04602 24.56116,3.96541c15.0527,1.91938 18.69381,-7.80896 21.67995,1.79462c3.13837,10.09325 -8.43833,13.29622 -23.49103,11.37682c-15.0527,-1.91938 -28.31681,-7.53403 -22.75008,-17.13684z" fill="#99008e" stroke-width="0"/></g><path d="M391.63632,338.87004c0,11.6628 -14.51982,21.11737 -32.43092,21.11737c-17.9111,0 -32.43092,-9.45457 -32.43092,-21.11737c0,-2.33142 -0.03339,-13.76009 1.08979,-15.13837c4.49546,-5.51647 17.81784,5.26144 32.14847,5.26144c17.9111,0 31.62358,-1.78588 31.62358,9.87692z" fill="#000082" stroke="#000000" stroke-width="2"/><path d="M389.75004,336.13774c0,6.30841 -13.89058,10.1901 -31.80169,10.1901c-17.9111,0 -30.16566,-2.95748 -30.16566,-9.26589c0,-1.26107 -0.03338,-12.52602 1.0898,-13.27153c4.49546,-2.98386 15.55258,5.7726 29.88321,5.7726c17.9111,0 30.99434,0.26631 30.99434,6.57472z" fill="#2e0048" stroke="#000000" stroke-width="0"/><path d="M348.64938,338.22521c0,11.6628 -14.51982,21.11737 -32.43092,21.11737c-17.9111,0 -32.43092,-9.45457 -32.43092,-21.11737c0,-2.33142 -0.03339,-13.76009 1.08979,-15.13837c4.49546,-5.51647 17.81784,5.26144 32.14847,5.26144c17.9111,0 31.62358,-1.78588 31.62358,9.87692z" fill="#000082" stroke="#000000" stroke-width="2"/><path d="M346.7631,335.49289c0,6.30841 -13.89058,10.1901 -31.80169,10.1901c-17.9111,0 -30.16566,-2.95748 -30.16566,-9.26589c0,-1.26107 -0.03338,-12.52602 1.0898,-13.27153c4.49546,-2.98386 15.55258,5.7726 29.88321,5.7726c17.9111,0 30.99434,0.26631 30.99434,6.57472z" fill="#2e0048" stroke="#000000" stroke-width="0"/><path d="M296.20862,182.58031c0.76499,0.98858 -0.2236,1.75357 -0.2236,1.75357l-0.10796,0.00244c-1.59174,2.37301 -3.08178,5.0071 -5.9903,5.99718c-3.01538,1.02646 -6.70379,-0.4595 -6.96011,-3.86271c-0.3437,-4.56337 4.48895,-8.42918 6.9654,-11.6577c0,0 0.76134,-0.99138 1.75272,-0.23003c0.99138,0.76135 0.23004,1.75274 0.23004,1.75274c-2.09252,2.72167 -6.55177,6.18748 -6.45164,10.00365c0.04475,1.70548 2.33238,2.11359 3.68329,1.61894c2.29904,-0.84185 3.4299,-3.12671 4.69387,-5.01397l0.6547,-0.58773c0,0 0.98858,-0.76498 1.75356,0.2236z" fill="#000000" stroke="none" stroke-width="0.5"/><g stroke="none" stroke-width="1"><path d="M400.99112,311.79594c-2.88267,-0.22346 -5.85024,-0.55449 -8.7437,-0.68126c-7.03138,-0.39217 -14.15847,-0.79522 -21.18984,-1.18759c-5.58466,-0.32888 -11.26502,-0.66843 -16.84969,-0.99732c-9.43538,-0.56244 -18.87076,-1.12488 -28.31695,-1.59046c-7.41427,-0.43508 -14.74363,-0.76261 -22.16874,-1.10062c-6.26552,-0.30694 -12.61602,-0.72124 -18.88155,-1.02819c-9.91403,-0.61583 -19.83886,-1.13479 -29.75288,-1.75062c-8.18013,-0.5203 -16.44518,-1.14819 -24.61446,-1.76556c-2.69121,-0.20211 -5.46734,-0.51177 -8.25427,-0.72456c-0.95728,-0.10678 -1.69072,-0.48264 -2.27444,-1.33183c-0.25479,-0.32248 -0.41384,-0.63427 -0.66863,-0.95674c-2.01674,-2.77316 -3.7355,-5.61098 -5.56075,-8.36298c-4.79641,-7.39557 -9.69934,-14.70492 -14.49571,-22.10067c-1.8886,-3.05293 -3.88375,-6.01965 -5.67664,-9.0619c-2.52487,-4.29992 -5.06053,-8.50315 -7.69192,-12.71708c-0.74279,-1.16079 -1.20917,-2.19305 -0.38792,-3.47344c0.23466,-0.36597 0.19292,-0.86064 0.34265,-1.33397c0.97535,-4.39951 2.23789,-8.76719 3.58537,-13.0273c1.04801,-3.31328 1.13297,-3.20591 4.63317,-3.30551c4.86201,-0.14368 9.69161,0.00311 14.52124,0.14969c7.53163,0.25201 14.96749,0.49353 22.40337,0.73485c7.43589,0.24132 14.96749,0.49352 22.40338,0.73485c4.7339,0.13591 9.5527,0.37956 14.28659,0.51547c2.12761,0.04134 4.15951,0.07202 6.27633,0.21007c3.46782,0.19084 6.92485,0.47838 10.41426,0.47566c4.64896,0.02855 9.1806,0.23997 13.81876,0.36519c6.08487,0.18871 12.26549,0.38808 18.43529,0.68437c7.13792,0.30597 14.27581,0.61215 21.41371,0.91832c4.43589,0.20076 8.95674,0.50905 13.39265,0.70982c4.53161,0.21161 9.08486,0.22929 13.61648,0.44089c5.106,0.2755 10.30775,0.56166 15.41375,0.83716c1.05302,0.11746 2.10603,0.2349 3.15903,0.35237c1.71232,0.28908 2.89199,1.00859 3.5592,2.84714c1.23864,3.66662 2.76449,7.36508 4.19461,11.05286c1.18611,3.26862 2.67022,6.47239 3.85636,9.74102c1.92744,5.31142 3.76994,10.51547 5.80393,15.74068c2.77528,7.2682 5.34836,14.61173 8.02793,21.86925c0.37066,1.02139 0.56066,1.92475 0.34616,2.97896c-0.5046,2.78597 -0.99839,5.47508 -1.50299,8.26105c-0.08637,0.77444 -0.26849,1.5382 -0.54634,2.29129c-0.56647,1.60286 -0.67592,3.45287 -2.08234,4.76606c-1.55327,0.02291 -2.99998,-0.04059 -4.24445,-0.1794zM401.87219,306.50376c-2.50182,-5.37549 -4.70565,-10.81581 -6.9095,-16.25595c-1.76983,-4.11781 -3.33742,-8.31096 -5.00071,-12.51496c-2.1081,-5.42965 -4.13129,-10.75174 -6.25019,-16.08453c-1.22932,-2.8813 -2.55437,-5.7733 -3.78365,-8.65478c-1.59498,-0.47197 -8.23264,-0.91831 -11.06275,-0.74397c-0.22385,0.26908 -0.16053,0.5702 -0.00146,0.882c1.86556,4.12849 3.23088,8.39715 4.89419,12.60096c0.75212,1.94611 1.90876,3.74118 2.45862,5.7628c0.12668,0.60204 0.34908,1.21495 0.47573,1.8172c0.20081,0.80648 -0.15115,1.35513 -0.86446,1.6677c-0.51104,0.23705 -1.107,0.36654 -1.7771,0.2918c-5.22333,-0.09262 -10.44664,-0.18521 -15.64839,-0.47138c-6.45699,-0.32831 -12.82905,-0.54904 -19.16876,-1.06003c-4.31857,-0.38382 -8.57382,-0.46634 -12.91401,-0.65641c-4.91453,-0.25432 -9.82908,-0.50848 -14.73285,-0.85929c-5.47811,-0.41508 -10.86051,-0.81948 -16.34943,-1.13769c-3.26557,-0.26618 -6.64844,-0.34966 -9.92482,-0.51894c-4.32937,-0.28694 -8.57382,-0.46634 -12.90319,-0.75328c-6.4462,-0.425 -12.89241,-0.84997 -19.3386,-1.27516c-5.96757,-0.37159 -12.00924,-0.94744 -17.97683,-1.31902c-4.34018,-0.19006 -8.77609,-0.39081 -13.11625,-0.58108c-0.39372,0.05417 -0.77663,0.01147 -1.15955,-0.03125c-1.64897,0.01204 -2.6264,-0.78299 -3.53905,-2.1589c-3.51309,-4.99827 -6.60007,-10.34112 -9.91091,-15.41471c-2.15418,-3.27872 -2.15418,-3.27872 -5.93081,-3.30784c-4.06378,-0.06135 -8.12757,-0.1225 -12.20216,-0.08697c-0.38291,-0.04271 -0.77664,0.01146 -1.11782,0.46342c0.97598,1.67702 1.94117,3.45073 3.01286,5.13844c5.48519,9.04055 11.18342,17.90889 17.0947,26.60503c4.06441,6.13789 8.23534,12.18959 12.08672,18.49968c0.57293,0.94587 1.25237,1.80576 1.83608,2.65495c2.07363,0.52535 4.03139,0.35178 6.05249,0.47916c5.76531,0.44712 11.54139,0.79735 17.31751,1.1476c5.48892,0.31821 10.87131,0.72261 16.36023,1.04081c4.71229,0.32967 9.31807,0.74532 14.04116,0.97811c8.68035,0.38033 17.36069,0.76048 26.03024,1.23748c4.23365,0.27626 8.46729,0.55253 12.71173,0.73193c6.83991,0.37082 13.78637,0.65564 20.722,1.03734c3.94648,0.24404 7.78641,0.57448 11.74367,0.72183c9.35046,0.45487 18.6052,0.8991 27.92324,1.6446c6.62688,0.54303 13.1688,0.97889 19.80645,1.42521c2.69121,0.20211 5.39319,0.30754 8.28663,0.4343c-0.14683,-1.29049 -0.82625,-2.15035 -1.27105,-3.37618zM244.85337,264.87903c-1.62305,-2.82713 -3.16111,-5.54711 -4.79494,-8.27756c-0.50959,-0.64475 -1.00838,-1.38658 -0.50669,-2.40856c1.29849,-0.34537 2.62788,-0.09901 3.87235,0.03981c0.57437,0.06407 0.91408,0.49409 1.25381,0.92393c0.81691,1.36522 1.72955,2.74113 2.54647,4.10638c0.89105,1.56946 1.76049,3.33269 2.65153,4.90216c0.4988,0.74163 0.99756,1.48346 1.49636,2.2251c0.73343,0.37587 1.40352,0.45061 2.10603,0.2349c0.06479,-0.58089 -0.26413,-1.10759 -0.50813,-1.52675c-1.63382,-2.73045 -3.1827,-5.35355 -4.7208,-8.07332c-0.40307,-0.73096 -0.91265,-1.37589 -0.50668,-2.40875c1.30924,-0.44186 2.72358,-0.08815 4.06377,0.06134c0.6701,0.07474 0.90331,0.59078 1.24302,1.02082c0.91265,1.3759 1.82528,2.7518 2.62059,4.31061c1.12425,2.0855 2.23768,4.26789 3.56418,6.27806c0.59451,0.75231 1.24301,1.02081 2.14778,0.7296c0.34117,-0.45198 -0.00934,-0.78513 -0.16839,-1.09692c-1.52731,-2.81647 -3.13952,-5.74067 -4.66684,-8.55711c-0.40305,-0.73114 -0.90184,-1.47277 -0.68732,-2.527c1.43736,-0.72163 2.85171,-0.36792 4.36177,-0.00351c0.56357,0.16094 0.78598,0.77367 1.12569,1.2037c1.42222,2.02085 2.45074,4.09568 3.56418,6.27806c0.86947,1.76302 1.83462,3.53693 2.789,5.40752c2.21257,0.14872 4.34019,0.19007 6.45699,0.3283c0.43692,-0.44147 0.10799,-0.9682 -0.05108,-1.2798c-0.96516,-1.77391 -2.03687,-3.4616 -3.00207,-5.23531c-0.73197,-1.25787 -1.46397,-2.51553 -2.19592,-3.7734c-0.32893,-0.52672 -0.55135,-1.13943 -0.27349,-1.89252c1.33084,-0.63563 2.74519,-0.2819 4.17033,-0.02485c0.47865,0.05339 0.71183,0.56944 0.96662,0.8919c1.00838,1.38658 1.91023,2.85918 2.71633,4.32128c1.27251,2.49417 2.44927,4.97767 4.23283,7.23461c0.65929,0.17162 1.22286,0.33256 1.93616,0.01999c0.06477,-0.58068 -0.17921,-1.00005 -0.41241,-1.51608c-1.05012,-1.88126 -2.111,-3.66584 -3.17191,-5.45024c-0.65785,-1.05342 -1.30491,-2.20374 -1.86702,-3.24651c-0.24399,-0.41935 -0.40304,-0.73114 -0.45558,-1.12895c-0.07413,-0.20424 -0.04174,-0.49468 -0.00935,-0.78512c1.4374,-0.72183 2.93666,-0.26055 4.4683,-0.08968c1.47621,1.53684 2.53712,3.32124 3.49148,5.19201c1.27252,2.49399 2.54502,4.98816 4.23284,7.23461c1.89298,0.40713 6.04168,0.57604 7.71226,0.37024c0.23464,-0.36576 -0.02016,-0.68824 -0.17922,-1.00005c-1.21999,-2.09618 -2.52486,-4.29992 -3.74483,-6.3963c-0.48799,-0.83851 -0.97597,-1.67703 -1.45317,-2.61223c-0.32893,-0.52672 -0.4664,-1.03208 -0.19934,-1.68848c1.33084,-0.63563 2.74517,-0.28171 4.17031,-0.02484c0.47865,0.05339 0.71183,0.56943 0.96664,0.89191c0.92343,1.27921 1.74034,2.64444 2.54647,4.10638c0.96516,1.77391 1.84541,3.44024 2.8214,5.11708c0.23318,0.51623 0.65782,1.05362 0.98675,1.58035c0.57293,0.94587 1.44526,0.94529 2.46736,0.47119c-0.74132,-2.0428 -1.99369,-3.84873 -3.0438,-5.72999c-1.05012,-1.88126 -2.409,-3.60101 -2.93726,-5.81619c1.63964,-0.79716 3.05397,-0.44343 4.56402,-0.07883c0.37214,0.13939 0.70105,0.66612 0.95584,0.98857c0.92343,1.27921 1.74033,2.64444 2.54647,4.10637c0.88024,1.66635 1.77128,3.23581 2.65153,4.90216c0.32893,0.52672 0.65782,1.05363 0.98675,1.58035c0.4772,0.93518 1.23223,1.1175 2.13699,0.82628c0.34117,-0.45198 0.19291,-0.86045 -0.05108,-1.2798c-1.05012,-1.88126 -2.11104,-3.66565 -3.17191,-5.45024c-0.732,-1.25767 -1.47477,-2.41867 -2.11102,-3.66565c-0.41385,-0.63428 -0.41385,-0.63428 -0.16693,-1.97891c1.19192,-0.25899 2.41479,0.07338 3.67009,0.11531c0.6701,0.07474 1.10554,0.51546 1.43446,1.04217c1.00838,1.38658 1.91021,2.85936 2.71633,4.32128c1.27251,2.49417 2.54501,4.98837 4.31773,7.34237c2.46734,0.4712 5.09522,0.37218 7.60575,0.45624c0.18212,-0.76376 -0.15762,-1.1936 -0.39081,-1.70964c-1.05009,-1.88147 -2.11101,-3.66584 -3.1719,-5.45042c-0.65785,-1.05342 -1.3049,-2.20374 -1.86701,-3.24648c-0.2332,-0.51604 -0.55133,-1.13963 -0.27348,-1.89271c1.33083,-0.63544 2.74517,-0.28171 4.17031,-0.02484c0.47865,0.05339 0.71183,0.56943 0.96664,0.89191c1.00838,1.38658 1.921,2.76248 2.7163,4.32146c1.2833,2.3973 2.4493,4.97748 4.23284,7.23462c0.56357,0.16094 1.21207,0.42924 1.92535,0.11687c0.06479,-0.58089 -0.17921,-1.00004 -0.41239,-1.51628c-1.05012,-1.88126 -2.11102,-3.66565 -3.17191,-5.45025c-0.65785,-1.05342 -1.3049,-2.20373 -1.86701,-3.24647c-0.32893,-0.52672 -0.55133,-1.13963 -0.3692,-1.9034c1.43736,-0.72163 2.85171,-0.36791 4.36178,-0.00348c0.37211,0.13958 0.70104,0.6663 0.95583,0.98878c1.11491,1.30038 1.92101,2.76248 2.71633,4.32128c1.27251,2.49417 2.54501,4.98837 4.31776,7.34218c1.72312,0.1922 3.55274,0.2984 5.38239,0.40441c0.37357,-0.74241 0.04464,-1.26912 -0.28428,-1.79583c-1.06091,-1.78438 -2.13261,-3.47209 -3.09778,-5.246c-0.732,-1.25767 -1.47477,-2.41866 -2.11102,-3.66565c-0.23318,-0.51623 -0.55132,-1.13963 -0.08202,-1.87135c1.29845,-0.34518 2.71279,0.00855 4.05299,0.15804c0.57437,0.06407 0.9033,0.59078 1.14727,1.01013c0.91265,1.3759 1.72955,2.74112 2.53568,4.20306c1.46397,2.51553 2.62993,5.09592 4.40268,7.44974c0.55278,0.25763 1.13794,0.22501 1.72312,0.1922c0.11731,-0.18288 0.23464,-0.36577 0.24545,-0.46265c-0.03094,-0.59155 -0.37066,-1.02139 -0.60387,-1.53743c-1.63382,-2.73045 -3.18271,-5.35354 -4.7208,-8.07332c-0.40307,-0.73096 -0.91265,-1.3759 -0.50668,-2.40876c1.30924,-0.44186 2.72357,-0.08815 4.06378,0.06135c0.57437,0.06407 0.9033,0.59079 1.1473,1.00994c0.91265,1.3759 1.72953,2.74132 2.53566,4.20323c1.47477,2.41866 2.62995,5.09572 4.41348,7.35284c0.45703,0.24715 1.03141,0.31122 1.54245,0.07417c0.35199,-0.54885 0.12959,-1.16176 -0.19934,-1.68848c-0.97598,-1.67702 -1.95197,-3.35385 -2.92793,-5.03088c-0.74277,-1.16099 -1.37902,-2.40817 -2.12181,-3.56896c-0.41385,-0.63428 -0.63624,-1.24719 -0.34761,-2.09696c1.22434,-0.54963 2.63865,-0.19571 3.97887,-0.04621c0.6701,0.07474 0.9033,0.59079 1.24302,1.02061c1.00838,1.38658 1.92101,2.76248 2.71633,4.32128c1.28328,2.3975 2.54501,4.98837 4.32854,7.24549c1.351,0.05261 2.78693,0.21279 4.35096,0.09337c0.0972,-0.87133 -0.29507,-1.69915 -0.6024,-2.41942c-2.3737,-5.65525 -4.8539,-11.22448 -7.32333,-16.89041c-2.946,-0.52458 -5.87183,-0.36093 -8.7653,-0.4875c-3.18064,-0.15879 -6.46778,-0.23144 -9.65921,-0.29355c-5.59545,-0.23201 -11.20169,-0.36733 -16.79716,-0.59932c-3.56354,-0.20152 -7.22281,-0.41373 -10.79716,-0.51837c-5.88261,-0.26424 -11.68033,-0.42092 -17.56296,-0.68494c-3.57435,-0.10465 -7.04217,-0.2955 -10.60573,-0.49702c-2.98918,-0.13745 -5.98915,-0.17803 -8.97836,-0.3153c-3.28714,-0.0728 -6.65926,-0.25278 -9.93562,-0.42227c-3.94646,-0.24423 -7.80799,-0.38091 -11.76527,-0.52827c-6.37207,-0.22075 -12.74413,-0.44149 -19.1162,-0.66223c-5.5105,-0.12464 -10.91451,-0.33528 -16.41422,-0.55681c-3.86153,-0.13668 -7.71227,-0.37023 -11.57381,-0.50692c-1.25528,-0.04193 -2.49975,-0.18074 -3.78741,0.06757c-0.07558,0.67757 0.1576,1.19381 0.49734,1.62363c2.46299,3.11701 4.19108,6.74014 6.34527,10.01865c0.8385,1.17166 1.66623,2.44 2.39822,3.69769c0.49878,0.74183 1.02996,1.19302 1.92392,0.99868c0.78741,-0.10813 1.55324,-0.02273 2.23415,-0.04485c0.14972,-0.47333 0.00145,-0.8818 -0.15762,-1.1936c-1.06091,-1.78438 -2.13261,-3.47209 -3.09778,-5.24599c-0.732,-1.25767 -1.47477,-2.41866 -2.11102,-3.66565c-0.23318,-0.51623 -0.56211,-1.04295 -0.17777,-1.88204c1.29845,-0.34518 2.7236,-0.08832 4.14871,0.16872c0.47865,0.05339 0.72264,0.47255 0.96664,0.89191c0.82771,1.26835 1.75115,2.54757 2.47232,3.90211c1.35744,2.60154 2.71487,5.20328 4.56176,7.76133c0.64849,0.2685 1.52085,0.26772 2.40399,0.17025c0.16053,-0.5702 -0.09426,-0.89268 -0.25333,-1.20448c-1.23078,-1.99932 -2.45073,-4.09568 -3.6707,-6.19187c-0.65785,-1.05342 -1.30491,-2.20373 -1.86702,-3.2465c-0.32893,-0.52672 -0.31812,-0.62359 -0.17774,-1.88205c1.29845,-0.34518 2.7128,0.00855 4.05299,0.15804c0.57437,0.06407 0.9033,0.59079 1.14727,1.01014c0.91265,1.3759 1.82528,2.7518 2.53567,4.20304c1.10264,2.27926 2.51407,4.3968 3.81896,6.60054c0.48799,0.83851 1.12569,1.2037 2.09377,1.2138c1.06381,0.02059 2.21256,0.14871 3.27638,0.1693c0.1713,-0.6669 0.01225,-0.97868 0.39517,-0.93597zM367.89084,249.69075c0.98823,0.69835 2.15858,0.63272 3.13744,0.54594c2.43639,-0.12017 4.71229,0.32967 7.12709,0.40305c0.28719,0.03203 0.57436,0.06407 1.05301,0.11746c0.86593,-2.5497 1.35972,-5.23881 2.03419,-7.80986c0.68526,-2.66775 1.55116,-5.21745 2.34296,-7.97138c-1.23367,-0.23569 -2.18017,-0.43915 -3.13745,-0.54593c-4.02061,-0.44847 -8.08439,-0.50983 -12.14818,-0.57099c-0.77661,0.01126 -1.63816,-0.08484 -2.49972,-0.18095c-2.97839,-0.23415 -6.08488,-0.18872 -9.16982,-0.33666c-2.31907,-0.0627 -4.62735,-0.22211 -6.94643,-0.28481c-4.25524,-0.08271 -8.49968,-0.2621 -12.83987,-0.45218c-3.94646,-0.24423 -7.99946,-0.40226 -11.96752,-0.45276c-2.98918,-0.13745 -5.93516,-0.66205 -8.97833,-0.31549c-0.19145,-0.02136 -0.28718,-0.03203 -0.47865,-0.05339c-3.75501,-0.22287 -7.41428,-0.43508 -11.07358,-0.64709c-2.98918,-0.13745 -6.08487,-0.18871 -9.18059,-0.23997c-0.19145,-0.02136 -0.28718,-0.03203 -0.47865,-0.05339c-3.65927,-0.2122 -7.40348,-0.53195 -11.07355,-0.64728c-2.79772,-0.1161 -5.5105,-0.12464 -8.30825,-0.24056c-0.3937,0.05397 -0.68088,0.02194 -0.96807,-0.01009c-3.94646,-0.24423 -7.88214,-0.58516 -11.75448,-0.62496c-2.1384,0.05534 -4.22284,-0.37315 -6.39365,-0.02719c-0.20223,0.07533 -0.48942,0.04329 -0.68088,0.02194c-3.08493,-0.14794 -6.15901,-0.39295 -9.25472,-0.4442c-2.80852,-0.01922 -5.70197,-0.146 -8.49969,-0.2621c-4.04221,-0.25472 -8.106,-0.31607 -12.15898,-0.4741c-4.34018,-0.19006 -8.79767,-0.19725 -13.11627,-0.5809c-3.26556,-0.26637 -6.57431,-0.14542 -9.86148,-0.21802c-3.09571,-0.05124 -6.28715,-0.11319 -9.39365,-0.06776c-0.39372,0.05417 -0.78744,0.10833 -1.28768,0.24851c-0.57727,1.69974 -1.346,3.37812 -1.74263,5.19609c-0.38582,1.7211 -1.05881,3.41016 -1.44463,5.13124c-0.39663,1.81797 -1.16536,3.49635 -1.38131,5.43237c1.02062,0.40789 1.99949,0.32111 2.96759,0.33102c2.32985,-0.03398 4.7447,0.03923 7.08535,-0.09163c2.13842,-0.05553 4.35097,0.09319 6.46778,0.23142c0.6701,0.07474 1.36178,-0.04405 2.14924,-0.1524c0.4693,-0.73173 0.673,-1.68906 0.96164,-2.53884c0.45996,-1.51685 0.91991,-3.03371 1.46478,-4.443c0.39519,-0.93617 1.04514,-1.54966 2.10896,-1.52907c0.48943,-0.0433 0.89392,-0.19414 1.37257,-0.14075c1.91457,0.21356 3.85075,0.23337 5.78691,0.25337c3.7658,0.126 7.40348,0.53176 11.08435,0.5504c3.01078,-0.05629 5.96757,0.37159 8.97836,0.3153c2.23413,-0.04466 4.43588,0.20095 6.65925,0.25279c3.18064,0.15879 6.37207,0.22075 9.47857,0.17532c0.19145,0.02136 0.28718,0.03203 0.47865,0.05339c3.75501,0.22287 7.40349,0.53176 11.08438,0.55022c2.61704,-0.00195 5.18012,0.47991 7.8296,0.18735c0.38291,0.04271 0.6701,0.07474 0.95729,0.10677c3.53115,0.49197 7.12709,0.40305 10.60572,0.49702c2.99998,0.04058 6.12662,0.68339 9.16981,0.33666c0.3937,-0.05397 0.68088,-0.02195 0.96807,0.01009c3.56354,0.20152 7.1163,0.49974 10.60572,0.49702c2.61707,-0.00214 5.16934,0.57661 7.8296,0.18716c0.19145,0.02136 0.47864,0.05339 0.6701,0.07474c3.56354,0.20152 7.21204,0.5104 10.78637,0.61523c5.404,0.21065 10.72306,0.31393 16.12705,0.52458c2.98918,0.13745 5.87182,0.3611 8.77606,0.39101c2.91506,-0.06697 5.76529,0.44712 8.70194,0.18658c0.19145,0.02136 0.28718,0.03203 0.47865,0.05339c3.18064,0.15879 6.26554,0.30675 9.44618,0.46556c0.38291,0.04271 0.76583,0.08543 1.24447,0.13881c-0.14329,3.02225 -1.59438,5.60476 -1.80099,8.32589zM367.01642,244.49679c-1.92535,-0.11688 -3.94646,-0.24423 -5.87184,-0.36093c-3.09569,-0.05145 -6.1914,-0.1027 -9.27632,-0.25065c-5.30825,-0.20017 -10.60572,-0.49702 -15.91396,-0.69718c-5.11681,-0.17862 -10.13788,-0.34674 -15.25469,-0.52536c-2.79772,-0.1161 -5.69115,-0.24287 -8.48888,-0.35897c-5.98918,-0.17784 -11.97834,-0.35588 -17.95668,-0.63078c-2.98918,-0.13745 -5.97837,-0.27472 -8.96754,-0.41217c-5.21252,-0.18948 -10.42507,-0.37878 -15.63759,-0.56828c-2.70199,-0.10542 -5.40401,-0.21065 -8.10599,-0.31608c-5.89343,-0.16736 -11.69113,-0.32403 -17.57376,-0.58807c-5.11679,-0.17881 -10.31854,-0.46497 -15.43531,-0.64379c-5.11681,-0.17862 -10.32934,-0.36811 -15.44614,-0.54672c-0.19145,-0.02136 -0.3937,0.05399 -0.78741,0.10813c-0.62048,2.08706 -1.43239,4.15256 -1.883,6.45453c1.52085,0.26772 2.87185,0.32034 4.22286,0.37296c3.95724,0.14755 8.01025,0.30558 11.96751,0.45293c6.94644,0.28482 13.99941,0.48343 20.95666,0.67137c6.08487,0.18871 12.15898,0.47429 18.24384,0.66301c6.94644,0.28482 13.79714,0.55895 20.7436,0.84357c3.28714,0.0728 6.65926,0.25278 9.93562,0.42227c5.40397,0.21084 10.71225,0.41082 16.11622,0.62166c3.18065,0.15861 6.26554,0.30675 9.44618,0.46556c4.14871,0.16872 8.39317,0.34811 12.63762,0.52751c6.94644,0.28482 13.79715,0.55896 20.7436,0.84377c2.79772,0.1161 5.4997,0.22151 8.29744,0.33742c0.68088,-0.02194 1.37257,-0.14076 2.14922,-0.15221c-0.11299,-2.46272 0.96456,-4.30283 1.13877,-6.73352zM404.81964,306.14653c0.70686,-2.8615 1.4137,-5.72281 2.12056,-8.5843c0.48155,-1.71041 0.07993,-3.32337 -0.40661,-5.0437c-1.54453,-5.26871 -3.79155,-10.3219 -5.53835,-15.51509c-0.95292,-2.75258 -2.1081,-5.42965 -3.25247,-8.20358c-2.89262,-7.08512 -5.58298,-14.24596 -8.16685,-21.49261c-1.11197,-3.06437 -2.3305,-6.04257 -3.4425,-9.10675c-0.16984,-0.21511 -0.32892,-0.52672 -0.5729,-0.94607c-0.45849,0.63485 -0.70394,1.0975 -0.86445,1.66769c-0.84576,3.23794 -1.5109,6.59413 -2.63304,9.70317c-0.71621,2.07639 -0.32538,3.78601 0.54404,5.54924c4.08166,8.58994 7.16282,17.46042 10.63771,26.27674c3.31582,8.50452 6.64244,16.91235 10.45851,25.27669c0.15905,0.31179 0.41385,0.63428 0.64705,1.1503c0.31959,-0.25841 0.42612,-0.3446 0.4693,-0.73173z" data-paper-data="{&quot;index&quot;:null}" fill="#000000"/><path d="M394.835,309.63919c-6.63766,-0.44633 -13.17959,-0.882 -19.80645,-1.4252c-9.31806,-0.74532 -18.57278,-1.18973 -27.92324,-1.6446c-3.94646,-0.24423 -7.7972,-0.4776 -11.74367,-0.72185c-6.83991,-0.37101 -13.78634,-0.65582 -20.722,-1.03734c-4.23365,-0.27626 -8.46729,-0.55253 -12.71173,-0.73193c-8.68036,-0.38014 -17.36072,-0.76028 -26.03028,-1.2373c-4.71229,-0.32967 -9.32885,-0.64864 -14.04113,-0.9783c-5.48892,-0.31821 -10.87132,-0.72243 -16.36023,-1.04081c-5.77611,-0.35025 -11.55221,-0.70049 -17.31751,-1.1476c-2.0211,-0.12735 -4.07459,0.03553 -6.05252,-0.47896c-0.58371,-0.84919 -1.26315,-1.70906 -1.83606,-2.65513c-3.85136,-6.3101 -7.92657,-12.35111 -12.08672,-18.49968c-5.91129,-8.69614 -11.59874,-17.66117 -17.09471,-26.60504c-1.0717,-1.6877 -2.03689,-3.46141 -3.01286,-5.13844c0.34117,-0.45198 0.7349,-0.50613 1.11782,-0.46342c4.06378,0.06135 8.13836,0.02583 12.20216,0.08697c3.77659,0.0293 3.7766,0.02931 5.9308,3.30784c3.40656,5.08446 6.39784,10.41645 9.91091,15.41471c1.00838,1.38658 1.89007,2.17093 3.53905,2.1589c0.3937,-0.05397 0.77661,-0.01126 1.15952,0.03145c4.34018,0.19006 8.78689,0.29394 13.11627,0.5809c5.96757,0.37159 12.00924,0.94763 17.9768,1.31923c6.4462,0.425 12.89242,0.84996 19.33862,1.27496c4.32937,0.28694 8.56301,0.56321 12.90319,0.75328c3.27635,0.16949 6.64846,0.34947 9.92482,0.51895c5.47811,0.41508 10.86051,0.81948 16.34943,1.13769c4.90374,0.35102 9.8183,0.60515 14.73285,0.85929c4.32937,0.28694 8.59542,0.27277 12.91401,0.65641c6.4354,0.52187 12.80746,0.7426 19.16876,1.06003c5.21252,0.18948 10.43585,0.2821 15.64839,0.47138c0.58518,-0.03281 1.17034,-0.06543 1.7771,-0.2918c0.71329,-0.31237 1.06526,-0.86123 0.86446,-1.66771c-0.12666,-0.60223 -0.34905,-1.21514 -0.47573,-1.8172c-0.54986,-2.02162 -1.70652,-3.81669 -2.45862,-5.7628c-1.6633,-4.20382 -3.02864,-8.47249 -4.89419,-12.60096c-0.15905,-0.31179 -0.22239,-0.61291 0.00145,-0.8818c2.83014,-0.17453 9.46777,0.27199 11.06278,0.74377c1.2401,2.78463 2.56516,5.67661 3.78365,8.65478c2.11888,5.33297 4.13129,10.75174 6.25019,16.08453c1.66329,4.204 3.33742,8.31096 5.00071,12.51496c2.20382,5.44032 4.40767,10.88046 6.9095,16.25595c0.47718,0.9354 1.14582,1.89214 1.29263,3.18262c-2.89344,-0.12677 -5.59544,-0.23221 -8.30823,-0.24075zM329.46989,291.76309c-1.7173,-3.71981 -3.54112,-7.35362 -4.94966,-11.23497c-0.2224,-0.61292 -0.5405,-1.23651 -0.65639,-1.93542c-0.19002,-0.90316 -0.732,-1.25766 -1.59356,-1.35377c-1.14874,-0.12814 -2.39321,-0.26695 -3.64846,-0.30908c-0.57437,-0.06407 -1.25528,-0.04193 -1.82965,-0.10601c-7.02058,-0.48906 -14.11526,-1.18254 -21.14665,-1.57472c-5.38239,-0.40441 -10.66904,-0.79813 -16.10544,-0.71834c-3.68085,-0.01864 -7.35096,-0.13396 -11.02103,-0.24929c-0.77661,0.01126 -1.63817,-0.08483 -2.26655,0.33529c-0.54343,0.5273 -0.31022,1.04334 -0.16197,1.452c0.44334,2.10763 1.58918,3.99957 2.43702,5.95636c1.30347,3.08554 2.70262,6.18196 4.19753,9.28886c1.2401,2.78463 2.67166,5.59059 4.22056,8.21349c0.54197,0.3545 1.22289,0.33237 1.79725,0.39644c4.90374,0.35102 9.79672,0.79872 14.70046,1.14973c5.28666,0.39374 10.66905,0.79814 16.05143,1.20253c4.13793,0.2654 8.27585,0.53099 12.41376,0.79659c2.79772,0.1161 5.47812,0.41506 8.26504,0.62785c0.87237,-0.00078 1.64897,-0.01204 2.52134,-0.01282c0.47865,0.05339 0.80901,-0.3017 1.161,-0.85055c-1.43012,-3.68778 -2.74288,-7.55864 -4.38606,-11.07422zM211.46282,262.72265c-2.48314,-3.80525 -4.44442,-7.94441 -6.7145,-11.92186c-0.63624,-1.24719 -1.4654,-1.63373 -2.73149,-1.57878c-1.0746,0.07611 -2.12762,-0.04135 -3.19141,-0.06212c-0.9681,-0.00991 -1.84046,-0.00913 -2.57531,0.49681c-0.26706,0.6564 0.06187,1.18312 0.30587,1.60227c2.3766,3.89144 4.75318,7.78288 7.12979,11.67431c0.81691,1.36522 1.89008,2.17092 3.54986,2.06202c1.37257,-0.14076 2.80849,0.01941 4.1595,0.07203c0.28719,0.03203 0.58518,-0.03281 0.92635,-0.48478c-0.02015,-0.68824 -0.434,-1.32252 -0.85864,-1.85991zM248.63704,273.53381c-1.78791,0.38869 -2.63078,1.86283 -2.25076,3.66933c0.72908,3.02148 5.58818,4.64161 7.93176,2.74695c1.81097,-1.46424 1.63465,-4.22809 -0.35259,-5.52789c-0.81835,-0.48342 -1.73245,-0.97731 -2.79627,-0.99792c-0.75502,-0.1823 -1.63816,-0.08484 -2.53213,0.1095zM252.33431,282.96304c-1.20274,0.35587 -1.88507,1.2598 -2.02545,2.51825c-0.14037,1.25844 0.65492,2.81742 1.76049,3.3327c1.5734,0.66553 3.16839,1.13749 4.87135,0.64146c0.20227,-0.07553 0.50024,-0.14037 0.80903,-0.3019c1.86348,-1.06625 2.18598,-3.08845 0.72056,-4.72199c-0.77516,-0.87054 -2.24203,-1.62227 -3.67795,-1.78244c-0.85079,-0.19279 -1.65978,0.10891 -2.45801,0.31394zM219.36195,278.79514c1.54246,0.07398 2.97984,-0.64766 3.39661,-1.77739c0.56647,-1.60286 -0.08991,-3.53829 -1.64174,-4.39739c-1.541,-0.95597 -3.18997,-0.94393 -4.70148,-0.42653c-2.32054,0.8193 -2.79275,3.31483 -1.14667,5.06659c0.78599,0.77367 1.98725,1.29979 3.51891,1.47065c0.19145,0.02136 0.3829,0.04271 0.57437,0.06407zM231.79526,274.20341c-0.95875,0.77522 -1.14087,1.53899 -0.68526,2.66775c1.05943,2.66657 4.98285,3.98618 7.37897,2.48931c1.55472,-0.90471 1.82322,-2.44293 0.82562,-3.9262c-0.91265,-1.3759 -2.18804,-2.10626 -3.83704,-2.09424c-1.41435,-0.35374 -2.62788,0.09902 -3.68233,0.86336zM232.09513,292.3684c-1.27397,-1.61218 -3.92196,-2.2016 -5.84881,-1.43629c-1.83109,0.77581 -2.2493,2.78734 -1.07106,4.38884c1.0825,1.59082 4.86844,2.40526 6.30584,1.68344c0.91556,-0.38791 1.38483,-1.11963 1.52523,-2.37808c0.08637,-0.77444 -0.41241,-1.51608 -0.91118,-2.2579zM219.8996,281.79525c-1.12861,0.56031 -1.6519,1.77603 -1.19631,2.90499c1.35599,3.48354 5.82284,4.27565 7.98577,2.26277c1.07606,-0.95811 1.07897,-2.72191 0.12312,-3.71049c-0.87089,-0.88122 -2.70987,-1.77255 -4.33726,-1.95407c-0.6701,-0.07474 -1.6382,-0.08464 -2.57532,0.49682zM255.87106,292.96248c-1.25672,0.83988 -1.5144,2.2812 -0.78243,3.53887c0.32893,0.52672 0.75355,1.0643 1.30634,1.32193c1.19049,0.62281 2.50909,0.96587 3.96661,0.93248c0.58518,-0.03281 1.19195,-0.25918 1.71377,-0.59292c1.99162,-1.346 1.91103,-4.09918 -0.30007,-5.12989c-0.91408,-0.49409 -1.87137,-0.60088 -2.90279,-0.9119c-0.97887,0.08679 -2.06429,0.25977 -3.00144,0.84141zM240.09602,291.88886c-1.16099,0.85054 -1.47123,1.89408 -0.84576,3.23794c0.15905,0.31179 0.40307,0.73096 0.66867,0.95655c1.32793,1.12837 2.90133,1.79389 4.66764,1.59879c0.69169,-0.11882 1.20273,-0.35587 1.72454,-0.6896c1.37406,-1.02294 1.69508,-2.16315 0.79325,-3.63594c-0.81691,-1.36522 -1.99658,-2.08492 -3.44331,-2.14822c-1.32939,-0.24637 -2.40402,-0.17008 -3.565,0.68049zM242.00561,288.67148c1.61803,-0.60359 2.09958,-2.31401 1.19774,-3.7868c-1.23078,-1.99932 -4.02704,-2.99742 -6.24107,-2.26412c-2.10746,0.64689 -2.72795,2.73396 -1.36907,4.45368c1.01918,1.28971 2.20966,1.91253 3.75209,1.9867c0.95728,0.10678 1.84047,0.00913 2.66027,-0.38945zM334.93949,284.43451c2.39321,0.26695 4.69069,0.52323 7.1055,0.59661c0.87237,-0.00078 1.61657,0.2784 2.51054,0.08406c0.69171,-0.11903 1.10699,-0.36655 1.27833,-1.03363c-0.40307,-0.73096 -1.1689,-0.81637 -1.839,-0.89112c-2.96759,-0.33102 -5.85024,-0.55449 -8.75448,-0.58457c-0.77663,0.01146 -1.55327,0.02291 -2.03336,0.85132c0.29654,0.81715 0.95583,0.98878 1.73245,0.97732zM363.72927,289.60595c-2.96759,-0.33102 -5.85024,-0.55449 -8.75451,-0.58437c-0.77663,0.01146 -1.55324,0.02273 -2.03335,0.85132c0.29654,0.81715 0.95584,0.98859 1.62595,1.06332c2.39321,0.26695 4.69069,0.52324 7.1055,0.59661c0.87237,-0.00078 1.61657,0.2784 2.51054,0.08406c0.69169,-0.11882 1.10699,-0.36654 1.27832,-1.03363c-0.40307,-0.73096 -1.06235,-0.90259 -1.73245,-0.97732zM384.63254,296.83806c-3.10651,0.04562 -6.14823,-0.48964 -9.18059,-0.23997c-0.58518,0.03281 -1.07463,0.0763 -1.33084,0.63563c-0.05398,0.484 0.31813,0.62358 0.67944,0.85986c0.54197,0.3545 1.22289,0.33237 1.79725,0.39644c2.60625,0.09474 5.30825,0.20017 7.99944,0.40227c0.57437,0.06407 1.17034,-0.06543 1.7771,-0.2918c0.4045,-0.15086 0.54343,-0.5273 0.5017,-1.02218c-0.72264,-0.47255 -1.45609,-0.84841 -2.2435,-0.74027zM361.50384,284.35938c-3.01076,0.0561 -5.95676,-0.46848 -8.98915,-0.21861c-0.58518,0.03281 -1.15955,-0.03125 -1.43738,0.72164c0.03094,0.59155 0.59451,0.7525 0.96664,0.89191c0.75502,0.1823 1.51006,0.3646 2.28668,0.35314c2.13842,-0.05553 4.34018,0.19006 6.45699,0.32831c0.87237,-0.00078 1.73393,0.09533 2.54295,-0.20656c0.4045,-0.15086 0.7241,-0.40925 0.70394,-1.09751c-0.72264,-0.47255 -1.45609,-0.84841 -2.53069,-0.77232zM337.40102,288.43349c-0.3937,0.05397 -0.88314,0.09747 -1.29845,0.34518c-0.30877,0.16153 -0.43691,0.44129 -0.37357,0.74241c0.07413,0.20424 0.2332,0.51605 0.42466,0.5374c0.37214,0.13939 0.83996,0.28967 1.32942,0.24617c2.42559,-0.0233 4.73388,0.13609 7.13789,0.30616c1.06381,0.02077 2.13842,-0.05553 3.1497,-0.43276c0.29798,-0.06465 0.52183,-0.33373 0.55422,-0.62417c0.03239,-0.29043 -0.22239,-0.61292 -0.50958,-0.64495c-0.57437,-0.06407 -1.04223,-0.21414 -1.71233,-0.28889c-2.79772,-0.1161 -5.70197,-0.146 -8.70194,-0.18658zM386.44266,302.33255c-1.24447,-0.13881 -2.39322,-0.26696 -3.64848,-0.30907c-1.6382,-0.08465 -3.3721,-0.17998 -5.02107,-0.16794c-0.68088,0.02194 -1.26605,0.05475 -1.86203,0.18424c-0.29799,0.06485 -0.60678,0.22637 -0.64997,0.6137c-0.04319,0.38713 0.2224,0.61273 0.4988,0.74164c0.37211,0.13958 0.74424,0.279 1.12716,0.32169c3.16982,0.25569 6.44619,0.42499 9.62684,0.58379c0.57437,0.06407 1.17033,-0.06542 1.63964,-0.79715c-0.29654,-0.81715 -1.05154,-0.99946 -1.71087,-1.1709zM366.98465,296.04574c-1.24447,-0.13881 -2.39322,-0.26696 -3.64848,-0.30907c-1.73392,-0.09533 -3.47862,-0.09397 -5.22334,-0.09243c-0.58516,0.03262 -1.18112,0.16212 -1.77711,0.29181c-0.10651,0.08601 -0.33037,0.35509 -0.35195,0.54866c-0.01081,0.09688 0.14825,0.40867 0.32892,0.52672c0.44625,0.34383 0.92488,0.39722 1.49925,0.46129c1.24447,0.13881 2.58467,0.2883 3.83994,0.33044c1.6274,0.18152 3.18064,0.15861 4.81882,0.24346c0.87237,-0.00078 1.74471,-0.00136 2.41627,-0.80861c-0.37066,-1.02139 -1.04075,-1.09615 -1.90232,-1.19224zM380.46097,284.70983c-1.24447,-0.13881 -2.39321,-0.26695 -3.64846,-0.30908c-1.74472,0.00157 -3.47862,-0.09396 -5.22335,-0.09242c-0.48943,0.0433 -1.08538,0.17279 -1.57485,0.21627c-0.29799,0.06485 -0.60678,0.22637 -0.64994,0.61349c-0.04322,0.38733 0.22239,0.61292 0.49877,0.74183c0.46786,0.15008 1.03141,0.31102 1.51007,0.36442c1.6274,0.18152 3.3613,0.27686 5.01028,0.26482c1.26607,-0.05475 2.40402,0.17007 3.65927,0.2122c0.95728,0.10678 0.9681,0.00991 2.214,-0.73308c-0.38145,-0.9247 -1.05155,-0.99946 -1.79579,-1.27844zM372.77882,291.88969c1.53166,0.17083 3.06331,0.34169 4.60576,0.41567c1.43594,0.16017 2.98918,0.13745 4.53164,0.21143c1.06381,0.02059 1.06382,0.02058 2.29894,-0.62573c0.1605,-0.57001 -0.20082,-0.80629 -0.66866,-0.95654c-0.56357,-0.16094 -1.13794,-0.22501 -1.61658,-0.27841c-2.702,-0.10524 -5.49973,-0.22133 -8.20171,-0.32674c-0.76583,-0.08543 -1.54246,-0.07398 -2.28814,0.52885c0.08347,0.98935 0.74278,1.161 1.33874,1.0315zM341.92164,301.77689c2.79774,0.11591 5.69118,0.24268 8.48891,0.35878c0.77663,-0.01146 1.56405,-0.1196 2.27734,-0.43197c0.40452,-0.15105 0.54343,-0.52749 0.4909,-0.92549c-0.43546,-0.44051 -1.00982,-0.50459 -1.48847,-0.55796c-2.98918,-0.13745 -5.97834,-0.27491 -8.97834,-0.31549c-0.58518,0.03281 -1.08541,0.17297 -1.58564,0.31315c-0.59599,0.1297 -0.64997,0.61369 -0.5125,1.11905c0.33974,0.42983 0.80756,0.58011 1.3078,0.43994zM359.75019,302.68744c2.59548,0.19143 5.19093,0.38305 7.78641,0.57448c0.86155,0.09609 1.54245,0.07397 2.26654,-0.33528c0.30877,-0.16153 0.53264,-0.43062 0.37358,-0.74242c-0.07413,-0.20424 -0.2332,-0.51604 -0.42466,-0.5374c-0.37214,-0.13939 -0.83996,-0.28967 -1.31861,-0.34305c-2.59548,-0.19143 -5.18016,-0.47974 -7.77559,-0.67136c-0.76583,-0.08543 -1.55325,0.02271 -2.25575,0.23841c-0.29799,0.06485 -0.52184,0.33393 -0.67157,0.80726c0.6053,0.65562 1.26463,0.82705 2.01964,1.00936zM339.94167,296.06747c2.62788,-0.09901 5.28666,0.39373 7.97786,0.59583c0.77663,-0.01146 1.54245,0.07396 2.1816,-0.44265c0.10654,-0.0862 0.23467,-0.36596 0.25625,-0.55953c0.02159,-0.19357 -0.14828,-0.40849 -0.32893,-0.52672c-0.46784,-0.15028 -0.83996,-0.28967 -1.31861,-0.34305c-2.69117,-0.20229 -5.27585,-0.4906 -7.96707,-0.6927c-0.9681,-0.00991 -2.03188,-0.03067 -2.9165,0.94879c0.67944,0.85986 1.32795,1.12817 2.11537,1.02004z" data-paper-data="{&quot;index&quot;:null}" fill="#216aff"/><path d="M240.55492,265.18364c-0.9681,-0.00991 -1.6058,-0.37509 -2.09378,-1.2136c-1.31569,-2.10686 -2.62059,-4.31061 -3.81896,-6.60054c-0.8061,-1.46209 -1.62302,-2.82734 -2.53567,-4.20323c-0.244,-0.41916 -0.57293,-0.94587 -1.1473,-1.00994c-1.32939,-0.24637 -2.65882,-0.49254 -4.05299,-0.15804c-0.05542,1.36581 -0.15116,1.35514 0.17777,1.88185c0.64703,1.15031 1.20917,2.19305 1.86701,3.24647c1.23075,1.99949 2.45071,4.09588 3.6707,6.19207c0.25479,0.32248 0.50958,0.64495 0.25335,1.20428c-0.88317,0.09766 -1.75552,0.09825 -2.40402,-0.17007c-1.85768,-2.46137 -3.10859,-5.14911 -4.56174,-7.76153c-0.72119,-1.35456 -1.64463,-2.63357 -2.47232,-3.90211c-0.244,-0.41916 -0.48799,-0.83851 -0.96664,-0.89191c-1.42515,-0.25684 -2.85026,-0.51391 -4.14871,-0.16873c-0.37357,0.74241 -0.15118,1.35532 0.17775,1.88205c0.732,1.25767 1.36823,2.50485 2.111,3.66585c1.06091,1.78438 2.03689,3.46141 3.09778,5.24599c0.25481,0.32228 0.30733,0.72029 0.15763,1.1936c-0.77663,0.01146 -1.54246,-0.07398 -2.23415,0.04484c-0.98968,0.18366 -1.52085,-0.26773 -1.92392,-0.99868c-0.82769,-1.26855 -1.5705,-2.42933 -2.39819,-3.69787c-2.04768,-3.36473 -3.8823,-6.90165 -6.3453,-10.01847c-0.33971,-0.43003 -0.57289,-0.94607 -0.49733,-1.62363c1.19195,-0.25918 2.53215,-0.1097 3.78741,-0.06757c3.86153,0.13668 7.71229,0.37005 11.57381,0.50692c5.49973,0.22133 10.91451,0.33528 16.41422,0.55681c6.37207,0.22075 12.74417,0.4413 19.11623,0.66205c3.95727,0.14737 7.80799,0.38091 11.76527,0.52827c3.28714,0.0728 6.65925,0.25279 9.93561,0.42227c2.98918,0.13745 5.98914,0.17803 8.97833,0.31549c3.57435,0.10465 7.04217,0.2955 10.60574,0.49683c5.88261,0.26424 11.68032,0.42091 17.56295,0.68495c3.56354,0.20152 7.22281,0.41372 10.79716,0.51837c5.59544,0.2322 11.20168,0.36732 16.79713,0.59953c3.19144,0.06193 6.47861,0.13454 9.65923,0.29336c2.88267,0.22346 5.8193,-0.03688 8.76527,0.4877c2.46942,5.66593 4.94965,11.23497 7.32335,16.89022c0.30732,0.72047 0.71037,1.45143 0.6024,2.41942c-1.57487,0.21646 -2.99998,-0.04058 -4.35097,-0.09319c-1.78354,-2.25712 -3.05605,-4.75132 -4.32854,-7.24549c-0.8061,-1.46209 -1.70797,-2.93469 -2.71633,-4.32128c-0.33971,-0.43003 -0.66863,-0.95674 -1.24301,-1.02081c-1.3402,-0.14949 -2.6588,-0.49254 -3.97887,0.04621c-0.28866,0.84997 0.02949,1.47336 0.3476,2.09695c0.74277,1.16099 1.37904,2.40798 2.12181,3.56896c0.97598,1.67702 1.95194,3.35404 2.92791,5.03108c0.2332,0.51604 0.56213,1.04274 0.19937,1.68828c-0.51104,0.23705 -1.08541,0.17298 -1.54246,-0.07397c-1.78354,-2.25712 -3.04524,-4.84799 -4.41348,-7.35284c-0.8061,-1.46209 -1.62302,-2.82733 -2.53566,-4.20322c-0.244,-0.41916 -0.5729,-0.94607 -1.14727,-1.01014c-1.3402,-0.14949 -2.66961,-0.39566 -4.06379,-0.06115c-0.39518,0.93597 0.10363,1.67761 0.50668,2.40876c1.63382,2.73045 3.17191,5.45025 4.72083,8.07313c0.32893,0.52672 0.57289,0.94607 0.60384,1.53762c-0.01079,0.09668 -0.1281,0.27957 -0.24545,0.46265c-0.58516,0.03262 -1.17034,0.06543 -1.72312,-0.1922c-1.77274,-2.354 -3.03445,-4.94487 -4.40268,-7.44973c-0.8061,-1.46209 -1.62302,-2.82734 -2.53567,-4.20323c-0.244,-0.41916 -0.57293,-0.94587 -1.1473,-1.00994c-1.42512,-0.25704 -2.7545,-0.50342 -4.05296,-0.15822c-0.4693,0.73173 -0.24691,1.34464 0.08203,1.87136c0.73197,1.25787 1.36823,2.50485 2.111,3.66585c1.06091,1.78438 2.13261,3.47209 3.09777,5.24599c0.2332,0.51604 0.65786,1.05343 0.28429,1.79584c-1.81884,-0.20288 -3.64847,-0.30907 -5.38239,-0.40441c-1.77274,-2.354 -3.04525,-4.84799 -4.31776,-7.34218c-0.8061,-1.46209 -1.70794,-2.93488 -2.71631,-4.32146c-0.244,-0.41916 -0.57293,-0.94587 -0.95584,-0.98857c-1.41435,-0.35374 -2.92438,-0.71832 -4.36177,0.0035c-0.18212,0.76376 0.04027,1.37668 0.36919,1.90339c0.64707,1.15011 1.20918,2.19306 1.86702,3.2465c1.05012,1.88126 2.11102,3.66565 3.17191,5.45023c0.244,0.41916 0.47718,0.9354 0.41241,1.51608c-0.71331,0.31258 -1.36178,0.04406 -1.92538,-0.11668c-1.68782,-2.24644 -2.96031,-4.74063 -4.2328,-7.2348c-0.80612,-1.46191 -1.70798,-2.93471 -2.71633,-4.32128c-0.25479,-0.32248 -0.48799,-0.83851 -0.96664,-0.89191c-1.32939,-0.24637 -2.83945,-0.61078 -4.17031,0.02484c-0.27785,0.75308 -0.05545,1.366 0.27348,1.89271c0.64703,1.15031 1.20918,2.19307 1.86702,3.24651c1.05012,1.88126 2.111,3.66585 3.17191,5.45024c0.24399,0.41935 0.47719,0.93539 0.39079,1.70983c-2.60625,-0.09474 -5.13839,0.01477 -7.60574,-0.45644c-1.77274,-2.354 -3.04525,-4.84798 -4.31776,-7.34218c-0.8061,-1.46209 -1.70794,-2.93488 -2.7163,-4.32147c-0.32893,-0.52672 -0.76438,-0.96723 -1.43449,-1.04197c-1.24447,-0.13881 -2.47814,-0.37451 -3.67009,-0.11531c-0.14037,1.25844 -0.2361,1.24776 0.16697,1.97872c0.73197,1.25787 1.37904,2.40798 2.111,3.66585c1.06091,1.78438 2.11104,3.66565 3.17191,5.45024c0.244,0.41916 0.48799,0.83851 0.05108,1.2798c-0.89396,0.19434 -1.64896,0.01204 -2.13695,-0.82647c-0.32893,-0.52672 -0.65785,-1.05342 -0.98678,-1.58015c-0.88024,-1.66635 -1.77128,-3.23581 -2.65153,-4.90216c-0.72119,-1.35456 -1.5273,-2.81665 -2.54647,-4.10638c-0.24399,-0.41935 -0.5729,-0.94606 -0.95583,-0.98878c-1.41435,-0.35374 -2.9244,-0.71814 -4.56403,0.07901c0.52826,2.2152 1.88716,3.93474 2.93726,5.81619c1.06091,1.78438 2.21754,3.57964 3.04379,5.72999c-1.02206,0.47392 -1.79869,0.48537 -2.46732,-0.47138c-0.32893,-0.52672 -0.65785,-1.05342 -0.98678,-1.58015c-0.97598,-1.67702 -1.94117,-3.45073 -2.82141,-5.11709c-0.71037,-1.45143 -1.5273,-2.81665 -2.54646,-4.10636c-0.25479,-0.32248 -0.48799,-0.83851 -0.96664,-0.89191c-1.32939,-0.24637 -2.85023,-0.5141 -4.17031,0.02484c-0.26703,0.65621 -0.03384,1.17225 0.19936,1.68828c0.48799,0.83851 0.96516,1.77391 1.45315,2.61241c1.21999,2.09618 2.52487,4.29992 3.74485,6.39611c0.25479,0.32248 0.41385,0.63428 0.17918,1.00024c-1.68138,0.30247 -5.81929,0.03688 -7.71227,-0.37023c-1.68782,-2.24644 -2.96031,-4.74063 -4.2328,-7.2348c-1.06091,-1.78438 -2.01528,-3.65516 -3.49151,-5.19183c-1.43594,-0.16017 -2.93518,-0.62144 -4.46828,0.08951c0.06333,0.30112 -0.0648,0.58088 0.00934,0.78513c0.14825,0.40867 0.29654,0.81715 0.45559,1.12895c0.64703,1.15031 1.20917,2.19305 1.86701,3.24647c1.05012,1.88126 2.111,3.66585 3.1719,5.45042c0.244,0.41916 0.4772,0.93518 0.41241,1.51608c-0.71329,0.31237 -1.28766,0.24831 -1.93616,-0.01999c-1.68782,-2.24644 -2.96031,-4.74064 -4.23281,-7.23482c-0.80612,-1.46191 -1.70797,-2.93469 -2.71633,-4.32128c-0.25479,-0.32248 -0.48799,-0.83851 -0.96664,-0.89191c-1.32939,-0.24637 -2.83945,-0.61077 -4.17033,0.02485c-0.27785,0.75308 -0.05545,1.366 0.27348,1.89271c0.732,1.25767 1.46396,2.51552 2.19595,3.7732c0.96516,1.77391 2.03687,3.4616 3.00206,5.23532c0.15905,0.31179 0.4988,0.74162 0.05108,1.27979c-2.11682,-0.13804 -4.24445,-0.17939 -6.45702,-0.3281c-0.95437,-1.87078 -1.91954,-3.64448 -2.78898,-5.4077c-1.01772,-2.1717 -2.13115,-4.35409 -3.56418,-6.27806c-0.33974,-0.42983 -0.56211,-1.04275 -1.12571,-1.2035c-1.41431,-0.35393 -2.92438,-0.71832 -4.36177,0.00351c-0.21448,1.05401 0.28428,1.79583 0.68734,2.52679c1.5273,2.81665 3.13952,5.74068 4.66682,8.55732c0.15905,0.31179 0.41388,0.63408 0.16841,1.09691c-0.90474,0.29101 -1.56402,0.11941 -2.14774,-0.72979c-1.32652,-2.00997 -2.43996,-4.19237 -3.56417,-6.27805c-0.7104,-1.45123 -1.61223,-2.92402 -2.62059,-4.31061c-0.33974,-0.42983 -0.66866,-0.95654 -1.24302,-1.02061c-1.3402,-0.14949 -2.6696,-0.39587 -4.06378,-0.06135c-0.39518,0.93597 0.10363,1.67761 0.50668,2.40876c1.63382,2.73045 3.17191,5.45023 4.72083,8.07313c0.32893,0.52672 0.5729,0.94607 0.5081,1.52695c-0.70249,0.2157 -1.36179,0.04407 -2.10604,-0.23491c-0.50958,-0.64495 -1.00836,-1.38659 -1.49635,-2.22509c-0.88024,-1.66635 -1.76049,-3.33269 -2.65153,-4.90216c-0.81691,-1.36522 -1.63382,-2.73045 -2.54646,-4.10636c-0.23318,-0.51623 -0.67944,-0.85986 -1.25383,-0.92394c-1.35099,-0.05281 -2.57386,-0.38519 -3.87232,-0.04c-0.49089,0.92528 0.1036,1.6778 0.50668,2.40876c1.62302,2.82733 3.16111,5.54711 4.79494,8.27756c0.244,0.41916 0.40307,0.73095 0.23176,1.39784c-1.06381,-0.02059 -2.12764,-0.04116 -3.90329,-0.63136z" data-paper-data="{&quot;index&quot;:null}" fill="#ffffff"/><path d="M368.81946,241.36562c-3.18064,-0.15879 -6.26552,-0.30694 -9.44617,-0.46576c-0.19145,-0.02136 -0.28718,-0.03203 -0.47865,-0.05339c-2.84092,0.27122 -5.79772,-0.15648 -8.70194,-0.18658c-2.90425,-0.0299 -5.88265,-0.26404 -8.7761,-0.39081c-5.404,-0.21065 -10.72306,-0.31393 -16.12703,-0.52478c-3.56354,-0.20152 -7.22284,-0.41354 -10.78639,-0.61505c-0.19145,-0.02136 -0.46784,-0.15027 -0.6701,-0.07474c-2.64947,0.29258 -5.21252,-0.18948 -7.82961,-0.18736c-3.50022,0.0996 -7.04217,-0.2955 -10.60573,-0.49702c-0.39372,0.05417 -0.6701,-0.07474 -0.9681,-0.00991c-3.03238,0.24987 -6.07409,-0.2854 -9.16978,-0.33684c-3.58515,-0.00777 -7.07456,-0.00505 -10.60573,-0.49684c-0.37211,-0.13958 -0.65929,-0.17162 -0.95729,-0.10677c-2.64944,0.29239 -5.21252,-0.18948 -7.8296,-0.18735c-3.68088,-0.01845 -7.42508,-0.3382 -11.08434,-0.55041c-0.19145,-0.02136 -0.28718,-0.03203 -0.47865,-0.05339c-3.20226,0.03493 -6.29794,-0.01631 -9.47859,-0.17512c-2.21257,-0.14872 -4.4251,-0.29761 -6.65925,-0.25279c-3.01078,0.05629 -5.96757,-0.37159 -8.97833,-0.31549c-3.68088,-0.01845 -7.4143,-0.43489 -11.08438,-0.55022c-1.92535,-0.11688 -3.86154,-0.13668 -5.7869,-0.25356c-0.48945,0.04348 -0.89395,0.19434 -1.37259,0.14095c-1.15955,-0.03126 -1.8095,0.58225 -2.10893,1.52889c-0.55568,1.50617 -1.00483,2.92615 -1.46478,4.443c-0.19293,0.86064 -0.48154,1.71042 -0.96165,2.53903c-0.77663,0.01146 -1.47911,0.22696 -2.14921,0.15221c-2.21257,-0.14872 -4.32941,-0.28676 -6.46779,-0.23143c-2.32988,0.03417 -4.65976,0.06832 -7.08537,0.09182c-0.9681,-0.00991 -1.94696,0.07688 -2.96759,-0.33102c0.12022,-1.94669 0.98469,-3.61439 1.3813,-5.43236c0.38582,-1.7211 1.05881,-3.41016 1.44466,-5.13145c0.49233,-1.8071 1.16534,-3.49616 1.74263,-5.19609c0.50024,-0.14017 0.90474,-0.29101 1.28766,-0.24831c3.09571,0.05124 6.2022,0.00583 9.39365,0.06775c3.29797,-0.02426 6.59592,-0.04834 9.8615,0.21783c4.4251,0.29761 8.77607,0.39101 13.11625,0.58108c4.04221,0.25472 8.106,0.31607 12.15898,0.4741c2.79772,0.1161 5.69115,0.24286 8.49968,0.2621c3.09571,0.05124 6.16982,0.29608 9.25472,0.4442c0.20227,-0.07553 0.47865,0.05339 0.68091,-0.02213c2.07507,-0.35646 4.26605,-0.01418 6.39365,0.02719c3.96804,0.05067 7.80799,0.38091 11.75445,0.62515c0.39372,-0.05417 0.6809,-0.02213 0.9681,0.0099c2.79772,0.1161 5.5105,0.12464 8.30822,0.24074c3.65927,0.2122 7.4143,0.43489 11.07358,0.64709c0.19145,0.02136 0.28719,0.03203 0.47865,0.05339c2.99998,0.04058 6.09569,0.09183 9.18059,0.23997c3.65927,0.2122 7.41428,0.43508 11.07358,0.64709c0.19145,0.02136 0.28718,0.03203 0.47864,0.05339c3.03236,-0.24966 5.97834,0.27491 8.97834,0.31549c3.95727,0.14737 8.01025,0.3054 11.96751,0.45293c4.24445,0.17939 8.58463,0.36946 12.83989,0.45199c2.32985,-0.03398 4.63814,0.1254 6.94643,0.28481c2.98918,0.13745 6.09567,0.09203 9.16979,0.33685c0.76583,0.08543 1.62739,0.18152 2.49975,0.18074c4.06378,0.06135 8.12758,0.12251 12.14818,0.57099c1.04221,0.21435 1.9995,0.32111 3.13742,0.54612c-0.89829,2.83995 -1.66849,5.40033 -2.34296,7.97138c-0.57873,2.58154 -1.15746,5.16328 -2.03417,7.80967c-0.47865,-0.05339 -0.76583,-0.08543 -1.05301,-0.11746c-2.41482,-0.0732 -4.69069,-0.52323 -7.12711,-0.40284c-1.06381,-0.02077 -2.14922,0.15221 -3.13745,-0.54593c-0.06978,-2.85005 1.28561,-5.44325 1.42888,-8.4655c-0.57437,-0.06407 -0.95729,-0.10677 -0.87236,0.00078z" data-paper-data="{&quot;index&quot;:null}" fill="#216aff"/><path d="M363.71762,251.47941c-2.79772,-0.1161 -5.49973,-0.22133 -8.29744,-0.33742c-6.94644,-0.28482 -13.79715,-0.55896 -20.7436,-0.84377c-4.14871,-0.16872 -8.39317,-0.34811 -12.63763,-0.5275c-3.18064,-0.15879 -6.26552,-0.30694 -9.44617,-0.46576c-5.404,-0.21065 -10.71225,-0.41081 -16.11625,-0.62146c-3.28717,-0.07261 -6.65926,-0.25279 -9.93562,-0.42227c-6.94644,-0.28482 -13.79714,-0.55895 -20.74359,-0.84377c-6.07409,-0.2854 -12.15899,-0.4741 -18.24387,-0.66282c-6.94644,-0.28482 -13.99941,-0.48343 -20.95666,-0.67137c-3.95724,-0.14755 -8.01025,-0.30558 -11.96751,-0.45293c-1.351,-0.05261 -2.70199,-0.10542 -4.22286,-0.37296c0.45061,-2.30197 1.26255,-4.36768 1.883,-6.45454c0.29799,-0.06485 0.59598,-0.12969 0.78744,-0.10833c5.11679,0.17881 10.32934,0.3681 15.44613,0.54692c5.11679,0.17881 10.31853,0.46498 15.43534,0.6436c5.89343,0.16736 11.69113,0.32404 17.57375,0.58827c2.702,0.10524 5.404,0.21065 8.106,0.31607c5.21254,0.1893 10.42507,0.37878 15.63762,0.56808c2.98918,0.13745 5.97833,0.27491 8.96751,0.41236c5.98916,0.17804 11.96752,0.45276 17.95669,0.63079c2.79772,0.1161 5.69115,0.24287 8.48891,0.35878c5.11679,0.17881 10.13788,0.34675 15.25468,0.52556c5.30826,0.19998 10.60573,0.49702 15.91399,0.69699c3.09571,0.05124 6.19141,0.10252 9.27633,0.25065c1.93616,0.01999 3.94647,0.24422 5.87184,0.36092c-0.16343,2.33402 -1.33669,4.16342 -1.12797,6.63684c-0.77663,0.01146 -1.46834,0.13028 -2.16003,0.24909z" data-paper-data="{&quot;index&quot;:null}" fill="#d0e9ea"/><path d="M403.68169,305.92152c-3.73114,-8.25679 -7.1427,-16.77198 -10.45851,-25.27669c-3.47489,-8.81631 -6.65178,-17.69746 -10.63772,-26.27673c-0.85865,-1.85991 -1.26026,-3.47286 -0.54404,-5.54924c1.03723,-3.2166 1.78727,-6.46522 2.63304,-9.70317c0.1605,-0.57001 0.41675,-1.12954 0.86445,-1.66769c0.24399,0.41935 0.50957,0.64496 0.5729,0.94607c1.12279,2.9675 2.33052,6.04237 3.4425,9.10675c2.58384,7.24685 5.27421,14.40748 8.16682,21.4928c1.15517,2.67706 2.29958,5.45082 3.25251,8.20339c1.74677,5.19337 4.10035,10.16018 5.53835,15.51509c0.48654,1.72032 0.79242,3.32258 0.40658,5.04388c-0.70684,2.86131 -1.41371,5.72279 -2.12055,8.58411c-0.01081,0.09688 -0.11731,0.18288 -0.44771,0.53817c-0.24399,-0.41935 -0.4988,-0.74163 -0.66863,-0.95674z" data-paper-data="{&quot;index&quot;:null}" fill="#216aff"/><path d="M332.69495,303.68784c-0.87237,0.00078 -1.65978,0.10891 -2.52134,0.01282c-2.78693,-0.21279 -5.47812,-0.41506 -8.26504,-0.62785c-4.13792,-0.26559 -8.27583,-0.53119 -12.41376,-0.79659c-5.28666,-0.39374 -10.66905,-0.79814 -16.05143,-1.20253c-4.90374,-0.35102 -9.79672,-0.79872 -14.70046,-1.14973c-0.58518,0.03281 -1.26608,0.05495 -1.79725,-0.39644c-1.54889,-2.62291 -2.88473,-5.4182 -4.22056,-8.21349c-1.39918,-3.09623 -2.90488,-6.10645 -4.19753,-9.28886c-0.84786,-1.95678 -1.89796,-3.83804 -2.43702,-5.95636c-0.05252,-0.39799 -0.29654,-0.81715 0.16197,-1.452c0.53266,-0.43081 1.39421,-0.33471 2.26655,-0.33529c3.67009,0.11531 7.34017,0.23066 11.02103,0.24929c5.32987,0.00641 10.71225,0.41081 16.10544,0.71834c7.03138,0.39217 14.13688,0.98878 21.14665,1.57472c0.57437,0.06407 1.25528,0.04193 1.82965,0.10601c1.14874,0.12814 2.40399,0.17026 3.64846,0.30908c0.87237,-0.00078 1.40353,0.45061 1.59356,1.35377c0.12666,0.60223 0.434,1.32252 0.65639,1.93542c1.41932,3.78465 3.23236,7.51515 4.94966,11.23497c1.63236,3.61245 2.95594,7.38643 4.38606,11.07422c-0.35199,0.54885 -0.67153,0.80706 -1.161,0.85055zM284.16454,276.51667c-2.51054,-0.08406 -4.91455,-0.25414 -7.42508,-0.3382c-0.19145,-0.02136 -0.40449,0.15086 -0.60678,0.22637c-2.59546,-0.19162 -5.15853,-0.67349 -7.81881,-0.28404c0.8464,2.83858 7.16428,16.57842 9.98568,21.6955c1.42512,0.25704 2.96759,0.33102 4.52083,0.30831c0.58518,-0.03281 1.26605,-0.05475 1.84043,0.00932c5.28666,0.39374 10.4776,0.77659 15.66854,1.15964c0.19145,0.02136 0.48942,-0.04329 0.68088,-0.02194c2.78693,0.21279 5.68037,0.33956 8.46731,0.55234c1.80804,0.29975 3.52036,0.58866 5.3716,0.50109c2.4148,0.07338 4.67989,0.6201 7.02055,0.48925c2.93521,0.62127 5.79769,0.15669 8.85022,0.59505c-0.01868,-1.57024 -0.76147,-2.73122 -1.21707,-3.86c-2.16209,-4.94564 -4.23924,-9.78373 -6.40134,-14.72938c-0.39227,-0.82784 -0.89105,-1.56946 -1.17677,-2.4835c-0.26416,-1.1074 -1.18904,-1.50461 -2.06138,-1.50403c-3.7766,-0.02912 -7.57337,-0.74669 -11.44571,-0.7865c-3.29796,0.02407 -6.64844,-0.34966 -9.9248,-0.51914c-0.57437,-0.06407 -1.25528,-0.04193 -1.82964,-0.106c-1.90377,-0.31044 -3.72261,-0.51331 -5.66958,-0.43643c-2.22336,-0.05203 -4.43589,-0.20076 -6.82912,-0.46769z" data-paper-data="{&quot;index&quot;:null}" fill="#010201"/><path d="M211.50165,264.98114c-1.351,-0.05261 -2.79773,-0.11592 -4.15953,-0.07184c-1.65978,0.10891 -2.73292,-0.69698 -3.54985,-2.0622c-2.3766,-3.89144 -4.75322,-7.7827 -7.12981,-11.67413c-0.24399,-0.41935 -0.58371,-0.84919 -0.30586,-1.60227c0.73489,-0.50613 1.60726,-0.50691 2.57532,-0.49682c1.06381,0.02059 2.11684,0.13804 3.19144,0.06193c1.26607,-0.05475 1.98871,0.41779 2.73149,1.57878c2.27008,3.97745 4.23136,8.11662 6.7145,11.92186c0.31813,0.62359 0.63624,1.24719 0.75212,1.94611c-0.34117,0.45198 -0.63917,0.51682 -0.81982,0.39858zM205.1491,259.3721c0.06333,0.30112 0.04173,0.49467 0.11586,0.69912c0.66866,0.95654 1.3373,1.9133 1.99515,2.96673c0.64852,0.26831 1.3078,0.43994 2.12761,0.04134c-0.4016,-1.61295 -1.54888,-2.62308 -2.16355,-4.06366c-0.79822,0.20502 -1.38337,0.23762 -2.07507,0.35646zM205.13475,255.15625c-1.25526,-0.04213 -2.4256,0.02348 -3.68085,-0.01864c0.28573,0.91403 0.69957,1.5483 1.3049,2.20374c1.06381,0.02077 2.04269,-0.06621 3.1065,-0.04543c0.0972,-0.87133 -0.42318,-1.41939 -0.73052,-2.13967zM200.63055,251.22345c0.31668,1.5054 0.31667,1.50538 2.74226,1.4821c-0.39079,-1.70984 -1.58273,-1.45065 -2.74226,-1.4821z" data-paper-data="{&quot;index&quot;:null}" fill="#020202"/><path d="M254.06117,274.43291c1.98724,1.2998 2.16355,4.06365 0.35259,5.52789c-2.34357,1.89466 -7.20266,0.27452 -7.93176,-2.74695c-0.38003,-1.80651 0.46286,-3.28066 2.25076,-3.66933c0.79822,-0.20502 1.68138,-0.30247 2.43639,-0.12017c1.06381,0.02059 1.98871,0.4178 2.892,1.00858zM249.25025,275.85637c-0.60678,0.22637 -0.78889,0.99013 -0.36423,1.52754c0.49878,0.74183 3.02946,1.51413 3.98821,0.73891c0.52183,-0.33373 0.69315,-1.00082 0.26849,-1.5382c-0.41385,-0.63428 -0.96663,-0.89191 -1.92392,-0.99868c-0.6701,-0.07474 -1.36178,0.04406 -1.96856,0.27045z" data-paper-data="{&quot;index&quot;:null}" fill="#030606"/><path d="M258.566,284.44224c1.3697,1.62285 1.14292,3.65574 -0.72056,4.72199c-0.21305,0.1722 -0.51103,0.23705 -0.80903,0.3019c-1.71377,0.59292 -3.29796,0.02407 -4.87135,-0.64146c-1.10557,-0.51525 -1.90085,-2.07424 -1.76049,-3.3327c0.14037,-1.25844 0.82272,-2.16239 2.02545,-2.51825c0.79822,-0.20502 1.60724,-0.50672 2.36229,-0.32461c1.3402,0.14949 2.90279,0.9119 3.77369,1.79312zM253.2318,287.08145c1.09475,0.61214 2.13695,0.82647 3.26556,0.26637c0.61758,-0.32326 0.9062,-1.17303 0.38582,-1.72111c-0.59451,-0.7525 -1.42365,-1.13905 -2.40256,-1.05206c-0.58516,0.03262 -1.18111,0.16211 -1.68138,0.30247c-0.45996,1.51685 -0.38581,1.7211 0.43257,2.20431z" data-paper-data="{&quot;index&quot;:null}" fill="#040605"/><path d="M215.17297,277.24974c-1.64607,-1.75176 -1.07813,-4.23663 1.14667,-5.06659c1.60724,-0.50672 3.24543,-0.42207 4.70148,0.42653c1.5518,0.8591 2.219,2.69764 1.64173,4.39738c-0.32105,1.1404 -1.75841,1.86204 -3.3966,1.77739c-0.19145,-0.02136 -0.28718,-0.03203 -0.47865,-0.05339c-1.53166,-0.17083 -2.73292,-0.69698 -3.61463,-1.48133zM216.49592,274.94718c-0.08637,0.77444 0.68879,1.645 1.73101,1.85913c0.47865,0.05339 1.06379,0.02078 1.56405,-0.1196c0.89396,-0.19434 1.09765,-1.15167 0.49232,-1.80711c-0.43544,-0.4407 -0.9774,-0.79522 -1.45606,-0.8486c-1.04223,-0.21414 -2.16001,0.24908 -2.33134,0.91618z" data-paper-data="{&quot;index&quot;:null}" fill="#040505"/><path d="M239.30382,275.53098c0.99756,1.48346 0.63334,3.01099 -0.82564,3.92637c-2.39611,1.49686 -6.31952,0.17707 -7.37897,-2.48931c-0.45559,-1.12895 -0.26269,-1.98941 0.68526,-2.66775c1.06525,-0.86122 2.27879,-1.31397 3.69313,-0.96023c1.55324,-0.02273 2.82866,0.70766 3.82624,2.19093zM233.8041,275.30965c-0.58516,0.03262 -0.96954,0.87191 -0.6406,1.39862c0.48799,0.83851 1.31715,1.22506 2.27444,1.33183c0.86155,0.09609 1.57486,-0.21646 2.16147,-1.13109c-0.88024,-1.66635 -2.31617,-1.82651 -3.79531,-1.59938z" data-paper-data="{&quot;index&quot;:null}" fill="#030604"/><path d="M231.48109,297.00437c-1.42658,0.62495 -5.21253,-0.18929 -6.30584,-1.68344c-1.17823,-1.6015 -0.76003,-3.61303 1.07106,-4.38884c1.83112,-0.77599 4.47912,-0.18656 5.84881,1.43629c0.59451,0.7525 1.09329,1.49414 0.91118,2.2579c-0.2361,1.24776 -0.7054,1.97949 -1.52523,2.37808zM229.21099,293.02693c-0.75502,-0.1823 -1.59498,-0.47197 -2.4148,-0.07339c-0.29799,0.06485 -0.43691,0.44129 -0.37356,0.74241c0.07413,0.20424 0.14827,0.40848 0.31813,0.62359c0.52038,0.54807 1.07317,0.80569 1.839,0.89112c0.76583,0.08543 1.52086,0.26774 2.09668,-0.55021c-0.09426,-0.89268 -0.61464,-1.44075 -1.46542,-1.63352z" data-paper-data="{&quot;index&quot;:null}" fill="#030506"/><path d="M226.81219,283.25251c0.95584,0.98859 0.95293,2.75239 -0.12312,3.71049c-2.16292,2.01289 -6.62978,1.22078 -7.98577,-2.26277c-0.45559,-1.12895 0.05691,-2.24801 1.19631,-2.90499c0.92632,-0.48459 1.90523,-0.57157 2.57532,-0.49682c1.6274,0.18152 3.46635,1.07284 4.33726,1.95407zM223.08377,286.2668c1.14874,0.12814 1.35099,0.05281 2.24639,-1.02353c-1.50716,-2.12822 -2.63431,-2.44992 -4.70003,-1.30834c0.32747,1.4087 1.12422,2.0857 2.45364,2.33188z" data-paper-data="{&quot;index&quot;:null}" fill="#050504"/><path d="M261.76451,293.12964c2.11537,1.02004 2.29165,3.78408 0.30003,5.13008c-0.52183,0.33373 -1.12859,0.56011 -1.71377,0.59292c-1.36178,0.04406 -2.6804,-0.29898 -3.96658,-0.93266c-0.54199,-0.35432 -0.97744,-0.79504 -1.30637,-1.32174c-0.732,-1.25767 -0.36777,-2.7852 0.78245,-3.53907c0.8522,-0.68902 1.93763,-0.862 3.01223,-0.93811c1.03142,0.31102 1.9887,0.41779 2.892,1.00858zM257.99289,296.53145c0.64852,0.26831 1.40355,0.45042 2.20176,0.2456c0.48945,-0.04348 0.91556,-0.38809 0.96956,-0.87209c0.1605,-0.57001 -0.29653,-0.81715 -0.65785,-1.05342c-1.37114,-0.74106 -2.43497,-0.76163 -3.89395,0.15376c0.09429,0.89248 0.732,1.25766 1.38048,1.52617z" data-paper-data="{&quot;index&quot;:null}" fill="#050304"/><path d="M247.21086,293.27059c0.90186,1.47259 0.57003,2.70966 -0.79323,3.63575c-0.52184,0.33392 -1.12859,0.5601 -1.72458,0.6898c-1.86203,0.18424 -3.33969,-0.4706 -4.66763,-1.59879c-0.2656,-0.2256 -0.50958,-0.64495 -0.66863,-0.95674c-0.62545,-1.34387 -0.31522,-2.38739 0.84576,-3.23793c1.04367,-0.66766 2.11827,-0.74378 3.45847,-0.59428c1.44674,0.06328 2.6372,0.6863 3.54986,2.0622zM242.45249,295.09185c0.64849,0.2685 1.39273,0.54749 2.20176,0.2456c0.60675,-0.22618 0.8846,-0.97927 0.35342,-1.43065c-0.53119,-0.45118 -1.27542,-0.73037 -2.04124,-0.8158c-0.77663,0.01146 -0.9681,-0.0099 -2.03336,0.85132c0.10507,0.79579 0.86009,0.9781 1.51941,1.14953z" data-paper-data="{&quot;index&quot;:null}" fill="#040405"/><path d="M235.68897,287.08493c-1.35888,-1.71973 -0.73841,-3.80679 1.36906,-4.45369c2.21402,-0.73329 5.01027,0.26483 6.24107,2.26412c0.90184,1.47277 0.42028,3.1832 -1.19774,3.7868c-0.91556,0.38791 -1.8095,0.58225 -2.756,0.37876c-1.53166,-0.17083 -2.81784,-0.80454 -3.65637,-1.97601zM239.87445,284.31739c-0.74423,-0.27899 -1.6058,-0.37509 -2.42561,0.02349c-0.61758,0.32326 -0.78889,0.99013 -0.36423,1.52754c0.50958,0.64495 1.23222,1.11749 2.09378,1.2136c0.95728,0.10678 1.14874,0.12814 2.39465,-0.61486c-0.1576,-1.19381 -0.88023,-1.66634 -1.69859,-2.14977z" data-paper-data="{&quot;index&quot;:null}" fill="#040506"/><path d="M335.13385,282.69205c2.90425,0.0299 5.88263,0.26423 8.75448,0.58457c0.6701,0.07474 1.43593,0.16017 1.83898,0.89113c-0.1713,0.6669 -0.58662,0.91461 -1.27831,1.03343c-0.89396,0.19434 -1.6382,-0.08464 -2.51055,-0.08388c-2.40399,-0.17026 -4.70147,-0.42653 -7.1055,-0.59661c-0.6701,-0.07474 -1.32939,-0.24638 -1.62592,-1.06353c0.4801,-0.82841 1.25672,-0.83988 1.92683,-0.76512z" data-paper-data="{&quot;index&quot;:null}" fill="#0c1212"/><path d="M364.07689,291.70291c-0.89396,0.19434 -1.6382,-0.08464 -2.51054,-0.08388c-2.40399,-0.17026 -4.70148,-0.42653 -7.1055,-0.59661c-0.6701,-0.07474 -1.32939,-0.24638 -1.62591,-1.06353c0.4801,-0.82841 1.25672,-0.83988 2.03333,-0.85113c2.91506,-0.06697 5.88264,0.26403 8.75451,0.58437c0.6701,0.07474 1.43593,0.16017 1.83898,0.89113c-0.07559,0.67776 -0.58665,0.91481 -1.38483,1.11963z" data-paper-data="{&quot;index&quot;:null}" fill="#0d1313"/><path d="M386.38513,298.50382c-0.60678,0.22637 -1.107,0.36654 -1.7771,0.2918c-2.60625,-0.09474 -5.30825,-0.20017 -7.99944,-0.40227c-0.57437,-0.06407 -1.25526,-0.04212 -1.79725,-0.39644c-0.36131,-0.23647 -0.73343,-0.37587 -0.67944,-0.85986c0.25624,-0.55953 0.74569,-0.60302 1.33084,-0.63563c3.03238,-0.24987 6.07409,0.2854 9.18059,0.23997c0.77663,-0.01146 1.6058,0.37509 2.23271,0.83696c0.03094,0.59155 -0.19292,0.86064 -0.49092,0.92549z" data-paper-data="{&quot;index&quot;:null}" fill="#090c0d"/><path d="M363.43709,286.14319c-0.90474,0.29101 -1.68138,0.30247 -2.54292,0.20637c-2.21257,-0.14872 -4.31858,-0.38362 -6.45698,-0.3283c-0.77663,0.01146 -1.53166,-0.17083 -2.2867,-0.35296c-0.37211,-0.13958 -0.9357,-0.30033 -0.96664,-0.89191c0.18212,-0.76376 0.85221,-0.68903 1.4374,-0.72183c3.03236,-0.24966 5.97833,0.27491 8.98914,0.21861c0.87233,-0.00058 1.70151,0.38596 2.42416,0.85851c0.02015,0.68824 -0.29943,0.94665 -0.59744,1.0115z" data-paper-data="{&quot;index&quot;:null}" fill="#090d0e"/><path d="M347.90021,289.01652c0.28719,0.03203 0.54197,0.35451 0.50958,0.64495c-0.03238,0.29025 -0.24545,0.46265 -0.55422,0.62418c-1.01127,0.37723 -2.08588,0.45333 -3.14971,0.43276c-2.40402,-0.17008 -4.7015,-0.42635 -7.13788,-0.30617c-0.39372,0.05417 -0.86155,-0.09609 -1.32939,-0.24637c-0.19145,-0.02136 -0.35053,-0.33295 -0.42466,-0.5374c-0.06333,-0.30112 0.06476,-0.58069 0.37356,-0.74241c0.33038,-0.35508 0.81981,-0.39858 1.29845,-0.34518c2.90425,0.0299 5.80848,0.05999 8.617,0.07921c0.6701,0.07474 1.14875,0.12813 1.79725,0.39644z" data-paper-data="{&quot;index&quot;:null}" fill="#080b0b"/><path d="M386.50308,304.39747c-3.18064,-0.15879 -6.44619,-0.42499 -9.62684,-0.58379c-0.38291,-0.04271 -0.75503,-0.18231 -1.12716,-0.32169c-0.27639,-0.12891 -0.53117,-0.4514 -0.49877,-0.74183c0.04319,-0.38713 0.35195,-0.54865 0.64994,-0.61349c0.69169,-0.11882 1.27687,-0.15162 1.86205,-0.18444c1.63817,0.08484 3.38287,0.08347 5.02106,0.16812c1.25528,0.04193 2.40403,0.17008 3.6485,0.30889c0.6701,0.07474 1.43593,0.16017 1.72164,1.0742c-0.4693,0.73173 -1.07607,0.9581 -1.65044,0.89403z" data-paper-data="{&quot;index&quot;:null}" fill="#07090a"/><path d="M366.65138,298.16463c-1.6274,-0.18152 -3.18064,-0.15862 -4.81882,-0.24346c-1.24447,-0.13881 -2.59547,-0.19142 -3.83995,-0.33025c-0.57437,-0.06407 -1.05301,-0.11746 -1.49925,-0.46129c-0.18066,-0.11823 -0.35051,-0.33315 -0.32893,-0.52672c0.02159,-0.19357 0.14972,-0.47333 0.35199,-0.54885c0.59596,-0.1295 1.19192,-0.25899 1.7771,-0.2918c1.74471,-0.00137 3.48939,-0.00272 5.22333,0.09262c1.25528,0.04193 2.40402,0.17007 3.64849,0.30888c0.6701,0.07474 1.3402,0.14949 1.72165,1.07421c-0.67157,0.80726 -1.5439,0.80784 -2.23559,0.92665z" data-paper-data="{&quot;index&quot;:null}" fill="#07090a"/><path d="M380.12771,286.82871c-1.25528,-0.04193 -2.39321,-0.26695 -3.65929,-0.21201c-1.64897,0.01204 -3.3829,-0.08328 -5.01027,-0.26482c-0.47865,-0.05339 -1.04221,-0.21436 -1.51004,-0.3646c-0.27641,-0.12871 -0.54197,-0.35451 -0.4988,-0.74164c0.04319,-0.38713 0.35198,-0.54884 0.64994,-0.61349c0.50026,-0.14037 1.08542,-0.17299 1.57486,-0.21647c1.74471,-0.00137 3.48942,-0.00272 5.22333,0.09262c1.25528,0.04193 2.40402,0.17008 3.64848,0.30889c0.6701,0.07474 1.32939,0.24638 1.71084,1.17108c-1.35245,0.82919 -1.35245,0.82919 -2.12906,0.84045z" data-paper-data="{&quot;index&quot;:null}" fill="#060909"/><path d="M373.70663,290.5229c2.71279,0.00855 5.4997,0.22151 8.2017,0.32695c0.58518,-0.03281 1.14874,0.12814 1.61661,0.27821c0.37211,0.13958 0.82915,0.38654 0.66863,0.95674c-1.23513,0.64632 -1.23513,0.64632 -2.29892,0.62553c-1.44674,-0.06328 -2.98919,-0.13726 -4.53164,-0.21142c-1.54246,-0.07398 -3.07411,-0.24481 -4.60576,-0.41568c-0.57437,-0.06407 -1.23367,-0.23569 -1.31715,-1.22507c0.73489,-0.50613 1.51151,-0.5174 2.26655,-0.33528z" data-paper-data="{&quot;index&quot;:null}" fill="#060909"/><path d="M341.11554,300.31478c0.51104,-0.23705 1.10699,-0.36654 1.58565,-0.31316c2.99998,0.04058 5.98916,0.17804 8.97834,0.31549c0.57437,0.06407 1.14873,0.12814 1.48847,0.55797c0.05254,0.3978 -0.08637,0.77444 -0.49088,0.92528c-0.72409,0.40925 -1.50072,0.42072 -2.27734,0.43197c-2.79774,-0.11591 -5.69118,-0.24269 -8.4889,-0.35879c-0.47865,-0.05339 -0.95729,-0.10678 -1.29701,-0.53662c-0.14825,-0.40867 -0.09427,-0.89267 0.5017,-1.02217z" data-paper-data="{&quot;index&quot;:null}" fill="#070909"/><path d="M358.50862,300.78481c0.70249,-0.2157 1.48993,-0.32384 2.25575,-0.23841c2.59548,0.19143 5.19094,0.38285 7.77562,0.67116c0.47865,0.05339 0.85075,0.19299 1.31859,0.34325c0.18067,0.11803 0.35053,0.33295 0.42466,0.5374c0.06333,0.30112 -0.1605,0.57 -0.37356,0.74241c-0.72409,0.40925 -1.50071,0.42051 -2.26654,0.3351c-2.59548,-0.19143 -5.19094,-0.38285 -7.78641,-0.57448c-0.86155,-0.09609 -1.52088,-0.26754 -2.12619,-0.92317c0.14972,-0.47333 0.37356,-0.74241 0.77807,-0.89326z" data-paper-data="{&quot;index&quot;:null}" fill="#050606"/><path d="M340.7428,294.09864c2.69121,0.20211 5.28666,0.39374 7.96707,0.6927c0.47865,0.05339 0.85078,0.19278 1.31861,0.34305c0.18066,0.11823 0.35051,0.33315 0.32893,0.52672c0.07413,0.20424 -0.14972,0.47333 -0.25625,0.55953c-0.63914,0.51662 -1.41577,0.52808 -2.1816,0.44265c-2.70199,-0.10542 -5.26508,-0.58729 -7.97786,-0.59583c-0.77663,0.01146 -1.52085,-0.26772 -2.11537,-1.02004c0.98034,-0.96878 1.94841,-0.95869 2.9165,-0.94879z" data-paper-data="{&quot;index&quot;:null}" fill="#050606"/><path d="M321.46671,300.08315c-5.92789,-5.07164 -11.73848,-10.32618 -17.44253,-15.66672c-2.27296,-2.21383 -4.6525,-4.34128 -6.93626,-6.45823c-0.08492,-0.10755 -0.25478,-0.32248 -0.32893,-0.52672c0.57437,0.06407 1.25528,0.04193 1.82965,0.10601c3.37208,0.18016 6.63765,0.44633 9.9248,0.51914c3.7766,0.02912 7.57337,0.74669 11.44571,0.7865c0.87233,-0.00058 1.70149,0.38596 2.06138,1.50403c0.20081,0.80648 0.78451,1.65567 1.17677,2.4835c2.16209,4.94564 4.33497,9.7944 6.40134,14.72938c0.4448,1.22564 1.09185,2.37594 1.21706,3.85999c-3.05253,-0.43839 -6.01074,0.01554 -8.85021,-0.59504c-0.26559,-0.22579 -0.32893,-0.52672 -0.49877,-0.74184z" data-paper-data="{&quot;index&quot;:null}" fill="#00ff00"/><path d="M284.72583,284.51796c5.5558,4.93205 11.12235,9.76743 16.4651,14.87171c-0.19145,-0.02136 -0.48944,0.04348 -0.6809,0.02213c-5.28666,-0.39374 -10.47759,-0.77677 -15.66852,-1.15983c-0.57437,-0.06407 -1.25528,-0.04193 -1.84046,-0.00913c-1.55324,0.02273 -3.09571,-0.05124 -4.52083,-0.30831c-2.83219,-5.02039 -9.15007,-18.76021 -9.98567,-21.69568c2.66025,-0.38927 5.22333,0.09262 7.8188,0.28405c2.80415,2.66503 5.50178,5.41626 8.41247,7.99507z" data-paper-data="{&quot;index&quot;:null}" fill="#00ff00"/><path d="M277.01586,276.30739c2.51054,0.08387 4.92535,0.15726 7.42507,0.3382c2.88909,2.77239 5.87393,5.55545 8.85875,8.33872c4.13212,3.79321 8.27502,7.48953 12.40714,11.28272c1.32795,1.12817 2.54938,2.34255 3.86651,3.56761c-2.78693,-0.21279 -5.68037,-0.33956 -8.46731,-0.55234c-5.34271,-5.10445 -11.00503,-9.95032 -16.46509,-14.8719c-2.81497,-2.56814 -5.5234,-5.22249 -8.32755,-7.88752c0.20223,-0.07533 0.4045,-0.15086 0.70248,-0.21551z" data-paper-data="{&quot;index&quot;:null}" fill="#87ff87"/><path d="M315.04064,300.34641c-3.516,-3.23426 -7.13853,-6.3827 -10.54802,-9.70318c-3.59013,-3.4387 -7.16947,-6.97426 -10.64226,-10.59605c-0.96664,-0.89191 -2.23125,-1.71896 -2.76097,-3.05215c1.94696,-0.07688 3.7658,0.126 5.66958,0.43643c0.08495,0.10736 0.14828,0.40849 0.32893,0.52672c2.36871,2.22433 4.6525,4.34128 6.93626,6.45823c5.70407,5.34054 11.51464,10.59508 17.44253,15.66672c0.16984,0.21511 0.32893,0.52672 0.49877,0.74184c-2.43639,0.12017 -4.70148,-0.42654 -6.92484,-0.47858z" data-paper-data="{&quot;index&quot;:null}" fill="#86ff86"/><path d="M309.456,300.01753c-1.32795,-1.12817 -2.54937,-2.34254 -3.86653,-3.56742c-4.13212,-3.79321 -8.27499,-7.48972 -12.40711,-11.28292c-2.98483,-2.78307 -5.87391,-5.55565 -8.85875,-8.33872c2.22336,0.05203 4.43589,0.20076 6.65925,0.25279c0.62545,1.34387 1.80514,2.06337 2.76097,3.05216c3.47282,3.62159 7.05214,7.15716 10.64229,10.59584c3.50518,3.33133 7.032,6.46891 10.54799,9.70336c-1.85123,0.08757 -3.56354,-0.20153 -5.4781,-0.41509z" data-paper-data="{&quot;index&quot;:null}" fill="#01ff01"/><path d="M209.38772,263.0793c-0.72409,0.40925 -1.47911,0.22697 -2.12761,-0.04134c-0.75358,-1.0641 -1.32649,-2.01017 -1.99515,-2.96673c-0.07412,-0.20443 -0.05252,-0.398 -0.11586,-0.69912c0.69169,-0.11882 1.28766,-0.2483 2.07507,-0.35646c0.60387,1.53743 1.75115,2.54757 2.16355,4.06366z" data-paper-data="{&quot;index&quot;:null}" fill="#589ca0"/><path d="M202.75879,257.34134c-0.61611,-0.55874 -1.02996,-1.19302 -1.3049,-2.20374c1.35099,0.05281 2.52133,-0.01281 3.68085,0.01864c0.30733,0.72028 0.8385,1.17166 0.73052,2.13967c-1.17034,0.06543 -2.13842,0.05553 -3.1065,0.04543z" data-paper-data="{&quot;index&quot;:null}" fill="#5ba3a7"/><path d="M200.63055,251.22345c1.15952,0.03145 2.36228,-0.32463 2.74226,1.4821c-2.42559,0.0233 -2.42558,0.02331 -2.74226,-1.4821z" data-paper-data="{&quot;index&quot;:null}" fill="#56999d"/><path d="M253.14272,276.58462c0.42466,0.5374 0.26414,1.10759 -0.26849,1.5382c-0.94794,0.67834 -3.39371,0.01359 -3.98821,-0.73891c-0.33974,-0.42983 -0.24255,-1.30115 0.36423,-1.52754c0.60678,-0.22637 1.29845,-0.34518 1.96856,-0.27045c0.95728,0.10678 1.51006,0.3644 1.92392,0.99868z" data-paper-data="{&quot;index&quot;:null}" fill="#01f4f4"/><path d="M254.48063,284.57464c0.97888,-0.08698 1.80807,0.29957 2.40256,1.05206c0.52038,0.54807 0.32748,1.40852 -0.38582,1.72111c-1.12859,0.56011 -2.26652,0.33509 -3.26556,-0.26637c-0.81838,-0.48323 -0.89253,-0.68748 -0.43257,-2.20431c0.48945,-0.04348 1.09622,-0.26986 1.68138,-0.30247z" data-paper-data="{&quot;index&quot;:null}" fill="#35a76d"/><path d="M220.28331,274.87963c0.60533,0.65543 0.31668,1.5054 -0.49232,1.80711c-0.50026,0.14037 -0.98968,0.18366 -1.56405,0.1196c-1.04223,-0.21414 -1.91313,-1.09536 -1.73101,-1.85913c0.16053,-0.5702 1.27832,-1.03363 2.33134,-0.91618c0.47865,0.05339 1.03141,0.31103 1.45606,0.8486z" data-paper-data="{&quot;index&quot;:null}" fill="#da6694"/><path d="M235.43793,278.04012c-0.86155,-0.09609 -1.69072,-0.48264 -2.27444,-1.33183c-0.43546,-0.44051 -0.05108,-1.2798 0.6406,-1.39862c1.48993,-0.32384 2.92584,-0.16366 3.79531,1.59938c-0.49089,0.92528 -1.21498,1.33455 -2.16147,1.13109z" data-paper-data="{&quot;index&quot;:null}" fill="#01f001"/><path d="M228.67546,295.22134c-0.76583,-0.08543 -1.41434,-0.35373 -1.839,-0.89112c-0.16984,-0.21511 -0.24398,-0.41935 -0.31813,-0.62359c-0.06333,-0.30112 0.06479,-0.58089 0.37358,-0.74242c0.81981,-0.39858 1.65978,-0.1089 2.4148,0.07339c0.75504,0.1821 1.26462,0.82706 1.3697,1.62285c-0.66075,0.71039 -1.42658,0.62495 -2.00095,0.56088z" data-paper-data="{&quot;index&quot;:null}" fill="#008bda"/><path d="M225.33017,285.24327c-0.89541,1.07634 -1.09764,1.15167 -2.24639,1.02353c-1.3402,-0.14949 -2.12618,-0.92316 -2.45364,-2.33188c2.06572,-1.14158 3.19287,-0.81987 4.70003,1.30834z" data-paper-data="{&quot;index&quot;:null}" fill="#ebe502"/><path d="M260.50633,294.85151c0.36134,0.23628 0.72263,0.47274 0.65785,1.05342c-0.14972,0.47333 -0.4693,0.73172 -0.96956,0.87209c-0.70248,0.21551 -1.45753,0.03339 -2.20176,-0.2456c-0.65929,-0.17162 -1.20128,-0.52612 -1.38048,-1.52617c1.45898,-0.91539 2.53358,-0.9915 3.89395,-0.15376z" data-paper-data="{&quot;index&quot;:null}" fill="#f30001"/><path d="M242.85989,293.1772c0.77663,-0.01146 1.42512,0.25704 2.04124,0.81579c0.53119,0.45118 0.34909,1.21496 -0.35342,1.43065c-0.70249,0.2157 -1.45753,0.03339 -2.20176,-0.2456c-0.56357,-0.16094 -1.31859,-0.34306 -1.41287,-1.23573c1.16099,-0.85054 1.26753,-0.93675 1.92684,-0.76512z" data-paper-data="{&quot;index&quot;:null}" fill="#de93ad"/><path d="M239.1784,287.08202c-0.86155,-0.09609 -1.48848,-0.55796 -2.09378,-1.2136c-0.41385,-0.63428 -0.25335,-1.20428 0.36423,-1.52754c0.81981,-0.39858 1.69218,-0.39935 2.42561,-0.02349c0.82915,0.38654 1.55177,0.85929 1.69859,2.14977c-1.24592,0.74299 -1.44817,0.81851 -2.39465,0.61486z" data-paper-data="{&quot;index&quot;:null}" fill="#865492"/></g><g stroke="#000000"><path d="M268.8063,225.27202c11.3712,31.3371 6.02603,39.36733 -1.58006,42.12733c-7.6061,2.76 -22.99023,-20.40633 -34.36144,-51.74346c-11.37119,-31.33711 55.8491,-4.93782 63.45521,-7.69782c6.90486,1.62821 3.36186,7.10951 -3.90082,10.11109c-8.95658,3.70165 -24.58484,4.52428 -23.61289,7.20285z" fill="#216aff" stroke-width="2"/><path d="M288.71202,244.69141c4.88081,13.45068 -2.34707,28.41312 -16.1439,33.41953c-13.79683,5.00641 -28.93808,-1.83902 -33.81888,-15.28971c-4.88081,-13.45068 2.34708,-28.41313 16.14391,-33.41954c13.79683,-5.00641 28.93807,1.83902 33.81887,15.28971z" fill="#faddbf" stroke-width="2"/><path d="M247.3772,247.27605c4.88081,13.45068 39.06662,24.8877 25.26978,29.8941c-13.79683,5.00641 -28.93808,-1.83902 -33.81887,-15.28971c-4.88081,-13.45068 3.66828,-28.05508 8.54907,-14.6044z" fill="#ef8b89" stroke-width="0"/></g></g></g></svg>