<svg version="1.1" xmlns="http://www.w3.org/2000/svg" xmlns:xlink="http://www.w3.org/1999/xlink" width="110.52354" height="110.52354" viewBox="0,0,110.52354,110.52354"><g transform="translate(-264.73823,-124.73823)"><g data-paper-data="{&quot;isPaintingLayer&quot;:true}" fill-rule="nonzero" stroke-linejoin="miter" stroke-miterlimit="10" stroke-dasharray="" stroke-dashoffset="0" style="mix-blend-mode: normal"><path d="M267.23823,180c0,-29.13952 23.62225,-52.76177 52.76177,-52.76177c29.13952,0 52.76177,23.62225 52.76177,52.76177c0,29.13952 -23.62225,52.76177 -52.76177,52.76177c-29.13952,0 -52.76177,-23.62225 -52.76177,-52.76177z" fill="#001aff" stroke="#000000" stroke-width="5" stroke-linecap="butt"/><path d="M370.63816,167.15219l-14.87708,14.23025l-11.85854,-16.38636l-22.42343,13.15221l-15.30831,-14.01465l-19.40489,12.28976l-14.01464,-17.24879" fill="none" stroke="#000000" stroke-width="5" stroke-linecap="round"/><path d="M328.06064,183.7547l-3.31004,28.31921" fill="none" stroke="#000000" stroke-width="7.5" stroke-linecap="round"/><path d="M343.32358,183.38692l-3.49392,27.76753" fill="none" stroke="#000000" stroke-width="7.5" stroke-linecap="round"/><path d="M298.12381,212.75734c-2.41315,-0.65321 -1.75994,-3.06637 -1.75994,-3.06637l0.89103,-3.04765c0.8157,-0.93846 1.43987,-2.08627 2.44708,-2.81539c1.07348,-0.77709 2.32294,-1.47179 3.64262,-1.59294c6.16959,-0.56634 8.80036,6.70272 7.52074,11.84052c-0.33047,1.32687 -1.21085,2.45213 -1.81627,3.6782c0,0 -1.14264,2.22359 -3.36623,1.08096c-2.2236,-1.14263 -1.08096,-3.36624 -1.08096,-3.36624c0.47092,-0.86851 1.12852,-1.65935 1.41274,-2.60556c0.34224,-1.13936 -0.20984,-4.92461 -1.01692,-5.78421c-0.81895,-0.87222 -2.99248,1.53331 -3.33274,1.92077l-0.47477,1.99793c0,0 -0.65321,2.41315 -3.06637,1.75994z" fill="#000000" stroke="none" stroke-width="0.5" stroke-linecap="butt"/><path d="M318.60399,182.73992l32.08284,-3.03271" fill="none" stroke="#000000" stroke-width="3.5" stroke-linecap="round"/></g></g></svg>